<?xml version="1.0" encoding="UTF-8"?>
<svg width="134px" height="98px" viewBox="0 0 134 98" version="1.1" xmlns="http://www.w3.org/2000/svg" xmlns:xlink="http://www.w3.org/1999/xlink">
    <!-- Generator: Sketch 55.2 (78181) - https://sketchapp.com -->
    <title>Blank-faq</title>
    <desc>Created with Sketch.</desc>
    <g id="a" stroke="none" stroke-width="1" fill="none" fill-rule="evenodd">
        <g id="No-Results" transform="translate(-121.000000, -479.000000)">
            <g id="Blank-faq" transform="translate(121.000000, 479.000000)">
                <path d="M128.243437,98 L80.0274173,98 C78.5730717,98 77.3937947,96.8126893 77.3937947,95.3484361 L77.3937947,87.4774713 C77.3937947,86.0128961 78.5730717,84.8262295 80.0274173,84.8262295 L128.243437,84.8262295 L128.243437,98" id="Fill-5" fill="#23A79A"></path>
                <polygon id="Fill-6" fill="#FFFFFE" points="79.9522673 96.3934426 128.243437 96.3934426 128.243437 86.7540984 79.9522673 86.7540984"></polygon>
                <polygon id="Fill-7" fill="#F1F2F1" points="79.9522673 88.6769869 128.243437 88.6769869 128.243437 88.3656361 79.9522673 88.3656361"></polygon>
                <polygon id="Fill-8" fill="#F1F2F1" points="79.9522673 90.6048557 128.243437 90.6048557 128.243437 90.2935049 79.9522673 90.2935049"></polygon>
                <polygon id="Fill-9" fill="#F1F2F1" points="79.9522673 92.5327246 128.243437 92.5327246 128.243437 92.2213738 79.9522673 92.2213738"></polygon>
                <polygon id="Fill-10" fill="#F1F2F1" points="79.9522673 94.4605934 128.243437 94.4605934 128.243437 94.1492426 79.9522673 94.1492426"></polygon>
                <path d="M117.369928,84.8262295 L77.9480047,84.8262295 C76.7590082,84.8262295 75.7947494,83.870862 75.7947494,82.6924379 L75.7947494,76.3570598 C75.7947494,75.1786356 76.7590082,74.2229508 77.9480047,74.2229508 L117.369928,74.2229508 L117.369928,84.8262295" id="Fill-11" fill="#80C9C2" fill-rule="nonzero"></path>
                <polygon id="Fill-12" fill="#FFFFFE" points="78.0334129 83.5409836 117.369928 83.5409836 117.369928 75.5081967 78.0334129 75.5081967"></polygon>
                <polygon id="Fill-13" fill="#F1F2F1" points="78.0334129 77.4024885 117.369928 77.4024885 117.369928 77.1483311 78.0334129 77.1483311"></polygon>
                <polygon id="Fill-14" fill="#F1F2F1" points="78.0334129 79.0090459 117.369928 79.0090459 117.369928 78.7548885 78.0334129 78.7548885"></polygon>
                <polygon id="Fill-15" fill="#F1F2F1" points="78.0334129 80.6156033 117.369928 80.6156033 117.369928 80.3614459 78.0334129 80.3614459"></polygon>
                <polygon id="Fill-16" fill="#F1F2F1" points="78.0334129 82.2221607 117.369928 82.2221607 117.369928 81.9680033 78.0334129 81.9680033"></polygon>
                <path d="M124.725537,74.2229508 L85.3036465,74.2229508 C84.1143115,74.2229508 83.150358,73.2716025 83.150358,72.09743 L83.150358,67.3520664 C83.150358,66.17821 84.1143115,65.2262295 85.3036465,65.2262295 L124.725537,65.2262295 L124.725537,74.2229508" id="Fill-17" fill="#23A79A"></path>
                <polygon id="Fill-18" fill="#FFFFFE" points="85.3890215 72.9377049 124.725537 72.9377049 124.725537 66.5114754 85.3890215 66.5114754"></polygon>
                <polygon id="Fill-19" fill="#F1F2F1" points="85.3890215 68.4057672 124.725537 68.4057672 124.725537 68.1516098 85.3890215 68.1516098"></polygon>
                <polygon id="Fill-20" fill="#F1F2F1" points="85.3890215 70.0123246 124.725537 70.0123246 124.725537 69.7581672 85.3890215 69.7581672"></polygon>
                <polygon id="Fill-21" fill="#F1F2F1" points="85.3890215 71.6190426 124.725537 71.6190426 124.725537 71.3645639 85.3890215 71.3645639"></polygon>
                <path d="M71.9570406,94.4655738 L15.2188157,94.4655738 L0.0565481387,46.836779 C-0.184487635,46.0793857 0.375162314,45.304918 1.16339718,45.304918 L55.4590198,45.304918 C55.9643968,45.304918 56.4113505,45.6338413 56.5658688,46.1190111 L71.9570406,94.4655738" id="Fill-22" fill="#E1F1F0"></path>
                <polyline id="Fill-23" fill="#FFFFFE" points="66.8400955 90.9311475 18.2104958 90.9311475 4.79713604 49.1606557 53.4264151 49.1606557 66.8400955 90.9311475"></polyline>
                <path d="M99.5930877,94.4655738 L15.5384972,94.4655738 C14.5517126,94.4655738 13.75179,95.2568396 13.75179,96.2326286 C13.75179,97.2087342 14.5517126,98 15.5384972,98 L99.5930877,98 C100.579552,98 101.379475,97.2087342 101.379475,96.2326286 C101.379475,95.2568396 100.579552,94.4655738 99.5930877,94.4655738" id="Fill-24" fill="#80C9C2" fill-rule="nonzero"></path>
                <path d="M44.2671533,94.4655738 L15.5374624,94.4655738 C14.5512493,94.4655738 13.75179,95.2568396 13.75179,96.2326286 C13.75179,97.2087342 14.5512493,98 15.5374624,98 L44.2671533,98 C45.2533664,98 46.052506,97.2087342 46.052506,96.2326286 C46.052506,95.2568396 45.2533664,94.4655738 44.2671533,94.4655738" id="Fill-25" fill="#23A79A"></path>
                <path d="M44.9553062,53.3377049 L8.7726174,53.3377049 C8.34347977,53.3377049 7.99522673,52.9781863 7.99522673,52.5344262 C7.99522673,52.0909978 8.34347977,51.7311475 8.7726174,51.7311475 L44.9553062,51.7311475 C45.3847648,51.7311475 45.7326969,52.0909978 45.7326969,52.5344262 C45.7326969,52.9781863 45.3847648,53.3377049 44.9553062,53.3377049" id="Fill-26" fill="#E1F1F0"></path>
                <path d="M11.3277201,59.442623 L28.009115,59.442623 C28.4363924,59.442623 28.7828162,59.0827727 28.7828162,58.6393443 C28.7828162,58.1955842 28.4363924,57.8360656 28.009115,57.8360656 L11.3277201,57.8360656 C10.9004427,57.8360656 10.5536993,58.1955842 10.5536993,58.6393443 C10.5536993,59.0827727 10.9004427,59.442623 11.3277201,59.442623" id="Fill-27" fill="#23A79A"></path>
                <path d="M34.8674714,65.8688525 L12.4642708,65.8688525 C12.2922723,65.8688525 12.1527446,65.7251995 12.1527446,65.5477069 C12.1527446,65.3702142 12.2922723,65.2262295 12.4642708,65.2262295 L34.8674714,65.2262295 C35.0394699,65.2262295 35.1789976,65.3702142 35.1789976,65.5477069 C35.1789976,65.7251995 35.0394699,65.8688525 34.8674714,65.8688525" id="Fill-28" fill="#E1F1F0"></path>
                <path d="M38.7080689,68.4393443 L13.4204909,68.4393443 C13.2500873,68.4393443 13.1121718,68.2953596 13.1121718,68.1178669 C13.1121718,67.9403742 13.2500873,67.7967213 13.4204909,67.7967213 L38.7080689,67.7967213 C38.878791,67.7967213 39.0167064,67.9403742 39.0167064,68.1178669 C39.0167064,68.2953596 38.878791,68.4393443 38.7080689,68.4393443" id="Fill-29" fill="#E1F1F0"></path>
                <path d="M38.0685493,71.0098361 L14.3801381,71.0098361 C14.2097889,71.0098361 14.071599,70.8659257 14.071599,70.6885246 C14.071599,70.5111235 14.2097889,70.3672131 14.3801381,70.3672131 L38.0685493,70.3672131 C38.2388985,70.3672131 38.3770883,70.5111235 38.3770883,70.6885246 C38.3770883,70.8659257 38.2388985,71.0098361 38.0685493,71.0098361" id="Fill-30" fill="#E1F1F0"></path>
                <path d="M42.2244617,73.5803279 L15.0210416,73.5803279 C14.849806,73.5803279 14.7112172,73.4364175 14.7112172,73.2590164 C14.7112172,73.0816153 14.849806,72.9377049 15.0210416,72.9377049 L42.2244617,72.9377049 C42.3956973,72.9377049 42.5346062,73.0816153 42.5346062,73.2590164 C42.5346062,73.4364175 42.3956973,73.5803279 42.2244617,73.5803279" id="Fill-31" fill="#E1F1F0"></path>
                <path d="M38.0660279,76.1508197 L15.9817048,76.1508197 C15.8099635,76.1508197 15.6706444,76.0071667 15.6706444,75.8296741 C15.6706444,75.6521814 15.8099635,75.5081967 15.9817048,75.5081967 L38.0660279,75.5081967 C38.2377692,75.5081967 38.3770883,75.6521814 38.3770883,75.8296741 C38.3770883,76.0071667 38.2377692,76.1508197 38.0660279,76.1508197" id="Fill-32" fill="#E1F1F0"></path>
                <path d="M40.9472513,78.7213115 L16.9385085,78.7213115 C16.7682157,78.7213115 16.6300716,78.5773268 16.6300716,78.3998341 C16.6300716,78.2223415 16.7682157,78.0786885 16.9385085,78.0786885 L40.9472513,78.0786885 C41.1175441,78.0786885 41.2553699,78.2223415 41.2553699,78.3998341 C41.2553699,78.5773268 41.1175441,78.7213115 40.9472513,78.7213115" id="Fill-33" fill="#E1F1F0"></path>
                <path d="M35.1909075,81.2918033 L17.8973979,81.2918033 C17.727402,81.2918033 17.5894988,81.1478929 17.5894988,80.9704918 C17.5894988,80.7930907 17.727402,80.6491803 17.8973979,80.6491803 L35.1909075,80.6491803 C35.3609035,80.6491803 35.4988067,80.7930907 35.4988067,80.9704918 C35.4988067,81.1478929 35.3609035,81.2918033 35.1909075,81.2918033" id="Fill-34" fill="#E1F1F0"></path>
                <path d="M39.9849931,83.8622951 L18.5403878,83.8622951 C18.3685303,83.8622951 18.2291169,83.7183847 18.2291169,83.5409836 C18.2291169,83.3635825 18.3685303,83.2196721 18.5403878,83.2196721 L39.9849931,83.2196721 C40.1568506,83.2196721 40.2959427,83.3635825 40.2959427,83.5409836 C40.2959427,83.7183847 40.1568506,83.8622951 39.9849931,83.8622951" id="Fill-35" fill="#E1F1F0"></path>
                <polyline id="Fill-36" fill="#E1F1F0" points="61.4033413 83.5409836 48.7459396 83.5409836 41.2553699 60.4065574 53.9127716 60.4065574 61.4033413 83.5409836"></polyline>
                <path d="M50.3620371,84.0311103 L50.3620371,84.0311103 C48.4537044,82.1138007 48.4537044,79.0052555 50.3620371,77.0879459 L80.077411,47.2327869 L86.9880668,54.1759513 L57.2726929,84.0311103 C55.3643603,85.9480998 52.2703697,85.9480998 50.3620371,84.0311103" id="Fill-37" fill="#80C9C2" fill-rule="nonzero"></path>
                <path d="M103.778043,53.7917719 C90.8998131,53.7917719 80.4600704,43.3026639 80.4600704,30.3639344 C80.4600704,17.425205 90.8998131,6.93641817 103.778043,6.93641817 C116.656273,6.93641817 127.096016,17.425205 127.096016,30.3639344 C127.096016,43.3026639 116.656273,53.7917719 103.778043,53.7917719 M103.778043,0 C87.0868596,0 73.5560859,13.5946601 73.5560859,30.3639344 C73.5560859,47.13353 87.0868596,60.7278689 103.778043,60.7278689 C120.469226,60.7278689 134,47.13353 134,30.3639344 C134,13.5946601 120.469226,0 103.778043,0" id="Fill-38" fill="#80C9C2" fill-rule="nonzero"></path>
                <path d="M87.2259172,46.8278304 C83.0085267,42.5898487 80.4000588,36.735089 80.4000588,30.2679765 C80.4000588,17.3337515 90.8342498,6.84861627 103.705631,6.84861627 C110.141322,6.84861627 115.967955,9.47014091 120.185345,13.7081226 C121.810245,12.0749679 123.482438,10.4780985 125.045346,8.78553893 C120.788971,4.96820859 116.250435,2.11933957 110.62991,0.795732936 C105.191848,-0.484524137 99.7263037,-0.172407289 94.3917744,1.39074582 C84.9449857,4.46760142 77.2608222,12.5225923 74.6009072,22.1372041 C71.8310677,32.1487053 74.6798355,43.6511102 81.8246025,51.1926496 C81.9961996,51.3737545 82.1700335,51.5532538 82.347063,51.7311475 L87.2259172,46.8278304" id="Fill-39" fill="#80C9C2" fill-rule="nonzero"></path>
                <path d="M103.618138,53.6590164 C97.1712668,53.6590164 91.3345112,51.0334557 87.1097936,46.7886278 C91.3345112,51.0334557 97.1712668,53.6590164 103.618138,53.6590164 C112.662005,53.6590164 120.504845,48.4921548 124.381931,40.9364318 C126.032701,37.7200878 126.9642,34.0711888 126.9642,30.2032787 C126.9642,43.1574169 116.511882,53.6590164 103.618138,53.6590164 M84.4855903,43.6478603 L84.4855903,43.6478603 C81.830017,39.840733 80.2720764,35.2051583 80.2720764,30.2032787 C80.2720764,35.2051583 81.830017,39.840733 84.4855903,43.6478603" id="Fill-42" fill="#4E5C66"></path>
                <path d="M87.0672575,46.9114754 C86.1000929,45.9417575 85.2165819,44.88752 84.4295943,43.7610213 C85.2165819,44.88752 86.1000929,45.9417575 87.0672575,46.9114754 M104.257757,6.75463805 C104.097528,6.75076692 103.936977,6.74818617 103.775783,6.74754098 C103.936977,6.74818617 104.097528,6.75076692 104.257757,6.75463805" id="Fill-43" fill="#6F7FA9"></path>
            </g>
        </g>
    </g>
</svg>