<?xml version="1.0" encoding="UTF-8"?>
<svg width="15px" height="14px" viewBox="0 0 15 14" version="1.1" xmlns="http://www.w3.org/2000/svg" xmlns:xlink="http://www.w3.org/1999/xlink">
    <!-- Generator: Sketch 55.2 (78181) - https://sketchapp.com -->
    <title>noun_Search_856844</title>
    <desc>Created with Sketch.</desc>
    <g id="FAQ" stroke="none" stroke-width="1" fill="none" fill-rule="evenodd">
        <g id="FAQ_sm" transform="translate(-327.000000, -276.000000)" fill="#FFFFFF" fill-rule="nonzero">
            <g id="Group-13" transform="translate(16.000000, 257.000000)">
                <g id="noun_Search_856844" transform="translate(309.000000, 17.000000)">
                    <path d="M10.0396575,12.3018505 C12.5752241,12.3018505 14.6307069,10.2463676 14.6307069,7.71080107 C14.6307069,5.17523451 12.5752241,3.11975169 10.0396575,3.11975169 C7.50409097,3.11975169 5.44860815,5.17523451 5.44860815,7.71080107 C5.44860815,10.2463676 7.50409097,12.3018505 10.0396575,12.3018505 Z M9.48903726,13.5882366 C6.4871899,13.3105512 4.13687975,10.7851483 4.13687975,7.71080107 C4.13687975,4.45078693 6.77964338,1.8080233 10.0396575,1.8080233 C13.2996717,1.8080233 15.9424353,4.45078693 15.9424353,7.71080107 C15.9424353,10.6862398 13.7409217,13.1474875 10.8779262,13.5545125 L10.8779262,17.2912616 C10.8779262,17.6736536 10.5696866,17.9836436 10.1834817,17.9836436 C9.7999506,17.9836436 9.48903726,17.669035 9.48903726,17.2912616 L9.48903726,13.5882366 Z" id="Shape" transform="translate(10.039658, 9.895833) rotate(-45.000000) translate(-10.039658, -9.895833) "></path>
                </g>
            </g>
        </g>
    </g>
</svg>