<?xml version="1.0" encoding="UTF-8"?>
<svg width="12px" height="16px" viewBox="0 0 12 16" version="1.1" xmlns="http://www.w3.org/2000/svg" xmlns:xlink="http://www.w3.org/1999/xlink">
    <!-- Generator: Sketch 52.5 (67469) - http://www.bohemiancoding.com/sketch -->
    <title>Address-icon</title>
    <desc>Created with Sketch.</desc>
    <g id="Blocks" stroke="none" stroke-width="1" fill="none" fill-rule="evenodd">
        <g id="Tab1_lg" transform="translate(-204.000000, -2631.000000)" fill="#FFFFFF" fill-rule="nonzero">
            <g id="footer_lg" transform="translate(0.000000, 2509.000000)">
                <g id="Group-8" transform="translate(204.000000, 122.000000)">
                    <path d="M0.0105,5.41735495 C0.0105,6.47229776 0.3645,7.44612504 0.96575,8.27006491 L3.7605,12.1151177 C3.605,12.1715459 3.45625,12.2275332 3.31475,12.2958642 C2.593,12.6328905 2.006,13.1698401 2.006,13.875413 C2.006,14.5871577 2.59325,15.1238869 3.31475,15.4609131 C4.04375,15.8041112 4.97775,15.99125 6.00375,15.99125 C7.0225,15.99125 7.95675,15.8038907 8.6855,15.4609131 C9.40725,15.1238869 9.99425,14.5869373 9.99425,13.875413 C9.99425,13.1698401 9.407,12.6328905 8.6855,12.2958642 C8.544,12.2273128 8.40225,12.1715459 8.24675,12.1151177 L11.04175,8.27006491 C11.643,7.44612504 11.98975,6.47229776 11.98975,5.41735495 C11.9895,2.5084372 9.30075,0.136469043 6.00375,0.136469043 C2.6995,0.136469043 0.0105,2.5084372 0.0105,5.41735495 Z M10.79375,5.41713452 C10.79375,6.25981032 10.51775,7.04627835 10.03675,7.70181532 L6.0105,13.2571274 L1.9705,7.70181532 C1.4895,7.04627835 1.20625,6.25981032 1.20625,5.41713452 C1.20625,3.07646638 3.35025,1.19119143 6.00375,1.19119143 C8.657,1.19119143 10.79375,3.07624596 10.79375,5.41713452 Z M3.407,5.41713452 C3.407,6.6779521 4.5745,7.70798715 6.00375,7.70798715 C7.42575,7.70798715 8.6005,6.6779521 8.6005,5.41713452 C8.60025,4.16248879 7.42575,3.13245373 6.00375,3.13245373 C4.5745,3.13245373 3.407,4.16248879 3.407,5.41713452 Z M7.3975,5.41735495 C7.3975,6.10419193 6.782,6.65304434 6.00375,6.65304434 C5.2255,6.65304434 4.60275,6.10375109 4.60275,5.41713452 C4.60275,4.73051796 5.22525,4.18761697 6.00375,4.18761697 C6.782,4.18761697 7.3975,4.73051796 7.3975,5.41735495 Z M5.50125,14.5119936 C5.60725,14.6552683 5.8055,14.7491684 6.00375,14.7491684 C6.20175,14.7491684 6.4,14.6552683 6.506,14.5119936 L7.58175,13.0322963 C7.77975,13.0887245 7.96375,13.1511041 8.1265,13.2260478 C8.629,13.4568303 8.7985,13.7129615 8.7985,13.8751925 C8.7985,14.0435954 8.62875,14.2997266 8.1265,14.5305091 C7.61725,14.7676839 6.85275,14.9365276 6.004,14.9365276 C5.14775,14.9365276 4.38375,14.7676839 3.88125,14.5305091 C3.379,14.2997266 3.20925,14.0435954 3.20925,13.8751925 C3.20925,13.7129615 3.37925,13.4568303 3.88125,13.2260478 C4.0365,13.1511041 4.2205,13.0887245 4.42575,13.0322963 L5.50125,14.5119936 Z" id="Address-icon"></path>
                </g>
            </g>
        </g>
    </g>
</svg>