<?xml version="1.0" encoding="UTF-8"?>
<svg width="27px" height="27px" viewBox="0 0 27 27" version="1.1" xmlns="http://www.w3.org/2000/svg" xmlns:xlink="http://www.w3.org/1999/xlink">
    <!-- Generator: Sketch 52.5 (67469) - http://www.bohemiancoding.com/sketch -->
    <title>linkedn</title>
    <desc>Created with Sketch.</desc>
    <g id="Blocks" stroke="none" stroke-width="1" fill="none" fill-rule="evenodd">
        <g id="Tab1_lg" transform="translate(-307.000000, -2690.000000)">
            <g id="footer_lg" transform="translate(0.000000, 2509.000000)">
                <g id="Social" transform="translate(205.000000, 182.000000)">
                    <g id="linkedn" transform="translate(103.000000, 0.000000)">
                        <ellipse id="base" stroke="#FFFFFF" cx="12.5121951" cy="12.5" rx="12.4878049" ry="12.5"></ellipse>
                        <g id="linkedin" transform="translate(8.000000, 7.000000)" fill="#FFFFFF" fill-rule="nonzero">
                            <path d="M2.22222222,1.11111111 C2.22222222,1.70111111 1.82777778,2.20888889 1.11055556,2.20888889 C0.435555556,2.20888889 2.01838546e-13,1.73 2.01838546e-13,1.14 C2.01838546e-13,0.534444444 0.422222222,-8.8817842e-16 1.11111111,-8.8817842e-16 C1.8,-8.8817842e-16 2.20888889,0.505555556 2.22222222,1.11111111 Z M2.01838546e-13,10 L2.01838546e-13,2.77777778 L2.22222222,2.77777778 L2.22222222,10 L2.01838546e-13,10 Z M3.33333333,5.24666667 C3.33333333,4.38833333 3.305,3.67111111 3.27666667,3.05166667 L5.27333333,3.05166667 L5.37222222,4.00888889 L5.41444444,4.00888889 C5.69555556,3.55833333 6.38444444,2.89777778 7.53777778,2.89777778 C8.94444444,2.89777778 10,3.83944444 10,5.86555556 L10,10 L7.77777778,10 L7.77777778,6.18833333 C7.77777778,5.30277778 7.44055556,4.62722222 6.66666667,4.62722222 C6.07666667,4.62722222 5.78111111,5.105 5.62611111,5.49888889 C5.56944444,5.64 5.55555556,5.83666667 5.55555556,6.03388889 L5.55555556,10 L3.33333333,10 L3.33333333,5.24666667 Z" id="Combined-Shape"></path>
                        </g>
                    </g>
                </g>
            </g>
        </g>
    </g>
</svg>