<?xml version="1.0" encoding="UTF-8"?>
<svg width="14px" height="12px" viewBox="0 0 14 12" version="1.1" xmlns="http://www.w3.org/2000/svg" xmlns:xlink="http://www.w3.org/1999/xlink">
    <!-- Generator: Sketch 52.5 (67469) - http://www.bohemiancoding.com/sketch -->
    <title>noun_House Care_708613_000000</title>
    <desc>Created with Sketch.</desc>
    <g id="Blocks" stroke="none" stroke-width="1" fill="none" fill-rule="evenodd">
        <g id="Tab1_lg" transform="translate(-816.000000, -1135.000000)" fill="#6D5CAE">
            <g id="Group-9" transform="translate(765.000000, 852.000000)">
                <g id="noun_House-Care_708613_000000" transform="translate(51.000000, 283.000000)">
                    <path d="M13.9010101,6.60894661 C13.6747475,6.19047619 13.2929293,5.97402597 12.7555556,5.95959596 C12.4727273,5.95959596 12.189899,6.01731602 11.8929293,6.14718615 L11.5818182,6.27705628 L11.5818182,2.38095238 C11.5818182,2.25108225 11.5111111,2.13564214 11.3979798,2.06349206 L7.87676768,0.0721500722 C7.76363636,0.0144300144 7.63636364,0.0144300144 7.53737374,0.0721500722 L4.01616162,2.04906205 C3.9030303,2.10678211 3.83232323,2.23665224 3.83232323,2.36652237 L3.83232323,5.67099567 C3.73333333,5.68542569 3.64848485,5.71428571 3.54949495,5.74314574 C3.16767677,5.87301587 2.57373737,6.2049062 2.09292929,6.49350649 C2.06464646,6.32034632 1.92323232,6.19047619 1.73939394,6.19047619 L0.480808081,6.19047619 C0.282828283,6.19047619 0.127272727,6.34920635 0.127272727,6.55122655 L0.127272727,11.1544012 C0.127272727,11.3564214 0.282828283,11.5151515 0.480808081,11.5151515 L1.73939394,11.5151515 C1.93737374,11.5151515 2.09292929,11.3564214 2.09292929,11.1544012 L2.09292929,10.8080808 L2.61616162,10.3896104 C3.01212121,10.0865801 3.50707071,9.94227994 4.0020202,9.98556999 C4.5959596,10.02886 5.02020202,10.0721501 5.24646465,10.1298701 L6.64646465,10.4329004 C7.32525253,10.5772006 8.01818182,10.5627706 8.64040404,10.3896104 C8.86666667,10.3318903 9.05050505,10.2597403 9.20606061,10.1731602 L13.5616162,7.70562771 C13.7454545,7.6046176 13.8868687,7.43145743 13.9434343,7.22943723 C14.0282828,7.01298701 14,6.7965368 13.9010101,6.60894661 Z M13.2929293,7.01298701 C13.2929293,7.02741703 13.2787879,7.04184704 13.2505051,7.05627706 L8.89494949,9.53823954 C8.7959596,9.5959596 8.65454545,9.65367965 8.48484848,9.6969697 C7.96161616,9.84126984 7.38181818,9.85569986 6.81616162,9.72582973 L5.41616162,9.42279942 C5.14747475,9.36507937 4.69494949,9.32178932 4.07272727,9.26406926 C3.40808081,9.22077922 2.75757576,9.40836941 2.22020202,9.81240981 L2.12121212,9.88455988 L2.12121212,8.21067821 L2.12121212,7.31601732 C2.17777778,7.28715729 2.24848485,7.24386724 2.30505051,7.2005772 C2.74343434,6.94083694 3.42222222,6.53679654 3.77575758,6.42135642 C3.93131313,6.37806638 4.11515152,6.33477633 4.34141414,6.32034632 C4.76565657,6.29148629 5.21818182,6.36363636 5.67070707,6.52236652 C6.39191919,6.76767677 7.33939394,7.07070707 7.76363636,7.07070707 L9.19191919,7.07070707 C9.36161616,7.07070707 9.5030303,7.21500722 9.5030303,7.37373737 C9.5030303,7.37373737 9.5030303,7.38816739 9.5030303,7.38816739 C9.5030303,7.56132756 9.36161616,7.69119769 9.19191919,7.69119769 L6.44848485,7.69119769 C6.25050505,7.69119769 6.09494949,7.84992785 6.09494949,8.05194805 C6.09494949,8.25396825 6.25050505,8.41269841 6.44848485,8.41269841 L9.19191919,8.41269841 C9.67272727,8.41269841 10.0686869,8.08080808 10.1818182,7.63347763 L12.1616162,6.7965368 C12.359596,6.70995671 12.5575758,6.66666667 12.7272727,6.66666667 C13.0808081,6.66666667 13.1939394,6.81096681 13.2646465,6.94083694 C13.2929293,6.96969697 13.2929293,6.998557 13.2929293,7.01298701 Z M0.848484848,6.92640693 L1.4,6.92640693 L1.4,10.8080808 L0.848484848,10.8080808 L0.848484848,6.92640693 Z M8.25858586,6.36363636 L7.76363636,6.36363636 C7.65050505,6.36363636 7.42424242,6.32034632 7.12727273,6.24819625 L7.12727273,4.54545455 L8.25858586,4.54545455 L8.25858586,6.36363636 Z M7.70707071,0.793650794 L10.8747475,2.58297258 L10.8747475,6.58008658 L10.0828283,6.91197691 C9.91313131,6.59451659 9.57373737,6.36363636 9.19191919,6.36363636 C9.19191919,6.36363636 9.19191919,6.36363636 9.19191919,6.36363636 L8.97979798,6.36363636 L8.97979798,4.18470418 C8.97979798,3.98268398 8.82424242,3.82395382 8.62626263,3.82395382 L6.78787879,3.82395382 C6.58989899,3.82395382 6.43434343,3.98268398 6.43434343,4.18470418 L6.43434343,6.03174603 C6.26464646,5.97402597 6.09494949,5.91630592 5.8969697,5.85858586 C5.44444444,5.6998557 4.99191919,5.61327561 4.53939394,5.61327561 L4.53939394,2.58297258 L7.70707071,0.793650794 Z" id="Shape"></path>
                </g>
            </g>
        </g>
    </g>
</svg>