<?xml version="1.0" encoding="UTF-8"?>
<svg width="13px" height="14px" viewBox="0 0 13 14" version="1.1" xmlns="http://www.w3.org/2000/svg" xmlns:xlink="http://www.w3.org/1999/xlink">
    <!-- Generator: Sketch 52.5 (67469) - http://www.bohemiancoding.com/sketch -->
    <title>noun_cleaning_1944288_000000</title>
    <desc>Created with Sketch.</desc>
    <g id="Blocks" stroke="none" stroke-width="1" fill="none" fill-rule="evenodd">
        <g id="Tab1_lg" transform="translate(-816.000000, -1051.000000)" fill="#6D5CAE">
            <g id="Group-9" transform="translate(765.000000, 852.000000)">
                <g id="noun_cleaning_1944288_000000" transform="translate(51.000000, 199.000000)">
                    <path d="M0.232142857,6.25 L0.724517857,6.25 L1.62685714,13.2240741 C1.64180006,13.3395255 1.74040127,13.4259522 1.85714286,13.4259259 L7.32178571,13.4259259 C7.58506454,13.7201934 7.9616627,13.8885904 8.35714286,13.8888889 L8.72067857,13.8888889 C8.97562856,13.8886711 9.22705221,13.8294807 9.45517857,13.7159722 C9.78711665,13.5514529 10.1771691,13.5514529 10.5091071,13.7159722 C10.7372335,13.8294807 10.9886572,13.8886711 11.2436071,13.8888889 L11.6071429,13.8888889 C12.3760784,13.8881233 12.9992322,13.2667448 13,12.5 L13,11.1111111 C12.9992322,10.3443663 12.3760784,9.72298782 11.6071429,9.72222222 L11.2436071,9.72222222 C10.9886572,9.72244002 10.7372335,9.78163041 10.5091071,9.89513889 C10.1771691,10.0596582 9.78711665,10.0596582 9.45517857,9.89513889 C9.32277525,9.83035239 9.18222705,9.78363647 9.03732143,9.75625 L9.48976786,6.25 L9.98214286,6.25 C10.1103518,6.25 10.2142857,6.14636221 10.2142857,6.01851852 L10.2142857,5.09259259 C10.2142857,4.9647489 10.1103518,4.86111111 9.98214286,4.86111111 L9.05357143,4.86111111 L9.05357143,4.16666667 C9.05355828,4.10527898 9.02909182,4.04641035 8.98555357,4.00300926 L7.89285714,2.91342593 L7.89285714,2.19444444 L8.24478571,1.91388889 L8.84580357,3.11273148 L9.26133929,2.90578704 L8.61551786,1.61805556 L8.90267857,1.38888889 L9.75,1.38888889 C9.87820896,1.38888889 9.98214286,1.2852511 9.98214286,1.15740741 L9.98214286,0.231481481 C9.98214286,0.103637789 9.87820896,0 9.75,0 L7.42857143,0 C6.27527409,0.00140299912 5.34069272,0.933321747 5.33928571,2.08333333 C5.33928571,2.21117703 5.44321961,2.31481481 5.57142857,2.31481481 L6.03571429,2.31481481 L6.03571429,2.91342593 L5.40730357,3.5400463 C5.36376532,3.58344739 5.33929886,3.64231602 5.33928571,3.7037037 L5.33928571,4.86111111 L4.875,4.86111111 L4.875,3.00925926 C4.87464286,2.98059255 4.8688946,2.95224718 4.85805357,2.92569444 C4.85380453,2.91668615 4.84899763,2.90795015 4.84366071,2.89953704 C4.83807724,2.88740037 4.83155767,2.87571405 4.82416071,2.86458333 L3.94642857,1.77083333 L3.94642857,0.231481481 C3.94642857,0.103637789 3.84249467,0 3.71428571,0 L2.32142857,0 C2.19321961,0 2.08928571,0.103637789 2.08928571,0.231481481 L2.08928571,1.77083333 L1.21155357,2.86458333 C1.20415662,2.87571405 1.19763705,2.88740037 1.19205357,2.89953704 C1.18671666,2.90795015 1.18190976,2.91668615 1.17766071,2.92569444 C1.16681969,2.95224718 1.16107142,2.98059255 1.16071429,3.00925926 L1.16071429,4.86111111 L0.232142857,4.86111111 C0.103933897,4.86111111 0,4.9647489 0,5.09259259 L0,6.01851852 C0,6.14636221 0.103933897,6.25 0.232142857,6.25 Z M11.6071429,13.4259259 L11.2436071,13.4259259 C11.0607775,13.4256775 10.8804896,13.3832099 10.716875,13.3018519 C10.2540439,13.0725465 9.71024177,13.0725465 9.24741071,13.3018519 C9.0837961,13.3832099 8.90350825,13.4256775 8.72067857,13.4259259 L8.35714286,13.4259259 C7.84430702,13.4259259 7.42857143,13.0113748 7.42857143,12.5 L7.42857143,12.1435185 C7.68315908,12.3728839 8.01403296,12.4999074 8.35714286,12.5 L8.72067857,12.5 C8.97562856,12.4997822 9.22705221,12.4405918 9.45517857,12.3270833 C9.78711665,12.162564 10.1771691,12.162564 10.5091071,12.3270833 C10.7372335,12.4405918 10.9886572,12.4997822 11.2436071,12.5 L11.6071429,12.5 C11.9502528,12.4999074 12.2811266,12.3728839 12.5357143,12.1435185 L12.5357143,12.5 C12.5357143,13.0113748 12.1199787,13.4259259 11.6071429,13.4259259 Z M10.716875,10.3092593 C10.8804896,10.2279012 11.0607775,10.1854336 11.2436071,10.1851852 L11.6071429,10.1851852 C12.1199787,10.1851852 12.5357143,10.5997363 12.5357143,11.1111111 C12.5357143,11.6224859 12.1199787,12.037037 11.6071429,12.037037 L11.2436071,12.037037 C11.0607775,12.0367886 10.8804896,11.994321 10.716875,11.912963 C10.2540439,11.6836576 9.71024177,11.6836576 9.24741071,11.912963 C9.0837961,11.994321 8.90350825,12.0367886 8.72067857,12.037037 L8.35714286,12.037037 C7.84430702,12.037037 7.42857143,11.6224859 7.42857143,11.1111111 C7.42857143,10.5997363 7.84430702,10.1851852 8.35714286,10.1851852 L8.72067857,10.1851852 C8.90350825,10.1854336 9.0837961,10.2279012 9.24741071,10.3092593 C9.71027563,10.5384208 10.2540101,10.5384208 10.716875,10.3092593 Z M8.57233929,9.72222222 L8.35714286,9.72222222 C7.58820735,9.72298782 6.9650535,10.3443663 6.96428571,11.1111111 L6.96428571,12.5 C6.96468751,12.6578126 6.99216738,12.8143931 7.04553571,12.962963 L2.06119643,12.962963 L1.19251786,6.25 L2.32142857,6.25 L2.32142857,10.4166667 C2.32142857,10.9280414 2.73716416,11.3425926 3.25,11.3425926 L5.57142857,11.3425926 C6.08426441,11.3425926 6.5,10.9280414 6.5,10.4166667 L6.5,8.47638889 L7.10635714,8.7787037 C7.28309982,8.86568757 7.48734401,8.87875286 7.67378424,8.81500143 C7.86022448,8.75125001 8.01344711,8.61595241 8.09946429,8.43912037 C8.18939512,8.26136026 8.20468059,8.05521961 8.14194643,7.8662037 C8.08007641,7.67712488 7.9445523,7.52079857 7.765875,7.43240741 L6.5,6.80138889 L6.5,6.25 L9.02176786,6.25 L8.57233929,9.72222222 Z M5.57142857,5.32407407 L6.03571429,5.32407407 L6.03571429,6.94444444 C6.03523171,7.03259852 6.08500533,7.11337363 6.16408929,7.15277778 L7.55694643,7.84722222 C7.62486948,7.88061107 7.67636295,7.93997295 7.69971429,8.01180556 C7.7237841,8.08891176 7.71540536,8.17246041 7.6765,8.24328704 C7.64436829,8.30756874 7.58790657,8.3564601 7.51957351,8.37917289 C7.45124045,8.40188568 7.37665244,8.39655311 7.31226786,8.36435185 L6.36976786,7.89444444 C6.29791172,7.85943532 6.2130434,7.86377292 6.14515349,7.90592445 C6.07726359,7.94807598 6.03591307,8.02210521 6.03571429,8.10185185 L6.03571429,10.4166667 C6.03571429,10.6723541 5.82784649,10.8796296 5.57142857,10.8796296 L5.57142857,8.7962963 L5.10714286,8.7962963 L5.10714286,10.8796296 L4.64285714,10.8796296 L4.64285714,8.7962963 L4.17857143,8.7962963 L4.17857143,10.8796296 L3.71428571,10.8796296 L3.71428571,8.7962963 L3.25,8.7962963 L3.25,10.8796296 C2.99358208,10.8796296 2.78571429,10.6723541 2.78571429,10.4166667 L2.78571429,5.32407407 L5.57142857,5.32407407 Z M9.75,5.78703704 L6.5,5.78703704 L6.5,5.32407407 L9.75,5.32407407 L9.75,5.78703704 Z M9.51785714,0.925925926 L9.05357143,0.925925926 L9.05357143,0.462962963 L9.51785714,0.462962963 L9.51785714,0.925925926 Z M7.42857143,0.462962963 L8.58928571,0.462962963 L8.58928571,1.0462963 L7.57923214,1.85185185 L5.82005357,1.85185185 C5.93648861,1.05511886 6.62112355,0.463964806 7.42857143,0.462962963 Z M7.42857143,2.31481481 L7.42857143,2.77777778 L6.5,2.77777778 L6.5,2.31481481 L7.42857143,2.31481481 Z M5.80357143,3.79953704 L6.36396429,3.24074074 L7.56460714,3.24074074 L8.58928571,4.2625 L8.58928571,4.86111111 L5.80357143,4.86111111 L5.80357143,3.79953704 Z M2.43285714,2.08333333 L3.60285714,2.08333333 L4.16,2.77777778 L1.87571429,2.77777778 L2.43285714,2.08333333 Z M2.55357143,0.462962963 L3.48214286,0.462962963 L3.48214286,1.62037037 L2.55357143,1.62037037 L2.55357143,0.462962963 Z M1.625,3.24074074 L4.41071429,3.24074074 L4.41071429,4.86111111 L1.625,4.86111111 L1.625,3.24074074 Z M0.464285714,5.32407407 L2.32142857,5.32407407 L2.32142857,5.78703704 L0.464285714,5.78703704 L0.464285714,5.32407407 Z" id="Shape"></path>
                </g>
            </g>
        </g>
    </g>
</svg>