<?xml version="1.0" encoding="UTF-8"?>
<svg width="13px" height="15px" viewBox="0 0 13 15" version="1.1" xmlns="http://www.w3.org/2000/svg" xmlns:xlink="http://www.w3.org/1999/xlink">
    <!-- Generator: Sketch 52.5 (67469) - http://www.bohemiancoding.com/sketch -->
    <title>noun_Save Electricity_2094634_000000</title>
    <desc>Created with Sketch.</desc>
    <g id="Blocks" stroke="none" stroke-width="1" fill="none" fill-rule="evenodd">
        <g id="Tab1_lg" transform="translate(-815.000000, -1218.000000)" fill="#6D5CAE">
            <g id="Group-9" transform="translate(765.000000, 852.000000)">
                <g id="noun_Save-Electricity_2094634_000000" transform="translate(50.000000, 366.000000)">
                    <path d="M8.18582888,8.08810474 C8.18582888,8.39615276 7.99879366,8.66705747 7.71890275,8.79392573 C7.5490096,9.36442492 7.10441908,9.69900855 6.5,9.69900855 C5.89729513,9.69900855 5.46222609,9.37232359 5.28393163,8.79519866 C5.00249624,8.66888526 4.81417112,8.39716458 4.81417112,8.08810474 L4.81417112,7.14078689 C4.81417112,6.83962572 4.72713695,6.70162752 4.53645269,6.3992587 L4.52973164,6.38858571 C4.49217184,6.33688534 4.46131612,6.28538081 4.43141085,6.23550823 C4.4148119,6.20783026 4.39794139,6.17956478 4.37959429,6.15136458 L4.37322966,6.1411159 C4.35873528,6.11673447 4.34420696,6.09365861 4.33022174,6.07136609 C4.30515359,6.03144845 4.27927077,5.99025788 4.25566224,5.94612979 L4.25338795,5.9424742 C4.09773459,5.69307868 3.96309299,5.47739937 3.89001008,5.14565534 C3.834833,4.95119146 3.80799972,4.749906 3.80799972,4.53063639 C3.80799972,3.10336026 5.01563284,1.9421909 6.5,1.9421909 C7.98436717,1.9421909 9.19200028,3.10336026 9.19200028,4.53063639 C9.19200028,4.749906 9.16516701,4.95119146 9.10998992,5.14565534 C9.03690701,5.47739937 8.90226542,5.69307868 8.74661206,5.9424742 L8.74433777,5.94612979 C8.72069529,5.99032316 8.6947955,6.03154636 8.66967643,6.07152929 C8.65570819,6.09378917 8.64121381,6.11683239 8.6267364,6.14118117 L8.62040572,6.15136458 C8.57049006,6.22813179 8.51886019,6.30754277 8.48002747,6.37291893 L8.47366284,6.38316761 C8.26890849,6.69813513 8.18582888,6.8380264 8.18582888,7.14078689 L8.18582888,8.08810474 Z M5.43983957,7.2526738 L5.43983957,7.48663102 L7.56016043,7.48663102 L7.56016043,7.2526738 L5.43983957,7.2526738 Z M6.5,9.09740427 C6.71106806,9.09740427 6.87287389,9.02763816 6.98501016,8.89037433 L6.01925839,8.89037433 C6.18557038,9.09709828 6.4085021,9.09740427 6.5,9.09740427 Z M7.40016215,8.26540044 C7.4913206,8.25016613 7.56007557,8.17401906 7.56014345,8.08823529 L5.43985654,8.08823529 C5.43991595,8.17822135 5.50418172,8.24941543 5.59983785,8.26540044 L5.73959661,8.28877005 L7.26037794,8.28877005 L7.40016215,8.26540044 Z M7.63214013,6.65106952 C7.70064899,6.43894787 7.81193665,6.26609517 7.9399166,6.06921191 C7.98341671,5.99632875 8.03577639,5.91564484 8.08671039,5.83731095 C8.10269834,5.81057951 8.11865234,5.785121 8.13409717,5.76054374 C8.15687406,5.72428167 8.17656197,5.69291548 8.1905981,5.66592292 L8.21015024,5.63289214 C8.35872613,5.39485503 8.44839102,5.25117762 8.49944382,5.01392385 L8.50436581,4.99434037 C8.54606685,4.85004282 8.56633183,4.69836883 8.56633183,4.53063638 C8.56633183,3.43510429 7.63937035,2.54379517 6.5,2.54379517 C5.36062965,2.54379517 4.43366817,3.43510429 4.43366817,4.53063638 C4.43366817,4.69836882 4.45393314,4.85004282 4.49563419,4.99434037 L4.50055617,5.01392385 C4.55160898,5.25117762 4.64127386,5.39485503 4.78984975,5.63289214 L4.80940189,5.66592292 C4.82340407,5.69288284 4.84305805,5.72415112 4.86580099,5.76038054 C4.88133068,5.78508836 4.89736955,5.81067743 4.91345933,5.8376047 C4.93455595,5.8703091 4.95420992,5.90294823 4.97343959,5.93503248 C4.99891507,5.97752862 5.02298185,6.0176421 5.04620002,6.04891037 L5.05914992,6.06780843 L5.07145487,6.08732662 C5.19682108,6.28611111 5.30147255,6.4528195 5.36688395,6.65106952 L7.63214013,6.65106952 Z M6.48262032,1.53743316 C6.30984187,1.53743316 6.1697861,1.40276414 6.1697861,1.23663102 L6.1697861,0.300802139 C6.1697861,0.134669014 6.30984187,-3.41948692e-14 6.48262032,-3.41948692e-14 C6.65539877,-3.41948692e-14 6.79545455,0.134669014 6.79545455,0.300802139 L6.79545455,1.23663102 C6.79545455,1.40276414 6.65539877,1.53743316 6.48262032,1.53743316 Z M8.97322678,2.51892416 C8.89315127,2.51892416 8.8131097,2.48954895 8.75200926,2.43083117 C8.62984234,2.31333034 8.62985931,2.12288107 8.75202624,2.00541287 L9.42581128,1.35755896 C9.54796123,1.24015604 9.74604544,1.24015604 9.86822934,1.35755896 C9.99039626,1.47505979 9.99037929,1.66550906 9.86821236,1.78297726 L9.19442732,2.43083117 C9.13336084,2.48954895 9.05328532,2.51892416 8.97322678,2.51892416 Z M3.10911258,7.85672601 C2.98694566,7.73925781 2.98692868,7.54880854 3.10909561,7.43130771 L3.78288065,6.78342116 C3.90504757,6.6659856 4.10313179,6.6659856 4.22529871,6.78342116 C4.34746563,6.90088935 4.3474826,7.09133862 4.22531568,7.20883946 L3.55153064,7.85672601 C3.49044718,7.91544379 3.41037166,7.944819 3.33031312,7.944819 C3.25025458,7.944819 3.17019604,7.91544379 3.10911258,7.85672601 Z M9.68048128,4.61229947 C9.68048128,4.44616634 9.82053706,4.31149733 9.99331551,4.31149733 L10.9665775,4.31149733 C11.139356,4.31149733 11.2794118,4.44616634 11.2794118,4.61229947 C11.2794118,4.77843259 11.139356,4.9131016 10.9665775,4.9131016 L9.99331551,4.9131016 C9.82053706,4.9131016 9.68048128,4.77843259 9.68048128,4.61229947 Z M2.03342246,4.9131016 C1.86064401,4.9131016 1.72058824,4.77843259 1.72058824,4.61229947 C1.72058824,4.44616634 1.86064401,4.31149733 2.03342246,4.31149733 L2.97192513,4.31149733 C3.14470358,4.31149733 3.28475936,4.44616634 3.28475936,4.61229947 C3.28475936,4.77843259 3.14470358,4.9131016 2.97192513,4.9131016 L2.03342246,4.9131016 Z M8.75202624,6.78342115 C8.87417619,6.6659856 9.0722604,6.66601824 9.1944443,6.78342115 L9.86822934,7.4313077 C9.99039626,7.54880854 9.99037929,7.73925781 9.86821236,7.85672601 C9.80714588,7.91544379 9.72707036,7.94481899 9.64701182,7.94481899 C9.56693631,7.94481899 9.48689474,7.91544378 9.4257943,7.85672601 L8.75200926,7.20883946 C8.62984234,7.09133862 8.62985931,6.90088935 8.75202624,6.78342115 Z M3.78289762,2.43083118 L3.10911258,1.78297726 C2.98694566,1.66550907 2.98692869,1.4750598 3.10909561,1.35755896 C3.23126253,1.2401234 3.42934675,1.2401234 3.55151367,1.35755896 L4.22529871,2.00541287 C4.34746564,2.12288107 4.34748261,2.31333034 4.22531568,2.43083118 C4.16423222,2.48954896 4.08415671,2.51892416 4.00409817,2.51892416 C3.92403963,2.51892416 3.84398108,2.48954895 3.78289762,2.43083118 Z M4.96856853,13.3594697 C5.1348296,13.4433481 5.2486631,13.610746 5.2486631,13.8034759 L5.2486631,14.7727273 L4.55347594,14.7727273 L4.55347594,13.9705882 L2.29411765,13.9705882 L2.29411765,14.7727273 L1.59893048,14.7727273 L1.59893048,13.8034759 C1.59893048,13.546043 1.80180938,13.333546 2.06187659,13.3055009 C2.05809176,13.2612993 2.05461243,13.2233441 2.0522957,13.1992605 L2.05165075,13.1926021 C2.02439317,13.1296413 1.89567492,12.9801541 1.78223178,12.8809965 L1.75982829,12.8595199 L1.38470557,12.4660553 L0.403025253,11.5558481 L0.389006098,11.5390064 C0.050577581,11.132225 0.00454858877,10.423695 0.00044128048,10.3442187 L-1.63424829e-12,10.3275401 L-1.63424829e-12,7.68716578 C-1.63424829e-12,7.15273281 0.421015939,6.71791444 0.938502674,6.71791444 C1.45598941,6.71791444 1.87700535,7.15273281 1.87700535,7.68716578 L1.87700535,9.20126196 C2.08080924,9.16513045 2.36815101,9.1870313 2.64656532,9.39526889 L2.66072025,9.40584397 L3.51317315,10.1914676 L4.45167582,11.093874 C4.53226051,11.1713593 4.93318119,11.5794789 4.93582888,12.027614 L4.96856853,13.3594697 Z M1.88990433,12.0067902 L2.26193809,12.3970236 C2.4441871,12.5582608 2.73278482,12.8580838 2.74554802,13.1486046 C2.74761865,13.1705381 2.75240485,13.2221732 2.75766628,13.2856889 L4.27136165,13.2856889 L4.24064171,12.0320856 C4.24064171,11.9060333 4.07475403,11.6768087 3.96008888,11.5665538 L3.02423389,10.6666932 L2.20742292,9.91403509 C2.08837891,9.83113172 1.99859521,9.85740621 1.99767871,9.85776524 C1.8869172,9.91103229 1.81447924,9.97095771 1.8038885,10.0180886 C1.79367115,10.0636202 1.83111213,10.1346755 1.85803027,10.1705459 L3.09575535,11.3353709 L2.60946378,11.8130771 L1.34560129,10.6236422 L1.3362665,10.613263 C1.30591995,10.579612 1.04220369,10.2733592 1.12183792,9.88864185 C1.13273417,9.83615814 1.15123402,9.77734244 1.18181818,9.71558923 L1.18181818,7.68716578 C1.18181818,7.52410073 1.07037778,7.38636364 0.938502674,7.38636364 C0.80662757,7.38636364 0.695187166,7.52410073 0.695187166,7.68716578 L0.695187166,10.3183359 C0.708120091,10.5317631 0.77953971,10.9217353 0.920240434,11.1067991 L1.88990433,12.0067902 Z M12.0614973,6.71791444 C12.5789841,6.71791444 13,7.15273281 13,7.68716578 L13,10.3358957 L12.9995587,10.3442187 C12.9954514,10.423695 12.9494224,11.132225 12.6109939,11.5390064 L12.5969747,11.5558481 L11.6152944,12.4660553 L11.2177682,12.8809965 C11.1021526,12.982602 10.9755389,13.129576 10.9483492,13.1925695 L10.9477043,13.1992605 C10.9453876,13.2233482 10.9419167,13.2613075 10.9381319,13.3055009 C11.1981991,13.3335542 11.4010695,13.546043 11.4010695,13.8034759 L11.4010695,14.7727273 L10.7058824,14.7727273 L10.7058824,13.9705882 L8.44652406,13.9705882 L8.44652406,14.7727273 L7.7513369,14.7727273 L7.7513369,13.8034759 C7.7513369,13.610746 7.8651704,13.4433481 8.03143147,13.3594697 L8.06417112,12.027614 C8.06681881,11.5794789 8.46773949,11.1713593 8.54832418,11.093874 L9.49212222,10.1865065 L10.3392797,9.40584397 L10.3534347,9.39526889 C10.631849,9.18706394 10.9191229,9.16513045 11.1229947,9.20126196 L11.1229947,7.68716578 C11.1229947,7.15273281 11.5440106,6.71791444 12.0614973,6.71791444 Z M11.0506956,9.89776422 C11.0369847,9.89180719 11.0300784,9.88770563 11.0300784,9.88770563 C11.0369847,9.89102594 11.0438909,9.89434625 11.0506956,9.89776422 Z M12.3048128,10.3182706 L12.3048128,7.68716578 C12.3048128,7.52410073 12.1933724,7.38636364 12.0614973,7.38636364 C11.9296222,7.38636364 11.8181818,7.52410073 11.8181818,7.68716578 L11.8181818,9.71558923 C11.848766,9.77734245 11.8672658,9.83615815 11.8781621,9.88864185 C11.9577963,10.2733592 11.69408,10.579612 11.6637335,10.613263 L11.6442153,10.6332381 L10.3905362,11.8130771 L9.90424465,11.3353709 L11.1419697,10.1705459 C11.1688879,10.1346755 11.2063289,10.0636202 11.1961115,10.0180886 C11.1858263,9.97226328 11.1170204,9.9142962 11.0113506,9.86217152 C10.9878948,9.85453397 10.9040854,9.83632134 10.7925771,9.91400245 L9.97576611,10.6666932 L9.03991112,11.5665538 C8.92270012,11.6805949 8.75935829,11.9064576 8.75935829,12.0320856 L8.75925645,12.0399842 L8.72863835,13.2856889 L10.2423337,13.2856889 C10.2475952,13.2221732 10.2523814,13.1705381 10.254452,13.1486046 C10.2672152,12.8580838 10.5558129,12.5582608 10.7380619,12.3970236 L11.1250313,11.9920374 L12.0797596,11.1067991 C12.2203585,10.9218659 12.2917781,10.5322527 12.3048128,10.3182706 Z" id="Combined-Shape"></path>
                </g>
            </g>
        </g>
    </g>
</svg>