<?xml version="1.0" encoding="UTF-8"?>
<svg width="13px" height="14px" viewBox="0 0 13 14" version="1.1" xmlns="http://www.w3.org/2000/svg" xmlns:xlink="http://www.w3.org/1999/xlink">
    <!-- Generator: Sketch 52.5 (67469) - http://www.bohemiancoding.com/sketch -->
    <title>noun_Water_749665_000000</title>
    <desc>Created with Sketch.</desc>
    <g id="Blocks" stroke="none" stroke-width="1" fill="none" fill-rule="evenodd">
        <g id="Tab1_lg" transform="translate(-815.000000, -1263.000000)" fill="#6D5CAE">
            <g id="Group-9" transform="translate(765.000000, 852.000000)">
                <g id="noun_Water_749665_000000" transform="translate(50.000000, 411.000000)">
                    <path d="M12.2735294,0.22875817 C12.0441176,0.22875817 11.8911765,0.419389978 11.8911765,0.610021786 L11.8911765,1.63943355 L10.8588235,1.63943355 C10.2088235,1.63943355 9.71176471,2.17320261 9.71176471,2.7832244 L9.71176471,3.08823529 L5.65882353,3.08823529 L5.65882353,1.60130719 L7.83823529,1.60130719 C8.02941176,1.60130719 8.22058824,1.44880174 8.22058824,1.22004357 C8.22058824,0.991285403 8.02941176,0.838779956 7.83823529,0.838779956 L5.65882353,0.838779956 L5.65882353,0.495642702 C5.65882353,0.305010893 5.46764706,0.114379085 5.27647059,0.114379085 C5.04705882,0.114379085 4.89411765,0.305010893 4.89411765,0.495642702 L4.89411765,0.838779956 L2.71470588,0.838779956 C2.52352941,0.838779956 2.33235294,0.991285403 2.33235294,1.22004357 C2.33235294,1.44880174 2.52352941,1.60130719 2.71470588,1.60130719 L4.89411765,1.60130719 L4.89411765,3.08823529 L1.22352941,3.08823529 C0.573529412,3.08823529 0.0764705882,3.62200436 0.0764705882,4.23202614 L0.0764705882,7.96840959 C0.0764705882,8.61655773 0.573529412,9.11220044 1.22352941,9.11220044 L2.75294118,9.11220044 C3.40294118,9.11220044 3.9,8.61655773 3.9,7.96840959 L3.9,6.8627451 C3.9,6.63398693 4.09117647,6.48148148 4.28235294,6.48148148 L9.71176471,6.48148148 C9.82647059,7.01525054 10.2852941,7.39651416 10.8205882,7.39651416 L11.8529412,7.39651416 L11.8529412,10.3703704 C11.8147059,10.3703704 11.8147059,10.4084967 11.7764706,10.4084967 C11.7382353,10.4466231 11.6617647,10.4847495 11.6235294,10.5610022 C11.4323529,10.751634 11.3176471,10.8278867 11.0882353,10.8278867 C10.8205882,10.8278867 10.7058824,10.7135076 10.5529412,10.5610022 C10.3235294,10.3703704 10.0558824,10.0653595 9.48235294,10.0653595 C8.90882353,10.0653595 8.64117647,10.332244 8.41176471,10.5610022 C8.22058824,10.751634 8.10588235,10.8278867 7.87647059,10.8278867 C7.60882353,10.8278867 7.49411765,10.7135076 7.34117647,10.5610022 C7.11176471,10.3703704 6.80588235,10.0653595 6.27058824,10.0653595 C5.73529412,10.0653595 5.42941176,10.332244 5.2,10.5610022 C5.00882353,10.751634 4.89411765,10.8278867 4.66470588,10.8278867 C4.47352941,10.8278867 4.28235294,11.0185185 4.28235294,11.2091503 C4.28235294,11.4379085 4.47352941,11.5904139 4.66470588,11.5904139 C5.23823529,11.5904139 5.50588235,11.3235294 5.73529412,11.0947712 C5.92647059,10.9041394 6.04117647,10.8278867 6.27058824,10.8278867 C6.53823529,10.8278867 6.65294118,10.9422658 6.84411765,11.0947712 C7.07352941,11.2854031 7.34117647,11.5904139 7.91470588,11.5904139 C8.48823529,11.5904139 8.75588235,11.3235294 8.98529412,11.0947712 C9.17647059,10.9041394 9.29117647,10.8278867 9.52058824,10.8278867 C9.78823529,10.8278867 9.90294118,10.9422658 10.0558824,11.0947712 C10.2852941,11.2854031 10.5529412,11.5904139 11.1264706,11.5904139 C11.4705882,11.5904139 11.7,11.4760349 11.8911765,11.3616558 L11.8911765,12.6579521 C11.8529412,12.6579521 11.8529412,12.6960784 11.8147059,12.6960784 C11.7764706,12.7342048 11.7,12.7723312 11.6617647,12.8485839 C11.4705882,13.0392157 11.3558824,13.1154684 11.1264706,13.1154684 C10.8588235,13.1154684 10.7441176,13.0010893 10.5911765,12.8485839 C10.3617647,12.6579521 10.0941176,12.3529412 9.52058824,12.3529412 C8.94705882,12.3529412 8.67941176,12.6198257 8.45,12.8485839 C8.25882353,13.0392157 8.14411765,13.1154684 7.91470588,13.1154684 C7.64705882,13.1154684 7.53235294,13.0010893 7.37941176,12.8485839 C7.15,12.6579521 6.84411765,12.3529412 6.30882353,12.3529412 C5.77352941,12.3529412 5.46764706,12.6198257 5.23823529,12.8485839 C5.04705882,13.0392157 4.93235294,13.1154684 4.70294118,13.1154684 C4.51176471,13.1154684 4.32058824,13.3061002 4.32058824,13.496732 C4.32058824,13.7254902 4.51176471,13.8779956 4.70294118,13.8779956 C5.27647059,13.8779956 5.54411765,13.6111111 5.77352941,13.3823529 C5.96470588,13.1917211 6.07941176,13.1154684 6.30882353,13.1154684 C6.57647059,13.1154684 6.69117647,13.2298475 6.88235294,13.3823529 C7.11176471,13.5729847 7.37941176,13.8779956 7.95294118,13.8779956 C8.52647059,13.8779956 8.79411765,13.6111111 9.02352941,13.3823529 C9.21470588,13.1917211 9.32941176,13.1154684 9.55882353,13.1154684 C9.82647059,13.1154684 9.94117647,13.2298475 10.0941176,13.3823529 C10.3235294,13.5729847 10.5911765,13.8779956 11.1647059,13.8779956 C11.5088235,13.8779956 11.7382353,13.7636166 11.9294118,13.6492375 C11.9294118,13.8398693 12.1205882,13.9923747 12.3117647,13.9923747 C12.5411765,13.9923747 12.6941176,13.8398693 12.6941176,13.6111111 L12.6941176,0.648148148 C12.6558824,0.419389978 12.4647059,0.22875817 12.2735294,0.22875817 Z M9.71176471,5.71895425 L4.28235294,5.71895425 C3.63235294,5.71895425 3.13529412,6.25272331 3.13529412,6.8627451 L3.13529412,7.96840959 C3.13529412,8.19716776 2.94411765,8.3496732 2.75294118,8.3496732 L1.22352941,8.3496732 C1.03235294,8.3496732 0.841176471,8.19716776 0.841176471,7.96840959 L0.841176471,4.23202614 C0.841176471,4.04139434 1.03235294,3.85076253 1.22352941,3.85076253 L9.71176471,3.85076253 L9.71176471,5.71895425 Z M11.8529412,6.59586057 L10.8588235,6.59586057 C10.6676471,6.59586057 10.4764706,6.44335512 10.4764706,6.21459695 L10.4764706,2.7832244 C10.4764706,2.59259259 10.6676471,2.40196078 10.8588235,2.40196078 L11.8529412,2.40196078 L11.8529412,6.59586057 Z" id="Shape"></path>
                    <path d="M1.91176471,13.1154684 C1.91176471,13.1154684 1.91176471,13.1154684 1.91176471,13.1154684 C1.49117647,13.1154684 1.10882353,12.8867102 0.879411765,12.543573 C0.65,12.1623094 0.65,11.704793 0.841176471,11.3235294 L1.56764706,9.91285403 C1.68235294,9.6459695 2.10294118,9.6459695 2.25588235,9.91285403 L2.98235294,11.3235294 C3.17352941,11.704793 3.17352941,12.1623094 2.94411765,12.543573 C2.71470588,12.8867102 2.33235294,13.1154684 1.91176471,13.1154684 C1.91176471,13.1154684 1.91176471,13.1154684 1.91176471,13.1154684 Z M1.91176471,10.8660131 L1.52941176,11.6285403 C1.45294118,11.7810458 1.45294118,11.9716776 1.52941176,12.124183 C1.56764706,12.2004357 1.68235294,12.3529412 1.91176471,12.3529412 C2.14117647,12.3529412 2.25588235,12.2004357 2.29411765,12.124183 C2.37058824,11.9716776 2.40882353,11.7810458 2.29411765,11.6285403 L1.91176471,10.8660131 Z" id="Shape"></path>
                </g>
            </g>
        </g>
    </g>
</svg>