<?xml version="1.0" encoding="UTF-8"?>
<svg width="13px" height="13px" viewBox="0 0 13 13" version="1.1" xmlns="http://www.w3.org/2000/svg" xmlns:xlink="http://www.w3.org/1999/xlink">
    <!-- Generator: Sketch 52.5 (67469) - http://www.bohemiancoding.com/sketch -->
    <title>noun_maintenance_392267_000000</title>
    <desc>Created with Sketch.</desc>
    <g id="Blocks" stroke="none" stroke-width="1" fill="none" fill-rule="evenodd">
        <g id="Tab1_lg" transform="translate(-815.000000, -1093.000000)" fill="#6D5CAE">
            <g id="Group-9" transform="translate(765.000000, 852.000000)">
                <g id="noun_maintenance_392267_000000" transform="translate(50.000000, 241.000000)">
                    <path d="M1.94387669,11.2447731 C1.84605395,11.2447731 1.74842228,11.2075164 1.6737178,11.1328119 C1.59901333,11.0581075 1.56175663,10.9604758 1.56175663,10.8626531 C1.56175663,10.7648304 1.59901333,10.6671986 1.6737178,10.5924943 L3.80862256,8.45739839 C3.95784044,8.3081805 4.19972245,8.3081805 4.34894033,8.45739839 C4.42364479,8.53210286 4.46090151,8.62973454 4.46090151,8.72755727 C4.46090151,8.82538001 4.42364479,8.92320274 4.34894033,8.99771615 L2.21403557,11.1328119 C2.13952215,11.2075164 2.04169941,11.2447731 1.94387669,11.2447731 Z M5.06178529,5.49463052 C5.08452144,5.50934214 5.10592016,5.52653755 5.12540829,5.54602566 L5.43377917,5.85439655 L6.45327548,4.83394493 L5.07000087,3.44895078 C4.97217814,3.35093699 4.93492144,3.20745091 4.97294238,3.07409101 C5.14699807,2.46480058 4.95975924,1.77106161 4.49586549,1.3069768 L4.49586549,1.30678574 C4.08661491,0.897153038 3.51610966,0.71029633 2.95936074,0.7773584 L3.99280443,1.81194846 C4.42918554,2.24890274 4.42918554,2.95983712 3.99280443,3.3967914 C3.78187416,3.60810379 3.50025168,3.7246504 3.20047849,3.7246504 C2.90051425,3.7246504 2.61908282,3.60810379 2.40796149,3.3967914 L1.37298931,2.36048181 C1.29904908,2.92487313 1.48514155,3.49709792 1.89974182,3.89660443 C2.36822101,4.36584786 3.06081361,4.55346882 3.66953086,4.37922207 C3.80289076,4.34120112 3.94675897,4.37845783 4.04496382,4.47666268 L5.06178529,5.49463052 Z M6.00600396,6.42643028 L6.394429,6.81485532 L10.0925869,3.29648488 C10.1332827,3.25789076 10.182003,3.22865857 10.2351178,3.21088999 L10.9531213,2.97149177 L11.6904219,2.23438218 L10.7660735,1.31003376 L10.0287729,2.04733441 L9.78956571,2.76514694 C9.76988653,2.82475767 9.73587785,2.87825448 9.69040556,2.92143405 L6.00600396,6.42643028 Z M8.52226454,8.95950415 C8.62027834,9.05751794 8.65753504,9.20100402 8.61932304,9.33436392 C8.44545841,9.94384542 8.63269724,10.6375843 9.09639993,11.1018603 C9.50584157,11.511493 10.0774932,11.6985408 10.6330958,11.6312876 L9.59965205,10.5966975 C9.16307988,10.1597432 9.16307988,9.44899994 9.59965205,9.01185459 C9.81058232,8.8005422 10.0918227,8.68418664 10.3917869,8.68418664 C10.6917512,8.68418664 10.9731826,8.8005422 11.1843039,9.01185459 L12.2194672,10.0481642 C12.2930253,9.48377286 12.1071238,8.91154808 11.6925236,8.51204156 C11.2305404,8.02865968 10.5566717,7.84849007 9.92273456,8.02942392 C9.78975677,8.06763593 9.64569751,8.03057029 9.54730159,7.9319833 L7.97908088,6.36204305 L6.95557231,7.37618968 L8.52226454,8.95950415 Z M1.05086211,11.7556676 C1.5365367,12.144857 2.24498729,12.1465765 2.64564017,11.7554766 L4.80442744,9.59668935 C4.73641007,9.1843818 4.92823433,8.67730848 5.16858785,8.45529673 C5.42957585,8.1748206 5.87455466,7.99025662 6.21712529,8.02311894 C6.26431712,8.02770439 6.30959834,8.03611103 6.35296898,8.04833887 L6.44238507,7.95873171 L6.19362491,7.7097805 C6.15846986,7.69182085 6.12560754,7.66832047 6.09637535,7.63908829 L5.16744149,6.71015443 C5.13763613,6.68034906 5.11337151,6.64634037 5.09502974,6.60927473 L4.84894443,6.36280729 L4.75819091,6.4535608 C4.77041875,6.49674037 4.77882539,6.54221266 4.78341084,6.58940448 C4.81684634,6.93101981 4.63190023,7.37676286 4.35104199,7.63775086 C4.12903023,7.87829544 3.62253009,8.07126606 3.20964937,8.00191128 L1.04952468,10.1622271 C0.659571166,10.5600141 0.661290706,11.2694199 1.05086211,11.7556676 Z M1.87929839,12.8063068 C1.40432316,12.8063068 0.918839625,12.6442879 0.533089427,12.3192947 C0.516467204,12.3053473 0.501182403,12.2900626 0.48704396,12.2734404 C-0.16982042,11.4939155 -0.161222718,10.3055221 0.506532083,9.62458411 L2.83822868,7.29269645 C2.9710154,7.15971867 3.18099036,7.14347857 3.3328831,7.25372021 C3.41561209,7.28448087 3.71213726,7.19487372 3.78913444,7.11997819 C3.80155335,7.1050755 3.81072423,7.09590462 3.82524479,7.0831036 C3.9427467,6.97878482 4.01917072,6.78046451 4.02394722,6.68818252 C3.95287289,6.62723437 3.90606318,6.54144842 3.8940264,6.44706476 C3.87893266,6.32956284 3.91905526,6.21186987 4.00273955,6.12837664 L4.30881772,5.82229846 L3.65443712,5.16715363 C2.83440748,5.32153014 1.97482841,5.05309079 1.36420055,4.44188976 C0.579899134,3.68586522 0.368968862,2.49174004 0.844899394,1.4756828 C0.897631963,1.36276633 1.0021418,1.28271217 1.1249934,1.26131345 C1.24822712,1.23972367 1.37318037,1.27965521 1.46125905,1.36773389 L2.94885243,2.85685576 C3.08221233,2.99040672 3.31874465,2.99040672 3.45191349,2.85685576 C3.59100519,2.717573 3.59100519,2.49116686 3.45210455,2.3518841 L1.9643201,0.862571173 C1.87643249,0.7744925 1.83688306,0.64915712 1.85847285,0.526496582 C1.87987157,0.404027103 1.95973467,0.299517268 2.07246008,0.2467847 C3.06807389,-0.220548131 4.25914211,-0.0115284598 5.03656537,0.766850099 L5.03656537,0.766659038 C5.64719323,1.37805113 5.91448621,2.2385855 5.76087394,3.05918833 L7.06447652,4.36451045 L9.09468039,2.43327567 L9.33235907,1.72023965 C9.35108295,1.66387694 9.38279891,1.61286391 9.42464106,1.5708307 L10.4959146,0.499557118 C10.6392096,0.356262096 10.8929374,0.356262096 11.0362324,0.499557118 L12.5008986,1.9642233 C12.5725461,2.03587081 12.6128598,2.13312037 12.6128598,2.23438218 C12.6128598,2.335644 12.5725461,2.43289355 12.5008986,2.50454106 L11.429625,3.57562358 C11.3877829,3.61765679 11.3367698,3.6491817 11.2804071,3.66809664 L10.557627,3.90883227 L8.5329639,5.83529055 L9.93744618,7.24111025 C10.7763907,7.08023769 11.6396,7.3507787 12.2339877,7.97287015 C13.0125574,8.72278077 13.2232965,9.91690594 12.7475571,10.9329631 C12.6946335,11.0458796 12.5901236,11.1259338 12.4674631,11.1473325 C12.3444205,11.1696865 12.219085,11.1293729 12.1310064,11.0411031 L10.6436041,9.55198129 C10.5102442,9.41843033 10.2737118,9.41804821 10.1403519,9.55198129 C10.0012602,9.69107299 10.0012602,9.91767019 10.1403519,10.0567619 L11.6279453,11.5458838 C11.7158329,11.6339624 11.7553823,11.7592978 11.7337926,11.8819584 C11.7123939,12.0046188 11.6325307,12.1087466 11.5198054,12.1618613 C10.5241915,12.628812 9.3331233,12.4201744 8.55570005,11.6417959 C7.94507219,11.0305949 7.67797027,10.1700605 7.83158254,9.3492666 L6.98251177,8.4994316 L6.67815314,8.80379022 C6.59446885,8.88747451 6.47734906,8.9291256 6.35946501,8.91250338 C6.2648903,8.9004666 6.1792954,8.85365689 6.11815619,8.78258256 C6.02606526,8.78735906 5.82774496,8.863592 5.72342617,8.98109393 C5.71043409,8.99580555 5.69648671,9.00917975 5.68158403,9.02159866 C5.61165606,9.09420146 5.52147572,9.39091769 5.55873243,9.48377286 C5.66916513,9.63585665 5.64642898,9.83532332 5.51364227,9.96811004 L3.18442945,12.2973229 C3.18366521,12.2982782 3.18270991,12.2992335 3.18175461,12.2999977 C2.8376555,12.6372186 2.36401768,12.8063068 1.87929839,12.8063068 Z" id="Shape"></path>
                </g>
            </g>
        </g>
    </g>
</svg>