<?xml version="1.0" encoding="UTF-8"?>
<svg width="13px" height="12px" viewBox="0 0 13 12" version="1.1" xmlns="http://www.w3.org/2000/svg" xmlns:xlink="http://www.w3.org/1999/xlink">
    <!-- Generator: Sketch 52.5 (67469) - http://www.bohemiancoding.com/sketch -->
    <title>noun_no internet_1496941_000000</title>
    <desc>Created with Sketch.</desc>
    <g id="Blocks" stroke="none" stroke-width="1" fill="none" fill-rule="evenodd">
        <g id="Tab1_lg" transform="translate(-815.000000, -1176.000000)" fill="#6D5CAE">
            <g id="Group-9" transform="translate(765.000000, 852.000000)">
                <g id="noun_no-internet_1496941_000000" transform="translate(50.000000, 324.000000)">
                    <path d="M9.84001087,5.5955163 C9.55443478,5.5955163 9.27818478,5.63355978 9.0155,5.70339674 C7.46369565,4.30883152 5.02153261,4.33804348 3.50802174,5.79307065 C3.36996739,5.92567935 3.36996739,6.14076087 3.50802174,6.27336957 C3.57697826,6.33967391 3.66741304,6.37282609 3.75784783,6.37282609 C3.84828261,6.37282609 3.93857609,6.33967391 4.00767391,6.27336957 C5.17329348,5.15285326 7.00798913,5.0638587 8.2841087,6.00013587 C7.80113043,6.27105978 7.40081522,6.66372283 7.12922826,7.13451087 C6.50551087,6.7861413 5.69173913,6.86644022 5.15817391,7.37975543 C4.52315217,7.99076087 4.52315217,8.98505435 5.15831522,9.59619565 C5.4761087,9.9017663 5.89338043,10.0544837 6.31079348,10.0544837 C6.56726087,10.0544837 6.82358696,9.99619565 7.05688043,9.88097826 C7.56119565,10.8701087 8.6191413,11.553125 9.84001087,11.553125 C11.5482391,11.553125 12.9379674,10.2168478 12.9379674,8.57432065 C12.9379674,6.93179348 11.5482391,5.5955163 9.84001087,5.5955163 Z M6.8185,9.22975543 C6.46015217,9.45665761 5.97251087,9.41861413 5.65782609,9.11603261 C5.29792391,8.76956522 5.29792391,8.20625 5.65768478,7.85991848 C5.98423913,7.54605978 6.49561957,7.51779891 6.85679348,7.77309783 C6.7826087,8.02826087 6.74191304,8.29673913 6.74191304,8.57418478 C6.74205435,8.79945652 6.76904348,9.01861413 6.8185,9.22975543 Z M9.84001087,10.8736413 C8.5213587,10.8736413 7.44857609,9.84211957 7.44857609,8.57418478 C7.44857609,7.30625 8.5213587,6.27472826 9.84001087,6.27472826 C11.158663,6.27472826 12.2314457,7.30625 12.2314457,8.57418478 C12.2314457,9.84211957 11.158663,10.8736413 9.84001087,10.8736413 Z M10.2431522,4.70679348 C10.3121087,4.77309783 10.4025435,4.80625 10.4929783,4.80625 C10.583413,4.80625 10.6738478,4.77309783 10.7428043,4.70679348 C10.8808587,4.57404891 10.8808587,4.35896739 10.7428043,4.22649457 C8.29894565,1.87690217 4.3225,1.87703804 1.87920652,4.22649457 C1.74115217,4.35923913 1.74115217,4.57432065 1.87920652,4.70679348 C2.01726087,4.83953804 2.24080435,4.83953804 2.37871739,4.70679348 C4.54675,2.62201087 8.07469565,2.621875 10.2431522,4.70679348 Z M11.9564674,3.05923913 C12.0254239,3.12554348 12.1158587,3.15869565 12.2062935,3.15869565 C12.2967283,3.15869565 12.3870217,3.12554348 12.4561196,3.05923913 C12.5941739,2.92663043 12.5941739,2.71154891 12.4561196,2.57894022 C10.8150109,1.00081522 8.63256522,0.131793478 6.31093478,0.131793478 C3.98916304,0.131793478 1.8068587,1.00081522 0.165608696,2.57894022 C0.0275543478,2.71154891 0.0275543478,2.92663043 0.165608696,3.05923913 C0.303663043,3.19184783 0.527206522,3.1919837 0.665119565,3.05923913 C2.17297826,1.60951087 4.17794565,0.811141304 6.31093478,0.811141304 C8.44392391,0.811141304 10.44875,1.60951087 11.9564674,3.05923913 Z M9.76766304,6.95271739 C9.57252174,6.95271739 9.41440217,7.10475543 9.41440217,7.2923913 L9.41440217,8.69633152 C9.41440217,8.88396739 9.57252174,9.03600543 9.76766304,9.03600543 C9.96280435,9.03600543 10.1209239,8.88396739 10.1209239,8.69633152 L10.1209239,7.2923913 C10.1209239,7.10475543 9.96280435,6.95271739 9.76766304,6.95271739 Z M9.76766304,9.37567935 C9.57252174,9.37567935 9.41440217,9.52771739 9.41440217,9.71535326 L9.41440217,9.73804348 C9.41440217,9.92567935 9.57252174,10.0777174 9.76766304,10.0777174 C9.96280435,10.0777174 10.1209239,9.92567935 10.1209239,9.73804348 L10.1209239,9.71535326 C10.1209239,9.52771739 9.96280435,9.37567935 9.76766304,9.37567935 Z" id="Shape"></path>
                </g>
            </g>
        </g>
    </g>
</svg>