<?xml version="1.0" encoding="UTF-8"?>
<svg width="49px" height="49px" viewBox="0 0 49 49" version="1.1" xmlns="http://www.w3.org/2000/svg" xmlns:xlink="http://www.w3.org/1999/xlink">
    <!-- Generator: Sketch 55.2 (78181) - https://sketchapp.com -->
    <title>icn_bank</title>
    <desc>Created with Sketch.</desc>
    <g id="Fees-and-Costs" stroke="none" stroke-width="1" fill="none" fill-rule="evenodd">
        <g id="Fees-and-Cost" transform="translate(-953.000000, -1178.000000)" fill="#4F9891">
            <g id="Group-3-Copy-2" transform="translate(781.000000, 1178.000000)">
                <g id="icn_bank" transform="translate(172.000000, 0.000000)">
                    <path d="M24.4979321,5.85169564e-05 C24.4481045,-0.000370841407 24.3982819,0.00156035712 24.3486426,0.00592483174 C24.1506709,0.0283237929 23.9589791,0.0892618711 23.784348,0.185311878 L4.24592509,10.7205351 L1.57669983,10.7205351 C1.52399073,10.7177995 1.47117555,10.7177995 1.41846645,10.7205351 C0.588211839,10.7818936 -0.0409472438,11.4964296 0.00208151156,12.3291234 C0.045110267,13.1618173 0.744556714,13.8074846 1.57669983,13.7826724 L3.09941633,13.7826724 L3.09941633,13.7856815 L15.5258895,13.7856815 L15.5258895,13.7826724 L18.2996153,13.7826724 L18.2996153,13.7856815 L30.7141494,13.7856815 L30.7141494,13.7826724 L33.4908559,13.7826724 L33.4908559,13.7856815 L45.9143482,13.7856815 L45.9143482,13.7826724 L47.4370494,13.7826724 C47.9912748,13.7949773 48.5087398,13.5058784 48.7894599,13.0271036 C49.07018,12.5483287 49.07018,11.9548788 48.7894599,11.4761039 C48.5087398,10.9973291 47.9912748,10.7082302 47.4370494,10.7205351 L44.7708208,10.7205351 L25.2294196,0.185531772 C25.0048865,0.0634901024 24.7533981,-0.000252966538 24.4979321,5.85169564e-05 L24.4979321,5.85169564e-05 Z M3.09941633,16.85077 L3.09941633,19.5241003 C3.10261327,20.3302036 3.72927379,20.9957774 4.53255225,21.0462285 L4.53255225,31.9818958 C4.57125694,31.9810857 4.6073507,31.9703224 4.6460109,31.9703224 L14.0927534,31.9703224 L14.0927534,21.0435666 C14.8948827,20.9931957 15.5211172,20.3293893 15.5258895,19.5244475 L15.5258895,16.8511172 L3.09941633,16.85077 Z M18.2996153,16.85077 L18.2996153,19.5241003 C18.3028123,20.3302037 18.9294729,20.9957775 19.7327514,21.0462285 L19.7327514,31.9699752 L29.2810133,31.9699752 L29.2810133,21.0432194 C30.0831425,20.9928485 30.7093771,20.3290421 30.7141494,19.5241003 L30.7141494,16.85077 L18.2996153,16.85077 Z M33.4908559,16.85077 L33.4908559,19.5241003 C33.4940528,20.3302037 34.1207135,20.9957775 34.923992,21.0462285 L34.923992,31.9699752 L44.3677541,31.9699752 C44.4064645,31.9698016 44.4427368,31.9815486 44.4812104,31.9815486 L44.4812104,21.0458813 C45.2843569,20.9954403 45.9109692,20.3300703 45.9143482,19.5241003 L45.9143482,16.85077 L33.4908559,16.85077 Z M4.63405647,35.0320547 C4.2265662,35.030501 3.83531829,35.1919424 3.54717967,35.480535 C3.25904106,35.7691276 3.09785768,36.1609877 3.09941633,36.5691125 L3.09941633,40.4774939 L1.57669983,40.4774939 C1.54281045,40.4782951 1.50895705,40.4802251 1.47519578,40.4832805 L47.5654433,40.4832805 C47.522746,40.47955 47.479911,40.4776194 47.4370517,40.4774939 L45.9143482,40.4774939 L45.9143482,36.5691125 C45.9159069,36.1609851 45.7547215,35.7691226 45.4665796,35.4805296 C45.1784377,35.1919366 44.7871859,35.0304969 44.3796931,35.0320547 L4.63405647,35.0320547 Z M0.053987205,43.5486005 L0.053987205,47.4629421 C0.0507687708,48.3084955 0.732461836,48.9966158 1.57669983,49 L47.4370494,49 C48.2812934,48.9966244 48.962996,48.3085015 48.9597775,47.4629421 L48.9597775,43.5486005 L0.053987205,43.5486005 Z" id="Shape"></path>
                </g>
            </g>
        </g>
    </g>
</svg>