<?xml version="1.0" encoding="UTF-8"?>
<svg width="156px" height="88px" viewBox="0 0 156 88" version="1.1" xmlns="http://www.w3.org/2000/svg" xmlns:xlink="http://www.w3.org/1999/xlink">
    <!-- Generator: Sketch 55.2 (78181) - https://sketchapp.com -->
    <title>Book-image</title>
    <desc>Created with Sketch.</desc>
    <g id="How-it-works-page" stroke="none" stroke-width="1" fill="none" fill-rule="evenodd">
        <g id="How-it-works_lg" transform="translate(-355.000000, -3157.000000)">
            <g id="2200-copy" transform="translate(0.000000, 3092.000000)">
                <g id="Group-5" transform="translate(356.000000, 65.000000)">
                    <g id="Book-image">
                        <g id="Clock" transform="translate(36.046512, 0.000000)">
                            <path d="M62.8771318,31.5171701 C62.8771318,48.818449 48.8021705,62.8439728 31.4385659,62.8439728 C14.0761628,62.8439728 -8.52651283e-14,48.818449 -8.52651283e-14,31.5171701 C-8.52651283e-14,14.2158912 14.0761628,0.190367347 31.4385659,0.190367347 C48.8021705,0.190367347 62.8771318,14.2158912 62.8771318,31.5171701" id="Fill-53" fill="#E1F1F0"></path>
                            <path d="M53.2683333,54.0774966 C53.1914341,54.0774966 53.1145349,54.0481633 53.0562597,53.9894966 C52.9391085,53.8727619 52.9391085,53.6829932 53.0562597,53.5662585 C58.9372481,47.7061769 62.1766279,39.9142857 62.1766279,31.6267211 C62.1766279,23.3385578 58.9372481,15.5472653 53.0562597,9.68658503 C47.1746705,3.8265034 39.3555814,0.598639456 31.0378488,0.598639456 C22.7207171,0.598639456 14.9016279,3.8265034 9.02003876,9.68658503 C8.9028876,9.80391837 8.71244186,9.80391837 8.5952907,9.68658503 C8.47813953,9.56985034 8.47813953,9.38068027 8.5952907,9.26334694 C14.5898256,3.29012245 22.5603101,1.42108547e-13 31.0378488,1.42108547e-13 C39.5159884,1.42108547e-13 47.4864729,3.29012245 53.4810078,9.26334694 C59.4755426,15.2365714 62.7774031,23.1787211 62.7774031,31.6267211 C62.7774031,40.0741224 59.4755426,48.0162721 53.4810078,53.9894966 C53.4221318,54.0481633 53.3452326,54.0774966 53.2683333,54.0774966" id="Fill-54" fill="#23A79A"></path>
                            <path d="M55.3626357,31.5171701 C55.3626357,44.6830476 44.6520155,55.3561905 31.4385659,55.3561905 C18.2263178,55.3561905 7.5150969,44.6830476 7.5150969,31.5171701 C7.5150969,18.3512925 18.2263178,7.67814966 31.4385659,7.67814966 C44.6520155,7.67814966 55.3626357,18.3512925 55.3626357,31.5171701" id="Fill-55" fill="#FFFFFE"></path>
                            <path d="M31.4385659,55.6555102 C18.081531,55.6555102 7.2147093,44.8267211 7.2147093,31.5171701 C7.2147093,18.207619 18.081531,7.37882993 31.4385659,7.37882993 C31.6049806,7.37882993 31.7389535,7.51292517 31.7389535,7.67814966 C31.7389535,7.84397279 31.6049806,7.97746939 31.4385659,7.97746939 C18.4131589,7.97746939 7.8154845,18.5374694 7.8154845,31.5171701 C7.8154845,44.4968707 18.4131589,55.0568707 31.4385659,55.0568707 C31.6049806,55.0568707 31.7389535,55.1903673 31.7389535,55.3561905 C31.7389535,55.521415 31.6049806,55.6555102 31.4385659,55.6555102" id="Fill-56" fill="#23A79A"></path>
                            <path d="M37.6367636,36.073415 L31.1285659,36.073415 C29.7936434,36.073415 28.7074419,34.9910748 28.7074419,33.660898 L28.7074419,24.669932 C28.7074419,23.5121633 29.6488566,22.5746939 30.810155,22.5746939 C31.9714535,22.5746939 32.9128682,23.5121633 32.9128682,24.669932 L32.9128682,31.8829388 L37.6367636,31.8829388 C38.798062,31.8829388 39.7394767,32.8210068 39.7394767,33.9781769 C39.7394767,35.1353469 38.798062,36.073415 37.6367636,36.073415" id="Fill-57" fill="#23A79A"></path>
                        </g>
                        <g id="Group-2" transform="translate(0.000000, 19.755102)">
                            <path d="M4.96846058,29.1979757 L38.8353598,62.9438805 C45.4601079,69.5456764 56.2007668,69.5456764 62.8255148,62.9438805 L66.8747396,58.9096492 C68.4037125,57.3861118 68.4037125,54.9161254 66.8747396,53.392588 L53.0551079,39.6220846 C51.526135,38.0985471 49.0473365,38.0985471 47.5183637,39.6220846 L40.6088482,46.5076356 C40.0681505,47.0464111 39.1922203,47.0464111 38.6515226,46.5076356 L21.8922978,29.8079893 C21.3594102,29.2769961 21.3594102,28.4149553 21.8922978,27.8833635 L28.70629,21.0935948 C30.2352629,19.5700573 30.2352629,17.1006696 28.70629,15.5771322 L14.5123753,1.4336764 C13.0026272,-0.0707045573 10.5610769,-0.0922555777 9.02489468,1.38578524 L5.17993344,5.08597571 C-1.64307043,11.6512546 -1.73799291,22.5153635 4.96846058,29.1979757" id="Fill-58" stroke="#23A79A" stroke-width="0.6" fill="#E1F1F0"></path>
                            <path d="M6.02882879,5.76603014 L25.0589838,24.7285335 L28.70629,21.0935948 C30.2352629,19.5700573 30.2352629,17.1006696 28.70629,15.5771322 L14.5129761,1.4336764 C13.0026272,-0.0707045573 10.5610769,-0.0922555777 9.02489468,1.38578524 L5.17993344,5.08597571 L6.02882879,5.76603014" id="Fill-59" fill="#23A79A"></path>
                            <path d="M5.63351872,5.06562197 L6.24150321,5.55471041 L25.0589838,24.3046968 L28.4936156,20.882275 C29.176697,20.201622 29.5527823,19.2970778 29.5527823,18.3350642 C29.5527823,17.3736492 29.176697,16.469105 28.4936156,15.7884519 L14.3003017,1.64499612 C12.9149141,0.264533538 10.6421815,0.245377075 9.23336368,1.60129544 L5.63351872,5.06562197 Z M25.0589838,25.1517716 L5.82816988,5.98932265 L4.7257474,5.1069281 L8.81642569,1.17027503 C10.4595458,-0.409534489 13.110166,-0.387384829 14.7250497,1.22175803 L28.9189645,15.3652138 C30.5620846,17.0030914 30.5620846,19.6676356 28.9189645,21.3055131 L25.0589838,25.1517716 L25.0589838,25.1517716 Z" id="Fill-60" fill="#23A79A"></path>
                            <path d="M44.74098,43.6904383 L63.7705342,62.6523431 L67.4184412,59.0180029 C68.9468133,57.4944655 68.9468133,55.0244791 67.4184412,53.5015403 L53.2245265,39.3580846 C51.7147784,37.853105 49.273228,37.8321526 47.7370458,39.3101934 L43.8914838,43.0103839 L44.74098,43.6904383" id="Fill-61" fill="#23A79A"></path>
                            <path d="M44.3456699,42.9894315 L44.9530536,43.4785199 L63.7705342,62.229105 L67.2063676,58.8060846 C67.8888482,58.1260301 68.2643327,57.2214859 68.2643327,56.2594723 C68.2643327,55.2974587 67.8888482,54.3929145 67.2063676,53.7128601 L53.0124528,39.5694043 C51.6270652,38.190139 49.3543327,38.1697852 47.9455148,39.5257036 L44.3456699,42.9894315 Z M63.7705342,63.0755812 L44.5397203,43.9131322 L43.4378986,43.0313363 L47.5285769,39.0946832 C49.171697,37.514275 51.8223172,37.5370233 53.4372009,39.1461662 L67.6311156,53.289622 C68.4271427,54.0834179 68.8651079,55.137622 68.8651079,56.2594723 C68.8651079,57.3813227 68.4271427,58.4361254 67.6311156,59.2293227 L63.7705342,63.0755812 L63.7705342,63.0755812 Z" id="Fill-62" fill="#23A79A"></path>
                            <path d="M7.48691019,3.53011177 L19.0818714,15.0844519" id="Fill-63" fill="#EFF3F5"></path>
                            <path d="M19.0818714,15.3837716 C19.0049722,15.3837716 18.928073,15.3544383 18.869197,15.2957716 L7.27423577,3.74203014 C7.15708461,3.62529544 7.15708461,3.43552674 7.27423577,3.31879204 C7.39138693,3.20205735 7.58183267,3.20205735 7.69898383,3.31879204 L19.2945458,14.8725335 C19.411697,14.9892682 19.411697,15.1790369 19.2945458,15.2957716 C19.2356699,15.3544383 19.1587707,15.3837716 19.0818714,15.3837716" id="Fill-64" fill="#23A79A"></path>
                            <path d="M65.2045846,61.3425199 C65.1282862,61.3425199 65.0513869,61.3131866 64.992511,61.2545199 L53.3969489,49.7007784 C53.2797978,49.5840437 53.2797978,49.394275 53.3969489,49.2775403 C53.5141001,49.1608056 53.7045458,49.1608056 53.821697,49.2775403 L65.417259,60.8312818 C65.5344102,60.9480165 65.5344102,61.1377852 65.417259,61.2545199 C65.3583831,61.3131866 65.2814838,61.3425199 65.2045846,61.3425199" id="Fill-66" fill="#23A79A"></path>
                        </g>
                        <g id="Group-3" transform="translate(83.507752, 14.965986)">
                            <path d="M54.8353141,1.26317127 L66.4302753,12.8175114" id="Fill-65" fill="#EFF3F5"></path>
                            <path d="M68.8117482,62.9793073 L7.13917066,69.9031713 C5.95444198,70.0360692 4.88626368,69.1871985 4.75289159,68.0060828 L0.301147404,28.6377563 C0.293938102,28.5754978 0.338996241,28.5192257 0.401476861,28.512042 L66.1232792,21.1338107 C66.1857598,21.1266271 66.2422327,21.1721237 66.249442,21.2337835 L70.7023877,60.617076 C70.8345583,61.7892121 69.9886668,62.847008 68.8117482,62.9793073" id="Fill-104" fill="#E1F1F0"></path>
                            <path d="M0.620759807,28.7886134 L5.05147686,67.972559 C5.16562415,68.9872529 6.08360864,69.7235794 7.10552725,69.6056475 L68.7781048,62.6817835 L68.8117482,62.9793073 L68.7781048,62.6817835 C69.2677366,62.6267087 69.7063024,62.3848583 70.0132986,62.0017291 C70.3202947,61.6180012 70.4590738,61.1378924 70.4038024,60.6505998 L65.9718838,21.4516883 L0.620759807,28.7886134 M6.89645748,70.2156611 C5.66246523,70.2156611 4.59548849,69.2895658 4.45430632,68.0396066 L0.00256213262,28.6712801 C-0.0226704255,28.4449944 0.141341202,28.2402597 0.36783345,28.2145182 L66.0896358,20.8362869 C66.3197327,20.8105454 66.5221939,20.973974 66.5474265,21.2002597 L71.000973,60.5841509 C71.0736668,61.2300828 70.8898296,61.8658379 70.4831048,62.3746815 C70.0757792,62.8829264 69.4942288,63.2037971 68.8453916,63.2768311 L7.17281407,70.2006951 C7.07969392,70.2114706 6.98777531,70.2156611 6.89645748,70.2156611" id="Fill-105" fill="#23A79A"></path>
                            <path d="M65.8517288,62.7284774 L61.6378916,59.0211032 L60.4729885,57.8884774 C63.2221358,60.2141917 65.34888,62.0753617 65.8517288,62.7284774 M44.6689962,42.5154162 L44.6293451,42.4765046 L45.7443838,41.4546271 L44.6689962,42.5154162 M11.4010699,35.4688311 L0.626166784,28.8377019 L0.620759807,28.7886134 L10.5203335,27.6775386 L11.4010699,35.4688311 M55.2798877,32.0517971 L54.2303335,22.770491 L65.963473,21.4528856 C65.9658761,21.4528856 65.96888,21.4522869 65.9718838,21.4522869 L65.9772908,21.501974 L55.2798877,32.0517971" id="Fill-108" fill="#23A79A"></path>
                            <path d="M0.401476861,28.512042 L27.5799459,1.72951141 C29.2002366,0.128150861 31.7108761,-0.157400159 33.6519807,1.03868147 L65.9562637,21.0302461 C66.0109342,21.0643685 65.9923102,21.1487767 65.9274265,21.1559604 L0.288531125,28.5252121 L0.401476861,28.512042" id="Fill-110" fill="#EDA2A9"></path>
                            <path d="M31.0530272,0.598681473 C29.8640931,0.598681473 28.6871745,1.05664066 27.7914187,1.94262705 L1.2287443,28.1181373 L65.2299265,20.9332665 L33.4939769,1.29310324 C32.7370001,0.826763106 31.8917094,0.598681473 31.0530272,0.598681473 M0.322174536,28.8227359 L0.272310195,28.3821373 L0.190604768,28.299525 L0.256089264,28.2348719 L0.254887714,28.2276883 L0.264500117,28.226491 L27.368473,1.5169944 C29.0938993,-0.187930772 31.7433179,-0.489645057 33.8099846,0.784259705 L66.1148683,20.776423 C66.2476397,20.8578379 66.3137249,21.0158788 66.2800815,21.1679332 C66.2458373,21.3205862 66.118473,21.4349264 65.963473,21.4528856 L0.322174536,28.8227359" id="Fill-111" fill="#23A79A"></path>
                            <path d="M1.2287443,28.1181373 L9.63358926,19.8359604 L10.4530466,27.082491 L1.2287443,28.1181373 M54.1630466,22.176042 L53.1795776,13.4760148 L65.2299265,20.9332665 L54.1630466,22.176042 M23.023066,6.64134814 L27.7914187,1.94262705 C28.6871745,1.05664066 29.8640931,0.598681473 31.0530272,0.598681473 C31.8917094,0.598681473 32.7370001,0.826763106 33.4939769,1.29310324 L39.2007404,4.82507603 L23.023066,6.64134814" id="Fill-112" fill="#E1F1F0"></path>
                            <path d="M0.288531125,28.5252121 L0.288531125,28.5252121 L0.401476861,28.512042 L9.59033345,19.4570216 L9.63358926,19.8359604 L1.2287443,28.1181373 L10.4530466,27.082491 L10.48669,27.3800148 L0.288531125,28.5252121 M54.19669,22.4729672 L54.1630466,22.176042 L65.2299265,20.9332665 L53.1795776,13.4760148 L53.1369226,13.097076 L65.9562637,21.0302461 C66.0109342,21.0643685 65.9923102,21.1487767 65.9274265,21.1559604 L54.19669,22.4729672 M22.5406435,6.69522569 L27.5799459,1.72951141 C28.5303722,0.790246099 29.7883955,0.303552222 31.0572327,0.303552222 C31.9511862,0.303552222 32.8499459,0.544205283 33.6519807,1.03868147 L39.6825621,4.77119848 L39.2007404,4.82507603 L33.4939769,1.29310324 C32.7370001,0.826763106 31.8917094,0.598681473 31.0530272,0.598681473 C29.8640931,0.598681473 28.6871745,1.05664066 27.7914187,1.94262705 L23.023066,6.64134814 L22.5406435,6.69522569" id="Fill-113" fill="#23A79A"></path>
                            <path d="M30.5850234,41.1265726 L10.1550621,69.4494026 L65.9220195,63.1888311 L39.6795583,40.1052937 C36.9418257,37.6969672 32.715973,38.1716883 30.5850234,41.1265726" id="Fill-114" fill="#EDA2A9"></path>
                            <path d="M35.5930854,38.8655114 C35.3756048,38.8655114 35.1569226,38.8774842 34.9388412,38.9020284 C33.2933179,39.0864094 31.7955854,39.9610216 30.8289381,41.3013754 L10.7942869,69.0764502 L65.2155079,62.9667359 L39.4807017,40.3297835 C38.4041125,39.3827359 37.015721,38.8655114 35.5930854,38.8655114 M9.5164381,69.8223549 L30.3411086,40.9517699 L30.5850234,41.1265726 L30.3411086,40.9517699 C31.4062831,39.4749264 33.0578141,38.5105182 34.8715544,38.3075794 C36.6852947,38.104042 38.509849,38.6775386 39.8784148,39.8808039 L66.6279303,63.4109264 L9.5164381,69.8223549" id="Fill-115" fill="#242F4E"></path>
                            <path d="M3.71955826,9.10953862 L46.6749846,4.2874978 C49.4908179,3.97081753 51.9966513,5.68891277 52.2724071,8.12477671 L55.0329691,32.5414842 L43.0877559,43.4816202 L27.3029885,45.2541917 L11.7110699,35.537076 L9.03641872,11.8806407 L3.71955826,9.10953862" id="Fill-116" fill="#FFFFFE"></path>
                            <path d="M11.9934342,35.3598788 L27.3732792,44.9446951 L42.9561862,43.1954706 L54.7169614,32.4241509 L51.973221,8.15770188 C51.8500621,7.06757943 51.2402753,6.09538896 50.2562055,5.42072229 C49.2583179,4.73707603 47.9990931,4.4407495 46.708628,4.58502161 L4.72825981,9.29811004 L9.31698074,11.689076 L11.9934342,35.3598788 M27.232097,45.5636883 L11.4287055,35.7142733 L8.75585671,12.0728039 L4.66517841,8.70246379 L46.6413412,3.98997399 C48.0753916,3.82953862 49.480004,4.16178351 50.5968451,4.92744338 C51.7263024,5.70208283 52.4274071,6.82572909 52.5709924,8.0912529 L55.3483761,32.6588175 L43.2187249,43.7683685 L27.232097,45.5636883" id="Fill-117" fill="#23A79A"></path>
                            <polyline id="Fill-118" fill="#23A79A" points="14.4415931 62.9942733 26.3717869 45.0273073 27.0819032 45.4697019 14.4415931 62.9942733"></polyline>
                            <path d="M60.4729885,57.8884774 C59.6000621,57.1497563 58.6646552,56.3643413 57.6986086,55.5567767 L43.822504,43.3505182 L44.6689962,42.5154162 L60.4729885,57.8884774" id="Fill-119" fill="#23A79A"></path>
                            <path d="M61.6378916,59.0211032 L57.6986086,55.5567767 C58.6646552,56.3643413 59.6000621,57.1497563 60.4729885,57.8884774 L61.6378916,59.0211032 M43.822504,43.3505182 L43.7474071,43.2840692 L44.6293451,42.4765046 L44.6689962,42.5154162 L43.822504,43.3505182" id="Fill-120" fill="#846A7E"></path>
                            <path d="M27.3732792,44.9446951 L26.7034148,44.5274434 L30.5850234,38.6823277 C31.7985893,37.0001509 33.6904303,36.1219468 35.6002947,36.1219468 C37.045159,36.1219468 38.5002366,36.6242053 39.6795583,37.6616475 L44.1985893,42.057457 L43.2944226,42.8853754 L39.8784148,39.8808039 C38.6912831,38.8367767 37.1611086,38.2668719 35.5924846,38.2668719 C35.3527753,38.2668719 35.1118645,38.2806407 34.8715544,38.3075794 C33.0578141,38.5105182 31.4062831,39.4749264 30.3411086,40.9517699 L27.4682017,44.9345182 L27.3732792,44.9446951" id="Fill-121" fill="#23A79A"></path>
                            <path d="M27.0819032,45.4697019 L27.0819032,45.4697019 L26.3717869,45.0273073 L26.7034148,44.5274434 L27.3732792,44.9446951 L27.4682017,44.9345182 L27.0819032,45.4697019 M43.7474071,43.2840692 L43.2944226,42.8853754 L44.1985893,42.057457 L44.6293451,42.4765046 L43.7474071,43.2840692" id="Fill-122" fill="#242F4E"></path>
                            <path d="M30.5850234,41.1265726 L10.1550621,69.4494026 L65.9220195,63.1888311 L39.6795583,40.1052937 C36.9418257,37.6969672 32.715973,38.1716883 30.5850234,41.1265726" id="Fill-123" fill="#E1F1F0"></path>
                            <path d="M35.5930854,38.8655114 C35.3756048,38.8655114 35.1569226,38.8774842 34.9388412,38.9020284 C33.2933179,39.0864094 31.7955854,39.9610216 30.8289381,41.3013754 L10.7942869,69.0764502 L65.2155079,62.9667359 L39.4807017,40.3297835 C38.4041125,39.3827359 37.015721,38.8655114 35.5930854,38.8655114 M9.5164381,69.8223549 L30.3411086,40.9517699 L30.5850234,41.1265726 L30.3411086,40.9517699 C31.4062831,39.4749264 33.0578141,38.5105182 34.8715544,38.3075794 C36.6852947,38.104042 38.509849,38.6775386 39.8784148,39.8808039 L66.6279303,63.4109264 L9.5164381,69.8223549" id="Fill-124" fill="#23A79A"></path>
                            <path d="M17.5614187,68.1952529 L32.5645776,47.3949264 C33.456128,46.1593345 34.845721,45.5145998 36.2485311,45.5145998 C37.3095001,45.5145998 38.3776784,45.8833617 39.2433955,46.6448311 L58.5162637,63.5977019 L17.5614187,68.1952529" id="Fill-125" fill="#F8FFFF"></path>
                            <path d="M0.426108644,28.5659196 L27.3029885,45.2541917" id="Fill-126" fill="#23A79A"></path>
                            <polyline id="Fill-127" fill="#23A79A" points="27.1437831 45.5086134 0.266903218 28.8203413 0.584713295 28.3114978 27.4615931 44.9997699 27.1437831 45.5086134"></polyline>
                            <path d="M66.2428335,21.1763141 L43.7660311,43.405593" id="Fill-128" fill="#EDA2A9"></path>
                            <polyline id="Fill-129" fill="#23A79A" points="43.977504 43.61811 43.5545583 43.1936747 66.0313606 20.9643958 66.4543063 21.3888311 43.977504 43.61811"></polyline>
                            <path d="M10.2259536,22.7824638 L2.72887996,23.6241509 L1.5243257,12.9665726 C1.3014381,10.9976475 2.72287221,9.22148419 4.69882182,8.9999876 L5.03946136,8.96167467 C7.01541097,8.73957943 8.79791097,10.1559604 9.02079857,12.1248856 L10.2259536,22.7824638" id="Fill-130" fill="#EFF3F5"></path>
                            <path d="M5.44979081,9.2382461 C5.32482957,9.2382461 5.19926756,9.24542977 5.07370554,9.25919848 L4.73246523,9.29751141 C3.856535,9.39568828 3.07132182,9.82730732 2.52161252,10.5145454 C1.97250399,11.2005862 1.72378306,12.0602325 1.82291097,12.9330488 L2.99382182,23.2937019 L9.89372492,22.5190624 L8.7222133,12.1584094 C8.62368616,11.285593 8.18992647,10.5031713 7.50023655,9.95541617 C6.91027531,9.48668147 6.1935505,9.2382461 5.44979081,9.2382461 Z M2.4639381,23.9551985 L1.22574043,12.9994978 C1.10919004,11.968042 1.40236833,10.9527495 2.05240709,10.1409944 C2.70184508,9.3292393 3.63004275,8.81859984 4.66517841,8.70246379 L5.00641872,8.66415086 C6.04275593,8.551008 7.06046911,8.84015086 7.87512027,9.48787875 C8.68977143,10.135008 9.20283345,11.059906 9.31938384,12.0919604 L10.5575815,23.0464638 L2.4639381,23.9551985 L2.4639381,23.9551985 Z" id="Fill-131" fill="#23A79A"></path>
                            <path d="M15.315721,17.2342733 C15.1649265,17.2342733 15.035159,17.1211305 15.0177366,16.9678788 C14.9991125,16.8038515 15.1174652,16.6559876 15.2826784,16.6368311 L46.4058373,13.1431713 C46.5728528,13.1228175 46.719442,13.2425454 46.738066,13.4071713 C46.75669,13.5711985 46.6383373,13.7190624 46.4731241,13.7382189 L15.3499652,17.2324774 L15.315721,17.2342733" id="Fill-132" fill="#23A79A"></path>
                            <path d="M16.5082598,27.7769128 C16.3574652,27.7769128 16.227097,27.6637699 16.2096745,27.5111168 C16.1910505,27.346491 16.310004,27.1986271 16.4746164,27.1800692 L47.5977753,23.6864094 C47.7611862,23.6666543 47.91138,23.7857835 47.930004,23.9504094 C47.948628,24.1150352 47.8302753,24.2628992 47.6650621,24.281457 L16.5419032,27.7751168 L16.5082598,27.7769128" id="Fill-133" fill="#23A79A"></path>
                            <path d="M15.9050815,22.4448311 C15.7542869,22.4448311 15.6239187,22.3316883 15.6064962,22.1784366 C15.588473,22.0144094 15.7068257,21.8665454 15.8714381,21.8479876 L29.3209924,20.3376202 C29.485004,20.3208583 29.634597,20.437593 29.653221,20.6022189 C29.6718451,20.7662461 29.5534924,20.91411 29.3882792,20.9326679 L15.9393257,22.4430352 L15.9050815,22.4448311" id="Fill-134" fill="#23A79A"></path>
                            <path d="M32.8757792,20.5387631 C32.7249846,20.5387631 32.5946164,20.4262189 32.5771939,20.2729672 C32.5591707,20.1083413 32.6775234,19.9604774 32.8421358,19.9419196 L46.994597,18.3537291 C47.160411,18.3375658 47.3082017,18.4531032 47.3274265,18.6177291 C47.3454497,18.7817563 47.227097,18.9302189 47.0624846,18.9487767 L32.9100234,20.5369672 L32.8757792,20.5387631" id="Fill-135" fill="#23A79A"></path>
                            <path d="M17.1841319,33.755525 C17.0333373,33.755525 16.9029691,33.6429808 16.8855466,33.4897291 C16.8669226,33.3251032 16.9858761,33.1772393 17.1504885,33.1586815 L30.6000428,31.6489128 C30.7634536,31.6321509 30.9136474,31.7488856 30.9322714,31.9129128 C30.9508955,32.07694 30.8325428,32.2254026 30.6673296,32.2439604 L17.2177753,33.7537291 L17.1841319,33.755525" id="Fill-136" fill="#23A79A"></path>
                        </g>
                        <path d="M62.8627132,15.0054966 L62.8188566,15.0025034 L51.2317054,13.294585 C51.0676938,13.2706395 50.9541473,13.118585 50.9781783,12.9551565 C51.0028101,12.7917279 51.155407,12.6797823 51.3194186,12.7031293 L62.9065698,14.410449 C63.0705814,14.4343946 63.1841279,14.586449 63.1594961,14.7504762 C63.1378682,14.8989388 63.0093023,15.0054966 62.8627132,15.0054966" id="Fill-91" fill="#FFFFFE"></path>
                    </g>
                </g>
            </g>
        </g>
    </g>
</svg>