<?xml version="1.0" encoding="UTF-8"?>
<svg width="94px" height="81px" viewBox="0 0 94 81" version="1.1" xmlns="http://www.w3.org/2000/svg" xmlns:xlink="http://www.w3.org/1999/xlink">
    <!-- Generator: Sketch 54.1 (76490) - https://sketchapp.com -->
    <title>Access to Property</title>
    <desc>Created with Sketch.</desc>
    <defs>
        <path d="M18,36 C8.0588745,36 0,27.9411255 0,18 C0,8.0588745 8.0588745,0 18,0 C27.9411255,0 36,8.0588745 36,18 C36,27.9411255 27.9411255,36 18,36 Z M18,32.4 C25.9529004,32.4 32.4,25.9529004 32.4,18 C32.4,10.0470996 25.9529004,3.6 18,3.6 C10.0470996,3.6 3.6,10.0470996 3.6,18 C3.6,25.9529004 10.0470996,32.4 18,32.4 Z" id="path-1"></path>
    </defs>
    <g id="Cornerstone-Club'" stroke="none" stroke-width="1" fill="none" fill-rule="evenodd">
        <g id="Cornerstone_sm" transform="translate(-124.000000, -1126.000000)">
            <g id="Access-to-Property" transform="translate(124.000000, 1126.000000)">
                <g id="Group-5-Copy-2" transform="translate(58.000000, 0.000000)">
                    <path d="M24,15.4739619 C24,15.6662878 23.9277404,15.8297916 23.7832213,15.9644736 L17.1250813,22.1694056 C16.9805622,22.3040876 16.805116,22.3714286 16.5987427,22.3714286 C16.3923694,22.3714286 16.2169232,22.3040876 16.0724041,22.1694056 L12.2167787,18.5762259 C12.0722596,18.441544 12,18.2780401 12,18.0857143 C12,17.8933885 12.0722596,17.7298846 12.2167787,17.5952026 L13.2698894,16.6137753 C13.4144086,16.4790933 13.5898548,16.4117523 13.7962281,16.4117523 C14.0026013,16.4117523 14.1780475,16.4790933 14.3225667,16.6137753 L16.5987427,18.7422888 L21.6774333,14.0020229 C21.8219525,13.867341 21.9973987,13.8 22.2037719,13.8 C22.4101452,13.8 22.5855914,13.867341 22.7301106,14.0020229 L23.7832213,14.9834503 C23.9277404,15.1181322 24,15.2816361 24,15.4739619 L24,15.4739619 Z" id="Shape" fill="#10CFBD"></path>
                    <mask id="mask-2" fill="white">
                        <use xlink:href="#path-1"></use>
                    </mask>
                    <use id="Mask" fill="#10CFBD" xlink:href="#path-1"></use>
                </g>
                <g id="noun_Building-Inspection_2131090_000000" transform="translate(0.000000, 13.000000)" fill="#10CFBD" fill-rule="nonzero">
                    <path d="M66.969697,60.7824109 L62.0242424,60.7824109 L62.0242424,23.0447309 L66.3515152,23.0447309 C66.3515152,23.0447309 66.3515152,23.0447309 66.3515152,23.0447309 C66.969697,23.0447309 67.3818182,22.6322972 67.3818182,22.0136467 C67.3818182,21.601213 67.1757576,21.1887794 66.7636364,21.085671 L34.5151515,0.154662623 C34.2060606,-0.0515542077 33.6909091,-0.0515542077 33.3818182,0.154662623 L1.03030303,21.1887794 C0.618181818,21.3949962 0.515151515,21.9105383 0.618181818,22.3229719 C0.721212121,22.7354056 1.13333333,23.0447309 1.64848485,23.0447309 L5.97575758,23.0447309 L5.97575758,60.7824109 L1.03030303,60.7824109 C0.412121212,60.7824109 0,61.1948446 0,61.8134951 L0,66.9689158 C0,67.5875663 0.412121212,68 1.03030303,68 L66.969697,68 C67.5878788,68 68,67.5875663 68,66.9689158 L68,61.8134951 C68,61.297953 67.5878788,60.7824109 66.969697,60.7824109 Z M33.8969697,2.21683093 L62.8484848,20.9825625 C63.1575758,20.9825625 58.7272727,20.9825625 5.04848485,20.9825625 L33.8969697,2.21683093 Z M8.03636364,23.0447309 L59.8606061,23.0447309 L59.8606061,60.7824109 L54.6060606,60.7824109 L54.6060606,36.1394996 C54.6060606,35.5208491 54.1939394,35.1084155 53.5757576,35.1084155 L46.569697,35.1084155 C45.9515152,33.8711145 45.1272727,32.7369219 44.0969697,31.7058378 C39.0484848,26.6535254 30.7030303,26.550417 25.5515152,31.7058378 C25.3454545,31.9120546 25.1393939,32.1182714 25.0363636,32.3244882 L12.3636364,32.3244882 C11.7454545,32.3244882 11.3333333,32.7369219 11.3333333,33.3555724 L11.3333333,47.0689917 C11.3333333,47.6876422 11.7454545,48.1000758 12.3636364,48.1000758 L23.5939394,48.1000758 L20.6060606,50.9871114 L20.6060606,50.9871114 C20.1939394,50.5746778 19.5757576,50.5746778 19.1636364,50.9871114 L11.4363636,58.7202426 C10.9212121,59.2357847 10.5090909,59.9575436 10.3030303,60.8855193 L8.03636364,60.8855193 L8.03636364,23.0447309 Z M20.5030303,60.7824109 L24.7272727,56.5549659 C25.1393939,56.1425322 25.1393939,55.5238817 24.7272727,55.1114481 L24.7272727,55.1114481 L27.7151515,52.121304 C27.7151515,52.121304 27.8181818,52.2244124 27.8181818,52.2244124 C30.0848485,53.5648218 32.6606061,54.2865807 35.4424242,54.1834723 L35.4424242,60.7824109 L20.5030303,60.7824109 Z M12.8787879,60.1637604 L19.8848485,53.1523882 L22.5636364,55.833207 C22.4606061,55.9363154 15.4545455,62.9476876 15.5575758,62.8445792 C14.8363636,63.5663381 13.6,63.5663381 12.8787879,62.8445792 C12.1575758,62.1228203 12.1575758,60.8855193 12.8787879,60.1637604 Z M22.6666667,46.0379075 L13.3939394,46.0379075 L13.3939394,34.3866566 L23.4909091,34.3866566 C21.430303,37.8923427 21.1212121,42.2228961 22.6666667,45.9347991 C22.6666667,45.9347991 22.6666667,45.9347991 22.6666667,46.0379075 Z M42.6545455,33.1493556 C46.8787879,37.3768006 47.0848485,44.3881729 42.6545455,48.8218347 C38.6363636,52.8430629 32.5575758,53.0492798 28.230303,49.9560273 C22.6666667,45.8316907 22.2545455,37.8923427 26.9939394,33.1493556 C31.3212121,28.8188021 38.3272727,28.8188021 42.6545455,33.1493556 Z M24.9333333,49.646702 C25.2424242,50.0591357 25.6545455,50.4715694 26.0666667,50.7808946 L23.2848485,53.5648218 L22.1515152,52.4306293 L24.9333333,49.646702 Z M37.6060606,53.7710387 C39.8727273,53.2554966 42.2424242,52.121304 44.0969697,50.2653525 C47.4969697,46.8627748 48.8363636,41.8104625 47.3939394,37.1705838 L52.5454545,37.1705838 L52.5454545,60.7824109 L37.6060606,60.7824109 L37.6060606,53.7710387 Z M65.9393939,65.9378317 L2.06060606,65.9378317 L2.06060606,62.8445792 C2.57575758,62.8445792 10.9212121,62.8445792 10.6121212,62.8445792 C10.7151515,63.2570129 11.1272727,63.8756634 11.5393939,64.288097 C13.0848485,65.8347233 15.5575758,65.8347233 17.1030303,64.288097 L18.5454545,62.8445792 C25.4484848,62.8445792 59.2424242,62.8445792 66.0424242,62.8445792 L66.0424242,65.9378317 L65.9393939,65.9378317 Z" id="Shape"></path>
                    <path d="M34,16.8 C36.4,16.8 38.4,14.8 38.4,12.4 C38.4,10 36.4,8 34,8 C31.6,8 29.6,10 29.6,12.4 C29.6,14.8 31.6,16.8 34,16.8 Z M34,9.9 C35.3,9.9 36.4,11 36.4,12.3 C36.4,13.6 35.3,14.7 34,14.7 C32.7,14.7 31.6,13.6 31.6,12.3 C31.6,11 32.7,9.9 34,9.9 Z" id="Shape"></path>
                    <path d="M48.8,48.8 C47.9,48.8 47.2,49.5 47.2,50.4 C47.2,51.3 47.9,52 48.8,52 C49.7,52 50.4,51.3 50.4,50.4 C50.4,49.5 49.7,48.8 48.8,48.8 Z M48.8,50.8 C48.6,50.8 48.4,50.6 48.4,50.4 C48.4,50.2 48.6,50 48.8,50 C49,50 49.2,50.2 49.2,50.4 C49.2,50.6 49,50.8 48.8,50.8 Z" id="Shape"></path>
                </g>
                <circle id="Oval" stroke="#10CFBD" stroke-width="2" cx="73" cy="57" r="9"></circle>
                <circle id="Oval-Copy-2" stroke="#10CFBD" stroke-width="2" cx="80.5" cy="73.5" r="4.5"></circle>
            </g>
        </g>
    </g>
</svg>