<?xml version="1.0" encoding="UTF-8"?>
<svg width="97px" height="78px" viewBox="0 0 97 78" version="1.1" xmlns="http://www.w3.org/2000/svg" xmlns:xlink="http://www.w3.org/1999/xlink">
    <!-- Generator: Sketch 54.1 (76490) - https://sketchapp.com -->
    <title>Access to Listing</title>
    <desc>Created with Sketch.</desc>
    <defs>
        <path d="M18,36 C8.0588745,36 0,27.9411255 0,18 C0,8.0588745 8.0588745,0 18,0 C27.9411255,0 36,8.0588745 36,18 C36,27.9411255 27.9411255,36 18,36 Z M18,32.4 C25.9529004,32.4 32.4,25.9529004 32.4,18 C32.4,10.0470996 25.9529004,3.6 18,3.6 C10.0470996,3.6 3.6,10.0470996 3.6,18 C3.6,25.9529004 10.0470996,32.4 18,32.4 Z" id="path-1"></path>
    </defs>
    <g id="Cornerstone-Club'" stroke="none" stroke-width="1" fill="none" fill-rule="evenodd">
        <g id="Cornerstone_sm" transform="translate(-121.000000, -895.000000)">
            <g id="Access-to-Listing" transform="translate(121.000000, 895.000000)">
                <g id="noun_webinar_2019039_000000" transform="translate(0.000000, 10.000000)" fill="#10CFBD" fill-rule="nonzero">
                    <path d="M24.609375,35.7586207 C21.2109375,35.7586207 18.515625,31.7724138 18.515625,28.4896552 C18.515625,25.2068966 21.2109375,22.3931034 24.609375,22.3931034 C27.890625,22.3931034 30.703125,25.0896552 30.703125,28.4896552 C30.703125,31.7724138 28.125,35.7586207 24.609375,35.7586207 Z M24.609375,24.6206897 C22.5,24.6206897 20.859375,26.262069 20.859375,28.3724138 C20.859375,30.4827586 22.6171875,33.2965517 24.609375,33.2965517 C26.6015625,33.2965517 28.359375,30.6 28.359375,28.3724138 C28.359375,26.3793103 26.71875,24.6206897 24.609375,24.6206897 Z M73.828125,55.6896552 C74.53125,55.6896552 75,56.1586207 75,56.7448276 L75,61.0827586 C75,61.4344828 74.8828125,61.6689655 74.6484375,61.9034483 C74.1796875,62.4896552 67.8515625,67.6482759 67.265625,67.6482759 L7.734375,67.6482759 C7.5,67.6482759 7.265625,67.5310345 7.03125,67.4137931 L0.46875,62.0206897 C0.1171875,61.7862069 0,61.4344828 0,61.0827586 L0,56.7448276 C0,56.0413793 0.46875,55.5724138 1.171875,55.5724138 L5.859375,55.5724138 L5.859375,21.8068966 C5.859375,17 9.7265625,13.1310345 14.53125,13.1310345 L28.4765625,13.1310345 L28.4765625,1.52413793 C28.4765625,0.820689655 28.9453125,0.351724138 29.6484375,0.351724138 L58.9453125,0.351724138 C59.6484375,0.351724138 60.1171875,0.820689655 60.1171875,1.52413793 L60.1171875,13.2482759 L60.46875,13.2482759 C65.2734375,13.2482759 69.140625,17.1172414 69.140625,21.9241379 L69.140625,55.6896552 L73.828125,55.6896552 Z M30.703125,2.69655172 L30.703125,14.3034483 L30.703125,17.937931 L46.640625,17.937931 C47.34375,17.937931 47.8125,18.4068966 47.8125,19.1103448 L47.8125,22.5103448 L52.5,18.2896552 C52.734375,18.0551724 53.0859375,17.937931 53.3203125,17.937931 L57.65625,17.937931 L57.65625,14.3034483 L57.65625,2.69655172 L30.703125,2.69655172 Z M8.203125,21.9241379 L8.203125,55.5724138 L27.421875,55.5724138 C27.7734375,55.5724138 28.0078125,55.6896552 28.2421875,55.9241379 L31.640625,59.3241379 L43.359375,59.3241379 C46.875,55.8068966 46.40625,56.2758621 46.7578125,55.9241379 C46.9921875,55.6896552 47.2265625,55.5724138 47.578125,55.5724138 L66.796875,55.5724138 L66.796875,21.8068966 C66.796875,18.2896552 63.984375,15.4758621 60.46875,15.4758621 L60.1171875,15.4758621 L60.1171875,19.1103448 C60.1171875,19.8137931 59.6484375,20.2827586 58.9453125,20.2827586 L53.90625,20.2827586 L47.578125,26.0275862 C47.2265625,26.3793103 46.7578125,26.4965517 46.2890625,26.262069 C45.8203125,26.1448276 45.5859375,25.6758621 45.5859375,25.2068966 L45.5859375,20.4 L29.53125,20.4 C28.828125,20.4 28.359375,19.9310345 28.359375,19.2275862 L28.359375,15.5931034 L14.53125,15.5931034 C11.015625,15.5931034 8.203125,18.4068966 8.203125,21.9241379 Z M72.65625,60.6137931 L72.65625,57.9172414 L48.046875,57.9172414 C47.9296875,58.0344828 47.6953125,58.2689655 44.6484375,61.3172414 C44.4140625,61.5517241 44.1796875,61.6689655 43.828125,61.6689655 L31.171875,61.6689655 C30.8203125,61.6689655 30.5859375,61.5517241 30.3515625,61.3172414 L26.953125,57.9172414 L2.34375,57.9172414 L2.34375,60.4965517 L8.203125,65.3034483 L66.796875,65.3034483 C69.0234375,63.0758621 70.546875,62.6068966 72.65625,60.6137931 Z M36.9140625,49.7103448 C36.9140625,50.2965517 36.328125,50.8827586 35.859375,50.8827586 L13.7109375,50.8827586 C13.0078125,50.8827586 12.5390625,50.4137931 12.5390625,49.7103448 L12.5390625,43.7310345 C12.5390625,39.2758621 16.7578125,37.7517241 21.2109375,37.0482759 C21.796875,36.9310345 22.3828125,37.4 22.5,37.9862069 C22.8515625,39.7448276 23.5546875,41.3862069 24.7265625,42.7931034 C25.8984375,41.3862069 26.6015625,39.7448276 26.953125,37.9862069 C27.0703125,37.4 27.65625,36.9310345 28.2421875,37.0482759 C32.6953125,37.7517241 36.9140625,39.2758621 36.9140625,43.7310345 L36.9140625,49.7103448 Z M34.5703125,48.537931 L34.453125,48.537931 L34.453125,43.7310345 C34.453125,40.8 31.640625,40.0965517 28.828125,39.5103448 C28.2421875,41.6206897 27.0703125,43.6137931 25.4296875,45.2551724 C24.9609375,45.7241379 24.2578125,45.7241379 23.7890625,45.2551724 C22.1484375,43.6137931 20.9765625,41.737931 20.390625,39.5103448 C17.578125,40.0965517 14.765625,40.9172414 14.765625,43.7310345 L14.765625,48.537931 L34.5703125,48.537931 Z M43.9453125,49.7103448 C43.2421875,49.7103448 42.7734375,49.1241379 42.7734375,48.537931 C42.7734375,47.8344828 43.2421875,47.3655172 43.9453125,47.3655172 L61.40625,47.3655172 C62.109375,47.3655172 62.578125,47.8344828 62.578125,48.537931 C62.578125,49.2413793 62.109375,49.7103448 61.40625,49.7103448 L43.9453125,49.7103448 Z M43.9453125,43.3793103 C43.2421875,43.3793103 42.7734375,42.7931034 42.7734375,42.2068966 C42.7734375,41.5034483 43.2421875,41.0344828 43.9453125,41.0344828 L61.40625,41.0344828 C62.109375,41.0344828 62.578125,41.5034483 62.578125,42.2068966 C62.578125,42.9103448 62.109375,43.3793103 61.40625,43.3793103 L43.9453125,43.3793103 Z M43.9453125,37.0482759 C43.2421875,37.0482759 42.7734375,36.462069 42.7734375,35.8758621 C42.7734375,35.1724138 43.2421875,34.7034483 43.9453125,34.7034483 L61.40625,34.7034483 C62.109375,34.7034483 62.578125,35.1724138 62.578125,35.8758621 C62.578125,36.5793103 62.109375,37.0482759 61.40625,37.0482759 L43.9453125,37.0482759 Z M34.8046875,8.08965517 C34.21875,8.08965517 33.6328125,7.50344828 33.6328125,6.91724138 C33.6328125,6.2137931 34.1015625,5.74482759 34.8046875,5.74482759 L53.5546875,5.74482759 C54.2578125,5.74482759 54.7265625,6.2137931 54.7265625,6.91724138 C54.7265625,7.62068966 54.2578125,8.08965517 53.5546875,8.08965517 L34.8046875,8.08965517 Z M34.8046875,13.9517241 C34.21875,13.9517241 33.6328125,13.3655172 33.6328125,12.7793103 C33.6328125,12.0758621 34.1015625,11.6068966 34.8046875,11.6068966 L37.5,11.6068966 C38.203125,11.6068966 38.671875,12.0758621 38.671875,12.7793103 C38.671875,13.4827586 38.203125,13.9517241 37.5,13.9517241 L34.8046875,13.9517241 Z M45.5859375,11.6068966 C46.171875,11.6068966 46.7578125,12.0758621 46.7578125,12.7793103 C46.7578125,13.4827586 46.2890625,13.9517241 45.5859375,13.9517241 L42.890625,13.9517241 C42.1875,13.9517241 41.71875,13.4827586 41.71875,12.7793103 C41.71875,12.0758621 42.1875,11.6068966 42.890625,11.6068966 L45.5859375,11.6068966 Z M53.5546875,11.6068966 C54.2578125,11.6068966 54.7265625,12.0758621 54.7265625,12.7793103 C54.7265625,13.4827586 54.2578125,13.9517241 53.5546875,13.9517241 L50.859375,13.9517241 C50.15625,13.9517241 49.6875,13.4827586 49.6875,12.7793103 C49.6875,12.0758621 50.15625,11.6068966 50.859375,11.6068966 L53.5546875,11.6068966 Z" id="Combined-Shape"></path>
                </g>
                <g id="Group-5-Copy" transform="translate(61.000000, 0.000000)">
                    <path d="M24,15.4739619 C24,15.6662878 23.9277404,15.8297916 23.7832213,15.9644736 L17.1250813,22.1694056 C16.9805622,22.3040876 16.805116,22.3714286 16.5987427,22.3714286 C16.3923694,22.3714286 16.2169232,22.3040876 16.0724041,22.1694056 L12.2167787,18.5762259 C12.0722596,18.441544 12,18.2780401 12,18.0857143 C12,17.8933885 12.0722596,17.7298846 12.2167787,17.5952026 L13.2698894,16.6137753 C13.4144086,16.4790933 13.5898548,16.4117523 13.7962281,16.4117523 C14.0026013,16.4117523 14.1780475,16.4790933 14.3225667,16.6137753 L16.5987427,18.7422888 L21.6774333,14.0020229 C21.8219525,13.867341 21.9973987,13.8 22.2037719,13.8 C22.4101452,13.8 22.5855914,13.867341 22.7301106,14.0020229 L23.7832213,14.9834503 C23.9277404,15.1181322 24,15.2816361 24,15.4739619 L24,15.4739619 Z" id="Shape" fill="#10CFBD"></path>
                    <mask id="mask-2" fill="white">
                        <use xlink:href="#path-1"></use>
                    </mask>
                    <use id="Mask" fill="#10CFBD" xlink:href="#path-1"></use>
                </g>
            </g>
        </g>
    </g>
</svg>