<?xml version="1.0" encoding="UTF-8"?>
<svg width="101px" height="84px" viewBox="0 0 101 84" version="1.1" xmlns="http://www.w3.org/2000/svg" xmlns:xlink="http://www.w3.org/1999/xlink">
    <!-- Generator: Sketch 54.1 (76490) - https://sketchapp.com -->
    <title>Access to CEO</title>
    <desc>Created with Sketch.</desc>
    <defs>
        <path d="M18,36 C8.0588745,36 0,27.9411255 0,18 C0,8.0588745 8.0588745,0 18,0 C27.9411255,0 36,8.0588745 36,18 C36,27.9411255 27.9411255,36 18,36 Z M18,32.4 C25.9529004,32.4 32.4,25.9529004 32.4,18 C32.4,10.0470996 25.9529004,3.6 18,3.6 C10.0470996,3.6 3.6,10.0470996 3.6,18 C3.6,25.9529004 10.0470996,32.4 18,32.4 Z" id="path-1"></path>
    </defs>
    <g id="Cornerstone-Club'" stroke="none" stroke-width="1" fill="none" fill-rule="evenodd">
        <g id="Cornerstone_sm" transform="translate(-108.000000, -688.000000)">
            <g id="Access-to-CEO" transform="translate(108.000000, 688.000000)">
                <g id="noun_Mail_1685377_000000" transform="translate(0.000000, 6.000000)" fill="#10CFBD" fill-rule="nonzero">
                    <path d="M29.7413793,6.5 L47.8448276,6.5 L47.8448276,9.1 L29.7413793,9.1 L29.7413793,6.5 Z M36.2068966,70.2 L41.3793103,70.2 L41.3793103,72.8 L36.2068966,72.8 L36.2068966,70.2 Z M23.2758621,16.9 L28.4482759,16.9 L28.4482759,19.5 L23.2758621,19.5 L23.2758621,16.9 Z M31.0344828,16.9 L36.2068966,16.9 L36.2068966,19.5 L31.0344828,19.5 L31.0344828,16.9 Z M41.3793103,22.1 L43.9655172,22.1 L43.9655172,24.7 L41.3793103,24.7 L41.3793103,22.1 Z M46.5517241,19.5 L49.137931,19.5 L49.137931,24.7 L46.5517241,24.7 L46.5517241,19.5 Z M51.7241379,16.9 L54.3103448,16.9 L54.3103448,24.7 L51.7241379,24.7 L51.7241379,16.9 Z M1.29310345,33.8 C0.578942134,33.8 -8.52651283e-14,33.2179702 -8.52651283e-14,32.5 C-8.52651283e-14,31.7820298 0.578942134,31.2 1.29310345,31.2 L18.1034483,31.2 L18.1034483,6.5 C18.1077234,2.9119309 20.9999313,0.00429795123 24.5689655,0 L53.0172414,0 C56.5862756,0.00429795123 59.4784835,2.9119309 59.4827586,6.5 L59.4827586,28.6 L73.7068966,28.6 C73.8642845,28.6018689 74.0199521,28.6331685 74.1659483,28.6923 C74.2105427,28.7113288 74.2537525,28.7334833 74.2952586,28.7586 C74.3884576,28.8054183 74.4753606,28.8639539 74.5538793,28.9328 C74.5935962,28.9677425 74.6311653,29.0050779 74.6663793,29.0446 C74.7341217,29.1235563 74.7914883,29.2109389 74.837069,29.3046 C74.8640916,29.349176 74.887861,29.3956648 74.9081897,29.4437 C74.918078,29.4594638 74.926725,29.4759808 74.9340517,29.4931 C74.9780434,29.6241892 75.0003226,29.7616517 75,29.9 L75,58.5 C75,59.2179702 74.4210579,59.8 73.7068966,59.8 L59.4827586,59.8 L59.4827586,71.5 C59.4784835,75.0880691 56.5862756,77.995702 53.0172414,78 L24.5689655,78 C20.9999313,77.995702 18.1077234,75.0880691 18.1034483,71.5 L18.1034483,39 L7.75862069,39 C7.04445938,39 6.46551724,38.4179702 6.46551724,37.7 C6.46551724,36.9820298 7.04445938,36.4 7.75862069,36.4 L18.1034483,36.4 L18.1034483,33.8 L1.29310345,33.8 Z M56.8965517,71.5 L56.8965517,67.6 L20.6896552,67.6 L20.6896552,71.5 C20.6896552,73.6539105 22.4264816,75.4 24.5689655,75.4 L53.0172414,75.4 C55.1597253,75.4 56.8965517,73.6539105 56.8965517,71.5 Z M33.6206897,57.2 L72.4137931,57.2 L72.4137931,32.5 L53.7931034,46.54 C53.3333333,46.8866667 52.7011494,46.8866667 52.2413793,46.54 L33.6206897,32.5 L33.6206897,57.2 Z M53.0172414,43.875 L69.8275862,31.2 L36.2068966,31.2 L53.0172414,43.875 Z M20.6896552,6.5 L20.6896552,11.7 L56.8965517,11.7 L56.8965517,6.5 C56.8965517,4.34608948 55.1597253,2.6 53.0172414,2.6 L24.5689655,2.6 C22.4264816,2.6 20.6896552,4.34608948 20.6896552,6.5 Z M20.6896552,14.3 L20.6896552,31.2 L28.4482759,31.2 C29.1624372,31.2 29.7413793,31.7820298 29.7413793,32.5 C29.7413793,33.2179702 29.1624372,33.8 28.4482759,33.8 L20.6896552,33.8 L20.6896552,36.4 L28.4482759,36.4 C29.1624372,36.4 29.7413793,36.9820298 29.7413793,37.7 C29.7413793,38.4179702 29.1624372,39 28.4482759,39 L20.6896552,39 L20.6896552,65 L56.8965517,65 L56.8965517,59.8 L32.3275862,59.8 C31.6134249,59.8 31.0344828,59.2179702 31.0344828,58.5 L31.0344828,57.2 L27.1551724,57.2 C26.4410111,57.2 25.862069,56.6179702 25.862069,55.9 C25.862069,55.1820298 26.4410111,54.6 27.1551724,54.6 L31.0344828,54.6 L31.0344828,52 L24.5689655,52 C23.8548042,52 23.2758621,51.4179702 23.2758621,50.7 C23.2758621,49.9820298 23.8548042,49.4 24.5689655,49.4 L31.0344828,49.4 L31.0344828,29.9 C31.0353512,29.7620699 31.0580489,29.6251576 31.1017241,29.4944 C31.1068966,29.4762 31.1198276,29.4619 31.1262931,29.4437 C31.1478554,29.3964447 31.1720311,29.3504394 31.1987069,29.3059 C31.2442876,29.2122389 31.3016542,29.1248563 31.3693966,29.0459 C31.4046105,29.0063779 31.4421797,28.9690425 31.4818966,28.9341 C31.5604152,28.8652539 31.6473183,28.8067183 31.7405172,28.7599 C31.7820233,28.7347833 31.8252331,28.7126288 31.8698276,28.6936 C32.0153348,28.6341811 32.1705522,28.6024431 32.3275862,28.6 L56.8965517,28.6 L56.8965517,14.3 L20.6896552,14.3 Z" id="Combined-Shape"></path>
                </g>
                <g id="Group-5-Copy" transform="translate(65.000000, 0.000000)">
                    <path d="M24,15.4739619 C24,15.6662878 23.9277404,15.8297916 23.7832213,15.9644736 L17.1250813,22.1694056 C16.9805622,22.3040876 16.805116,22.3714286 16.5987427,22.3714286 C16.3923694,22.3714286 16.2169232,22.3040876 16.0724041,22.1694056 L12.2167787,18.5762259 C12.0722596,18.441544 12,18.2780401 12,18.0857143 C12,17.8933885 12.0722596,17.7298846 12.2167787,17.5952026 L13.2698894,16.6137753 C13.4144086,16.4790933 13.5898548,16.4117523 13.7962281,16.4117523 C14.0026013,16.4117523 14.1780475,16.4790933 14.3225667,16.6137753 L16.5987427,18.7422888 L21.6774333,14.0020229 C21.8219525,13.867341 21.9973987,13.8 22.2037719,13.8 C22.4101452,13.8 22.5855914,13.867341 22.7301106,14.0020229 L23.7832213,14.9834503 C23.9277404,15.1181322 24,15.2816361 24,15.4739619 L24,15.4739619 Z" id="Shape" fill="#10CFBD"></path>
                    <mask id="mask-2" fill="white">
                        <use xlink:href="#path-1"></use>
                    </mask>
                    <use id="Mask" fill="#10CFBD" xlink:href="#path-1"></use>
                </g>
            </g>
        </g>
    </g>
</svg>