<?xml version="1.0" encoding="UTF-8"?>
<svg width="92px" height="86px" viewBox="0 0 92 86" version="1.1" xmlns="http://www.w3.org/2000/svg" xmlns:xlink="http://www.w3.org/1999/xlink">
    <!-- Generator: Sketch 54.1 (76490) - https://sketchapp.com -->
    <title>Dedicated Account Manager</title>
    <desc>Created with Sketch.</desc>
    <defs>
        <path d="M18,36 C8.0588745,36 0,27.9411255 0,18 C0,8.0588745 8.0588745,0 18,0 C27.9411255,0 36,8.0588745 36,18 C36,27.9411255 27.9411255,36 18,36 Z M18,32.4 C25.9529004,32.4 32.4,25.9529004 32.4,18 C32.4,10.0470996 25.9529004,3.6 18,3.6 C10.0470996,3.6 3.6,10.0470996 3.6,18 C3.6,25.9529004 10.0470996,32.4 18,32.4 Z" id="path-1"></path>
    </defs>
    <g id="Cornerstone-Club'" stroke="none" stroke-width="1" fill="none" fill-rule="evenodd">
        <g id="Cornerstone_sm" transform="translate(-117.000000, -482.000000)">
            <g id="Dedicated-Account-Manager" transform="translate(117.000000, 482.000000)">
                <g id="noun_manager_1719608_000000" transform="translate(0.000000, 16.000000)" fill="#10CFBD">
                    <path d="M28,18.2 L28,14 L33.6,14 L33.6,18.2 C33.6,19.04 34.16,19.6 35,19.6 L43.4,19.6 C44.24,19.6 44.8,19.04 44.8,18.2 L44.8,9.8 C44.8,8.96 44.24,8.4 43.4,8.4 L35,8.4 C34.16,8.4 33.6,8.96 33.6,9.8 L33.6,11.2 L28,11.2 L28,9.8 C28,8.96 27.44,8.4 26.6,8.4 L18.2,8.4 C17.36,8.4 16.8,8.96 16.8,9.8 L16.8,18.2 C16.8,19.04 17.36,19.6 18.2,19.6 L26.6,19.6 C27.44,19.6 28,19.04 28,18.2 Z M36.4,11.2 L42,11.2 L42,16.8 L36.4,16.8 L36.4,11.2 Z M25.2,16.8 L19.6,16.8 L19.6,11.2 L25.2,11.2 L25.2,16.8 Z" id="Shape"></path>
                    <path d="M39.2,25.2 L22.4,25.2 C21.56,25.2 21,25.76 21,26.6 C21,27.02 21.28,27.44 21.56,27.72 L29.96,33.32 C30.38,33.6 31.08,33.6 31.5,33.32 L39.9,27.72 C40.6,27.3 40.74,26.46 40.32,25.76 C40.04,25.48 39.62,25.2 39.2,25.2 Z M30.8,30.52 L27.02,28 L34.58,28 L30.8,30.52 Z" id="Shape"></path>
                    <rect id="Rectangle" x="39.2" y="53.2" width="5.6" height="2.8"></rect>
                    <path d="M53.2,51.8 L67.2,51.8 L67.2,56 L61.6,56 L61.6,61.6 L50.4,61.6 L50.4,0 L11.2,0 L11.2,40.6 L4.34,40.6 C3.08,40.6 1.82,41.16 0.98,42.14 C0.14,43.12 -0.14,44.38 0.14,45.5 L3.5,61.6 L0,61.6 L0,70 L84,70 L84,61.6 L75.6,61.6 L75.6,56 L70,56 L70,51.8 L84,51.8 L84,26.6 L53.2,26.6 L53.2,51.8 Z M14,2.8 L47.6,2.8 L47.6,36.4 L14,36.4 L14,2.8 Z M32.2,53.2 L29.4,53.2 L29.4,39.2 L32.2,39.2 L32.2,53.2 Z M26.6,48.72 L21.84,39.2 L26.6,39.2 L26.6,48.72 Z M35,39.2 L39.76,39.2 L35,48.72 L35,39.2 Z M14,39.2 L18.76,39.2 L26.74,55.16 C26.74,55.3 26.88,55.44 27.02,55.44 C27.02,55.44 27.02,55.44 27.02,55.44 C27.16,55.58 27.16,55.58 27.3,55.72 C27.3,55.72 27.44,55.72 27.44,55.72 C27.58,55.72 27.72,55.86 27.86,55.86 L33.46,55.86 C33.6,55.86 33.74,55.86 33.88,55.72 C33.88,55.72 34.02,55.72 34.02,55.72 C34.16,55.72 34.3,55.58 34.3,55.44 C34.3,55.44 34.3,55.44 34.3,55.44 C34.44,55.3 34.44,55.16 34.58,55.16 L42.84,39.2 L47.6,39.2 L47.6,61.6 L14,61.6 L14,39.2 Z M2.8,45.08 C2.66,44.66 2.8,44.24 3.08,43.96 C3.36,43.54 3.92,43.4 4.34,43.4 L11.2,43.4 L11.2,61.6 L6.3,61.6 L2.8,45.08 Z M81.2,64.4 L81.2,67.2 L2.8,67.2 L2.8,64.4 L81.2,64.4 Z M72.8,61.6 L64.4,61.6 L64.4,58.8 L72.8,58.8 L72.8,61.6 Z M56,29.4 L81.2,29.4 L81.2,49 L56,49 L56,29.4 Z" id="Shape"></path>
                    <path d="M68.6,35 C66.22,35 64.4,36.82 64.4,39.2 C64.4,41.58 66.22,43.4 68.6,43.4 C70.98,43.4 72.8,41.58 72.8,39.2 C72.8,36.82 70.98,35 68.6,35 Z M68.6,40.6 C67.76,40.6 67.2,40.04 67.2,39.2 C67.2,38.36 67.76,37.8 68.6,37.8 C69.44,37.8 70,38.36 70,39.2 C70,40.04 69.44,40.6 68.6,40.6 Z" id="Shape"></path>
                </g>
                <g id="Group-5" transform="translate(56.000000, 0.000000)">
                    <path d="M24,15.4739619 C24,15.6662878 23.9277404,15.8297916 23.7832213,15.9644736 L17.1250813,22.1694056 C16.9805622,22.3040876 16.805116,22.3714286 16.5987427,22.3714286 C16.3923694,22.3714286 16.2169232,22.3040876 16.0724041,22.1694056 L12.2167787,18.5762259 C12.0722596,18.441544 12,18.2780401 12,18.0857143 C12,17.8933885 12.0722596,17.7298846 12.2167787,17.5952026 L13.2698894,16.6137753 C13.4144086,16.4790933 13.5898548,16.4117523 13.7962281,16.4117523 C14.0026013,16.4117523 14.1780475,16.4790933 14.3225667,16.6137753 L16.5987427,18.7422888 L21.6774333,14.0020229 C21.8219525,13.867341 21.9973987,13.8 22.2037719,13.8 C22.4101452,13.8 22.5855914,13.867341 22.7301106,14.0020229 L23.7832213,14.9834503 C23.9277404,15.1181322 24,15.2816361 24,15.4739619 L24,15.4739619 Z" id="Shape" fill="#10CFBD"></path>
                    <mask id="mask-2" fill="white">
                        <use xlink:href="#path-1"></use>
                    </mask>
                    <use id="Mask" fill="#10CFBD" xlink:href="#path-1"></use>
                </g>
            </g>
        </g>
    </g>
</svg>