<?xml version="1.0" encoding="UTF-8"?>
<svg width="48px" height="71px" viewBox="0 0 48 71" version="1.1" xmlns="http://www.w3.org/2000/svg" xmlns:xlink="http://www.w3.org/1999/xlink">
    <!-- Generator: Sketch 53.2 (72643) - https://sketchapp.com -->
    <title>noun_Ribbon_1425859_000000</title>
    <desc>Created with Sketch.</desc>
    <g id="Cornerstone-Club'" stroke="none" stroke-width="1" fill="none" fill-rule="evenodd">
        <g id="Cornerstone_lg" transform="translate(-959.000000, -1282.000000)" fill="#6D5CAE">
            <g id="noun_Ribbon_1425859_000000" transform="translate(959.000000, 1282.000000)">
                <path d="M13.2352941,66.3744554 L21.4941176,48.7158416 C22.116977,48.8830342 22.7558031,48.9843534 23.4,49.0181188 L12.9952941,71 L9.57176471,61.7489109 L0.176470588,65.1161386 L9.88235294,44.6245545 C10.3943106,44.9583068 10.9381287,45.2408675 11.5058824,45.4681188 L3.79058824,61.959802 L10.7082353,59.450198 L13.2352941,66.3744554 Z M38.1176471,44.6245545 L47.8235294,65.1091089 L38.4282353,61.7418812 L35.0047059,71 L24.6,49.0181188 C25.2441969,48.9843534 25.883023,48.8830342 26.5058824,48.7158416 L34.7647059,66.3744554 L37.2917647,59.450198 L44.2094118,61.959802 L36.4870588,45.4751485 C37.0575253,45.246078 37.6037356,44.9611482 38.1176471,44.6245545 Z M28.8352941,47.4294059 C28.4308826,47.4342191 28.027542,47.386963 27.6352941,47.2888119 C25.3521133,48.4504285 22.6478867,48.4504285 20.3647059,47.2888119 C19.972458,47.386963 19.5691174,47.4342191 19.1647059,47.4294059 C17.2588235,47.4294059 14.6541176,46.4522772 13.4541176,45.0463366 C11.2941176,44.919802 8.43529412,42.8811881 7.60941176,40.8636634 L7.60941176,40.7863366 C5.62588235,40.0130693 3.88235294,37.4753465 3.45176471,35.6968317 C3.39052613,35.4430436 3.35272164,35.1842099 3.33882353,34.9235644 C1.87764706,33.7144554 1.08705882,31.2470297 0.967058824,29.7426733 C0.911635009,29.1729125 0.952193409,28.5979336 1.08705882,28.0414851 C0.461554166,26.9397937 0.158340809,25.6856754 0.211764706,24.4211881 C0.156194647,23.1573726 0.456952339,21.9032976 1.08,20.8008911 C0.945134585,20.2444426 0.904576185,19.6694637 0.96,19.099703 C1.08,17.5953465 1.87058824,15.1279208 3.33176471,13.9188119 C3.34566281,13.6581663 3.38346731,13.3993326 3.44470588,13.1455446 C3.87529412,11.3670297 5.61882353,8.82930693 7.60235294,8.0560396 L7.60235294,7.97871287 C8.43529412,5.96821782 11.3364706,3.92257426 13.4541176,3.7960396 C14.6541176,2.3549505 17.2588235,1.4129703 19.1647059,1.4129703 C19.5691174,1.40815716 19.972458,1.45541323 20.3647059,1.55356436 C22.6478867,0.391947763 25.3521133,0.391947763 27.6352941,1.55356436 C28.027542,1.45541323 28.4308826,1.40815716 28.8352941,1.4129703 C30.7411765,1.4129703 33.3458824,2.39009901 34.5458824,3.7960396 C36.6705882,3.92960396 39.5647059,5.96821782 40.3976471,7.97871287 L40.3976471,8.0560396 C42.3811765,8.82930693 44.1247059,11.3670297 44.5552941,13.1455446 C44.6165715,13.3993252 44.6543765,13.6581624 44.6682353,13.9188119 C46.1294118,15.1279208 46.92,17.5953465 47.04,19.099703 C47.0952912,19.6694655 47.0547344,20.2444224 46.92,20.8008911 C47.5430477,21.9032976 47.8438054,23.1573726 47.7882353,24.4211881 C47.8438054,25.6850036 47.5430477,26.9390786 46.92,28.0414851 C47.0547344,28.5979538 47.0952912,29.1729108 47.04,29.7426733 C46.92,31.2470297 46.1294118,33.7144554 44.6682353,34.9235644 C44.6543765,35.1842138 44.6165715,35.443051 44.5552941,35.6968317 C44.1247059,37.4753465 42.3811765,40.0130693 40.3976471,40.7863366 L40.3976471,40.8636634 C39.5647059,42.8741584 36.6635294,44.919802 34.5458824,45.0463366 C33.3458824,46.4874257 30.7411765,47.4294059 28.8352941,47.4294059 Z M20.76,44.7862376 C20.4211765,46.930297 27.5788235,46.930297 27.2611765,44.7862376 C27.6070588,46.9232673 34.4117647,44.7229703 33.4235294,42.789802 C34.4258824,44.7229703 40.2,40.5332673 38.6611765,39.0007921 C40.2,40.540297 44.4070588,34.7689109 42.4658824,33.7847525 C44.4141176,34.7689109 46.5882353,27.9852475 44.4705882,27.6478218 C46.5882353,27.9922772 46.5882353,20.8641584 44.4705882,21.2015842 C46.5882353,20.8641584 44.3858824,14.0594059 42.4376471,15.0576238 C44.3788235,14.0594059 40.1717647,8.30910891 38.6329412,9.84158416 C40.1788235,8.30910891 34.3835294,4.11940594 33.3952941,6.05257426 C34.3835294,4.11237624 27.5717647,1.94722772 27.2329412,4.05613861 C27.5788235,1.94722772 20.4211765,1.94722772 20.76,4.05613861 C20.4141176,1.91910891 13.6094118,4.11940594 14.5976471,6.05257426 C13.5952941,4.11940594 7.82117647,8.30910891 9.36,9.84158416 C7.82117647,8.31613861 3.61411765,14.0594059 5.53411765,15.0716832 C3.58588235,14.0875248 1.41176471,20.8711881 3.52941176,21.2086139 C1.41176471,20.8641584 1.41176471,27.9922772 3.52941176,27.6548515 C1.41176471,27.9922772 3.61411765,34.7689109 5.55529412,33.7847525 C3.61411765,34.7829703 7.82117647,40.5332673 9.36,39.0007921 C7.81411765,40.5332673 13.6094118,44.7229703 14.5976471,42.789802 C13.6094118,44.73 20.4211765,46.8951485 20.76,44.7862376 Z M39.8823529,24.4282178 C39.8823529,28.6231024 38.2090384,32.6461754 35.2305195,35.6124068 C32.2520005,38.5786381 28.2122619,40.2450495 24,40.2450495 C15.2284187,40.2450495 8.11764706,33.1636128 8.11764706,24.4282178 C8.11764706,15.6928229 15.2284187,8.61138614 24,8.61138614 C32.7715813,8.61138614 39.8823529,15.6928229 39.8823529,24.4282178 Z M24,38.4876238 C27.7442328,38.4876238 31.3351116,37.0063692 33.982684,34.3697191 C36.6302564,31.733069 38.1176471,28.1570041 38.1176471,24.4282178 C38.1176471,16.6634223 31.7969612,10.3688119 24,10.3688119 C16.2030388,10.3688119 9.88235294,16.6634223 9.88235294,24.4282178 C9.88235294,32.1930133 16.2030388,38.4876238 24,38.4876238 Z M26.3435294,20.8641584 L32.0611765,21.7991089 L27.8258824,25.7568317 L28.7152941,31.4649505 L23.5835294,28.6882178 L18.3529412,31.2821782 L19.4894118,25.5810891 L15.3670588,21.4757426 L21.1764706,20.7727723 L23.8447059,15.6410891 L26.3435294,20.8641584 Z M26.4564706,28.2242574 L25.9764706,25.110099 L28.2847059,22.9660396 L25.1505882,22.459901 L23.7741176,19.5917822 L22.2988235,22.4036634 L19.1505882,22.7973267 L21.3811765,25.0187129 L20.7882353,28.1188119 L23.6470588,26.7128713 L26.4564706,28.2242574 Z" id="Combined-Shape"></path>
            </g>
        </g>
    </g>
</svg>