<?xml version="1.0" encoding="UTF-8"?>
<svg width="103px" height="68px" viewBox="0 0 103 68" version="1.1" xmlns="http://www.w3.org/2000/svg" xmlns:xlink="http://www.w3.org/1999/xlink">
    <!-- Generator: Sketch 54.1 (76490) - https://sketchapp.com -->
    <title>Pre-access to offers</title>
    <desc>Created with Sketch.</desc>
    <defs>
        <path d="M18,36 C8.0588745,36 0,27.9411255 0,18 C0,8.0588745 8.0588745,0 18,0 C27.9411255,0 36,8.0588745 36,18 C36,27.9411255 27.9411255,36 18,36 Z M18,32.4 C25.9529004,32.4 32.4,25.9529004 32.4,18 C32.4,10.0470996 25.9529004,3.6 18,3.6 C10.0470996,3.6 3.6,10.0470996 3.6,18 C3.6,25.9529004 10.0470996,32.4 18,32.4 Z" id="path-1"></path>
    </defs>
    <g id="Cornerstone-Club'" stroke="none" stroke-width="1" fill="none" fill-rule="evenodd">
        <g id="Cornerstone_sm" transform="translate(-124.000000, -1357.000000)">
            <g id="Pre-access-to-offers" transform="translate(126.000000, 1357.000000)">
                <g id="Group-5-Copy-3" transform="translate(65.000000, 0.000000)">
                    <path d="M24,15.4739619 C24,15.6662878 23.9277404,15.8297916 23.7832213,15.9644736 L17.1250813,22.1694056 C16.9805622,22.3040876 16.805116,22.3714286 16.5987427,22.3714286 C16.3923694,22.3714286 16.2169232,22.3040876 16.0724041,22.1694056 L12.2167787,18.5762259 C12.0722596,18.441544 12,18.2780401 12,18.0857143 C12,17.8933885 12.0722596,17.7298846 12.2167787,17.5952026 L13.2698894,16.6137753 C13.4144086,16.4790933 13.5898548,16.4117523 13.7962281,16.4117523 C14.0026013,16.4117523 14.1780475,16.4790933 14.3225667,16.6137753 L16.5987427,18.7422888 L21.6774333,14.0020229 C21.8219525,13.867341 21.9973987,13.8 22.2037719,13.8 C22.4101452,13.8 22.5855914,13.867341 22.7301106,14.0020229 L23.7832213,14.9834503 C23.9277404,15.1181322 24,15.2816361 24,15.4739619 L24,15.4739619 Z" id="Shape" fill="#10CFBD"></path>
                    <mask id="mask-2" fill="white">
                        <use xlink:href="#path-1"></use>
                    </mask>
                    <use id="Mask" fill="#10CFBD" xlink:href="#path-1"></use>
                </g>
                <g id="noun_House-Webpage_699215_000000" transform="translate(0.000000, 6.000000)" stroke="#10CFBD" stroke-width="2.08">
                    <polygon id="Path" points="0 60 60 60 60 0 0 0"></polygon>
                    <path d="M9.31034483,6.20689655 C9.31034483,7.92103448 7.92103448,9.31034483 6.20689655,9.31034483 C4.49275862,9.31034483 3.10344828,7.92103448 3.10344828,6.20689655 C3.10344828,4.49275862 4.49275862,3.10344828 6.20689655,3.10344828 C7.92103448,3.10344828 9.31034483,4.49275862 9.31034483,6.20689655 L9.31034483,6.20689655 Z" id="Path"></path>
                    <path d="M18.6206897,6.20689655 C18.6206897,7.92103448 17.2313793,9.31034483 15.5172414,9.31034483 C13.8031034,9.31034483 12.4137931,7.92103448 12.4137931,6.20689655 C12.4137931,4.49275862 13.8031034,3.10344828 15.5172414,3.10344828 C17.2313793,3.10344828 18.6206897,4.49275862 18.6206897,6.20689655 L18.6206897,6.20689655 Z" id="Path"></path>
                    <path d="M27.9310345,6.20689655 C27.9310345,7.92103448 26.5417241,9.31034483 24.8275862,9.31034483 C23.1134483,9.31034483 21.7241379,7.92103448 21.7241379,6.20689655 C21.7241379,4.49275862 23.1134483,3.10344828 24.8275862,3.10344828 C26.5417241,3.10344828 27.9310345,4.49275862 27.9310345,6.20689655 L27.9310345,6.20689655 Z" id="Path"></path>
                    <polygon id="Path" points="0 12.4137931 60 12.4137931 60 0 0 0"></polygon>
                    <polygon id="Path" points="29.9775517 16.5517241 18.621 27.9310345 21.7244483 31.0344828 29.9775517 22.7586207 30.0003103 22.7813793 30.0220345 22.7586207 38.2761724 31.0344828 41.3796207 27.9310345"></polygon>
                    <polygon id="Path" points="29.9881034 22.7586207 23.7925862 28.9655172 23.7925862 37.2413793 36.2063793 37.2413793 36.2063793 28.9655172"></polygon>
                    <path d="M10.3448276,44.4827586 L14.4827586,44.4827586" id="Path"></path>
                    <path d="M18.6206897,44.4827586 L33.1034483,44.4827586" id="Path"></path>
                    <path d="M37.2413793,44.4827586 L49.6551724,44.4827586" id="Path"></path>
                    <path d="M49.6551724,49.6551724 L42.4137931,49.6551724" id="Path"></path>
                    <path d="M38.2758621,49.6551724 L25.862069,49.6551724" id="Path"></path>
                    <path d="M21.7241379,49.6551724 L10.3448276,49.6551724" id="Path"></path>
                    <path d="M10.3448276,54.8275862 L18.6206897,54.8275862" id="Path"></path>
                    <path d="M22.7586207,54.8275862 L30,54.8275862" id="Path"></path>
                    <path d="M44.4827586,54.8275862 L49.6551724,54.8275862" id="Path"></path>
                    <path d="M34.137931,54.8275862 L40.3448276,54.8275862" id="Path"></path>
                </g>
                <circle id="Oval-Copy-4" stroke="#10CFBD" stroke-width="2" cx="74" cy="45" r="9"></circle>
                <circle id="Oval-Copy-3" stroke="#10CFBD" stroke-width="2" cx="81.5" cy="61.5" r="4.5"></circle>
            </g>
        </g>
    </g>
</svg>