<?xml version="1.0" encoding="UTF-8"?>
<svg width="16px" height="19px" viewBox="0 0 16 19" version="1.1" xmlns="http://www.w3.org/2000/svg" xmlns:xlink="http://www.w3.org/1999/xlink">
    <!-- Generator: Sketch 52.5 (67469) - http://www.bohemiancoding.com/sketch -->
    <title>Combined Shape Copy 4</title>
    <desc>Created with Sketch.</desc>
    <g id="Blocks" stroke="none" stroke-width="1" fill="none" fill-rule="evenodd">
        <g id="Why-Invest-Copy" transform="translate(-229.000000, -2026.000000)" fill="#FFFFFF">
            <g id="Group-25" transform="translate(51.000000, 1886.000000)">
                <g id="Group-20-Copy-3" transform="translate(154.000000, 120.000000)">
                    <path d="M36.2544259,21.9939037 C36.8566956,21.9939037 35.9072634,23.4015136 34.4187367,24.9850746 C34.2923864,24.9850746 34.2183812,24.9264242 34.2153729,24.9264242 L29.5759106,24.9264242 C28.5332199,23.9880177 26.6277372,22.1697963 26.6277372,21.4073996 C26.6277372,20.3516922 29.0344094,21.9939037 30.2377455,21.9939037 C31.9422108,21.9939037 32.1426265,20.8208955 33.2460857,20.8208955 C34.348883,20.8208955 34.4740901,21.9939037 36.2544259,21.9939037 Z M34.5143942,26.4326226 C35.984292,27.7413051 39.2408759,31.3106015 39.2408759,35.891258 C39.2408759,37.5568701 37.8904526,38.8656716 36.2238443,38.8656716 L27.7761557,38.8656716 C26.1095474,38.8656716 24.7591241,37.5568701 24.7591241,35.891258 C24.7591241,31.2511727 28.0392409,27.7413051 29.500691,26.3731343 L30.1909878,26.3731343 L31.3326326,26.3731343 L34.0829586,26.3731343 C34.1457129,26.3731343 34.2772555,26.4326226 34.460691,26.4326226 L34.5143942,26.4326226 Z M32.8175182,36.0432836 C33.8475912,35.8003731 34.5693431,34.9501866 34.5693431,33.8570288 C34.5693431,33.1890858 34.2831533,32.0352005 32.3713869,31.5494403 L32.3637956,31.5494403 C31.0656934,31.2458022 31.0656934,30.6992537 31.0656934,30.5170102 C31.0656934,29.7883396 31.6705985,29.4239739 32.2335766,29.4239739 C32.8064234,29.4239739 33.2910949,29.8490672 33.3856934,30.4563433 C33.4388321,30.7599813 33.7366423,31.0028918 34.0578102,30.9421642 C34.376,30.8814366 34.5903066,30.5777985 34.5371679,30.2741604 C34.3813139,29.3024579 33.6945985,28.5130597 32.8175182,28.2701493 L32.8175182,27.9057836 C32.8175182,27.6021455 32.5559124,27.2985075 32.2335766,27.2985075 C31.9106569,27.2985075 31.649635,27.6021455 31.649635,27.9057836 L31.649635,28.2701493 C30.619562,28.5130597 29.8978102,29.4239739 29.8978102,30.5170102 C29.8978102,31.1242863 30.1839416,32.2781716 32.0975182,32.7639925 L32.1051095,32.7639925 C33.4014599,33.0676306 33.4014599,33.6749067 33.4014599,33.8570288 C33.4014599,34.5858209 32.7959124,34.889459 32.2335766,34.889459 C31.5894891,34.889459 31.0656934,34.3429104 31.0656934,33.6749067 C31.0656934,33.3712687 30.8040876,33.0676306 30.4817518,33.0676306 C30.1588321,33.0676306 29.8978102,33.3712687 29.8978102,33.6749067 C29.8978102,34.8287313 30.6435036,35.7396455 31.649635,36.0432836 L31.649635,36.4076493 C31.649635,36.7720149 31.9106569,37.0149254 32.2335766,37.0149254 C32.5559124,37.0149254 32.8175182,36.7720149 32.8175182,36.4076493 L32.8175182,36.0432836 Z" id="Combined-Shape-Copy-4"></path>
                </g>
            </g>
        </g>
    </g>
</svg>