<?xml version="1.0" encoding="UTF-8"?>
<svg width="364px" height="366px" viewBox="0 0 364 366" version="1.1" xmlns="http://www.w3.org/2000/svg" xmlns:xlink="http://www.w3.org/1999/xlink">
    <!-- Generator: Sketch 52.5 (67469) - http://www.bohemiancoding.com/sketch -->
    <title>Lost at sea</title>
    <desc>Created with Sketch.</desc>
    <defs>
        <ellipse id="path-1" cx="182" cy="182.821099" rx="182" ry="182.448158"></ellipse>
    </defs>
    <g id="Pages" stroke="none" stroke-width="1" fill="none" fill-rule="evenodd">
        <g id="404_lg" transform="translate(-538.000000, -184.000000)">
            <g id="Lost-at-sea" transform="translate(538.000000, 184.000000)">
                <mask id="mask-2" fill="white">
                    <use xlink:href="#path-1"></use>
                </mask>
                <use id="Mask" fill="#ECF8FF" xlink:href="#path-1"></use>
                <g id="Group" mask="url(#mask-2)" fill="#8F999E">
                    <g transform="translate(94.705882, 199.649281)">
                        <polyline id="Fill-6" points="30.0336974 44.4031964 31.0391546 59.131559 47.0149588 59.131559 45.9391704 43.3107972 30.0336974 44.4031964"></polyline>
                        <polyline id="Fill-8" points="16.8128369 59.131559 35.268738 14.0735728 20.5158623 9.64271997 0.136035173 59.131559 16.8128369 59.131559"></polyline>
                        <path d="M54.4732953,59.131559 L71.8510946,59.131559 C71.7849278,58.4280428 71.7252389,57.7092125 71.673416,56.9708918 C71.1001249,48.4233554 71.8136155,42.0401986 73.7893645,37.8409122 C75.7873232,33.6444101 78.7851868,31.4113494 82.7838805,31.141266 C86.693735,30.8581889 89.888248,32.6703464 92.3447471,36.573098 C94.823456,40.4795621 96.329097,46.6924085 96.9250606,55.2431933 C97.0157508,56.5945384 97.0731261,57.88834 97.1018138,59.131559 L114.709407,59.131559 C114.713742,57.4725415 114.66377,55.7787195 114.543004,54.0412758 C114.170526,48.4275319 113.236326,43.2523255 111.754745,38.5634549 C110.273628,33.8745843 108.194233,29.8683472 105.513322,26.5670184 C102.810201,23.2629053 99.5148187,20.7555847 95.627174,19.0450564 C91.713618,17.3540188 87.2008593,16.6630322 82.059285,17.0129341 C76.8260952,17.3721171 72.3827423,18.6654547 68.7074791,20.8887701 C65.053963,23.115798 62.0903396,26.0347406 59.8799994,29.6776182 C57.6474494,33.3172472 56.0960006,37.556907 55.1770691,42.4119114 C54.2808102,47.2706283 54.0059636,52.5163719 54.3974118,58.155175 C54.4191589,58.4837301 54.4473839,58.8067164 54.4732953,59.131559" id="Fill-10"></path>
                        <polyline id="Fill-12" points="179.406332 59.131559 178.229674 51.8198166 169.934768 52.3836505 168.677136 33.8880421 152.771663 34.9809053 154.032996 53.4537747 137.554232 54.5981487 158.028914 4.65453012 143.253828 0.219964833 118.99376 59.131559 179.406332 59.131559"></polyline>
                    </g>
                </g>
                <g id="Group" mask="url(#mask-2)">
                    <g transform="translate(-48.955696, 94.688285)">
                        <polygon id="Fill-24" fill="#84D3FF" points="15.8196013 276.559075 447.783354 276.559075 447.783354 163.889255 15.8196013 163.889255"></polygon>
                        <path d="M237.644196,201.552097 L215.716652,201.481658 C208.116424,200.986854 201.957222,200.1872 197.046677,199.303828 L259.470373,199.136968 C253.587627,200.093667 246.040962,201.068263 237.644196,201.552097 M236.946722,195.020338 L181.77538,194.568836 C181.831247,194.525534 181.904392,194.49782 181.991937,194.494356 L196.144741,194.00879 L246.974,194.074032 L237.2825,194.698744 C237.064791,194.712601 236.953633,194.864448 236.946722,195.020338 M232.22912,183.242039 L190.513684,183.227605 L187.157627,182.887535 L229.913228,182.579221 C229.776728,182.771484 229.867152,183.091923 230.188532,183.112708 L232.22912,183.242039 M185.887658,168.117895 L196.939551,166.429672 C197.337532,166.368471 197.346171,165.835561 196.950494,165.76339 L190.378911,164.560156 C189.949829,164.481634 190.01088,163.889255 190.448601,163.889255 L277.556911,163.889255 C277.991177,163.889255 278.055684,164.476437 277.630057,164.559578 L260.025589,167.992029 L185.887658,168.117895" id="Fill-25" fill="#6CCAFF"></path>
                        <path d="M15.8196013,199.787662 L15.8196013,168.407156 L185.887658,168.117895 L173.355,170.032446 C172.925918,170.098266 172.963354,170.687758 173.398196,170.705079 L197.703259,171.663509 C198.111032,171.679675 198.181873,172.218359 197.790228,172.326327 L186.021854,175.580371 C185.625601,175.690071 185.704506,176.23626 186.118038,176.243189 L228.34031,176.951619 C228.799918,176.959125 228.820076,177.594806 228.36162,177.627716 L177.570373,181.239728 C177.132076,181.270328 177.121709,181.869059 177.558854,181.913516 L187.157627,182.887535 L142.240487,183.211438 L190.513684,183.227605 L211.335981,185.340193 C211.766791,185.384073 211.765639,185.971833 211.334253,186.013403 L180.06481,189.050934 C179.627665,189.093659 179.634576,189.691812 180.072297,189.725299 L217.633411,192.595971 C218.085532,192.630613 218.070557,193.25648 217.617285,193.272069 L196.144741,194.00879 L97.8923861,193.882346 L181.77538,194.568836 C181.588772,194.712601 181.586468,195.023802 181.850253,195.138698 C183.90812,196.037082 188.652215,197.792857 197.046677,199.303828 L15.8196013,199.787662 M259.470373,199.136968 C264.004247,198.39967 267.552671,197.673342 269.741278,197.190662 C270.151354,197.100016 270.088576,196.538237 269.667557,196.523225 L237.293443,195.374264 C237.055576,195.366181 236.938658,195.190661 236.946331,195.020338 L447.783354,196.745512 L447.783354,198.634081 L259.470373,199.136968 M447.783354,194.332115 L246.974,194.074032 L275.704658,192.223569 C276.153899,192.194701 276.152747,191.575763 275.703506,191.548049 L244.840684,189.64851 C244.406418,189.621373 244.383956,189.030149 244.815918,188.975299 L267.124741,186.132341 C267.556127,186.077491 267.534816,185.486844 267.100551,185.45913 L232.22912,183.242039 L447.783354,183.315942 L447.783354,194.332115 M229.913228,182.579221 C229.969095,182.499544 230.064127,182.441807 230.197171,182.436611 L290.203608,179.97587 C290.658608,179.957395 290.670127,179.334992 290.220886,179.30035 L256.645342,176.698732 C256.224323,176.665822 256.194949,176.09827 256.611361,176.027831 L281.506772,171.829214 C281.940462,171.755888 281.883443,171.157735 281.442842,171.157735 L247.298259,171.157735 C246.863994,171.157735 246.799487,170.570552 247.225114,170.487411 L260.025589,167.992029 L447.783354,167.672744 L447.783354,181.008204 L229.913228,182.579221" id="Fill-26" fill="#70BDE8"></path>
                        <path d="M197.046677,199.303828 C188.652215,197.792857 183.90812,196.037082 181.850253,195.138698 C181.586468,195.023802 181.588772,194.712601 181.77538,194.568836 L236.946722,195.020338 C236.938658,195.190661 237.055576,195.366181 237.293443,195.374264 L269.667557,196.523225 C270.088576,196.538237 270.151354,197.100016 269.741278,197.190662 C267.552671,197.673342 264.004247,198.39967 259.470373,199.136968 L197.046677,199.303828 M246.974,194.074032 L196.144741,194.00879 L217.617285,193.272069 C218.070557,193.25648 218.085532,192.630613 217.633411,192.595971 L180.072297,189.725299 C179.634576,189.691812 179.627665,189.093659 180.06481,189.050934 L211.334253,186.013403 C211.765639,185.971833 211.766791,185.384073 211.335981,185.340193 L190.513684,183.227605 L232.22912,183.242039 L267.100551,185.45913 C267.534816,185.486844 267.556127,186.077491 267.124741,186.132341 L244.815918,188.975299 C244.383956,189.030149 244.406418,189.621373 244.840684,189.64851 L275.703506,191.548049 C276.152747,191.575763 276.153899,192.194701 275.704658,192.223569 L246.974,194.074032 M187.157627,182.887535 L177.558854,181.913516 C177.121709,181.869059 177.132076,181.270328 177.570373,181.239728 L228.36162,177.627716 C228.820076,177.594806 228.799918,176.959125 228.34031,176.951619 L186.118038,176.243189 C185.704506,176.23626 185.625601,175.690071 186.021854,175.580371 L197.790228,172.326327 C198.181873,172.218359 198.111032,171.679675 197.703259,171.663509 L173.398196,170.705079 C172.963354,170.687758 172.925918,170.098266 173.355,170.032446 L185.887658,168.117895 L260.025589,167.992029 L247.225114,170.487411 C246.799487,170.570552 246.863994,171.157735 247.298259,171.157735 L281.442842,171.157735 C281.883443,171.157735 281.940462,171.755888 281.506772,171.829214 L256.611361,176.027831 C256.194949,176.09827 256.224323,176.665822 256.645342,176.698732 L290.220886,179.30035 C290.670127,179.334992 290.658608,179.957395 290.203608,179.97587 L230.197171,182.436611 C230.064127,182.441807 229.969095,182.499544 229.913228,182.579221 L187.157627,182.887535" id="Fill-27" fill="#A7DFFF"></path>
                        <path d="M447.783354,208.507644 L15.8196013,204.823462 L15.8196013,200.836739 L215.716652,201.481658 C216.628956,201.541127 217.561994,201.595977 218.516342,201.646208 C221.386297,201.797478 224.226304,201.86503 227.019082,201.86503 C230.665418,201.86503 234.225361,201.749557 237.644196,201.552097 L447.783354,202.229927 L447.783354,208.507644" id="Fill-28" fill="#70BDE8"></path>
                        <polyline id="Fill-30" fill="#84D3FF" points="15.8196013 248.292313 15.8196013 234.956854 321.362468 232.753619 15.8196013 232.648538 15.8196013 221.632365 365.71057 222.082134 15.8196013 219.219545 15.8196013 217.330976 447.783354 216.176818 447.783354 247.557901 15.8196013 248.292313"></polyline>
                        <polyline id="Fill-31" fill="#70BDE8" points="447.783354 215.127741 15.8196013 213.734553 15.8196013 207.456835 447.783354 211.141018 447.783354 215.127741"></polyline>
                        <path d="M73.959962,209.525544 C73.959962,209.525544 75.5219367,203.244362 79.6353671,199.979348 C79.8605633,199.800941 80.1865506,200.003597 80.1260759,200.284198 L79.363519,203.829235 C79.3076519,204.087896 79.5829557,204.291129 79.8116076,204.158334 C81.1996456,203.353484 84.7791709,201.384661 87.9981519,200.501865 C88.3442975,200.407177 88.5412722,200.889279 88.2273797,201.063644 C85.802057,202.412375 81.6650127,205.084432 79.647462,208.545173 C79.4971392,208.803257 79.7753228,209.102333 80.0448671,208.974735 L85.1898228,206.535357 C85.482981,206.396789 85.7611646,206.752447 85.5561266,207.004757 L83.9791772,208.94067 C83.8063924,209.153141 83.9791772,209.468962 84.2510253,209.437206 L89.9293101,208.765728 C90.2754557,208.724735 90.4102278,209.202795 90.0928797,209.345982 C86.7731076,210.839055 79.5587658,213.802105 76.6479177,212.77901 C72.8080633,211.429702 73.959962,209.525544 73.959962,209.525544" id="Fill-38" fill="#353A55"></path>
                        <g id="Group-43" stroke-width="1" fill="none" transform="translate(324.637242, 79.099360)">
                            <path d="M37.9056063,57.0618162 C37.8422518,57.119553 37.7904164,57.191724 37.7673784,57.2702459 C36.9149734,57.1518856 36.0452898,57.069322 35.1928847,57.0473821 C35.5960493,56.945188 37.4390873,56.4723239 39.2994037,55.850499 L37.9056063,57.0618162 Z M41.3958594,42.7425227 C42.2713025,42.9902134 43.3310493,43.2101904 44.4887075,43.2892898 L43.7284544,43.770237 C43.5902265,43.8574195 43.5038341,44.0081124 43.5038341,44.1709301 C42.7838974,43.6767034 42.0812392,43.2003752 41.3958594,42.7425227 Z M51.1294037,48.5254364 L50.1099734,48.9526885 C48.2266189,47.5283226 46.3893404,46.1917166 44.6269354,44.9549953 C45.7269987,45.3585752 47.7485809,45.9688527 49.8968721,45.9469128 L48.8428847,46.8395231 C48.7276949,46.9370982 48.6643404,47.0849043 48.6758594,47.2361746 C48.6873784,47.3874449 48.7680113,47.5254358 48.8947202,47.607422 C48.9407961,47.6391772 49.8047202,48.1853669 51.1294037,48.5254364 Z M1.17155563,57.2887217 C1.33282145,57.4376825 1.57472019,57.4555809 1.75902398,57.3320243 L3.61934044,56.0768271 C2.64022652,57.5150498 1.67263158,59.467707 1.14851765,61.9983091 C1.10244171,62.2050067 1.2003531,62.4157459 1.3846569,62.5167852 C1.57472019,62.6178246 1.79934044,62.5849146 1.94908728,62.4359538 L6.76978348,57.647267 L5.31839107,60.4030425 C5.21472019,60.6005022 5.26079614,60.8441513 5.42782145,60.989648 C5.60060626,61.1362993 5.842505,61.1449598 6.02680879,61.0110106 C6.15927715,60.9093939 8.6646569,59.0416097 10.9569354,57.0283289 L10.0296569,58.8510784 C9.94326449,59.0254434 9.96630247,59.2373373 10.0987708,59.3845661 C10.2254797,59.5317948 10.4328215,59.5843352 10.6171252,59.5196701 C10.7553531,59.4700165 13.3701632,58.5110089 15.1556063,55.9590442 L14.8733911,58.6443808 C14.8561126,58.8354895 14.954024,59.0202471 15.1210493,59.1132033 C15.2880746,59.2055821 15.4954164,59.1888384 15.6451632,59.0693234 C15.7891506,58.957314 18.3406063,56.9209386 20.425543,54.4157406 L19.8553531,56.2286748 C19.8035177,56.4007304 19.8495936,56.5883748 19.982062,56.7148183 C20.1087708,56.8401071 20.2988341,56.8834097 20.4658594,56.8250955 C20.5752898,56.7892987 22.2858594,56.1894138 23.6796569,54.9711682 L23.3974417,56.0554645 C23.3513658,56.2356032 23.4089607,56.4272893 23.552948,56.5456496 C23.6969354,56.6645873 23.8985177,56.6888368 24.065543,56.607428 C24.1634544,56.5612385 26.0871252,55.6276352 28.3563658,53.8735924 L27.717062,55.3637782 C27.6421885,55.545649 27.682505,55.7569655 27.8264923,55.8949563 C27.9647202,56.0329472 28.1778215,56.0693214 28.3563658,55.9879125 C28.4427582,55.9486515 30.1014923,55.1836395 31.800543,54.1137773 L31.0863658,56.9319085 C31.0402898,57.0941488 31.0863658,57.265627 31.2073151,57.3857195 C31.322505,57.5058119 31.4952898,57.5554655 31.6565556,57.5167819 C31.7371885,57.4983061 33.107948,57.1663198 34.7321252,56.1224392 L34.5938974,56.3620467 C34.495986,56.528906 34.507505,56.7361809 34.6226949,56.8897607 C34.6745303,56.9578901 34.7436442,57.0092758 34.8185177,57.0416084 C34.1504164,57.0387215 33.4995936,57.0768278 32.8890873,57.1680519 C32.7047835,57.1951882 32.5550366,57.326828 32.5032012,57.5052346 C32.4513658,57.6842185 32.5032012,57.8770593 32.641429,58.0000386 L33.6378215,58.8816789 C31.5240873,58.6819097 27.6537075,58.541032 24.6472518,59.6940351 C24.462948,59.7638966 24.3419987,59.9394163 24.3419987,60.1362987 C24.3419987,60.333181 24.4571885,60.5110102 24.6414923,60.5849133 L25.2519987,60.8331813 C23.3744037,61.0248674 20.5349734,61.5294867 17.7128215,62.8481942 C17.5400366,62.9296031 17.4306063,63.1074323 17.4363658,63.2996957 C17.4478847,63.4919591 17.5688341,63.6617052 17.7473784,63.7292572 L20.0799734,64.6137843 C12.9957961,67.743694 8.67617588,72.0214105 8.48611259,72.2107871 C8.33060626,72.3643668 8.30180879,72.603397 8.41123917,72.7910415 C8.52066955,72.978686 8.74528981,73.0681779 8.95263158,73.0104412 L13.3471252,71.7748745 C11.0894037,73.0612495 8.50915057,74.8597496 6.28598601,77.2552477 C6.14775816,77.4099822 6.11896069,77.6409292 6.22263158,77.8222227 C6.33206196,78.0052482 6.54516322,78.0947402 6.7467455,78.047396 L11.0433278,77.0231459 C9.00446702,78.3539782 6.42421386,80.4671436 4.69636576,83.4353904 C4.59845436,83.6057138 4.61573284,83.8210719 4.73668221,83.9746517 C4.85763158,84.1299636 5.06497335,84.1911645 5.25503664,84.1328504 L7.87560626,83.2985543 C6.54516322,84.4763841 4.96130247,86.2927826 3.60206196,89.0144934 C3.50991006,89.199251 3.54446702,89.4226923 3.69421386,89.5681889 C3.84396069,89.7154176 4.06282145,89.7483276 4.24712525,89.6536393 L7.22478348,88.1149547 C6.04984677,89.7292745 4.77123917,92.3205002 4.02826449,96.4059533 C3.99370753,96.6149603 4.09737841,96.8239674 4.28168221,96.9192331 C4.4717455,97.0110345 4.70212525,96.974083 4.84611259,96.8205032 L6.24566955,95.3291627 C5.62364424,97.4561849 5.24351765,100.849952 6.14199867,105.989101 C6.18231512,106.211387 6.36661892,106.375937 6.59123917,106.385175 C6.81585943,106.395567 7.01744171,106.247184 7.07503664,106.029516 L7.81801133,103.214272 C7.96775816,105.319931 8.49763158,107.929056 9.83383411,110.736794 C9.92598601,110.93079 10.1390873,111.03818 10.3521885,111.000074 C10.5652898,110.962545 10.7207961,110.786448 10.7438341,110.571667 L11.4925683,102.117851 L12.224024,106.038177 C12.2643404,106.261618 12.4601632,106.424436 12.6847835,106.429055 C12.9151632,106.431941 13.110986,106.274897 13.1628215,106.053188 C13.1743404,106.002957 14.0267455,102.079745 14.5623784,98.3187721 L15.0864923,100.919813 C15.1268088,101.118428 15.2823151,101.270275 15.4838974,101.299721 C15.6854797,101.329167 15.8813025,101.229282 15.9734544,101.050298 C16.0598468,100.894409 17.6206696,97.8834369 17.2693404,94.0901319 L18.9683911,96.8938289 C19.0663025,97.063575 19.2621252,97.148448 19.457948,97.1172701 C19.6537708,97.0814734 19.8035177,96.9296257 19.8438341,96.7356302 C19.8841506,96.5179626 20.6444037,92.4971747 20.6213658,88.5041004 L21.4680113,90.795095 C21.5313658,90.9706148 21.6811126,91.0947488 21.8769354,91.1068735 C22.0669987,91.120153 22.245543,91.0231552 22.3319354,90.8586055 C22.3952898,90.7425546 23.4492771,88.7789274 23.7372518,86.5404733 L24.2959227,87.8568714 C24.3707961,88.0341232 24.5435809,88.1472873 24.7336442,88.148442 C24.929467,88.1472873 25.1022518,88.0312364 25.1771252,87.8516751 C25.2232012,87.7315826 26.2138341,85.3077935 26.8934544,81.8510937 L27.4290873,83.8493629 C27.4809227,84.0462453 27.647948,84.1923193 27.8552898,84.2038666 C28.0568721,84.2183008 28.2469354,84.1028273 28.3275683,83.9163376 C28.3736442,83.8141435 29.2548468,81.7581375 29.934467,79.4157572 L31.3052265,82.625921 C31.3743404,82.7881613 31.5125683,82.9122953 31.6968721,82.9146048 C31.8696569,82.9313485 32.0424417,82.8510944 32.1403531,82.7061751 C32.1921885,82.6253436 33.142505,81.198091 33.7702898,78.8978585 L33.8451632,79.3880436 C33.8739607,79.5843485 34.0237075,79.7408152 34.2137708,79.7835404 C34.4153531,79.8279977 34.6054164,79.7425473 34.7148468,79.5779975 C34.7954797,79.4527087 36.2007961,77.3083655 37.4563658,75.0214125 L37.0877582,77.4746474 C37.0589607,77.6848092 37.1683911,77.8909294 37.3584544,77.979844 C37.5542771,78.0699134 37.7788974,78.0214145 37.9228847,77.8614837 C38.0207961,77.7506291 39.9041506,75.568757 41.1424417,72.3447363 L41.344024,74.4555923 C41.3613025,74.6547841 41.5052898,74.8210659 41.6953531,74.873029 C41.8911759,74.9290337 42.0927582,74.8505117 42.207948,74.687694 C42.2943404,74.5629826 43.8321252,72.3845747 44.9091506,69.9215246 L44.9206696,71.6582463 C44.926429,71.8424265 45.0300999,72.0098631 45.1971252,72.0883851 C45.3641506,72.1680619 45.5599734,72.1432351 45.7039607,72.0266068 C45.8018721,71.9434659 47.7946569,70.3025872 48.8832012,68.5641334 L49.1999734,69.5162125 C47.8522518,72.2523575 46.9883278,74.5543221 46.6312392,76.3603279 C46.5966822,76.5606745 46.6888341,76.7644852 46.8616189,76.8666793 C47.0401632,76.9671413 47.259024,76.9475108 47.4145303,76.8141389 L49.5743404,74.9376942 C48.6816189,76.462522 47.8752898,77.9827309 47.1841506,79.4821545 C47.1092771,79.6449721 47.1265556,79.8372356 47.2417455,79.979268 C47.3511759,80.1213004 47.5354797,80.1859656 47.7082645,80.153633 L48.3706063,80.0219932 C47.0977582,81.2310009 45.2662392,83.3228037 44.0049101,86.2523668 C43.9357961,86.4151845 43.9645936,86.6039837 44.074024,86.7419746 C44.1892139,86.8805428 44.3619987,86.9423211 44.540543,86.9111433 L46.0207328,86.6178405 C44.949467,87.9763865 43.1582645,90.4665729 42.1676316,92.9498309 C42.0985177,93.1224638 42.1388341,93.3187688 42.265543,93.4544502 C42.3922518,93.5895542 42.5823151,93.6409399 42.7550999,93.5832031 L44.9782645,92.8759278 C44.3850366,94.3383999 43.3195303,97.2142679 42.9048468,99.8701588 C42.8818088,100.054339 42.9624417,100.236787 43.1121885,100.340713 C43.2676949,100.445217 43.4692771,100.448681 43.6247835,100.353415 L46.0437708,98.8909434 C45.6002898,101.303763 44.5923784,107.337254 44.6499734,111.731599 C44.6499734,111.915779 44.7594037,112.082061 44.926429,112.159428 C45.0934544,112.236218 45.2892771,112.211968 45.4332645,112.093608 L47.3511759,110.497764 C47.5009227,112.581484 48.0883911,117.546268 50.3518721,120.878256 C50.4267455,120.991997 50.5476949,121.064168 50.6744037,121.083221 C50.7377582,121.092459 50.8068721,121.088995 50.8702265,121.071097 C51.0660493,121.017402 51.2100366,120.844769 51.2215556,120.64038 L51.6707961,113.689452 L54.2856063,117.701579 C54.3950366,117.868439 54.5966189,117.950425 54.7866822,117.907122 C54.982505,117.864974 55.1322518,117.70793 55.1610493,117.511048 C55.1898468,117.291071 55.7600366,113.408274 55.3626316,109.8846 L55.5757328,110.257002 C55.6794037,110.442337 55.892505,110.535293 56.0998468,110.485639 C56.3071885,110.434831 56.4569354,110.25296 56.4684544,110.039912 C56.4742139,109.852844 56.6009227,106.356306 55.460543,103.353995 L56.3763025,104.120739 C56.5260493,104.24545 56.7333911,104.268545 56.9061759,104.176744 C57.0789607,104.08552 57.1768721,103.900185 57.1595936,103.706189 C57.1365556,103.51739 56.7852265,100.032976 55.8176316,97.1288175 L58.202062,99.4711978 C58.3460493,99.6109208 58.5591506,99.6472949 58.7434544,99.5606898 C58.9219987,99.4729299 59.031429,99.2818212 59.0083911,99.0814747 C58.9968721,98.9573407 58.7722518,96.7287018 58.0350366,94.6241969 L59.042948,95.4636894 C59.1869354,95.5866687 59.3942771,95.6080313 59.567062,95.5225809 C59.7340873,95.4353984 59.8377582,95.2546823 59.8262392,95.0635736 C59.8089607,94.8453287 59.5152265,90.5693443 58.7492139,87.5439381 L60.1257328,88.782969 C60.2582012,88.9059483 60.454024,88.9405903 60.6210493,88.8713062 C60.7938341,88.8031769 60.909024,88.6455555 60.920543,88.4631073 C60.932062,88.3303128 61.1163658,85.636893 60.0911759,82.6888541 L60.8341506,83.2050207 C60.9781379,83.3043279 61.1624417,83.3187621 61.317948,83.2396628 C61.4734544,83.1605634 61.5771252,83.0023647 61.5828847,82.8262676 C61.5828847,82.7633345 61.6116822,81.6900081 61.3928215,80.2373513 L62.9536442,82.1576759 C63.0745936,82.3043273 63.2704164,82.3655282 63.4547202,82.316452 C63.6332645,82.2656436 63.7714923,82.1114865 63.8002898,81.923842 L64.4165556,77.6998207 L65.8621885,79.5531707 C65.9716189,79.6888521 66.1386442,79.7569815 66.311429,79.7309999 C66.4842139,79.7050184 66.6224417,79.5883901 66.6857961,79.4267272 L67.9701632,76.0185263 L73.2113025,75.1830754 L74.1443404,78.3216456 C74.1961759,78.5087127 74.3632012,78.6340015 74.5532645,78.6617151 C74.7490873,78.6801909 74.9333911,78.5791516 75.025543,78.4059413 L77.2832645,74.046816 L77.8073784,76.2910438 C77.8534544,76.4925451 78.0147202,76.6357323 78.2278215,76.658827 C78.4351632,76.6767254 78.630986,76.5595197 78.7116189,76.3689884 L80.2724417,72.6801869 L81.9023784,76.9498202 C81.9657328,77.1288042 82.1327582,77.2506288 82.3285809,77.2575572 C82.5186442,77.2656403 82.691429,77.1588273 82.7778215,76.9861944 L83.6878215,75.0826135 C84.102505,77.6669108 85.0931379,79.5387365 85.1449734,79.6334248 C85.2313658,79.7945104 85.4041506,79.8891986 85.5826949,79.8845797 C85.7669987,79.8776513 85.9282645,79.7673741 86.0031379,79.6005148 L86.7518721,77.9053636 C87.287505,80.9804234 88.7619354,85.0052528 88.8368088,85.2107957 C88.9001632,85.390357 89.072948,85.5202647 89.2572518,85.5225742 C89.4530746,85.5329668 89.6316189,85.4278859 89.7122518,85.255253 L90.2882012,84.0774231 C90.4782645,86.2974015 91.1751632,88.4261558 91.2154797,88.5433614 C91.2788341,88.7338927 91.4516189,88.8718836 91.6532012,88.8701515 C91.8547835,88.8765025 92.0390873,88.754678 92.1139607,88.5681882 L93.3349734,85.4532901 C93.634467,88.5012136 94.7345303,91.8274283 94.7921252,92.0069896 C94.8554797,92.1917472 95.010986,92.3164586 95.2125683,92.3337797 C95.4083911,92.3470591 95.5869354,92.2402461 95.6733278,92.0658811 L96.1974417,90.9919774 C96.3817455,94.1980996 97.9195303,97.3378246 98.0059227,97.5052612 C98.0980746,97.6963698 98.3054164,97.800296 98.5185177,97.7627671 C98.7258594,97.7235061 98.8871252,97.5502958 98.9044037,97.3378246 L98.9447202,96.9117273 C100.021746,100.292215 102.118201,103.602263 102.239151,103.789907 C102.348581,103.956767 102.544404,104.041062 102.740227,104.000069 C102.936049,103.959653 103.080037,103.803187 103.114594,103.607459 L103.869087,98.8718902 L107.111682,105.03298 C107.203834,105.213118 107.405416,105.317622 107.606999,105.282403 C107.808581,105.251802 107.969847,105.094181 108.004404,104.893834 C108.707062,100.927319 107.221113,96.154221 106.506935,94.1911712 L108.908644,94.8609176 C109.087189,94.9134581 109.277252,94.8534118 109.398201,94.7142662 C109.519151,94.5751206 109.547948,94.379393 109.478834,94.2102243 C107.739467,90.1755796 104.358644,85.0826201 102.970606,83.0612562 L105.77548,83.4059446 C105.959783,83.428462 106.138328,83.3418568 106.236239,83.1842355 C106.33991,83.0271915 106.334151,82.8268449 106.236239,82.6703783 C104.779087,80.4146031 102.636556,78.22638 101.496176,77.1334231 L103.811492,76.8712982 C103.995796,76.850513 104.151302,76.7258016 104.208897,76.5502819 C104.266492,76.3753395 104.220416,76.181344 104.087948,76.0520136 C102.175796,74.1888484 99.5206696,72.6513185 97.9944037,71.8476228 L99.4688341,71.5104402 C99.6416189,71.4706018 99.7740873,71.3378073 99.8201632,71.1663291 C99.8662392,70.9942736 99.8144037,70.811248 99.6819354,70.6911556 C97.3435809,68.5318008 94.8151632,67.373024 93.1621885,66.7904601 L93.8187708,66.6391898 C93.9973151,66.5987741 94.135543,66.4630927 94.1758594,66.2887277 C94.2219354,66.1137853 94.1643404,65.9296051 94.0261126,65.8112447 C92.4249734,64.4157472 90.6337708,63.0531597 88.7100999,61.759279 L88.5430746,61.00235 C90.017505,61.7494637 91.5552898,62.1934594 91.6359227,62.2159767 C91.8087075,62.2673624 92.0045303,62.2107804 92.1254797,62.0727896 C92.246429,61.9342213 92.2752265,61.7384937 92.2061126,61.5687477 L91.5264923,59.9700168 C93.4962392,61.8014268 95.7654797,63.19346 95.8921885,63.2731368 C96.0649734,63.3764856 96.2838341,63.3632061 96.4393404,63.2390721 C96.5948468,63.1155154 96.6582012,62.9065084 96.5948468,62.7159771 L95.944024,60.6998094 C98.3572518,63.1674785 100.949024,64.4215209 101.087252,64.4850313 C101.277315,64.5762554 101.501935,64.530066 101.645923,64.3712899 C101.78991,64.2130912 101.807189,63.9804121 101.697758,63.799696 L100.390353,61.6923043 C102.446492,63.2933446 104.583264,64.7067405 104.704214,64.7887267 C104.871239,64.8966944 105.08434,64.894385 105.245606,64.7777567 C105.406872,64.6628606 105.481746,64.4596272 105.42991,64.2685185 L105.303201,63.7881487 C106.789151,65.6507365 108.223264,66.5849173 108.309657,66.6374577 C108.453644,66.732146 108.643708,66.7390744 108.793454,66.6542014 C108.948961,66.5699057 109.041113,66.4088202 109.041113,66.2333004 L109.035353,62.7408039 C110.584657,64.6212901 112.203075,66.15882 112.283708,66.2350325 C112.433454,66.3741781 112.652315,66.4047786 112.836619,66.311245 C113.015163,66.2171341 113.113075,66.019097 113.084277,65.8170184 L112.784783,63.7708276 C114.777568,66.6726771 116.643644,68.506974 116.735796,68.5987754 C116.874024,68.7327247 117.075606,68.7719857 117.254151,68.6963505 C117.432695,68.6207154 117.547885,68.445773 117.547885,68.2529322 L117.536366,66.8239475 C118.682505,68.7650573 120.427632,70.1490074 120.531302,70.2304162 C120.681049,70.3458897 120.882632,70.3649429 121.049657,70.2777604 C121.210923,70.1911552 121.314594,70.0156355 121.303075,69.827991 L121.176366,67.3891903 C122.731429,71.0635577 125.017948,74.4550149 125.138897,74.6380404 C125.254087,74.8020128 125.45567,74.8799574 125.645733,74.8355001 C125.835796,74.7904655 125.979783,74.631112 126.008581,74.434807 L126.457821,71.1876917 C127.638518,74.810096 130.259087,76.9544392 130.397315,77.0652938 C130.552821,77.1905825 130.777442,77.2044393 130.944467,77.0993584 C131.117252,76.9931228 131.203644,76.7898894 131.163328,76.5924297 L130.616176,73.9960076 C132.591682,77.2373493 134.930037,80.4988988 134.958834,80.5404693 C135.091302,80.7252269 135.333201,80.7910468 135.540543,80.6975133 C135.747885,80.6039797 135.863075,80.3776516 135.811239,80.1553651 L134.935796,76.2656396 L138.961682,83.7298478 C139.065353,83.9192244 139.284214,84.0173769 139.491556,83.9683007 C139.704657,83.9198018 139.854404,83.7367763 139.860163,83.5214181 C139.986872,80.4117163 139.433961,77.8072111 138.742821,75.8124061 L140.539783,78.103978 C140.678011,78.2812299 140.91991,78.3366572 141.121492,78.2390821 C141.323075,78.1409296 141.426746,77.9157562 141.37491,77.6969339 C140.171176,72.6218728 138.483644,69.6559355 137.072568,67.9498143 L138.944404,68.7627478 C139.140227,68.8470435 139.364847,68.7921936 139.503075,68.6293759 C139.635543,68.4671356 139.647062,68.2338791 139.531872,68.057782 C137.233834,64.602237 135.039467,62.7286791 133.323138,61.7130895 L136.663644,61.944614 C136.870986,61.9584708 137.061049,61.8383783 137.135923,61.6466923 C137.216556,61.4544289 137.158961,61.2338744 137.003454,61.1005025 C134.682378,59.1409169 132.511049,58.1010779 130.817758,57.5502692 L133.559277,57.2737102 C133.7551,57.2535023 133.922125,57.1143567 133.973961,56.9238254 C134.025796,56.7332941 133.950923,56.5294833 133.795416,56.4122777 C131.036619,54.3730154 127.828581,53.456733 125.432632,53.0456473 L129.781049,52.2789031 C129.988391,52.242529 130.149657,52.074515 130.172695,51.8655079 C130.195733,51.6553461 130.086302,51.4544222 129.89048,51.3695492 C126.901302,50.0525737 123.825733,49.4226657 121.24548,49.1397556 L125.766682,48.529478 C125.985543,48.5006096 126.152568,48.3297088 126.175606,48.113196 C126.204404,47.8972605 126.083454,47.6905629 125.881872,47.6103088 C125.634214,47.5110016 119.978391,45.2979516 112.231872,45.237328 L114.028834,43.4988742 C114.167062,43.3655023 114.207378,43.1616915 114.138264,42.9821302 C114.069151,42.8031463 113.896366,42.6813217 113.706302,42.6767028 C110.601935,42.5849013 107.791302,43.2494514 105.988581,43.8198906 L106.4551,43.3481813 C106.593328,43.2084583 106.627885,42.9977191 106.553011,42.8181578 C106.472378,42.6380191 106.288075,42.5260098 106.092252,42.5335156 C102.878454,42.6680422 99.3824417,44.3331704 97.5163658,45.3574205 L98.0865556,44.1524543 C98.161429,43.983863 98.1383911,43.7846712 98.0174417,43.641484 L97.9425683,43.5664262 C98.0635177,43.4861721 98.1441506,43.3510681 98.1556696,43.1997978 C98.172948,43.0109986 98.0692771,42.8314373 97.9080113,42.7425227 L97.0671252,42.2921759 C99.6588974,42.1345546 101.9051,40.9913668 102.026049,40.9295884 C102.181556,40.8504891 102.279467,40.6957546 102.285227,40.5242764 C102.290986,40.3522208 102.210353,40.1894032 102.060606,40.0981791 L100.5401,39.1409036 C103.7251,38.5797023 106.56453,36.0906707 106.702758,35.9688461 C106.846746,35.838361 106.898581,35.6316634 106.835227,35.4474832 C106.766113,35.2633029 106.593328,35.136282 106.397505,35.1322405 L102.907252,35.0288917 L108.442125,31.8164184 C108.632189,31.7061412 108.72434,31.4803905 108.660986,31.2690739 C108.603391,31.0577574 108.407568,30.9168797 108.182948,30.9238081 C102.959087,31.1287736 97.1132012,33.6426321 94.1700999,35.0785453 L95.1204164,33.8314313 C95.2413658,33.6709231 95.2528847,33.4521008 95.1434544,33.2823547 C95.034024,33.1126086 94.8324417,33.0294677 94.6366189,33.0745024 C90.8353531,33.9405538 86.5733278,37.2107638 84.1773784,39.2783171 L84.4826316,38.6616885 C84.5632645,38.4971388 84.545986,38.2991017 84.4307961,38.1536051 C84.3213658,38.0081084 84.137062,37.9388243 83.9527582,37.9803948 C81.8102265,38.4492173 79.7137708,40.7604197 78.3257328,42.6241623 C78.2969354,42.5519914 78.2566189,42.4850167 78.199024,42.4307442 C78.0607961,42.3066101 77.8707328,42.2708133 77.697948,42.3366332 C76.6612392,42.7454095 75.6072518,43.1743936 74.5763025,43.6010683 L73.7987708,43.4405601 C75.9413025,42.8447167 77.8995303,41.8377876 78.0147202,41.7788962 C78.187505,41.6894042 78.2854164,41.5046465 78.2681379,41.3112284 C78.2508594,41.1178103 78.1241506,40.9538379 77.9340873,40.8961011 L76.379024,40.410535 C79.1666189,39.7887101 81.2054797,38.450372 81.3149101,38.3805105 C81.4876949,38.2656144 81.5683278,38.051411 81.5107328,37.8504871 C81.4531379,37.6507179 81.2745936,37.506376 81.0672518,37.5029118 L79.2184544,37.4445977 C81.2342771,36.6818951 83.1176316,35.7967906 83.227062,35.7436727 C83.3998468,35.6622639 83.5092771,35.4844347 83.5035177,35.2927486 C83.4977582,35.1010626 83.3768088,34.9318939 83.1982645,34.8637645 L82.9390873,34.7644573 C84.8569987,34.5473671 86.1240873,33.9382443 86.1989607,33.9018701 C86.3487075,33.8285444 86.4523784,33.6824704 86.4638974,33.5161886 C86.4811759,33.3493293 86.412062,33.1865117 86.2738341,33.0872045 L83.9469987,31.3545243 C85.934024,31.1108752 87.707948,30.6530227 87.7943404,30.629928 C87.9901632,30.5802744 88.1283911,30.4180341 88.151429,30.2217291 C88.174467,30.0254241 88.0765556,29.8354702 87.8980113,29.7430914 L86.4696569,28.9884719 C89.3321252,28.9134142 91.4113025,28.4220743 91.5149734,28.3966702 C91.6992771,28.3533676 91.837505,28.2084483 91.872062,28.0260002 C91.9123784,27.8429746 91.837505,27.6559075 91.6877582,27.5456303 L90.7892771,26.8816576 C92.6323151,26.9486322 94.3428847,26.3291168 94.4465556,26.2904332 C94.6135809,26.2286549 94.7345303,26.0756524 94.7518088,25.8972459 C94.7748468,25.7176845 94.6942139,25.5415874 94.544467,25.4422802 L92.9606063,24.3937807 C96.1571252,25.0213792 99.4169987,24.9850051 99.6013025,24.9826956 C99.7913658,24.9798088 99.9641506,24.8620258 100.033264,24.6836192 C100.108138,24.5052126 100.067821,24.3008245 99.9295936,24.1645657 L98.0232012,22.2575206 C101.006619,23.1085604 103.644467,22.2009386 103.782695,22.1507076 C103.966999,22.0848877 104.093708,21.9134095 104.099467,21.7176819 C104.110986,21.5219543 103.995796,21.3412382 103.817252,21.2615615 L101.951176,20.4347711 C104.997948,20.546203 108.113834,20.4122538 108.286619,20.404748 C108.511239,20.3949327 108.695543,20.2309603 108.735859,20.0109833 C108.776176,19.7910062 108.655227,19.5733387 108.453644,19.4855788 L105.591176,18.2667558 L112.341302,18.9336154 C112.554404,18.9544006 112.750227,18.8343081 112.830859,18.6391579 C112.911492,18.4434303 112.853897,18.2188343 112.692632,18.0854624 C110.688328,16.4549763 108.707062,15.5519734 107.042568,15.0560146 L109.283011,14.8522039 C109.501872,14.831996 109.674657,14.6645594 109.709214,14.4463145 C109.743771,14.2280695 109.622821,14.0155982 109.421239,13.9318799 C105.510543,12.3296849 102.722948,12.07853 100.868391,12.2650197 L102.210353,11.3060121 C102.377378,11.1847649 102.452252,10.9676747 102.383138,10.7696376 C102.319783,10.5710232 102.13548,10.4405381 101.928138,10.4376513 C98.650986,10.4509307 96.387505,11.1172129 94.8669987,11.8799155 L96.4911759,9.58430199 C96.6121252,9.41571065 96.6121252,9.18938256 96.4854164,9.02310069 C96.364467,8.85624146 96.1513658,8.78926682 95.955543,8.85162252 C93.692062,9.59065303 92.0275683,10.6316468 90.8526316,11.5975828 L91.837505,9.60046828 C91.9238974,9.42263906 91.8950999,9.20901305 91.7626316,9.06293905 C91.6244037,8.91686505 91.417062,8.86952091 91.2327582,8.9445787 C88.7100999,9.96594196 86.6654797,11.7823404 85.2486442,13.3579766 L86.6424417,9.97460248 C86.7230746,9.77772013 86.6654797,9.55081467 86.4984544,9.41802012 C86.331429,9.28522558 86.1010493,9.2777198 85.922505,9.40069909 C83.8145303,10.8920396 82.0578847,12.7309554 80.6871252,14.4463145 L82.1788341,11.1657118 C82.270986,10.9659426 82.2133911,10.7297993 82.0463658,10.5929632 C81.8735809,10.4567044 81.6316822,10.4526628 81.4588974,10.5860348 C81.372505,10.6506999 72.9002898,17.2234526 69.3697202,28.5271552 C68.8571252,30.1738076 68.3445303,31.9238088 67.8376949,33.7615698 C67.7167455,33.6882441 67.5669987,33.6732326 67.4287708,33.7223088 L66.9219354,33.9041796 C68.3157328,31.7713837 68.7419354,29.6408973 68.7592139,29.5335069 C68.7937708,29.3539456 68.7246569,29.1709201 68.5806696,29.0606429 C68.4309227,28.9515204 68.2408594,28.9330446 68.0738341,29.0150308 L66.8931379,29.6149158 C68.142948,27.3135286 69.2602898,24.0820022 69.3178847,23.9122561 C69.3812392,23.7309627 69.3294037,23.5300387 69.1911759,23.4012858 C69.0471885,23.2725328 68.8398468,23.241355 68.667062,23.3210317 L67.9010493,23.6743806 C68.8859227,22.1680286 69.5021885,20.5485125 69.542505,20.454979 C69.6116189,20.2661798 69.5597835,20.0531311 69.4042771,19.9220687 C69.2545303,19.7904289 69.0356696,19.7696436 68.8628847,19.8666414 L66.6569987,21.1039401 C68.0104797,18.9803821 68.9953531,16.4122511 69.0471885,16.2679092 C69.1163025,16.085461 69.0702265,15.8804956 68.9262392,15.747701 C68.7822518,15.6154838 68.5749101,15.5808418 68.4021252,15.6634053 L67.734024,15.9717196 C69.2199734,13.792157 69.8477582,11.084303 69.8823151,10.9347648 C69.9283911,10.7263351 69.8362392,10.5115543 69.6461759,10.4093603 C69.4618721,10.3060115 69.2314923,10.3400762 69.0817455,10.4913465 L69.0702265,10.500007 C70.0838974,7.77656406 70.4467455,4.71882531 70.4697835,4.53868662 C70.487062,4.34122691 70.3891506,4.15011823 70.2106063,4.05889415 C70.0378215,3.96536061 69.8247202,3.99365162 69.6749734,4.1258688 L66.8182645,6.67379197 L67.9413658,1.11662892 C67.9816822,0.916282365 67.8895303,0.712471606 67.7167455,0.609122807 C67.5382012,0.505196641 67.3193404,0.524827139 67.1638341,0.65877642 C64.6354164,2.83083329 63.0745936,6.62298362 62.4525683,8.36547901 L61.317948,6.7534687 C61.2142771,6.60277575 61.0299734,6.5271406 60.8456696,6.55774108 C60.6671252,6.58834156 60.5173784,6.72055874 60.4713025,6.89781059 C59.4633911,10.4347644 58.9623151,15.3758763 58.7837708,17.5386953 L57.245986,15.9284171 C57.1192771,15.7938904 56.9234544,15.7465463 56.7506696,15.8060151 C56.5721252,15.865484 56.4454164,16.0213732 56.4281379,16.2061309 C56.1862392,18.3856935 56.3935809,20.8666421 56.5548468,22.2350032 L55.0343404,21.2500141 C54.8788341,21.1501295 54.6772518,21.1483974 54.5217455,21.2459726 C54.3662392,21.3435477 54.2798468,21.523109 54.2971252,21.7072893 C54.5447835,23.8637572 55.3971885,26.1882391 55.9731379,27.5675703 L55.005543,27.0877778 C54.8442771,27.0098332 54.6542139,27.0254221 54.515986,27.1293483 C54.3719987,27.2332745 54.2971252,27.4087942 54.3201632,27.5848913 C54.6830113,30.119535 55.6333278,32.1564879 56.3878215,33.4492139 L56.0998468,33.3071815 C55.9443404,33.2269274 55.7485177,33.2448258 55.6045303,33.3522162 C55.460543,33.4601839 55.391429,33.6403226 55.4202265,33.8175745 C55.6102898,34.9197692 55.8521885,36.0577607 56.1516822,37.2211564 C54.970986,35.5693077 53.7442139,34.0358194 52.4944037,32.6403219 C52.3734544,32.5057953 52.1833911,32.4515227 52.0106063,32.4982895 C51.8378215,32.5450563 51.7053531,32.6853566 51.6707961,32.8620311 L51.5325683,33.5219623 C50.922062,31.8758873 49.7183278,29.3649156 47.5239607,27.0577547 C47.4030113,26.9301565 47.2187075,26.8793481 47.0459227,26.9284244 C46.8788974,26.9769233 46.746429,27.1160688 46.7118721,27.2898565 L46.4008594,28.7696496 C45.5714923,27.2540597 43.9876316,24.6218409 42.0927582,22.7384678 C41.9660493,22.6085601 41.7702265,22.5646801 41.5974417,22.6281906 C41.4246569,22.6911236 41.3037075,22.8493224 41.286429,23.0329253 L41.0618088,25.3568298 C39.955986,24.2378914 37.7328215,22.1264581 35.4578215,20.7084433 C35.2965556,20.6108682 35.0949734,20.6131777 34.9452265,20.714217 C34.7897202,20.8158337 34.7033278,20.9982819 34.7321252,21.1818848 L35.1237708,23.9850044 C33.0849101,22.6322321 27.9416822,19.3343085 23.8869987,17.6674482 C23.7142139,17.5975868 23.5241506,17.6322288 23.3859227,17.7557855 C23.2476949,17.8793421 23.1958594,18.0704508 23.2476949,18.2471253 L23.9618721,20.6449329 C21.9921252,19.9659486 17.2002265,18.5612133 13.2607328,19.3389274 C13.0591506,19.3787658 12.9036442,19.5415834 12.8806063,19.7436621 C12.8518088,19.9463181 12.9554797,20.1443552 13.134024,20.2361566 L19.3369987,23.3741495 L14.6314923,24.2165288 C14.4356696,24.2511709 14.2801632,24.4030185 14.2456063,24.5981688 C14.2110493,24.793319 14.2974417,24.9907787 14.464467,25.0952823 C14.6545303,25.2119105 17.9950366,27.2586786 21.3816189,28.2713814 L20.9611759,28.3204576 C20.7480746,28.3447071 20.5810493,28.50637 20.5407328,28.7176865 C20.5061759,28.9284257 20.6156063,29.136278 20.811429,29.2286569 C20.9784544,29.3083336 24.1346569,30.7927457 27.3369354,30.9232307 L26.2771885,31.4636468 C26.1044037,31.5514067 26.0007328,31.7355869 26.0180113,31.9301598 C26.0352898,32.1235779 26.1677582,32.2887051 26.352062,32.3470192 C26.5306063,32.4036012 29.8653531,33.444595 32.9121252,33.6888215 L29.8307961,34.9700002 C29.6464923,35.0467901 29.525543,35.2321251 29.537062,35.4336263 C29.5428215,35.6345503 29.6810493,35.8089153 29.8711126,35.8689615 C29.992062,35.9064904 32.1230746,36.5652668 34.3404797,36.7176919 L33.177062,37.3158447 C33.0042771,37.4030272 32.9063658,37.5837432 32.9178847,37.7748519 C32.9294037,37.9659606 33.0561126,38.1305104 33.2404164,38.1940208 C33.4419987,38.2656144 37.4851632,39.6686176 40.5607328,40.1478327 L38.8847202,40.9318979 C38.7983278,40.9717363 38.7292139,41.0335146 38.6831379,41.1097271 C29.6522518,36.209031 20.7595936,36.4232344 20.6616822,36.4261212 C20.4428215,36.4330496 20.2585177,36.5883615 20.2124417,36.8025649 C20.1606063,37.0173456 20.2700366,37.236168 20.4658594,37.3337431 L23.6854164,38.9347834 C21.5428847,38.4705799 19.025986,38.1547598 16.4514923,38.3320116 C16.2383911,38.3470232 16.0598468,38.5000256 16.0137708,38.7084553 C15.9676949,38.9163076 16.0656063,39.1293563 16.2556696,39.2303956 L19.4637075,40.9746231 C17.3672518,40.6391725 14.6487708,40.5306274 12.0454797,41.3337457 C11.8554164,41.3920599 11.722948,41.5618059 11.711429,41.759843 C11.6941506,41.9578801 11.8093404,42.1437925 11.9878847,42.226356 L14.009467,43.1536084 C12.4889607,43.1461026 10.5422518,43.3909065 8.31908728,44.2494521 C8.12902398,44.3239325 8.00807462,44.5133091 8.01383411,44.7194293 C8.0253531,44.9255495 8.16934044,45.102224 8.36516322,45.1576513 L11.0721252,45.911116 C9.41339107,46.2812086 7.23630247,47.1957589 4.68484677,49.2581159 C4.52358095,49.388601 4.46598601,49.6097328 4.54085943,49.8037283 C4.61573284,49.9983012 4.80003664,50.1235899 5.01313791,50.1085784 L6.6545936,50.0063843 C5.09953031,51.034676 3.09522652,52.9890653 1.07364424,56.7055804 C0.969973351,56.8989986 1.01028981,57.1397609 1.17155563,57.2887217 Z" id="Fill-42" fill="#292949"></path>
                        </g>
                        <path d="M391.518861,133.895008 C391.518861,133.895008 413.226392,184.287651 396.408671,254.343703 L378.306582,255.703403 C378.306582,255.703403 403.821139,198.701633 386.243165,134.560713 L391.518861,133.895008" id="Fill-44" fill="#2C314A"></path>
                        <path d="M369.275696,224.583868 C368.676709,225.511697 368.025886,226.555001 367.455696,227.755348 C366.787595,229.156042 366.223165,230.76632 365.969747,232.644497 C365.889114,233.229947 365.831519,233.804428 365.785443,234.366207 C365.814241,234.425676 365.843038,234.484567 365.866076,234.544036 C366.937342,232.702233 368.267785,230.966666 369.897722,229.660083 C370.548544,229.143339 371.274241,228.709159 372.051772,228.330983 C376.544177,226.141028 382.87962,226.100035 387.032215,226.386987 C387.239557,226.401421 387.400823,226.48283 387.521772,226.598303 C387.953734,226.471282 388.351139,226.343107 388.725506,226.208003 C389.036519,226.095416 389.203544,225.854654 389.25538,225.591951 C389.341772,225.135831 389.059557,224.612159 388.489367,224.569433 C388.074684,224.538256 387.636962,224.510542 387.181962,224.487447 C385.943671,224.423359 384.572911,224.393914 383.150316,224.434907 C383.956646,224.137562 384.745696,223.897955 385.528987,223.679133 C389.24962,222.636984 392.618924,222.362157 395.05519,221.763427 C396.132215,221.500147 396.086139,219.95107 395.003354,219.750724 C389.837089,218.799222 381.883228,217.948182 375.933671,220.053842 C374.908481,220.417583 373.929367,220.858692 373.048165,221.414697 C371.671646,222.281326 370.416076,223.370818 369.275696,224.583868" id="Fill-46" fill="#353A55"></path>
                        <path d="M393.891772,232.294612 C390.891076,231.807891 386.917025,231.344842 383.017848,231.423941 L383.029367,231.498422 C383.012089,231.709738 382.902658,231.914127 382.666519,232.030755 C381.583734,232.569439 380.14962,233.063665 378.577278,233.767477 C378.536962,233.872557 378.467848,233.971865 378.364177,234.055583 C377.016456,235.13526 374.931519,236.279026 372.915696,238.124292 C375.449873,237.005354 378.67519,236.527294 381.716203,236.363321 C386.485063,234.649694 391.040823,234.518054 394.047278,233.907777 C395.05519,233.703389 394.934241,232.46378 393.891772,232.294612" id="Fill-49" fill="#353A55"></path>
                        <path d="M403.049367,246.300972 C399.466962,243.733996 393.056646,239.272099 387.947975,237.307895 C387.873101,237.438957 387.740633,237.550389 387.539051,237.615054 C385.102785,238.404316 381.261203,238.926833 377.471456,240.945888 C378.110759,240.742654 378.755823,240.581569 379.412405,240.475911 C382.223038,240.023832 387.228038,242.147967 391.346076,244.227068 C395.026392,245.350048 399.184747,247.299241 401.845633,248.441274 C402.617405,248.771528 403.481329,248.253629 403.556203,247.418178 C403.596519,246.981111 403.406456,246.556169 403.049367,246.300972" id="Fill-50" fill="#353A55"></path>
                        <path d="M392.019937,249.201667 L392.400063,249.236886 C393.033608,249.150859 393.379177,248.298087 392.820506,247.807902 C392.751392,247.74901 392.682278,247.687232 392.613165,247.627763 C389.433924,246.648547 385.338924,245.468985 382.781709,245.693004 C383.328861,245.957438 383.864494,246.239194 384.382848,246.526723 C387.510253,247.332151 390.032911,248.58908 392.019937,249.201667" id="Fill-51" fill="#353A55"></path>
                        <g id="Group-55" stroke-width="1" fill="none">
                            <path d="M447.783354,251.347165 C447.783354,251.347165 411.21057,240.570021 385.868797,239.415286 C360.527025,238.260551 327.121962,245.188962 291.413101,242.494388 C255.702513,239.799813 214.810108,231.11505 194.65188,228.915279 C174.493652,226.714931 136.483873,225.201651 134.756025,225.206847 C133.028177,225.211466 119.202513,216.941253 89.2531456,209.317691 C59.3037785,201.693552 15.8196013,201.803742 15.8196013,201.803742 L15.8196013,276.559075 L447.783354,276.559075 L447.783354,251.347165" id="Fill-52" fill="#2C314A"></path>
                            <path d="M112.481759,58.8152816 C114.669215,59.2627415 116.812323,59.5450742 117.281146,59.6056978 C116.32507,59.7465755 115.352867,59.9584694 114.407158,60.209047 C114.366266,60.1235966 114.302911,60.0485388 114.221127,59.9925341 L112.481759,58.8152816 Z M106.147468,46.2015319 C106.123854,46.017929 106.008665,45.8591529 105.840487,45.7794762 L104.912633,45.3412542 C106.210247,45.0935635 107.376544,44.6997988 108.3355,44.3002604 C107.619019,44.9116927 106.889291,45.5456423 106.147468,46.2015319 Z M100.528506,50.8193179 C100.661551,50.7090407 100.733544,50.5421814 100.724329,50.3701259 C100.715114,50.197493 100.62469,50.0398716 100.481278,49.9451833 L99.1721456,49.0808641 C101.595165,48.8129655 103.795867,47.8470295 104.981747,47.2407935 C103.160595,48.878208 101.272633,50.6386018 99.3357152,52.5046539 L98.1279494,52.1616975 C99.5781899,51.5964546 100.476671,50.8620431 100.528506,50.8193179 Z M155.763778,54.5537314 C152.973304,50.6334055 150.444886,48.7003788 148.548861,47.7523412 L150.416665,47.6432188 C150.657411,47.631094 150.853234,47.4636574 150.911405,47.2344425 C150.970152,47.0046502 150.873392,46.7633106 150.672386,46.6374444 C147.511,44.6582283 144.929019,43.922662 143.004196,43.7315533 L145.957665,42.5109983 C146.174797,42.4215063 146.30957,42.202684 146.292291,41.9682727 C146.275589,41.7344388 146.110867,41.5369791 145.883943,41.4792424 C143.259342,40.8141149 141.028114,40.8037223 139.314665,41.0190804 L141.469291,39.6963313 C141.661658,39.5785483 141.761297,39.3533749 141.719829,39.1316658 C141.678361,38.9093792 141.504424,38.736169 141.282108,38.6963306 C138.236487,38.1449445 135.178772,38.6397486 132.85712,39.3054534 L136.244278,36.8966758 C136.440677,36.7569529 136.521886,36.5029111 136.442981,36.2742736 C136.3635,36.045636 136.143487,35.8966751 135.901589,35.9087999 C132.96943,36.0612249 130.168013,36.7615718 127.8095,37.5797017 L131.231215,35.3308549 C131.439709,35.1934414 131.528405,34.9324713 131.44662,34.6963279 C131.364835,34.460762 131.133304,34.3106464 130.885646,34.3325863 C130.774487,34.342979 120.704013,35.3169981 111.173778,42.0860557 C111.109272,42.006379 111.022304,41.9457554 110.922089,41.9122681 L108.921241,41.2563785 C112.330285,40.2944841 116.701741,38.158224 116.925209,38.0491015 C117.120456,37.9526811 117.239677,37.7494477 117.22931,37.5317802 C117.217791,37.3141126 117.078411,37.1241586 116.874525,37.0491009 L115.477848,36.5329342 C117.962494,36.0577607 120.282418,35.0213859 120.412006,34.9630718 C120.619924,34.8689608 120.747209,34.6541801 120.730506,34.4255425 C120.712652,34.1974823 120.554842,34.0040642 120.334829,33.9428632 L116.678127,32.9174584 C120.087171,32.2246173 123.709892,30.5935538 123.906291,30.5046392 C124.107297,30.4134151 124.23343,30.2096044 124.225367,29.9884726 C124.217304,29.7667634 124.076196,29.5727679 123.868854,29.4971328 L122.597734,29.0317745 C126.197994,28.4469011 129.560386,26.3389321 129.73893,26.225768 C129.943968,26.0952829 130.038424,25.8452828 129.970462,25.6120263 C129.901924,25.3787698 129.688247,25.2194163 129.445772,25.220571 L128.960247,25.2234579 C132.650354,23.6160665 136.143487,20.8487437 136.341038,20.6905449 C136.517854,20.5502446 136.588696,20.315256 136.520158,20.0998979 C136.452196,19.8845398 136.258677,19.7338468 136.033481,19.7217221 L130.601703,19.4139852 L137.180196,15.0225273 C137.373139,14.8937743 137.463563,14.6558989 137.404816,14.4313029 C137.34607,14.2061295 137.150247,14.0433119 136.919291,14.0259909 C132.360076,13.6870761 127.146006,15.9278397 125.013842,16.9642145 L125.490728,14.1593628 C125.526437,13.9526652 125.440044,13.7442355 125.268987,13.6229883 C125.098506,13.5023185 124.875038,13.4896164 124.690734,13.5923878 C120.338285,16.028879 114.98138,20.4555563 112.860734,22.2627169 L112.924665,19.0433152 C112.929272,18.8319987 112.810051,18.6374258 112.621139,18.5438922 C112.432804,18.4509361 112.207608,18.4763402 112.041734,18.60798 C109.664215,20.5202215 107.442778,23.2078676 106.341563,24.6241503 L105.777133,22.0294604 C105.732209,21.8244949 105.573247,21.662832 105.368209,21.6154878 C105.163171,21.5669889 104.950646,21.6432015 104.820481,21.8077512 C102.938278,24.1934341 101.5105,27.3822353 100.780772,29.2067169 L100.229013,27.5785403 C100.16393,27.3874316 99.9992089,27.2477087 99.7993544,27.2159534 C99.5995,27.1841982 99.4002215,27.2661844 99.2792722,27.4278473 C97.1142785,30.3331611 96.0988797,33.3325857 95.6323608,35.2748503 L95.3864304,34.5485218 C95.3207722,34.3545263 95.151443,34.2136486 94.9492848,34.1847802 C94.7482785,34.1553345 94.5449684,34.242517 94.4280506,34.410531 C93.2018544,36.1576453 92.0274937,38.0571847 90.9176392,40.0837449 C91.0967595,38.7292405 91.2182848,37.4111103 91.2822152,36.1403243 C91.2925823,35.9359361 91.1877595,35.742518 91.0097911,35.6403239 C90.8329747,35.5387072 90.612962,35.5444809 90.442481,35.657645 L90.1383797,35.8568368 C90.8185759,34.2933254 91.6133861,31.8637625 91.6750127,28.9520978 C91.6796203,28.7500191 91.5719177,28.5623747 91.3956772,28.4642222 C91.2194367,28.366647 91.0046076,28.3747302 90.8347025,28.4850074 L89.8095127,29.1587954 C90.2702722,27.5219583 90.9159114,24.7811943 90.9009367,22.3123705 C90.8992089,22.1016313 90.7771076,21.9105227 90.5870443,21.8221854 C90.3964051,21.7326934 90.1717848,21.7621392 90.010519,21.8966658 L88.4243544,23.2171055 C88.4185949,21.6495525 88.3183797,18.8192966 87.7476139,16.3920432 C87.6992342,16.185923 87.5368165,16.0265696 87.3300506,15.9838444 C87.1250127,15.9405418 86.9124873,16.0202185 86.7846266,16.1905419 L85.2687278,18.2182569 C84.7705316,15.8013962 83.5362722,10.2892678 81.9178544,6.43360705 C81.8366456,6.24018891 81.6517658,6.11085857 81.4432722,6.10162069 C81.2342025,6.09180544 81.0383797,6.20208265 80.9387405,6.38684028 L79.8772658,8.36259217 C78.9407722,6.47921909 76.6582848,2.41108705 73.5112975,0.303695352 C73.3183544,0.173210277 73.0643608,0.181870791 72.8806329,0.32332585 C72.6963291,0.464203542 72.6214557,0.70669793 72.6946013,0.927829716 L74.7190633,7.0490809 L71.1452975,4.56235869 C70.9598418,4.43360572 70.7139114,4.43071888 70.5290316,4.56062659 C70.343,4.68764746 70.2548797,4.91743976 70.3072911,5.13683944 C70.3550949,5.337186 71.1821582,8.74076794 72.6951772,11.6772595 L72.6842342,11.668599 C72.4941709,11.5184834 72.2286582,11.511555 72.0311076,11.6535874 C71.8341329,11.7950425 71.7546519,12.050239 71.8358608,12.2794539 C71.8946076,12.4434263 72.9722089,15.4151373 74.9465633,17.6732219 L74.154057,17.415716 C73.9444114,17.3470092 73.7140316,17.4145612 73.5711962,17.5831526 C73.4289367,17.7523213 73.403019,17.9907741 73.505538,18.1870791 C73.5873228,18.3429683 75.0473544,21.1085591 76.8627468,23.321609 L74.2070443,22.225188 C73.9962468,22.1391602 73.7537722,22.1928554 73.5982658,22.3626015 C73.4444873,22.5311928 73.4128101,22.7794609 73.5193608,22.9821169 C73.5723481,23.0837336 74.494443,24.8268064 75.8099114,26.393782 L74.8935759,26.0993245 C74.687962,26.0335046 74.461038,26.0964377 74.3176266,26.2615648 C74.1753671,26.4261146 74.1448418,26.6599484 74.2398734,26.8556761 C74.3285696,27.0398563 76.0310759,30.5358171 77.7566203,32.9630704 L76.337481,32.4486359 C76.1428101,32.3781971 75.9251013,32.4249638 75.7759304,32.568151 C75.6267595,32.7124929 75.5726203,32.9290057 75.6353987,33.1270428 C75.6739873,33.2454032 76.44,35.5929798 78.3049241,37.8112261 L77.7059367,37.6749673 C77.5463987,37.6385932 77.3816772,37.6755447 77.2532405,37.7754293 C76.4330886,35.7690769 75.6158165,33.8626091 74.8106392,32.0739243 C69.284981,19.7927383 58.8251646,13.5300321 58.7203418,13.4682538 C58.5055127,13.3418103 58.2319367,13.3793392 58.058,13.5560136 C57.8829114,13.7344202 57.8518101,14.0086698 57.9819747,14.2217185 L60.1135633,17.7217208 C58.3333038,15.972297 56.1003481,14.1362681 53.5137595,12.7407706 C53.3006582,12.6258744 53.0380253,12.6662902 52.8686962,12.8389231 C52.6993671,13.011556 52.6642342,13.2759904 52.7828797,13.4873069 L54.8154051,17.1166396 C52.9988608,15.5311882 50.4474051,13.7598244 47.4605316,12.9515098 C47.2422468,12.8920409 47.0118671,12.9740271 46.8793987,13.1570526 C46.7469304,13.3406555 46.7411709,13.5860368 46.8644241,13.7754133 L48.2472785,15.8955071 C46.7907025,14.9647906 44.7691203,14.0173303 42.1134177,13.4925032 C41.8853418,13.4486233 41.6515063,13.5537042 41.5357405,13.7586697 C41.4199747,13.9636352 41.4487722,14.2188316 41.6065823,14.3931966 L43.7537215,16.7632906 C41.9325696,16.1097105 39.2849304,15.6668695 35.5833038,16.0998952 C35.3500443,16.1316505 35.1594051,16.3042834 35.1127532,16.5369625 C35.0678291,16.770219 35.1784114,17.0046302 35.3857532,17.1183717 L37.0272089,18.0190651 C34.909443,18.0617903 31.7987405,18.725763 27.6023734,21.0698754 C27.3835127,21.1922774 27.276962,21.4486286 27.3437722,21.6905456 C27.4100063,21.9324626 27.6328987,22.0970124 27.8834367,22.090084 L30.4360443,22.0144488 C28.6229557,22.8019782 26.5086456,24.0929721 24.4715127,26.2072923 C24.3050633,26.3805025 24.2710823,26.6420501 24.3885759,26.8522119 C24.5054937,27.0617963 24.7456646,27.169764 24.9800759,27.1172236 L32.5163734,25.4411255 L29.450019,27.2084477 C29.2305823,27.3354685 29.1274873,27.5981708 29.2017848,27.8406652 C29.2766582,28.0837369 29.5087658,28.2430904 29.7621835,28.2240372 C29.9557025,28.2090257 33.4931835,27.9347761 36.9195063,27.3914732 L34.9232658,28.5808504 C34.7326266,28.6951692 34.6295316,28.9139915 34.6646646,29.1345459 C34.6997975,29.354523 34.8650949,29.5311975 35.0816519,29.5802737 C35.2463734,29.6172252 38.3467089,30.2817753 41.6013987,28.9128368 L39.7094051,31.327388 C39.5746329,31.4994436 39.5556266,31.7361643 39.6610253,31.927273 C39.767,32.118959 39.9766456,32.2286589 40.1937785,32.2049868 C40.3988165,32.1836242 44.0866203,31.7783121 47.6085506,30.6328148 L45.9653671,32.0329312 C45.8092848,32.1657258 45.7413228,32.3758876 45.7891266,32.5756568 C45.8369304,32.7742712 45.9924367,32.9301605 46.1917152,32.9775046 C46.3138165,33.0069504 48.3273354,33.472886 50.4013291,33.1449412 L49.4746266,34.017921 C49.3202722,34.1628403 49.2638291,34.3839721 49.3300633,34.5854734 C49.3962975,34.7863973 49.5731139,34.9313165 49.7839114,34.955566 C49.9054367,34.9694228 52.3198165,35.2402082 55.5658671,34.9330486 L54.0528481,35.9809708 C53.8679684,36.1085691 53.7815759,36.3372066 53.8334114,36.5560289 C53.8858228,36.7742739 54.0666709,36.9382463 54.2889873,36.9682694 C54.3932342,36.9821262 56.4562848,37.2569532 58.7364684,37.25984 L56.3410949,39.5352457 C56.203443,39.6657308 56.1441203,39.8591489 56.1838608,40.0450613 C56.2241772,40.2309736 56.3577975,40.382244 56.5374937,40.4445997 C56.6256139,40.4752001 58.1438165,40.9896347 60.3381835,40.9723136 L60.06,41.1195424 C59.8676329,41.2211591 59.7535949,41.428434 59.7720253,41.6461016 C59.7904557,41.8637692 59.9355949,42.0496815 60.1429367,42.1183883 C60.2771329,42.1628456 62.5233354,42.9041856 64.9014304,43.4907911 L62.8262848,43.8089206 C62.5901456,43.8412532 62.4087215,44.0283203 62.3724367,44.2621542 C62.335,44.4965654 62.4536456,44.7275124 62.665019,44.8331707 C62.7940316,44.8978359 65.2827089,46.1299383 68.5137848,46.4509547 L66.8204937,47.2125025 C66.6189114,47.3031492 66.4927785,47.5058053 66.4996899,47.7269371 C66.5071772,47.9474915 66.645981,48.1420644 66.8521709,48.2194316 C66.9892468,48.2708173 69.3350886,49.1403329 71.8387405,49.5196634 L70.9828797,49.8071925 C69.7601392,49.4665456 68.5097532,49.1264761 67.2841329,48.8066145 C67.0831266,48.7552287 66.8688734,48.8222034 66.7335253,48.9809795 C66.6747785,49.0502636 66.6356139,49.1316724 66.6171835,49.2165454 C64.7954557,47.3019945 62.1109557,44.9792447 59.628038,44.742524 C59.4178165,44.7211614 59.217962,44.8245102 59.1108354,45.0040715 C59.002557,45.1842102 59.0077405,45.4099609 59.1235063,45.5849033 L59.5548924,46.2384834 C56.5634114,44.232131 51.3119051,41.1218518 46.9007089,40.663422 C46.6737848,40.6391725 46.4555,40.7609971 46.3558608,40.9676947 C46.2562215,41.1738149 46.295962,41.4203509 46.4555,41.5849006 L47.6983987,42.8626151 C44.1793481,41.6443695 37.2345506,39.6051072 31.3068797,40.0877865 C31.0574937,40.1108812 30.8559114,40.2962162 30.815019,40.5433295 C30.7747025,40.7898655 30.9077468,41.0329372 31.1369747,41.1316671 L37.8225949,44.0023387 L33.8980759,44.5958726 C33.6803671,44.6270505 33.5000949,44.7939097 33.4499873,45.0115773 C33.3998797,45.2286675 33.4874241,45.4549956 33.67,45.5820165 C33.8422089,45.7009542 37.3848734,48.1230112 41.0594304,48.3210483 L39.4692342,49.6103101 C39.3177595,49.7332894 39.2428861,49.929017 39.2745633,50.1218578 C39.3068165,50.3146986 39.4387089,50.4763615 39.6218608,50.5439135 C39.7664241,50.5981861 42.4618671,51.5808657 45.4101519,51.4047686 L44.5226139,52.0277482 C44.3469494,52.1513049 44.260557,52.3672404 44.3014494,52.5785569 C44.3342785,52.7477256 44.4454367,52.8891807 44.5963354,52.9625064 L44.5168544,53.0583494 C44.4022405,53.2361786 44.4005127,53.4648162 44.5128228,53.6443775 L45.3168481,54.9272883 C43.0700696,54.0260175 38.8955886,52.6235916 35.2475253,52.911698 C35.0280886,52.9295964 34.8357215,53.0814441 34.7706392,53.2956475 C34.705557,53.5092735 34.7781266,53.7419526 34.9532152,53.8805208 L35.5429873,54.3493433 C33.430981,53.9521144 30.1682278,53.585486 26.6693354,54.1143547 C26.457962,54.1455326 26.2782658,54.3066181 26.2241266,54.518512 C26.1699873,54.7304059 26.2483165,54.9544245 26.4222532,55.0866417 L28.6845823,56.8043103 C19.9462785,57.9319092 13.8636772,61.2038513 13.5975886,61.3499253 C13.3804557,61.4677083 13.2704494,61.7182859 13.3291962,61.9584708 C13.388519,62.1992331 13.6021962,62.3689791 13.8492785,62.371866 L19.0397342,62.4434595 C16.1628671,63.1155154 12.7728291,64.2471559 9.57918987,66.1432311 C9.373,66.265633 9.27105696,66.5081274 9.32807595,66.7419613 C9.38509494,66.9746404 9.58725316,67.1426544 9.8268481,67.1553564 L14.8433671,67.4255645 C12.1905443,68.2182902 8.69568354,69.6911549 5.85798101,72.3707179 C5.69441139,72.5254524 5.64257595,72.7644826 5.72781646,72.9729123 C5.81248101,73.181342 6.01636709,73.3158686 6.24098734,73.3112497 L9.3718481,73.2494714 C7.53860127,74.1022433 5.22674051,75.5733759 2.87225949,78.103978 C2.71156962,78.2760336 2.67989241,78.5323848 2.79393038,78.738505 C2.90739241,78.9446253 3.1406519,79.0543251 3.37160759,79.0098678 L7.11067089,78.2927773 C5.30852532,79.6738405 3.08766456,82.0895465 0.964139241,86.3054847 C0.85528481,86.5208428 0.901360759,86.7818129 1.07644937,86.9469401 C1.25211392,87.1126445 1.51417089,87.143245 1.72266456,87.0208431 L3.72927215,85.8470548 C2.36772785,87.9665712 0.863924051,91.5462503 0.191791139,97.4423281 C0.162417722,97.6963698 0.313892405,97.9359774 0.55521519,98.0191183 C0.795962025,98.1022593 1.06320253,98.0064162 1.19509494,97.7870165 L2.91142405,94.9538738 C2.40055696,97.300873 2.13446835,100.317619 2.69601899,103.811847 C2.73460759,104.053764 2.93043038,104.239677 3.17348101,104.266236 C3.41710759,104.292795 3.64691139,104.152494 3.73733544,103.924434 L7.27078481,94.9452133 L6.81060127,99.457341 C6.78525949,99.7154243 6.94306962,99.9556092 7.18957595,100.032399 C7.43435443,100.109766 7.70217089,100.001799 7.8271519,99.7754705 C7.85479747,99.7246622 10.0503165,95.72235 11.840943,91.7916315 L11.5742785,94.7979845 C11.5541203,95.0271995 11.6796772,95.2442897 11.8875949,95.3407101 C12.0966646,95.4365531 12.3437468,95.390941 12.5027089,95.227546 C12.6432405,95.0837815 15.3156456,92.3037565 16.1525,88.0520216 L17.1016646,91.6571048 C17.1592595,91.8747724 17.3441392,92.0352806 17.5676076,92.0595301 C17.7887722,92.0837795 18.0053291,91.968306 18.1095759,91.7679594 C18.2247658,91.5445182 20.3436835,87.4024831 21.6021329,83.0404709 L21.7875886,85.8118354 C21.8019873,86.024884 21.9390633,86.2096416 22.1383418,86.2846994 C22.3381962,86.3603346 22.5633924,86.3112583 22.7131392,86.1605654 C22.8191139,86.0543298 24.5999494,84.2535202 25.6332025,81.9042115 L25.8163544,83.5191087 C25.8405443,83.7373536 25.9943228,83.9192244 26.2045443,83.9804254 C26.4153418,84.0416263 26.6416899,83.9694554 26.7787658,83.799132 C26.8720696,83.6825037 28.7254747,81.3562897 30.5817595,77.8072111 L30.5218608,80.1588293 C30.5161013,80.3909311 30.6566329,80.6010929 30.8731899,80.6825017 C31.0891709,80.7639105 31.3333734,80.698668 31.4819684,80.5214161 C31.5626013,80.4244184 33.1833228,78.4665649 34.6784873,76.131113 L35.1432785,80.0762657 C35.1668924,80.2743028 35.2959051,80.4434715 35.4807848,80.5173746 C35.6645127,80.5924324 35.8753101,80.558945 36.0285127,80.4319242 C36.1137532,80.3614853 37.605462,79.1103298 39.0309367,76.8037462 L38.9549114,77.3632154 C38.924962,77.5866567 39.0349684,77.805479 39.232519,77.9140241 C39.4294937,78.0231466 39.6725443,77.9965877 39.8447532,77.8522458 C39.9743418,77.7419686 42.1911709,75.8545539 44.2968418,73.765638 L43.1092342,76.3233764 C43.0067152,76.5427761 43.0614304,76.8025915 43.2422785,76.961945 C43.4231266,77.1218758 43.6851835,77.1432384 43.8913734,77.013908 C44.033057,76.9238387 46.7930063,75.1530523 49.1803165,72.0369994 L48.719557,74.4024744 C48.6757848,74.6264931 48.776,74.8528212 48.969519,74.9717589 C49.163038,75.0901192 49.4106962,75.0751077 49.5886646,74.9353847 C49.7240127,74.827417 52.0957722,72.945776 54.0672468,70.6091694 L53.5206709,72.5063993 C53.4625,72.7079006 53.5252785,72.9249908 53.6819367,73.0641364 C53.838019,73.2038593 54.0620633,73.2413882 54.2527025,73.159402 C54.3390949,73.1236052 56.0151076,72.4111336 57.5782342,71.3660983 L57.4958734,72.243697 C55.4967532,73.968294 53.6629304,75.7512051 52.0427848,77.546241 C51.9051329,77.6980886 51.8648165,77.9140241 51.937962,78.1057102 C52.0105316,78.2968188 52.1850443,78.4313455 52.3883544,78.4527081 L53.1497595,78.5335395 C51.3625886,79.4174893 48.6671456,81.0716475 46.3178481,83.8297324 C46.1871076,83.9838896 46.1513987,84.1975156 46.2268481,84.3857374 C46.3011456,84.5728045 46.4733544,84.703867 46.6737848,84.7252296 L48.3797468,84.9053683 C46.7653608,86.0219972 43.9777658,88.120151 42.0713734,90.4862034 C41.939481,90.6501758 41.9135633,90.8753491 42.0045633,91.0647257 C42.0967152,91.2546796 42.2885063,91.3747721 42.4981519,91.37304 L45.147519,91.3528321 C44.0117468,92.7419785 41.8859177,95.5064146 40.5502911,98.2523748 C40.4581392,98.4429061 40.483481,98.6692342 40.6159494,98.833784 C40.7484177,98.9983337 40.9643987,99.0710821 41.1682848,99.0202737 L44.2870506,98.2477559 C42.9963481,100.719467 39.8706709,106.933674 38.459019,111.726402 C38.3996962,111.927904 38.4613228,112.144416 38.6162532,112.285294 C38.7717595,112.425594 38.9935,112.467742 39.1875949,112.384024 L41.8110443,111.29915 C41.2736835,113.61324 40.2421582,119.206199 41.5783608,123.588419 C41.6451709,123.810129 41.8467532,123.966018 42.0788608,123.973524 C42.3098165,123.985071 42.5217658,123.840152 42.6047025,123.624216 L45.4274304,116.223518 L46.9231709,121.467171 C46.9853734,121.684261 47.1748608,121.840728 47.399481,121.859781 C47.6241013,121.879411 47.8372025,121.757009 47.934538,121.554353 C48.0445443,121.326293 49.9670633,117.300886 50.7175253,113.337258 L50.8217722,113.812431 C50.8736076,114.049729 51.0763418,114.223517 51.3182405,114.239106 C51.5601392,114.252963 51.7830316,114.106889 51.8636646,113.878251 C51.9350823,113.677905 53.246519,109.921551 53.0201709,106.276052 L53.7533544,107.417508 C53.8731519,107.602843 54.0931646,107.698686 54.3097215,107.657115 C54.5343418,107.610349 54.6979114,107.448108 54.7416835,107.231018 C54.7848797,107.019702 55.5693228,103.11381 55.4956013,99.6311286 L57.2994747,102.981015 C57.4077532,103.181939 57.6306456,103.293949 57.8569937,103.259884 C58.0873734,103.233325 58.2636139,103.054341 58.3091139,102.830322 C58.3379114,102.692332 58.8372595,100.193485 58.7485633,97.6611504 L59.5583481,98.912306 C59.6769937,99.0953315 59.8929747,99.1894424 60.1066519,99.1524909 C60.3197532,99.1236225 60.491962,98.9532991 60.5426456,98.7419825 C60.5996646,98.4994882 61.7147025,93.7535266 61.8990063,90.2084896 L62.9783354,92.0196917 C63.0843101,92.1980983 63.2830127,92.3002923 63.4897785,92.2829713 C63.6953924,92.2633408 63.8756646,92.1328557 63.950538,91.9394376 C63.9948861,91.8256962 64.860538,89.5762721 64.9786076,86.6010969 L66.2652785,88.625925 C66.3821962,88.8095279 66.5964494,88.9065257 66.8107025,88.8713062 C67.0261076,88.8372415 67.1983165,88.6767333 67.2507278,88.4654168 L68.5080253,83.4215335 L70.7732342,87.3736147 C70.8907278,87.5774255 71.1257152,87.6830837 71.355519,87.6345849 C71.5928101,87.5797349 71.7586835,87.3955547 71.7846013,87.1617208 L72.0691203,84.5560609 L75.2138038,89.1692279 C75.3382089,89.3528308 75.5616772,89.4417454 75.7776582,89.3944013 C75.9913354,89.3366645 76.1589367,89.1721147 76.1969494,88.9538698 L76.8230063,85.2818119 L82.8560759,85.5087174 L84.7670759,89.18193 C84.8580759,89.3557176 85.0348924,89.4677269 85.2312911,89.474078 C85.4288418,89.4798517 85.6119937,89.3799671 85.7133608,89.2119531 L87.0962152,86.9215359 L88.3667595,91.6068739 C88.4232025,91.8153036 88.5971392,91.9706154 88.8102405,92.002948 C89.021038,92.0335485 89.2341392,91.9377055 89.350481,91.7552573 L90.851981,89.3741934 C90.8053291,91.0433631 90.9821456,92.2517935 90.9930886,92.3228097 C91.023038,92.5202694 91.1578101,92.6853965 91.3455696,92.7535259 C91.5321772,92.8216553 91.7423987,92.7795074 91.8909937,92.6478676 L92.6575823,91.963687 C91.9042405,95.4325115 92.478462,98.4486798 92.5078354,98.5970633 C92.5475759,98.800874 92.6996266,98.9636917 92.899481,99.0168095 C93.0999114,99.0728142 93.3124367,99.0069943 93.4489367,98.8499503 L94.8346709,97.2621894 C94.3819747,100.782977 94.6296329,105.65134 94.6423038,105.900186 C94.6543987,106.117853 94.7937785,106.307807 94.9982405,106.383443 C95.2009747,106.456768 95.4307785,106.404228 95.5805253,106.245452 L96.6011076,105.159423 C96.0602911,107.63633 96.1052152,110.184253 96.1080949,110.325708 C96.1127025,110.554923 96.2601456,110.755847 96.4767025,110.830328 C96.6926835,110.903653 96.9328544,110.832637 97.0751139,110.655385 L99.4486013,107.684252 C98.7528544,111.095917 98.826,115.078598 98.8300316,115.295111 C98.8352152,115.516243 98.9728671,115.711971 99.179057,115.791647 C99.3852468,115.871902 99.6185063,115.817052 99.7694051,115.655966 L100.695532,114.665203 C99.8206646,118.210818 100.438658,122.142114 100.472639,122.352275 C100.511228,122.591883 100.704171,122.776063 100.944918,122.805509 C101.185089,122.8338 101.416044,122.699273 101.509348,122.475255 L101.697684,122.026063 C101.725905,126.059553 102.897386,130.36556 102.964772,130.609787 C103.025247,130.828032 103.213006,130.985076 103.437051,131.006438 C103.662823,131.028956 103.8765,130.908863 103.975563,130.70563 L106.385911,125.817058 L107.83788,133.60517 C107.8805,133.83323 108.063652,134.009327 108.29288,134.042814 C108.368329,134.054362 108.443778,134.049165 108.51462,134.030112 C108.658608,133.990851 108.783013,133.892699 108.855006,133.754131 C110.95319,129.682534 110.939367,123.996618 110.824177,121.62306 L113.212063,123.162322 C113.387728,123.276064 113.615228,123.277218 113.790316,123.167518 C113.968285,123.057241 114.067924,122.855163 114.045462,122.646155 C113.514437,117.676175 111.550449,111.001806 110.723386,108.337832 L113.653241,109.658849 C113.845032,109.744299 114.07138,109.713121 114.230342,109.573976 C114.38988,109.435985 114.455538,109.218317 114.399095,109.014507 C113.574911,106.071664 111.978956,102.970623 111.110424,101.399606 L113.712563,101.894987 C113.918177,101.93598 114.129551,101.852262 114.252804,101.681938 C114.376633,101.511615 114.391608,101.284709 114.290816,101.099374 C112.839424,98.430204 110.471696,95.8638051 109.083658,94.4758134 L110.794228,94.6045664 C110.994658,94.6161137 111.187601,94.5220028 111.295304,94.3505247 C111.40243,94.1790465 111.40531,93.9619563 111.304519,93.7881686 C109.486823,90.6519079 107.132342,88.5404746 105.531778,87.3493653 L106.294911,87.4076794 C106.496494,87.4203815 106.694044,87.322229 106.800019,87.1467092 C106.905994,86.9711895 106.904842,86.7512124 106.797139,86.5774248 C105.808234,84.9792713 104.696652,83.3724573 103.475639,81.7731491 L106.172234,83.5964759 C106.363449,83.7263836 106.618019,83.7177231 106.802899,83.5803096 C106.988354,83.4405867 107.06438,83.1980923 106.992962,82.9769605 C106.347323,80.9861971 105.060076,78.5046712 103.165203,75.5999348 L103.389823,74.4815738 C104.85619,76.2956628 107.328741,77.8759179 107.454873,77.9561719 C107.632266,78.0681813 107.85631,78.069336 108.034278,77.9573267 C108.211095,77.8458947 108.30843,77.642084 108.284816,77.4336543 L108.060196,75.4717592 C109.617563,78.1045554 111.644905,80.3551343 111.761247,80.4838873 C111.913297,80.6513239 112.151741,80.7125248 112.365418,80.6224555 C112.576215,80.5375824 112.711563,80.3308848 112.70638,80.103402 L112.643025,77.692315 C114.481456,81.1634489 116.910234,83.3689931 117.034639,83.4810024 C117.213759,83.642088 117.47812,83.6663374 117.683158,83.5381618 C117.888196,83.4111409 117.984956,83.1640276 117.920449,82.9307711 L117.172867,80.2107924 C118.903595,82.6207247 120.777734,84.8510957 120.887165,84.9810034 C121.031728,85.1519042 121.258076,85.2223431 121.480392,85.1443984 C121.692918,85.069918 121.837481,84.8730357 121.844968,84.6472849 L121.862823,84.0837742 C122.886861,86.5947458 124.149918,88.0768484 124.221911,88.1605667 C124.352652,88.3112597 124.554234,88.3788117 124.748329,88.3355091 C124.955095,88.3077955 125.099082,88.1490194 125.153797,87.9561786 L126.26538,84.143243 C127.353924,86.6957852 128.627924,88.8967104 128.691278,89.0058329 C128.80762,89.2056021 129.038,89.3101056 129.264924,89.2662257 C129.498184,89.2246552 129.665785,89.0370107 129.698614,88.8072184 L130.028057,86.4781176 C131.270956,90.2875889 132.713709,92.8897847 132.786278,93.019115 C132.893405,93.2113784 133.105354,93.3187688 133.322487,93.293942 C133.540772,93.2662283 133.72162,93.1143806 133.782671,92.9036415 L134.229608,91.3418621 C134.859696,93.8303165 136.317424,95.9030661 136.404968,96.025468 C136.528222,96.1992557 136.742475,96.2841287 136.950968,96.243713 C137.170981,96.2032972 137.326487,96.0422117 137.374867,95.8349367 L138.016475,93.1334338 C138.535981,97.6444068 139.93957,102.081477 140.016171,102.321662 C140.084709,102.535288 140.277652,102.685403 140.502272,102.69926 C140.725165,102.707921 140.935962,102.585519 141.02869,102.379398 L142.560715,98.9821675 C142.682241,103.313002 144.856449,106.499493 144.971063,106.664621 C145.10238,106.85342 145.337367,106.939448 145.559108,106.878824 C145.780272,106.818778 145.940386,106.62536 145.958241,106.395567 L146.193804,103.386905 C147.308266,107.560695 148.810342,111.873631 148.829924,111.929058 C148.914589,112.17213 149.159943,112.322823 149.416241,112.288181 C149.669082,112.252384 149.867209,112.041645 149.884487,111.783562 L150.178222,107.257 L152.17619,116.700424 C152.226873,116.940032 152.431335,117.116706 152.675538,117.130563 C152.919165,117.14442 153.143785,116.994304 153.222114,116.762202 C154.353854,113.408851 154.591146,110.390951 154.47538,107.991989 L155.698696,111.069935 C155.792576,111.307811 156.039658,111.447534 156.290772,111.405386 C156.54419,111.363815 156.731949,111.153076 156.745772,110.896725 C157.058513,104.970624 156.168671,101.190598 155.175734,98.8736223 L156.961753,100.366695 C157.146057,100.520275 157.410994,100.530667 157.610848,100.401337 C157.810703,100.267388 157.899399,100.017388 157.827981,99.7864405 C156.43188,95.2748902 154.640677,92.5231562 153.091949,90.8609149 L156.662259,92.1917472 C156.88112,92.2737334 157.129354,92.2061814 157.276797,92.0196917 C157.423089,91.8355114 157.434032,91.5780055 157.304443,91.3817005 C155.401506,88.4937078 153.365525,86.659411 151.698728,85.5121816 L154.776025,86.0953229 C154.996038,86.1357386 155.220082,86.0381635 155.338728,85.8464774 C155.456797,85.6553688 155.445278,85.4105649 155.30993,85.2315809 C152.954873,82.1161054 149.752595,80.0826168 147.267373,78.8591749 L152.259703,79.4284593 C152.496994,79.4538635 152.723918,79.3239558 152.819525,79.102824 C152.914557,78.8828469 152.854082,78.6259184 152.671506,78.4711838 C149.835532,76.069912 146.682209,74.3909271 143.955089,73.2483166 L149.084494,74.0421971 C149.32812,74.0785712 149.567139,73.9469314 149.665627,73.7200259 C149.764114,73.4931205 149.696728,73.2281088 149.502633,73.0751063 C149.263038,72.8868845 143.804766,68.6478517 135.376899,66.0826075 L137.89207,64.7644773 C138.085589,64.6634379 138.199627,64.4555856 138.181772,64.2373407 C138.163342,64.0190957 138.017051,63.8331833 137.809709,63.765054 C134.447316,62.6611271 131.169013,62.4798337 129.020146,62.5208268 L129.679608,62.1565079 C129.874854,62.0485401 129.984285,61.8314499 129.956063,61.6091634 C129.927266,61.3874542 129.766,61.2055834 129.549443,61.1513109 C125.999867,60.2610101 121.651449,60.9486549 119.286601,61.4636667 L120.291057,60.3326036 C120.432165,60.1738276 120.467873,59.9486542 120.384361,59.7540813 C120.300272,59.5595084 120.111937,59.4319102 119.900563,59.4261365 C119.199057,59.406506 118.46069,59.4526954 117.707348,59.5473837 C117.787405,59.5006169 117.855943,59.4330649 117.904323,59.3487693 C118.013753,59.1599701 117.99993,58.9244041 117.86919,58.7494617 L117.680854,58.4971521 C119.656937,59.4538502 121.248861,59.6409173 121.341013,59.6513099 C121.529924,59.6732499 121.715956,59.5935731 121.831146,59.4417255 C121.946911,59.2904551 121.975709,59.090686 121.906595,58.9128567 L120.713228,55.8285591 C122.776278,56.8043103 124.756968,57.4417241 124.857184,57.4734793 C125.071437,57.5416087 125.30412,57.4717472 125.445228,57.2962275 C125.586335,57.1212851 125.604766,56.8770586 125.492456,56.6824857 L124.572665,55.0866417 C127.374658,56.7563888 129.67212,57.5473824 129.788462,57.5866434 C129.990044,57.6553501 130.211209,57.6010776 130.356348,57.4469204 C130.502639,57.293918 130.545835,57.069322 130.468658,56.8718623 L130.003291,55.6859493 C131.738051,56.8718623 133.756753,57.3147033 133.87943,57.3406848 C134.080437,57.38341 134.286627,57.3083522 134.415639,57.1489988 C134.544076,56.9890679 134.571722,56.770823 134.487057,56.5837559 L133.600671,54.6137777 C136.292082,57.1582366 139.45462,59.108007 139.630285,59.21482 C139.816316,59.3297161 140.053032,59.3199009 140.229848,59.19288 C140.407241,59.0652818 140.491329,58.8429953 140.442949,58.6299466 L139.763905,55.6357183 C142.122418,58.2737108 145.206051,58.9994619 145.370772,59.035836 C145.586177,59.0843349 145.812525,58.9959977 145.938082,58.8123948 C146.063639,58.6282145 146.064791,58.3857201 145.940386,58.2009625 L144.643924,56.2696679 C147.508696,58.2298309 150.589449,59.9959983 150.758203,60.0924187 C150.979943,60.2188622 151.256975,60.1755597 151.428032,59.9867605 C151.599089,59.799116 151.618095,59.517938 151.473532,59.3089309 L149.456557,56.3961114 L155.552981,61.1438051 C155.741316,61.2916112 156.005101,61.2979623 156.200924,61.1582393 C156.396171,61.0190937 156.476804,60.7679388 156.400203,60.5398786 C155.461981,57.7546574 154.103316,55.6813303 152.800519,54.191722 L155.074943,55.3545403 C155.298411,55.4688591 155.569684,55.4151639 155.733253,55.2252099 C155.896247,55.0346786 155.908918,54.7575422 155.763778,54.5537314 Z" id="Fill-54" fill="#292949"></path>
                        </g>
                        <path d="M81.9996392,74.8799574 C81.9996392,74.8799574 47.9270506,127.13923 53.2286646,208.922772 L73.2561519,213.964346 C73.2561519,213.964346 55.6850886,145.121921 87.7856266,76.6513212 L81.9996392,74.8799574" id="Fill-56" fill="#292949"></path>
                    </g>
                </g>
            </g>
        </g>
    </g>
</svg>