<?xml version="1.0" encoding="UTF-8"?>
<svg width="180px" height="46px" viewBox="0 0 180 46" version="1.1" xmlns="http://www.w3.org/2000/svg" xmlns:xlink="http://www.w3.org/1999/xlink">
    <!-- Generator: Sketch 52.5 (67469) - http://www.bohemiancoding.com/sketch -->
    <title>Partbnb Logo - RGB</title>
    <desc>Created with Sketch.</desc>
    <g id="Pages" stroke="none" stroke-width="1" fill="none" fill-rule="evenodd">
        <g id="404_lg" transform="translate(-630.000000, -14.000000)">
            <g id="Partbnb-Logo---RGB" transform="translate(630.000000, 14.354067)">
                <path d="M171.406155,30.6899735 C168.692823,30.6899735 166.610977,28.7158349 166.610977,25.619382 C166.610977,22.5207478 168.692823,20.5476998 171.406155,20.5476998 C174.120571,20.5476998 176.169923,22.5207478 176.169923,25.619382 C176.169923,28.7158349 174.120571,30.6899735 171.406155,30.6899735 Z M171.827507,17.3290903 C169.778156,17.3290903 167.968184,18.0271283 166.671634,19.4853733 L166.671634,11.1961722 L162.901131,11.1961722 L162.901131,33.7253481 L166.490745,33.7253481 L166.490745,31.6301434 C167.756967,33.1789152 169.626513,33.9391222 171.827507,33.9391222 C176.532783,33.9391222 180,30.6594344 180,25.619382 C180,20.578239 176.532783,17.3290903 171.827507,17.3290903 Z M152.463736,17.3290903 C150.112182,17.3290903 148.15165,18.1187458 146.915757,19.6064392 L146.915757,17.5112346 L143.327225,17.5112346 L143.327225,33.7253481 L147.096645,33.7253481 L147.096645,25.5277645 C147.096645,22.2786159 148.905534,20.6382266 151.590704,20.6382266 C154.001833,20.6382266 155.419698,22.0353933 155.419698,24.9202533 L155.419698,33.7253481 L159.188035,33.7253481 L159.188035,24.4338081 C159.188035,19.5453609 156.325226,17.3290903 152.463736,17.3290903 Z M132.226933,30.6899735 C129.512517,30.6899735 127.431754,28.7158349 127.431754,25.619382 C127.431754,22.5207478 129.512517,20.5476998 132.226933,20.5476998 C134.941349,20.5476998 136.9907,22.5207478 136.9907,25.619382 C136.9907,28.7158349 134.941349,30.6899735 132.226933,30.6899735 Z M132.648285,17.3290903 C130.59785,17.3290903 128.787879,18.0271283 127.492412,19.4853733 L127.492412,11.1961722 L123.721908,11.1961722 L123.721908,33.7253481 L127.311523,33.7253481 L127.311523,31.6301434 C128.577745,33.1789152 130.44729,33.9391222 132.648285,33.9391222 C137.352478,33.9391222 140.820778,30.6594344 140.820778,25.619382 C140.820778,20.578239 137.352478,17.3290903 132.648285,17.3290903 Z M120.642465,30.14245 C120.070553,30.598356 119.316669,30.8121302 118.531374,30.8121302 C117.114592,30.8121302 116.301133,29.9603057 116.301133,28.3820855 L116.301133,20.6687658 L120.61322,20.6687658 L120.61322,17.6323006 L116.301133,17.6323006 L116.301133,13.9283365 L112.53063,13.9283365 L112.53063,28.4726123 C112.53063,32.0555103 114.551819,33.9391222 118.079693,33.9391222 C119.436901,33.9391222 120.794109,33.5737429 121.698553,32.8451658 L120.642465,30.14245 Z M104.807652,19.880201 L104.807652,17.5112346 L101.21912,17.5112346 L101.21912,33.7253481 L104.98854,33.7253481 L104.98854,25.8615139 C104.98854,22.551287 106.798512,20.8509101 109.663488,20.8509101 C109.93428,20.8509101 110.206154,20.8825399 110.53652,20.9425275 L110.53652,17.3290903 C107.853516,17.3290903 105.892985,18.1787334 104.807652,19.880201 Z M88.8526063,30.6899735 C86.1381905,30.6899735 84.087756,28.7158349 84.087756,25.619382 C84.087756,22.5207478 86.1381905,20.5476998 88.8526063,20.5476998 C91.5962675,20.5476998 93.646702,22.5207478 93.646702,25.619382 C93.646702,28.7158349 91.5962675,30.6899735 88.8526063,30.6899735 Z M93.5860447,17.5112346 L93.5860447,19.4853733 C92.2905773,18.0271283 90.4806058,17.3290903 88.4301713,17.3290903 C83.7259783,17.3290903 80.2880073,20.578239 80.2880073,25.619382 C80.2880073,30.6594344 83.7259783,33.9391222 88.4301713,33.9391222 C90.6322491,33.9391222 92.5007117,33.1789152 93.7669335,31.6301434 L93.7669335,33.7253481 L97.3565479,33.7253481 L97.3565479,17.5112346 L93.5860447,17.5112346 Z M70.5145942,30.6899735 C67.8001785,30.6899735 65.7194153,28.7158349 65.7194153,25.619382 C65.7194153,22.5207478 67.8001785,20.5476998 70.5145942,20.5476998 C73.2279268,20.5476998 75.2783613,22.5207478 75.2783613,25.619382 C75.2783613,28.7158349 73.2279268,30.6899735 70.5145942,30.6899735 Z M70.9359461,17.3290903 C68.7349514,17.3290903 66.8654056,18.0871159 65.5991838,19.6358877 L65.5991838,17.5112346 L62.0095694,17.5112346 L62.0095694,39.6172249 L65.7800726,39.6172249 L65.7800726,31.7523001 C67.07554,33.2399935 68.8855115,33.9391222 70.9359461,33.9391222 C75.6412222,33.9391222 79.1084387,30.6594344 79.1084387,25.619382 C79.1084387,20.6087781 75.6412222,17.3290903 70.9359461,17.3290903 Z" id="Fill-1" fill="#FFFFFF"></path>
                <path d="M22.8256872,30.2060343 L16.0772326,30.2060343 L16.0772326,21.5116713 L22.8235106,17.558155 L29.5741418,21.5158872 L29.5741418,30.2060343 L22.8256872,30.2060343 Z M20.2181566,0.822902649 L5.34783193,9.54361545 C0.700855467,12.2692334 0,14.102122 0,18.6690604 L0,39.0511179 C0,42.7242729 1.43653605,45.645933 6.91713874,45.645933 L9.52031619,45.645933 C15.9041953,45.645933 16.0772326,41.2655508 16.0772326,39.3314793 L16.0772326,34.3703486 L33.8717788,34.3703486 L33.8717788,19.1939474 L22.8256872,12.7161252 L11.7785073,19.1939474 L11.7785073,39.3030215 C11.7785073,40.4687344 11.3497231,41.4826727 9.22974413,41.4826727 L6.74410144,41.4826727 C4.61106307,41.4826727 4.2987253,40.5361898 4.2987253,39.2482141 L4.2987253,18.5299337 C4.2987253,15.2804827 4.71118528,14.7598117 6.81483996,13.5266434 L21.3978574,4.97456904 C22.5677637,4.2873676 23.0781693,4.2873676 24.2480756,4.97456904 L38.8310931,13.5266434 C40.9347477,14.7598117 41.3472077,15.2804827 41.3472077,18.5299337 L41.3472077,39.2482141 C41.3472077,40.5361898 41.0337817,41.4826727 38.9018316,41.4826727 L22.0138267,41.4826727 C19.401943,41.4826727 19.4008547,45.645933 22.0138267,45.645933 L38.727706,45.645933 C44.209397,45.645933 45.645933,42.7242729 45.645933,39.0511179 L45.645933,18.6690604 C45.645933,14.102122 44.9450775,12.2692334 40.2981011,9.54361545 L25.4288647,0.822902649 C23.5581029,-0.274300883 22.0878301,-0.274300883 20.2181566,0.822902649 Z" id="Fill-3" fill="#10CFBD"></path>
            </g>
        </g>
    </g>
</svg>