<?xml version="1.0" encoding="UTF-8"?>
<svg width="25px" height="27px" viewBox="0 0 25 27" version="1.1" xmlns="http://www.w3.org/2000/svg" xmlns:xlink="http://www.w3.org/1999/xlink">
    <!-- Generator: Sketch 52.5 (67469) - http://www.bohemiancoding.com/sketch -->
    <title>Cleaning-icon</title>
    <desc>Created with Sketch.</desc>
    <g id="Blocks" stroke="none" stroke-width="1" fill="none" fill-rule="evenodd">
        <g id="Tab1_lg" transform="translate(-854.000000, -645.000000)" fill="#6D5CAE">
            <g id="Group-16" transform="translate(854.000000, 645.000000)">
                <g id="Cleaning-icon">
                    <path d="M0.446428571,12.0535714 L1.39330357,12.0535714 L3.12857143,25.5035714 C3.15730781,25.7262278 3.34692552,25.8929078 3.57142857,25.8928571 L14.0803571,25.8928571 C14.5866626,26.4603731 15.3108898,26.7851387 16.0714286,26.7857143 L16.7705357,26.7857143 C17.2608242,26.7852942 17.7443312,26.6711414 18.1830357,26.4522321 C18.8213782,26.1349449 19.571479,26.1349449 20.2098214,26.4522321 C20.648526,26.6711414 21.132033,26.7852942 21.6223214,26.7857143 L22.3214286,26.7857143 C23.8001507,26.7842378 24.9985235,25.585865 25,24.1071429 L25,21.4285714 C24.9985235,19.9498493 23.8001507,18.7514765 22.3214286,18.75 L21.6223214,18.75 C21.132033,18.75042 20.648526,18.8645729 20.2098214,19.0834821 C19.571479,19.4007694 18.8213782,19.4007694 18.1830357,19.0834821 C17.9284139,18.9585368 17.6581289,18.8684418 17.3794643,18.815625 L18.2495536,12.0535714 L19.1964286,12.0535714 C19.4429843,12.0535714 19.6428571,11.8536985 19.6428571,11.6071429 L19.6428571,9.82142857 C19.6428571,9.57487288 19.4429843,9.375 19.1964286,9.375 L17.4107143,9.375 L17.4107143,8.03571429 C17.410689,7.91732374 17.3636381,7.8037914 17.2799107,7.72008929 L15.1785714,5.61875 L15.1785714,4.23214286 L15.8553571,3.69107143 L17.0111607,6.003125 L17.8102679,5.60401786 L16.5683036,3.12053571 L17.1205357,2.67857143 L18.75,2.67857143 C18.9965557,2.67857143 19.1964286,2.47869855 19.1964286,2.23214286 L19.1964286,0.446428571 C19.1964286,0.19987288 18.9965557,0 18.75,0 L14.2857143,0 C12.0678348,0.00270578402 10.2705629,1.79997766 10.2678571,4.01785714 C10.2678571,4.26441283 10.46773,4.46428571 10.7142857,4.46428571 L11.6071429,4.46428571 L11.6071429,5.61875 L10.3986607,6.82723214 C10.3149333,6.91093426 10.2678824,7.0244666 10.2678571,7.14285714 L10.2678571,9.375 L9.375,9.375 L9.375,5.80357143 C9.3743132,5.74828563 9.36325884,5.69361957 9.34241071,5.64241071 C9.33423948,5.62503758 9.32499544,5.60818957 9.31473214,5.59196429 C9.30399469,5.56855785 9.29145705,5.54601996 9.27723214,5.52455357 L7.58928571,3.41517857 L7.58928571,0.446428571 C7.58928571,0.19987288 7.38941283,0 7.14285714,0 L4.46428571,0 C4.21773002,0 4.01785714,0.19987288 4.01785714,0.446428571 L4.01785714,3.41517857 L2.32991071,5.52455357 C2.3156858,5.54601996 2.30314817,5.56855785 2.29241071,5.59196429 C2.28214742,5.60818957 2.27290338,5.62503758 2.26473214,5.64241071 C2.24388401,5.69361957 2.23282966,5.74828563 2.23214286,5.80357143 L2.23214286,9.375 L0.446428571,9.375 C0.19987288,9.375 0,9.57487288 0,9.82142857 L0,11.6071429 C0,11.8536985 0.19987288,12.0535714 0.446428571,12.0535714 Z M22.3214286,25.8928571 L21.6223214,25.8928571 C21.2707259,25.892378 20.9240185,25.8104762 20.609375,25.6535714 C19.7193153,25.2113396 18.6735419,25.2113396 17.7834821,25.6535714 C17.4688386,25.8104762 17.1221312,25.892378 16.7705357,25.8928571 L16.0714286,25.8928571 C15.0852058,25.8928571 14.2857143,25.0933656 14.2857143,24.1071429 L14.2857143,23.4196429 C14.7753059,23.8619904 15.4116018,24.1069643 16.0714286,24.1071429 L16.7705357,24.1071429 C17.2608242,24.1067228 17.7443312,23.9925699 18.1830357,23.7736607 C18.8213782,23.4563735 19.571479,23.4563735 20.2098214,23.7736607 C20.648526,23.9925699 21.132033,24.1067228 21.6223214,24.1071429 L22.3214286,24.1071429 C22.9812553,24.1069643 23.6175512,23.8619904 24.1071429,23.4196429 L24.1071429,24.1071429 C24.1071429,25.0933656 23.3076513,25.8928571 22.3214286,25.8928571 Z M20.609375,19.8821429 C20.9240185,19.7252381 21.2707259,19.6433363 21.6223214,19.6428571 L22.3214286,19.6428571 C23.3076513,19.6428571 24.1071429,20.4423487 24.1071429,21.4285714 C24.1071429,22.4147942 23.3076513,23.2142857 22.3214286,23.2142857 L21.6223214,23.2142857 C21.2707259,23.2138066 20.9240185,23.1319048 20.609375,22.975 C19.7193153,22.5327682 18.6735419,22.5327682 17.7834821,22.975 C17.4688386,23.1319048 17.1221312,23.2138066 16.7705357,23.2142857 L16.0714286,23.2142857 C15.0852058,23.2142857 14.2857143,22.4147942 14.2857143,21.4285714 C14.2857143,20.4423487 15.0852058,19.6428571 16.0714286,19.6428571 L16.7705357,19.6428571 C17.1221312,19.6433363 17.4688386,19.7252381 17.7834821,19.8821429 C18.673607,20.3240972 19.7192502,20.3240972 20.609375,19.8821429 Z M16.4852679,18.75 L16.0714286,18.75 C14.5927064,18.7514765 13.3943337,19.9498493 13.3928571,21.4285714 L13.3928571,24.1071429 C13.3936298,24.4114958 13.4464757,24.7134724 13.5491071,25 L3.96383929,25 L2.29330357,12.0535714 L4.46428571,12.0535714 L4.46428571,20.0892857 C4.46428571,21.0755085 5.26377723,21.875 6.25,21.875 L10.7142857,21.875 C11.7005085,21.875 12.5,21.0755085 12.5,20.0892857 L12.5,16.3473214 L13.6660714,16.9303571 C14.0059612,17.0981117 14.3987385,17.1233091 14.7572774,17.0003599 C15.1158163,16.8774107 15.4104752,16.6164797 15.5758929,16.2754464 C15.7488368,15.9326234 15.7782319,15.5350664 15.6575893,15.1705357 C15.5386085,14.8058837 15.2779852,14.5043972 14.934375,14.3339286 L12.5,13.1169643 L12.5,12.0535714 L17.3495536,12.0535714 L16.4852679,18.75 Z M10.7142857,10.2678571 L11.6071429,10.2678571 L11.6071429,13.3928571 C11.6062148,13.5628686 11.7019333,13.7186491 11.8540179,13.7946429 L14.5325893,15.1339286 C14.6632105,15.1983214 14.7622364,15.312805 14.8071429,15.4513393 C14.853431,15.6000441 14.837318,15.7611736 14.7625,15.8977679 C14.7007082,16.0217397 14.592128,16.1160302 14.4607183,16.1598334 C14.3293086,16.2036367 14.1858701,16.1933524 14.0620536,16.13125 L12.2495536,15.225 C12.1113687,15.1574824 11.9481604,15.1658478 11.8176029,15.24714 C11.6870454,15.3284323 11.6075251,15.4712029 11.6071429,15.625 L11.6071429,20.0892857 C11.6071429,20.5823971 11.2073971,20.9821429 10.7142857,20.9821429 L10.7142857,16.9642857 L9.82142857,16.9642857 L9.82142857,20.9821429 L8.92857143,20.9821429 L8.92857143,16.9642857 L8.03571429,16.9642857 L8.03571429,20.9821429 L7.14285714,20.9821429 L7.14285714,16.9642857 L6.25,16.9642857 L6.25,20.9821429 C5.75688862,20.9821429 5.35714286,20.5823971 5.35714286,20.0892857 L5.35714286,10.2678571 L10.7142857,10.2678571 Z M18.75,11.1607143 L12.5,11.1607143 L12.5,10.2678571 L18.75,10.2678571 L18.75,11.1607143 Z M18.3035714,1.78571429 L17.4107143,1.78571429 L17.4107143,0.892857143 L18.3035714,0.892857143 L18.3035714,1.78571429 Z M14.2857143,0.892857143 L16.5178571,0.892857143 L16.5178571,2.01785714 L14.5754464,3.57142857 L11.1924107,3.57142857 C11.4163243,2.03487209 12.7329299,0.894789268 14.2857143,0.892857143 Z M14.2857143,4.46428571 L14.2857143,5.35714286 L12.5,5.35714286 L12.5,4.46428571 L14.2857143,4.46428571 Z M11.1607143,7.32767857 L12.2383929,6.25 L14.5473214,6.25 L16.5178571,8.22053571 L16.5178571,9.375 L11.1607143,9.375 L11.1607143,7.32767857 Z M4.67857143,4.01785714 L6.92857143,4.01785714 L8,5.35714286 L3.60714286,5.35714286 L4.67857143,4.01785714 Z M4.91071429,0.892857143 L6.69642857,0.892857143 L6.69642857,3.125 L4.91071429,3.125 L4.91071429,0.892857143 Z M3.125,6.25 L8.48214286,6.25 L8.48214286,9.375 L3.125,9.375 L3.125,6.25 Z M0.892857143,10.2678571 L4.46428571,10.2678571 L4.46428571,11.1607143 L0.892857143,11.1607143 L0.892857143,10.2678571 Z" id="Shape"></path>
                </g>
            </g>
        </g>
    </g>
</svg>