<?xml version="1.0" encoding="UTF-8"?>
<svg width="25px" height="30px" viewBox="0 0 25 30" version="1.1" xmlns="http://www.w3.org/2000/svg" xmlns:xlink="http://www.w3.org/1999/xlink">
    <!-- Generator: Sketch 52.5 (67469) - http://www.bohemiancoding.com/sketch -->
    <title>Electricity-icon</title>
    <desc>Created with Sketch.</desc>
    <g id="Blocks" stroke="none" stroke-width="1" fill="none" fill-rule="evenodd">
        <g id="Tab1_lg" transform="translate(-626.000000, -723.000000)" fill="#6D5CAE">
            <g id="Electricity-icon" transform="translate(626.000000, 723.000000)">
                <path d="M15.7419786,16.1762095 C15.7419786,16.7923055 15.3822955,17.3341149 14.8440438,17.5878515 C14.5173261,18.7288498 13.6623444,19.3980171 12.5,19.3980171 C11.3409522,19.3980171 10.5042809,18.7446472 10.161407,17.5903973 C9.62018508,17.3377705 9.25802139,16.7943292 9.25802139,16.1762095 L9.25802139,14.2815738 C9.25802139,13.6792514 9.09064798,13.403255 8.72394747,12.7985174 L8.71102238,12.7771714 C8.63879201,12.6737707 8.57945408,12.5707616 8.52194395,12.4710165 C8.49002289,12.4156605 8.4575796,12.3591296 8.42229671,12.3027292 L8.41005704,12.2822318 C8.38218323,12.2334689 8.35424414,12.1873172 8.32734951,12.1427322 C8.27914152,12.0628969 8.22936686,11.9805158 8.18396585,11.8922596 L8.17959221,11.8849484 C7.88025882,11.3861574 7.62133268,10.9547987 7.48078862,10.2913107 C7.37467884,9.90238292 7.32307639,9.49981201 7.32307639,9.06127277 C7.32307639,6.20672053 9.64544777,3.88438179 12.5,3.88438179 C15.3545522,3.88438179 17.6769236,6.20672053 17.6769236,9.06127277 C17.6769236,9.49981201 17.6253212,9.90238292 17.5192114,10.2913107 C17.3786673,10.9547987 17.1197412,11.3861574 16.8204078,11.8849484 L16.8160342,11.8922596 C16.7705679,11.9806463 16.7207606,12.0630927 16.6724547,12.1430586 C16.6455927,12.1875783 16.6177189,12.2336648 16.5898777,12.2823623 L16.5777033,12.3027292 C16.4817117,12.4562636 16.3824234,12.6150855 16.3077451,12.7458379 L16.2955055,12.7663352 C15.9017471,13.3962703 15.7419786,13.6760528 15.7419786,14.2815738 L15.7419786,16.1762095 Z M10.4612299,14.5053476 L10.4612299,14.973262 L14.5387701,14.973262 L14.5387701,14.5053476 L10.4612299,14.5053476 Z M12.5,18.1948085 C12.9059001,18.1948085 13.2170652,18.0552763 13.4327118,17.7807487 L11.5754969,17.7807487 C11.8953276,18.1941966 12.3240425,18.1948085 12.5,18.1948085 Z M14.2310811,16.5308009 C14.4063858,16.5003323 14.5386069,16.3480381 14.5387374,16.1764706 L10.4612626,16.1764706 C10.4613768,16.3564427 10.5849649,16.4988309 10.7689189,16.5308009 L11.0376858,16.5775401 L13.9622653,16.5775401 L14.2310811,16.5308009 Z M14.6771926,13.302139 C14.8089404,12.8778957 15.0229551,12.5321903 15.2690704,12.1384238 C15.3527244,11.9926575 15.4534161,11.8312897 15.5513661,11.6746219 C15.5821122,11.621159 15.612793,11.570242 15.6424946,11.5210875 C15.6862963,11.4485633 15.7241576,11.385831 15.7511502,11.3318458 L15.7887505,11.2657843 C16.0744733,10.7897101 16.2469058,10.5023552 16.3450843,10.0278477 L16.3545496,9.98868075 C16.4347439,9.70008564 16.4737151,9.39673765 16.4737151,9.06127277 C16.4737151,6.87020858 14.6910968,5.08759034 12.5,5.08759034 C10.3089032,5.08759034 8.52628493,6.87020858 8.52628493,9.06127277 C8.52628493,9.39673765 8.56525604,9.70008564 8.64545036,9.98868075 L8.65491571,10.0278477 C8.75309418,10.5023552 8.92552666,10.7897101 9.21124953,11.2657843 L9.24884979,11.3318458 C9.27577707,11.3857657 9.31357317,11.4483022 9.35730959,11.5207611 C9.38717439,11.5701767 9.41801836,11.6213549 9.44896025,11.6752094 C9.48953068,11.7406182 9.52732677,11.8058965 9.5643069,11.870065 C9.61329822,11.9550572 9.65958049,12.0352842 9.70423081,12.0978207 L9.72913446,12.1356169 L9.75279782,12.1746532 C9.99388669,12.5722222 10.1951395,12.905639 10.3209307,13.302139 L14.6771926,13.302139 Z M12.4665775,3.07486631 C12.1343113,3.07486631 11.8649733,2.80552828 11.8649733,2.47326203 L11.8649733,0.601604278 C11.8649733,0.269338028 12.1343113,-3.41948692e-14 12.4665775,-3.41948692e-14 C12.7988438,-3.41948692e-14 13.0681818,0.269338028 13.0681818,0.601604278 L13.0681818,2.47326203 C13.0681818,2.80552828 12.7988438,3.07486631 12.4665775,3.07486631 Z M17.2562053,5.03784832 C17.102214,5.03784832 16.9482879,4.97909791 16.830787,4.86166235 C16.5958507,4.62666068 16.5958833,4.24576213 16.8308197,4.01082574 L18.1265601,2.71511791 C18.3614639,2.48031208 18.7423951,2.48031208 18.9773641,2.71511791 C19.2123005,2.95011959 19.2122679,3.33101813 18.9773315,3.56595452 L17.681591,4.86166235 C17.5641555,4.97909791 17.4101641,5.03784832 17.2562053,5.03784832 Z M5.97906265,15.713452 C5.74412626,15.4785156 5.74409362,15.0976171 5.97903001,14.8626154 L7.27477047,13.5668423 C7.50970686,13.3319712 7.89063805,13.3319712 8.12557444,13.5668423 C8.36051084,13.8017787 8.36054347,14.1826772 8.12560708,14.4176789 L6.82986662,15.713452 C6.71239842,15.8308876 6.55840705,15.889638 6.40444832,15.889638 C6.25048959,15.889638 6.09653085,15.8308876 5.97906265,15.713452 Z M18.6163102,9.22459893 C18.6163102,8.89233268 18.8856482,8.62299465 19.2179144,8.62299465 L21.0895722,8.62299465 C21.4218384,8.62299465 21.6911765,8.89233268 21.6911765,9.22459893 C21.6911765,9.55686518 21.4218384,9.82620321 21.0895722,9.82620321 L19.2179144,9.82620321 C18.8856482,9.82620321 18.6163102,9.55686518 18.6163102,9.22459893 Z M3.91042781,9.82620321 C3.57816156,9.82620321 3.30882353,9.55686518 3.30882353,9.22459893 C3.30882353,8.89233268 3.57816156,8.62299465 3.91042781,8.62299465 L5.71524064,8.62299465 C6.04750689,8.62299465 6.31684492,8.89233268 6.31684492,9.22459893 C6.31684492,9.55686518 6.04750689,9.82620321 5.71524064,9.82620321 L3.91042781,9.82620321 Z M16.8308197,13.5668423 C17.0657234,13.3319712 17.4466546,13.3320365 17.6816236,13.5668423 L18.9773641,14.8626154 C19.2123005,15.0976171 19.2122679,15.4785156 18.9773315,15.713452 C18.8598959,15.8308876 18.7059045,15.889638 18.5519458,15.889638 C18.3979544,15.889638 18.2440283,15.8308876 18.1265275,15.713452 L16.830787,14.4176789 C16.5958507,14.1826772 16.5958833,13.8017787 16.8308197,13.5668423 Z M7.27480312,4.86166235 L5.97906266,3.56595453 C5.74412626,3.33101814 5.74409363,2.95011959 5.97903002,2.71511792 C6.21396641,2.4802468 6.59489759,2.4802468 6.82983398,2.71511792 L8.12557445,4.01082575 C8.36051084,4.24576214 8.36054348,4.62666068 8.12560709,4.86166235 C8.00813889,4.97909791 7.85414751,5.03784833 7.70018878,5.03784833 C7.54623005,5.03784833 7.39227132,4.97909791 7.27480312,4.86166235 Z M9.55493947,26.7189393 C9.87467231,26.8866962 10.0935829,27.221492 10.0935829,27.6069519 L10.0935829,29.5454545 L8.75668449,29.5454545 L8.75668449,27.9411765 L4.41176471,27.9411765 L4.41176471,29.5454545 L3.07486631,29.5454545 L3.07486631,27.6069519 C3.07486631,27.0920861 3.46501804,26.6670921 3.96514729,26.6110017 C3.95786876,26.5225987 3.95117775,26.4466882 3.94672251,26.398521 L3.94548222,26.3852043 C3.89306379,26.2592826 3.6455287,25.9603082 3.42736881,25.7619929 L3.38428517,25.7190398 L2.66289532,24.9321106 L0.775048563,23.1116963 L0.74808865,23.0780127 C0.0972645789,22.26445 0.00874728609,20.8473899 0.000848616309,20.6884374 L-1.63424829e-12,20.6550802 L-1.63424829e-12,15.3743316 C-1.63424829e-12,14.3054656 0.809646036,13.4358289 1.80481283,13.4358289 C2.79997963,13.4358289 3.60962567,14.3054656 3.60962567,15.3743316 L3.60962567,18.4025239 C4.00155623,18.3302609 4.55413655,18.3740626 5.08954869,18.7905378 L5.11676972,18.8116879 L6.75610221,20.3829352 L8.56091505,22.1877481 C8.71588559,22.3427186 9.48688691,23.1589577 9.49197861,24.055228 L9.55493947,26.7189393 Z M3.6344314,24.0135805 L4.34988094,24.7940471 C4.70035981,25.1165217 5.25535543,25.7161676 5.27990005,26.2972092 C5.28388202,26.3410762 5.29308625,26.4443464 5.30320438,26.5713778 L8.21415703,26.5713778 L8.15508021,24.0641711 C8.15508021,23.8120666 7.83606545,23.3536175 7.61555554,23.1331076 L5.81583441,21.3333864 L4.24504408,19.8280702 C4.01611328,19.6622634 3.84345233,19.7148124 3.84168982,19.7155305 C3.62868692,19.8220646 3.48938315,19.9419154 3.46901634,20.0361772 C3.44936759,20.1272403 3.52136949,20.2693511 3.57313513,20.3410919 L5.95337567,22.6707418 L5.01819958,23.6261541 L2.58769479,21.2472844 L2.56974328,21.2265259 C2.51138453,21.1592241 2.00423787,20.5467183 2.15738062,19.7772837 C2.17833493,19.6723163 2.21391158,19.5546849 2.27272727,19.4311785 L2.27272727,15.3743316 C2.27272727,15.0482015 2.0584188,14.7727273 1.80481283,14.7727273 C1.55120686,14.7727273 1.3368984,15.0482015 1.3368984,15.3743316 L1.3368984,20.6366718 C1.36176941,21.0635262 1.49911483,21.8434706 1.76969314,22.2135982 L3.6344314,24.0135805 Z M23.1951872,13.4358289 C24.190354,13.4358289 25,14.3054656 25,15.3743316 L25,20.6717914 L24.9991514,20.6884374 C24.9912527,20.8473899 24.9027354,22.26445 24.2519113,23.0780127 L24.2249514,23.1116963 L22.3371047,24.9321106 L21.5726312,25.7619929 C21.3502935,25.9652041 21.1068056,26.259152 21.0545178,26.385139 L21.0532775,26.3985211 C21.0488222,26.4466964 21.0421475,26.522615 21.034869,26.6110017 C21.5349983,26.6671084 21.9251337,27.0920861 21.9251337,27.6069519 L21.9251337,29.5454545 L20.5882353,29.5454545 L20.5882353,27.9411765 L16.2433155,27.9411765 L16.2433155,29.5454545 L14.9064171,29.5454545 L14.9064171,27.6069519 C14.9064171,27.221492 15.1253277,26.8866962 15.4450605,26.7189393 L15.5080214,24.055228 C15.5131131,23.1589577 16.2841144,22.3427186 16.439085,22.1877481 L18.2540812,20.3730129 L19.8832303,18.8116879 L19.9104513,18.7905378 C20.4458634,18.3741279 20.9983132,18.3302609 21.3903743,18.4025239 L21.3903743,15.3743316 C21.3903743,14.3054656 22.2000204,13.4358289 23.1951872,13.4358289 Z M21.1914256,19.7404991 C21.178242,19.7345421 21.1716014,19.7304406 21.1716014,19.7304406 C21.178242,19.7337609 21.1848826,19.7370812 21.1914256,19.7404991 Z M23.6631016,20.6365412 L23.6631016,15.3743316 C23.6631016,15.0482015 23.4487931,14.7727273 23.1951872,14.7727273 C22.9415812,14.7727273 22.7272727,15.0482015 22.7272727,15.3743316 L22.7272727,19.4311785 C22.7860884,19.5546849 22.8216651,19.6723163 22.8426194,19.7772837 C22.9957621,20.5467183 22.4886155,21.1592241 22.4302567,21.226526 L22.3927217,21.2664762 L19.9818004,23.6261541 L19.0466243,22.6707418 L21.4268649,20.3410919 C21.4786305,20.2693511 21.5506324,20.1272404 21.5309837,20.0361772 C21.5112044,19.9445266 21.3788854,19.8285924 21.1756742,19.724343 C21.1305669,19.7090679 20.9693949,19.6726427 20.7549559,19.8280049 L19.1841656,21.3333864 L17.3844445,23.1331076 C17.1590387,23.3611897 16.8449198,23.8129152 16.8449198,24.0641711 L16.844724,24.0799684 L16.785843,26.5713778 L19.6967956,26.5713778 C19.7069138,26.4443464 19.716118,26.3410762 19.7201,26.2972092 C19.7446446,25.7161676 20.2996402,25.1165217 20.6501191,24.7940471 L21.394291,23.9840747 L23.2303069,22.2135982 C23.5006893,21.8437317 23.6380348,21.0645053 23.6631016,20.6365412 Z" id="Combined-Shape"></path>
            </g>
        </g>
    </g>
</svg>