<?xml version="1.0" encoding="UTF-8"?>
<svg width="25px" height="26px" viewBox="0 0 25 26" version="1.1" xmlns="http://www.w3.org/2000/svg" xmlns:xlink="http://www.w3.org/1999/xlink">
    <!-- Generator: Sketch 52.5 (67469) - http://www.bohemiancoding.com/sketch -->
    <title>Housing-icon</title>
    <desc>Created with Sketch.</desc>
    <g id="Blocks" stroke="none" stroke-width="1" fill="none" fill-rule="evenodd">
        <g id="Tab2_lg-Copy" transform="translate(-619.000000, -1005.000000)" fill="#6D5CAE">
            <g id="Group-5" transform="translate(560.000000, 983.000000)">
                <g id="Group-15" transform="translate(59.000000, 22.000000)">
                    <g id="Housing-icon">
                        <path d="M24.609375,14.8828125 L22.3828125,14.8828125 C22.1484375,14.8828125 21.9921875,15.0390625 21.9921875,15.2734375 L21.9921875,15.6640625 C21.25,15.46875 20.3125,15.1953125 19.6875,14.921875 L19.6875,9.6484375 C20.1953125,9.765625 20.703125,9.5703125 21.015625,9.1796875 C21.4453125,8.6328125 21.328125,7.8515625 20.78125,7.421875 L18.5546875,5.7421875 L18.5546875,1.8359375 C18.5546875,1.6015625 18.3984375,1.4453125 18.1640625,1.4453125 L14.7265625,1.4453125 C14.4921875,1.4453125 14.3359375,1.6015625 14.3359375,1.8359375 L14.3359375,2.5390625 L11.5625,0.4296875 C11.1328125,0.1171875 10.5078125,0.1171875 10.0390625,0.4296875 L0.5078125,7.421875 C-0.0390625,7.8515625 -0.15625,8.6328125 0.234375,9.1796875 C0.46875,9.4921875 0.859375,9.6875 1.25,9.6875 C1.3671875,9.6875 1.4453125,9.6875 1.5625,9.6484375 L1.5625,19.296875 L0.625,19.296875 C0.390625,19.296875 0.234375,19.453125 0.234375,19.6875 L0.234375,21.25 C0.234375,21.484375 0.390625,21.640625 0.625,21.640625 L8.28125,21.640625 L8.28125,23.59375 C8.28125,23.828125 8.4375,23.984375 8.671875,23.984375 L10.9375,23.984375 C11.171875,23.984375 11.328125,23.828125 11.328125,23.59375 L11.328125,22.421875 C11.5234375,22.5 11.71875,22.578125 11.8359375,22.734375 C11.8359375,22.734375 11.875,22.7734375 11.875,22.7734375 C12.34375,23.1640625 14.765625,25.1171875 15.46875,25.390625 C16.0546875,25.6640625 16.71875,25.625 16.9921875,25 C17.734375,25.3125 18.28125,25.0390625 18.515625,24.53125 C19.375,24.9609375 20,24.6484375 20.15625,23.90625 C21.015625,24.1796875 21.71875,23.7890625 21.7578125,22.6171875 C21.7578125,22.5 21.71875,22.421875 21.6796875,22.34375 L21.6015625,22.265625 C21.6796875,22.2265625 21.796875,22.2265625 21.953125,22.2265625 L21.953125,23.59375 C21.953125,23.828125 22.109375,23.984375 22.34375,23.984375 L24.609375,23.984375 C24.84375,23.984375 25,23.828125 25,23.59375 L25,15.2734375 C25,15.0390625 24.8046875,14.8828125 24.609375,14.8828125 Z M15.0390625,2.2265625 L17.6953125,2.2265625 L17.6953125,5.15625 L15.0390625,3.1640625 L15.0390625,2.2265625 Z M0.8984375,8.7109375 C0.7421875,8.515625 0.78125,8.203125 0.9765625,8.046875 L10.4296875,1.0546875 C10.5078125,0.9765625 10.625,0.9765625 10.703125,0.9765625 C10.8203125,0.9765625 10.8984375,1.015625 10.9765625,1.0546875 L14.375,3.6328125 C14.375,3.6328125 14.375,3.671875 14.4140625,3.671875 L17.8515625,6.2890625 C17.890625,6.2890625 17.890625,6.328125 17.9296875,6.328125 L20.234375,8.0859375 C20.4296875,8.2421875 20.46875,8.5546875 20.3125,8.75 C20.15625,8.9453125 19.84375,8.984375 19.6484375,8.828125 L19.4921875,8.7109375 C19.4921875,8.7109375 19.4921875,8.7109375 19.4921875,8.7109375 L10.9765625,2.2265625 C10.9375,2.1875 10.8984375,2.1875 10.859375,2.1875 C10.78125,2.1484375 10.703125,2.1484375 10.5859375,2.1875 C10.546875,2.1875 10.5078125,2.2265625 10.46875,2.2265625 L1.7578125,8.671875 C1.7578125,8.671875 1.7578125,8.671875 1.7578125,8.671875 L1.5625,8.828125 C1.3671875,8.984375 1.0546875,8.90625 0.8984375,8.7109375 Z M2.3828125,9.1796875 L10.703125,3.0078125 L18.828125,9.1796875 L18.828125,14.4921875 C18.828125,14.4921875 18.828125,14.4921875 18.828125,14.4921875 C18.5546875,14.3359375 16.015625,13.1640625 14.6875,14.1796875 L11.953125,16.40625 L11.328125,16.171875 L11.328125,15.2734375 C11.328125,15.0390625 11.171875,14.8828125 10.9375,14.8828125 L8.7109375,14.8828125 C8.4765625,14.8828125 8.3203125,15.0390625 8.3203125,15.2734375 L8.3203125,19.296875 L2.3828125,19.296875 L2.3828125,9.1796875 Z M1.015625,20.859375 L1.015625,20.078125 L1.953125,20.078125 L8.28125,20.078125 L8.28125,20.859375 L1.015625,20.859375 Z M10.546875,23.2421875 L9.1015625,23.2421875 C9.1015625,23.3203125 9.1015625,15.7421875 9.1015625,15.6640625 L10.546875,15.6640625 C10.546875,17.34375 10.546875,21.6015625 10.546875,23.2421875 Z M20.6640625,23.2421875 C20.4296875,23.2421875 20.15625,23.0859375 20.078125,23.046875 L19.3359375,21.9921875 C19.21875,21.796875 18.984375,21.7578125 18.7890625,21.875 C18.59375,21.9921875 18.5546875,22.2265625 18.671875,22.421875 L19.4140625,23.4765625 C19.4140625,23.671875 19.3359375,23.984375 19.1796875,23.984375 C18.9453125,23.984375 18.59375,23.75 18.4765625,23.6328125 C18.4765625,23.6328125 18.4765625,23.6328125 18.4765625,23.6328125 L17.734375,22.5390625 C17.6171875,22.34375 17.3828125,22.3046875 17.1875,22.421875 C16.9921875,22.5390625 16.953125,22.7734375 17.0703125,22.96875 L17.8125,24.0234375 C17.734375,24.3359375 17.6171875,24.3359375 17.578125,24.3359375 C17.3828125,24.3359375 17.109375,24.1796875 16.953125,24.1015625 L16.2109375,23.046875 C16.09375,22.8515625 15.859375,22.8125 15.6640625,22.9296875 C15.46875,23.046875 15.4296875,23.28125 15.546875,23.4765625 L16.2890625,24.53125 C16.25,24.8828125 16.171875,24.84375 15.7421875,24.6875 C15.3125,24.53125 13.4375,23.0859375 12.34375,22.2265625 C12.03125,21.9140625 11.6015625,21.7578125 11.2890625,21.640625 L11.2890625,17.6953125 C11.5234375,18.4765625 12.34375,19.0625 13.3984375,19.1015625 C13.3984375,19.1015625 13.3984375,19.1015625 13.3984375,19.1015625 C15.1171875,19.1015625 16.328125,17.65625 16.5625,17.65625 C16.5625,17.65625 16.5625,17.65625 16.5625,17.65625 L20.9765625,22.7734375 C20.9375,23.2421875 20.7421875,23.2421875 20.6640625,23.2421875 Z M21.09375,21.6796875 C21.09375,21.6796875 21.09375,21.6796875 21.09375,21.6796875 L17.0703125,17.03125 C16.875,16.796875 16.2109375,16.7578125 15.8203125,17.1875 C15.8203125,17.1875 14.6484375,18.3203125 13.4375,18.3203125 C12.5,18.3203125 12.0703125,17.65625 12.0703125,17.421875 C12.0703125,17.34375 11.8359375,17.5390625 15.1953125,14.8046875 C15.9765625,14.21875 17.7734375,14.8828125 18.4765625,15.1953125 C19.140625,15.703125 21.171875,16.25 21.953125,16.4453125 L21.953125,21.484375 C21.6796875,21.4453125 21.3671875,21.484375 21.09375,21.6796875 Z M24.21875,23.2421875 L22.7734375,23.2421875 C22.7734375,20.625 22.7734375,18.3203125 22.7734375,15.6640625 L24.21875,15.6640625 L24.21875,23.2421875 Z" id="Shape"></path>
                        <path d="M10.625,9.0234375 C11.796875,9.0234375 12.7734375,8.046875 12.7734375,6.875 C12.7734375,5.703125 11.796875,4.7265625 10.625,4.7265625 C9.453125,4.7265625 8.4765625,5.703125 8.4765625,6.875 C8.4765625,8.046875 9.4140625,9.0234375 10.625,9.0234375 Z M10.625,5.5078125 C11.3671875,5.5078125 11.9921875,6.1328125 11.9921875,6.875 C11.9921875,7.6171875 11.3671875,8.2421875 10.625,8.2421875 C9.8828125,8.2421875 9.2578125,7.6171875 9.2578125,6.875 C9.2578125,6.1328125 9.84375,5.5078125 10.625,5.5078125 Z" id="Shape"></path>
                        <path d="M7.734375,9.375 L4.8046875,9.375 C4.5703125,9.375 4.4140625,9.53125 4.4140625,9.765625 L4.4140625,12.6953125 C4.4140625,12.9296875 4.5703125,13.0859375 4.8046875,13.0859375 L7.734375,13.0859375 C7.96875,13.0859375 8.125,12.9296875 8.125,12.6953125 L8.125,9.765625 C8.125,9.5703125 7.96875,9.375 7.734375,9.375 Z M7.34375,12.3046875 L5.1953125,12.3046875 L5.1953125,10.15625 L7.34375,10.15625 L7.34375,12.3046875 Z" id="Shape"></path>
                        <path d="M13.4765625,13.0859375 L16.40625,13.0859375 C16.640625,13.0859375 16.796875,12.9296875 16.796875,12.6953125 L16.796875,9.765625 C16.796875,9.53125 16.640625,9.375 16.40625,9.375 L13.4765625,9.375 C13.2421875,9.375 13.0859375,9.53125 13.0859375,9.765625 L13.0859375,12.6953125 C13.0859375,12.9296875 13.2421875,13.0859375 13.4765625,13.0859375 Z M13.8671875,10.15625 L16.015625,10.15625 L16.015625,12.3046875 L13.8671875,12.3046875 L13.8671875,10.15625 Z" id="Shape"></path>
                    </g>
                </g>
            </g>
        </g>
    </g>
</svg>