<?xml version="1.0" encoding="UTF-8"?>
<svg width="14px" height="14px" viewBox="0 0 14 14" version="1.1" xmlns="http://www.w3.org/2000/svg" xmlns:xlink="http://www.w3.org/1999/xlink">
    <!-- Generator: Sketch 52.5 (67469) - http://www.bohemiancoding.com/sketch -->
    <title>icon-deposit</title>
    <desc>Created with Sketch.</desc>
    <g id="Blocks" stroke="none" stroke-width="1" fill="none" fill-rule="evenodd">
        <g id="Tab1_lg-Copy" transform="translate(-235.000000, -1766.000000)" fill="#788195">
            <g id="Group-19" transform="translate(210.000000, 1690.000000)">
                <path d="M39,81.6 L37.936,80.5267133 L37.936,79.0333333 L36.5453333,78.4267133 L35.9666667,77.0267133 L34.4593333,77.0267133 L33.3953333,76 L32,76.5600467 L30.6093333,76 L29.5406667,77.0267133 L28.0333333,77.0267133 L27.4593333,78.4267133 L26.0639533,79.0333333 L26.0639533,80.5267133 L25,81.6 L25.574,83 L25,84.3533333 L26.0639533,85.4267133 L26.0639533,86.9666667 L27.4593333,87.5267133 L28.0333333,88.9267133 L29.5406667,88.9267133 L30.6093333,90 L32,89.39338 L33.3953333,90 L34.4593333,88.9267133 L35.9666667,88.9267133 L36.5453333,87.5267133 L37.936,86.9666667 L37.936,85.4267133 L39,84.3533333 L38.426,83 L39,81.6 Z M32.3,86.4011778 L32.3,87.1477273 C32.3,87.3551136 32.0992044,87.5625 31.84375,87.5625 C31.5928125,87.5625 31.3875,87.3551136 31.3875,87.1477273 L31.3875,86.4011778 C30.34725,86.1937915 29.5625,85.364246 29.5625,84.36875 C29.5625,84.1199278 29.7678125,83.9539773 30.01875,83.9539773 C30.2696419,83.9539773 30.475,84.1199278 30.475,84.36875 C30.475,85.0738636 31.0909375,85.6130682 31.84375,85.6130682 C32.6513125,85.6130682 33.2125,85.1568597 33.2125,84.4932233 C33.2125,83.9539773 32.7197044,83.5806818 31.7433294,83.3732955 C29.9411875,83 29.5625,82.1289773 29.5625,81.4653409 C29.5625,80.5113636 30.3198294,79.7233369 31.3875,79.5574278 L31.3875,78.8522727 C31.3875,78.6034091 31.5928125,78.4375 31.84375,78.4375 C32.0992044,78.4375 32.3,78.6034091 32.3,78.8522727 L32.3,79.5574278 C33.2125,79.7233369 33.9379375,80.3869733 34.0975794,81.2579545 C34.1386419,81.4653409 33.9698294,81.7142045 33.7189375,81.7556818 C33.4679544,81.7556818 33.2352669,81.6312915 33.19425,81.3824278 C33.08475,80.801746 32.5144375,80.345496 31.84375,80.345496 C31.04075,80.345496 30.475,80.801746 30.475,81.4653409 C30.475,81.6727273 30.475,82.2948864 31.944125,82.5852273 C33.842125,82.9585227 34.125,83.9539773 34.125,84.4932233 C34.125,85.4886364 33.367625,86.2352273 32.3,86.4011778 L32.3,86.4011778 Z" id="icon-deposit"></path>
            </g>
        </g>
    </g>
</svg>