<?xml version="1.0" encoding="UTF-8"?>
<svg width="25px" height="22px" viewBox="0 0 25 22" version="1.1" xmlns="http://www.w3.org/2000/svg" xmlns:xlink="http://www.w3.org/1999/xlink">
    <!-- Generator: Sketch 52.5 (67469) - http://www.bohemiancoding.com/sketch -->
    <title>Inflation-icon</title>
    <desc>Created with Sketch.</desc>
    <g id="Blocks" stroke="none" stroke-width="1" fill="none" fill-rule="evenodd">
        <g id="Tab2_lg-Copy" transform="translate(-348.000000, -1004.000000)" fill="#6D5CAE">
            <g id="Group-13" transform="translate(232.000000, 983.000000)">
                <g id="Group-9" transform="translate(116.000000, 21.000000)">
                    <g id="Inflation-icon">
                        <path d="M12.5,11.4128125 C10.573125,11.4128125 8.62375,12.0621875 8.6121875,13.3040625 L8.6115625,13.3040625 L8.6115625,19.2409375 C8.6115625,20.48875 10.5678125,21.1428125 12.5,21.1428125 C14.433125,21.1428125 16.3890625,20.48875 16.3890625,19.2409375 L16.3890625,13.3040625 L16.3878125,13.3040625 C16.376875,12.0625 14.4271875,11.4128125 12.5,11.4128125 Z M15.4515625,19.24 C15.4515625,19.5803125 14.3309375,20.204375 12.5003125,20.204375 C10.6696875,20.204375 9.5490625,19.5803125 9.5490625,19.24 L9.5490625,18.5440625 C10.2990625,18.9546875 11.4034375,19.1659375 12.5003125,19.1659375 C13.598125,19.1659375 14.7015625,18.9546875 15.4515625,18.5440625 L15.4515625,19.24 Z M15.4515625,17.2653125 C15.4515625,17.6053125 14.3309375,18.2296875 12.5003125,18.2296875 C10.6696875,18.2296875 9.5490625,17.6053125 9.5490625,17.2653125 L9.5490625,16.5690625 C10.2990625,16.9790625 11.4034375,17.19 12.5003125,17.19 C13.598125,17.19 14.7015625,16.97875 15.4515625,16.5690625 L15.4515625,17.2653125 Z M15.4515625,15.289375 C15.4515625,15.629375 14.3309375,16.25375 12.5003125,16.25375 C10.6696875,16.25375 9.5490625,15.629375 9.5490625,15.289375 L9.5490625,14.5940625 C10.2990625,15.0040625 11.4034375,15.2153125 12.5003125,15.2153125 C13.598125,15.2153125 14.7015625,15.00375 15.4515625,14.5940625 L15.4515625,15.289375 Z M12.5,14.2778125 C10.6690625,14.2778125 9.5490625,13.6540625 9.5490625,13.3140625 C9.5490625,12.97375 10.6690625,12.349375 12.5,12.349375 C14.3309375,12.349375 15.4515625,12.97375 15.4515625,13.3140625 C15.4515625,13.6540625 14.3309375,14.2778125 12.5,14.2778125 Z M3.9615625,7.46125 C2.0290625,7.46125 0.0728125,8.1146875 0.0728125,9.363125 C0.0728125,9.404375 0.0728125,19.2409375 0.0728125,19.2409375 C0.0728125,20.4890625 2.029375,21.143125 3.9615625,21.143125 C5.894375,21.143125 7.8503125,20.4890625 7.8503125,19.2409375 C7.8503125,19.2409375 7.8503125,9.4040625 7.8503125,9.363125 C7.8503125,8.1146875 5.8940625,7.46125 3.9615625,7.46125 Z M6.9128125,19.24 C6.9128125,19.5803125 5.7925,20.204375 3.9615625,20.204375 C2.1309375,20.204375 1.0103125,19.5803125 1.0103125,19.24 L1.0103125,18.5440625 C1.7603125,18.9546875 2.8646875,19.1659375 3.9615625,19.1659375 C5.0584375,19.1659375 6.1628125,18.9546875 6.9128125,18.5440625 L6.9128125,19.24 Z M6.9128125,17.2653125 C6.9128125,17.6053125 5.7925,18.2296875 3.9615625,18.2296875 C2.1309375,18.2296875 1.0103125,17.6053125 1.0103125,17.2653125 L1.0103125,16.5690625 C1.7603125,16.9790625 2.8646875,17.19 3.9615625,17.19 C5.0584375,17.19 6.1628125,16.97875 6.9128125,16.5690625 L6.9128125,17.2653125 Z M6.9128125,15.289375 C6.9128125,15.629375 5.7925,16.25375 3.9615625,16.25375 C2.1309375,16.25375 1.0103125,15.629375 1.0103125,15.289375 L1.0103125,14.59375 C1.7603125,15.00375 2.8646875,15.2153125 3.9615625,15.2153125 C5.0584375,15.2153125 6.1628125,15.00375 6.9128125,14.59375 L6.9128125,15.289375 Z M6.9128125,13.3140625 C6.9128125,13.6540625 5.7925,14.2784375 3.9615625,14.2784375 C2.1309375,14.2784375 1.0103125,13.6540625 1.0103125,13.3140625 L1.0103125,12.6175 C1.7603125,13.0278125 2.8646875,13.239375 3.9615625,13.239375 C5.0584375,13.239375 6.1628125,13.0278125 6.9128125,12.6175 L6.9128125,13.3140625 Z M6.9128125,11.3384375 C6.9128125,11.6784375 5.7925,12.3028125 3.9615625,12.3028125 C2.1309375,12.3028125 1.0103125,11.6784375 1.0103125,11.3384375 L1.0103125,10.6421875 C1.7603125,11.0525 2.8646875,11.26375 3.9615625,11.26375 C5.0584375,11.26375 6.1628125,11.0525 6.9128125,10.6421875 L6.9128125,11.3384375 Z M3.9615625,10.3275 C2.1309375,10.3275 1.0103125,9.703125 1.0103125,9.363125 C1.0103125,9.023125 2.1309375,8.39875 3.9615625,8.39875 C5.7925,8.39875 6.9128125,9.023125 6.9128125,9.363125 C6.9128125,9.703125 5.7925,10.3275 3.9615625,10.3275 Z M24.9275,17.260625 C24.9275,16.0125 22.97125,15.359375 21.0390625,15.359375 C19.106875,15.359375 17.15,16.0125 17.15,17.260625 L17.15,17.26125 L17.15,19.240625 C17.15,20.48875 19.1065625,21.141875 21.03875,21.141875 C22.9709375,21.141875 24.9271875,20.48875 24.9271875,19.240625 L24.9271875,17.26125 L24.9271875,17.260625 L24.9275,17.260625 Z M23.99,19.240625 C23.99,19.5803125 22.87,20.204375 21.0390625,20.204375 C19.2084375,20.204375 18.0878125,19.5803125 18.0878125,19.240625 L18.0878125,18.540625 C18.8375,18.9509375 19.941875,19.1625 21.0390625,19.1625 C22.13625,19.1625 23.2403125,18.9509375 23.99,18.540625 L23.99,19.240625 Z M21.03875,18.225 C19.208125,18.225 18.0875,17.600625 18.0875,17.260625 C18.0875,16.9203125 19.2078125,16.296875 21.03875,16.296875 C22.8696875,16.296875 23.9896875,16.9203125 23.9896875,17.260625 C23.99,17.600625 22.87,18.225 21.03875,18.225 Z M14.839375,5.4290625 L21.345625,9.429375 L20.8078125,10.3040625 L23.7978125,10.386875 L22.375,7.7559375 L21.8371875,8.63125 L15.01125,4.434375 L10.1609375,5.4634375 L1.4475,0.1065625 L0.9565625,0.90625 L9.989375,6.459375 L14.839375,5.4290625 Z" id="Shape"></path>
                    </g>
                </g>
            </g>
        </g>
    </g>
</svg>