<?xml version="1.0" encoding="UTF-8"?>
<svg width="25px" height="24px" viewBox="0 0 25 24" version="1.1" xmlns="http://www.w3.org/2000/svg" xmlns:xlink="http://www.w3.org/1999/xlink">
    <!-- Generator: Sketch 52.5 (67469) - http://www.bohemiancoding.com/sketch -->
    <title>Internet-icon</title>
    <desc>Created with Sketch.</desc>
    <g id="Blocks" stroke="none" stroke-width="1" fill="none" fill-rule="evenodd">
        <g id="Tab1_lg" transform="translate(-1067.000000, -645.000000)" fill="#6D5CAE">
            <g id="Group-13" transform="translate(1067.000000, 645.000000)">
                <g id="Internet-icon">
                    <path d="M18.9230978,11.1910326 C18.373913,11.1910326 17.842663,11.2671196 17.3375,11.4067935 C14.3532609,8.61766304 9.65679348,8.67608696 6.74619565,11.5861413 C6.48070652,11.8513587 6.48070652,12.2815217 6.74619565,12.5467391 C6.87880435,12.6793478 7.05271739,12.7456522 7.22663043,12.7456522 C7.40054348,12.7456522 7.57418478,12.6793478 7.70706522,12.5467391 C9.9486413,10.3057065 13.4769022,10.1277174 15.9309783,12.0002717 C15.0021739,12.5421196 14.232337,13.3274457 13.7100543,14.2690217 C12.5105978,13.5722826 10.9456522,13.7328804 9.91956522,14.7595109 C8.69836957,15.9815217 8.69836957,17.9701087 9.91983696,19.1923913 C10.5309783,19.8035326 11.3334239,20.1089674 12.1361413,20.1089674 C12.6293478,20.1089674 13.1222826,19.9923913 13.5709239,19.7619565 C14.5407609,21.7402174 16.5752717,23.10625 18.9230978,23.10625 C22.2081522,23.10625 24.8807065,20.4336957 24.8807065,17.1486413 C24.8807065,13.863587 22.2081522,11.1910326 18.9230978,11.1910326 Z M13.1125,18.4595109 C12.4233696,18.9133152 11.4855978,18.8372283 10.8804348,18.2320652 C10.1883152,17.5391304 10.1883152,16.4125 10.880163,15.719837 C11.5081522,15.0921196 12.4915761,15.0355978 13.1861413,15.5461957 C13.0434783,16.0565217 12.9652174,16.5934783 12.9652174,17.1483696 C12.9654891,17.598913 13.0173913,18.0372283 13.1125,18.4595109 Z M18.9230978,21.7472826 C16.3872283,21.7472826 14.3241848,19.6842391 14.3241848,17.1483696 C14.3241848,14.6125 16.3872283,12.5494565 18.9230978,12.5494565 C21.4589674,12.5494565 23.5220109,14.6125 23.5220109,17.1483696 C23.5220109,19.6842391 21.4589674,21.7472826 18.9230978,21.7472826 Z M19.6983696,9.41358696 C19.8309783,9.54619565 20.0048913,9.6125 20.1788043,9.6125 C20.3527174,9.6125 20.5266304,9.54619565 20.6592391,9.41358696 C20.9247283,9.14809783 20.9247283,8.71793478 20.6592391,8.45298913 C15.9595109,3.75380435 8.3125,3.75407609 3.6138587,8.45298913 C3.34836957,8.71847826 3.34836957,9.1486413 3.6138587,9.41358696 C3.87934783,9.67907609 4.30923913,9.67907609 4.57445652,9.41358696 C8.74375,5.24402174 15.5282609,5.24375 19.6983696,9.41358696 Z M22.9932065,6.11847826 C23.1258152,6.25108696 23.2997283,6.3173913 23.4736413,6.3173913 C23.6475543,6.3173913 23.8211957,6.25108696 23.9540761,6.11847826 C24.2195652,5.85326087 24.2195652,5.42309783 23.9540761,5.15788043 C20.7980978,2.00163043 16.601087,0.263586957 12.136413,0.263586957 C7.67146739,0.263586957 3.47472826,2.00163043 0.318478261,5.15788043 C0.0529891304,5.42309783 0.0529891304,5.85326087 0.318478261,6.11847826 C0.583967391,6.38369565 1.0138587,6.38396739 1.27907609,6.11847826 C4.17880435,3.21902174 8.03451087,1.62228261 12.136413,1.62228261 C16.2383152,1.62228261 20.09375,3.21902174 22.9932065,6.11847826 Z M18.7839674,13.9054348 C18.4086957,13.9054348 18.1046196,14.2095109 18.1046196,14.5847826 L18.1046196,17.392663 C18.1046196,17.7679348 18.4086957,18.0720109 18.7839674,18.0720109 C19.1592391,18.0720109 19.4633152,17.7679348 19.4633152,17.392663 L19.4633152,14.5847826 C19.4633152,14.2095109 19.1592391,13.9054348 18.7839674,13.9054348 Z M18.7839674,18.7513587 C18.4086957,18.7513587 18.1046196,19.0554348 18.1046196,19.4307065 L18.1046196,19.476087 C18.1046196,19.8513587 18.4086957,20.1554348 18.7839674,20.1554348 C19.1592391,20.1554348 19.4633152,19.8513587 19.4633152,19.476087 L19.4633152,19.4307065 C19.4633152,19.0554348 19.1592391,18.7513587 18.7839674,18.7513587 Z" id="Shape"></path>
                </g>
            </g>
        </g>
    </g>
</svg>