<?xml version="1.0" encoding="UTF-8"?>
<svg width="24px" height="24px" viewBox="0 0 24 24" version="1.1" xmlns="http://www.w3.org/2000/svg" xmlns:xlink="http://www.w3.org/1999/xlink">
    <!-- Generator: Sketch 52.5 (67469) - http://www.bohemiancoding.com/sketch -->
    <title>Land-icon</title>
    <desc>Created with Sketch.</desc>
    <g id="Blocks" stroke="none" stroke-width="1" fill="none" fill-rule="evenodd">
        <g id="Tab2_lg-Copy" transform="translate(-966.000000, -1002.000000)" fill="#6D5CAE">
            <g id="Group-4" transform="translate(888.000000, 983.000000)">
                <g id="Group-14" transform="translate(78.000000, 19.000000)">
                    <g id="Land-icon">
                        <path d="M22.6828,8.1172 C22.5264,7.9608 22.2736,7.9608 22.1172,8.1172 L20.9172,9.3172 C20.842,9.392 20.8,9.494 20.8,9.6 L20.8,11.6 L18.8,11.6 L18.8,9.6 C18.8,9.494 18.758,9.392 18.6828,9.3172 L17.4828,8.1172 C17.3264,7.9608 17.0736,7.9608 16.9172,8.1172 L15.7172,9.3172 C15.642,9.392 15.6,9.494 15.6,9.6 L15.6,11.6 L13.6,11.6 L13.6,9.6 C13.6,9.494 13.558,9.392 13.4828,9.3172 L12.2828,8.1172 C12.1264,7.9608 11.8736,7.9608 11.7172,8.1172 L10.5172,9.3172 C10.442,9.392 10.4,9.494 10.4,9.6 L10.4,11.6 L8.4,11.6 L8.4,9.6 C8.4,9.494 8.358,9.392 8.2828,9.3172 L7.0828,8.1172 C6.9264,7.9608 6.6736,7.9608 6.5172,8.1172 L5.3172,9.3172 C5.242,9.392 5.2,9.494 5.2,9.6 L5.2,11.6 L3.2,11.6 L3.2,9.6 C3.2,9.494 3.158,9.392 3.0828,9.3172 L1.8828,8.1172 C1.7264,7.9608 1.4736,7.9608 1.3172,8.1172 L0.1172,9.3172 C0.042,9.392 0,9.494 0,9.6 L0,23.6 C0,23.8208 0.1788,24 0.4,24 L2.8,24 C3.0212,24 3.2,23.8208 3.2,23.6 L3.2,22 L5.2,22 L5.2,23.6 C5.2,23.8208 5.3788,24 5.6,24 L8,24 C8.2212,24 8.4,23.8208 8.4,23.6 L8.4,22 L10.4,22 L10.4,23.6 C10.4,23.8208 10.5788,24 10.8,24 L13.2,24 C13.4212,24 13.6,23.8208 13.6,23.6 L13.6,22 L15.6,22 L15.6,23.6 C15.6,23.8208 15.7788,24 16,24 L18.4,24 C18.6212,24 18.8,23.8208 18.8,23.6 L18.8,22 L20.8,22 L20.8,23.6 C20.8,23.8208 20.9788,24 21.2,24 L23.6,24 C23.8212,24 24,23.8208 24,23.6 L24,9.6 C24,9.494 23.958,9.392 23.8828,9.3172 L22.6828,8.1172 Z M2.4,23.2 L0.8,23.2 L0.8,9.7656 L1.6,8.9656 L2.4,9.7656 L2.4,23.2 Z M5.2,12.4 L5.2,13.2 L3.2,13.2 L3.2,12.4 L5.2,12.4 Z M5.2,14 L5.2,19.6 L3.2,19.6 L3.2,14 L5.2,14 Z M3.2,21.2 L3.2,20.4 L5.2,20.4 L5.2,21.2 L3.2,21.2 Z M7.6,23.2 L6,23.2 L6,9.7656 L6.8,8.9656 L7.6,9.7656 L7.6,23.2 Z M10.4,12.4 L10.4,13.2 L8.4,13.2 L8.4,12.4 L10.4,12.4 Z M10.4,14 L10.4,19.6 L8.4,19.6 L8.4,14 L10.4,14 Z M8.4,21.2 L8.4,20.4 L10.4,20.4 L10.4,21.2 L8.4,21.2 Z M12.8,23.2 L11.2,23.2 L11.2,9.7656 L12,8.9656 L12.8,9.7656 L12.8,23.2 Z M15.6,12.4 L15.6,13.2 L13.6,13.2 L13.6,12.4 L15.6,12.4 Z M15.6,14 L15.6,19.6 L13.6,19.6 L13.6,14 L15.6,14 Z M13.6,21.2 L13.6,20.4 L15.6,20.4 L15.6,21.2 L13.6,21.2 Z M18,23.2 L16.4,23.2 L16.4,9.7656 L17.2,8.9656 L18,9.7656 L18,23.2 Z M20.8,12.4 L20.8,13.2 L18.8,13.2 L18.8,12.4 L20.8,12.4 Z M20.8,14 L20.8,19.6 L18.8,19.6 L18.8,14 L20.8,14 Z M18.8,21.2 L18.8,20.4 L20.8,20.4 L20.8,21.2 L18.8,21.2 Z M23.2,23.2 L21.6,23.2 L21.6,9.7656 L22.4,8.9656 L23.2,9.7656 L23.2,23.2 Z" id="Shape"></path>
                        <path d="M0.4,4.4 L11.59,4.4 C11.8008,4.4 11.9784,4.1964 11.992,3.986 C11.996,3.9244 12,3.8628 12,3.8 C12,1.9252 10.4748,0.4 8.6,0.4 C7.928,0.4 7.2756,0.6 6.7208,0.97 C6.2732,0.3692 5.5612,0 4.8,0 C3.768,0 2.8712,0.6556 2.5396,1.6044 C1.1708,1.522 0,2.63 0,4 C0,4.2208 0.1788,4.4 0.4,4.4 Z M2.4,2.4 C2.51,2.4 2.6244,2.4136 2.7484,2.4412 C2.854,2.4648 2.9664,2.444 3.0568,2.3836 C3.148,2.3232 3.21,2.228 3.2288,2.1204 C3.3644,1.3552 4.0252,0.8 4.8,0.8 C5.4164,0.8 5.9844,1.1644 6.2468,1.7288 C6.3,1.8436 6.4044,1.926 6.528,1.9516 C6.6528,1.978 6.7808,1.9432 6.8752,1.8588 C7.3528,1.434 7.9652,1.2 8.6,1.2 C9.9664,1.2 11.09,2.2592 11.1924,3.6 L0.8508,3.6 C1.0284,2.9108 1.656,2.4 2.4,2.4 Z" id="Shape"></path>
                        <path d="M20.6,3.2 C19.928,3.2 19.2756,3.4 18.7208,3.77 C18.2732,3.1692 17.5612,2.8 16.8,2.8 C15.768,2.8 14.8712,3.4556 14.5396,4.4044 C13.172,4.3192 12,5.43 12,6.8 C12,7.0208 12.1788,7.2 12.4,7.2 L23.59,7.2 C23.8008,7.2 23.9784,6.9964 23.992,6.786 C23.996,6.7244 24,6.6628 24,6.6 C24,4.7252 22.4748,3.2 20.6,3.2 Z M12.8508,6.4 C13.0284,5.7108 13.656,5.2 14.4,5.2 C14.51,5.2 14.6244,5.2136 14.7484,5.2412 C14.854,5.2648 14.9664,5.244 15.0568,5.1836 C15.148,5.1232 15.21,5.028 15.2288,4.9204 C15.3644,4.1552 16.0252,3.6 16.8,3.6 C17.4164,3.6 17.9844,3.9644 18.2468,4.5288 C18.3,4.6436 18.4044,4.726 18.528,4.7516 C18.6528,4.778 18.7808,4.7432 18.8752,4.6588 C19.3528,4.234 19.9652,4 20.6,4 C21.9664,4 23.09,5.0592 23.1924,6.4 L12.8508,6.4 Z" id="Shape"></path>
                    </g>
                </g>
            </g>
        </g>
    </g>
</svg>