<?xml version="1.0" encoding="UTF-8"?>
<svg width="25px" height="25px" viewBox="0 0 25 25" version="1.1" xmlns="http://www.w3.org/2000/svg" xmlns:xlink="http://www.w3.org/1999/xlink">
    <!-- Generator: Sketch 52.5 (67469) - http://www.bohemiancoding.com/sketch -->
    <title>Maintenance</title>
    <desc>Created with Sketch.</desc>
    <g id="Blocks" stroke="none" stroke-width="1" fill="none" fill-rule="evenodd">
        <g id="Tab1_lg" transform="translate(-624.000000, -645.000000)" fill="#6D5CAE">
            <g id="Maintenance" transform="translate(624.000000, 645.000000)">
                <path d="M3.73822439,21.6245637 C3.55010375,21.6245637 3.36235053,21.5529162 3.21868807,21.4092537 C3.07502562,21.2655914 3.00337812,21.0778381 3.00337812,20.8897176 C3.00337812,20.7015969 3.07502562,20.5138436 3.21868807,20.3701812 L7.32427416,16.2642277 C7.61123162,15.9772702 8.07638932,15.9772702 8.36334678,16.2642277 C8.50700922,16.4078901 8.57865674,16.5956433 8.57865674,16.783764 C8.57865674,16.9718846 8.50700922,17.1600053 8.36334678,17.3033003 L4.2577607,21.4092537 C4.11446566,21.5529162 3.92634502,21.6245637 3.73822439,21.6245637 Z M9.73420248,10.5665971 C9.77792584,10.5948887 9.81907723,10.6279568 9.85655439,10.665434 L10.4495753,11.2584549 L12.4101452,9.29604795 L9.75000168,6.63259766 C9.56188103,6.44410959 9.49023353,6.16817482 9.56335072,5.91171348 C9.8980732,4.74000111 9.53799853,3.40588771 8.64589518,2.51341691 L8.64589518,2.51304949 C7.85887482,1.7252943 6.76174934,1.36595448 5.69107834,1.49492 L7.67847006,3.48451627 C8.51766449,4.32481297 8.51766449,5.69199445 7.67847006,6.53229115 C7.27283492,6.93866113 6.73125322,7.16278924 6.15476633,7.16278924 C5.57791201,7.16278924 5.03669773,6.93866113 4.63069518,6.53229115 L2.64036406,4.53938809 C2.49817131,5.62475602 2.85604145,6.7251883 3.65334965,7.49347006 C4.55427117,8.39586127 5.88618002,8.7566708 7.05679012,8.4215809 C7.31325146,8.34846369 7.58992109,8.42011121 7.77877658,8.6089667 L9.73420248,10.5665971 Z M11.5500076,12.3585198 L12.2969788,13.105491 L19.408821,6.339394 C19.4870821,6.26517453 19.580775,6.20895879 19.6829187,6.17478844 L21.0636947,5.71440725 L22.4815807,4.29688881 L20.7039875,2.51929568 L19.2861017,3.93718156 L18.8260879,5.31759027 C18.7882433,5.43222629 18.722842,5.53510477 18.6353953,5.6181424 L11.5500076,12.3585198 Z M16.3889703,17.2298157 C16.5774583,17.4183037 16.6491058,17.6942385 16.5756212,17.9506998 C16.2412662,19.1227796 16.6013408,20.456893 17.4930768,21.3497312 C18.2804646,22.1374865 19.3797946,22.4971937 20.4482611,22.3678607 L18.4608693,20.3782645 C17.6213075,19.5379678 17.6213075,18.1711537 18.4608693,17.3304896 C18.8665045,16.9241196 19.4073513,16.7003589 19.9842057,16.7003589 C20.56106,16.7003589 21.1022742,16.9241196 21.5082768,17.3304896 L23.4989754,19.3233927 C23.6404332,18.2380247 23.2829305,17.1375925 22.4856223,16.3693107 C21.5971932,15.4397302 20.3012918,15.0932501 19.0821818,15.4411998 C18.8264553,15.5146845 18.5494183,15.4434044 18.3601954,15.253814 L15.3443863,12.2346982 L13.3761006,14.1849802 L16.3889703,17.2298157 Z M2.02088867,22.6070531 C2.95487826,23.3554941 4.31728324,23.358801 5.08776955,22.6066857 L9.23928353,18.4551718 C9.1084809,17.6622727 9.47737371,16.6871317 9.93959201,16.260186 C10.441492,15.7208088 11.2972205,15.3658781 11.9560102,15.4290749 C12.0467637,15.437893 12.133843,15.4540597 12.217248,15.4775747 L12.3892021,15.3052533 L11.9108171,14.826501 C11.8432113,14.7919632 11.7800145,14.7467701 11.7237987,14.6905544 L9.93738748,12.9041431 C9.88006947,12.8468251 9.83340674,12.7814238 9.79813412,12.7101437 L9.32489312,12.2361679 L9.15036713,12.4106938 C9.17388221,12.4937315 9.19004883,12.5811782 9.19886699,12.6719317 C9.26316603,13.3288843 8.90750045,14.1860824 8.36738844,14.6879824 C7.94044275,15.1505681 6.96640402,15.5216655 6.17240264,15.3882909 L2.0183167,19.5427443 C1.26840609,20.3077193 1.27171289,21.6719613 2.02088867,22.6070531 Z M3.61403537,24.6275131 C2.70062146,24.6275131 1.76699928,24.3159383 1.02517197,23.6909514 C0.99320616,23.6641295 0.96381231,23.6347357 0.936622998,23.6027699 C-0.326577733,22.1036836 -0.310043692,19.8183117 0.974100158,18.5088156 L5.45813207,14.0244162 C5.71349115,13.7686897 6.11728916,13.7374588 6.40939057,13.9494619 C6.56848478,14.0086171 7.13872549,13.8362956 7.28679699,13.6922657 C7.31067951,13.6636067 7.32831582,13.6459704 7.35623998,13.6213531 C7.5822052,13.42074 7.72917445,13.0393548 7.73836004,12.8618895 C7.60167863,12.7446815 7.51165996,12.5797085 7.4885123,12.3982015 C7.45948588,12.1722362 7.53664473,11.9459036 7.69757605,11.7853397 L8.28618793,11.1967278 L7.02776369,9.93683391 C5.45078361,10.2337118 3.79774693,9.71748228 2.6234626,8.54209568 C1.11519064,7.08820234 0.709555502,4.79180777 1.62480653,2.83785154 C1.72621531,2.62070447 1.92719576,2.46675418 2.16344885,2.42560279 C2.40043676,2.38408398 2.64073148,2.46087541 2.81011355,2.63025748 L5.67087006,5.49395338 C5.92733141,5.75078215 6.38220125,5.75078215 6.63829518,5.49395338 C6.90577922,5.22610191 6.90577922,4.79070551 6.6386626,4.52285404 L3.77753865,1.65879071 C3.60852402,1.48940865 3.53246742,1.24837908 3.57398625,1.01249343 C3.61513764,0.776975197 3.76872051,0.575994744 3.98550016,0.474585959 C5.90014209,-0.424131024 8.19065791,-0.0221701168 9.68570264,1.47471173 L9.68570264,1.4743443 C10.859987,2.65009832 11.3740119,4.30497211 11.0786037,5.88305447 L13.5855318,8.39328932 L17.48977,4.67937629 L17.9468444,3.30815316 C17.9828518,3.19976334 18.0438441,3.10166137 18.1243097,3.02082826 L20.1844512,0.960686763 C20.4600186,0.685119414 20.9479564,0.685119414 21.2235238,0.960686763 L24.0401896,3.7773525 C24.1779732,3.91513617 24.2554996,4.10215455 24.2554996,4.29688881 C24.2554996,4.49162307 24.1779732,4.67864145 24.0401896,4.81642512 L21.980048,6.8761992 C21.8995824,6.95703228 21.8014805,7.01765711 21.6930906,7.05403199 L20.3031289,7.51698514 L16.409546,11.2217126 L19.1104734,13.925212 C20.7238283,13.6158417 22.3838461,14.1361129 23.5268994,15.3324426 C25.0241488,16.7745784 25.4294164,19.070973 24.5145328,21.0249291 C24.4127566,21.2420762 24.2117762,21.3960266 23.9758906,21.4371779 C23.7392701,21.4801664 23.4982404,21.4026402 23.3288584,21.2328906 L20.4684693,18.3691948 C20.212008,18.112366 19.7571381,18.1116312 19.5006768,18.3691948 C19.2331927,18.6366788 19.2331927,19.0724427 19.5006768,19.3399267 L22.3614332,22.2036227 C22.5304479,22.3730047 22.6065045,22.6140342 22.5649857,22.8499199 C22.5238344,23.0858055 22.3702514,23.2860512 22.1534719,23.3881947 C20.2388299,24.286177 17.948314,23.8849508 16.4532693,22.3880689 C15.278985,21.2126824 14.7653274,19.5578086 15.0607356,17.9793588 L13.4279072,16.3450608 L12.8426022,16.9303658 C12.6816709,17.0912971 12.4564405,17.1713954 12.2297404,17.1394296 C12.047866,17.1162819 11.8832604,17.0262632 11.765685,16.8895818 C11.588587,16.8987674 11.2072018,17.0453692 11.0065888,17.2713345 C10.981604,17.2996261 10.9547821,17.3253457 10.9261231,17.3492282 C10.7916463,17.488849 10.6182225,18.0594571 10.6898701,18.2380247 C10.9022406,18.5304936 10.8585173,18.9140833 10.6031582,19.1694424 L6.12390279,23.6486979 C6.12243309,23.650535 6.12059598,23.6523721 6.11875887,23.6538418 C5.4570298,24.3023436 4.54618785,24.6275131 3.61403537,24.6275131 Z" id="Shape"></path>
            </g>
        </g>
    </g>
</svg>