<?xml version="1.0" encoding="UTF-8"?>
<svg width="27px" height="23px" viewBox="0 0 27 23" version="1.1" xmlns="http://www.w3.org/2000/svg" xmlns:xlink="http://www.w3.org/1999/xlink">
    <!-- Generator: Sketch 52.5 (67469) - http://www.bohemiancoding.com/sketch -->
    <title>Management-icon</title>
    <desc>Created with Sketch.</desc>
    <g id="Blocks" stroke="none" stroke-width="1" fill="none" fill-rule="evenodd">
        <g id="Tab1_lg" transform="translate(-840.000000, -724.000000)" fill="#6D5CAE">
            <g id="Group-15" transform="translate(840.000000, 724.000000)">
                <g id="Management-icon">
                    <path d="M26.8090909,12.6671477 C26.3727273,11.8650794 25.6363636,11.4502165 24.6,11.4225589 C24.0545455,11.4225589 23.5090909,11.533189 22.9363636,11.7821068 L22.3363636,12.0310245 L22.3363636,4.56349206 C22.3363636,4.31457431 22.2,4.09331409 21.9818182,3.95502646 L15.1909091,0.138287638 C14.9727273,0.0276575277 14.7272727,0.0276575277 14.5363636,0.138287638 L7.74545455,3.92736893 C7.52727273,4.03799904 7.39090909,4.28691679 7.39090909,4.53583454 L7.39090909,10.8694084 C7.2,10.8970659 7.03636364,10.952381 6.84545455,11.007696 C6.10909091,11.2566138 4.96363636,11.8927369 4.03636364,12.4458874 C3.98181818,12.1139971 3.70909091,11.8650794 3.35454545,11.8650794 L0.927272727,11.8650794 C0.545454545,11.8650794 0.245454545,12.1693122 0.245454545,12.5565176 L0.245454545,21.3792689 C0.245454545,21.7664743 0.545454545,22.0707071 0.927272727,22.0707071 L3.35454545,22.0707071 C3.73636364,22.0707071 4.03636364,21.7664743 4.03636364,21.3792689 L4.03636364,20.7154882 L5.04545455,19.9134199 C5.80909091,19.3326118 6.76363636,19.0560366 7.71818182,19.1390091 C8.86363636,19.2219817 9.68181818,19.3049543 10.1181818,19.4155844 L12.8181818,19.9963925 C14.1272727,20.2729678 15.4636364,20.2453102 16.6636364,19.9134199 C17.1,19.8027898 17.4545455,19.6645022 17.7545455,19.498557 L26.1545455,14.7691198 C26.5090909,14.5755171 26.7818182,14.2436267 26.8909091,13.8564214 C27.0545455,13.4415584 27,13.0266955 26.8090909,12.6671477 Z M25.6363636,13.4415584 C25.6363636,13.469216 25.6090909,13.4968735 25.5545455,13.524531 L17.1545455,18.2816258 C16.9636364,18.3922559 16.6909091,18.502886 16.3636364,18.5858586 C15.3545455,18.8624339 14.2363636,18.8900914 13.1454545,18.6411736 L10.4454545,18.0603656 C9.92727273,17.9497354 9.05454545,17.8667629 7.85454545,17.7561328 C6.57272727,17.6731602 5.31818182,18.032708 4.28181818,18.8071188 L4.09090909,18.9454064 L4.09090909,15.7371332 L4.09090909,14.0223665 C4.2,13.9670515 4.33636364,13.8840789 4.44545455,13.8011063 C5.29090909,13.3032708 6.6,12.52886 7.28181818,12.3075998 C7.58181818,12.2246272 7.93636364,12.1416546 8.37272727,12.1139971 C9.19090909,12.0586821 10.0636364,12.1969697 10.9363636,12.5012025 C12.3272727,12.9713805 14.1545455,13.5521886 14.9727273,13.5521886 L17.7272727,13.5521886 C18.0545455,13.5521886 18.3272727,13.8287638 18.3272727,14.1329966 C18.3272727,14.1329966 18.3272727,14.1606542 18.3272727,14.1606542 C18.3272727,14.4925445 18.0545455,14.7414622 17.7272727,14.7414622 L12.4363636,14.7414622 C12.0545455,14.7414622 11.7545455,15.045695 11.7545455,15.4329004 C11.7545455,15.8201058 12.0545455,16.1243386 12.4363636,16.1243386 L17.7272727,16.1243386 C18.6545455,16.1243386 19.4181818,15.4882155 19.6363636,14.6308321 L23.4545455,13.0266955 C23.8363636,12.8607504 24.2181818,12.7777778 24.5454545,12.7777778 C25.2272727,12.7777778 25.4454545,13.0543531 25.5818182,13.3032708 C25.6363636,13.3585859 25.6363636,13.4139009 25.6363636,13.4415584 Z M1.63636364,13.2756133 L2.7,13.2756133 L2.7,20.7154882 L1.63636364,20.7154882 L1.63636364,13.2756133 Z M15.9272727,12.1969697 L14.9727273,12.1969697 C14.7545455,12.1969697 14.3181818,12.1139971 13.7454545,11.9757095 L13.7454545,8.71212121 L15.9272727,8.71212121 L15.9272727,12.1969697 Z M14.8636364,1.52116402 L20.9727273,4.95069745 L20.9727273,12.6118326 L19.4454545,13.2479557 C19.1181818,12.6394901 18.4636364,12.1969697 17.7272727,12.1969697 C17.7272727,12.1969697 17.7272727,12.1969697 17.7272727,12.1969697 L17.3181818,12.1969697 L17.3181818,8.02068302 C17.3181818,7.63347763 17.0181818,7.32924483 16.6363636,7.32924483 L13.0909091,7.32924483 C12.7090909,7.32924483 12.4090909,7.63347763 12.4090909,8.02068302 L12.4090909,11.5608466 C12.0818182,11.4502165 11.7545455,11.3395863 11.3727273,11.2289562 C10.5,10.9247234 9.62727273,10.7587783 8.75454545,10.7587783 L8.75454545,4.95069745 L14.8636364,1.52116402 Z" id="Shape"></path>
                </g>
            </g>
        </g>
    </g>
</svg>