<?xml version="1.0" encoding="UTF-8"?>
<svg width="25px" height="27px" viewBox="0 0 25 27" version="1.1" xmlns="http://www.w3.org/2000/svg" xmlns:xlink="http://www.w3.org/1999/xlink">
    <!-- Generator: Sketch 52.5 (67469) - http://www.bohemiancoding.com/sketch -->
    <title>Water-icon</title>
    <desc>Created with Sketch.</desc>
    <g id="Blocks" stroke="none" stroke-width="1" fill="none" fill-rule="evenodd">
        <g id="Tab1_lg" transform="translate(-1067.000000, -724.000000)" fill="#6D5CAE">
            <g id="Group-14" transform="translate(1067.000000, 724.000000)">
                <g id="Water-icon">
                    <path d="M23.6029412,0.441176471 C23.1617647,0.441176471 22.8676471,0.808823529 22.8676471,1.17647059 L22.8676471,3.16176471 L20.8823529,3.16176471 C19.6323529,3.16176471 18.6764706,4.19117647 18.6764706,5.36764706 L18.6764706,5.95588235 L10.8823529,5.95588235 L10.8823529,3.08823529 L15.0735294,3.08823529 C15.4411765,3.08823529 15.8088235,2.79411765 15.8088235,2.35294118 C15.8088235,1.91176471 15.4411765,1.61764706 15.0735294,1.61764706 L10.8823529,1.61764706 L10.8823529,0.955882353 C10.8823529,0.588235294 10.5147059,0.220588235 10.1470588,0.220588235 C9.70588235,0.220588235 9.41176471,0.588235294 9.41176471,0.955882353 L9.41176471,1.61764706 L5.22058824,1.61764706 C4.85294118,1.61764706 4.48529412,1.91176471 4.48529412,2.35294118 C4.48529412,2.79411765 4.85294118,3.08823529 5.22058824,3.08823529 L9.41176471,3.08823529 L9.41176471,5.95588235 L2.35294118,5.95588235 C1.10294118,5.95588235 0.147058824,6.98529412 0.147058824,8.16176471 L0.147058824,15.3676471 C0.147058824,16.6176471 1.10294118,17.5735294 2.35294118,17.5735294 L5.29411765,17.5735294 C6.54411765,17.5735294 7.5,16.6176471 7.5,15.3676471 L7.5,13.2352941 C7.5,12.7941176 7.86764706,12.5 8.23529412,12.5 L18.6764706,12.5 C18.8970588,13.5294118 19.7794118,14.2647059 20.8088235,14.2647059 L22.7941176,14.2647059 L22.7941176,20 C22.7205882,20 22.7205882,20.0735294 22.6470588,20.0735294 C22.5735294,20.1470588 22.4264706,20.2205882 22.3529412,20.3676471 C21.9852941,20.7352941 21.7647059,20.8823529 21.3235294,20.8823529 C20.8088235,20.8823529 20.5882353,20.6617647 20.2941176,20.3676471 C19.8529412,20 19.3382353,19.4117647 18.2352941,19.4117647 C17.1323529,19.4117647 16.6176471,19.9264706 16.1764706,20.3676471 C15.8088235,20.7352941 15.5882353,20.8823529 15.1470588,20.8823529 C14.6323529,20.8823529 14.4117647,20.6617647 14.1176471,20.3676471 C13.6764706,20 13.0882353,19.4117647 12.0588235,19.4117647 C11.0294118,19.4117647 10.4411765,19.9264706 10,20.3676471 C9.63235294,20.7352941 9.41176471,20.8823529 8.97058824,20.8823529 C8.60294118,20.8823529 8.23529412,21.25 8.23529412,21.6176471 C8.23529412,22.0588235 8.60294118,22.3529412 8.97058824,22.3529412 C10.0735294,22.3529412 10.5882353,21.8382353 11.0294118,21.3970588 C11.3970588,21.0294118 11.6176471,20.8823529 12.0588235,20.8823529 C12.5735294,20.8823529 12.7941176,21.1029412 13.1617647,21.3970588 C13.6029412,21.7647059 14.1176471,22.3529412 15.2205882,22.3529412 C16.3235294,22.3529412 16.8382353,21.8382353 17.2794118,21.3970588 C17.6470588,21.0294118 17.8676471,20.8823529 18.3088235,20.8823529 C18.8235294,20.8823529 19.0441176,21.1029412 19.3382353,21.3970588 C19.7794118,21.7647059 20.2941176,22.3529412 21.3970588,22.3529412 C22.0588235,22.3529412 22.5,22.1323529 22.8676471,21.9117647 L22.8676471,24.4117647 C22.7941176,24.4117647 22.7941176,24.4852941 22.7205882,24.4852941 C22.6470588,24.5588235 22.5,24.6323529 22.4264706,24.7794118 C22.0588235,25.1470588 21.8382353,25.2941176 21.3970588,25.2941176 C20.8823529,25.2941176 20.6617647,25.0735294 20.3676471,24.7794118 C19.9264706,24.4117647 19.4117647,23.8235294 18.3088235,23.8235294 C17.2058824,23.8235294 16.6911765,24.3382353 16.25,24.7794118 C15.8823529,25.1470588 15.6617647,25.2941176 15.2205882,25.2941176 C14.7058824,25.2941176 14.4852941,25.0735294 14.1911765,24.7794118 C13.75,24.4117647 13.1617647,23.8235294 12.1323529,23.8235294 C11.1029412,23.8235294 10.5147059,24.3382353 10.0735294,24.7794118 C9.70588235,25.1470588 9.48529412,25.2941176 9.04411765,25.2941176 C8.67647059,25.2941176 8.30882353,25.6617647 8.30882353,26.0294118 C8.30882353,26.4705882 8.67647059,26.7647059 9.04411765,26.7647059 C10.1470588,26.7647059 10.6617647,26.25 11.1029412,25.8088235 C11.4705882,25.4411765 11.6911765,25.2941176 12.1323529,25.2941176 C12.6470588,25.2941176 12.8676471,25.5147059 13.2352941,25.8088235 C13.6764706,26.1764706 14.1911765,26.7647059 15.2941176,26.7647059 C16.3970588,26.7647059 16.9117647,26.25 17.3529412,25.8088235 C17.7205882,25.4411765 17.9411765,25.2941176 18.3823529,25.2941176 C18.8970588,25.2941176 19.1176471,25.5147059 19.4117647,25.8088235 C19.8529412,26.1764706 20.3676471,26.7647059 21.4705882,26.7647059 C22.1323529,26.7647059 22.5735294,26.5441176 22.9411765,26.3235294 C22.9411765,26.6911765 23.3088235,26.9852941 23.6764706,26.9852941 C24.1176471,26.9852941 24.4117647,26.6911765 24.4117647,26.25 L24.4117647,1.25 C24.3382353,0.808823529 23.9705882,0.441176471 23.6029412,0.441176471 Z M18.6764706,11.0294118 L8.23529412,11.0294118 C6.98529412,11.0294118 6.02941176,12.0588235 6.02941176,13.2352941 L6.02941176,15.3676471 C6.02941176,15.8088235 5.66176471,16.1029412 5.29411765,16.1029412 L2.35294118,16.1029412 C1.98529412,16.1029412 1.61764706,15.8088235 1.61764706,15.3676471 L1.61764706,8.16176471 C1.61764706,7.79411765 1.98529412,7.42647059 2.35294118,7.42647059 L18.6764706,7.42647059 L18.6764706,11.0294118 Z M22.7941176,12.7205882 L20.8823529,12.7205882 C20.5147059,12.7205882 20.1470588,12.4264706 20.1470588,11.9852941 L20.1470588,5.36764706 C20.1470588,5 20.5147059,4.63235294 20.8823529,4.63235294 L22.7941176,4.63235294 L22.7941176,12.7205882 Z" id="Shape"></path>
                    <path d="M3.67647059,25.2941176 C3.67647059,25.2941176 3.67647059,25.2941176 3.67647059,25.2941176 C2.86764706,25.2941176 2.13235294,24.8529412 1.69117647,24.1911765 C1.25,23.4558824 1.25,22.5735294 1.61764706,21.8382353 L3.01470588,19.1176471 C3.23529412,18.6029412 4.04411765,18.6029412 4.33823529,19.1176471 L5.73529412,21.8382353 C6.10294118,22.5735294 6.10294118,23.4558824 5.66176471,24.1911765 C5.22058824,24.8529412 4.48529412,25.2941176 3.67647059,25.2941176 C3.67647059,25.2941176 3.67647059,25.2941176 3.67647059,25.2941176 Z M3.67647059,20.9558824 L2.94117647,22.4264706 C2.79411765,22.7205882 2.79411765,23.0882353 2.94117647,23.3823529 C3.01470588,23.5294118 3.23529412,23.8235294 3.67647059,23.8235294 C4.11764706,23.8235294 4.33823529,23.5294118 4.41176471,23.3823529 C4.55882353,23.0882353 4.63235294,22.7205882 4.41176471,22.4264706 L3.67647059,20.9558824 Z" id="Shape"></path>
                </g>
            </g>
        </g>
    </g>
</svg>