<?xml version="1.0" encoding="UTF-8" standalone="no"?>
<svg xmlns="http://www.w3.org/2000/svg" height="16px" width="16px" version="1.1" xmlns:xlink="http://www.w3.org/1999/xlink" viewBox="0 0 16 16"><!-- Generator: Sketch 52.4 (67378) - http://www.bohemiancoding.com/sketch -->
 <title>bath-icon</title>
 <desc>Created with Sketch.</desc>
 <g id="Pages" fill-rule="evenodd" fill="none">
  <g id="Home-Page_sm-Copy" fill="#fff" transform="translate(-226 -2226)">
   <g id="Group-15" transform="translate(16 2221)">
    <g id="Group-20" transform="translate(198)">
     <g id="bath-icon" transform="translate(12 5)">
      <path id="Shape" fill-rule="nonzero" d="m15.04 8.2155h-1.61v-6.0248c0-0.391-0.11-0.7718-0.318-1.1004-0.334-0.52818-0.878-0.8632-1.492-0.91903-0.611-0.05535-1.208 0.17534-1.6286 0.63493l-0.4743 0.5176c-0.9085 0.076-1.6254 0.8535-1.6254 1.8 0 0.1802 0.1432 0.3265 0.32 0.3265h2.9023c0.177 0 0.32-0.1463 0.32-0.3265 0-0.771-0.476-1.4288-1.143-1.6882l0.168-0.1835c0.285-0.31137 0.689-0.46875 1.104-0.43039 0.416 0.03772 0.785 0.26499 1.011 0.62289 0.141 0.2227 0.216 0.4806 0.216 0.7459v6.025h-11.83c-0.52944 0-0.96 0.4394-0.96 0.9796v0.6712c0 0.1807 0.1432 0.3267 0.32 0.3267h0.5584l0.2939 1.02c0.3267 1.133 1.1138 2.043 2.1125 2.547-0.3629 0.53-0.5635 1.169-0.5635 1.817 0 0.18 0.1432 0.327 0.32 0.327 0.1766 0 0.32-0.147 0.32-0.327 0-0.555 0.1832-1.102 0.5323-1.566l0.0024-0.003c0.3762 0.117 0.7715 0.183 1.1776 0.183h2.624 0.6046 2.5508c0.429 0 0.847-0.071 1.243-0.199l0.027 0.044c0.333 0.439 0.516 0.987 0.516 1.541 0 0.18 0.143 0.327 0.32 0.327s0.32-0.147 0.32-0.327c0-0.664-0.211-1.318-0.577-1.836 1.014-0.517 1.813-1.446 2.146-2.6l0.273-0.948h0.559c0.177 0 0.32-0.146 0.32-0.3267v-0.6712c0-0.5402-0.431-0.9796-0.96-0.9796zm-4.292-5.4183h-2.1704c0.1384-0.478 0.5725-0.8279 1.0853-0.8279 0.5131 0 0.9471 0.35 1.0851 0.8279zm3.486 8.1588c-0.438 1.52-1.828 2.582-3.381 2.582h-2.5508-0.6046-2.624c-1.5094 0-2.8613-1.032-3.2872-2.51l-0.2408-0.835h12.909l-0.221 0.763zm1.126-1.4162h-14.72v-0.3447c0-0.1802 0.14352-0.3265 0.32-0.3265h14.08c0.177 0 0.32 0.1463 0.32 0.3265v0.3447z"/>
      <path id="Path" d="m7.937 7.127c0 0.1803 0.1433 0.3266 0.32 0.3266 0.1768 0 0.32-0.1463 0.32-0.3266v-0.3265c0-0.1803-0.1432-0.3265-0.32-0.3265-0.1767 0-0.32 0.1462-0.32 0.3265v0.3265z"/>
      <path id="Path" d="m7.937 5.8209c0 0.1802 0.1433 0.3265 0.32 0.3265 0.1768 0 0.32-0.1463 0.32-0.3265v-0.3265c0-0.1803-0.1432-0.3266-0.32-0.3266-0.1767 0-0.32 0.1462-0.32 0.3266v0.3265z"/>
      <path id="Path" d="m8.257 4.8413c0.1768 0 0.32-0.1461 0.32-0.3265v-0.3266c0-0.1802-0.1432-0.3265-0.32-0.3265-0.1767 0-0.32 0.1461-0.32 0.3265v0.3266c0 0.1802 0.1432 0.3265 0.32 0.3265z"/>
      <path id="Path" d="m10.658 7.127c0 0.1803 0.143 0.3266 0.32 0.3266s0.32-0.1463 0.32-0.3266v-0.3265c0-0.1803-0.143-0.3265-0.32-0.3265s-0.32 0.1462-0.32 0.3265v0.3265z"/>
      <path id="Path" d="m10.978 4.8413c0.177 0 0.32-0.1461 0.32-0.3265v-0.3266c0-0.1802-0.143-0.3265-0.32-0.3265s-0.32 0.1461-0.32 0.3265v0.3266c0 0.1802 0.143 0.3265 0.32 0.3265z"/>
      <path id="Path" d="m10.658 5.8209c0 0.1802 0.143 0.3265 0.32 0.3265s0.32-0.1463 0.32-0.3265v-0.3265c0-0.1803-0.143-0.3266-0.32-0.3266s-0.32 0.1462-0.32 0.3266v0.3265z"/>
      <path id="Path" d="m9.5723 4.8413c0.1768 0 0.32-0.1461 0.32-0.3265v-0.3266c0-0.1802-0.1432-0.3265-0.32-0.3265s-0.32 0.1461-0.32 0.3265v0.3266c0 0.1802 0.1431 0.3265 0.32 0.3265z"/>
      <path id="Path" d="m9.2523 7.127c0 0.1803 0.1432 0.3266 0.32 0.3266s0.32-0.1463 0.32-0.3266v-0.3265c0-0.1803-0.1432-0.3265-0.32-0.3265s-0.32 0.1462-0.32 0.3265v0.3265z"/>
      <path id="Path" d="m9.2523 5.8209c0 0.1802 0.1432 0.3265 0.32 0.3265s0.32-0.1463 0.32-0.3265v-0.3265c0-0.1803-0.1432-0.3266-0.32-0.3266s-0.32 0.1462-0.32 0.3266v0.3265z"/>
     </g>
    </g>
   </g>
  </g>
 </g>
</svg>
