<?xml version="1.0" encoding="UTF-8" standalone="no"?>
<svg xmlns="http://www.w3.org/2000/svg" height="11px" width="16px" version="1.1" xmlns:xlink="http://www.w3.org/1999/xlink" viewBox="0 0 16 11"><!-- Generator: Sketch 52.4 (67378) - http://www.bohemiancoding.com/sketch -->
 <title>bed-icon</title>
 <desc>Created with Sketch.</desc>
 <g id="Pages" fill-rule="evenodd" fill="none">
  <g id="Home-Page_sm-Copy" fill-rule="nonzero" fill="#fff" transform="translate(-132 -2227)">
   <g id="Group-15" transform="translate(16 2221)">
    <g id="Group-19" transform="translate(99)">
     <g id="bed-icon" transform="translate(17 6)">
      <path id="Shape" d="m3.0777 0c-0.7828 0-1.4212 0.65662-1.4212 1.4617v2.6674c0 0.3563 0.1299 0.6793 0.3372 0.9334h-0.9034c-0.28366 0-0.54576 0.0889-0.74681 0.2495-0.20106 0.1607-0.34349 0.4065-0.34349 0.6839v0.9226 1.5675 2.514h16v-2.514-1.5675-0.9226c0-0.2774-0.142-0.5232-0.343-0.6839-0.202-0.1606-0.464-0.2495-0.747-0.2495h-0.904c0.208-0.2541 0.337-0.5771 0.337-0.9334v-2.6674c0-0.80508-0.638-1.4617-1.421-1.4617h-9.8443zm0 0.55313h9.8443c0.494 0 0.884 0.40036 0.884 0.90857v2.6674c0 0.1781-0.05 0.3406-0.134 0.4796 0.006-0.0453 0.014-0.0893 0.014-0.1361v-0.3414c0-0.6148-0.49-1.1181-1.088-1.1181h-3.7409c-0.3408 0-0.6427 0.1667-0.8424 0.4213-0.1997-0.2546-0.5016-0.4213-0.8424-0.4213h-3.7416c-0.5979 0-1.0872 0.5033-1.0872 1.1181v0.3414c0 0.0653 0.0083 0.1278 0.0189 0.1901-0.105-0.1494-0.1681-0.3318-0.1681-0.5336v-2.6674c0-0.50821 0.3893-0.90857 0.8834-0.90857zm0.353 3.0131h3.7416c0.3092 0 0.5493 0.247 0.5493 0.565v0.3414c0 0.3181-0.2401 0.565-0.5493 0.565h-3.7416c-0.3092 0-0.5494-0.2469-0.5494-0.565v-0.3414c0-0.318 0.2402-0.565 0.5494-0.565zm5.4264 0h3.7409c0.309 0 0.55 0.247 0.55 0.565v0.3414c0 0.3181-0.241 0.565-0.55 0.565h-3.7409c-0.3091 0-0.5493-0.2469-0.5493-0.565v-0.3414c0-0.318 0.2402-0.565 0.5493-0.565zm-7.7668 2.0494h13.82c0.171 0 0.321 0.0562 0.417 0.1329 0.096 0.0766 0.135 0.1609 0.135 0.2474v0.9226 1.5675 1.961h-14.924l-0.00018-1.961v-1.5675-0.9226c0-0.0865 0.03961-0.1708 0.1355-0.2474 0.09589-0.0767 0.24538-0.1329 0.41698-0.1329z"/>
     </g>
    </g>
   </g>
  </g>
 </g>
</svg>
