<?xml version="1.0" encoding="UTF-8"?>
<svg width="32px" height="32px" viewBox="0 0 32 32" version="1.1" xmlns="http://www.w3.org/2000/svg" xmlns:xlink="http://www.w3.org/1999/xlink">
    <!-- Generator: Sketch 55.2 (78181) - https://sketchapp.com -->
    <title>Blue</title>
    <desc>Created with Sketch.</desc>
    <g id="Homepage" stroke="none" stroke-width="1" fill="none" fill-rule="evenodd">
        <g id="Homepage@2x-Copy-16" transform="translate(-753.000000, -6769.000000)" fill="#818DB2">
            <g id="Group-34" transform="translate(466.000000, 6661.000000)">
                <g id="Group-41" transform="translate(179.000000, 0.000000)">
                    <g id="Fill-3">
                        <path d="M124,129.565217 L119.130435,129.565217 L119.130435,123.34858 L123.998429,120.521739 L128.869565,123.351594 L128.869565,129.565217 L124,129.565217 Z M122.173903,108.576894 L111.749088,114.690535 C108.491333,116.601324 108,117.886267 108,121.087912 L108,135.376717 C108,137.951775 109.007081,140 112.849248,140 L114.674201,140 C119.149608,140 119.270915,136.929141 119.270915,135.573263 L119.270915,132.095272 L131.74575,132.095272 L131.74575,121.455883 L124.001907,116.914617 L116.257302,121.455883 L116.257302,135.553313 C116.257302,136.370534 115.956703,137.081354 114.470496,137.081354 L112.72794,137.081354 C111.232578,137.081354 111.013614,136.417824 111.013614,135.514891 L111.013614,120.990377 C111.013614,118.712355 111.302768,118.34734 112.777531,117.482829 L123.00093,111.487413 C123.821091,111.005651 124.178909,111.005651 124.99907,111.487413 L135.222469,117.482829 C136.697232,118.34734 136.986386,118.712355 136.986386,120.990377 L136.986386,135.514891 C136.986386,136.417824 136.76666,137.081354 135.27206,137.081354 L123.432754,137.081354 C121.601698,137.081354 121.600935,140 123.432754,140 L135.149989,140 C138.992919,140 140,137.951775 140,135.376717 L140,121.087912 C140,117.886267 139.508667,116.601324 136.250912,114.690535 L125.82686,108.576894 C124.515366,107.807702 123.484634,107.807702 122.173903,108.576894 L122.173903,108.576894 Z" id="Blue"></path>
                    </g>
                </g>
            </g>
        </g>
    </g>
</svg>