<?xml version="1.0" encoding="UTF-8" standalone="no"?>
<svg xmlns="http://www.w3.org/2000/svg" height="53px" width="50px" version="1.1" xmlns:xlink="http://www.w3.org/1999/xlink" viewBox="0 0 50 53"><!-- Generator: Sketch 52.3 (67297) - http://www.bohemiancoding.com/sketch -->
 <title>chart-icon</title>
 <desc>Created with Sketch.</desc>
 <g id="Temporary-Homepage-(Instapage)" fill-rule="evenodd" fill="none">
  <g id="Insta" transform="translate(-340 -1125)">
   <g id="Group-3" transform="translate(255 1125)">
    <g id="Group-34">
     <g id="chart-icon" transform="translate(85)">
      <path id="Path" d="m22.549 1.9608c-4.733 0.2015-9.201 2.0422-12.745 5.2523l12.745 13.375v-18.627z"/>
      <path id="Path" d="m1.9608 26.992c0 4.022 1.1599 7.888 3.3632 11.243l16.245-11.369-13.852-14.121c-3.7192 3.866-5.7562 8.891-5.7562 14.247z"/>
      <path id="Path" d="m47.849 26.14c-0.044-0.336-0.097-0.67-0.159-1.004-0.133-0.727-0.302-1.439-0.501-2.111-0.087-0.3-0.182-0.594-0.281-0.884-0.216-0.633-0.467-1.261-0.744-1.873-0.121-0.269-0.247-0.529-0.377-0.788-0.285-0.566-0.603-1.129-0.945-1.676-0.147-0.235-0.297-0.471-0.457-0.703-0.39-0.57-0.813-1.129-1.257-1.657-0.177-0.211-0.358-0.418-0.543-0.624-0.407-0.447-0.847-0.89-1.306-1.314-0.201-0.188-0.408-0.371-0.616-0.55-0.473-0.406-0.967-0.793-1.471-1.152-0.227-0.164-0.455-0.322-0.687-0.475-0.551-0.364-1.102-0.693-1.644-0.981-0.255-0.138-0.514-0.269-0.774-0.396-0.663-0.3225-1.354-0.6119-2.051-0.8626-0.288-0.1042-0.578-0.2037-0.87-0.294-0.682-0.213-1.385-0.3919-2.093-0.5378-0.326-0.0648-0.657-0.125-0.99-0.176-0.773-0.1181-1.58-0.195-2.4-0.2246-0.132-0.0046-0.263-0.0115-0.396-0.0139v20.855c0 0.285-0.139 0.554-0.374 0.718l-17.109 12.055c0.292 0.389 0.611 0.784 0.972 1.198 0.178 0.204 0.36 0.41 0.548 0.61 0.41 0.438 0.856 0.874 1.33 1.296 0.206 0.183 0.416 0.364 0.627 0.54 0.587 0.482 1.131 0.892 1.662 1.252 0.191 0.127 0.387 0.248 0.585 0.369l0.13 0.081c0.552 0.341 1.119 0.655 1.687 0.941 0.256 0.127 0.519 0.255 0.787 0.376 0.577 0.259 1.195 0.498 1.891 0.735 0.292 0.097 0.587 0.195 0.885 0.28 0.742 0.216 1.435 0.382 2.122 0.508 0.334 0.06 0.671 0.108 1.01 0.152 0.921 0.123 1.841 0.186 2.734 0.188 0.013 0 0.047 0.002 0.06 0.002 0.382 0.005 0.76-0.011 1.136-0.03 1.004-0.053 2.016-0.181 3.009-0.376 0.496-0.099 0.999-0.22 1.537-0.371 1.543-0.424 3.027-1.02 4.411-1.769 1.388-0.751 2.703-1.666 3.909-2.726 0.677-0.593 1.314-1.228 1.898-1.887 1.068-1.203 1.991-2.511 2.744-3.888 0.752-1.372 1.351-2.847 1.782-4.381 0.15-0.543 0.271-1.046 0.37-1.533 0.196-0.983 0.324-1.989 0.379-2.99 0.019-0.373 0.03-0.751 0.03-1.131v-0.06c-0.004-0.876-0.067-1.792-0.19-2.717z"/>
      <path id="Shape" fill-rule="nonzero" fill="#6D5CAE" d="m23.002 23.258c0.169 0.178 0.398 0.271 0.63 0.271 0.111 0 0.223-0.021 0.33-0.065 0.331-0.136 0.548-0.461 0.548-0.824v-21.75c0-0.49192-0.393-0.89-0.878-0.89-5.821 0-11.334 2.2663-15.522 6.3816-0.1671 0.166-0.2627 0.3887-0.2668 0.6248-0.0034 0.2362 0.0853 0.4659 0.2478 0.6343l14.911 15.617zm-0.248-21.458v18.639l-12.78-13.383c3.554-3.212 8.034-5.0545 12.78-5.2556z"/>
      <path id="Shape" fill-rule="nonzero" fill="#6D5CAE" d="m23.526 28.044c0.024-0.252-0.066-0.505-0.247-0.689l-15.129-15.326c-0.1645-0.165-0.389-0.261-0.6252-0.264-0.2361 0.002-0.4641 0.085-0.633 0.246-4.4443 4.225-6.8918 9.89-6.8918 15.953 0 4.632 1.4438 9.072 4.1731 12.842 0.173 0.241 0.4483 0.37 0.7271 0.37 0.1772 0 0.3578-0.052 0.5139-0.16l17.74-12.34c0.213-0.147 0.348-0.377 0.372-0.632zm-18.401 11.03c-2.1909-3.315-3.3442-7.136-3.3442-11.11 0-5.293 2.0255-10.258 5.7233-14.079l13.773 13.954-16.152 11.235z"/>
      <path id="Shape" fill-rule="nonzero" fill="#6D5CAE" d="m49.998 29.837c-0.003-0.961-0.072-1.959-0.204-2.966-0.049-0.37-0.107-0.737-0.172-1.099-0.147-0.798-0.331-1.576-0.547-2.31-0.094-0.325-0.197-0.647-0.306-0.966-0.235-0.691-0.508-1.381-0.81-2.045-0.13-0.293-0.267-0.58-0.41-0.863-0.312-0.619-0.657-1.235-1.029-1.833-0.163-0.262-0.327-0.519-0.499-0.769-0.424-0.624-0.884-1.233-1.367-1.81-0.192-0.229-0.388-0.456-0.59-0.68-0.444-0.491-0.923-0.975-1.422-1.438-0.218-0.203-0.442-0.404-0.669-0.598-0.513-0.442-1.051-0.868-1.597-1.258-0.249-0.18-0.499-0.356-0.751-0.519-0.595-0.395-1.198-0.7579-1.789-1.0731-0.277-0.1494-0.557-0.2924-0.841-0.4302-0.724-0.3532-1.476-0.6713-2.235-0.9445-0.314-0.1145-0.63-0.2242-0.95-0.3229-0.739-0.2317-1.505-0.4302-2.277-0.5866-0.356-0.0724-0.714-0.1355-1.077-0.1938-0.844-0.1285-1.725-0.2131-2.614-0.2458-0.307-0.0117-0.616-0.0234-0.926-0.0234-0.73 0-1.323 0.5914-1.323 1.3211v21.036l-17.189 12.159c-0.2869 0.201-0.484 0.512-0.543 0.862-0.0568 0.347 0.0228 0.692 0.2269 0.982l0.086 0.115c0.3737 0.516 0.7884 1.038 1.2685 1.594 0.196 0.227 0.3942 0.451 0.5976 0.668 0.445 0.477 0.931 0.952 1.445 1.415 0.224 0.198 0.451 0.395 0.682 0.587 0.636 0.528 1.228 0.974 1.81 1.37 0.214 0.142 0.432 0.278 0.65 0.411l0.128 0.08c0.598 0.371 1.213 0.715 1.835 1.028 0.284 0.143 0.569 0.28 0.856 0.409 0.631 0.285 1.304 0.547 2.06 0.805 0.318 0.11 0.639 0.213 0.961 0.306 0.803 0.234 1.556 0.416 2.31 0.554 0.367 0.068 0.733 0.119 1.101 0.168 0.999 0.133 2 0.204 2.952 0.206 0.015 0 0.071 0.002 0.086 0.002 0.417 0 0.83-0.011 1.24-0.035 1.092-0.056 2.194-0.194 3.275-0.411 0.543-0.108 1.091-0.239 1.675-0.403 1.678-0.465 3.294-1.115 4.802-1.935 1.512-0.821 2.944-1.824 4.255-2.979 0.736-0.645 1.43-1.339 2.063-2.059 1.161-1.312 2.165-2.74 2.986-4.248 0.818-1.501 1.47-3.112 1.939-4.793 0.164-0.591 0.297-1.136 0.403-1.672 0.214-1.075 0.353-2.174 0.413-3.271 0.021-0.409 0.033-0.82 0.033-1.234l-0.002-0.064zm-1.811 1.206c-0.055 1.01-0.183 2.025-0.381 3.016-0.098 0.491-0.22 0.998-0.372 1.545-0.433 1.548-1.034 3.034-1.789 4.419-0.756 1.388-1.684 2.707-2.756 3.92-0.586 0.664-1.226 1.305-1.906 1.903-1.212 1.068-2.533 1.992-3.927 2.75-1.39 0.754-2.881 1.356-4.43 1.784-0.54 0.151-1.046 0.273-1.545 0.374-0.997 0.197-2.013 0.325-3.021 0.379-0.379 0.018-0.758 0.035-1.141 0.03-0.014 0-0.048-0.002-0.061-0.002-0.897-0.003-1.821-0.066-2.745-0.189-0.341-0.045-0.68-0.094-1.015-0.155-0.69-0.126-1.387-0.294-2.132-0.511-0.299-0.087-0.595-0.185-0.888-0.283-0.699-0.238-1.32-0.479-1.9-0.741-0.269-0.122-0.533-0.25-0.791-0.379-0.569-0.287-1.139-0.606-1.694-0.949l-0.131-0.082c-0.198-0.122-0.395-0.244-0.587-0.372-0.533-0.363-1.08-0.776-1.669-1.263-0.212-0.177-0.423-0.36-0.63-0.544-0.476-0.426-0.924-0.865-1.336-1.307-0.189-0.202-0.372-0.41-0.551-0.615-0.362-0.419-0.682-0.816-0.9758-1.208l17.185-12.157c0.235-0.166 0.375-0.437 0.375-0.725v-21.032c0.133 0.0024 0.266 0.0094 0.399 0.0141 0.823 0.0303 1.634 0.1074 2.41 0.2265 0.334 0.0513 0.667 0.112 0.995 0.1774 0.71 0.1471 1.417 0.3275 2.101 0.5423 0.294 0.0911 0.585 0.1915 0.874 0.2966 0.7 0.2531 1.394 0.5451 2.06 0.8701 0.262 0.128 0.521 0.259 0.778 0.4 0.544 0.29 1.098 0.621 1.651 0.988 0.233 0.155 0.462 0.314 0.69 0.48 0.506 0.362 1.003 0.753 1.477 1.161 0.21 0.18 0.417 0.365 0.62 0.554 0.46 0.428 0.902 0.875 1.311 1.326 0.186 0.208 0.368 0.416 0.546 0.629 0.445 0.533 0.87 1.096 1.262 1.671 0.16 0.234 0.311 0.472 0.459 0.709 0.343 0.551 0.662 1.119 0.949 1.69 0.131 0.262 0.257 0.523 0.379 0.795 0.278 0.617 0.53 1.251 0.747 1.889 0.1 0.292 0.194 0.589 0.282 0.891 0.2 0.677 0.37 1.395 0.504 2.129 0.061 0.337 0.115 0.673 0.16 1.013 0.122 0.932 0.186 1.856 0.189 2.74v0.06c0.001 0.384-0.01 0.766-0.029 1.142z"/>
     </g>
    </g>
   </g>
  </g>
 </g>
</svg>
