<?xml version="1.0" encoding="UTF-8"?>
<svg width="150px" height="150px" viewBox="0 0 150 150" version="1.1" xmlns="http://www.w3.org/2000/svg" xmlns:xlink="http://www.w3.org/1999/xlink">
    <!-- Generator: Sketch 52.2 (67145) - http://www.bohemiancoding.com/sketch -->
    <title>Buy Parts-icon</title>
    <desc>Created with Sketch.</desc>
    <g id="Page-1" stroke="none" stroke-width="1" fill="none" fill-rule="evenodd">
        <g id="Home-Page_lg" transform="translate(-269.000000, -1114.000000)">
            <g id="Buy-Parts-icon" transform="translate(269.000000, 1114.000000)">
                <circle id="Oval-Copy-3" fill="#F7F7F7" cx="75" cy="75" r="75"></circle>
                <g id="chart" transform="translate(37.000000, 31.000000)" fill-rule="nonzero">
                    <path d="M38.03625,10.1925 L38.03625,42.96375 L70.8075,42.96375 C70.8665625,43.8075 70.9340625,44.65125 70.9340625,45.495 C70.9340625,65.0665908 55.0681533,80.9325 35.4965625,80.9325 C15.9249717,80.9325 0.0590625,65.0665908 0.0590625,45.495 C0.0590625,25.9234092 15.9249717,10.0575 35.4965625,10.0575 C36.3571875,10.0575 37.1925,10.125 38.03625,10.1925 Z M38.03625,53.0971875 L35.06625,53.0971875 L21.56625,66.5971875 C28.1927656,70.9765467 36.4906594,71.9915092 43.9773541,69.338417 C51.4640489,66.6853247 57.2712547,60.6718773 59.6615625,53.0971875 L38.03625,53.0971875 Z" id="Shape" fill="#625889"></path>
                    <path d="M80.9327147,32.83875 L48.16125,32.83875 L48.16125,0.0672852517 C56.8623548,0.0359657861 65.216185,3.47851385 71.3688356,9.63116445 C77.5214861,15.783815 80.9640342,24.1376452 80.9327147,32.83875 Z" id="Path" fill="#4C446A"></path>
                </g>
            </g>
        </g>
    </g>
</svg>