<?xml version="1.0" encoding="UTF-8"?>
<svg width="20px" height="20px" viewBox="0 0 20 20" version="1.1" xmlns="http://www.w3.org/2000/svg" xmlns:xlink="http://www.w3.org/1999/xlink">
    <!-- Generator: Sketch 53 (72520) - https://sketchapp.com -->
    <title>green</title>
    <desc>Created with Sketch.</desc>
    <g id="Page-1" stroke="none" stroke-width="1" fill="none" fill-rule="evenodd">
        <g id="Artboard-Copy-10" transform="translate(-242.000000, -3282.000000)" fill="#10CFBD">
            <g id="Group-14" transform="translate(242.000000, 3280.000000)">
                <path d="M10,2 C15.5205811,2 20,6.47941889 20,12 C20,17.5205811 15.5205811,22 10,22 C4.47941889,22 0,17.5205811 0,12 C0,6.47941889 4.47941889,2 10,2 Z M16.3196126,8.02905569 C15.9564165,7.69007264 15.6174334,7.35108959 15.2784504,6.98789346 C15.0363196,6.74576271 14.6489104,6.74576271 14.4067797,6.98789346 C12.2033898,9.21549637 9.97578692,11.4188862 7.74818402,13.6464891 C7.04600484,12.9200969 6.31961259,12.2179177 5.59322034,11.4915254 C5.37530266,11.2493947 4.98789346,11.2493947 4.74576271,11.4915254 C4.40677966,11.8305085 4.04358354,12.1937046 3.70460048,12.5326877 C3.46246973,12.7748184 3.46246973,13.1622276 3.70460048,13.4043584 C4.91525424,14.6150121 6.12590799,15.8256659 7.33656174,17.0121065 C7.55447942,17.2542373 7.94188862,17.2542373 8.18401937,17.0121065 C10.8958838,14.3244552 13.6077482,11.6125908 16.3196126,8.90072639 C16.5617433,8.65859564 16.5617433,8.27118644 16.3196126,8.02905569 Z" id="green"></path>
            </g>
        </g>
    </g>
</svg>