<?xml version="1.0" encoding="UTF-8" standalone="no"?>
<svg xmlns="http://www.w3.org/2000/svg" height="20px" width="20px" version="1.1" xmlns:xlink="http://www.w3.org/1999/xlink" viewBox="0 0 20 20"><!-- Generator: Sketch 53 (72520) - https://sketchapp.com -->
 <title>Check</title>
 <desc>Created with Sketch.</desc>
 <g id="Page-1" fill-rule="evenodd" fill="none">
  <g id="Artboard-Copy-10" fill="#fff" transform="translate(-847 -2710)">
   <g id="Group-9" transform="translate(847 2604)">
    <path id="Check" d="m10 106c5.521 0 10 4.48 10 10s-4.479 10-10 10c-5.5206 0-10-4.48-10-10s4.4794-10 10-10zm6.32 6.03c-0.364-0.34-0.703-0.68-1.042-1.04-0.242-0.24-0.629-0.24-0.871 0-2.204 2.23-4.4312 4.43-6.6588 6.66-0.7022-0.73-1.4286-1.43-2.155-2.16-0.2179-0.24-0.6053-0.24-0.8474 0-0.339 0.34-0.7022 0.7-1.0412 1.04-0.2421 0.24-0.2421 0.63 0 0.87 1.2107 1.22 2.4213 2.43 3.632 3.61 0.2179 0.24 0.6053 0.24 0.8474 0 2.712-2.69 5.424-5.4 8.136-8.11 0.242-0.24 0.242-0.63 0-0.87z"/>
   </g>
  </g>
 </g>
</svg>
