<?xml version="1.0" encoding="UTF-8"?>
<svg width="30px" height="33px" viewBox="0 0 30 33" version="1.1" xmlns="http://www.w3.org/2000/svg" xmlns:xlink="http://www.w3.org/1999/xlink">
    <!-- Generator: Sketch 52.2 (67145) - http://www.bohemiancoding.com/sketch -->
    <title>Combined Shape Copy 2</title>
    <desc>Created with Sketch.</desc>
    <g id="Page-1" stroke="none" stroke-width="1" fill="none" fill-rule="evenodd">
        <g id="Home-Page_sm" transform="translate(-102.000000, -4100.000000)" fill="#FFFFFF">
            <g id="Group-4" transform="translate(0.000000, 4089.000000)">
                <g id="Group-2-Copy-3" transform="translate(102.000000, 11.000000)">
                    <path d="M5.0401224,4.96847452 L20.8056888,13.8515559 C21.4347387,14.2059929 21.8239114,14.8719691 21.8239114,15.5940004 L21.8239114,28.6254242 C21.8239114,29.3377919 21.4449993,29.996388 20.8291523,30.3544386 L16.9811321,32.5916597 L16.9811321,17.6587318 L12.7358491,15.2312593 L12.7358491,32.5916597 L9.48532512,30.7018202 C8.86947816,30.3437696 8.49056604,29.6851735 8.49056604,28.9728058 L8.49056604,12.8020185 L4.24528302,10.3824857 L4.24528302,27.6552841 L0.28153559,25.3507798 C0.107239279,25.2494447 0,25.0630496 0,24.8614361 L0,8.23482812 C0,8.0335441 0.106891965,7.84740182 0.280738293,7.74594884 L5.0401224,4.96847452 Z M9.57634368,2.32123324 L13.5027791,0.0771584639 C13.6802335,-0.0264000797 13.8998704,-0.025668041 14.0766305,0.0790710815 L29.7225142,9.23471671 C29.8945219,9.33663982 30,9.52174593 30,9.72168337 L30,24.8614361 C30,25.0630496 29.8927607,25.2494447 29.7184644,25.3507798 L26.0977565,27.2912966 L26.0977565,13.1102528 C26.0977565,12.3990143 25.7200348,11.7412847 25.10573,11.38283 L9.57634368,2.32123324 Z" id="Combined-Shape-Copy-2"></path>
                </g>
            </g>
        </g>
    </g>
</svg>