<?xml version="1.0" encoding="UTF-8"?>
<svg width="27px" height="29px" viewBox="0 0 27 29" version="1.1" xmlns="http://www.w3.org/2000/svg" xmlns:xlink="http://www.w3.org/1999/xlink">
    <!-- Generator: Sketch 52.2 (67145) - http://www.bohemiancoding.com/sketch -->
    <title>Combined Shape Copy</title>
    <desc>Created with Sketch.</desc>
    <g id="Page-1" stroke="none" stroke-width="1" fill="none" fill-rule="evenodd">
        <g id="Home-Page_sm" transform="translate(-15.000000, -19.000000)" fill="#FFFFFF">
            <g id="Group-18">
                <g id="Group-2-Copy-2" transform="translate(15.000000, 19.000000)">
                    <path d="M4.43183177,4.34741521 L18.1681091,12.0491575 C18.7992116,12.403008 19.1899911,13.0701254 19.1899911,13.7936589 L19.1899911,24.9005727 C19.1899911,25.6144637 18.8094702,26.2742276 18.1915424,26.6317269 L14.9316851,28.5177022 L14.9316851,15.4513903 L11.1987638,13.3273519 L11.1987638,28.5177022 L8.46429127,26.9356858 C7.84636347,26.5781865 7.46584255,25.9184226 7.46584255,25.2045315 L7.46584255,11.2017662 L3.73292128,9.08467496 L3.73292128,24.1983736 L0.247557157,22.1819323 C0.0942966077,22.0932641 0,21.9301684 0,21.7537566 L0,7.2054746 C0,7.02935109 0.0939912103,6.8664766 0.246856085,6.77770524 L4.43183177,4.34741521 Z M8.42057807,2.03107908 L11.8731334,0.0675136559 C12.0291708,-0.0231000697 12.2222998,-0.0224595359 12.3777268,0.0691871964 L26.1353142,8.08037712 C26.2865623,8.16955984 26.3793103,8.33152769 26.3793103,8.50647295 L26.3793103,21.7537566 C26.3793103,21.9301684 26.2850137,22.0932641 26.1317532,22.1819323 L22.9480273,23.8798846 L22.9480273,11.6178843 C22.9480273,10.90512 22.5686966,10.2462196 21.9523078,9.88831196 L8.42057807,2.03107908 Z" id="Combined-Shape-Copy"></path>
                </g>
            </g>
        </g>
    </g>
</svg>