<?xml version="1.0" encoding="UTF-8"?>
<svg width="49px" height="67px" viewBox="0 0 49 67" version="1.1" xmlns="http://www.w3.org/2000/svg" xmlns:xlink="http://www.w3.org/1999/xlink">
    <!-- Generator: Sketch 53 (72520) - https://sketchapp.com -->
    <title>noun_dollar droplet_672123_000000</title>
    <desc>Created with Sketch.</desc>
    <g id="Page-1" stroke="none" stroke-width="1" fill="none" fill-rule="evenodd">
        <g id="Artboard-Copy-8" transform="translate(-361.000000, -1994.000000)" fill-rule="nonzero">
            <g id="Group-6" transform="translate(242.000000, 1961.000000)">
                <g id="Group-3" transform="translate(43.000000, 36.000000)">
                    <g id="Group-34">
                        <g id="noun_dollar-droplet_672123_000000" transform="translate(78.000000, 0.000000)">
                            <path d="M22.5,0 C0,32.0896868 0,32.0896868 0,42.7669811 C0,53.4442755 10.0736364,62.1 22.5,62.1 C34.9263636,62.1 45,53.4442755 45,42.7669811 C45,32.0896868 45,32.0896868 22.5,0 Z" id="Shape" stroke="#7969B4" stroke-width="3"></path>
                            <path d="M30.8118182,48.1380453 C29.6990909,48.8488755 27.4381818,49.2558453 24.0554545,49.366766 L24.0554545,53.7028302 L20.8481818,53.7028302 L20.8481818,49.3831698 C17.6272727,49.3003698 15.4372727,48.8840264 14.2881818,48.1294528 C12.9972727,47.2819245 12.3509091,45.5728075 12.3509091,43.0013208 L12.3318182,41.9600717 L15.37,41.9600717 L15.37,42.5404528 C15.37,44.6229509 15.7409091,45.9165057 16.4836364,46.4226792 C17.2236364,46.9288528 19.1254545,47.1819396 22.1836364,47.1819396 C25.6918182,47.1819396 27.8509091,46.9288528 28.6590909,46.4226792 C29.4654545,45.9165057 29.87,44.5659283 29.87,42.370166 C29.87,40.9477245 29.5945455,40.0009925 29.0463636,39.5284075 C28.4963636,39.0566038 27.3472727,38.7746151 25.6,38.6832226 L22.4218182,38.5465245 L19.4036364,38.4098264 C14.8081818,38.1372113 12.5127273,36.089083 12.5127273,32.2662226 C12.5127273,29.6158415 13.18,27.8465774 14.5172727,26.9592113 C15.6590909,26.2022943 17.7754545,25.7711094 20.85,25.6601887 L20.85,21.2858491 L24.0572727,21.2858491 L24.0572727,25.6523774 C27.2463636,25.7476755 29.3790909,26.1515208 30.4454545,26.8662566 C31.6772727,27.6911321 32.2936364,29.4635208 32.2936364,32.1826415 L29.2536364,32.1826415 C29.2536364,30.3055811 28.89,29.1135736 28.1618182,28.6074 C27.4336364,28.1012264 25.7181818,27.8481396 23.0181818,27.8481396 C19.8136364,27.8481396 17.7481818,28.0902906 16.8218182,28.5738113 C15.8954545,29.0573321 15.4318182,30.1352943 15.4318182,31.8076981 C15.4318182,33.6847585 15.7954545,34.8283358 16.5236364,35.2376491 C17.2518182,35.6469623 19.4163636,35.9258264 23.0190909,36.0742415 C27.2427273,36.2335925 29.9281818,36.6944604 31.0727273,37.4568453 C32.2181818,38.2192302 32.79,39.9260038 32.79,42.5763849 C32.7872727,45.4415774 32.1290909,47.2959849 30.8118182,48.1380453 Z" id="Path" fill="#7969B4"></path>
                        </g>
                    </g>
                </g>
            </g>
        </g>
    </g>
</svg>