<?xml version="1.0" encoding="UTF-8" standalone="no"?>
<svg xmlns="http://www.w3.org/2000/svg" height="56px" width="66px" version="1.1" xmlns:xlink="http://www.w3.org/1999/xlink" viewBox="0 0 66 56"><!-- Generator: Sketch 53 (72520) - https://sketchapp.com -->
 <title>noun_Money on hand_646716_000000</title>
 <desc>Created with Sketch.</desc>
 <g id="Page-1" fill-rule="evenodd" fill="none">
  <g id="Artboard-Copy-10" fill-rule="nonzero" transform="translate(-683 -1870)" stroke="#7969B4" stroke-width="1.1" fill="#7969B4">
   <g id="Group-5" transform="translate(570 1831)">
    <g id="Group-4" transform="translate(33.331 39)">
     <g id="Group-33">
      <g id="noun_Money-on-hand_646716_000000" transform="translate(80)">
       <path id="Combined-Shape" d="m64.317 38.728c0.646 1.086 0.514 2.282-0.371 3.369-0.628 0.771-1.496 1.326-1.913 1.593l-0.07 0.045c-0.705 0.453-16.229 8.777-17.997 9.725-0.2 0.103-3.941 2.006-8.03 2.006-0.922 0-1.861-0.097-2.781-0.333-4.067-1.039-15.277-4.864-18.797-6.074v1.167c0.009 0.213 0.005 1.063-0.602 1.725-0.308 0.336-0.884 0.736-1.88 0.736h-6.0755c-0.2593 0-0.5022-0.128-0.6508-0.341-0.0743-0.107-1.8308-2.653-3.2237-6.75-1.2868-3.786-2.4824-9.661-0.8744-16.152 0.089-0.357 0.4063-0.607 0.7715-0.607h10.212c1.281 0 2.322 1.051 2.322 2.343v0.057c1.285-0.131 3.793-0.288 6.797 0.032 5.592 0.595 10.273 2.593 13.561 5.786h9.381c0.002 0 0.004-0.001 0.006-0.001 2.21 0 4.009 1.815 4.009 4.045 0 0.154-0.01 0.307-0.026 0.457l11.074-3.873c1.372-0.544 3.985-0.929 5.158 1.045zm-61.863-8.286c-2.2526 10.195 2.6572 18.844 3.7777 20.641h2.1465v-20.641h-5.9242zm10.13 20.425c0.196-0.208 0.186-0.565 0.185-0.57-0.001-0.02-0.001-0.03-0.001-0.051v-2.311-15.793-0.962c0-0.408-0.329-0.739-0.732-0.739h-2.0678v20.641h1.9088c0.334 0 0.571-0.072 0.707-0.215zm48.598-8.533c2.225-1.423 2.076-2.269 1.773-2.781-0.771-1.296-3.203-0.381-3.227-0.372-0.01 0.004-0.021 0.009-0.031 0.013l-12.39 4.333c-0.732 0.981-1.896 1.616-3.204 1.616h-14.633c-0.44 0-0.796-0.359-0.796-0.802 0-0.442 0.356-0.802 0.796-0.802h14.633c1.334 0 2.418-1.094 2.418-2.439 0-1.344-1.081-2.438-2.413-2.44h-0.005-9.711c-0.211 0-0.414-0.085-0.563-0.235-6.398-6.457-16.752-5.858-19.471-5.572v14.51c2.722 0.937 15.01 5.148 19.188 6.215 4.417 1.13 9.634-1.515 9.685-1.541 6.893-3.696 17.354-9.323 17.878-9.656l0.073-0.047zm-23.165-11.054c-3.773 0-6.842-3.098-6.842-6.904s3.07-6.904 6.842-6.904c3.773 0 6.842 3.098 6.842 6.904s-3.069 6.904-6.842 6.904zm0-12.203c-2.895 0-5.252 2.377-5.252 5.299s2.357 5.3 5.252 5.3c2.896 0 5.252-2.378 5.252-5.3s-2.356-5.299-5.252-5.299zm12.662 0c-3.772 0-6.842-3.097-6.842-6.904 0-3.8069 3.07-6.9035 6.842-6.9035 3.773 0 6.842 3.0966 6.842 6.9035 0 3.807-3.069 6.904-6.842 6.904zm0-12.203c-2.895 0-5.252 2.3767-5.252 5.299 0 2.922 2.357 5.299 5.252 5.299 2.896 0 5.252-2.377 5.252-5.299 0-2.9215-2.355-5.299-5.252-5.299zm-17.088 7.684c-3.773 0-6.842-3.096-6.842-6.9032 0-3.8071 3.07-6.9037 6.842-6.9037 3.772 0.00001 6.842 3.0966 6.842 6.9037 0 3.8072-3.07 6.9032-6.842 6.9032zm0-12.202c-2.896 0-5.252 2.3767-5.252 5.2992 0 2.9212 2.356 5.2992 5.252 5.2992s5.252-2.377 5.252-5.2992c0-2.9225-2.356-5.2992-5.252-5.2992z"/>
      </g>
     </g>
    </g>
   </g>
  </g>
 </g>
</svg>
