<?xml version="1.0" encoding="UTF-8" standalone="no"?>
<svg xmlns="http://www.w3.org/2000/svg" height="54px" width="53px" version="1.1" xmlns:xlink="http://www.w3.org/1999/xlink" viewBox="0 0 53 54"><!-- Generator: Sketch 53 (72520) - https://sketchapp.com -->
 <title>noun_Money Growth_1263472_000000</title>
 <desc>Created with Sketch.</desc>
 <g id="Page-1" fill-rule="evenodd" fill="none">
  <g id="Artboard-Copy-10" fill-rule="nonzero" fill="#7969B4" transform="translate(-1019 -1872)">
   <g id="Group-5-Copy-2" transform="translate(898 1831)">
    <g id="Group-4" transform="translate(54.331 41)">
     <g id="Group-33">
      <g id="noun_Money-Growth_1263472_000000" transform="translate(66.669)">
       <path id="Shape" d="m40.364 0c-6.964 0-12.636 5.7684-12.636 12.852 0 7.083 5.672 12.851 12.636 12.851s12.636-5.768 12.636-12.851c0-7.0836-5.672-12.852-12.636-12.852zm0 2.4479c5.664 0 10.229 4.6435 10.229 10.404 0 5.76-4.565 10.403-10.229 10.403s-10.229-4.643-10.229-10.403c0-5.7606 4.565-10.404 10.229-10.404zm-0.132 2.4289c-0.62 0.0693-1.085 0.6088-1.071 1.2431v0.6693c-1.756 0.3001-3.009 1.8839-3.009 3.6148 0 2.086 1.922 3.672 4.212 3.672 1.341 0 1.805 0.597 1.805 1.224 0 0.79-0.303 1.224-1.203 1.224h-3.611c-0.434-0.007-0.837 0.225-1.056 0.607-0.219 0.381-0.219 0.852 0 1.234 0.219 0.381 0.622 0.613 1.056 0.607h1.806v0.612c-0.007 0.441 0.221 0.852 0.596 1.074 0.375 0.223 0.839 0.223 1.214 0 0.375-0.222 0.603-0.633 0.596-1.074v-0.67c1.755-0.301 3.009-1.884 3.009-3.614 0-2.086-1.922-3.672-4.212-3.672-1.342 0-1.805-0.598-1.805-1.224 0-0.7901 0.303-1.2242 1.203-1.2242h3.611c0.434 0.0062 0.837-0.2257 1.056-0.6069 0.219-0.3813 0.219-0.8528 0-1.2341s-0.622-0.6132-1.056-0.6069h-1.806v-0.612c0.008-0.3525-0.134-0.6912-0.39-0.9293s-0.6-0.3524-0.945-0.3138zm-17.374 15.299c-0.592 0.004-1.094 0.445-1.183 1.041-0.088 0.595 0.261 1.167 0.826 1.35l2.67 1.014-3.648 2.046-11.602-2.352c-0.3115-0.067-0.636-0.005-0.9027 0.172l-8.424 5.508c-0.38284 0.228-0.61091 0.653-0.59336 1.104 0.017556 0.451 0.27788 0.856 0.6773 1.053 0.39946 0.197 0.87306 0.154 1.2324-0.111l8.0103-5.24 11.545 2.352c0.281 0.064 0.574 0.023 0.828-0.115l3.629-2.046-0.564 2.544c-0.159 0.447-0.048 0.948 0.284 1.283 0.332 0.336 0.825 0.445 1.264 0.28 0.439-0.164 0.745-0.573 0.783-1.047l1.204-5.508c0.121-0.59-0.198-1.183-0.752-1.396l-4.814-1.836c-0.149-0.064-0.309-0.096-0.47-0.096zm14.385 7.975c-0.621 0.06-1.094 0.591-1.091 1.224v23.256c0 0.676 0.539 1.224 1.203 1.224h7.221c0.665 0 1.203-0.548 1.203-1.224v-23.256c0-0.676-0.538-1.224-1.203-1.224h-7.221c-0.037-0.001-0.075-0.001-0.112 0zm-24.069 2.448c-0.62 0.06-1.093 0.591-1.091 1.224v20.808c0 0.676 0.539 1.224 1.204 1.224h7.22c0.665 0 1.204-0.548 1.204-1.224v-20.808c0-0.676-0.539-1.224-1.204-1.224h-7.22c-0.038-0.001-0.075-0.001-0.113 0zm25.385 0h4.814v20.808h-4.814v-20.808zm-24.069 2.448h4.814v18.36h-4.814v-18.36zm10.718 2.448c-0.62 0.06-1.093 0.591-1.09 1.224v15.912c0 0.676 0.538 1.224 1.203 1.224h7.221c0.664 0 1.203-0.548 1.203-1.224v-15.912c0-0.676-0.539-1.224-1.203-1.224h-7.221c-0.038-0.002-0.075-0.002-0.113 0zm1.317 2.448h4.813v13.464h-4.813v-13.464zm-25.385 3.672c-0.62017 0.06-1.0933 0.591-1.0906 1.224l0.000018 9.792c0.000066 0.676 0.53882 1.224 1.2034 1.224h7.2206c0.6646 0 1.2034-0.548 1.2035-1.224v-9.792c-0.0001-0.676-0.5389-1.224-1.2035-1.224h-7.2206c-0.0375-0.002-0.0752-0.002-0.1128 0zm1.3163 2.448h4.8137v7.344h-4.8137v-7.344z"/>
      </g>
     </g>
    </g>
   </g>
  </g>
 </g>
</svg>
