<?xml version="1.0" encoding="UTF-8" standalone="no"?>
<svg xmlns="http://www.w3.org/2000/svg" height="56px" width="56px" version="1.1" xmlns:xlink="http://www.w3.org/1999/xlink" viewBox="0 0 56 56"><!-- Generator: Sketch 53 (72520) - https://sketchapp.com -->
 <title>noun_beach_2128246_000000</title>
 <desc>Created with Sketch.</desc>
 <g id="Page-1" fill-rule="evenodd" fill="none">
  <g id="Artboard-Copy-10" fill-rule="nonzero" fill="#7969B4" transform="translate(-524 -2136)">
   <g id="Group-5-Copy-4" transform="translate(406 2094)">
    <g id="Group-4" transform="translate(54.331 43)">
     <g id="Group-33">
      <g id="noun_beach_2128246_000000" transform="translate(63.669)">
       <path id="Shape" stroke="#7969B4" stroke-width="1.1" d="m54.154 37.823c-1.608 0-2.454 0.592-3.131 1.1-1.523 1.015-2.792 1.015-4.231 0-2.03-1.438-4.146-1.523-6.261 0-1.523 1.015-2.793 1.015-4.231 0-2.031-1.438-4.146-1.438-6.262 0-0.592 0.423-1.1 0.762-2.115 0.762h-0.254l-5.754-18.023c1.862-0.424 3.808-0.17 5.585 0.761 0.085 0 0.762 0.339 1.1-0.338 2.115-4.062 7.108-5.67 11.169-3.639 0.254 0.169 0.677 0.085 0.931-0.084 0.254-0.17 0.338-0.508 0.338-0.847-1.269-5.5-4.992-10.492-10.407-13.284-4.569-2.3695-9.816-2.8772-14.723-1.5233l-0.677-2.1154c-0.169-0.42307-0.593-0.67692-1.1-0.50768-0.423 0.16923-0.677 0.5923-0.508 1.1l0.677 2.1154c-10.577 3.8077-16.331 15.569-12.015 26.569 0.2535 0.677 1.1842 0.762 1.5227 0.085 2.1154-3.977 7.1073-5.585 11.169-3.639 0.423 0.339 1.015 0.085 1.269-0.338 0.931-1.777 2.369-3.046 4.062-3.808l5.33 16.669c-1.776-1.269-3.892-1.438-6.092 0.085-1.523 1.015-2.792 1.015-4.231 0-2.03-1.438-4.146-1.523-6.2612 0-1.4384 1.015-2.7923 1.1-4.2307 0-0.6769-0.508-1.5231-1.1-3.1308-1.1-0.5077 0-0.84615 0.339-0.84615 0.846v12.693c0 0.507 0.33845 0.846 0.84615 0.846 1.0154 0 1.5231 0.338 2.1154 0.761 2.0308 1.439 4.1461 1.439 6.2613 0 1.523-1.015 2.793-1.015 4.231 0 2.031 1.439 4.146 1.523 6.262 0 1.523-1.015 2.792-1.015 4.23 0 2.031 1.439 4.146 1.523 6.262 0 1.523-1.015 2.792-1.015 4.231 0 2.03 1.439 4.146 1.523 6.261 0 1.523-1.015 2.792-1.015 4.231 0 2.031 1.439 4.146 1.523 6.261 0 0.593-0.423 1.1-0.761 2.116-0.761 0.508 0 0.846-0.339 0.846-0.846v-12.693c0-0.423-0.423-0.846-0.846-0.846zm-32.831-34.184c2.962 0 5.839 0.6769 8.546 2.1153 4.316 2.2 7.531 5.9232 9.139 10.492-3.977-1.184-8.293 0.254-10.831 3.469-1.692-4.738-3.723-8.969-5.923-12.015-1.185-1.7769-2.454-3.0462-3.554-3.8077 0.846-0.1692 1.692-0.2538 2.623-0.2538zm-18.023 24.03c-2.5385-8.631 1.5231-17.769 9.223-21.83-1.354 3.9764-0.508 11.423 1.608 18.361-3.977-1.185-8.2925 0.254-10.831 3.469zm12.438-3.977c-3.046-10.407-2.623-18.361-0.169-19.123v0.0002c1.185-0.423 3.3 1.1846 5.331 4.0616 2.115 2.9612 4.062 7.0232 5.669 11.592-4.146-1.185-8.377 0.254-10.831 3.469zm-11.93 16.67c2.0308 1.438 4.1461 1.438 6.2613 0 1.523-1.016 2.793-1.016 4.231 0 2.031 1.438 4.146 1.523 6.262 0 1.523-1.016 2.792-1.016 4.23 0 5.162 3.638 6.431-2.877 10.493 0 2.03 1.438 4.146 1.523 6.261 0 1.523-1.016 2.792-1.016 4.231 0 2.031 1.438 4.146 1.523 6.261 0 0.424-0.254 0.762-0.508 1.27-0.677v4.653c-1.016 0.17-1.693 0.593-2.285 1.016-1.523 1.015-2.792 1.015-4.231 0-2.03-1.439-4.146-1.523-6.261 0-1.523 1.015-2.793 1.015-4.231 0-2.031-1.439-4.146-1.439-6.262 0-1.523 1.015-2.792 1.015-4.23 0-5.077-3.639-6.516 2.792-10.493 0-2.03-1.439-4.146-1.523-6.2612 0-1.4384 1.015-2.7923 1.1-4.2307 0-0.5077-0.423-1.1846-0.846-2.2846-1.016v-4.653c0.5077 0.084 0.8461 0.338 1.2692 0.677zm47.215 11.338c-1.523 1.015-2.792 1.015-4.231 0-2.03-1.438-4.146-1.523-6.261 0-4.146 2.962-5.246-3.723-10.493 0-1.523 1.015-2.792 1.015-4.23 0-2.031-1.438-4.146-1.438-6.262 0-1.523 1.015-2.792 1.015-4.231 0-2.03-1.438-4.146-1.523-6.2612 0-1.4384 1.015-2.7923 1.1-4.2307 0-0.5077-0.423-1.1846-0.846-2.2846-1.015v-4.654c0.5077 0.169 0.8461 0.423 1.2692 0.677 5.2461 3.723 6.3463-2.877 10.492 0 2.031 1.438 4.146 1.523 6.262 0 1.523-1.016 2.792-1.016 4.23 0 2.031 1.438 4.146 1.523 6.262 0 4.061-2.877 5.331 3.638 10.492 0 4.146-2.962 5.331 3.723 10.492 0 0.424-0.254 0.762-0.508 1.27-0.677v4.654c-1.1 0.169-1.693 0.592-2.285 1.015z"/>
       <path id="Path" d="m46.877 20.138c0.508 0 0.846-0.338 0.846-0.846v-0.846c0-0.508-0.338-0.846-0.846-0.846s-0.846 0.338-0.846 0.846v0.846c0 0.423 0.423 0.846 0.846 0.846z"/>
       <path id="Shape" d="m46.962 30.546c2.707 0 4.907-2.2 4.907-4.908 0-2.707-2.2-4.907-4.907-4.907-2.708 0-4.908 2.2-4.908 4.907 0 2.708 2.2 4.908 4.908 4.908zm0-8.123c1.776 0 3.215 1.439 3.215 3.215 0 1.777-1.439 3.216-3.215 3.216-1.777 0-3.216-1.439-3.216-3.216 0-1.776 1.439-3.215 3.216-3.215z"/>
       <path id="Path" d="m46.031 32.069v0.846c0 0.508 0.338 0.847 0.846 0.847s0.846-0.339 0.846-0.847v-0.846c0-0.507-0.338-0.846-0.846-0.846s-0.846 0.339-0.846 0.846z"/>
       <path id="Path" d="m52.038 29.531c-0.338-0.339-0.846-0.339-1.184 0-0.339 0.338-0.339 0.846 0 1.184l0.592 0.593c0.339 0.338 0.846 0.338 1.185 0 0.338-0.339 0.338-0.846 0-1.185l-0.593-0.592z"/>
       <path id="Path" d="m52.462 25.638c0 0.508 0.338 0.847 0.846 0.847h0.846c0.508 0 0.846-0.339 0.846-0.847 0-0.507-0.338-0.846-0.846-0.846h-0.846c-0.508 0-0.846 0.423-0.846 0.846z"/>
       <path id="Path" d="m52.038 21.746l0.593-0.592c0.338-0.339 0.338-0.846 0-1.185-0.339-0.338-0.846-0.338-1.185 0l-0.592 0.593c-0.339 0.338-0.339 0.846 0 1.184 0.338 0.339 0.846 0.339 1.184 0z"/>
       <path id="Path" d="m41.208 21.154l0.592 0.592c0.338 0.339 0.846 0.339 1.185 0 0.338-0.338 0.338-0.846 0-1.184l-0.593-0.593c-0.338-0.338-0.846-0.338-1.184 0-0.339 0.339-0.339 0.846 0 1.185z"/>
       <path id="Path" d="m40.531 24.792h-0.846c-0.508 0-0.847 0.339-0.847 0.846 0 0.508 0.339 0.847 0.847 0.847h0.846c0.507 0 0.846-0.339 0.846-0.847 0-0.507-0.339-0.846-0.846-0.846z"/>
       <path id="Path" d="m42.392 31.392l0.593-0.592c0.338-0.338 0.338-0.846 0-1.185-0.339-0.338-0.847-0.338-1.185 0l-0.592 0.593c-0.339 0.338-0.339 0.846 0 1.184 0.338 0.339 0.846 0.339 1.184 0z"/>
      </g>
     </g>
    </g>
   </g>
  </g>
 </g>
</svg>
