<?xml version="1.0" encoding="UTF-8" standalone="no"?>
<svg xmlns="http://www.w3.org/2000/svg" height="59px" width="58px" version="1.1" xmlns:xlink="http://www.w3.org/1999/xlink" viewBox="0 0 58 59"><!-- Generator: Sketch 53 (72520) - https://sketchapp.com -->
 <title>noun_Discount_972523_000000</title>
 <desc>Created with Sketch.</desc>
 <g id="Page-1" fill-rule="evenodd" fill="none">
  <g id="Artboard-Copy-10" fill-rule="nonzero" fill="#7969B4" transform="translate(-849 -2130)">
   <g id="Group-5-Copy-3" transform="translate(734 2094)">
    <g id="Group-4" transform="translate(42.331 36)">
     <g id="Group-33">
      <g id="noun_Discount_972523_000000" transform="translate(73.337)">
       <path id="Combined-Shape" d="m19.491 38.273l15.656-19.107 1.902 1.558-15.656 19.107-1.902-1.558zm0.509-8.273c-2.758 0-5-2.242-5-5s2.242-5 5-5 5 2.242 5 5-2.242 5-5 5zm0-7.5c-1.378 0-2.5 1.122-2.5 2.5s1.122 2.5 2.5 2.5 2.5-1.122 2.5-2.5-1.122-2.5-2.5-2.5zm17 16.5c-2.758 0-5-2.242-5-5s2.242-5 5-5 5 2.242 5 5-2.242 5-5 5zm0-7.5c-1.38 0-2.5 1.12-2.5 2.5s1.12 2.5 2.5 2.5 2.5-1.12 2.5-2.5-1.12-2.5-2.5-2.5zm-8.501 27.5c-2.404 0-4.577-1.332-5.683-3.481l-0.022 0.002c-0.652-1.275-1.326-2.01-2.059-2.246-0.724-0.232-1.705-0.035-2.984 0.614l-0.02-0.017c-2.16 1.094-4.708 0.9-6.656-0.506-1.9424-1.407-2.9138-3.754-2.5371-6.134l-0.0198-0.015c0.4435-2.795-0.3123-3.835-3.1199-4.275l-0.005-0.024c-2.3937-0.384-4.339-2.031-5.08-4.305-0.74088-2.271-0.1412-4.74 1.5687-6.446l-0.0075-0.022c2.0097-2.003 2.0097-3.287 0-5.29l0.0075-0.022c-1.7099-1.709-2.3121-4.177-1.5686-6.449 0.7409-2.271 2.6862-3.918 5.0799-4.302l0.005-0.022c2.8052-0.442 3.5634-1.482 3.1199-4.277l0.0198-0.013c-0.3742-2.3816 0.5972-4.7293 2.5401-6.1355 1.943-1.4062 4.493-1.6004 6.656-0.5089l0.017-0.0123c1.276 0.649 2.253 0.8482 2.986 0.6122 0.731-0.236 1.405-0.9711 2.06-2.247l0.022 0.0025c1.103-2.1486 3.276-3.481 5.68-3.481 2.403 0 4.579 1.3324 5.682 3.481l0.024-0.0025c0.652 1.2759 1.324 2.0085 2.057 2.247 0.731 0.2384 1.705 0.0368 2.986-0.6122l0.018 0.0148c2.163-1.094 4.713-0.8998 6.656 0.5089 1.94 1.4037 2.914 3.7514 2.54 6.136l0.02 0.012c-0.447 2.795 0.312 3.835 3.117 4.278l0.007 0.022c2.394 0.383 4.339 2.028 5.08 4.302 0.744 2.271 0.144 4.737-1.568 6.448l0.01 0.022c-2.013 2.001-2.013 3.287 0 5.291l-0.01 0.022c1.71 1.708 2.312 4.176 1.568 6.448-0.741 2.271-2.686 3.919-5.08 4.302l-0.007 0.025c-2.805 0.442-3.564 1.482-3.117 4.275l-0.02 0.012c0.371 2.385-0.598 4.732-2.543 6.136-1.938 1.406-4.49 1.6-6.653 0.509l-0.018 0.015c-1.278-0.652-2.255-0.851-2.986-0.615-0.733 0.238-1.405 0.973-2.057 2.247l-0.024-0.003c-1.103 2.147-3.279 3.479-5.682 3.479zm-3.485-4.617c0.677 1.33 2.013 2.159 3.485 2.159 1.474 0 2.807-0.826 3.484-2.159l0.024 0.003c0.962-1.876 2.104-3.004 3.492-3.449 1.383-0.445 2.971-0.202 4.855 0.752l0.017-0.015c1.331 0.679 2.899 0.57 4.089-0.295 1.194-0.863 1.789-2.313 1.548-3.791l0.023-0.012c-0.645-4.091 1.043-6.401 5.152-7.058l0.005-0.024c1.484-0.229 2.686-1.239 3.142-2.633 0.458-1.399 0.079-2.923-0.984-3.975l0.007-0.025c-2.936-2.933-2.936-5.787 0.003-8.72l-0.01-0.022c1.065-1.054 1.442-2.576 0.984-3.975-0.456-1.396-1.661-2.407-3.142-2.635l-0.005-0.022c-4.109-0.659-5.797-2.968-5.152-7.061l-0.023-0.01c0.241-1.477-0.354-2.9274-1.546-3.7902-1.189-0.8629-2.753-0.976-4.091-0.295l-0.015-0.0148c-1.891 0.9538-3.477 1.1997-4.859 0.7498-1.386-0.4474-2.528-1.5758-3.49-3.449h-0.022c-0.679-1.3325-2.012-2.1585-3.486-2.1585-1.472 0-2.808 0.826-3.485 2.1585h-0.022c-0.964 1.8707-2.106 2.9991-3.491 3.4465-1.386 0.4475-2.972 0.2016-4.857-0.7498l-0.018 0.0123c-1.33-0.6785-2.894-0.5654-4.089 0.295-1.194 0.8654-1.786 2.3158-1.546 3.7932l-0.022 0.012c0.642 4.093-1.0434 6.402-5.1545 7.058l-0.0049 0.022c-1.4794 0.231-2.6838 1.239-3.1397 2.636-0.4585 1.398-0.0793 2.923 0.9862 3.975l-0.0099 0.022c2.934 2.933 2.934 5.787 0 8.722l0.0099 0.022c-1.0655 1.052-1.4422 2.574-0.9862 3.973 0.4559 1.396 1.6578 2.407 3.1397 2.635l0.0049 0.025c4.1086 0.659 5.7965 2.967 5.1545 7.058l0.02 0.014c-0.241 1.475 0.352 2.926 1.546 3.789s2.758 0.976 4.091 0.295l0.018 0.014c1.883-0.951 3.469-1.187 4.854-0.752 1.385 0.448 2.528 1.576 3.492 3.449h0.024z"/>
      </g>
     </g>
    </g>
   </g>
  </g>
 </g>
</svg>
