<?xml version="1.0" encoding="UTF-8"?>
<svg width="21px" height="59px" viewBox="0 0 21 59" version="1.1" xmlns="http://www.w3.org/2000/svg" xmlns:xlink="http://www.w3.org/1999/xlink">
    <!-- Generator: Sketch 55.2 (78181) - https://sketchapp.com -->
    <title>Fill 106</title>
    <desc>Created with Sketch.</desc>
    <g id="Homepage" stroke="none" stroke-width="1" fill="none" fill-rule="evenodd">
        <g id="Homepage@2x-Copy-21" transform="translate(-521.000000, -3770.000000)" fill="#626262" fill-rule="nonzero">
            <g id="Group" transform="translate(521.000000, 3751.000000)">
                <path d="M0.025667446,21.8464661 C0.0272040313,21.0209661 0.279716226,20.2779661 0.785765007,19.6149661 C1.26517964,18.9864661 2.06830159,18.8104661 2.73774062,19.2234661 C3.08091135,19.4354661 3.43432598,19.6579661 3.71091135,19.9424661 C4.85976501,21.1229661 6.28264306,21.9014661 7.72754549,22.6579661 C10.8268382,24.2804661 13.9281796,25.8994661 17.0151796,27.5439661 C18.0913016,28.1164661 19.1469357,28.7304661 20.1790089,29.3759661 C21.1035211,29.9544661 21.2325943,30.6904661 20.6399845,31.6314661 C20.5139845,31.8319661 20.3423992,32.0139661 20.1605699,32.1694661 C19.8337894,32.4499661 19.4347894,32.5709661 19.0286187,32.3914661 C18.5830089,32.1949661 18.1701796,31.9299661 17.7409601,31.6989661 C13.5880821,29.4619661 9.43469184,27.2249661 5.27874062,24.9924661 C5.06617964,24.8779661 4.83056988,24.8019661 4.60110647,24.7194661 C4.52683818,24.6929661 4.39059428,24.6699661 4.36600891,24.7044661 C4.27893574,24.8224661 4.14525281,24.9879661 4.17598452,25.0964661 C4.54066745,26.4029661 4.90483818,27.7109661 5.3222772,29.0029661 C6.2570333,31.8954661 7.19844793,34.7859661 8.18698452,37.6614661 C8.55013086,38.7184661 8.26893574,39.5234661 7.47400891,40.2404661 C6.9812772,40.6844661 6.30056988,40.6069661 6.04242354,40.0449661 C5.84266745,39.6089661 5.6587894,39.1634661 5.50769184,38.7094661 C4.39930159,35.3689661 3.31293574,32.0214661 2.19276501,28.6849661 C1.70976501,27.2449661 1.14686257,25.8299661 0.65105769,24.3939661 C0.364228422,23.5654661 0.000569884995,22.7499661 0.025667446,21.8464661 Z M17.7654431,50.7493161 C17.7367601,54.3713161 17.1093211,57.8978161 15.9824918,61.3478161 C14.6620528,65.3868161 13.0809065,69.3278161 11.2487845,73.1683161 C10.6295406,74.4673161 9.83615037,75.6893161 9.07246745,76.9173161 C8.87373574,77.2383161 8.51468696,77.4863161 8.1843211,77.7003161 C7.89493086,77.8878161 7.5548333,77.8263161 7.27005281,77.6183161 C6.96529671,77.3963161 6.92227232,77.0678161 7.03751623,76.7633161 C7.17734549,76.3923161 7.39195525,76.0473161 7.59119915,75.6993161 C8.10902842,74.7928161 8.69702842,73.9188161 9.1503211,72.9828161 C11.2154918,68.7163161 13.0399309,64.3518161 14.3245162,59.7963161 C16.0936382,53.5218161 15.7817113,47.3033161 13.568004,41.1788161 C13.1054918,39.9008161 12.5067357,38.6693161 11.9673943,37.4183161 C11.3271504,35.9333161 10.4641016,34.5818161 9.40436988,33.3483161 C9.08885769,32.9813161 8.75900403,32.6228161 8.47217476,32.2348161 C7.96971135,31.5538161 8.07368696,30.7598161 8.72366257,30.0573161 C9.1610772,29.5843161 9.80541867,29.5273161 10.2356626,29.9568161 C11.2682479,30.9893161 12.2491016,32.0798161 12.9390284,33.3568161 C15.0871748,37.3338161 16.8086626,41.4618161 17.3864187,45.9723161 C17.5892479,47.5593161 17.8202479,49.1423161 17.7654431,50.7493161 Z" id="Fill-106" transform="translate(10.512218, 48.406218) scale(-1, 1) translate(-10.512218, -48.406218) "></path>
            </g>
        </g>
    </g>
</svg>