<?xml version="1.0" encoding="UTF-8"?>
<svg width="32px" height="32px" viewBox="0 0 32 32" version="1.1" xmlns="http://www.w3.org/2000/svg" xmlns:xlink="http://www.w3.org/1999/xlink">
    <!-- Generator: Sketch 55.2 (78181) - https://sketchapp.com -->
    <title>Green</title>
    <desc>Created with Sketch.</desc>
    <g id="Homepage" stroke="none" stroke-width="1" fill="none" fill-rule="evenodd">
        <g id="Homepage@2x-Copy-16" transform="translate(-573.000000, -6769.000000)" fill="#36BAAD">
            <g id="Group-34" transform="translate(466.000000, 6661.000000)">
                <g id="Group-40">
                    <g id="Fill-3">
                        <path d="M123,129.565217 L118.130435,129.565217 L118.130435,123.34858 L122.998429,120.521739 L127.869565,123.351594 L127.869565,129.565217 L123,129.565217 Z M121.173903,108.576894 L110.749088,114.690535 C107.491333,116.601324 107,117.886267 107,121.087912 L107,135.376717 C107,137.951775 108.007081,140 111.849248,140 L113.674201,140 C118.149608,140 118.270915,136.929141 118.270915,135.573263 L118.270915,132.095272 L130.74575,132.095272 L130.74575,121.455883 L123.001907,116.914617 L115.257302,121.455883 L115.257302,135.553313 C115.257302,136.370534 114.956703,137.081354 113.470496,137.081354 L111.72794,137.081354 C110.232578,137.081354 110.013614,136.417824 110.013614,135.514891 L110.013614,120.990377 C110.013614,118.712355 110.302768,118.34734 111.777531,117.482829 L122.00093,111.487413 C122.821091,111.005651 123.178909,111.005651 123.99907,111.487413 L134.222469,117.482829 C135.697232,118.34734 135.986386,118.712355 135.986386,120.990377 L135.986386,135.514891 C135.986386,136.417824 135.76666,137.081354 134.27206,137.081354 L122.432754,137.081354 C120.601698,137.081354 120.600935,140 122.432754,140 L134.149989,140 C137.992919,140 139,137.951775 139,135.376717 L139,121.087912 C139,117.886267 138.508667,116.601324 135.250912,114.690535 L124.82686,108.576894 C123.515366,107.807702 122.484634,107.807702 121.173903,108.576894 L121.173903,108.576894 Z" id="Green"></path>
                    </g>
                </g>
            </g>
        </g>
    </g>
</svg>