<?xml version="1.0" encoding="UTF-8"?>
<svg width="150px" height="150px" viewBox="0 0 150 150" version="1.1" xmlns="http://www.w3.org/2000/svg" xmlns:xlink="http://www.w3.org/1999/xlink">
    <!-- Generator: Sketch 52.2 (67145) - http://www.bohemiancoding.com/sketch -->
    <title>Grow-icon</title>
    <desc>Created with Sketch.</desc>
    <g id="Page-1" stroke="none" stroke-width="1" fill="none" fill-rule="evenodd">
        <g id="Home-Page_lg" transform="translate(-1011.000000, -1114.000000)">
            <g id="Grow-icon" transform="translate(1011.000000, 1114.000000)">
                <g id="Group-39">
                    <circle id="Oval-Copy-6" fill="#F7F7F7" cx="75" cy="75" r="75"></circle>
                    <g id="growth" transform="translate(38.000000, 33.000000)">
                        <rect id="Rectangle" fill="#625889" x="-8.671875e-06" y="46.6666667" width="13.0078125" height="23.3333333"></rect>
                        <rect id="Rectangle" fill="#625889" x="37.5781168" y="40.8333333" width="13.0078125" height="29.1666667"></rect>
                        <rect id="Rectangle" fill="#625889" x="18.7890543" y="39.375" width="13.0078125" height="30.625"></rect>
                        <path d="M40.2374423,35.2187856 C41.7694701,35.2187856 43.2147826,34.620819 44.2987642,33.5416667 C45.3972159,32.4479167 46.0186896,30.9895833 46.0186896,29.429245 C46.0331569,28.3645122 45.7585439,27.3291524 45.2093181,26.4249929 L60.630866,10.835495 C61.483551,11.3602956 62.4808201,11.652069 63.53587,11.6666667 L63.593739,11.6666667 C65.1835475,11.6666667 66.6143927,11.0249074 67.6550637,9.97495013 C68.7101136,8.92499285 69.3605219,7.48125715 69.374989,5.876948 C69.3894563,4.31660965 68.7968287,2.85827631 67.7128444,1.73550913 C66.62886,0.6271615 65.1835475,0.0145974796 63.6370526,-1.45384614e-07 C62.0905576,0.0436145213 60.630866,0.583368771 59.5324145,1.67711877 C58.433963,2.77086877 57.8269563,4.2292021 57.8124892,5.78954046 C57.7980219,6.86869283 58.087102,7.88963306 58.5929261,8.76459748 L43.1714692,24.368693 C42.3186959,23.8437143 41.3214269,23.5667164 40.2953115,23.5521189 L40.2374425,23.5521189 C39.1679254,23.5521189 38.156189,23.8437144 37.3035039,24.368693 L30.7561959,17.7625783 C31.2909545,16.8874358 31.5655675,15.8958689 31.5655675,14.8459116 C31.5800348,13.2999929 31.0019627,11.8270619 29.9179783,10.7187144 C28.8339939,9.61036694 27.3886814,8.98338321 25.8421865,8.96878558 C24.266757,8.95418796 22.8359118,9.55197644 21.7374601,10.6457264 C20.6390084,11.7394764 20.0175348,13.1978098 20.0030675,14.7583262 C20.0030675,15.8520762 20.2921476,16.8728384 20.8269062,17.7625783 L8.71518032,29.9686431 C7.84802809,29.458262 6.86522614,29.1812641 5.82455532,29.1666665 C4.29252754,29.1666665 2.81836848,29.7500354 1.71991682,30.8437854 C0.621465152,31.9375354 0.0144586172,33.3958688 -8.52734374e-06,34.9562071 C-0.0289431055,38.1646474 2.54375549,40.8041382 5.72337275,40.8333333 L5.78124176,40.8333333 C7.37105025,40.8333333 8.80189546,40.1915741 9.84256642,39.1416168 C10.8976164,38.0916595 11.5480246,36.6479238 11.5624918,35.0436147 C11.5769591,33.9644623 11.2878789,32.9437001 10.7531202,32.0395406 L22.8648461,19.8187001 C23.7030639,20.3292593 24.685954,20.6208546 25.7410038,20.6354523 L25.7843173,20.6354523 C26.8394554,20.6354523 27.8511918,20.3582763 28.7183441,19.8187001 L35.2655639,26.4249929 C34.7597398,27.2853596 34.4706596,28.2771046 34.4561923,29.3416595 C34.4418134,32.5499217 37.0144236,35.1895905 40.1941288,35.2187856 L40.2374423,35.2187856 Z" id="Path" fill="#4C446A"></path>
                        <rect id="Rectangle" fill="#625889" x="56.3671765" y="20.4166667" width="13.0078125" height="49.5833333"></rect>
                    </g>
                </g>
            </g>
        </g>
    </g>
</svg>