<?xml version="1.0" encoding="UTF-8" standalone="no"?>
<svg xmlns="http://www.w3.org/2000/svg" height="51px" width="50px" version="1.1" xmlns:xlink="http://www.w3.org/1999/xlink" viewBox="0 0 50 51"><!-- Generator: Sketch 52.3 (67297) - http://www.bohemiancoding.com/sketch -->
 <title>growth</title>
 <desc>Created with Sketch.</desc>
 <g id="Temporary-Homepage-(Instapage)" fill-rule="evenodd" fill="none">
  <g id="Insta" fill-rule="nonzero" fill="#6D5CAE" transform="translate(-1050 -1129)">
   <g id="Group-2" transform="translate(984 1129)">
    <g id="growth" transform="translate(66)">
     <path id="Shape" d="m48.521 19.875c0.719 0 1.302 0.583 1.302 1.302v5.021c0 0.719-0.583 1.302-1.302 1.302s-1.302-0.583-1.302-1.302v-1.875l-8.573 8.573c-0.414 0.414-1.053 0.502-1.563 0.213l-5.989-3.369-9.63 8.562c-0.348 0.309-0.835 0.409-1.276 0.262-0.442-0.147-0.771-0.518-0.865-0.974-0.093-0.456 0.063-0.927 0.411-1.236l10.323-9.177c0.415-0.367 1.017-0.432 1.5-0.161l5.943 3.338 7.875-7.875h-1.875c-0.719 0-1.302-0.583-1.302-1.302s0.583-1.302 1.302-1.302h5.021zm-2.511 10.417c-0.719 0-1.302 0.583-1.302 1.302v16.146c0 0.719 0.583 1.302 1.302 1.302 0.72 0 1.302-0.583 1.302-1.302v-16.146c-0.008-0.713-0.589-1.287-1.302-1.287v-0.015zm-8.51 6.625v10.838c0 0.719 0.583 1.302 1.302 1.302s1.302-0.583 1.302-1.302v-10.838c0-0.719-0.583-1.302-1.302-1.302s-1.302 0.583-1.302 1.302zm-7.214-1.677v12.5c0 0.719 0.583 1.302 1.303 1.302 0.719 0 1.302-0.583 1.302-1.302v-12.5c0-0.72-0.583-1.302-1.302-1.302-0.72 0-1.303 0.582-1.303 1.302zm-7.208 5.776v6.739c0 0.719 0.583 1.302 1.302 1.302s1.302-0.583 1.302-1.302v-6.739c0-0.719-0.583-1.302-1.302-1.302s-1.302 0.583-1.302 1.302zm-12.307-40.756c3.426 0 6.203 2.7773 6.203 6.2031 0 3.4259-2.777 6.2035-6.203 6.2035-3.4261 0-6.2033-2.7776-6.2033-6.2035 0.0029-3.4247 2.7784-6.2002 6.2033-6.2031zm0 2.6042c-1.9878 0-3.5991 1.6113-3.5991 3.5989 0 1.9877 1.6113 3.5985 3.5991 3.5985 1.987 0 3.599-1.6108 3.599-3.5985 0-0.9545-0.379-1.8699-1.054-2.5448s-1.591-1.0541-2.545-1.0541zm-10.557 16.927c-0.19199-1.613 0.31497-3.23 1.393-4.445 1.0779-1.214 2.6239-1.909 4.2477-1.909h1.6093c0.4656-0.003 0.906 0.211 1.1927 0.578l2.0838 2.604 2.083-2.604c0.299-0.362 0.744-0.571 1.213-0.568h2.084c0.837 0.002 1.647 0.294 2.291 0.828l4.599 3.797 4.594-3.599c0.81-0.638 1.854-0.899 2.868-0.717 1.015 0.183 1.902 0.79 2.439 1.67 0.953 1.592 0.559 3.646-0.916 4.771l-6.797 5.323c-1.333 1.05-3.218 1.028-4.526-0.052l-2.255-1.865-2.006 15.339-1 9.172c-0.169 1.519-1.455 2.668-2.984 2.666h-3.3958c-1.5272 0.002-2.812-1.144-2.9843-2.661l-2.0417-14.974c-1.4057-0.788-2.3446-2.206-2.5208-3.807l-1.2709-9.547zm2.6042-0.318l1.25 9.547c0.0932 0.916 0.6991 1.7 1.5625 2.021 0.4521 0.164 0.7766 0.565 0.8438 1.041l2.1458 15.703c0.0136 0.213 0.1885 0.378 0.401 0.381h3.4012c0.203 0.001 0.374-0.152 0.396-0.355l1-9.192 2.328-17.682c0.062-0.47 0.374-0.868 0.814-1.042 0.441-0.173 0.941-0.093 1.306 0.208l4.073 3.365c0.371 0.28 0.883 0.28 1.255 0l6.771-5.334c0.437-0.306 0.571-0.893 0.312-1.359-0.182-0.301-0.508-0.484-0.859-0.484-0.223 0-0.44 0.075-0.615 0.213l-5.396 4.255c-0.477 0.385-1.158 0.385-1.635 0l-5.412-4.489c-0.172-0.145-0.389-0.225-0.614-0.229h-1.63l-2.355 2.942c-0.347 0.436-0.875 0.689-1.432 0.689s-1.0842-0.253-1.4321-0.689l-2.3542-2.942h-1.0885c-0.876 0-1.7102 0.374-2.2939 1.027-0.5836 0.653-0.8612 1.524-0.7634 2.395l0.0208 0.01z"/>
    </g>
   </g>
  </g>
 </g>
</svg>
