<?xml version="1.0" encoding="UTF-8" standalone="no"?>
<svg xmlns="http://www.w3.org/2000/svg" height="13px" width="16px" version="1.1" xmlns:xlink="http://www.w3.org/1999/xlink" viewBox="0 0 16 13"><!-- Generator: Sketch 52.4 (67378) - http://www.bohemiancoding.com/sketch -->
 <title>home2</title>
 <desc>Created with Sketch.</desc>
 <g id="Pages" fill-rule="evenodd" fill="none">
  <g id="Homepage@2x" fill="#fff" transform="translate(-561 -1801)">
   <g id="Group-15" transform="translate(532 1796)">
    <g id="Group-16">
     <g id="home2" transform="translate(29 5)">
      <path id="Shape" fill-rule="nonzero" d="m15.878 5.8324l-7.698-5.7722c-0.1067-0.080269-0.2533-0.080269-0.3602 0.000008l-7.6977 5.7722c-0.13395 0.1005-0.16211 0.2914-0.062429 0.4267 0.099519 0.1352 0.28848 0.1635 0.42272 0.063l0.92111-0.6906v6.8635c0 0.168 0.1352 0.305 0.3021 0.305s0.3022-0.137 0.3022-0.305v-7.3166l5.9922-4.4933 5.993 4.4934v7.0115h-3.575v-5.2987c0-0.1684-0.136-0.3049-0.302-0.3049h-4.2315c-0.1669 0-0.3023 0.1365-0.3023 0.3049v5.2987h-3.8766c-0.1669 0-0.3021 0.137-0.3021 0.305s0.1352 0.305 0.3021 0.305h12.589c0.167 0 0.302-0.137 0.302-0.305v-6.8634l0.921 0.6905c0.054 0.0406 0.117 0.0603 0.18 0.0603 0.092 0 0.183-0.0427 0.242-0.1233 0.1-0.1352 0.072-0.3262-0.062-0.4267zm-9.6913 1.3639h3.6269v4.9937h-3.6269v-4.9937z"/>
      <path id="Shape" fill-rule="nonzero" d="m9.6 4.0001c0-0.8823-0.7177-1.6001-1.6-1.6001s-1.6 0.7178-1.6 1.6001c0 0.8821 0.7177 1.5999 1.6 1.5999s1.6-0.7178 1.6-1.5999zm-2.5156 0c0-0.5049 0.4108-0.9157 0.9156-0.9157s0.9156 0.4108 0.9156 0.9157c0 0.5048-0.4107 0.9155-0.9156 0.9155s-0.9156-0.4107-0.9156-0.9155z"/>
      <circle id="Oval" cy="10.8" cx="9.2" r="1"/>
     </g>
    </g>
   </g>
  </g>
 </g>
</svg>
