<?xml version="1.0" encoding="UTF-8"?>
<svg width="47px" height="45px" viewBox="0 0 47 45" version="1.1" xmlns="http://www.w3.org/2000/svg" xmlns:xlink="http://www.w3.org/1999/xlink">
    <!-- Generator: Sketch 55.2 (78181) - https://sketchapp.com -->
    <title>icn-experience</title>
    <desc>Created with Sketch.</desc>
    <g id="Homepage" stroke="none" stroke-width="1" fill="none" fill-rule="evenodd">
        <g id="Homepage@2x-Copy-16" transform="translate(-694.000000, -6908.000000)" fill="#23A79A">
            <g id="Group-37" transform="translate(236.000000, 6908.000000)">
                <g id="Group-36" transform="translate(334.000000, 0.000000)">
                    <g id="icn-experience" transform="translate(124.000000, 0.000000)">
                        <path d="M32.9505376,25.05 C44.927957,21.95 46.4946237,10.85 46.6967742,7.1 C46.7473118,6.35 46.444086,5.6 45.9387097,5.05 C45.4333333,4.5 44.6752688,4.2 43.9172043,4.2 L39.0655914,4.2 C39.1666667,3.4 39.3182796,2.6 39.4193548,1.8 C39.5204301,1 38.8634409,0.25 38.0548387,0.25 L8.79354839,0.25 C7.98494624,0.25 7.32795699,0.95 7.42903226,1.8 C7.53010753,2.6 7.6311828,3.4 7.7827957,4.2 L2.88064516,4.2 C2.12258065,4.2 1.41505376,4.5 0.859139785,5.05 C0.353763441,5.6 0.0505376344,6.35 0.101075269,7.1 C0.303225806,10.85 1.86989247,21.95 13.8473118,25.05 C15.7172043,28.35 17.9913978,30.6 20.6193548,31.55 L20.6193548,39.3 L15.3634409,39.3 C13.8473118,39.3 12.583871,40.55 12.583871,42.05 C12.583871,43.55 13.8473118,44.8 15.3634409,44.8 L31.4849462,44.8 C33.0010753,44.8 34.2645161,43.55 34.2645161,42.05 C34.2645161,40.55 33.0010753,39.3 31.4849462,39.3 L26.1784946,39.3 L26.1784946,31.55 C28.8064516,30.6 31.0301075,28.35 32.9505376,25.05 Z M38.6107527,6.95 L43.9172043,6.95 C43.7150538,10.7 42.3505376,18.3 34.6182796,21.55 C36.3365591,17.55 37.6505376,12.6 38.6107527,6.95 Z M2.88064516,6.95 L8.18709677,6.95 C9.14731183,12.6 10.511828,17.55 12.1795699,21.55 C4.44731183,18.3 3.0827957,10.7 2.88064516,6.95 Z M23.7526882,17.7 C23.5505376,17.6 23.2473118,17.6 23.0451613,17.7 L19.5580645,19.5 C19.0021505,19.8 18.3451613,19.3 18.4462366,18.7 L19.1032258,14.85 C19.1537634,14.6 19.0526882,14.35 18.9010753,14.2 L16.1215054,11.5 C15.6666667,11.05 15.9193548,10.3 16.5258065,10.25 L20.4172043,9.7 C20.6698925,9.65 20.872043,9.5 20.9731183,9.3 L22.7419355,5.8 C22.9946237,5.25 23.8032258,5.25 24.1064516,5.8 L25.8752688,9.3 C25.9763441,9.5 26.1784946,9.65 26.4311828,9.7 L30.3225806,10.25 C30.9290323,10.35 31.1817204,11.1 30.7268817,11.5 L27.8967742,14.2 C27.6946237,14.35 27.644086,14.6 27.6946237,14.85 L28.3516129,18.7 C28.4526882,19.3 27.7956989,19.75 27.2397849,19.5 L23.7526882,17.7 Z" id="Shape"></path>
                    </g>
                </g>
            </g>
        </g>
    </g>
</svg>