<?xml version="1.0" encoding="UTF-8"?>
<svg width="48px" height="43px" viewBox="0 0 48 43" version="1.1" xmlns="http://www.w3.org/2000/svg" xmlns:xlink="http://www.w3.org/1999/xlink">
    <!-- Generator: Sketch 55.2 (78181) - https://sketchapp.com -->
    <title>icn-data security</title>
    <desc>Created with Sketch.</desc>
    <g id="Homepage" stroke="none" stroke-width="1" fill="none" fill-rule="evenodd">
        <g id="Homepage@2x-Copy-16" transform="translate(-356.000000, -6908.000000)" fill="#23A79A">
            <g id="Group-37" transform="translate(236.000000, 6908.000000)">
                <g id="Group-10">
                    <g id="icn-data-security" transform="translate(120.000000, 0.000000)">
                        <path d="M10.5645933,8.66131907 L33.2248804,8.66131907 L33.2248804,5.67201426 C33.2248804,4.82887701 32.4593301,4.13903743 31.4641148,4.13903743 L13.3205742,4.13903743 C13.0909091,4.13903743 12.937799,4.06238859 12.784689,3.90909091 L8.57416268,0.0766488414 L1.76076555,0.0766488414 C0.765550239,0.229946524 0,0.919786096 0,1.76292335 L0,29.6631016 C0,31.426025 1.53110048,32.8823529 3.5215311,32.9590018 C5.35885167,33.1122995 7.42583732,31.6559715 7.42583732,29.6631016 L7.42583732,11.6506239 C7.3492823,10.0409982 8.80382775,8.66131907 10.5645933,8.66131907 Z M2.29665072,6.05525847 C1.83732057,6.05525847 1.53110048,5.7486631 1.53110048,5.28877005 C1.53110048,4.82887701 1.83732057,4.52228164 2.29665072,4.52228164 L9.18660287,4.52228164 C9.64593301,4.52228164 9.95215311,4.82887701 9.95215311,5.28877005 C9.95215311,5.7486631 9.64593301,6.05525847 9.18660287,6.05525847 L2.29665072,6.05525847 Z" id="Shape"></path>
                        <path d="M26.2583732,21.6149733 C26.4114833,21.6149733 31.3875598,22.1515152 33.6842105,18.5490196 C34.1435407,17.85918 34.8325359,17.4759358 35.5980861,17.4759358 L37.3588517,17.4759358 C38.1244019,17.4759358 38.8899522,17.85918 39.2727273,18.5490196 C39.7320574,19.315508 40.5741627,20.2352941 42.0287081,20.9251337 L42.0287081,11.7272727 C42.0287081,10.9607843 41.2631579,10.2709447 40.4210526,10.2709447 C1.9138756,10.2709447 35.215311,10.2709447 10.4880383,10.2709447 C9.64593301,10.2709447 8.88038278,10.8841355 8.88038278,11.6506239 C8.88038278,11.6506239 8.88038278,11.7272727 8.88038278,11.7272727 L8.88038278,29.6631016 C8.88038278,31.0427807 7.96172249,32.5757576 7.50239234,32.9590018 L26.1818182,32.9590018 C24.4976077,28.4367201 24.0382775,24.3743316 24.0382775,24.2210339 C23.8851675,22.7647059 24.9569378,21.6149733 26.2583732,21.6149733 Z" id="Path"></path>
                        <path d="M37.2822967,36.7914439 C39.7320574,34.4919786 41.2631579,30.5828877 42.1052632,27.3636364 C40.4210526,26.9803922 38.7368421,26.2139037 37.2822967,25.2174688 L37.2822967,36.7914439 Z" id="Path"></path>
                        <path d="M46.6985646,23.1479501 C43.2535885,23.2245989 39.8851675,22.3048128 38.0478469,19.315508 C37.8947368,19.0855615 37.6650718,18.9322638 37.3588517,18.9322638 C35.9043062,19.0089127 35.3684211,18.7023173 34.9856459,19.315508 C33.8373206,21.0784314 31.4641148,23.2245989 26.3349282,23.1479501 C25.8755981,23.1479501 25.492823,23.5311943 25.569378,23.9910873 C25.569378,24.2210339 26.1052632,29.1265597 28.3253589,34.0320856 C30.3157895,38.4010695 32.9952153,41.3137255 36.2870813,42.6934046 C36.5167464,42.7700535 36.6698565,42.7700535 36.8995215,42.6934046 C46.0095694,38.8609626 47.4641148,24.6042781 47.5406699,23.9910873 C47.5406699,23.5311943 47.1578947,23.1479501 46.6985646,23.1479501 Z M43.7129187,26.9803922 C42.7942584,31.2727273 40.5741627,36.6381462 36.8995215,39.0909091 C36.3636364,39.3975045 35.7511962,39.0142602 35.7511962,38.4777184 L35.7511962,23.6078431 C35.7511962,22.9180036 36.5933014,22.6114082 37.0526316,23.0713012 C38.6602871,24.6042781 40.8803828,25.6773619 43.1770335,26.0606061 C43.5598086,26.1372549 43.8660287,26.5204991 43.7129187,26.9803922 Z" id="Shape"></path>
                    </g>
                </g>
            </g>
        </g>
    </g>
</svg>