<?xml version="1.0" encoding="UTF-8"?>
<svg width="30px" height="33px" viewBox="0 0 30 33" version="1.1" xmlns="http://www.w3.org/2000/svg" xmlns:xlink="http://www.w3.org/1999/xlink">
    <!-- Generator: Sketch 55.2 (78181) - https://sketchapp.com -->
    <title>icn-ownership</title>
    <desc>Created with Sketch.</desc>
    <g id="Homepage" stroke="none" stroke-width="1" fill="none" fill-rule="evenodd">
        <g id="Homepage@2x-Copy-16" transform="translate(-371.000000, -1441.000000)" fill="#23A79A">
            <g id="Group-26" transform="translate(370.000000, 1304.000000)">
                <g id="Group-20" transform="translate(0.000000, 137.000000)">
                    <g id="icn-ownership" transform="translate(1.000000, 0.000000)">
                        <path d="M18.6529725,14.9467613 C19.0096717,14.9467613 19.3424135,15.0851819 19.5939663,15.3367347 C19.8455191,15.5882875 19.9839397,15.9223602 19.9839397,16.2777285 C19.9839397,16.6330967 19.8455191,16.9671695 19.5939663,17.2187223 L19.5926353,17.2200532 C19.0921917,17.7204969 18.2177462,17.7231588 17.7119787,17.2187223 C17.4604259,16.9671695 17.3220053,16.6330967 17.3220053,16.2777285 C17.3220053,15.9223602 17.4604259,15.5882875 17.7119787,15.3367347 C17.9635315,15.0851819 18.2976043,14.9467613 18.6529725,14.9467613 Z M21.4774179,19.1001775 C22.2307453,18.34685 22.6460071,17.3446318 22.6460071,16.2771961 C22.6460071,15.2110914 22.2294144,14.2088731 21.4774179,13.4555457 C19.9707631,11.9462289 17.339441,11.9462289 15.8301242,13.4542147 C15.0754658,14.2088731 14.6602041,15.2110914 14.6602041,16.2771961 C14.6602041,16.8814552 14.8066105,17.4590949 15.0594942,17.9888199 L9.2431677,23.8064774 C8.72275954,24.3268855 8.72275954,25.1693878 9.2431677,25.688465 C9.5027063,25.9493345 9.8434339,26.0784383 10.1841615,26.0784383 C10.5248891,26.0784383 10.8642857,25.9493345 11.1251553,25.688465 L12.0661491,24.7474712 L13.0071429,25.688465 C13.2666815,25.9493345 13.6074091,26.0784383 13.9481366,26.0784383 C14.2888642,26.0784383 14.6282609,25.9493345 14.8891304,25.688465 C15.4082076,25.1693878 15.4082076,24.3268855 14.8891304,23.8064774 L13.9481366,22.8654836 L14.8891304,21.9244898 L15.8301242,22.8654836 C16.0896628,23.1250222 16.4303904,23.255457 16.771118,23.255457 C17.1118456,23.255457 17.4525732,23.1250222 17.7121118,22.8654836 C18.23252,22.3450754 18.23252,21.5039042 17.7121118,20.983496 L16.771118,20.0425022 L16.9414818,19.8708075 C17.4712067,20.1236912 18.0488465,20.2700976 18.6531056,20.2700976 C19.7205413,20.2700976 20.7227595,19.8548358 21.476087,19.1015084 L21.476087,19.1001775 L21.4774179,19.1001775 Z M29.3035049,11.6853594 C29.8212511,12.144543 29.9916149,12.8273292 29.7507098,13.4648625 C29.4019965,14.3805679 28.2267524,14.9462289 27.3376664,14.9462289 L27.3376664,26.9249335 C28.0736912,26.9249335 28.6686335,27.5212067 28.6686335,28.2559006 L28.6686335,30.917835 C28.6686335,31.6538598 28.0736912,32.2488021 27.3376664,32.2488021 L3.38025732,32.2488021 C2.64556344,32.2488021 2.04929015,31.6538598 2.04929015,30.917835 L2.04929015,28.2559006 C2.04929015,27.5212067 2.64556344,26.9249335 3.38025732,26.9249335 L3.38025732,14.9462289 L2.00803017,14.9462289 C1.16419698,14.9462289 0.436157941,14.4644188 0.153992902,13.7177462 C-0.117524401,13.0016859 0.0927684117,12.1991127 0.689041704,11.6707187 L3.38025732,9.05936114 L3.38025732,1.63655723 C3.38025732,0.901863354 3.97653061,0.305590062 4.71122449,0.305590062 L8.704126,0.305590062 C9.0608252,0.305590062 9.40288376,0.449334516 9.65310559,0.703549246 C9.90332742,0.957763975 10.040417,1.3011535 10.0350932,1.65785271 L10.00315,3.72085182 L12.2178793,1.44889086 C13.7844277,-0.0617568767 16.1934783,-0.0617568767 17.7294144,1.41960958 L29.3035049,11.6853594 Z" id="Combined-Shape"></path>
                    </g>
                </g>
            </g>
        </g>
    </g>
</svg>