<?xml version="1.0" encoding="UTF-8"?>
<svg width="48px" height="47px" viewBox="0 0 48 47" version="1.1" xmlns="http://www.w3.org/2000/svg" xmlns:xlink="http://www.w3.org/1999/xlink">
    <!-- Generator: Sketch 55.2 (78181) - https://sketchapp.com -->
    <title>icn-guaranteed</title>
    <desc>Created with Sketch.</desc>
    <g id="Homepage" stroke="none" stroke-width="1" fill="none" fill-rule="evenodd">
        <g id="Homepage@2x-Copy-16" transform="translate(-1033.000000, -6908.000000)" fill="#23A79A">
            <g id="Group-37" transform="translate(236.000000, 6908.000000)">
                <g id="Group-12" transform="translate(674.000000, 0.000000)">
                    <g id="icn-guaranteed" transform="translate(123.000000, 0.000000)">
                        <path d="M36.75,23.5 C35.6,23.5 34.7,22.6 34.7,21.45 L34.7,20 C34.7,18.85 35.65,17.95 36.75,17.95 L44.45,17.95 C45.55,17.95 46.45,18.9 46.5,20 L46.5,21.5 C46.5,22.65 45.55,23.55 44.45,23.55 L36.75,23.5 L36.75,23.5 Z M34.55,31.2 L45.7,31.2 C46.85,31.2 47.75,30.25 47.75,29.15 L47.75,27.65 C47.75,26.5 46.85,25.6 45.7,25.6 L34.55,25.6 C33.4,25.6 32.5,26.55 32.5,27.65 L32.5,29.15 C32.5,30.3 33.45,31.2 34.55,31.2 L34.55,31.2 Z M34.55,38.9 L45.7,38.9 C46.85,38.9 47.75,37.95 47.75,36.85 L47.75,35.35 C47.75,34.2 46.8,33.3 45.7,33.3 L34.55,33.3 C33.4,33.3 32.5,34.25 32.5,35.35 L32.5,36.85 C32.5,37.95 33.45,38.85 34.55,38.9 L34.55,38.9 Z M36.05,46.55 L43.3,46.55 C44.45,46.55 45.35,45.6 45.35,44.5 L45.35,43 C45.35,41.85 44.4,40.95 43.3,40.95 L36.05,40.95 C34.95,40.95 34,41.9 34,43 L34,44.5 C34.05,45.6 34.95,46.5 36.05,46.55 L36.05,46.55 Z M0.25,45.8 L10.35,45.8 L10.35,19.45 L0.25,19.45 L0.25,45.8 Z M6.85,41.65 C6.85,42.5 6.15,43.2 5.3,43.2 C4.45,43.2 3.75,42.5 3.75,41.65 C3.75,40.8 4.45,40.1 5.3,40.1 C5.3,40.1 5.3,40.1 5.3,40.1 C6.15,40.1 6.85,40.8 6.85,41.65 L6.85,41.65 Z M33.2,17.95 L34.8,15.45 C36.4,12.55 37.45,7.45 34.85,2.95 C34.7,2.65 34.5,2.3 34.3,2 C32.35,-0.8 29.15,0.7 29.3,2.95 C29.45,5.55 29.4,8.65 28.15,11 C27.05,13.05 24.6,14.7 22.45,15.45 C19.25,16.55 16.25,19.15 15.45,22.7 L12.45,22.7 L12.45,42.6 L17.25,42.6 C18.65,44.9 21.15,46.3 23.85,46.35 L32.4,46.35 C32.1,45.8 31.95,45.15 31.95,44.5 L31.95,43 C31.95,42.1 32.25,41.2 32.8,40.5 C31.35,39.8 30.45,38.4 30.45,36.8 L30.45,35.3 C30.45,34.1 30.95,33 31.9,32.2 C31,31.45 30.5,30.3 30.5,29.1 L30.5,27.6 C30.5,25.8 31.7,24.2 33.4,23.7 C32.95,23.05 32.7,22.25 32.7,21.45 L32.7,20 C32.65,19.3 32.85,18.55 33.2,17.95 L33.2,17.95 Z" id="Shape"></path>
                    </g>
                </g>
            </g>
        </g>
    </g>
</svg>