<?xml version="1.0" encoding="UTF-8"?>
<svg width="30px" height="30px" viewBox="0 0 30 30" version="1.1" xmlns="http://www.w3.org/2000/svg" xmlns:xlink="http://www.w3.org/1999/xlink">
    <!-- Generator: Sketch 55.2 (78181) - https://sketchapp.com -->
    <title>icn-agreement</title>
    <desc>Created with Sketch.</desc>
    <g id="Homepage" stroke="none" stroke-width="1" fill="none" fill-rule="evenodd">
        <g id="Homepage@2x-Copy-16" transform="translate(-742.000000, -1304.000000)" fill="#23A79A">
            <g id="Group-26" transform="translate(370.000000, 1304.000000)">
                <g id="Group-19" transform="translate(371.000000, 0.000000)">
                    <g id="icn-agreement" transform="translate(1.000000, 0.000000)">
                        <path d="M0,0 L0,30 L30,30 L30,0 L0,0 Z M4.50094501,4.999875 L19.500045,4.999875 L19.500045,7.5 L4.50094501,7.5 L4.50094501,4.999875 Z M4.50094501,10.000125 L10.500855,10.000125 L10.500855,12.50025 L4.50094501,12.50025 L4.50094501,10.000125 Z M25.499955,22.5 L22.502925,22.5 C21.0062101,22.501125 19.5090451,22.84425 18.3691837,23.530125 L17.6365764,23.969625 C16.5763658,24.605625 15.1143011,25.000125 13.501035,25.000125 C11.6587166,25.000125 10.0319503,24.29325 8.93123931,23.20575 L7.85392854,25.000125 L4.500045,25.000125 L7.50067501,19.999875 L10.500855,19.999875 C10.500855,21.378375 11.8468185,22.5 13.501035,22.5 C14.4230942,22.5 15.2929529,22.296 15.8820088,21.9435 L16.6114661,21.502875 C18.2224822,20.536125 20.3118531,20.001375 22.502925,19.999875 L25.499955,19.999875 L25.499955,22.5 L25.499955,22.5 Z M25.499955,17.500125 L4.50094501,17.500125 L4.50094501,15 L25.499955,15 L25.499955,17.500125 Z M25.499955,12.499875 L13.501035,12.499875 L13.501035,9.99975 L25.499955,9.99975 L25.499955,12.499875 Z" id="Shape"></path>
                    </g>
                </g>
            </g>
        </g>
    </g>
</svg>