<?xml version="1.0" encoding="UTF-8"?>
<svg width="30px" height="30px" viewBox="0 0 30 30" version="1.1" xmlns="http://www.w3.org/2000/svg" xmlns:xlink="http://www.w3.org/1999/xlink">
    <!-- Generator: Sketch 55.2 (78181) - https://sketchapp.com -->
    <title>icn-platform</title>
    <desc>Created with Sketch.</desc>
    <g id="Homepage" stroke="none" stroke-width="1" fill="none" fill-rule="evenodd">
        <g id="Homepage@2x-Copy-16" transform="translate(-741.000000, -1441.000000)" fill="#23A79A">
            <g id="Group-26" transform="translate(370.000000, 1304.000000)">
                <g id="Group-16" transform="translate(371.000000, 137.000000)">
                    <g id="icn-platform">
                        <path d="M10.000125,10.000125 C10.000125,7.242375 12.243375,4.999875 15,4.999875 L25.000125,4.999875 L25.000125,2.500125 C25.000125,1.125375 23.874375,0 22.5,0 L2.500125,0 C1.125375,0 0,1.125375 0,2.500125 L0,19.999875 C0,21.374625 1.125375,22.5 2.500125,22.5 L10.000125,22.5 L10.000125,10.000125 Z" id="Path"></path>
                        <path d="M22.5,12.499875 L27.499875,12.499875 L27.499875,10.000125 C27.499875,8.625375 26.3745,7.5 25.000125,7.5 L15,7.5 C13.625625,7.5 12.499875,8.625375 12.499875,10.000125 L12.499875,25.000125 C12.499875,26.3745 13.625625,27.499875 15,27.499875 L17.500125,27.499875 L17.500125,17.500125 C17.500125,14.742375 19.74225,12.499875 22.5,12.499875 Z" id="Path"></path>
                        <path d="M30,27.499875 C30,28.874625 28.874625,30 27.499875,30 L22.5,30 C21.125625,30 19.999875,28.874625 19.999875,27.499875 L19.999875,17.500125 C19.999875,16.125375 21.125625,15 22.5,15 L27.499875,15 C28.874625,15 30,16.125375 30,17.500125 L30,27.499875 Z" id="Path"></path>
                    </g>
                </g>
            </g>
        </g>
    </g>
</svg>