<?xml version="1.0" encoding="UTF-8"?>
<svg width="16px" height="12px" viewBox="0 0 16 12" version="1.1" xmlns="http://www.w3.org/2000/svg" xmlns:xlink="http://www.w3.org/1999/xlink">
    <!-- Generator: Sketch 55.2 (78181) - https://sketchapp.com -->
    <title>icn-email</title>
    <desc>Created with Sketch.</desc>
    <g id="Homepage" stroke="none" stroke-width="1" fill="none" fill-rule="evenodd">
        <g id="Homepage@2x-Copy-16" transform="translate(-645.000000, -8885.000000)" fill="#FFFFFF" fill-rule="nonzero">
            <g id="Group-14" transform="translate(568.000000, 8694.000000)">
                <g id="Group-15" transform="translate(77.000000, 188.000000)">
                    <g id="icn-email" transform="translate(0.000000, 3.000000)">
                        <polygon id="Path" points="0.739904472 0.156255319 8 6.304 15.2600955 0.156255319"></polygon>
                        <path d="M8.34042553,7.36510638 C8.3369518,7.36817021 8.33278333,7.36885106 8.3293096,7.37191489 C8.28623535,7.4066383 8.23933999,7.43353191 8.18931828,7.45259574 C8.17959184,7.45634043 8.17021277,7.4587234 8.16048632,7.46178723 C8.10838037,7.47812766 8.05488493,7.4893617 8.00069475,7.4893617 C8.00069475,7.4893617 8.00034737,7.4893617 8.00034737,7.4893617 L8.00034737,7.4893617 L8.00034737,7.4893617 C8.00034737,7.4893617 8,7.4893617 8,7.4893617 C7.94580981,7.4893617 7.89231437,7.47812766 7.8405558,7.46178723 C7.83082935,7.45838298 7.82110291,7.456 7.81172384,7.45259574 C7.76135475,7.43319149 7.7144594,7.40629787 7.67138515,7.37157447 C7.66791142,7.36885106 7.66374294,7.36817021 7.66026921,7.36510638 L0.0250108554,0.900425532 L0.0250108554,10.5671489 C0.0250108554,10.8490213 0.258098133,11.0777872 0.546070343,11.0777872 L15.4539297,11.0777872 C15.7415545,11.0777872 15.9749891,10.8490213 15.9749891,10.5671489 L15.9749891,0.900425532 L8.34042553,7.36510638 Z" id="Path"></path>
                    </g>
                </g>
            </g>
        </g>
    </g>
</svg>