<?xml version="1.0" encoding="UTF-8"?>
<svg width="25px" height="25px" viewBox="0 0 25 25" version="1.1" xmlns="http://www.w3.org/2000/svg" xmlns:xlink="http://www.w3.org/1999/xlink">
    <!-- Generator: Sketch 54.1 (76490) - https://sketchapp.com -->
    <title>noun_Asset allocation_2147062_000000</title>
    <desc>Created with Sketch.</desc>
    <g id="Homepage" stroke="none" stroke-width="1" fill="none" fill-rule="evenodd">
        <g id="Referral_sm-Copy-3" transform="translate(-22.000000, -280.000000)" fill="#FFFFFF" fill-rule="nonzero" stroke="#FFFFFF" stroke-width="0.5">
            <g id="noun_Asset-allocation_2147062_000000" transform="translate(23.000000, 281.000000)">
                <path d="M3.78380396,19.897578 L7.62764097,16.0464176 C8.43360352,16.7242857 9.44271586,17.1685143 10.5504648,17.2764374 L10.5504648,22.7150527 C7.9462467,22.5903473 5.58413656,21.5450352 3.78380396,19.897578 Z M10.0438568,17.7169253 C9.18647357,17.5651758 8.37944714,17.2260396 7.67065198,16.7195846 L4.52471806,19.8715451 C5.29319163,20.506244 6.14505286,21.0232637 7.06343172,21.4118879 C8.01463877,21.8143626 9.01493612,22.0689802 10.0438568,22.1710901 L10.0438568,17.7169253 Z M14.078837,16.3859077 C15.105326,15.6932791 15.8787137,14.6547912 16.2299449,13.4384703 L21.7749207,13.4384703 C21.3186696,16.7390967 19.3642775,19.5628396 16.6182093,21.203422 L14.078837,16.3859077 Z M21.1772753,13.9439648 L16.5978943,13.9439648 C16.2294383,14.9606659 15.5810308,15.8598901 14.7301322,16.5354835 L16.8107709,20.4827385 C17.9207996,19.7373868 18.8900925,18.7705275 19.6344515,17.6620791 C20.3988216,16.5239077 20.9165242,15.2754879 21.1772753,13.9439648 Z M7.08795154,15.1352637 L7.22939648,15.3115297 L3.03220044,19.5178505 L2.85321586,19.3190901 C1.02962996,17.293978 0.0253303965,14.6776396 0.0253303965,11.9520637 C0.0253303965,11.919611 0.0253810573,11.8876637 0.0258876652,11.855211 C0.0598810573,7.7876989 2.32639427,4.08141319 5.94099119,2.18494945 C7.04478855,1.60620879 8.22827533,1.22162857 9.45877533,1.04172308 L9.74880837,0.999312088 L9.74880837,7.02531209 L9.57017841,7.08025934 C8.54911013,7.39452527 7.63194714,8.03989011 6.98754185,8.89766374 C6.32140308,9.7843011 5.96931057,10.8405319 5.96931057,11.9520637 C5.96931057,13.1224857 6.35610573,14.2232 7.08795154,15.1352637 Z M3.05347797,18.7801319 L6.55424009,15.2717473 C5.8394163,14.3056462 5.4627533,13.162622 5.4627533,11.9520637 C5.4627533,10.7302835 5.84985242,9.56926374 6.58220485,8.59446813 C7.2524978,7.70227033 8.19164758,7.01904396 9.24220044,6.65564396 L9.24220044,1.58836484 C8.1724978,1.7752967 7.14256388,2.12590769 6.17671586,2.63236264 C2.72767841,4.44198242 0.564867841,7.97842198 0.532444934,11.8615297 C0.531938326,11.8932747 0.531938326,11.9223912 0.531938326,11.9520637 C0.531938326,14.4633099 1.42544273,16.8773495 3.05347797,18.7801319 Z M13.0528546,16.6545275 L13.2669978,16.5647011 L16.0349515,21.8150198 L15.7959846,21.9277451 C14.4827555,22.5474308 13.0769185,22.897233 11.6176344,22.9674462 L11.3521211,22.9802857 L11.3521211,17.047044 L11.5809559,17.0249033 C12.0888811,16.9757187 12.5840903,16.8511143 13.0528546,16.6545275 Z M11.8587797,22.4465846 C13.0677996,22.3584769 14.2361894,22.067767 15.3389229,21.580622 L13.0326916,17.206022 C12.6535969,17.3466505 12.2603172,17.4455253 11.8587797,17.5011297 L11.8587797,22.4465846 Z M15.412533,11.9522154 C15.412533,14.3370374 13.4680705,16.2772769 11.0779449,16.2772769 C8.68781938,16.2772769 6.74335683,14.3370374 6.74335683,11.9522154 C6.74335683,9.56734286 8.68781938,7.6271033 11.0779449,7.6271033 C13.4680198,7.6271033 15.412533,9.56734286 15.412533,11.9522154 Z M11.0779449,15.7717824 C13.1887269,15.7717824 14.9059251,14.0583077 14.9059251,11.9522154 C14.9059251,9.84602198 13.1887269,8.1325978 11.0779449,8.1325978 C8.967163,8.1325978 7.24996476,9.84607253 7.24996476,11.9522154 C7.24996476,14.0583582 8.967163,15.7717824 11.0779449,15.7717824 Z M11.149326,11.7096286 C11.6428634,11.8542 12.2119361,12.1103341 12.2315925,12.8139824 C12.2462841,13.3384835 11.9149626,13.8061165 11.4258833,13.9511934 C11.3946256,13.9604945 11.3630132,13.9683802 11.3312996,13.9752044 L11.3312996,14.3087297 L10.8246916,14.3087297 L10.8246916,13.9662571 C10.6615132,13.9239473 10.5077577,13.8441297 10.3774075,13.7295846 C10.1341344,13.5159121 9.99461454,13.2081165 9.99461454,12.8849033 L10.5012225,12.8849033 C10.5012225,13.0628374 10.5780749,13.2324813 10.7121233,13.3501604 C10.8397379,13.4622791 11.0003833,13.5123736 11.1646762,13.4914967 C11.2034317,13.4865429 11.2427445,13.4782527 11.2814493,13.4667275 C11.5552203,13.3854945 11.7335463,13.1288044 11.7251366,12.8280857 C11.7177401,12.5647736 11.594989,12.3669231 11.0066145,12.1946505 C10.3981784,12.0164637 9.98220264,11.7769604 9.92951542,11.1870989 C9.87601762,10.5877846 10.2597225,10.0524154 10.824641,9.92983297 L10.824641,9.59554945 L11.3312489,9.59554945 L11.3312489,9.93726374 C11.4955419,9.97987692 11.6500066,10.0611099 11.7808634,10.1769187 C12.0229207,10.3911473 12.161326,10.6991451 12.1604141,11.0218527 L12.1603128,11.0540022 L11.6537048,11.0524352 L11.6538062,11.0203868 C11.6543128,10.842756 11.5780683,10.6731626 11.4447291,10.5551297 C11.3179758,10.4429604 11.1580903,10.3923099 10.9945066,10.4124286 C10.9781938,10.4144 10.9619317,10.416978 10.9455683,10.4201626 C10.622859,10.4827429 10.4030419,10.7932176 10.4341982,11.1423121 C10.4563877,11.3913187 10.5690573,11.5397319 11.149326,11.7096286 Z M18.3834846,2.63625495 L18.7783855,2.95901319 C18.9943524,3.14372088 19.2048987,3.33671868 19.409163,3.53820879 C21.6541454,5.75085934 22.9053656,8.70304835 22.9317093,11.8505099 L22.9364714,12.385778 L16.4225066,12.385778 C16.4240771,12.367378 16.4256476,12.3489275 16.4267115,12.3299714 C16.4282819,12.3068703 16.4298524,12.2836681 16.4309163,12.2599604 C16.4319802,12.2483846 16.4324868,12.2373648 16.4330441,12.225789 C16.4341079,12.2084 16.4346145,12.1905055 16.4351718,12.1731165 C16.4367423,12.1436462 16.4378062,12.1147319 16.4378062,12.085211 C16.4393767,12.0410308 16.4399339,11.9968505 16.4399339,11.9520637 C16.4399339,11.9210264 16.4394273,11.8899385 16.43887,11.8594066 C16.3892731,8.9472022 14.0082159,6.60190989 11.0779956,6.60190989 C10.9877687,6.60190989 10.8981498,6.60403297 10.8089868,6.60873407 C10.7852269,6.6097956 10.761467,6.61085714 10.7382643,6.61298022 C10.7139978,6.61404176 10.6897313,6.61560879 10.6654648,6.61773187 C10.6269626,6.62030989 10.5884604,6.62405055 10.5504648,6.62769011 L10.5504648,0.123846154 L11.0779449,0.123846154 C13.7584581,0.123846154 16.3063414,1.00810769 18.3834846,2.63625495 Z M19.0531189,3.89776703 C18.8750463,3.72215824 18.6917048,3.55367692 18.5042599,3.39131209 L18.1110308,3.06587473 C16.1153502,1.48721538 13.6609868,0.629340659 11.0779449,0.629340659 L11.0570727,0.629340659 L11.0570727,6.09646593 C11.0640132,6.09641538 11.0709537,6.09641538 11.0779449,6.09641538 C14.2592401,6.09641538 16.8913722,8.67782418 16.9453767,11.8508132 C16.9455286,11.8605692 16.9457313,11.8704264 16.9458833,11.880233 L22.4254559,11.880233 L22.4252026,11.8549582 C22.3999229,8.84190769 21.2024031,6.01604176 19.0531189,3.89776703 Z" id="Combined-Shape"></path>
            </g>
        </g>
    </g>
</svg>