<?xml version="1.0" encoding="UTF-8"?>
<svg width="26px" height="26px" viewBox="0 0 26 26" version="1.1" xmlns="http://www.w3.org/2000/svg" xmlns:xlink="http://www.w3.org/1999/xlink">
    <!-- Generator: Sketch 54.1 (76490) - https://sketchapp.com -->
    <title>noun_investment_2300715_000000</title>
    <desc>Created with Sketch.</desc>
    <g id="Homepage" stroke="none" stroke-width="1" fill="none" fill-rule="evenodd">
        <g id="Referral_sm-Copy-3" transform="translate(-20.000000, -234.000000)" fill="#FFFFFF" fill-rule="nonzero" stroke="#FFFFFF" stroke-width="0.5">
            <g id="noun_investment_2300715_000000" transform="translate(21.000000, 235.000000)">
                <path d="M15.328,6.06933333 C15.2553881,6.06939145 15.1858924,6.03983682 15.1355644,5.98749574 C15.0852365,5.93515466 15.0584288,5.86455382 15.0613333,5.792 L15.0613333,5.40266667 L14.36,5.40266667 C14.2127241,5.40266667 14.0933333,5.28327593 14.0933333,5.136 C14.0933333,4.98872407 14.2127241,4.86933333 14.36,4.86933333 L15.0613333,4.86933333 L15.0613333,4.096 L14.8453333,4.096 C14.424,4.096 14.0933333,3.688 14.0933333,3.17333333 C14.0933333,2.65866667 14.424,2.25333333 14.8453333,2.25333333 L15.0613333,2.25333333 L15.0613333,1.86666667 C15.0613333,1.71939073 15.1807241,1.6 15.328,1.6 C15.4752759,1.6 15.5946667,1.71939073 15.5946667,1.86666667 L15.5946667,2.264 L16.296,2.264 C16.4432759,2.264 16.5626667,2.38339073 16.5626667,2.53066667 C16.5626667,2.6779426 16.4432759,2.79733333 16.296,2.79733333 L15.5946667,2.79733333 L15.5946667,3.57333333 L15.8133333,3.57333333 C16.2346667,3.57333333 16.5626667,3.976 16.5626667,4.49333333 C16.5626667,5.01066667 16.2346667,5.41333333 15.8133333,5.41333333 L15.5946667,5.41333333 L15.5946667,5.80266667 C15.5946667,5.9499426 15.4752759,6.06933333 15.328,6.06933333 Z M14.8453333,3.57333333 L15.0613333,3.57333333 L15.0613333,2.79733333 L14.8453333,2.79733333 C14.744,2.79733333 14.6266667,2.96533333 14.6266667,3.184 C14.6266667,3.40266667 14.744,3.57333333 14.8453333,3.57333333 Z M15.5946667,4.10666667 L15.5946667,4.88 L15.8133333,4.88 C15.912,4.88 16.0293333,4.712 16.0293333,4.49333333 C16.0293333,4.27466667 15.912,4.10666667 15.8133333,4.10666667 L15.5946667,4.10666667 Z M2.91466667,15.7146667 C3.47665262,15.7161321 3.93186791,16.1713474 3.93333333,16.7333333 C3.93333333,17.2959274 3.47726073,17.752 2.91466667,17.752 C2.3520726,17.752 1.896,17.2959274 1.896,16.7333333 C1.896,16.1707393 2.3520726,15.7146667 2.91466667,15.7146667 Z M2.91466667,17.2186667 C3.04360273,17.219381 3.16746465,17.1684772 3.25863761,17.0773043 C3.34981058,16.9861313 3.40071434,16.8622694 3.4,16.7333333 C3.4,16.5370343 3.28175233,16.3600642 3.10039569,16.2849438 C2.91903906,16.2098234 2.71028854,16.2513465 2.57148418,16.3901508 C2.43267981,16.5289552 2.39115675,16.7377057 2.46627713,16.9190624 C2.54139751,17.100419 2.71836766,17.2186667 2.91466667,17.2186667 Z M23.5973333,19.0533333 C24.0914708,19.722928 24.0306317,20.6512875 23.4533333,21.2506667 C22.1946667,22.5253333 21.1653333,22.9546667 19.376,22.9546667 L11.7066667,22.9546667 C9.62465393,22.953207 7.57791861,22.4169605 5.76266667,21.3973333 L5.76266667,23.6666667 C5.76266667,23.8139426 5.64327593,23.9333333 5.496,23.9333333 L0.333333333,23.9333333 C0.1860574,23.9333333 0.0666666667,23.8139426 0.0666666667,23.6666667 L0.0666666667,14.6453333 C0.0666666667,14.4980574 0.1860574,14.3786667 0.333333333,14.3786667 L5.496,14.3786667 C5.64327593,14.3786667 5.76266667,14.4980574 5.76266667,14.6453333 L5.76266667,15.432 L9.86666667,15.432 C9.97007535,15.4338026 10.0733229,15.4409231 10.176,15.4533333 C10.1054034,15.3078091 10.0680573,15.1484049 10.0666667,14.9866667 L10.0666667,14.4853333 C10.0666667,14.1981923 10.180733,13.9228118 10.3837724,13.7197724 C10.5868118,13.516733 10.8621923,13.4026667 11.1493333,13.4026667 L15.0613333,13.4026667 L15.0613333,11.8666667 L13.7413333,11.1546667 C13.1086756,11.4716177 12.4140362,11.6455052 11.7066667,11.664 C11.1901886,11.6673787 10.6805672,11.5456917 10.2213333,11.3093333 C9.11466667,10.7333333 8.31466667,9.46133333 8.048,7.90133333 C8.02760262,7.77833063 8.09516015,7.65761307 8.21066667,7.61066667 C9.672,7.008 11.184,7.032 12.2506667,7.672 C13.2053333,8.24266667 13.776,9.25333333 13.9573333,10.6666667 L15.0613333,11.2586667 L15.0613333,7.46666667 C13.0698143,7.3231235 11.5492489,5.6289049 11.6210669,3.63351151 C11.692885,1.63811812 13.3313146,0.0575978473 15.328,0.0575978473 C17.3246854,0.0575978473 18.963115,1.63811812 19.0349331,3.63351151 C19.1067511,5.6289049 17.5861857,7.3231235 15.5946667,7.46666667 L15.5946667,10.48 L16.432,10.04 C16.6186667,8.648 17.1866667,7.65066667 18.1333333,7.08533333 C19.2,6.44533333 20.6986667,6.42133333 22.16,7.02666667 C22.2755065,7.07361307 22.343064,7.19433063 22.3226667,7.31733333 C22.0666667,8.87733333 21.2533333,10.152 20.1466667,10.7253333 C19.6887656,10.9629998 19.1798972,11.0856408 18.664,11.0826667 C17.9423473,11.0606115 17.2346171,10.8784416 16.592,10.5493333 L15.5946667,11.0826667 L15.5946667,13.4 L19.5333333,13.4 C20.1312736,13.4 20.616,13.8847264 20.616,14.4826667 L20.616,14.984 C20.616257,15.2985254 20.4776883,15.5971312 20.2373333,15.8 C20.4776883,16.0028688 20.616257,16.3014746 20.616,16.616 L20.616,17.1173333 C20.616257,17.4318587 20.4776883,17.7304645 20.2373333,17.9333333 C20.4776883,18.1362022 20.616257,18.4348079 20.616,18.7493333 L20.616,19.0906667 C20.7573333,18.9973333 20.904,18.8693333 21.0666667,18.7306667 C21.4343934,18.4134632 21.917138,18.2628469 22.4,18.3146667 C22.8615627,18.3701856 23.2790667,18.6156626 23.552,18.992 L23.5973333,19.0533333 Z M18.4,7.54133333 C17.68,7.97066667 17.216,8.704 17.0053333,9.72 L17.6186667,9.39466667 C17.7484294,9.33032337 17.9058266,9.38132336 17.9731954,9.50954141 C18.0405642,9.63775946 17.9932695,9.79630941 17.8666667,9.86666667 L17.1946667,10.232 C18.224,10.6373333 19.1333333,10.6453333 19.8986667,10.248 C20.9653333,9.70133333 21.5493333,8.47733333 21.7653333,7.44 C20.7706667,7.07733333 19.4213333,6.93333333 18.4,7.54133333 Z M10.4666667,10.832 C11.2266667,11.224 12.1226667,11.2213333 13.1253333,10.8293333 L12.4853333,10.4853333 C12.3560193,10.4158768 12.307152,10.2549724 12.376,10.1253333 C12.4093622,10.0625088 12.466442,10.0156174 12.5345478,9.99508547 C12.6026536,9.97455357 12.6761398,9.98208315 12.7386667,10.016 L13.3546667,10.3466667 C13.1493333,9.304 12.6853333,8.55733333 11.9653333,8.12533333 C10.944,7.51733333 9.59466667,7.66133333 8.6,8.024 C8.82933333,9.06133333 9.4,10.2986667 10.4666667,10.832 Z M12.152,3.77866667 C12.1533013,5.51515627 13.5489999,6.92867233 15.2853333,6.952 C15.3127696,6.94128997 15.3432304,6.94128997 15.3706667,6.952 C17.1215127,6.92996356 18.5248269,5.49613648 18.5092027,3.7452215 C18.4935785,1.99430653 17.0649004,0.585750614 15.3139399,0.594962394 C13.5629795,0.604174175 12.1492008,2.02768422 12.152,3.77866667 Z M20.0666667,18.7493333 C20.0655231,18.4561081 19.8342809,18.2154753 19.5413333,18.2026667 L17.7893333,18.2026667 C17.824,18.2666667 17.8533333,18.3306667 17.8826667,18.4 C17.904,18.4186667 17.8853333,18.4133333 17.904,18.4613333 C17.9226667,18.5093333 17.9333333,18.584 17.952,18.608 C17.9706667,18.632 17.96,18.6346667 17.9706667,18.6826667 C17.9813333,18.7306667 17.9973333,18.808 17.9973333,18.832 C17.9973333,18.856 17.9973333,18.8773333 17.9973333,18.9013333 C18.0013917,18.9750553 18.0013917,19.0489447 17.9973333,19.1226667 L17.9973333,19.768 L18.0746667,19.768 L18.4026667,19.768 L18.504,19.768 L18.7013333,19.768 L18.808,19.768 C18.8633444,19.7654402 18.9185251,19.7601001 18.9733333,19.752 L19.0773333,19.736 L19.2213333,19.7146667 L19.3226667,19.6906667 L19.4533333,19.6613333 L19.5493333,19.6346667 L19.6693333,19.5973333 L19.76,19.5626667 L19.8746667,19.5146667 L19.9653333,19.4746667 L20.0346667,19.44 C20.0562594,19.3792292 20.0670883,19.3151582 20.0666667,19.2506667 L20.0666667,18.7493333 Z M20.0666667,16.616 C20.0666667,16.3126116 19.8207218,16.0666667 19.5173333,16.0666667 L11.6613333,16.0666667 L11.7973333,16.1786667 L11.8293333,16.2053333 C11.9066667,16.272 11.976,16.3386667 12.04,16.4053333 L12.088,16.4533333 C12.1395556,16.5066667 12.1875556,16.56 12.232,16.6133333 C12.245866,16.6272153 12.2583678,16.642396 12.2693333,16.6586667 C12.3226667,16.72 12.3706667,16.7813333 12.4133333,16.84 C12.424,16.8506667 12.44,16.8746667 12.44,16.8746667 L12.5333333,17.008 L12.5626667,17.0773333 L12.6426667,17.2053333 L16.0506667,17.2053333 C16.112,17.2053333 16.176,17.2053333 16.2373333,17.2053333 L16.296,17.2053333 L16.4186667,17.224 L16.488,17.24 L16.5973333,17.2666667 L16.6666667,17.2906667 L16.768,17.328 L16.84,17.3573333 L16.9333333,17.4026667 L17.0026667,17.44 C17.0337942,17.4561919 17.0640574,17.4739938 17.0933333,17.4933333 L17.16,17.5386667 L17.2426667,17.6 L17.3013333,17.64 L17.3333333,17.6666667 L19.5173333,17.6666667 C19.8207218,17.6666667 20.0666667,17.4207218 20.0666667,17.1173333 L20.0666667,16.616 Z M10.6,14.4826667 L10.6,14.984 C10.6,15.2873884 10.8459449,15.5333333 11.1493333,15.5333333 L19.5173333,15.5333333 C19.8207218,15.5333333 20.0666667,15.2873884 20.0666667,14.984 L20.0666667,14.4826667 C20.0666667,14.1792782 19.8207218,13.9333333 19.5173333,13.9333333 L11.1493333,13.9333333 C10.8459449,13.9333333 10.6,14.1792782 10.6,14.4826667 Z M5.22933333,23.4 L5.22933333,14.912 L0.6,14.912 L0.6,23.4 L5.22933333,23.4 Z M23.0746667,20.8773333 C23.4692456,20.4657859 23.5108707,19.830158 23.1733333,19.3706667 L23.128,19.3093333 C22.9399083,19.047434 22.6487279,18.8785494 22.328,18.8453333 C21.9899584,18.8077316 21.651584,18.913111 21.3946667,19.136 C21.0779986,19.4175603 20.7320158,19.6643077 20.3626667,19.872 C20.2107264,19.9544863 20.052975,20.0257863 19.8906667,20.0853333 C19.3045671,20.2738842 18.6898609,20.3578309 18.0746667,20.3333333 L12,20.3333333 C11.8527241,20.3333333 11.7333333,20.2139426 11.7333333,20.0666667 C11.7333333,19.9193907 11.8527241,19.8 12,19.8 L17.464,19.8 L17.464,19.1226667 C17.4640007,18.7480721 17.3150113,18.3888588 17.0498829,18.1242307 C16.7847546,17.8596026 16.4252605,17.7112919 16.0506667,17.712 L12.488,17.712 C12.3875845,17.7116957 12.2958534,17.6550079 12.2506667,17.5653333 C11.9056236,16.930716 11.3637663,16.4253568 10.7066667,16.1253333 C10.4393173,16.0193146 10.1542698,15.9650198 9.86666667,15.9653333 L5.76266667,15.965332 L5.76266667,20.8 C7.56225235,21.8648882 9.61561854,22.4249809 11.7066667,22.4213333 L19.376,22.4213333 C21.0186667,22.4213333 21.9173333,22.0453333 23.0746667,20.8773333 Z" id="Combined-Shape"></path>
            </g>
        </g>
    </g>
</svg>