<?xml version="1.0" encoding="UTF-8"?>
<svg width="29px" height="29px" viewBox="0 0 29 29" version="1.1" xmlns="http://www.w3.org/2000/svg" xmlns:xlink="http://www.w3.org/1999/xlink">
    <!-- Generator: Sketch 54.1 (76490) - https://sketchapp.com -->
    <title>noun_timer_1550036_000000</title>
    <desc>Created with Sketch.</desc>
    <g id="Homepage" stroke="none" stroke-width="1" fill="none" fill-rule="evenodd">
        <g id="Referral_sm-Copy-3" transform="translate(-18.000000, -320.000000)" fill="#FFFFFF" fill-rule="nonzero">
            <g id="noun_timer_1550036_000000" transform="translate(18.000000, 320.000000)">
                <path d="M19.1800907,17.0073846 L20.9128667,17.0073846 C21.2373444,17.0073846 21.5028556,17.269978 21.5028556,17.5908901 C21.5028556,17.9118022 21.2373444,18.1743956 20.9128667,18.1743956 L19.181158,18.1743956 C18.9460511,18.7665076 18.3629295,19.1855714 17.6809778,19.1855714 C16.791,19.1855714 16.0698667,18.4723626 16.0698667,17.5921648 C16.0698667,16.9181912 16.4929787,16.3418214 17.0909889,16.1089713 L17.0909889,12.4234725 C17.0909889,12.1025604 17.3565,11.839967 17.6809778,11.839967 C18.0054556,11.839967 18.2709667,12.1025604 18.2709667,12.4234725 L18.2709667,16.109023 C18.6857037,16.2705686 19.016404,16.5973775 19.1800907,17.0073846 Z M18.3039603,17.428728 C18.2308276,17.1561788 17.9792831,16.9548022 17.6809778,16.9548022 C17.3255667,16.9548022 17.0365333,17.2406593 17.0365333,17.5921648 C17.0365333,17.9436703 17.3255667,18.2295275 17.6809778,18.2295275 C17.9797716,18.2295275 18.2316513,18.0274907 18.3043182,17.7542621 C18.288907,17.7023711 18.2806333,17.6475393 18.2806333,17.5908901 C18.2806333,17.534681 18.2887789,17.4802611 18.3039603,17.428728 Z M17.6809778,7.39563736 C11.9960111,7.39563736 7.37115556,11.969989 7.37115556,17.5921648 C7.37115556,23.2143407 11.9960111,27.7886923 17.6809778,27.7886923 C23.3656222,27.7886923 27.9908,23.2146593 27.9908,17.5921648 C27.9908,11.969989 23.3659444,7.39563736 17.6809778,7.39563736 Z M17.6809778,6.43831868 C23.9095333,6.43831868 28.9587556,11.4323736 28.9587556,17.5921648 C28.9587556,23.7522747 23.9095333,28.746011 17.6809778,28.746011 C11.4524222,28.746011 6.4032,23.7522747 6.4032,17.5921648 C6.4032,11.4320549 11.4524222,6.43831868 17.6809778,6.43831868 Z M17.6809778,10.9075055 C13.9541556,10.9075055 10.9220444,13.9062967 10.9220444,17.5921648 C10.9220444,21.278033 13.9541556,24.2768242 17.6809778,24.2768242 C21.4078,24.2768242 24.4399111,21.278033 24.4399111,17.5921648 C24.4399111,13.9062967 21.4078,10.9075055 17.6809778,10.9075055 Z M17.6809778,9.94381319 C21.9520333,9.94381319 25.4143111,13.3683626 25.4143111,17.5921648 C25.4143111,21.8162857 21.9520333,25.2405165 17.6809778,25.2405165 C13.4099222,25.2405165 9.94764444,21.8162857 9.94764444,17.5921648 C9.94764444,13.368044 13.4099222,9.94381319 17.6809778,9.94381319 Z M20.3212667,4.2151978 L15.0406889,4.2151978 L15.0406889,4.70278022 L20.3212667,4.70278022 L20.3212667,4.2151978 Z M20.3799111,3.20115385 C20.9115778,3.20115385 21.3465778,3.63137363 21.3462556,4.1571978 L21.3462556,4.76078022 C21.3462556,5.2866044 20.9112556,5.71682418 20.3795889,5.71682418 L14.9820444,5.71682418 C14.4503778,5.71682418 14.0153778,5.2866044 14.0153778,4.76078022 L14.0153778,4.1571978 C14.0153778,3.63137363 14.4503778,3.20115385 14.9820444,3.20115385 L20.3799111,3.20115385 Z M18.5471111,0.965604396 L16.8151667,0.965604396 L16.8151667,1.56918681 L18.5471111,1.56918681 L18.5471111,0.965604396 Z M18.5471111,0.00956043956 C19.0787778,0.00956043956 19.5137778,0.43978022 19.5137778,0.965604396 L19.5137778,1.56918681 C19.5137778,2.09501099 19.0787778,2.52523077 18.5471111,2.52523077 L16.8151667,2.52523077 C16.2835,2.52523077 15.8485,2.09501099 15.8485,1.56918681 L15.8485,0.965604396 C15.8485,0.43978022 16.2835,0.00956043956 16.8151667,0.00956043956 L18.5471111,0.00956043956 Z M3.422,10.1174945 L3.422,10.0872198 C3.422,9.83259341 3.63273333,9.62449451 3.88986667,9.62449451 L7.78714444,9.62449451 C8.0446,9.62449451 8.25501111,9.83259341 8.25501111,10.0872198 L8.25501111,10.1174945 C8.25501111,10.3721209 8.04427778,10.5802198 7.78714444,10.5802198 L3.89018889,10.5802198 C3.63273333,10.5802198 3.422,10.3721209 3.422,10.1174945 Z M2.12473333,10.1624286 L2.12473333,10.041967 C2.12473333,9.8121978 2.31484444,9.62417582 2.54716667,9.62417582 L2.66896667,9.62417582 C2.90128889,9.62417582 3.0914,9.8121978 3.0914,10.041967 L3.0914,10.1624286 C3.0914,10.3921978 2.90128889,10.5802198 2.66896667,10.5802198 L2.54716667,10.5802198 C2.31484444,10.5802198 2.12473333,10.3925165 2.12473333,10.1624286 Z M1.46868889,13.8256703 C1.46868889,13.5627582 1.68618889,13.3476484 1.95202222,13.3476484 L5.81868889,13.3476484 C6.08452222,13.3476484 6.30202222,13.5627582 6.30202222,13.8256703 C6.30202222,14.0885824 6.08452222,14.3036923 5.81868889,14.3036923 L1.95202222,14.3036923 C1.68618889,14.3036923 1.46868889,14.0885824 1.46868889,13.8256703 Z M0.0602555556,13.8712418 L0.0602555556,13.7804176 C0.0602555556,13.5414066 0.256166667,13.3476484 0.497833333,13.3476484 L0.589666667,13.3476484 C0.831333333,13.3476484 1.02724444,13.5414066 1.02724444,13.7804176 L1.02724444,13.8712418 C1.02724444,14.1102527 0.831333333,14.304011 0.589666667,14.304011 L0.497833333,14.304011 C0.256166667,14.3036923 0.0602555556,14.1099341 0.0602555556,13.8712418 Z M1.35558889,17.5963077 L1.35558889,17.501978 C1.35558889,17.2648791 1.5515,17.0711209 1.79123333,17.0711209 L5.10883333,17.0711209 C5.34856667,17.0711209 5.54447778,17.2648791 5.54447778,17.501978 L5.54447778,17.5963077 C5.54447778,17.8334066 5.34856667,18.0271648 5.10883333,18.0271648 L1.79155556,18.0271648 C1.55182222,18.0271648 1.35558889,17.8330879 1.35558889,17.5963077 Z M0.0576777778,17.603 L0.0576777778,17.4952857 C0.0576777778,17.262011 0.250688889,17.0711209 0.486555556,17.0711209 L0.595466667,17.0711209 C0.831333333,17.0711209 1.02434444,17.262011 1.02434444,17.4952857 L1.02434444,17.603 C1.02434444,17.8362747 0.831333333,18.0271648 0.595466667,18.0271648 L0.486555556,18.0271648 C0.250688889,18.0271648 0.0576777778,17.8362747 0.0576777778,17.603 Z M1.46868889,21.2726154 C1.46868889,21.0097033 1.68618889,20.7945934 1.95202222,20.7945934 L5.81868889,20.7945934 C6.08452222,20.7945934 6.30202222,21.0097033 6.30202222,21.2726154 C6.30202222,21.5355275 6.08452222,21.7506374 5.81868889,21.7506374 L1.95202222,21.7506374 C1.68618889,21.7506374 1.46868889,21.5355275 1.46868889,21.2726154 Z M0.0602555556,21.3178681 L0.0602555556,21.227044 C0.0602555556,20.988033 0.256166667,20.7942747 0.497833333,20.7942747 L0.589666667,20.7942747 C0.831333333,20.7942747 1.02724444,20.988033 1.02724444,21.227044 L1.02724444,21.3178681 C1.02724444,21.5568791 0.831333333,21.7506374 0.589666667,21.7506374 L0.497833333,21.7506374 C0.256166667,21.7506374 0.0602555556,21.5568791 0.0602555556,21.3178681 Z M3.24187778,25.0110659 L3.24187778,24.9807912 C3.24187778,24.7261648 3.45261111,24.5180659 3.70974444,24.5180659 L7.60702222,24.5180659 C7.86447778,24.5180659 8.07488889,24.7261648 8.07488889,24.9807912 L8.07488889,25.0110659 C8.07488889,25.2656923 7.86415556,25.4737912 7.60702222,25.4737912 L3.71006667,25.4737912 C3.45261111,25.4737912 3.24187778,25.2656923 3.24187778,25.0110659 Z M1.94461111,25.056 L1.94461111,24.9355385 C1.94461111,24.7057692 2.13472222,24.5177473 2.36704444,24.5177473 L2.48884444,24.5177473 C2.72116667,24.5177473 2.91127778,24.7057692 2.91127778,24.9355385 L2.91127778,25.056 C2.91127778,25.2857692 2.72116667,25.4737912 2.48884444,25.4737912 L2.36704444,25.4737912 C2.13472222,25.4737912 1.94461111,25.2857692 1.94461111,25.056 Z" id="Combined-Shape"></path>
            </g>
        </g>
    </g>
</svg>