<?xml version="1.0" encoding="UTF-8"?>
<svg width="28px" height="18px" viewBox="0 0 28 18" version="1.1" xmlns="http://www.w3.org/2000/svg" xmlns:xlink="http://www.w3.org/1999/xlink">
    <!-- Generator: Sketch 54.1 (76490) - https://sketchapp.com -->
    <title>noun_Money_2429100_000000</title>
    <desc>Created with Sketch.</desc>
    <g id="Homepage" stroke="none" stroke-width="1" fill="none" fill-rule="evenodd">
        <g id="Referral_sm-Copy-3" transform="translate(-20.000000, -198.000000)" fill="#FFFFFF" fill-rule="nonzero">
            <g id="noun_Money_2429100_000000" transform="translate(20.000000, 198.000000)">
                <path d="M27.5,-1.0658141e-13 C27.77635,-1.0658141e-13 28,0.2239 28,0.5 L28,14.71995 C28,14.99605 27.77635,15.21995 27.5,15.21995 L25.5,15.21995 L25.5,17.49315 C25.5,17.76925 25.27635,17.99315 25,17.99315 L0.5,17.99315 C0.22365,17.99315 0,17.76925 0,17.49315 L0,2.77075 C0,2.49465 0.22365,2.27075 0.5,2.27075 L3,2.27075 L3,0.5 C3,0.2239 3.22365,-1.0658141e-13 3.5,-1.0658141e-13 L27.5,-1.0658141e-13 Z M24.5,16.99315 L24.5,14.72 L24.5,3.28005 L3.5,3.28005 C3.4837,3.28005 3.46995,3.2723 3.45405,3.27075 L1,3.27075 L1,16.99315 L24.5,16.99315 Z M27,14.21995 L27,1 L4,1 L4,2.27075 L25,2.27075 C25.27635,2.27075 25.5,2.49465 25.5,2.77075 L25.5,2.78005 L25.5,14.21995 L27,14.21995 Z M23.22215,6.71535 C23.49855,6.71535 23.72215,6.9392 23.7222,7.21535 L23.7222,13.0486 C23.7222,13.3247 23.49855,13.5486 23.2222,13.5486 C22.0274,13.5486 21.0557,14.52055 21.0557,15.71535 C21.0557,15.99145 20.83205,16.21535 20.5557,16.21535 L4.94435,16.21535 C4.668,16.21535 4.44435,15.99145 4.44435,15.71535 C4.44435,14.5205 3.47265,13.5486 2.27785,13.5486 C2.0015,13.5486 1.77785,13.3247 1.77785,13.0486 L1.77785,7.21535 C1.77785,6.93925 2.0015,6.71535 2.27785,6.71535 C3.47265,6.71535 4.44435,5.7434 4.44435,4.5486 C4.44435,4.2725 4.668,4.0486 4.94435,4.0486 L20.55565,4.0486 C20.832,4.0486 21.05565,4.2725 21.05565,4.5486 C21.05565,5.74345 22.02735,6.71535 23.22215,6.71535 Z M22.72215,12.58815 L22.7222,12.58815 L22.7222,7.6758 C21.376,7.46145 20.3096,6.39505 20.09525,5.0486 L5.4048,5.0486 C5.19045,6.39505 4.12405,7.46145 2.77785,7.6758 L2.77785,12.58815 C4.12405,12.8025 5.19045,13.8689 5.4048,15.21535 L20.0952,15.21535 C20.30955,13.8689 21.37595,12.8025 22.72215,12.58815 Z M12.5,5.63185 C14.98145,5.63185 17,7.65065 17,10.13185 C17,12.61305 14.98145,14.63185 12.5,14.63185 C10.01855,14.63185 8,12.61305 8,10.13185 C8,7.65065 10.01855,5.63185 12.5,5.63185 Z M12.5,13.63185 C14.4297,13.63185 16,12.0618 16,10.13185 C16,8.2019 14.4297,6.63185 12.5,6.63185 C10.5703,6.63185 9,8.2019 9,10.13185 C9,12.0618 10.5703,13.63185 12.5,13.63185 Z M12.0835,8.88185 C11.8994,8.88185 11.75,9.05005 11.75,9.25685 C11.75,9.46365 11.8994,9.63185 12.0835,9.63185 L12.9165,9.63185 C13.65185,9.63185 14.25,10.24855 14.25,11.00685 C14.25,11.73565 13.69585,12.32775 13,12.37315 L13,12.7986 C13,13.0747 12.77635,13.2986 12.5,13.2986 C12.22365,13.2986 12,13.0747 12,12.7986 L12,12.38185 L11.25,12.38185 C10.97365,12.38185 10.75,12.15795 10.75,11.88185 C10.75,11.60575 10.97365,11.38185 11.25,11.38185 L12.9165,11.38185 C13.1006,11.38185 13.25,11.21365 13.25,11.00685 C13.25,10.80005 13.1006,10.63185 12.9165,10.63185 L12.0835,10.63185 C11.34815,10.63185 10.75,10.01515 10.75,9.25685 C10.75,8.52805 11.30415,7.93595 12,7.89055 L12,7.46535 C12,7.18925 12.22365,6.96535 12.5,6.96535 C12.77635,6.96535 13,7.18925 13,7.46535 L13,7.88185 L13.75,7.88185 C14.02635,7.88185 14.25,8.10575 14.25,8.38185 C14.25,8.65795 14.02635,8.88185 13.75,8.88185 L12.0835,8.88185 Z" id="Combined-Shape"></path>
            </g>
        </g>
    </g>
</svg>