<?xml version="1.0" encoding="UTF-8"?>
<svg width="346px" height="459px" viewBox="0 0 346 459" version="1.1" xmlns="http://www.w3.org/2000/svg" xmlns:xlink="http://www.w3.org/1999/xlink">
    <!-- Generator: Sketch 55.2 (78181) - https://sketchapp.com -->
    <title>Image9</title>
    <desc>Created with Sketch.</desc>
    <g id="Homepage" stroke="none" stroke-width="1" fill="none" fill-rule="evenodd">
        <g id="Homepage@2x-Copy-16" transform="translate(-315.000000, -5709.000000)">
            <g id="Image9" transform="translate(315.000000, 5709.000000)">
                <rect id="Rectangle-Copy-7" fill="#FFECD3" x="0" y="450" width="223" height="9" rx="4.5"></rect>
                <path d="M95.5,431 L165.5,431 C167.985281,431 170,433.014719 170,435.5 C170,437.985281 167.985281,440 165.5,440 L95.5,440 C93.0147186,440 91,437.985281 91,435.5 C91,433.014719 93.0147186,431 95.5,431 Z" id="Rectangle-Copy-8" fill="#FFECD3"></path>
                <g id="Group-21" transform="translate(52.000000, 0.000000)">
                    <g id="Group-2" transform="translate(128.000000, 140.530726)">
                        <polyline id="Fill-458" fill="#FFECD3" points="21.522783 150.927995 110.673203 150.927995 110.673203 98.1040562 21.522783 111.40643 21.522783 150.927995"></polyline>
                        <polyline id="Fill-459" fill="#E0A457" points="20.2332758 289.450453 34.1496091 275.154754 45.9043337 275.154754 45.9043337 289.450453 20.2332758 289.450453"></polyline>
                        <polyline id="Fill-460" fill="#E0A457" points="96.7845366 289.450453 87.7784352 275.154754 76.0225077 275.154754 76.0225077 289.450453 96.7845366 289.450453"></polyline>
                        <polyline id="Fill-461" fill="#F6D7AD" points="103.668725 150.66495 103.668725 278.941877 67.6082323 278.941877 67.6082323 176.613889 62.9121164 176.613889 56.299783 278.941877 20.2332758 278.941877 28.5248555 150.66495 103.668725 150.66495"></polyline>
                        <path d="M103.668725,150.66495 L103.294624,150.66495 L103.294624,278.56833 L67.9823337,278.569531 L67.9823337,176.613889 L67.87287,176.349643 L67.6082323,176.240341 L62.9121164,176.240341 C62.714841,176.240341 62.5512468,176.392883 62.5392178,176.589866 L55.9485366,278.569531 L20.6314352,278.569531 L28.874899,151.038497 L103.668725,151.038497 L103.668725,150.66495 L103.294624,150.66495 L103.668725,150.66495 L103.668725,150.291403 L28.5248555,150.291403 C28.3275801,150.291403 28.1639859,150.443944 28.1519569,150.640928 L19.8591743,278.917855 L19.9602178,279.197715 L20.2332758,279.315425 L56.299783,279.315425 C56.4970584,279.315425 56.6594497,279.162883 56.6726816,278.9659 L63.2621598,176.987436 L67.2341308,176.987436 L67.2341308,278.941877 L67.3435946,279.206123 L67.6082323,279.315425 L103.668725,279.315425 L103.933363,279.206123 L104.042826,278.941877 L104.042826,150.66495 L103.933363,150.400704 L103.668725,150.291403 L103.668725,150.66495" id="Fill-462" fill="#E0A457"></path>
                        <path d="M120.850928,87.2687768 C120.850928,57.610788 98.1041164,44.382883 68.4105656,43.6754249 C67.8043048,43.6610115 67.1896236,43.6538048 66.5689279,43.6538048 C21.8992903,43.6538048 7.80733374,76.0755645 5.69023229,81.670369 C0.978478671,94.1271567 -12.282275,133.189894 30.43987,151.257101 C43.2964497,156.693358 52.4745656,143.508693 59.3407106,139.981011 C71.3047395,133.834894 75.6171308,132.296263 75.6171308,132.296263 L120.850928,87.2687768" id="Fill-463" fill="#FFECD3"></path>
                        <path d="M101.062044,102.044922 C101.062044,102.044922 105.83274,123.7359 132.470928,119.052743 C159.109116,114.369587 151.319145,73.4667377 151.319145,73.4667377 L130.711087,73.4667377 L129.95687,92.287045 C129.95687,92.287045 119.026131,63.9935254 105.335942,54.2993076 C96.9842178,48.386207 101.062044,102.044922 101.062044,102.044922" id="Fill-464" fill="#FFECD3"></path>
                        <path d="M109.98274,93.5422126 L109.98274,116.055956 C109.98274,116.262548 110.149942,116.429503 110.356841,116.429503 C110.562537,116.429503 110.72974,116.262548 110.72974,116.055956 L110.72974,93.5422126 C110.72974,93.3356204 110.562537,93.1686651 110.356841,93.1686651 C110.149942,93.1686651 109.98274,93.3356204 109.98274,93.5422126" id="Fill-465" fill="#E0A457"></path>
                        <polyline id="Fill-466" fill="#FFFFFF" points="48.6216816 146.416598 56.1205511 153.950006 62.157899 161.079838 59.619783 163.619 61.8499569 166.549727 49.3337975 176.258358 33.0682033 156.741403 48.6216816 146.416598"></polyline>
                        <path d="M48.6216816,146.416598 L48.3570439,146.680844 L55.8438845,154.202241 L61.6502758,161.058218 L59.3551453,163.354754 C59.2228265,163.486877 59.2083917,163.695872 59.3214642,163.84481 L61.327899,166.481263 L49.3891308,175.741877 L33.6215366,156.821877 L48.8285801,146.727687 L48.6216816,146.416598 L48.3570439,146.680844 L48.6216816,146.416598 L48.414783,146.10671 L32.8601019,156.430313 L32.6977106,156.687352 L32.7807106,156.980425 L49.0463048,176.49738 C49.1750149,176.652324 49.4035656,176.677548 49.5635511,176.553833 L62.0797106,166.845201 C62.2421019,166.719084 62.2721743,166.487268 62.1482758,166.323916 L60.1141743,163.652632 L62.4225366,161.342883 C62.5596671,161.205956 62.5692903,160.986151 62.4429859,160.838414 L56.4056381,153.708581 L56.3851888,153.686961 L48.8875221,146.153553 C48.7612178,146.027436 48.5627395,146.007017 48.414783,146.10671 L48.6216816,146.416598" id="Fill-467" fill="#E0A457"></path>
                        <path d="M59.5295656,168.178442 L54.1465946,162.053944 C54.0106671,161.899 53.7736961,161.883386 53.619725,162.019112 C53.4633482,162.156039 53.4489135,162.391458 53.584841,162.546403 L58.9666091,168.6709 C59.1037395,168.825844 59.3395077,168.841458 59.4946816,168.704531 C59.6498555,168.568805 59.6654932,168.333386 59.5295656,168.178442" id="Fill-468" fill="#E0A457"></path>
                        <path d="M56.0014642,170.590285 L50.6196961,164.465788 C50.4825656,164.310844 50.2467975,164.295229 50.0916236,164.430956 C49.9364497,164.566682 49.920812,164.803302 50.0567395,164.958246 L55.4397106,171.083944 C55.5756381,171.238889 55.8126091,171.253302 55.9665801,171.117576 C56.1229569,170.981849 56.1385946,170.74643 56.0014642,170.590285" id="Fill-469" fill="#E0A457"></path>
                        <path d="M52.6850729,173.241151 L47.3045077,167.115453 C47.1685801,166.960509 46.9316091,166.944894 46.7764352,167.08062 C46.6212613,167.217548 46.6056236,167.452967 46.7415511,167.607911 L52.1233193,173.733609 C52.2592468,173.888553 52.4962178,173.904168 52.6513917,173.767241 C52.8065656,173.631514 52.8222033,173.396095 52.6850729,173.241151" id="Fill-470" fill="#E0A457"></path>
                        <path d="M59.9722323,163.501291 L56.0026671,158.922632 C55.8679424,158.766486 55.6321743,158.749671 55.4757975,158.885397 C55.3194207,159.019922 55.3025801,159.255341 55.4385077,159.411486 L59.40687,163.990146 C59.5427975,164.146291 59.7785656,164.163106 59.9349424,164.02738 C60.0913193,163.892855 60.1081598,163.657436 59.9722323,163.501291" id="Fill-471" fill="#E0A457"></path>
                        <path d="M28.5561308,94.6712629 C17.2464787,118.760872 51.9043917,145.297157 51.9043917,145.297157 L31.1664207,160.730313 C31.1664207,160.730313 3.30127577,137.187213 1.8710294,121.255592" id="Fill-472" fill="#FFECD3"></path>
                        <path d="M64.066899,30.4583299 C64.066899,30.4583299 50.869899,33.8743076 50.0807975,17.8465981 C49.2916961,1.81888856 75.0541743,-3.95488239 81.1191888,2.74134666 C87.1830004,9.43877683 64.066899,30.4583299 64.066899,30.4583299" id="Fill-473" fill="#E0A457"></path>
                        <path d="M65.3034787,52.3571008 L65.3034787,52.3571008 C69.8011164,52.3571008 73.445899,48.7177154 73.445899,44.2267377 L73.445899,17.8033578 L57.1622613,17.8033578 L57.1622613,44.2267377 C57.1622613,48.7177154 60.8070439,52.3571008 65.3034787,52.3571008" id="Fill-474" fill="#FFFFFF"></path>
                        <path d="M65.3034787,52.3571008 L65.3034787,52.7306483 C70.006812,52.7306483 73.8200004,48.9231064 73.8200004,44.2267377 L73.8200004,17.8033578 L73.7105366,17.539112 L73.445899,17.4298103 L57.1622613,17.4298103 L56.8976236,17.539112 L56.7881598,17.8033578 L56.7881598,44.2267377 C56.7881598,48.9231064 60.6001453,52.7306483 65.3034787,52.7306483 L65.3034787,51.9835534 C63.1575077,51.9835534 61.2184352,51.1163467 59.8110439,49.7122405 C58.4048555,48.3069333 57.5363627,46.369531 57.5363627,44.2267377 L57.5363627,18.1769053 L73.0717975,18.1769053 L73.0717975,44.2267377 C73.0717975,46.369531 72.2033048,48.3069333 70.7971164,49.7122405 C69.389725,51.1163467 67.4506526,51.9835534 65.3034787,51.9835534 L65.3034787,52.3571008" id="Fill-475" fill="#E0A457"></path>
                        <path d="M51.4412758,19.125788 C51.2415946,21.6121008 53.09887,23.7909277 55.5876671,23.9903131 C55.9737975,24.0215422 56.3551164,24.0035254 56.7183917,23.9350617 C56.8952178,25.5926036 57.41487,27.1588606 58.2075801,28.5569612 C60.1129714,31.9140841 63.5989714,34.298302 67.7429569,34.6310115 C74.3853627,35.1631064 80.1977685,30.2205087 80.7318555,23.5879388 C81.2635366,16.9541679 76.314812,11.150369 69.6712033,10.618274 C65.168754,10.2579388 61.0440149,12.4103411 58.6995656,15.9079947 C58.0331598,15.389112 57.2139859,15.0576036 56.311812,14.9855366 C53.8230149,14.7861511 51.639754,16.6418774 51.4412758,19.125788" id="Fill-476" fill="#FFFFFF"></path>
                        <path d="M51.4412758,19.125788 L51.0683772,19.0957601 C51.0575511,19.2290841 51.0527395,19.361207 51.0527395,19.4921288 C51.0527395,22.0156763 52.9954207,24.1560673 55.5575946,24.3626595 C55.6899135,24.3722684 55.8222323,24.378274 55.9533482,24.378274 C56.2348265,24.378274 56.5151019,24.3530506 56.7869569,24.3026036 L56.7183917,23.9350617 L56.3454932,23.9746986 C56.5295366,25.6838886 57.0648265,27.2993914 57.8827975,28.7407321 C59.8459279,32.2011511 63.4413917,34.6610394 67.7128845,35.0033578 C68.050899,35.0297824 68.3877106,35.0429947 68.7209135,35.0429947 C75.140783,35.0429947 80.5802903,30.1184137 81.1035511,23.6179668 C81.1312178,23.2792517 81.1444497,22.94414 81.1444497,22.6114305 C81.1444497,16.1998662 76.2113627,10.7684137 69.7012758,10.2459277 C69.3620584,10.218302 69.0252468,10.2050897 68.6920439,10.2050897 C64.4470149,10.2062908 60.6290149,12.3562908 58.3892178,15.7002014 L58.6995656,15.9079947 L58.9293193,15.613721 C58.2075801,15.0503969 57.3162323,14.6912629 56.3418845,14.6131902 C56.2083627,14.6023802 56.0760439,14.5975757 55.9449279,14.5975757 C53.4164352,14.5975757 51.27287,16.5385813 51.0683772,19.0969612 L51.0683772,19.0957601 L51.4412758,19.125788 L51.8141743,19.1558159 C51.9849859,16.9902014 53.8049714,15.3434696 55.9449279,15.3434696 C56.0567975,15.3434696 56.1686671,15.348274 56.2817395,15.357883 C57.1105366,15.4239444 57.8599424,15.7278271 58.469812,16.2022684 L58.7597106,16.2767377 L59.0099135,16.115788 C61.1161888,12.9736651 64.7032323,10.9521846 68.6920439,10.9521846 C69.0060004,10.9521846 69.3223627,10.9653969 69.6411308,10.9906204 C75.7602758,11.4794751 80.3962468,16.5878271 80.3962468,22.6114305 C80.3962468,22.9249221 80.3842178,23.2408159 80.3589569,23.5579109 C79.8669714,29.6679947 74.7522468,34.2958997 68.7209135,34.2958997 C68.4069569,34.2958997 68.0905946,34.2838886 67.7718265,34.2586651 C63.7565511,33.9367657 60.3800149,31.627017 58.5323627,28.3719891 C57.7649135,27.0183299 57.2621019,25.5001176 57.0900874,23.8954249 L56.9409279,23.6359835 L56.6486236,23.568721 C56.4248845,23.6107601 56.1915221,23.6311791 55.9533482,23.6311791 C55.8414787,23.6311791 55.7296091,23.6263746 55.6177395,23.6179668 C53.4465077,23.4450059 51.7997395,21.6277154 51.7997395,19.4921288 C51.7997395,19.381626 51.8045511,19.2699221 51.8141743,19.157017 L51.8141743,19.1558159 L51.4412758,19.125788" id="Fill-477" fill="#E0A457"></path>
                        <path d="M160.885798,135.075648 L123.645261,135.075648 C121.424711,135.075648 119.625174,133.277576 119.625174,131.059112 L119.625174,76.3806483 C119.625174,74.1633858 121.424711,72.3653131 123.645261,72.3653131 L160.885798,72.3653131 C163.107551,72.3653131 164.907087,74.1633858 164.907087,76.3806483 L164.907087,131.059112 C164.907087,133.277576 163.107551,135.075648 160.885798,135.075648" id="Fill-478" fill="#FFFFFF"></path>
                        <path d="M160.885798,135.075648 L160.885798,134.705704 L123.645261,134.705704 C121.629203,134.702101 119.998073,133.073386 119.994464,131.059112 L119.994464,76.3806483 C119.998073,74.3675757 121.629203,72.7388606 123.645261,72.7352573 L160.885798,72.7352573 C162.903058,72.7388606 164.532986,74.3675757 164.536595,76.3806483 L164.536595,131.059112 C164.532986,133.073386 162.903058,134.702101 160.885798,134.705704 L160.885798,135.444391 C163.312044,135.444391 165.27758,133.481766 165.27758,131.059112 L165.27758,76.3806483 C165.27758,73.9591958 163.312044,71.995369 160.885798,71.995369 L123.645261,71.995369 C121.220218,71.995369 119.254682,73.9591958 119.254682,76.3806483 L119.254682,131.059112 C119.254682,133.481766 121.220218,135.444391 123.645261,135.444391 L160.885798,135.444391 L160.885798,135.075648" id="Fill-479" fill="#E0A457"></path>
                        <path d="M58.5251453,21.3718774 L58.2244207,21.4055087 L58.5275511,21.4055087 L58.5251453,21.3718774 L58.2244207,21.4055087 L58.5275511,21.4055087 C58.5251453,21.3034137 58.5203337,20.7196707 58.2196091,20.108302 C58.0680439,19.8044193 57.8334787,19.4909277 57.4834352,19.2567098 C57.1333917,19.0212908 56.6714787,18.8759556 56.1073193,18.8771493 L55.9064352,18.8819612 C55.7007395,18.8939724 55.5431598,19.0705366 55.5551888,19.2771288 C55.5672178,19.4825198 55.7440439,19.6398662 55.9509424,19.627855 L56.1073193,19.6230506 C56.548783,19.6242517 56.845899,19.72995 57.0672323,19.8776874 C57.3980294,20.0962908 57.58087,20.4422126 57.6783048,20.7689165 C57.7745366,21.0908159 57.7793482,21.3754807 57.7793482,21.4055087 L57.781754,21.4535534 C57.8046091,21.6589444 57.9886526,21.8066819 58.1943482,21.7838606 C58.4000439,21.7622405 58.5480004,21.5772684 58.5251453,21.3718774" id="Fill-480" fill="#E0A457"></path>
                        <polyline id="Fill-481" fill="#FFFFFF" points="133.955305 64.592883 134.091232 77.2298383 149.932203 77.1469612 150.259392 64.7129947 133.955305 64.592883"></polyline>
                        <path d="M133.955305,64.592883 L133.581203,64.5964863 L133.717131,77.2334416 C133.719537,77.4388327 133.887942,77.6045869 134.092435,77.6033923 L149.933406,77.5193076 C150.135493,77.5193076 150.30029,77.3583578 150.305102,77.1565701 L150.633493,64.7226036 L150.528841,64.4535534 L150.263,64.3394472 L133.957711,64.2193355 L133.690667,64.3286372 L133.581203,64.5964863 L133.955305,64.592883 L133.951696,64.9664305 L149.875667,65.0829388 L149.567725,76.7746148 L134.460522,76.8538886 L134.329406,64.5892796 L133.955305,64.592883 L133.951696,64.9664305 L133.955305,64.592883" id="Fill-482" fill="#E0A457"></path>
                        <path d="M137.66745,77.0172405 L137.877957,68.8712629 C137.883971,68.6658718 137.72158,68.494112 137.514682,68.4881064 C137.307783,68.483302 137.135769,68.6454528 137.130957,68.852045 L136.919247,76.9980226 C136.914435,77.2034137 137.076826,77.3751735 137.283725,77.3811791 C137.490624,77.3859835 137.661435,77.2238327 137.66745,77.0172405" id="Fill-483" fill="#E0A457"></path>
                        <path d="M141.923305,76.6172684 L142.135015,68.4724919 C142.141029,68.2658997 141.978638,68.09414 141.77174,68.0893355 C141.564841,68.0833299 141.394029,68.2466819 141.388015,68.453274 L141.175102,76.5980506 C141.17029,76.8034416 141.332682,76.9752014 141.53958,76.981207 C141.746479,76.9860115 141.91729,76.8238606 141.923305,76.6172684" id="Fill-484" fill="#E0A457"></path>
                        <path d="M146.169537,76.5355925 L146.381247,68.3908159 C146.386058,68.1842238 146.223667,68.012464 146.016769,68.0076595 C145.80987,68.002855 145.639058,68.1650059 145.633044,68.3715981 L145.422537,76.5163746 C145.416522,76.7229668 145.580116,76.8935254 145.785812,76.899531 C145.992711,76.9043355 146.164725,76.7421846 146.169537,76.5355925" id="Fill-485" fill="#E0A457"></path>
                        <path d="M28.2169135,94.5127154 C26.6062323,97.9419053 25.9121598,101.427548 25.9133612,104.872352 C25.9205801,115.434978 32.383754,125.592827 38.810841,133.131039 C45.2427395,140.666849 51.663812,145.583023 51.6770439,145.593833 C51.8406381,145.718749 52.0752033,145.68752 52.2003048,145.524168 C52.3266091,145.360816 52.2953337,145.126598 52.1317395,145.000481 C52.1305366,144.99928 51.7383917,144.699 51.0407106,144.126067 C48.6024352,142.117799 42.4917106,136.798051 37.0016816,129.728274 C31.5080439,122.657296 26.656754,113.839894 26.6603627,104.872352 C26.6615656,101.527241 27.3315801,98.1581064 28.8941453,94.8298103 C28.9819569,94.6436372 28.9013627,94.4214305 28.7137106,94.3337489 C28.5272613,94.2460673 28.304725,94.3265422 28.2169135,94.5127154" id="Fill-486" fill="#E0A457"></path>
                        <polygon id="Fill-487" fill="#FFFFFF" points="119.625174 126.455229 164.907087 126.455229 164.907087 79.5684137 119.625174 79.5684137"></polygon>
                        <polyline id="Fill-488" fill="#E0A457" points="164.907087 126.455229 164.907087 126.085285 119.994464 126.085285 119.994464 79.9383578 164.536595 79.9383578 164.536595 126.455229 164.907087 126.455229 164.907087 126.085285 164.907087 126.455229 165.27758 126.455229 165.27758 79.5684137 165.169319 79.3077712 164.907087 79.1984696 119.625174 79.1984696 119.362942 79.3065701 119.254682 79.5684137 119.254682 126.455229 119.362942 126.717073 119.625174 126.825173 164.907087 126.825173 165.169319 126.717073 165.27758 126.455229 164.907087 126.455229"></polyline>
                        <path d="M139.592087,131.063916 L144.940174,131.063916 C145.143464,131.063916 145.309464,130.898162 145.309464,130.693972 C145.309464,130.489782 145.143464,130.324028 144.940174,130.324028 L139.592087,130.324028 C139.387595,130.324028 139.221595,130.489782 139.221595,130.693972 C139.221595,130.898162 139.387595,131.063916 139.592087,131.063916" id="Fill-490" fill="#E0A457"></path>
                        <polygon id="Fill-491" fill="#FFECD3" points="124.523377 122.331794 160.008884 122.331794 160.008884 86.298274 124.523377 86.298274"></polygon>
                        <g id="noun_House_1954712" transform="translate(132.318841, 93.687151)" fill="#E0A457">
                            <path d="M19.4743001,7.45480529 C19.3072994,7.45480529 19.1388379,7.41107043 18.9840092,7.31912784 L10.2245024,2.09877618 L1.46499564,7.31912784 C1.00099642,7.59644659 0.404078217,7.43641677 0.132884549,6.96179417 C-0.138309119,6.48766855 0.0189539954,5.87885945 0.482953216,5.60253467 L9.65631031,0.135677456 C9.80529642,0.0467167798 9.97424472,0 10.1470881,0 L10.3019168,0 C10.4742733,0 10.6437084,0.0467167798 10.7931814,0.135677456 L19.9665385,5.60253467 C20.4305378,5.87935644 20.587314,6.48816554 20.3166072,6.96179417 C20.135,7.2783749 19.8092754,7.45480529 19.4743001,7.45480529 Z" id="Path"></path>
                            <path d="M18.0868373,7.84526344 L10.7054144,3.84906328 C10.558278,3.76904402 10.3929341,3.72760547 10.2246377,3.72760547 L10.0622464,3.72760547 C9.89394993,3.72760547 9.72860606,3.76904402 9.58196179,3.84858698 L2.36293017,7.75428915 C2.05192622,7.92290118 1.85902503,8.24107301 1.85902503,8.58591793 L1.85902503,17.0641495 C1.85902503,17.5899904 2.29994203,18.0167598 2.84321476,18.0167598 L8.25625823,18.0167598 C8.79953096,18.0167598 9.24044796,17.5899904 9.24044796,17.0641495 L9.24044796,13.9538769 C9.24044796,13.4809059 9.68185705,13.0965276 10.2246377,13.0965276 C10.7674183,13.0965276 11.2088274,13.4813822 11.2088274,13.9538769 L11.2088274,17.0641495 C11.2088274,17.5899904 11.6497444,18.0167598 12.1930171,18.0167598 L17.6060606,18.0167598 C18.1493333,18.0167598 18.5902503,17.5899904 18.5902503,17.0641495 L18.5902503,8.67641591 C18.5902503,8.33157099 18.3973491,8.01339915 18.0868373,7.84526344 Z M9.30442029,8.48494124 L5.79578393,10.4706574 L5.79578393,14.6826238 C5.79578393,14.9455442 5.57581752,15.1589289 5.30368906,15.1589289 C5.03156061,15.1589289 4.8115942,14.9455442 4.8115942,14.6826238 L4.8115942,10.1972582 C4.8115942,10.0281699 4.90410804,9.87146552 5.05518116,9.7862069 L8.80740448,7.66283857 C9.04361001,7.53042574 9.34427997,7.60711086 9.48059025,7.83335581 C9.61788472,8.06055336 9.53865744,8.35205211 9.30442029,8.48494124 Z" id="Shape"></path>
                        </g>
                    </g>
                    <g id="noun_Document_258313" transform="translate(211.000000, 45.642458) rotate(-330.000000) translate(-211.000000, -45.642458) translate(182.130435, 9.608939)" fill="#FFECD3">
                        <path d="M0,72.0670391 L57.7391304,72.0670391 L57.7391304,17.9729234 L39.6627461,0 L0,0 L0,72.0670391 Z M9.65243822,27.7046038 L48.1744417,27.7046038 L48.1744417,32.5266077 L9.65243822,32.5266077 L9.65243822,27.7046038 Z M9.65243822,37.3486115 L48.1744417,37.3486115 L48.1744417,42.1706153 L9.65243822,42.1706153 L9.65243822,37.3486115 Z M9.65243822,46.9049464 L48.1744417,46.9049464 L48.1744417,51.7269502 L9.65243822,51.7269502 L9.65243822,46.9049464 Z M9.65243822,56.548954 L28.8695652,56.548954 L28.8695652,61.3709579 L9.65243822,61.3709579 L9.65243822,56.548954 Z" id="Shape"></path>
                    </g>
                    <path d="M247.595298,119.713422 C249.175531,116.413204 253.189323,114.990327 256.567375,116.539312 C259.939349,118.084727 261.391948,122.014294 259.814146,125.314511 C258.233913,128.614729 254.216474,130.042364 250.8445,128.496949 C247.466448,126.949154 246.013849,123.018398 247.595298,119.713422 Z M242.104595,137.035399 L249.738337,140.530726 L250.848147,138.208439 L259.247693,137.49938 L260.748915,139.606332 L267.661827,134.886807 L266.15939,132.781045 L269.736795,125.310942 L272.347826,125.090849 L271.628212,116.872427 L269.019612,117.087762 L264.191392,110.324339 L265.306064,107.999672 L257.668676,104.497207 L256.558866,106.824253 L248.16175,107.528553 L246.656882,105.427549 L239.745186,110.145884 L241.246407,112.251647 L237.670218,119.721749 L235.057971,119.941843 L235.782447,128.162644 L238.393478,127.94255 L243.214405,134.708353 L242.104595,137.035399 L242.104595,137.035399 Z" id="Fill-453" fill="#F6D7AD"></path>
                    <g id="noun_Document_258313-Copy" transform="translate(46.018537, 115.640726) rotate(-405.000000) translate(-46.018537, -115.640726) translate(17.148971, 79.607206)" fill="#FFECD3">
                        <path d="M0,72.0670391 L57.7391304,72.0670391 L57.7391304,17.9729234 L39.6627461,0 L0,0 L0,72.0670391 Z M9.65243822,27.7046038 L48.1744417,27.7046038 L48.1744417,32.5266077 L9.65243822,32.5266077 L9.65243822,27.7046038 Z M9.65243822,37.3486115 L48.1744417,37.3486115 L48.1744417,42.1706153 L9.65243822,42.1706153 L9.65243822,37.3486115 Z M9.65243822,46.9049464 L48.1744417,46.9049464 L48.1744417,51.7269502 L9.65243822,51.7269502 L9.65243822,46.9049464 Z M9.65243822,56.548954 L28.8695652,56.548954 L28.8695652,61.3709579 L9.65243822,61.3709579 L9.65243822,56.548954 Z" id="Shape"></path>
                    </g>
                    <path d="M82.6138342,189.711689 C84.1940673,186.411472 88.2078594,184.988595 91.5859116,186.53758 C94.957886,188.082995 96.4104849,192.012562 94.8326829,195.312779 C93.2524498,198.612997 89.235011,200.040632 85.8630366,198.495217 C82.4849844,196.947422 81.0323855,193.016666 82.6138342,189.711689 Z M77.1231318,207.033667 L84.7568734,210.528994 L85.8666833,208.206707 L94.2662301,207.497648 L95.7674516,209.6046 L102.680364,204.885075 L101.177927,202.779313 L104.755331,195.30921 L107.366363,195.089116 L106.646749,186.870695 L104.038149,187.08603 L99.2099287,180.322607 L100.324601,177.99794 L92.6872126,174.495475 L91.5774027,176.82252 L83.180287,177.526821 L81.6754188,175.425817 L74.7637222,180.144152 L76.2649437,182.249915 L72.6887546,189.720017 L70.0765077,189.940111 L70.8009838,198.160912 L73.4120151,197.940818 L78.2329417,204.706621 L77.1231318,207.033667 L77.1231318,207.033667 Z" id="Fill-453-Copy" fill="#F6D7AD"></path>
                </g>
            </g>
        </g>
    </g>
</svg>