<?xml version="1.0" encoding="UTF-8"?>
<svg width="336px" height="426px" viewBox="0 0 336 426" version="1.1" xmlns="http://www.w3.org/2000/svg" xmlns:xlink="http://www.w3.org/1999/xlink">
    <!-- Generator: Sketch 55.2 (78181) - https://sketchapp.com -->
    <title>Image7</title>
    <desc>Created with Sketch.</desc>
    <g id="Homepage" stroke="none" stroke-width="1" fill="none" fill-rule="evenodd">
        <g id="Homepage@2x-Copy-16" transform="translate(-315.000000, -4492.000000)">
            <g id="Image7" transform="translate(315.000000, 4492.000000)">
                <rect id="Rectangle" fill="#E1F1F0" x="0" y="414" width="223" height="9" rx="4.5"></rect>
                <path d="M95.5,395 L165.5,395 C167.985281,395 170,397.014719 170,399.5 C170,401.985281 167.985281,404 165.5,404 L95.5,404 C93.0147186,404 91,401.985281 91,399.5 C91,397.014719 93.0147186,395 95.5,395 Z" id="Rectangle-Copy-4" fill="#E1F1F0"></path>
                <g id="Group-9" transform="translate(54.000000, 0.000000)">
                    <g id="Group" transform="translate(199.000000, 264.000000) scale(-1, 1) translate(-199.000000, -264.000000) translate(116.000000, 102.000000)">
                        <path d="M128.933884,7.5708 C134.462406,3.7824 143.537072,1.02 149.800565,2.532 C156.054435,4.0416 164.80913,11.484 165.595826,17.9364 C161.003159,20.5272 155.207594,21.9036 151.418464,26.07 C145.476145,32.6052 142.666174,40.3884 135.528174,46.002 C118.762174,59.1876 92.4018551,63.4596 78.9017246,43.5852 C74.6302319,37.296 74.4894928,28.284 82.526058,25.0968 C81.0801739,25.6704 82.2445797,18.6852 82.4442609,17.9856 C83.4871739,14.3244 85.6572029,11.0916 88.3047826,8.352 C97.3301304,-0.9888 108.898406,-2.7516 118.900507,5.532 C121.516812,7.6992 125.788304,10.5936 128.933884,7.5708" id="Fill-527" fill="#23A79A"></path>
                        <polyline id="Fill-528" fill="#FFFFFF" points="37.8636377 151.2372 30.7725507 159.012 26.4986522 163.5876 29.6249855 166.3908 25.6542174 171.7224 38.4686957 180.7752 53.7106232 160.7652 37.8636377 151.2372"></polyline>
                        <path d="M37.8636377,151.2372 L37.586971,150.9864 L30.4958841,158.7612 L30.7725507,159.012 L30.4994928,158.7576 L26.2255942,163.3332 L26.1257536,163.6032 L26.2496522,163.8636 L29.1221739,166.44 L25.3546957,171.5004 L25.2849275,171.7812 L25.4388986,172.026 L38.2533768,181.0788 C38.4181739,181.1952 38.6443188,181.1604 38.7670145,181.0008 L54.0077391,160.9908 L54.0775072,160.6956 L53.9042899,160.446 L38.0561014,150.918 C37.9033333,150.8256 37.706058,150.8544 37.586971,150.9864 L37.8636377,151.2372 L37.669971,151.5552 L53.1621014,160.8696 L38.3905072,180.2628 L26.181087,171.6384 L29.9245072,166.6128 C30.0387826,166.458 30.0171304,166.242 29.8739855,166.1136 L27.0315362,163.5636 L31.0456087,159.2664 L31.0492174,159.2628 L38.1391014,151.4868 L37.8636377,151.2372 L37.669971,151.5552 L37.8636377,151.2372" id="Fill-529" fill="#23A79A"></path>
                        <path d="M28.6037246,173.6952 L33.6607101,167.4036 C33.7906232,167.2428 33.7641594,167.0088 33.602971,166.8804 C33.4429855,166.7508 33.2072174,166.7772 33.0785072,166.938 L28.0215217,173.2296 C27.8916087,173.3904 27.9180725,173.6244 28.0792609,173.7528 C28.2404493,173.8824 28.4750145,173.856 28.6037246,173.6952" id="Fill-530" fill="#23A79A"></path>
                        <path d="M32.2015942,175.926 L37.2597826,169.6344 C37.3884928,169.4736 37.362029,169.2384 37.2020435,169.11 C37.0408551,168.9816 36.805087,169.0068 36.6763768,169.1676 L31.6181884,175.4592 C31.4894783,175.62 31.5147391,175.854 31.6759275,175.9836 C31.8371159,176.112 32.0716812,176.0856 32.2015942,175.926" id="Fill-531" fill="#23A79A"></path>
                        <path d="M35.5997826,178.4004 L40.6567681,172.1088 C40.7854783,171.948 40.7602174,171.714 40.599029,171.5856 C40.4378406,171.456 40.2032754,171.4824 40.0733623,171.6432 L35.0163768,177.9348 C34.8876667,178.0956 34.9129275,178.3296 35.0741159,178.458 C35.2353043,178.5864 35.4698696,178.5612 35.5997826,178.4004" id="Fill-532" fill="#23A79A"></path>
                        <path d="M59.8297681,102.6384 C61.0471014,123.1512 34.0131594,149.028 34.0131594,149.028 L37.8636377,151.2372 L55.2154493,163.3812 C55.2154493,163.3812 79.7196957,146.8752 86.2033188,125.0748 L59.8297681,102.6384" id="Fill-534" fill="#E1F1F0"></path>
                        <polyline id="Fill-535" fill="#23A79A" points="118.917348 302.7528 132.704971 288.6024 144.352638 288.6024 144.352638 302.7528 118.917348 302.7528"></polyline>
                        <polyline id="Fill-536" fill="#6031DA" points="79.1904203 302.7528 92.5955217 288.6024 104.241986 288.6024 104.241986 302.7528 79.1904203 302.7528"></polyline>
                        <polyline id="Fill-537" fill="#80C9C2" fill-rule="nonzero" points="76.8531884 165.3864 76.8531884 292.3512 112.578072 292.3512 112.578072 191.0688 117.230884 191.0688 118.55287 292.3512 154.284971 292.3512 152.962986 191.0688 152.790971 165.3864 76.8531884 165.3864"></polyline>
                        <polyline id="Fill-538" fill="#E1F1F0" points="158.23529 165.6468 73.1181884 165.6468 73.1181884 113.3628 158.23529 126.5292 158.23529 165.6468"></polyline>
                        <path d="M59.8297681,102.6384 C59.8297681,73.284 82.3672754,60.1908 111.782957,59.4912 C112.384406,59.4768 112.993072,59.4696 113.606551,59.4696 C136.471246,59.4696 160.477493,71.1672 165.114667,95.2152 C167.435058,107.262 164.382101,132.954 155.750101,144.7272 C147.610087,155.832 146.428841,153.5508 134.078681,158.7684 C121.342391,164.1492 127.571,158.3028 120.768609,154.8108 C108.915246,148.728 104.643754,147.2052 104.643754,147.2052 L59.8297681,102.6384" id="Fill-539" fill="#E1F1F0"></path>
                        <path d="M106.796942,67.4172 L106.796942,67.4172 C102.342609,67.4172 98.7315072,63.8148 98.7315072,59.37 L98.7315072,33.2172 L114.86358,33.2172 L114.86358,59.37 C114.86358,63.8148 111.252478,67.4172 106.796942,67.4172" id="Fill-540" fill="#FFFFFF"></path>
                        <path d="M106.796942,67.4172 L106.796942,67.0524 C104.669014,67.0524 102.746783,66.1932 101.352623,64.8024 C99.9584638,63.4116 99.0971884,61.4928 99.0971884,59.37 L99.0971884,33.582 L114.499101,33.582 L114.499101,59.37 C114.499101,61.4928 113.636623,63.4116 112.243667,64.8024 C110.848304,66.1932 108.92487,67.0524 106.796942,67.0524 L106.796942,67.782 C111.454565,67.7808 115.228058,64.0152 115.229261,59.37 L115.229261,33.2172 L115.122203,32.9592 L114.86358,32.8524 L98.7315072,32.8524 L98.474087,32.9592 L98.3658261,33.2172 L98.3658261,59.37 C98.367029,64.0152 102.140522,67.7808 106.796942,67.782 L106.796942,67.4172" id="Fill-541" fill="#23A79A"></path>
                        <path d="M120.799884,35.3256 C120.832362,37.7928 118.852391,39.822 116.378029,39.8556 C115.99671,39.8604 115.619,39.8184 115.265348,39.7272 C114.980261,41.352 114.363174,42.8652 113.487464,44.1924 C111.382391,47.3832 107.778507,49.5084 103.660986,49.5636 C97.0582754,49.6524 91.6404203,44.3892 91.5514058,37.8036 C91.4623913,31.2168 96.7395072,25.8108 103.341014,25.722 C107.815797,25.6632 111.749275,28.0608 113.836304,31.6692 C114.529174,31.2 115.36158,30.9276 116.257739,30.9156 C118.732101,30.882 120.766203,32.8584 120.799884,35.3256" id="Fill-542" fill="#FFFFFF"></path>
                        <path d="M120.799884,35.3256 L120.434203,35.3256 L120.434203,35.3856 C120.434203,37.6272 118.625043,39.462 116.373217,39.492 L116.32029,39.492 C115.987087,39.492 115.658696,39.4524 115.356768,39.3744 L115.068072,39.4212 L114.905681,39.6648 C114.629014,41.2392 114.031174,42.7044 113.181928,43.9932 C111.140609,47.0868 107.647391,49.146 103.656174,49.2 L103.496188,49.2 C97.1677391,49.2 92.000087,44.13 91.917087,37.7988 L91.917087,37.7976 L91.9146812,37.6392 C91.9146812,31.326 96.9981304,26.172 103.345826,26.0868 L103.504609,26.0856 C107.776101,26.0856 111.520725,28.3956 113.519942,31.8516 L113.754507,32.0244 L114.040797,31.9704 C114.675928,31.5408 115.438565,31.2912 116.263754,31.2792 L116.317884,31.2792 C118.564899,31.278 120.40413,33.0828 120.434203,35.3304 L120.799884,35.3256 L120.434203,35.3256 L120.799884,35.3256 L121.164362,35.3208 C121.128275,32.6736 118.964261,30.5508 116.317884,30.5508 L116.252928,30.5508 C115.285797,30.564 114.381217,30.8592 113.630609,31.368 L113.836304,31.6692 L114.151464,31.4868 C112.028348,27.8136 108.044348,25.3572 103.504609,25.3572 L103.336203,25.3584 C96.5891449,25.4484 91.1845217,30.9276 91.1845217,37.6392 L91.1869275,37.8096 L91.1869275,37.8084 C91.275942,44.5392 96.7695797,49.9284 103.496188,49.9284 L103.665797,49.9284 C107.90842,49.8708 111.624174,47.6808 113.791797,44.3928 C114.695174,43.0248 115.330304,41.4648 115.625014,39.7908 L115.265348,39.7272 L115.173928,40.08 C115.542014,40.1748 115.929348,40.2204 116.32029,40.2204 L116.381638,40.2204 C119.036435,40.1832 121.164362,38.0256 121.164362,35.3856 L121.164362,35.3208 L120.799884,35.3256" id="Fill-543" fill="#23A79A"></path>
                        <polygon id="Fill-544" fill="#FFFFFF" points="0.374101449 322.9704 104.52587 322.9704 104.52587 178.1532 0.374101449 178.1532"></polygon>
                        <polyline id="Fill-545" fill="#23A79A" points="104.52587 322.9704 104.52587 322.5972 0.747 322.5972 0.747 178.5264 104.151768 178.5264 104.151768 322.9704 104.52587 322.9704 104.52587 322.5972 104.52587 322.9704 104.899971 322.9704 104.899971 178.1532 104.790507 177.8892 104.52587 177.78 0.374101449 177.78 0.109463768 177.8892 5.68434189e-14 178.1532 5.68434189e-14 322.9704 0.109463768 323.2344 0.374101449 323.3436 104.52587 323.3436 104.790507 323.2344 104.899971 322.9704 104.52587 322.9704"></polyline>
                        <path d="M28.1081304,270.9816 L77.9406087,270.9816 C78.1475072,270.9816 78.3147101,270.8148 78.3147101,270.6084 C78.3147101,270.402 78.1475072,270.2352 77.9406087,270.2352 L28.1081304,270.2352 C27.9012319,270.2352 27.734029,270.402 27.734029,270.6084 C27.734029,270.8148 27.9012319,270.9816 28.1081304,270.9816" id="Fill-546" fill="#23A79A"></path>
                        <path d="M28.1081304,296.7768 L77.9406087,296.7768 C78.1475072,296.7768 78.3147101,296.61 78.3147101,296.4036 C78.3147101,296.1984 78.1475072,296.0304 77.9406087,296.0304 L28.1081304,296.0304 C27.9012319,296.0304 27.734029,296.1984 27.734029,296.4036 C27.734029,296.61 27.9012319,296.7768 28.1081304,296.7768" id="Fill-547" fill="#23A79A"></path>
                        <path d="M28.1081304,279.6024 L77.9406087,279.6024 C78.1475072,279.6024 78.3147101,279.4344 78.3147101,279.2292 C78.3147101,279.0228 78.1475072,278.856 77.9406087,278.856 L28.1081304,278.856 C27.9012319,278.856 27.734029,279.0228 27.734029,279.2292 C27.734029,279.4344 27.9012319,279.6024 28.1081304,279.6024" id="Fill-548" fill="#23A79A"></path>
                        <path d="M28.1081304,288.222 L77.9406087,288.222 C78.1475072,288.222 78.3147101,288.0552 78.3147101,287.8488 C78.3147101,287.6436 78.1475072,287.4756 77.9406087,287.4756 L28.1081304,287.4756 C27.9012319,287.4756 27.734029,287.6436 27.734029,287.8488 C27.734029,288.0552 27.9012319,288.222 28.1081304,288.222" id="Fill-549" fill="#23A79A"></path>
                        <g id="noun_House_1954712" transform="translate(34.884058, 211.200000)" fill="#71B6AF">
                            <path d="M37.8030532,14.3992165 C37.4788752,14.3992165 37.1518619,14.3147411 36.851312,14.1371507 L19.8475636,4.05385941 L2.84381506,14.1371507 C1.94311069,14.6728016 0.784387128,14.3636984 0.25795236,13.4469483 C-0.268482408,12.5311581 0.0367930499,11.3552221 0.937497419,10.8214912 L18.7446024,0.26206574 C19.0338107,0.0902350899 19.3617692,0 19.6972886,0 L19.9978385,0 C20.3324128,0 20.6613164,0.0902350899 20.9514698,0.26206574 L38.7585748,10.8214912 C39.6592792,11.3561821 39.9636095,12.5321181 39.4381199,13.4469483 C39.0855881,14.058435 38.4532993,14.3992165 37.8030532,14.3992165 Z" id="Path"></path>
                            <path d="M35.109743,15.1534 L20.7810985,7.4346 C20.4954808,7.28004 20.1745192,7.2 19.8478261,7.2 L19.5325959,7.2 C19.2059028,7.2 18.8849412,7.28004 18.6002788,7.43368 L4.58686445,14.97768 C3.9831509,15.30336 3.60869565,15.91792 3.60869565,16.584 L3.60869565,32.96 C3.60869565,33.97568 4.46459335,34.8 5.51918159,34.8 L16.0268542,34.8 C17.0814425,34.8 17.9373402,33.97568 17.9373402,32.96 L17.9373402,26.9524 C17.9373402,26.03884 18.7941931,25.2964 19.8478261,25.2964 C20.9014591,25.2964 21.758312,26.03976 21.758312,26.9524 L21.758312,32.96 C21.758312,33.97568 22.6142097,34.8 23.668798,34.8 L34.1764706,34.8 C35.2310588,34.8 36.0869565,33.97568 36.0869565,32.96 L36.0869565,16.7588 C36.0869565,16.09272 35.7125013,15.47816 35.109743,15.1534 Z M18.0615217,16.38896 L11.2506394,20.22444 L11.2506394,28.36 C11.2506394,28.86784 10.8236458,29.28 10.2953964,29.28 C9.76714706,29.28 9.34015345,28.86784 9.34015345,28.36 L9.34015345,19.69636 C9.34015345,19.36976 9.51973913,19.06708 9.81299872,18.9024 L17.0967263,14.80104 C17.555243,14.54528 18.1388964,14.6934 18.4034987,15.1304 C18.6700115,15.56924 18.5162174,16.13228 18.0615217,16.38896 Z" id="Shape"></path>
                        </g>
                        <path d="M114.384826,37.1604 L114.390841,37.098 C114.407681,36.9384 114.487072,36.5064 114.719232,36.1536 C114.959812,35.802 115.290609,35.5152 115.991899,35.5068 C116.089333,35.5068 116.193986,35.5128 116.308261,35.5272 C116.513957,35.5524 116.699203,35.4072 116.725667,35.2032 C116.750928,34.9992 116.605377,34.8132 116.400884,34.788 C116.257739,34.77 116.121812,34.7615928 115.991899,34.7615928 C115.455406,34.7604 115.012739,34.9092 114.67713,35.1408 C114.171913,35.49 113.920507,35.9916 113.788188,36.39 C113.65587,36.7908 113.640232,37.1016 113.639029,37.1232 C113.628203,37.3284 113.786986,37.5036 113.993884,37.5144 C114.19958,37.524 114.375203,37.3656 114.386029,37.1604" id="Fill-552" fill="#23A79A"></path>
                        <polyline id="Fill-553" fill="#FFFFFF" points="107.901203 167.0928 100.593594 174.666 96.1921884 179.1192 99.2367246 182.0088 95.1167971 187.2276 107.670246 196.638 123.472725 177.066 107.901203 167.0928"></polyline>
                        <path d="M107.901203,167.0928 L107.637768,166.8408 L100.330159,174.4128 L100.593594,174.666 L100.333768,174.4104 L95.9311594,178.8636 L95.8265072,179.1252 L95.9395797,179.3832 L98.7435362,182.0436 L94.8305072,187.002 L94.7547246,187.2744 L94.8978696,187.518 L107.450116,196.9284 C107.607696,197.0472 107.830232,197.0196 107.95413,196.866 L123.757812,177.294 L123.833594,177.0072 L123.67,176.76 L108.098478,166.7868 C107.951725,166.6932 107.759261,166.716 107.637768,166.8408 L107.901203,167.0928 L107.703928,167.4 L122.933826,177.1536 L107.606493,196.1352 L95.6352464,187.1604 L99.5230145,182.2344 C99.6396957,182.0868 99.6252609,181.8744 99.4881304,181.7448 L96.7130435,179.1108 L100.85342,174.9216 L108.164638,167.346 L107.901203,167.0928 L107.703928,167.4 L107.901203,167.0928" id="Fill-554" fill="#23A79A"></path>
                        <path d="M98.0097681,189.282 L103.24358,183.1356 C103.377101,182.9796 103.357855,182.7444 103.201478,182.6112 C103.043899,182.478 102.80813,182.4972 102.674609,182.6532 L97.4395942,188.7996 C97.3072754,188.9568 97.3253188,189.192 97.4828986,189.3252 C97.6404783,189.4584 97.8762464,189.4392 98.0097681,189.282" id="Fill-555" fill="#23A79A"></path>
                        <path d="M101.542681,191.6136 L106.776493,185.4672 C106.910014,185.31 106.890768,185.0748 106.733188,184.9416 C106.575609,184.8084 106.341043,184.8276 106.206319,184.9848 L100.97371,191.1312 C100.840188,191.2884 100.859435,191.5224 101.017014,191.6556 C101.173391,191.7888 101.409159,191.7708 101.542681,191.6136" id="Fill-556" fill="#23A79A"></path>
                        <path d="M104.868696,194.1828 L110.102507,188.0364 C110.234826,187.8804 110.21558,187.6452 110.059203,187.512 C109.901623,187.3788 109.665855,187.398 109.532333,187.554 L104.299725,193.7004 C104.166203,193.8576 104.185449,194.0928 104.341826,194.226 C104.499406,194.3592 104.735174,194.34 104.868696,194.1828" id="Fill-557" fill="#23A79A"></path>
                        <path d="M97.4985362,184.656 L101.358638,180.0624 C101.490957,179.9052 101.470507,179.67 101.312928,179.538 C101.154145,179.406 100.918377,179.4264 100.786058,179.5836 L96.9259565,184.1784 C96.7936377,184.3356 96.814087,184.5708 96.9728696,184.7028 C97.1304493,184.8348 97.3662174,184.8144 97.4985362,184.656" id="Fill-558" fill="#23A79A"></path>
                        <path d="M129.761478,116.622 C141.345391,140.2836 104.116884,165.9888 104.116884,165.9888 L124.902971,179.7228 C124.902971,179.7228 149.865522,163.9152 156.963826,142.3068" id="Fill-559" fill="#E1F1F0"></path>
                        <path d="M129.63758,134.5464 C126.490797,141.7248 121.290667,148.3008 116.877232,153.0732 C114.669913,155.4588 112.661072,157.3956 111.204362,158.7336 C110.475406,159.4032 109.885986,159.9228 109.478203,160.2756 C109.07042,160.6272 108.849087,160.8096 108.847884,160.8096 C108.687899,160.9404 108.665043,161.1756 108.796159,161.3352 C108.927275,161.4948 109.163043,161.5176 109.323029,161.3868 C109.33987,161.3652 123.915391,149.436 130.322029,134.8452 C130.405029,134.6568 130.31842,134.4372 130.129565,134.3544 C129.94071,134.2716 129.72058,134.358 129.63758,134.5464" id="Fill-560" fill="#23A79A"></path>
                        <path d="M125.102652,180.0372 C125.115884,180.0288 131.373362,176.0664 138.527,169.3908 C145.678232,162.7128 153.735246,153.324 157.319884,142.4232 C157.383638,142.2264 157.27658,142.0164 157.080507,141.9516 C156.884435,141.888 156.672725,141.9948 156.608971,142.1904 C153.094101,152.898 145.120087,162.2172 138.015768,168.8448 C134.464812,172.1604 131.132783,174.8028 128.690899,176.616 C127.469957,177.522 126.470348,178.2216 125.778681,178.6932 C125.085812,179.1648 124.70329,179.4072 124.702087,179.4072 C124.527667,179.5176 124.475942,179.7492 124.586609,179.9232 C124.698478,180.0972 124.929435,180.1476 125.103855,180.0372" id="Fill-561" fill="#23A79A"></path>
                        <path d="M72.744087,113.3628 L72.744087,134.6952 C72.744087,134.9016 72.9112899,135.0684 73.1181884,135.0684 C73.325087,135.0684 73.4922899,134.9016 73.4922899,134.6952 L73.4922899,113.3628 C73.4922899,113.1564 73.325087,112.9896 73.1181884,112.9896 C72.9112899,112.9896 72.744087,113.1564 72.744087,113.3628" id="Fill-562" fill="#23A79A"></path>
                        <path d="M54.5153623,8.6064 L54.1460725,8.6064 C54.1448696,9.1608 53.6961884,9.6084 53.1404493,9.6096 C52.5835072,9.6084 52.1348261,9.1608 52.1336232,8.6064 C52.1348261,8.052 52.5835072,7.6032 53.1404493,7.602 C53.6961884,7.6032 54.1448696,8.052 54.1460725,8.6064 L54.8846522,8.6064 C54.8846522,7.6452 54.103971,6.8652 53.1404493,6.8652 C52.1757246,6.8652 51.3950435,7.6452 51.3950435,8.6064 C51.3950435,9.5676 52.1757246,10.3464 53.1404493,10.3464 C54.103971,10.3464 54.8846522,9.5676 54.8846522,8.6064 L54.5153623,8.6064" id="Fill-566" fill="#FFFFFF"></path>
                        <path d="M61.254,8.6064 L60.8847101,8.6064 C60.8835072,9.1608 60.4336232,9.6084 59.879087,9.6096 C59.3233478,9.6084 58.8734638,9.1608 58.8734638,8.6064 C58.8734638,8.052 59.3233478,7.6032 59.879087,7.602 C60.4336232,7.6032 60.8835072,8.052 60.8847101,8.6064 L61.6232899,8.6064 C61.6232899,7.6452 60.8426087,6.8664 59.879087,6.8652 C58.9155652,6.8652 58.1348841,7.6452 58.1348841,8.6064 C58.1348841,9.5676 58.9155652,10.3464 59.879087,10.3464 C60.8426087,10.3464 61.6232899,9.5676 61.6232899,8.6064 L61.254,8.6064" id="Fill-568" fill="#FFFFFF"></path>
                        <path d="M67.9926377,8.6064 L67.6233478,8.6064 C67.6233478,9.1608 67.1734638,9.6084 66.6177246,9.6096 C66.0607826,9.6084 65.6121014,9.1608 65.6108986,8.6064 C65.6121014,8.052 66.0607826,7.6032 66.6177246,7.602 C67.1734638,7.6032 67.6233478,8.052 67.6233478,8.6064 L68.3619275,8.6064 C68.3619275,7.6452 67.5812464,6.8652 66.6177246,6.8652 C65.653,6.8652 64.8723188,7.6452 64.8723188,8.6064 C64.8723188,9.5676 65.653,10.3464 66.6177246,10.3464 C67.5812464,10.3464 68.3619275,9.5676 68.3619275,8.6064 L67.9926377,8.6064" id="Fill-570" fill="#FFFFFF"></path>
                    </g>
                    <g id="Group-Copy" transform="translate(184.565217, 0.000000)">
                        <path d="M31.2753623,0 C14.0245309,0 0,13.9907368 0,31.2 C0,48.4092632 14.0245309,62.4 31.2753623,62.4 C48.5261937,62.4 62.5507246,48.4092632 62.5507246,31.2 C62.5507246,13.9907368 48.5261937,0 31.2753623,0 Z" id="Shape" fill="#71B6AF"></path>
                        <path d="M35.5487104,30.5543046 L28.894031,27.997351 C27.7196758,27.5384106 26.9367723,26.4238411 26.9367723,25.1781457 C26.9367723,24.3913907 27.2629821,23.6046358 27.7849177,23.0801325 C28.3720953,22.4900662 29.0897568,22.2278146 29.9379022,22.2278146 L32.5475804,22.2278146 C33.9176615,22.2278146 35.0267747,23.0801325 35.4182265,24.3913907 C35.8096782,25.8337748 37.3102432,26.6205298 38.7455662,26.2271523 C40.1808892,25.8337748 41.0290346,24.3258278 40.5723409,22.8834437 C39.7241955,19.7364238 37.0492754,17.4417219 33.9176615,16.9172185 L33.9176615,14.6880795 C33.9176615,13.1801325 32.7433063,12 31.2427413,12 C29.7421764,12 28.5678212,13.1801325 28.5678212,14.6880795 L28.5678212,16.9827815 C26.8715303,17.2450331 25.3057234,18.097351 24.0661263,19.2774834 C22.5003193,20.8509934 21.6521739,23.0145695 21.6521739,25.1781457 C21.6521739,28.5874172 23.8051584,31.7344371 27.0020142,32.9801325 L33.6566937,35.5370861 C34.8310489,35.9960265 35.6139523,37.110596 35.6139523,38.3562914 C35.6139523,39.9953642 34.2438713,41.3721854 32.6128224,41.3721854 L30.0031442,41.3721854 C28.6330631,41.3721854 27.5239499,40.5198675 27.1324982,39.2086093 C26.7410464,37.7662252 25.2404815,36.9139073 23.8051584,37.3728477 C22.3698354,37.7662252 21.52169,39.2741722 21.9783837,40.7165563 C22.8265291,43.8635762 25.5014493,46.1582781 28.5678212,46.6827815 L28.5678212,48.9119205 C28.5678212,50.4198675 29.7421764,51.6 31.2427413,51.6 C32.7433063,51.6 33.9176615,50.4198675 33.9176615,48.9119205 L33.9176615,46.6827815 C37.8321788,46.0271523 40.8985507,42.6178808 40.8985507,38.4218543 C40.8985507,34.9470199 38.8108082,31.8655629 35.5487104,30.5543046 Z" id="Path" fill="#FFFFFF" fill-rule="nonzero"></path>
                    </g>
                    <g id="Group-Copy-3" transform="translate(-0.000000, 170.000000)">
                        <path d="M31.2753623,0 C14.0245309,0 0,13.9907368 0,31.2 C0,48.4092632 14.0245309,62.4 31.2753623,62.4 C48.5261937,62.4 62.5507246,48.4092632 62.5507246,31.2 C62.5507246,13.9907368 48.5261937,0 31.2753623,0 Z" id="Shape" fill="#71B6AF"></path>
                        <path d="M35.5487104,30.5543046 L28.894031,27.997351 C27.7196758,27.5384106 26.9367723,26.4238411 26.9367723,25.1781457 C26.9367723,24.3913907 27.2629821,23.6046358 27.7849177,23.0801325 C28.3720953,22.4900662 29.0897568,22.2278146 29.9379022,22.2278146 L32.5475804,22.2278146 C33.9176615,22.2278146 35.0267747,23.0801325 35.4182265,24.3913907 C35.8096782,25.8337748 37.3102432,26.6205298 38.7455662,26.2271523 C40.1808892,25.8337748 41.0290346,24.3258278 40.5723409,22.8834437 C39.7241955,19.7364238 37.0492754,17.4417219 33.9176615,16.9172185 L33.9176615,14.6880795 C33.9176615,13.1801325 32.7433063,12 31.2427413,12 C29.7421764,12 28.5678212,13.1801325 28.5678212,14.6880795 L28.5678212,16.9827815 C26.8715303,17.2450331 25.3057234,18.097351 24.0661263,19.2774834 C22.5003193,20.8509934 21.6521739,23.0145695 21.6521739,25.1781457 C21.6521739,28.5874172 23.8051584,31.7344371 27.0020142,32.9801325 L33.6566937,35.5370861 C34.8310489,35.9960265 35.6139523,37.110596 35.6139523,38.3562914 C35.6139523,39.9953642 34.2438713,41.3721854 32.6128224,41.3721854 L30.0031442,41.3721854 C28.6330631,41.3721854 27.5239499,40.5198675 27.1324982,39.2086093 C26.7410464,37.7662252 25.2404815,36.9139073 23.8051584,37.3728477 C22.3698354,37.7662252 21.52169,39.2741722 21.9783837,40.7165563 C22.8265291,43.8635762 25.5014493,46.1582781 28.5678212,46.6827815 L28.5678212,48.9119205 C28.5678212,50.4198675 29.7421764,51.6 31.2427413,51.6 C32.7433063,51.6 33.9176615,50.4198675 33.9176615,48.9119205 L33.9176615,46.6827815 C37.8321788,46.0271523 40.8985507,42.6178808 40.8985507,38.4218543 C40.8985507,34.9470199 38.8108082,31.8655629 35.5487104,30.5543046 Z" id="Path" fill="#FFFFFF" fill-rule="nonzero"></path>
                    </g>
                    <g id="noun_booking_1094614" transform="translate(224.260870, 87.600000)" fill="#E1F1F0">
                        <path d="M23.6827146,0 L21.9114644,0 L21.9114644,2.78455607 C21.9114644,3.9211319 20.9953568,4.84220682 19.8642388,4.84220682 C18.7331208,4.84220682 17.8170133,3.92058494 17.8170133,2.78455607 L17.8170133,0 L9.84910907,0 L9.84910907,2.78455607 C9.84910907,3.9211319 8.93354582,4.84220682 7.80242784,4.84220682 C6.67130987,4.84220682 5.75520229,3.92058494 5.75520229,2.78455607 L5.75520229,0 L3.9839521,0 C1.78376978,0 0,1.79237679 0,4.00317539 L0,24.7973716 C0,27.0087171 1.78376978,28.8 3.9839521,28.8 L18.98569,28.8 C17.4680977,27.1700693 16.5372932,24.9816959 16.5372932,22.573446 C16.5372932,17.5376166 20.5996288,13.4545855 25.6112762,13.4545855 C26.3189053,13.4545855 27.0058499,13.5388168 27.6666667,13.6925116 L27.6666667,4.00262843 C27.6666667,1.79237679 25.8834412,0 23.6827146,0 Z M11.6198149,22.0997816 L3.09941566,22.0997816 C2.57958041,22.0997816 2.1582689,21.6764372 2.1582689,21.1540936 C2.1582689,20.6317501 2.57903608,20.2084057 3.09941566,20.2084057 L11.6198149,20.2084057 C12.1396502,20.2084057 12.5609617,20.6317501 12.5609617,21.1540936 C12.5609617,21.6764372 12.1396502,22.0997816 11.6198149,22.0997816 Z M11.6198149,16.0121546 L3.09941566,16.0121546 C2.57958041,16.0121546 2.1582689,15.5888102 2.1582689,15.0664666 C2.1582689,14.5441231 2.57903608,14.1207787 3.09941566,14.1207787 L11.6198149,14.1207787 C12.1396502,14.1207787 12.5609617,14.5441231 12.5609617,15.0664666 C12.5609617,15.5888102 12.1396502,16.0121546 11.6198149,16.0121546 Z M24.5677953,9.50665274 L3.09941566,9.50665274 C2.57958041,9.50665274 2.1582689,9.08440224 2.1582689,8.56096477 C2.1582689,8.03916817 2.57903608,7.61637072 3.09941566,7.61637072 L24.5677953,7.61637072 C25.0870863,7.61637072 25.5089421,8.03862121 25.5089421,8.56096477 C25.5089421,9.08385528 25.0876306,9.50665274 24.5677953,9.50665274 Z" id="Shape"></path>
                        <path d="M26.4634964,15.6 C22.4772903,15.6 19.2463768,18.8240909 19.2463768,22.800542 C19.2463768,26.7764511 22.4772903,30 26.4634964,30 C30.4497025,30 33.6811594,26.7764511 33.6811594,22.800542 C33.6817028,18.824633 30.4497025,15.6 26.4634964,15.6 Z M29.22765,24.1860122 L25.9054493,24.1860122 C25.795144,24.1860122 25.6902724,24.1637883 25.5946383,24.125303 C25.5908346,24.1231348 25.5859442,24.1231348 25.5821406,24.1209666 C25.5397573,24.1030791 25.5000908,24.0797711 25.4609678,24.0553791 C25.4539039,24.0515847 25.4473834,24.0488745 25.4408629,24.0445381 C25.4136941,24.0261086 25.3886988,24.0028006 25.3637035,23.9805767 C25.3490323,23.9681096 25.3316443,23.9578107 25.3180599,23.9437175 C25.3039321,23.9296243 25.2930646,23.9122789 25.2805669,23.8976436 C25.2588319,23.8727095 25.2354667,23.8483174 25.216992,23.820673 C25.2126449,23.8147105 25.2104714,23.808206 25.2061244,23.8011594 C25.1811291,23.7626741 25.1583074,23.7225627 25.1403759,23.679741 C25.1382024,23.6759467 25.1376591,23.6710683 25.1360289,23.667816 C25.0974492,23.5713318 25.0751708,23.4678009 25.0751708,23.3577656 L25.0751708,20.0436949 C25.0751708,19.5862079 25.44684,19.2154483 25.9054493,19.2154483 C26.3640586,19.2154483 26.7357278,19.58675 26.7357278,20.0436949 L26.7357278,22.5295189 L29.22765,22.5295189 C29.6862593,22.5295189 30.0579285,22.9002786 30.0579285,23.3577656 C30.0579285,23.8152526 29.6862593,24.1860122 29.22765,24.1860122 Z" id="Shape"></path>
                    </g>
                    <g id="noun_booking_1094614-copy" transform="translate(46.000000, 88.000000)" fill="#E1F1F0">
                        <path d="M23.6827146,0 L21.9114644,0 L21.9114644,2.78455607 C21.9114644,3.9211319 20.9953568,4.84220682 19.8642388,4.84220682 C18.7331208,4.84220682 17.8170133,3.92058494 17.8170133,2.78455607 L17.8170133,0 L9.84910907,0 L9.84910907,2.78455607 C9.84910907,3.9211319 8.93354582,4.84220682 7.80242784,4.84220682 C6.67130987,4.84220682 5.75520229,3.92058494 5.75520229,2.78455607 L5.75520229,0 L3.9839521,0 C1.78376978,0 0,1.79237679 0,4.00317539 L0,24.7973716 C0,27.0087171 1.78376978,28.8 3.9839521,28.8 L18.98569,28.8 C17.4680977,27.1700693 16.5372932,24.9816959 16.5372932,22.573446 C16.5372932,17.5376166 20.5996288,13.4545855 25.6112762,13.4545855 C26.3189053,13.4545855 27.0058499,13.5388168 27.6666667,13.6925116 L27.6666667,4.00262843 C27.6666667,1.79237679 25.8834412,0 23.6827146,0 Z M11.6198149,22.0997816 L3.09941566,22.0997816 C2.57958041,22.0997816 2.1582689,21.6764372 2.1582689,21.1540936 C2.1582689,20.6317501 2.57903608,20.2084057 3.09941566,20.2084057 L11.6198149,20.2084057 C12.1396502,20.2084057 12.5609617,20.6317501 12.5609617,21.1540936 C12.5609617,21.6764372 12.1396502,22.0997816 11.6198149,22.0997816 Z M11.6198149,16.0121546 L3.09941566,16.0121546 C2.57958041,16.0121546 2.1582689,15.5888102 2.1582689,15.0664666 C2.1582689,14.5441231 2.57903608,14.1207787 3.09941566,14.1207787 L11.6198149,14.1207787 C12.1396502,14.1207787 12.5609617,14.5441231 12.5609617,15.0664666 C12.5609617,15.5888102 12.1396502,16.0121546 11.6198149,16.0121546 Z M24.5677953,9.50665274 L3.09941566,9.50665274 C2.57958041,9.50665274 2.1582689,9.08440224 2.1582689,8.56096477 C2.1582689,8.03916817 2.57903608,7.61637072 3.09941566,7.61637072 L24.5677953,7.61637072 C25.0870863,7.61637072 25.5089421,8.03862121 25.5089421,8.56096477 C25.5089421,9.08385528 25.0876306,9.50665274 24.5677953,9.50665274 Z" id="Shape"></path>
                        <path d="M26.4634964,15.6 C22.4772903,15.6 19.2463768,18.8240909 19.2463768,22.800542 C19.2463768,26.7764511 22.4772903,30 26.4634964,30 C30.4497025,30 33.6811594,26.7764511 33.6811594,22.800542 C33.6817028,18.824633 30.4497025,15.6 26.4634964,15.6 Z M29.22765,24.1860122 L25.9054493,24.1860122 C25.795144,24.1860122 25.6902724,24.1637883 25.5946383,24.125303 C25.5908346,24.1231348 25.5859442,24.1231348 25.5821406,24.1209666 C25.5397573,24.1030791 25.5000908,24.0797711 25.4609678,24.0553791 C25.4539039,24.0515847 25.4473834,24.0488745 25.4408629,24.0445381 C25.4136941,24.0261086 25.3886988,24.0028006 25.3637035,23.9805767 C25.3490323,23.9681096 25.3316443,23.9578107 25.3180599,23.9437175 C25.3039321,23.9296243 25.2930646,23.9122789 25.2805669,23.8976436 C25.2588319,23.8727095 25.2354667,23.8483174 25.216992,23.820673 C25.2126449,23.8147105 25.2104714,23.808206 25.2061244,23.8011594 C25.1811291,23.7626741 25.1583074,23.7225627 25.1403759,23.679741 C25.1382024,23.6759467 25.1376591,23.6710683 25.1360289,23.667816 C25.0974492,23.5713318 25.0751708,23.4678009 25.0751708,23.3577656 L25.0751708,20.0436949 C25.0751708,19.5862079 25.44684,19.2154483 25.9054493,19.2154483 C26.3640586,19.2154483 26.7357278,19.58675 26.7357278,20.0436949 L26.7357278,22.5295189 L29.22765,22.5295189 C29.6862593,22.5295189 30.0579285,22.9002786 30.0579285,23.3577656 C30.0579285,23.8152526 29.6862593,24.1860122 29.22765,24.1860122 Z" id="Shape"></path>
                    </g>
                </g>
            </g>
        </g>
    </g>
</svg>