<?xml version="1.0" encoding="UTF-8"?>
<svg width="334px" height="430px" viewBox="0 0 334 430" version="1.1" xmlns="http://www.w3.org/2000/svg" xmlns:xlink="http://www.w3.org/1999/xlink">
    <!-- Generator: Sketch 55.2 (78181) - https://sketchapp.com -->
    <title>Image8</title>
    <desc>Created with Sketch.</desc>
    <g id="Homepage" stroke="none" stroke-width="1" fill="none" fill-rule="evenodd">
        <g id="Homepage@2x-Copy-16" transform="translate(-797.000000, -5061.000000)">
            <g id="Image8" transform="translate(797.000000, 5061.000000)">
                <g id="Group-3">
                    <path d="M46.194,31.7527374 C49.4172,24.8655307 57.6096,21.8963687 64.5012,25.1273743 C71.3832,28.3523743 74.3484,36.5536034 71.1264,43.4408101 C67.9032,50.3280168 59.706,53.3067877 52.8252,50.0817877 C45.9336,46.8507821 42.9672,38.6507542 46.194,31.7527374 Z M34.992,67.899162 L50.5704,75.1935475 L52.8312,70.3482402 L69.9708,68.8696648 L73.0344,73.2645531 L87.1416,63.4189944 L84.0768,59.022905 L91.374,43.4348045 L96.7032,42.9747765 L95.2368,25.8240223 L89.9112,26.2732402 L80.0592,12.1589106 L82.3356,7.30879888 L66.75,2.84217094e-14 L64.4856,4.8549162 L47.3496,6.32388268 L44.2824,1.93860335 L30.1752,11.7853631 L33.24,16.1802514 L25.9416,31.7695531 L20.6124,32.2283799 L22.0908,49.3839385 L27.4188,48.9251117 L37.2564,63.0442458 L34.992,67.899162 L34.992,67.899162 Z" id="Fill-452" fill="#B9C9FB"></path>
                    <path d="M212.5816,81.7527374 C215.8048,74.8655307 223.9972,71.8963687 230.8888,75.1273743 C237.7708,78.3523743 240.736,86.5536034 237.514,93.4408101 C234.2908,100.328017 226.0936,103.306788 219.2128,100.081788 C212.3212,96.8507821 209.3548,88.6507542 212.5816,81.7527374 Z M201.3796,117.899162 L216.958,125.193547 L219.2188,120.34824 L236.3584,118.869665 L239.422,123.264553 L253.5292,113.418994 L250.4644,109.022905 L257.7616,93.4348045 L263.0908,92.9747765 L261.6244,75.8240223 L256.2988,76.2732402 L246.4468,62.1589106 L248.7232,57.3087989 L233.1376,50 L230.8732,54.8549162 L213.7372,56.3238827 L210.67,51.9386034 L196.5628,61.7853631 L199.6276,66.1802514 L192.3292,81.7695531 L187,82.2283799 L188.4784,99.3839385 L193.8064,98.9251117 L203.644,113.044246 L201.3796,117.899162 L201.3796,117.899162 Z" id="Fill-452-Copy" fill="#B9C9FB"></path>
                    <path d="M106.2276,104.244972 C107.7876,100.913073 111.75,99.4765363 115.0848,101.040391 C118.4136,102.600642 119.8476,106.567933 118.29,109.899832 C116.73,113.231732 112.764,114.673073 109.4352,113.112821 C106.1004,111.550168 104.6664,107.581676 106.2276,104.244972 Z M100.8072,121.73324 L108.3432,125.262123 L109.4388,122.917542 L117.7308,122.201676 L119.2128,124.328855 L126.0372,119.564022 L124.554,117.438045 L128.0856,109.896229 L130.6632,109.674022 L129.9528,101.376704 L127.3776,101.594106 L122.6112,94.7657542 L123.7116,92.4187709 L116.172,88.8826816 L115.0764,91.232067 L106.7868,91.9431285 L105.3012,89.8219553 L98.478,94.5855866 L99.96,96.7115642 L96.4296,104.25338 L93.8508,104.475587 L94.566,112.775307 L97.1436,112.553101 L101.9028,119.383855 L100.8072,121.73324 L100.8072,121.73324 Z" id="Fill-453" fill="#4F6198"></path>
                    <path d="M237.3768,209.362291 C238.9368,206.030391 242.8992,204.593855 246.234,206.157709 C249.5628,207.717961 250.9968,211.685251 249.4392,215.017151 C247.8792,218.34905 243.9132,219.790391 240.5844,218.23014 C237.2496,216.667486 235.8156,212.698994 237.3768,209.362291 Z M231.9564,226.850559 L239.4924,230.379441 L240.588,228.03486 L248.88,227.318994 L250.362,229.446173 L257.1864,224.681341 L255.7032,222.555363 L259.2348,215.013547 L261.8124,214.791341 L261.102,206.494022 L258.5268,206.711425 L253.7604,199.883073 L254.8608,197.536089 L247.3212,194 L246.2256,196.349385 L237.936,197.060447 L236.4504,194.939274 L229.6272,199.702905 L231.1092,201.828883 L227.5788,209.370698 L225,209.592905 L225.7152,217.892626 L228.2928,217.670419 L233.052,224.501173 L231.9564,226.850559 L231.9564,226.850559 Z" id="Fill-453-Copy-2" fill="#4F6198"></path>
                    <path d="M0.3696,428.762849 L121.2876,428.762849" id="Fill-456" fill="#DDD4FC"></path>
                    <path d="M0.3696,429.132793 L121.2876,429.132793 C121.4916,429.132793 121.656,428.967039 121.656,428.762849 C121.656,428.558659 121.4916,428.392905 121.2876,428.392905 L0.3696,428.392905 C0.1656,428.392905 -4.26325641e-13,428.558659 -4.26325641e-13,428.762849 C-4.26325641e-13,428.967039 0.1656,429.132793 0.3696,429.132793" id="Fill-457" fill="#6031DA"></path>
                    <path d="M0.8064,219.994246 L6.1416,219.994246" id="Fill-489" fill="#FFFFFF"></path>
                    <polyline id="Fill-494" fill="#E1E7FB" points="30.9324 291.58324 119.0064 291.58324 119.0064 239.270978 30.9324 252.443631 30.9324 291.58324"></polyline>
                    <path d="M64.614,152.831369 C64.614,152.831369 74.748,139.327207 78.4728,138.085251 C82.9008,140.321732 90.39,147.777067 90.39,147.777067 L86.6652,151.752765 L91.4688,149.57514 L96.5724,154.846844 L79.2972,171.607235 L64.614,152.831369" id="Fill-495" fill="#4F6198"></path>
                    <path d="M154.1448,203.690279 C154.1448,203.690279 153.6492,192.880223 158.4288,189.463045 C160.6812,187.852346 169.7868,184.24419 169.7868,184.24419 L171.648,187.786285 L165.504,190.954832 L178.7244,191.513352 L185.6136,185.348017 L188.2212,187.413939 L180.2136,199.900754 L169.9728,203.690279 L154.1448,203.690279" id="Fill-496" fill="#FFFFFF"></path>
                    <path d="M154.1448,203.690279 L154.5144,203.673464 C154.5144,203.672263 154.5,203.364777 154.5,202.825475 C154.4988,201.525866 154.5852,198.913436 155.1564,196.297402 C155.7228,193.677765 156.792,191.077346 158.6436,189.764525 C159.7008,189.003017 162.552,187.685391 165.0984,186.589972 C166.374,186.03986 167.5812,185.538994 168.468,185.176257 C169.3548,184.81352 169.9212,184.588911 169.9224,184.588911 L169.7868,184.24419 L169.4592,184.417151 L171.1476,187.627737 L165.3348,190.625726 C165.186,190.702598 165.1068,190.870754 165.144,191.034106 C165.18,191.197458 165.3216,191.31757 165.4884,191.324777 L178.7088,191.883296 L178.9704,191.789609 L185.628,185.832067 L187.7292,187.495615 L179.9688,199.596872 L169.9068,203.320335 L154.1448,203.320335 L154.1448,203.690279 L154.5144,203.673464 L154.1448,203.690279 L154.1448,204.060223 L169.9728,204.060223 L170.1012,204.037402 L180.342,200.246676 L180.5244,200.10014 L188.532,187.613324 C188.634,187.453575 188.5992,187.240978 188.4504,187.123268 L185.8428,185.058547 C185.7024,184.946844 185.5008,184.952849 185.3676,185.072961 L178.59,191.137402 L166.9128,190.643743 L171.8172,188.11419 L172.0008,187.896788 L171.9756,187.613324 L170.1132,184.07243 C170.0256,183.905475 169.8252,183.831006 169.65,183.90067 C169.6476,183.901872 167.3688,184.805112 164.8056,185.91014 C162.2352,187.021173 159.408,188.312374 158.214,189.162765 C156.1068,190.678575 155.0268,193.444749 154.434,196.140056 C153.846,198.838966 153.7608,201.493436 153.7608,202.825475 C153.7608,203.377989 153.7764,203.702291 153.7764,203.707095 C153.7848,203.905279 153.948,204.060223 154.1448,204.060223 L154.1448,203.690279" id="Fill-497" fill="#4F6198"></path>
                    <polyline id="Fill-498" fill="#4F6198" points="29.6568 428.762849 43.4064 414.60648 55.0212 414.60648 55.0212 428.762849 29.6568 428.762849"></polyline>
                    <polyline id="Fill-499" fill="#4F6198" points="105.2868 428.762849 96.3888 414.60648 84.774 414.60648 84.774 428.762849 105.2868 428.762849"></polyline>
                    <polyline id="Fill-500" fill="#B9C9FB" points="112.086 291.321397 112.086 418.356369 76.4616 418.356369 76.4616 317.019302 71.8212 317.019302 65.2896 418.356369 29.6568 418.356369 37.8504 291.321397 112.086 291.321397"></polyline>
                    <path d="M129.0612,228.540196 C129.0612,199.170475 106.5888,186.071089 77.2536,185.370838 C76.6536,185.356425 76.0476,185.348017 75.4356,185.348017 C31.3044,185.348017 17.382,217.455084 15.2916,222.997039 C10.6368,235.332514 -2.4636,274.015698 39.7428,291.908743 C52.4436,297.292151 61.5108,284.234804 68.2932,280.743156 C80.1132,274.654693 84.3732,273.132877 84.3732,273.132877 L129.0612,228.540196" id="Fill-501" fill="#E1E7FB"></path>
                    <polyline id="Fill-502" fill="#4F6198" points="57.8868 343.977179 8.802 294.847877 71.9148 231.676313 120.9972 280.806816 57.8868 343.977179"></polyline>
                    <polyline id="Fill-503" fill="#FFFFFF" points="58.0656 332.434441 20.334 294.668911 75.2436 239.708184 112.9752 277.474916 58.0656 332.434441"></polyline>
                    <path d="M109.5108,264.317877 L102.9396,270.896397 L81.8136,249.751927 L88.386,243.173408 L95.5872,250.381313 C97.47,249.042067 100.0932,249.225838 101.7792,250.912207 C103.464,252.598575 103.6476,255.22662 102.3096,257.109972 L109.5108,264.317877" id="Fill-504" fill="#B9C9FB"></path>
                    <path d="M64.7184,256.991061 L64.2492,259.96743 C64.2288,260.093547 64.2756,260.220866 64.3728,260.304944 C64.47,260.389022 64.602,260.416648 64.7244,260.377011 L70.2024,258.654609 C70.3968,258.593352 70.5048,258.385559 70.4436,258.190978 C70.3824,257.996397 70.1748,257.888296 69.9804,257.949553 L65.0712,259.492989 L65.4492,257.106369 C65.4804,256.904581 65.3436,256.716006 65.142,256.683575 C64.9404,256.652346 64.7508,256.789274 64.7196,256.991061" id="Fill-505" fill="#4F6198"></path>
                    <path d="M70.0908,262.426117 L93.6936,286.052095 C93.8388,286.196229 94.0728,286.196229 94.2168,286.052095 C94.3608,285.90676 94.3608,285.672542 94.2168,285.528408 L70.6128,261.90243 C70.4688,261.758296 70.2348,261.758296 70.0908,261.90243 C69.9456,262.047765 69.9456,262.280782 70.0908,262.426117" id="Fill-506" fill="#4F6198"></path>
                    <path d="M58.3128,263.403827 L57.8424,266.380196 C57.822,266.506313 57.8688,266.633631 57.966,266.717709 C58.0632,266.801788 58.1952,266.828212 58.3188,266.789777 L63.7956,265.067374 C63.99,265.006117 64.098,264.798324 64.0368,264.603743 C63.9756,264.409162 63.7692,264.29986 63.5736,264.361117 L58.6656,265.905754 L59.0424,263.519134 C59.0736,263.317346 58.9368,263.128771 58.7352,263.096341 C58.5336,263.065112 58.344,263.202039 58.3128,263.403827" id="Fill-507" fill="#4F6198"></path>
                    <path d="M63.684,268.838883 L87.288,292.46486 C87.432,292.608994 87.666,292.608994 87.81,292.46486 C87.954,292.319525 87.954,292.085307 87.81,291.941173 L64.206,268.315196 C64.062,268.171061 63.828,268.171061 63.684,268.315196 C63.5388,268.45933 63.5388,268.693547 63.684,268.838883" id="Fill-508" fill="#4F6198"></path>
                    <path d="M51.906,269.816592 L51.4356,272.79176 C51.4152,272.919078 51.462,273.046397 51.5592,273.130475 C51.6564,273.214553 51.7884,273.240978 51.912,273.202542 L57.3888,271.48014 C57.5832,271.418883 57.6912,271.211089 57.6312,271.016508 C57.5688,270.820726 57.3624,270.712626 57.168,270.773883 L52.2576,272.31852 L52.6356,269.931899 C52.6668,269.730112 52.53,269.541536 52.3284,269.509106 C52.1268,269.476676 51.9372,269.614804 51.906,269.816592" id="Fill-509" fill="#4F6198"></path>
                    <path d="M57.2772,275.250447 L80.8812,298.876425 C81.0252,299.02176 81.2592,299.02176 81.4032,298.876425 C81.5472,298.732291 81.5472,298.498073 81.4032,298.353939 L57.7992,274.727961 C57.6552,274.583827 57.4212,274.583827 57.2772,274.727961 C57.132,274.872095 57.132,275.106313 57.2772,275.250447" id="Fill-510" fill="#4F6198"></path>
                    <path d="M73.2876,193.301816 L73.2876,193.301816 C77.73,193.301816 81.3324,189.696061 81.3324,185.249525 L81.3324,159.081983 L65.244,159.081983 L65.244,185.249525 C65.244,189.696061 68.844,193.301816 73.2876,193.301816" id="Fill-511" fill="#FFFFFF"></path>
                    <path d="M73.2876,193.301816 L73.2876,193.670559 C77.934,193.670559 81.7008,189.900251 81.702,185.249525 L81.702,159.081983 L81.5928,158.821341 L81.3324,158.712039 L65.244,158.712039 L64.9824,158.82014 L64.8732,159.081983 L64.8732,185.249525 C64.8744,189.900251 68.64,193.670559 73.2876,193.670559 L73.2876,192.931872 C71.1672,192.93067 69.2508,192.071872 67.86,190.680978 C66.4704,189.290084 65.6124,187.371899 65.6124,185.249525 L65.6124,159.451927 L80.9628,159.451927 L80.9628,185.249525 C80.9628,187.371899 80.1036,189.290084 78.714,190.680978 C77.3244,192.071872 75.4068,192.93067 73.2876,192.931872 L73.2876,193.301816" id="Fill-512" fill="#4F6198"></path>
                    <path d="M88.3596,167.289218 C87.3984,169.562933 84.7752,170.628324 82.5024,169.666229 C82.1508,169.517291 81.8244,169.327514 81.5388,169.102905 C80.6244,170.475782 79.4532,171.614441 78.12,172.480447 C74.916,174.55838 70.7712,175.060447 66.99,173.459358 C60.9264,170.891369 58.0932,163.89486 60.6576,157.825615 C63.2232,151.756369 70.212,148.91933 76.2768,151.487318 C80.3868,153.227737 83.016,157.002849 83.4708,161.146704 C84.2916,160.995363 85.1616,161.07824 85.986,161.426564 C88.2564,162.388659 89.3208,165.015503 88.3596,167.289218" id="Fill-513" fill="#FFFFFF"></path>
                    <path d="M88.3596,167.289218 L88.0188,167.145084 C87.3588,168.71014 85.8384,169.650615 84.2412,169.650615 C83.7084,169.650615 83.1684,169.546117 82.6464,169.325112 C82.3236,169.189385 82.0248,169.014022 81.7668,168.811034 L81.48,168.737765 L81.2304,168.897514 C80.3448,170.228352 79.2108,171.330978 77.9184,172.169358 C76.0584,173.37648 73.8696,174.034693 71.628,174.034693 C70.1268,174.034693 68.6028,173.740419 67.1328,173.11824 C62.7264,171.252905 60.0816,166.973324 60.0816,162.470335 C60.0816,160.967737 60.3744,159.442318 60.9984,157.969749 C62.862,153.559246 67.1364,150.910782 71.6352,150.910782 C73.1364,150.910782 74.6604,151.205056 76.1328,151.828436 C80.1156,153.514804 82.662,157.172207 83.1036,161.186341 L83.25,161.44338 L83.538,161.509441 C83.7744,161.466201 84.0156,161.44338 84.2592,161.44338 C84.786,161.44338 85.3224,161.547877 85.842,161.767682 C87.4044,162.429497 88.3428,163.950112 88.344,165.55 C88.344,166.082095 88.2396,166.623799 88.0188,167.146285 L88.3596,167.289218 L88.7004,167.433352 C88.9584,166.819581 89.082001,166.179385 89.082001,165.55 C89.0832,163.663045 87.9732,161.868575 86.13,161.086648 C85.5192,160.828408 84.8844,160.704693 84.2592,160.704693 C83.97,160.704693 83.6844,160.731117 83.4036,160.782765 L83.4708,161.146704 L83.838,161.105866 C83.37,156.833492 80.6568,152.94067 76.4208,151.146201 C74.8572,150.484385 73.2324,150.170894 71.6352,150.170894 C66.8484,150.170894 62.3004,152.989916 60.318,157.68148 C59.6556,159.245335 59.3423996,160.871648 59.3423996,162.470335 C59.3412,167.261592 62.1576,171.813827 66.8448,173.799274 C68.406,174.461089 70.0308,174.774581 71.628,174.774581 C74.0148,174.774581 76.3416,174.07433 78.3204,172.790335 C79.6956,171.897905 80.9028,170.723212 81.846,169.307095 L81.5388,169.102905 L81.3096,169.393575 C81.624,169.639804 81.9792,169.846397 82.3596,170.006145 C82.9716,170.266788 83.6112,170.390503 84.2412,170.390503 C86.1264,170.390503 87.9192,169.279469 88.7004,167.433352 L88.3596,167.289218" id="Fill-514" fill="#4F6198"></path>
                    <path d="M81.7632,166.395587 L81.7668,166.389581 C81.7896,166.343939 81.9444,166.070084 82.2012,165.825056 C82.4604,165.577626 82.8,165.369832 83.2284,165.369832 C83.49,165.371034 83.7996,165.444302 84.18,165.670112 C84.3552,165.774609 84.5808,165.716955 84.6864,165.540391 C84.7908,165.365028 84.732,165.138017 84.5568,165.03352 C84.0852,164.752458 83.6364,164.629944 83.2284,164.629944 C82.5024,164.631145 81.9624,165.008296 81.6228,165.35662 C81.2808,165.707346 81.114,166.043659 81.102,166.065279 C81.0108,166.247849 81.0852,166.470056 81.2676,166.561341 C81.45,166.652626 81.672,166.578156 81.7632,166.395587" id="Fill-515" fill="#4F6198"></path>
                    <path d="M109.5108,243.173408 C109.5108,243.173408 114.2244,264.65419 140.5416,260.016676 C166.8564,255.379162 173.3124,203.690279 173.3124,203.690279 L152.9532,203.690279 L138.0576,233.510419 C138.0576,233.510419 127.2576,205.491955 113.7336,195.891425 C105.4836,190.034777 109.5108,243.173408 109.5108,243.173408" id="Fill-516" fill="#E1E7FB"></path>
                    <path d="M118.3224,234.753575 L118.3224,257.048715 C118.3224,257.252905 118.488,257.418659 118.6932,257.418659 C118.896,257.418659 119.0616,257.252905 119.0616,257.048715 L119.0616,234.753575 C119.0616,234.549385 118.896,234.383631 118.6932,234.383631 C118.488,234.383631 118.3224,234.549385 118.3224,234.753575" id="Fill-517" fill="#FFFFFF"></path>
                    <path d="M76.2768,151.487318 C81.4332,154.051704 83.3196,160.388799 79.8264,163.74352 C83.4708,161.146704 83.4708,161.146704 83.4708,161.146704 L89.2728,157.46648 C89.2728,157.46648 78.348,149.415391 76.2768,151.487318" id="Fill-518" fill="#4F6198"></path>
                    <polyline id="Fill-519" fill="#FFFFFF" points="57.7044 287.115084 65.112 294.575223 71.0772 301.636592 68.5692 304.150531 70.7736 307.053631 58.4076 316.668575 42.3384 297.340196 57.7044 287.115084"></polyline>
                    <path d="M57.7044,287.115084 L57.4428,287.375726 L64.8396,294.825056 L70.5756,301.616173 L68.3076,303.889888 C68.178,304.019609 68.1636,304.227402 68.2752,304.373939 L70.2576,306.986369 L58.4628,316.156899 L42.8844,297.42067 L57.9096,287.423771 L57.7044,287.115084 L57.4428,287.375726 L57.7044,287.115084 L57.5004,286.807598 L42.1332,297.032709 L41.9724,297.287346 L42.054,297.576816 L58.1232,316.905196 C58.2516,317.058939 58.4772,317.082961 58.6344,316.960447 L71.0004,307.345503 C71.16,307.221788 71.19,306.991173 71.0676,306.830223 L69.0576,304.182961 L71.3388,301.898436 C71.4732,301.762709 71.4828,301.544106 71.3592,301.398771 L65.394,294.337402 L65.3736,294.314581 L57.9672,286.854441 C57.8424,286.729525 57.6468,286.710307 57.5004,286.807598 L57.7044,287.115084" id="Fill-520" fill="#4F6198"></path>
                    <path d="M68.4804,308.666732 L63.1632,302.601089 C63.0288,302.447346 62.7948,302.432933 62.6424,302.567458 C62.4888,302.701983 62.4732,302.935 62.6076,303.088743 L67.9248,309.154385 C68.0592,309.308128 68.2932,309.323743 68.4456,309.188017 C68.5992,309.053492 68.6148,308.820475 68.4804,308.666732" id="Fill-521" fill="#4F6198"></path>
                    <path d="M64.9944,311.054553 L59.6784,304.988911 C59.544,304.836369 59.31,304.820754 59.1564,304.955279 C59.0028,305.089804 58.9884,305.324022 59.1228,305.477765 L64.44,311.542207 C64.5744,311.69595 64.8072,311.711564 64.9608,311.577039 C65.1144,311.442514 65.13,311.208296 64.9944,311.054553" id="Fill-522" fill="#4F6198"></path>
                    <path d="M61.7196,313.678994 L56.4024,307.613352 C56.268,307.459609 56.034,307.443994 55.8816,307.579721 C55.728,307.714246 55.7124,307.947263 55.8468,308.101006 L61.164,314.166648 C61.2984,314.320391 61.5324,314.334804 61.6848,314.200279 C61.8384,314.065754 61.854,313.832737 61.7196,313.678994" id="Fill-523" fill="#4F6198"></path>
                    <path d="M68.9172,304.034022 L64.9968,299.501006 C64.8624,299.346061 64.6296,299.329246 64.4748,299.46257 C64.3212,299.597095 64.3044,299.830112 64.4376,299.985056 L68.3592,304.518073 C68.4924,304.673017 68.7252,304.689832 68.88,304.555307 C69.0336,304.421983 69.0516,304.188966 68.9172,304.034022" id="Fill-524" fill="#4F6198"></path>
                    <path d="M37.8804,235.870615 C34.3896,243.32595 35.3328,251.017905 38.28,258.070866 C44.7636,273.585698 60.9456,286.006453 60.9456,286.006453 L40.4592,301.289469 C40.4592,301.289469 12.9432,277.975782 11.5308,262.197905" id="Fill-525" fill="#E1E7FB"></path>
                    <path d="M37.5456,235.714469 C35.9544,239.110028 35.2692,242.562039 35.2692,245.973212 C35.2692,250.162709 36.2988,254.292151 37.9392,258.213799 C38.0172,258.402374 38.2332,258.491257 38.4216,258.411983 C38.61,258.332709 38.6988,258.116508 38.6208,257.927933 C37.0092,254.074749 36.0084,250.041397 36.0084,245.973212 C36.0084,242.660531 36.6708,239.323827 38.214,236.027961 C38.3004,235.842989 38.2212,235.623184 38.0364,235.536704 C37.8528,235.450223 37.632,235.529497 37.5456,235.714469" id="Fill-526" fill="#FFFFFF"></path>
                    <path d="M187.2144,245.671732 L190.9332,240.966955 C191.0604,240.804804 191.0328,240.570587 190.872,240.443268 C190.7112,240.314749 190.476,240.342374 190.3488,240.504525 L186.63,245.209302 C186.5028,245.370251 186.5304,245.604469 186.6912,245.732989 C186.8532,245.860307 187.0872,245.832682 187.2144,245.671732" id="Fill-533" fill="#6031DA"></path>
                </g>
                <rect id="Rectangle-Copy-6" fill="#E1E7FB" x="118" y="421" width="216" height="9" rx="4.5"></rect>
                <path d="M122.5,402 L192.5,402 C194.985281,402 197,404.014719 197,406.5 C197,408.985281 194.985281,411 192.5,411 L122.5,411 C120.014719,411 118,408.985281 118,406.5 C118,404.014719 120.014719,402 122.5,402 Z" id="Rectangle-Copy-5" fill="#E1E7FB"></path>
            </g>
        </g>
    </g>
</svg>