<?xml version="1.0" encoding="UTF-8"?>
<svg width="32px" height="32px" viewBox="0 0 32 32" version="1.1" xmlns="http://www.w3.org/2000/svg" xmlns:xlink="http://www.w3.org/1999/xlink">
    <!-- Generator: Sketch 55.2 (78181) - https://sketchapp.com -->
    <title>Orange</title>
    <desc>Created with Sketch.</desc>
    <g id="Homepage" stroke="none" stroke-width="1" fill="none" fill-rule="evenodd">
        <g id="Homepage@2x-Copy-16" transform="translate(-934.000000, -6769.000000)" fill="#FFBF6D">
            <g id="Group-34" transform="translate(466.000000, 6661.000000)">
                <g id="Group-42" transform="translate(359.000000, 0.000000)">
                    <g id="Fill-3">
                        <path d="M125,129.565217 L120.130435,129.565217 L120.130435,123.34858 L124.998429,120.521739 L129.869565,123.351594 L129.869565,129.565217 L125,129.565217 Z M123.173903,108.576894 L112.749088,114.690535 C109.491333,116.601324 109,117.886267 109,121.087912 L109,135.376717 C109,137.951775 110.007081,140 113.849248,140 L115.674201,140 C120.149608,140 120.270915,136.929141 120.270915,135.573263 L120.270915,132.095272 L132.74575,132.095272 L132.74575,121.455883 L125.001907,116.914617 L117.257302,121.455883 L117.257302,135.553313 C117.257302,136.370534 116.956703,137.081354 115.470496,137.081354 L113.72794,137.081354 C112.232578,137.081354 112.013614,136.417824 112.013614,135.514891 L112.013614,120.990377 C112.013614,118.712355 112.302768,118.34734 113.777531,117.482829 L124.00093,111.487413 C124.821091,111.005651 125.178909,111.005651 125.99907,111.487413 L136.222469,117.482829 C137.697232,118.34734 137.986386,118.712355 137.986386,120.990377 L137.986386,135.514891 C137.986386,136.417824 137.76666,137.081354 136.27206,137.081354 L124.432754,137.081354 C122.601698,137.081354 122.600935,140 124.432754,140 L136.149989,140 C139.992919,140 141,137.951775 141,135.376717 L141,121.087912 C141,117.886267 140.508667,116.601324 137.250912,114.690535 L126.82686,108.576894 C125.515366,107.807702 124.484634,107.807702 123.173903,108.576894 L123.173903,108.576894 Z" id="Orange"></path>
                    </g>
                </g>
            </g>
        </g>
    </g>
</svg>