<?xml version="1.0" encoding="UTF-8"?>
<svg width="150px" height="38px" viewBox="0 0 150 38" version="1.1" xmlns="http://www.w3.org/2000/svg" xmlns:xlink="http://www.w3.org/1999/xlink">
    <!-- Generator: Sketch 55.2 (78181) - https://sketchapp.com -->
    <title>Partbnb Logo - RGB</title>
    <desc>Created with Sketch.</desc>
    <g id="Homepage" stroke="none" stroke-width="1" fill="none" fill-rule="evenodd">
        <g id="Home_v7-Copy-13" transform="translate(-39.000000, -66.000000)">
            <g id="Partbnb-Logo---RGB" transform="translate(39.000000, 66.000000)">
                <path d="M142.842068,25.4937779 C140.582096,25.4937779 138.848097,23.8740868 138.848097,21.333588 C138.848097,18.7912995 140.582096,17.1725033 142.842068,17.1725033 C145.102942,17.1725033 146.809876,18.7912995 146.809876,21.333588 C146.809876,23.8740868 145.102942,25.4937779 142.842068,25.4937779 Z M143.193018,14.5317805 C141.486085,14.5317805 139.978534,15.1044889 138.898619,16.3009126 L138.898619,9.5 L135.758115,9.5 L135.758115,27.9841647 L138.747955,27.9841647 L138.747955,26.2651445 C139.802608,27.5358414 141.359779,28.1595567 143.193018,28.1595567 C147.112107,28.1595567 150,25.4687219 150,21.333588 C150,17.1975593 147.112107,14.5317805 143.193018,14.5317805 Z M127.064665,14.5317805 C125.106023,14.5317805 123.473069,15.1796569 122.443676,16.4002418 L122.443676,14.6812216 L119.454739,14.6812216 L119.454739,27.9841647 L122.594341,27.9841647 L122.594341,21.25842 C122.594341,18.5926412 124.100989,17.2467764 126.337504,17.2467764 C128.345767,17.2467764 129.526727,18.3930881 129.526727,20.7599847 L129.526727,27.9841647 L132.665427,27.9841647 L132.665427,20.3608785 C132.665427,16.3501298 130.280953,14.5317805 127.064665,14.5317805 Z M110.209152,25.4937779 C107.948277,25.4937779 106.215181,23.8740868 106.215181,21.333588 C106.215181,18.7912995 107.948277,17.1725033 110.209152,17.1725033 C112.470026,17.1725033 114.176959,18.7912995 114.176959,21.333588 C114.176959,23.8740868 112.470026,25.4937779 110.209152,25.4937779 Z M110.560101,14.5317805 C108.852266,14.5317805 107.344716,15.1044889 106.265703,16.3009126 L106.265703,9.5 L103.125199,9.5 L103.125199,27.9841647 L106.115038,27.9841647 L106.115038,26.2651445 C107.169692,27.5358414 108.726863,28.1595567 110.560101,28.1595567 C114.478289,28.1595567 117.367084,25.4687219 117.367084,21.333588 C117.367084,17.1975593 114.478289,14.5317805 110.560101,14.5317805 Z M100.560288,25.0445597 C100.083935,25.4186099 99.4560144,25.5940018 98.8019306,25.5940018 C97.6218733,25.5940018 96.9443327,24.8951186 96.9443327,23.6002606 L96.9443327,17.2718324 L100.535929,17.2718324 L100.535929,14.7805507 L96.9443327,14.7805507 L96.9443327,11.7416166 L93.8038284,11.7416166 L93.8038284,23.6745337 C93.8038284,26.6141387 95.4873047,28.1595567 98.4257197,28.1595567 C99.5561569,28.1595567 100.686594,27.8597796 101.439918,27.2620152 L100.560288,25.0445597 Z M87.3712527,16.6248509 L87.3712527,14.6812216 L84.3823154,14.6812216 L84.3823154,27.9841647 L87.5219175,27.9841647 L87.5219175,21.5322462 C87.5219175,18.8163555 89.0294679,17.4212735 91.4157459,17.4212735 C91.6412921,17.4212735 91.8677404,17.4472244 92.1429067,17.4964415 L92.1429067,14.5317805 C89.9081956,14.5317805 88.2752416,15.2288741 87.3712527,16.6248509 Z M74.0820747,25.4937779 C71.8212003,25.4937779 70.113365,23.8740868 70.113365,21.333588 C70.113365,18.7912995 71.8212003,17.1725033 74.0820747,17.1725033 C76.3673081,17.1725033 78.0751434,18.7912995 78.0751434,21.333588 C78.0751434,23.8740868 76.3673081,25.4937779 74.0820747,25.4937779 Z M78.0246211,14.6812216 L78.0246211,16.3009126 C76.9456084,15.1044889 75.4380581,14.5317805 73.7302228,14.5317805 C69.8120354,14.5317805 66.9485017,17.1975593 66.9485017,21.333588 C66.9485017,25.4687219 69.8120354,28.1595567 73.7302228,28.1595567 C75.5643639,28.1595567 77.1206322,27.5358414 78.1752859,26.2651445 L78.1752859,27.9841647 L81.1651254,27.9841647 L81.1651254,14.6812216 L78.0246211,14.6812216 Z M58.8080908,25.4937779 C56.5472164,25.4937779 54.8141199,23.8740868 54.8141199,21.333588 C54.8141199,18.7912995 56.5472164,17.1725033 58.8080908,17.1725033 C61.068063,17.1725033 62.7758983,18.7912995 62.7758983,21.333588 C62.7758983,23.8740868 61.068063,25.4937779 58.8080908,25.4937779 Z M59.1590406,14.5317805 C57.3258016,14.5317805 55.7686311,15.1537061 54.7139774,16.4244029 L54.7139774,14.6812216 L51.7241379,14.6812216 L51.7241379,32.8181818 L54.8646422,32.8181818 L54.8646422,26.3653685 C55.9436549,27.5859534 57.4512053,28.1595567 59.1590406,28.1595567 C63.0781301,28.1595567 65.9660228,25.4687219 65.9660228,21.333588 C65.9660228,17.2226153 63.0781301,14.5317805 59.1590406,14.5317805 L59.1590406,14.5317805 Z" id="Fill-1" fill="#2C2C2C"></path>
                <path d="M18.9677781,25.1463653 L13.3599211,25.1463653 L13.3599211,17.9083536 L18.9659694,14.617072 L24.5756351,17.9118634 L24.5756351,25.1463653 L18.9677781,25.1463653 Z M16.8009622,0.685062142 L4.44396213,7.94500984 C0.582399595,10.2140725 0,11.7399426 0,15.5418949 L0,32.509851 C0,35.5677333 1.1937383,38 5.74803078,38 L7.91122928,38 C13.2161299,38 13.3599211,34.3533548 13.3599211,32.7432503 L13.3599211,28.6131351 L28.1469022,28.6131351 L28.1469022,15.9788606 L18.9677781,10.5861076 L9.78774971,15.9788606 L9.78774971,32.7195594 C9.78774971,33.6900093 9.43143692,34.5341076 7.66976858,34.5341076 L5.60423958,34.5341076 C3.83171907,34.5341076 3.57217143,33.7461655 3.57217143,32.6739325 L3.57217143,15.4260727 C3.57217143,12.7209218 3.91491902,12.2874659 5.66302215,11.2608598 L17.7812746,4.14130265 C18.7534478,3.56921105 19.1775867,3.56921105 20.1497599,4.14130265 L32.2680123,11.2608598 C34.0161155,12.2874659 34.3588631,12.7209218 34.3588631,15.4260727 L34.3588631,32.6739325 C34.3588631,33.7461655 34.0984111,34.5341076 32.3267949,34.5341076 L18.2931351,34.5341076 C16.1227018,34.5341076 16.1217975,38 18.2931351,38 L32.1820994,38 C36.7372962,38 37.9310345,35.5677333 37.9310345,32.509851 L37.9310345,15.5418949 C37.9310345,11.7399426 37.3486349,10.2140725 33.4870724,7.94500984 L21.1309766,0.685062142 C19.5764038,-0.228354047 18.3546307,-0.228354047 16.8009622,0.685062142 L16.8009622,0.685062142 Z" id="Fill-3" fill="#10CFBD"></path>
            </g>
        </g>
    </g>
</svg>