<?xml version="1.0" encoding="UTF-8" standalone="no"?>
<svg xmlns="http://www.w3.org/2000/svg" height="19px" width="19px" version="1.1" xmlns:xlink="http://www.w3.org/1999/xlink" viewBox="0 0 19 19"><!-- Generator: Sketch 53 (72520) - https://sketchapp.com -->
 <title>Play</title>
 <desc>Created with Sketch.</desc>
 <g id="Page-1" fill-rule="evenodd" fill="none">
  <g id="Artboard-Copy-10" fill="#fff" transform="translate(-848 -2841)">
   <g id="Play" transform="translate(848 2841)">
    <path id="Combined-Shape" d="m12.627 9.0052c0.356 0.2375 0.356 0.7521 0 0.9896l-4.5718 3.0482c-0.376 0.257-0.9104-0.02-0.9104-0.495v-6.0959c0-0.475 0.5146-0.7521 0.9104-0.4948l4.5718 3.0479zm-3.127-8.9062c5.185 0 9.401 4.2156 9.401 9.401 0 5.185-4.216 9.401-9.401 9.401-5.1854 0-9.401-4.216-9.401-9.401-0.000042-5.1854 4.2156-9.401 9.401-9.401zm0 17.337c4.374 0 7.936-3.562 7.936-7.936s-3.562-7.9365-7.936-7.9365-7.9365 3.5625-7.9365 7.9365 3.5625 7.936 7.9365 7.936z"/>
   </g>
  </g>
 </g>
</svg>
