<?xml version="1.0" encoding="UTF-8" standalone="no"?>
<svg xmlns="http://www.w3.org/2000/svg" height="48px" width="50px" version="1.1" xmlns:xlink="http://www.w3.org/1999/xlink" viewBox="0 0 50 48"><!-- Generator: Sketch 52.3 (67297) - http://www.bohemiancoding.com/sketch -->
 <title>rental-icon</title>
 <desc>Created with Sketch.</desc>
 <g id="Temporary-Homepage-(Instapage)" fill-rule="evenodd" fill="none">
  <g id="Insta" transform="translate(-695 -1128)">
   <g id="Group-4" transform="translate(603 1128)">
    <g id="Group-33">
     <g id="rental-icon" transform="translate(92)">
      <path id="Path" d="m35.227 5.6818c5.013 0 9.091 4.0784 9.091 9.0912 0 0.627 0.508 1.136 1.137 1.136 0.628 0 1.136-0.509 1.136-1.136 0-6.2662-5.098-11.364-11.364-11.364-0.628 0.0001-1.136 0.5092-1.136 1.1365 0 0.6272 0.508 1.1363 1.136 1.1363z"/>
      <path id="Path" fill="#6D5CAE" d="m28.409 12.5c5.013 0 9.091 4.078 9.091 9.091 0 0.627 0.508 1.136 1.136 1.136 0.629 0 1.137-0.509 1.137-1.136 0-6.266-5.098-11.364-11.364-11.364-0.628 0-1.136 0.509-1.136 1.137 0 0.627 0.508 1.136 1.136 1.136z"/>
      <path id="Path" fill="#6D5CAE" d="m25 23.864c-0.628 0-1.136 0.509-1.136 1.136s0.508 1.136 1.136 1.136h2.273v1.137c0 0.627 0.508 1.136 1.136 1.136 0.629 0 1.136-0.509 1.136-1.136v-1.137h2.273c0.629 0 1.137-0.509 1.137-1.136v-3.409c0-0.627-0.508-1.136-1.137-1.136h-5.682v-1.137h5.682c0.629 0 1.137-0.509 1.137-1.136s-0.508-1.137-1.137-1.137h-2.273v-1.136c0-0.627-0.507-1.136-1.136-1.136-0.628 0-1.136 0.509-1.136 1.136v1.136h-2.273c-0.628 0-1.136 0.51-1.136 1.137v3.409c0 0.627 0.508 1.136 1.136 1.136h5.682v1.137h-5.682z"/>
      <path id="Shape" fill-rule="nonzero" fill="#6D5CAE" d="m48.866 20.455c0.744-1.781 1.134-3.714 1.134-5.682 0-8.1457-6.627-14.773-14.773-14.773-5.659 0-10.826 3.2602-13.288 8.3318-4.583 2.2462-7.836 6.7862-8.245 12.123h-9.1485c-0.6285 0-1.1364 0.509-1.1364 1.136v2.273h-2.2727c-0.62845 0-1.1364 0.509-1.1364 1.136v21.591c0 0.627 0.50795 1.136 1.1364 1.136h44.319c0.628 0 1.136-0.509 1.136-1.136v-2.273h2.273c0.628 0 1.136-0.509 1.136-1.136v-21.591c0-0.626-0.507-1.134-1.134-1.136zm-13.639-18.182c6.892 0 12.5 5.608 12.5 12.5 0 2.213-0.579 4.374-1.679 6.251-0.687 1.193-1.545 2.242-2.565 3.126-0.205 0.182-0.415 0.352-0.63 0.518 0.212-0.993 0.329-2.021 0.329-3.077 0-8.146-6.627-14.773-14.773-14.773-1.058 0.0002-2.087 0.1172-3.082 0.3286 2.337-3.0239 5.979-4.8739 9.9-4.8739zm-6.818 6.8182c6.892 0 12.5 5.6081 12.5 12.5 0 6.892-5.608 12.5-12.5 12.5s-12.5-5.608-12.5-12.5 5.608-12.5 12.5-12.5zm-22.727 13.636h7.9982c0.005 0.074 0.019 0.148 0.025 0.222 0.012 0.137 0.03 0.271 0.046 0.407 0.021 0.169 0.032 0.339 0.059 0.508h-8.1282v-1.137zm38.636 22.728h-42.045l-0.0003-19.319h2.2728 9.8135c1.923 5.928 7.491 10.228 14.05 10.228 5.823 0 10.856-3.396 13.26-8.303 0.938-0.453 1.826-1.008 2.649-1.656v16.777 2.273zm2.273-3.41v-17.045c0-0.14-0.033-0.27-0.08-0.394-0.012-0.034-0.026-0.065-0.042-0.097s-0.024-0.068-0.043-0.099c0.024-0.027 0.041-0.059 0.065-0.086 0.394-0.465 0.757-0.958 1.092-1.473 0.028-0.043 0.065-0.079 0.092-0.124l0.052 19.318h-1.136z"/>
      <path id="Path" fill="#6D5CAE" d="m18.182 40.909h-12.5c-0.6286 0-1.1365 0.509-1.1365 1.136 0 0.628 0.5079 1.137 1.1363 1.137h12.5c0.628 0 1.136-0.509 1.136-1.137 0-0.627-0.508-1.136-1.136-1.136z"/>
      <path id="Path" fill="#6D5CAE" d="m18.182 36.364h-12.5c-0.6286 0-1.1365 0.509-1.1365 1.136s0.5079 1.136 1.1363 1.136h12.5c0.628 0 1.136-0.509 1.136-1.136s-0.508-1.136-1.136-1.136z"/>
     </g>
    </g>
   </g>
  </g>
 </g>
</svg>
