<?xml version="1.0" encoding="UTF-8"?>
<svg width="28px" height="42px" viewBox="0 0 28 42" version="1.1" xmlns="http://www.w3.org/2000/svg" xmlns:xlink="http://www.w3.org/1999/xlink">
    <!-- Generator: Sketch 52.5 (67469) - http://www.bohemiancoding.com/sketch -->
    <title>2</title>
    <desc>Created with Sketch.</desc>
    <g id="Blocks" stroke="none" stroke-width="1" fill="none" fill-rule="evenodd" opacity="0.200000003">
        <g id="How-Do-I-Exit-Copy" transform="translate(-1174.000000, -761.000000)" fill="#6580B6">
            <g id="Group-9-Copy" transform="translate(733.000000, 730.000000)">
                <g id="Clip-26">
                    <path d="M469,63.4438202 L469,73 L447.970213,73 C443.680851,73 441,71.2303371 441,66.6292135 C441,60.7303371 458.276596,48.6966292 458.276596,44.0955056 C458.276596,41.3820225 456.965957,40.3202247 454.642553,40.3202247 C452.73617,40.3202247 451.068085,41.6179775 451.068085,43.9775281 C451.068085,45.5702247 451.782979,46.9269663 452.974468,47.8707865 L446.242553,54.4775281 C443.323404,52.2359551 441.53617,49.0505618 441.53617,44.9213483 C441.53617,36.8988764 446.719149,31 454.761702,31 C462.804255,31 468.285106,36.1910112 468.285106,44.6853933 C468.285106,50.5842697 465.12766,52.8258427 454.821277,63.4438202 L469,63.4438202 Z" id="2"></path>
                </g>
            </g>
        </g>
    </g>
</svg>