<?xml version="1.0" encoding="UTF-8"?>
<svg width="28px" height="42px" viewBox="0 0 28 42" version="1.1" xmlns="http://www.w3.org/2000/svg" xmlns:xlink="http://www.w3.org/1999/xlink">
    <!-- Generator: Sketch 52.5 (67469) - http://www.bohemiancoding.com/sketch -->
    <title>3</title>
    <desc>Created with Sketch.</desc>
    <g id="Blocks" stroke="none" stroke-width="1" fill="none" fill-rule="evenodd" opacity="0.200000003">
        <g id="How-Do-I-Exit-Copy" transform="translate(-653.000000, -1073.000000)" fill="#6580B6">
            <g id="Group-9-Copy-2" transform="translate(207.000000, 1050.000000)">
                <g id="Clip-26">
                    <path d="M446,64.6744186 L446,55.0297674 L458.858369,55.0297674 C462.703863,55.0297674 463.905579,53.8390698 463.905579,50.9218605 C463.905579,48.8381395 462.643777,47.052093 460.420601,47.052093 L451.407725,47.052093 L451.407725,40.9795349 L461.021459,32.4065116 L447.141631,32.4065116 L447.141631,23 L463.124464,23 C468.652361,23 471.957082,24.7860465 471.957082,29.7869767 C471.957082,33.5376744 466.7897,37.5860465 464.686695,39.7888372 C470.334764,40.92 474,45.504186 474,51.16 C474,60.6260465 467.690987,64.6744186 458.55794,64.6744186 L446,64.6744186 Z" id="3"></path>
                </g>
            </g>
        </g>
    </g>
</svg>