<?xml version="1.0" encoding="UTF-8"?>
<svg width="28px" height="39px" viewBox="0 0 28 39" version="1.1" xmlns="http://www.w3.org/2000/svg" xmlns:xlink="http://www.w3.org/1999/xlink">
    <!-- Generator: Sketch 52.5 (67469) - http://www.bohemiancoding.com/sketch -->
    <title>4</title>
    <desc>Created with Sketch.</desc>
    <g id="Blocks" stroke="none" stroke-width="1" fill="none" fill-rule="evenodd" opacity="0.200000003">
        <g id="How-Do-I-Exit-Copy" transform="translate(-1189.000000, -1075.000000)" fill="#6580B6">
            <g id="Group-9-Copy-3" transform="translate(739.000000, 1049.000000)">
                <g id="Clip-26">
                    <path d="M478,48.3403871 L478,57.1247141 L473.824092,57.1247141 L473.824092,64.6076593 L465.57935,64.6076593 L465.57935,57.1247141 L455.728489,57.1247141 C452.730402,57.1247141 450,54.847296 450,51.1600476 C450,49.8586658 450.535373,47.9065932 451.606119,46.062969 L462.260038,26.9760363 L471.040153,26.9760363 L459.047801,48.3403871 L465.57935,48.3403871 L465.57935,40.206751 L473.07457,27.0844848 C473.449331,26.4880182 473.717017,26 473.770554,26 C473.824092,26 473.824092,26.6506909 473.824092,27.3013818 L473.824092,48.3403871 L478,48.3403871 Z" id="4"></path>
                </g>
            </g>
        </g>
    </g>
</svg>