<?xml version="1.0" encoding="UTF-8"?>
<svg width="50px" height="55px" viewBox="0 0 50 55" version="1.1" xmlns="http://www.w3.org/2000/svg" xmlns:xlink="http://www.w3.org/1999/xlink">
    <!-- Generator: Sketch 52.5 (67469) - http://www.bohemiancoding.com/sketch -->
    <title>investors-icon</title>
    <desc>Created with Sketch.</desc>
    <g id="Blocks" stroke="none" stroke-width="1" fill="none" fill-rule="evenodd">
        <g id="How-Do-I-Exit-Copy" transform="translate(-958.000000, -783.000000)" fill="#6D5CAE" fill-rule="nonzero">
            <g id="Group-9-Copy" transform="translate(733.000000, 730.000000)">
                <g id="Group-3" transform="translate(78.000000, 53.000000)">
                    <g id="Group-34">
                        <g id="investors-icon" transform="translate(147.000000, 0.000000)">
                            <path d="M24.9208115,9.11492147 C27.4078534,9.11492147 29.4312827,7.09149215 29.4312827,4.60431937 C29.4312827,2.1171466 27.4078534,0.0935863874 24.9208115,0.0935863874 C22.4336387,0.0935863874 20.4102094,2.1171466 20.4102094,4.60431937 C20.4102094,7.09149215 22.4336387,9.11492147 24.9208115,9.11492147 Z M24.9208115,1.66426702 C26.5417539,1.66426702 27.8606021,2.98311518 27.8606021,4.60431937 C27.8606021,6.22539267 26.5418848,7.54424084 24.9208115,7.54424084 C23.2997382,7.54424084 21.9808901,6.22539267 21.9808901,4.60431937 C21.9808901,2.98311518 23.2996073,1.66426702 24.9208115,1.66426702 Z" id="Shape"></path>
                            <path d="M28.9175393,9.63848168 L20.9240838,9.63848168 C18.7697644,9.63848168 17.0168848,11.3912304 17.0168848,13.5458115 L17.0168848,24.9664921 L32.8246073,24.9664921 L32.8246073,13.5458115 C32.8246073,11.3910995 31.0718586,9.63848168 28.9175393,9.63848168 Z M26.3659686,11.2091623 L24.9240838,12.888089 L23.4617801,11.2091623 L26.3659686,11.2091623 Z M31.2539267,23.3956806 L29.6151832,23.3956806 L29.6151832,14.5931937 L28.0445026,14.5931937 L28.0445026,23.3956806 L21.9659686,23.3956806 L21.9659686,14.4884817 L20.395288,14.4884817 L20.395288,23.3956806 L18.5874346,23.3956806 L18.5874346,13.5456806 C18.5874346,12.257199 19.6354712,11.2090314 20.9239529,11.2090314 L21.3787958,11.2090314 L24.9324607,15.2891361 L28.4363874,11.2090314 L28.9175393,11.2090314 C30.2057592,11.2090314 31.2541885,12.257199 31.2541885,13.5456806 L31.2539267,23.3956806 Z" id="Shape"></path>
                            <path d="M8.04620419,32.2825916 C10.533377,32.2825916 12.5568063,30.2591623 12.5568063,27.7718586 C12.5568063,25.2846859 10.533377,23.2611257 8.04620419,23.2611257 C5.55903141,23.2611257 3.53560209,25.2846859 3.53560209,27.7718586 C3.53560209,30.2591623 5.55903141,32.2825916 8.04620419,32.2825916 Z M8.04620419,24.8318063 C9.66727749,24.8318063 10.9861257,26.1506545 10.9861257,27.7718586 C10.9861257,29.3930628 9.66727749,30.711911 8.04620419,30.711911 C6.42513089,30.711911 5.10628272,29.3930628 5.10628272,27.7718586 C5.10615183,26.1506545 6.42513089,24.8318063 8.04620419,24.8318063 Z" id="Shape"></path>
                            <path d="M12.0429319,32.8061518 L4.04947644,32.8061518 C1.89489529,32.8061518 0.142146597,34.5589005 0.142146597,36.7134817 L0.142146597,48.1341623 L15.95,48.1341623 L15.95,36.7133508 C15.9501309,34.5587696 14.1973822,32.8061518 12.0429319,32.8061518 Z M9.49149215,34.3768325 L8.04947644,36.0556283 L6.58717277,34.3768325 L9.49149215,34.3768325 Z M14.3794503,46.5632199 L12.7407068,46.5632199 L12.7407068,37.760733 L11.1700262,37.760733 L11.1700262,46.5632199 L5.09149215,46.5632199 L5.09149215,37.6558901 L3.52081152,37.6558901 L3.52081152,46.5632199 L1.71295812,46.5632199 L1.71295812,36.7132199 C1.71295812,35.4248691 2.76112565,34.3764398 4.04960733,34.3764398 L4.50445026,34.3764398 L8.05798429,38.4568063 L11.5620419,34.3764398 L12.0430628,34.3764398 C13.3314136,34.3764398 14.3795812,35.4248691 14.3795812,36.7132199 L14.3794503,46.5632199 Z" id="Shape"></path>
                            <path d="M41.795288,31.6230366 C44.2823298,31.6230366 46.3058901,29.5996073 46.3058901,27.1124346 C46.3058901,24.6252618 44.2823298,22.6018325 41.795288,22.6018325 C39.3079843,22.6018325 37.2844241,24.6252618 37.2844241,27.1124346 C37.284555,29.5996073 39.3079843,31.6230366 41.795288,31.6230366 Z M41.795288,24.1723822 C43.4163613,24.1723822 44.7352094,25.4912304 44.7352094,27.1123037 C44.7352094,28.733377 43.4163613,30.052356 41.795288,30.052356 C40.173822,30.052356 38.8551047,28.7335079 38.8551047,27.1124346 C38.8551047,25.4913613 40.1740838,24.1723822 41.795288,24.1723822 Z" id="Shape"></path>
                            <path d="M45.7918848,32.1465969 L37.798822,32.1465969 C35.6443717,32.1465969 33.8913613,33.8994764 33.8913613,36.0539267 L33.8913613,47.4746073 L49.6990838,47.4746073 L49.6990838,36.0536649 C49.6990838,33.8992147 47.946466,32.1465969 45.7918848,32.1465969 Z M43.240445,33.7172775 L41.7984293,35.3962042 L40.3362565,33.7172775 L43.240445,33.7172775 Z M48.1284031,45.9036649 L46.4896597,45.9036649 L46.4896597,37.101178 L44.9189791,37.101178 L44.9189791,45.9036649 L38.8405759,45.9036649 L38.8405759,36.9963351 L37.2698953,36.9963351 L37.2698953,45.9036649 L35.4620419,45.9036649 L35.4620419,36.0536649 C35.4620419,34.7653141 36.5104712,33.7171466 37.798822,33.7171466 L38.2536649,33.7171466 L41.807199,37.7972513 L45.3112565,33.7171466 L45.7921466,33.7171466 C47.0807592,33.7171466 48.1289267,34.7653141 48.1289267,36.0536649 L48.1289267,45.9036649 L48.1284031,45.9036649 Z" id="Shape"></path>
                            <path d="M25.4113874,54.0948953 C25.0192408,54.0948953 24.6210733,54.0854712 24.2277487,54.0670157 L24.3014398,52.4981675 C25.2717277,52.5437173 26.2510471,52.5290576 27.2124346,52.4549738 L27.3329843,54.0210733 C26.6969895,54.0701571 26.0503927,54.0948953 25.4113874,54.0948953 Z M21.5405759,53.7971204 C20.5176702,53.6391361 19.4967277,53.4163613 18.5062827,53.1348168 L18.9356021,51.6239529 C19.8640052,51.8878272 20.8210733,52.096466 21.7802356,52.2447644 L21.5405759,53.7971204 Z M30.0108639,53.6676702 L29.7212042,52.1240838 C30.6718586,51.9458115 31.6209424,51.7056283 32.5422775,51.4098168 L33.0221204,52.9057592 C32.0386126,53.2210733 31.0255236,53.4774869 30.0108639,53.6676702 Z M15.9510471,52.2565445 C14.9942408,51.8684555 14.0522251,51.4157068 13.1509162,50.9111257 L13.9181937,49.5405759 C14.7625654,50.0132199 15.6451571,50.4374346 16.5414921,50.801178 L15.9510471,52.2565445 Z M35.5459424,51.9425393 L34.907199,50.5074607 C35.7908377,50.114267 36.6594241,49.6615183 37.4886126,49.1615183 L38.2994764,50.5066754 C37.4149215,51.0399215 36.4883508,51.5231675 35.5459424,51.9425393 Z" id="Shape"></path>
                            <path d="M49.9883508,28.975 L48.4176702,28.9675393 L48.4179319,28.8494764 C48.4179319,27.9189791 48.3623037,26.9807592 48.2526178,26.0609948 L49.8123037,25.8751309 C49.9293194,26.8562827 49.9886126,27.8570681 49.9886126,28.8494764 L49.9883508,28.975 Z M47.8175393,23.5680628 C47.5997382,22.6267016 47.3205497,21.689267 46.9870419,20.7816754 L48.4615183,20.2400524 C48.8172775,21.2087696 49.115445,22.2094241 49.3477749,23.2143979 L47.8175393,23.5680628 Z M45.9876963,18.4578534 C45.558377,17.591623 45.0697644,16.7430628 44.5359948,15.935733 L45.8463351,15.0695026 C46.4158377,15.9306283 46.9366492,16.8358639 47.3950262,17.7600785 L45.9876963,18.4578534 Z M43.028534,13.9019634 C42.4113874,13.1565445 41.7414921,12.4418848 41.0373037,11.7778796 L42.1147906,10.6352094 C42.8655759,11.3431937 43.5799738,12.1052356 44.2384817,12.9003927 L43.028534,13.9019634 Z M39.1044503,10.1422775 C38.3325916,9.55706806 37.516623,9.01505236 36.6799738,8.53089005 L37.4662304,7.17120419 C38.3592932,7.68769634 39.2298429,8.26609948 40.053534,8.89044503 L39.1044503,10.1422775 Z M34.4222513,7.38363874 C33.5367801,6.99253927 32.6179319,6.65353403 31.6907068,6.37604712 L32.1409686,4.87133508 C33.1307592,5.16767016 34.1116492,5.52931937 35.0568063,5.94698953 L34.4222513,7.38363874 Z" id="Shape"></path>
                            <path d="M0.0116492147,29.0179319 L0.0113874346,28.8924084 C0.0113874346,27.9 0.0706806283,26.8990838 0.187565445,25.9181937 L1.74725131,26.1040576 C1.63756545,27.0236911 1.58206806,27.9617801 1.58206806,28.8924084 L1.58232984,29.0104712 L0.0116492147,29.0179319 Z M2.18246073,23.6111257 L0.652225131,23.2574607 C0.884554974,22.2524869 1.18272251,21.2518325 1.53848168,20.2829843 L3.01282723,20.8246073 C2.67945026,21.7320681 2.40013089,22.6696335 2.18246073,23.6111257 Z M4.01230366,18.5007853 L2.60510471,17.8030105 C3.06348168,16.8789267 3.58442408,15.9736911 4.1539267,15.1125654 L5.46413613,15.9787958 C4.9302356,16.7859948 4.44188482,17.6346859 4.01230366,18.5007853 Z M6.97133508,13.9450262 L5.76151832,12.9434555 C6.4197644,12.1484293 7.1341623,11.3862565 7.88507853,10.6782723 L8.96256545,11.8209424 C8.25850785,12.4849476 7.58861257,13.1994764 6.97133508,13.9450262 Z M10.8955497,10.1853403 L9.94672775,8.93363874 C10.7704188,8.30929319 11.6408377,7.73089005 12.5339005,7.21426702 L13.3204188,8.57395288 C12.483377,9.05798429 11.6675393,9.60026178 10.8955497,10.1853403 Z M15.5776178,7.42657068 L14.9429319,5.98979058 C15.8882199,5.5723822 16.8692408,5.2104712 17.8589005,4.91426702 L18.3092932,6.41897906 C17.3820681,6.69659686 16.463089,7.03560209 15.5776178,7.42657068 Z" id="Shape"></path>
                        </g>
                    </g>
                </g>
            </g>
        </g>
    </g>
</svg>