<?xml version="1.0" encoding="UTF-8"?>
<svg width="50px" height="38px" viewBox="0 0 50 38" version="1.1" xmlns="http://www.w3.org/2000/svg" xmlns:xlink="http://www.w3.org/1999/xlink">
    <!-- Generator: Sketch 52.5 (67469) - http://www.bohemiancoding.com/sketch -->
    <title>Marketplace-icon</title>
    <desc>Created with Sketch.</desc>
    <g id="Blocks" stroke="none" stroke-width="1" fill="none" fill-rule="evenodd">
        <g id="How-Do-I-Exit-Copy" transform="translate(-432.000000, -793.000000)" fill="#6D5CAE">
            <g id="Group-9" transform="translate(207.000000, 735.000000)">
                <g id="Group-3" transform="translate(99.000000, 28.000000)">
                    <g id="Group-34">
                        <g id="Marketplace-icon" transform="translate(126.000000, 30.000000)">
                            <path d="M25,19.4094488 C24.1141732,19.4094488 23.3858268,18.6909449 23.3858268,17.7952756 L21.7716535,17.7952756 C21.7716535,19.2913386 22.8051181,20.5413386 24.1929134,20.9055118 L24.1929134,21.8307087 L25.8070866,21.8307087 L25.8070866,20.9055118 C27.1948819,20.5413386 28.2283465,19.2913386 28.2283465,17.7952756 C28.2283465,16.0137795 26.7814961,14.5669291 25,14.5669291 C24.1141732,14.5669291 23.3858268,13.8484252 23.3858268,12.9527559 C23.3858268,12.0669291 24.1141732,11.3385827 25,11.3385827 C25.8858268,11.3385827 26.6141732,12.0570866 26.6141732,12.9527559 L28.2283465,12.9527559 C28.2283465,11.4566929 27.1948819,10.2066929 25.8070866,9.84251969 L25.8070866,8.91732283 L24.1929134,8.91732283 L24.1929134,9.84251969 C22.8051181,10.2066929 21.7716535,11.4566929 21.7716535,12.9527559 C21.7716535,14.734252 23.2185039,16.1811024 25,16.1811024 C25.8858268,16.1811024 26.6141732,16.8996063 26.6141732,17.7952756 C26.6141732,18.6811024 25.8858268,19.4094488 25,19.4094488 Z" id="Path"></path>
                            <path d="M41.9389764,4.89173228 L8.06102362,4.89173228 L8.06102362,25.8562992 L41.9291339,25.8562992 L41.9291339,4.89173228 L41.9389764,4.89173228 Z M40.3248031,24.2519685 L9.67519685,24.2519685 L9.67519685,6.50590551 L40.3248031,6.50590551 L40.3248031,24.2519685 Z" id="Shape" fill-rule="nonzero"></path>
                            <path d="M46.7716535,29.0846457 L46.7716535,0.0492125984 L3.22834646,0.0492125984 L3.22834646,29.0846457 L0,29.0846457 L0,33.1200787 C0,35.3444882 1.81102362,37.1555118 4.03543307,37.1555118 L45.9645669,37.1555118 C48.1889764,37.1555118 50,35.3444882 50,33.1200787 L50,29.0846457 L46.7716535,29.0846457 Z M4.84251969,1.66338583 L45.1673228,1.66338583 L45.1673228,29.0846457 L30.6496063,29.0846457 L30.6496063,31.5059055 L19.3503937,31.5059055 L19.3503937,29.0846457 L4.84251969,29.0846457 L4.84251969,1.66338583 Z M48.3858268,33.1200787 C48.3858268,34.4586614 47.3031496,35.5413386 45.9645669,35.5413386 L4.03543307,35.5413386 C2.69685039,35.5413386 1.61417323,34.4586614 1.61417323,33.1200787 L1.61417323,30.6988189 L17.746063,30.6988189 L17.746063,33.1200787 L32.2637795,33.1200787 L32.2637795,30.6988189 L48.3956693,30.6988189 L48.3956693,33.1200787 L48.3858268,33.1200787 Z" id="Shape" fill-rule="nonzero"></path>
                            <rect id="Rectangle" x="35.4822835" y="32.3129921" width="9.67519685" height="1.61417323"></rect>
                        </g>
                    </g>
                </g>
            </g>
        </g>
    </g>
</svg>