<?xml version="1.0" encoding="UTF-8"?>
<svg width="50px" height="50px" viewBox="0 0 50 50" version="1.1" xmlns="http://www.w3.org/2000/svg" xmlns:xlink="http://www.w3.org/1999/xlink">
    <!-- Generator: Sketch 52.5 (67469) - http://www.bohemiancoding.com/sketch -->
    <title>receiving-icon</title>
    <desc>Created with Sketch.</desc>
    <g id="Blocks" stroke="none" stroke-width="1" fill="none" fill-rule="evenodd">
        <g id="How-Do-I-Exit-Copy" transform="translate(-432.000000, -1103.000000)" fill="#6D5CAE" fill-rule="nonzero">
            <g id="Group-9-Copy-2" transform="translate(207.000000, 1050.000000)">
                <g id="Group-3" transform="translate(74.000000, 53.000000)">
                    <g id="Group-34">
                        <g id="receiving-icon" transform="translate(151.000000, 0.000000)">
                            <path d="M23.3333333,45 L21.9891667,45 L23.0725,41.7383333 C23.2432734,41.2279241 23.3302331,40.6932203 23.33,40.155 L23.33,34.2258333 C23.3339651,32.8990169 22.8063457,31.6258873 21.865,30.6908333 L15.1691667,23.9941667 C14.3310625,23.1534404 13.0949444,22.8485882 11.9620396,23.2032229 C10.8291347,23.5578577 9.98747216,24.5131205 9.77833333,25.6816667 L6.66666667,22.955 L6.66666667,10.8333333 C6.66666667,8.99238417 5.1742825,7.5 3.33333333,7.5 C1.49238417,7.5 -7.56193428e-16,8.99238417 -1.12626784e-15,10.8333333 L-1.12626784e-15,24.6541667 C-0.000415962396,25.5794795 0.256674279,26.4866532 0.7425,27.2741667 L6.17166667,36.0991667 C6.49613272,36.6251453 6.6675486,37.231161 6.66666667,37.8491667 L6.66666667,45 L5.83333333,45 C5.37309604,45 5,45.373096 5,45.8333333 L5,49.1666667 C5,49.626904 5.37309604,50 5.83333333,50 L23.3333333,50 C23.7935706,50 24.1666667,49.626904 24.1666667,49.1666667 L24.1666667,45.8333333 C24.1666667,45.373096 23.7935706,45 23.3333333,45 Z M7.59083333,35.2258333 L2.16166667,26.4008333 C1.83779638,25.8758184 1.66640399,25.2710399 1.66666667,24.6541667 L1.66666667,10.8333333 C1.66666667,9.91285875 2.41285875,9.16666667 3.33333333,9.16666667 C4.25380792,9.16666667 5,9.91285875 5,10.8333333 L5,23.3333333 C4.9994757,23.5737008 5.10349335,23.8024179 5.285,23.96 L11.9283333,29.7741667 L16.0775,33.9225 L17.2558333,32.7441667 L11.8391667,27.3275 C11.2656876,26.7288413 11.2758606,25.7816021 11.8620647,25.195398 C12.4482687,24.6091939 13.395508,24.5990209 13.9941667,25.1725 L20.69,31.8691667 C21.3175901,32.4925183 21.6693412,33.3412829 21.6666667,34.2258333 L21.6666667,40.1566667 C21.6680903,40.5147264 21.6118136,40.8706767 21.5,41.2108333 L20.2333333,45 L8.33333333,45 L8.33333333,37.8458333 C8.3337493,36.9205205 8.07665905,36.0133468 7.59083333,35.2258333 Z M22.5,48.3333333 L6.66666667,48.3333333 L6.66666667,46.6666667 L22.5,46.6666667 L22.5,48.3333333 Z" id="Shape"></path>
                            <path d="M13.3333333,19.1666667 L36.6666667,19.1666667 C37.126904,19.1666667 37.5,18.7935706 37.5,18.3333333 L37.5,0.833333333 C37.5,0.373096042 37.126904,0 36.6666667,0 L13.3333333,0 C12.873096,0 12.5,0.373096042 12.5,0.833333333 L12.5,18.3333333 C12.5,18.7935706 12.873096,19.1666667 13.3333333,19.1666667 Z M28.3333333,1.66666667 L28.3333333,5 L21.6666667,5 L21.6666667,1.66666667 L28.3333333,1.66666667 Z M14.1666667,1.66666667 L20,1.66666667 L20,5.83333333 C20,6.29357062 20.373096,6.66666667 20.8333333,6.66666667 L29.1666667,6.66666667 C29.626904,6.66666667 30,6.29357062 30,5.83333333 L30,1.66666667 L35.8333333,1.66666667 L35.8333333,17.5 L14.1666667,17.5 L14.1666667,1.66666667 Z" id="Shape"></path>
                            <rect id="Rectangle" x="15.8333333" y="14.1666667" width="1.66666667" height="1.66666667"></rect>
                            <rect id="Rectangle" x="19.1666667" y="14.1666667" width="1.66666667" height="1.66666667"></rect>
                            <rect id="Rectangle" x="22.5" y="14.1666667" width="1.66666667" height="1.66666667"></rect>
                            <rect id="Rectangle" x="13.3333333" y="20" width="23.3333333" height="1.66666667"></rect>
                            <path d="M46.6666667,7.5 C44.8257175,7.5 43.3333333,8.99238417 43.3333333,10.8333333 L43.3333333,22.955 L40.2183333,25.6816667 C40.0091945,24.5131205 39.167532,23.5578577 38.0346271,23.2032229 C36.9017222,22.8485882 35.6656042,23.1534404 34.8275,23.9941667 L28.1316667,30.69 C27.1904305,31.6254687 26.6628511,32.8988018 26.6666667,34.2258333 L26.6666667,40.1566667 C26.6664336,40.694887 26.7533933,41.2295908 26.9241667,41.74 L28.0108333,45 L26.6666667,45 C26.2064294,45 25.8333333,45.373096 25.8333333,45.8333333 L25.8333333,49.1666667 C25.8333333,49.626904 26.2064294,50 26.6666667,50 L44.1666667,50 C44.626904,50 45,49.626904 45,49.1666667 L45,45.8333333 C45,45.373096 44.626904,45 44.1666667,45 L43.3333333,45 L43.3333333,37.8458333 C43.3324514,37.2278277 43.5038673,36.621812 43.8283333,36.0958333 L49.2575,27.2708333 C49.7427309,26.4842838 49.9997977,25.578347 50,24.6541667 L50,10.8333333 C50,8.99238417 48.5076158,7.5 46.6666667,7.5 Z M43.3333333,48.3333333 L27.5,48.3333333 L27.5,46.6666667 L43.3333333,46.6666667 L43.3333333,48.3333333 Z M48.3333333,24.6541667 C48.3342153,25.2721723 48.1627994,25.878188 47.8383333,26.4041667 L42.4091667,35.2291667 C41.9239357,36.0157162 41.666869,36.921653 41.6666667,37.8458333 L41.6666667,45 L29.7666667,45 L28.5041667,41.2108333 C28.3923531,40.8706767 28.3360763,40.5147264 28.3375,40.1566667 L28.3375,34.2258333 C28.3348255,33.3412829 28.6865766,32.4925183 29.3141667,31.8691667 L36.01,25.1725 C36.6086587,24.5990209 37.5558979,24.6091939 38.142102,25.195398 C38.7283061,25.7816021 38.7384791,26.7288413 38.165,27.3275 L32.7483333,32.7441667 L33.9266667,33.9225 L38.0758333,29.7741667 L44.7191667,23.96 C44.8991255,23.8016469 45.0015738,23.5730381 45,23.3333333 L45,10.8333333 C45,9.91285875 45.7461921,9.16666667 46.6666667,9.16666667 C47.5871412,9.16666667 48.3333333,9.91285875 48.3333333,10.8333333 L48.3333333,24.6541667 Z" id="Shape"></path>
                        </g>
                    </g>
                </g>
            </g>
        </g>
    </g>
</svg>