<?xml version="1.0" encoding="UTF-8"?>
<svg width="51px" height="45px" viewBox="0 0 51 45" version="1.1" xmlns="http://www.w3.org/2000/svg" xmlns:xlink="http://www.w3.org/1999/xlink">
    <!-- Generator: Sketch 52.5 (67469) - http://www.bohemiancoding.com/sketch -->
    <title>ACH-icon</title>
    <desc>Created with Sketch.</desc>
    <g id="Blocks" stroke="none" stroke-width="1" fill="none" fill-rule="evenodd">
        <g id="Our-Fees" transform="translate(-958.000000, -962.000000)" fill="#6D5CAE" fill-rule="nonzero">
            <g id="Group-9-Copy" transform="translate(732.000000, 906.000000)">
                <g id="ACH-icon" transform="translate(251.900635, 78.985572) rotate(-360.000000) translate(-251.900635, -78.985572) translate(226.900635, 56.485572)">
                    <path d="M49.3883333,8.36333333 L29.1666667,2.785 L29.1666667,0.833333333 L27.5,0.833333333 L27.5,2.325 L25.8333333,1.86583333 L25.8333333,0 L24.1666667,0 L24.1666667,1.86583333 L22.5,2.325 L22.5,0.833333333 L20.8333333,0.833333333 L20.8333333,2.785 L0.611666667,8.36333333 C0.250296464,8.46305031 -1.01108631e-05,8.79179082 0,9.16666667 L0,12.5 C0,12.9602373 0.373096042,13.3333333 0.833333333,13.3333333 L2.5,13.3333333 L2.5,15.8333333 C2.5,16.2935706 2.87309604,16.6666667 3.33333333,16.6666667 L4.16666667,16.6666667 L4.16666667,35.8333333 L2.5,35.8333333 C2.03976271,35.8333333 1.66666667,36.2064294 1.66666667,36.6666667 L1.66666667,39.1666667 L0.833333333,39.1666667 C0.373096042,39.1666667 0,39.5397627 0,40 L0,43.3333333 C0,43.7935706 0.373096042,44.1666667 0.833333333,44.1666667 L49.1666667,44.1666667 C49.626904,44.1666667 50,43.7935706 50,43.3333333 L50,40 C50,39.5397627 49.626904,39.1666667 49.1666667,39.1666667 L48.3333333,39.1666667 L48.3333333,36.6666667 C48.3333333,36.2064294 47.9602373,35.8333333 47.5,35.8333333 L45.8333333,35.8333333 L45.8333333,16.6666667 L46.6666667,16.6666667 C47.126904,16.6666667 47.5,16.2935706 47.5,15.8333333 L47.5,13.3333333 L49.1666667,13.3333333 C49.626904,13.3333333 50,12.9602373 50,12.5 L50,9.16666667 C50.0000101,8.79179082 49.7497035,8.46305031 49.3883333,8.36333333 Z M48.3333333,40.8333333 L48.3333333,42.5 L1.66666667,42.5 L1.66666667,40.8333333 L48.3333333,40.8333333 Z M46.6666667,37.5 L46.6666667,39.1666667 L3.33333333,39.1666667 L3.33333333,37.5 L46.6666667,37.5 Z M9.16666667,20 L9.16666667,32.5 L5.83333333,32.5 L5.83333333,20 L9.16666667,20 Z M5.83333333,18.3333333 L5.83333333,16.6666667 L9.16666667,16.6666667 L9.16666667,18.3333333 L5.83333333,18.3333333 Z M9.16666667,34.1666667 L9.16666667,35.8333333 L5.83333333,35.8333333 L5.83333333,34.1666667 L9.16666667,34.1666667 Z M10.8333333,35.8333333 L10.8333333,16.6666667 L15.8333333,16.6666667 L15.8333333,35.8333333 L10.8333333,35.8333333 Z M20.8333333,20 L20.8333333,32.5 L17.5,32.5 L17.5,20 L20.8333333,20 Z M17.5,18.3333333 L17.5,16.6666667 L20.8333333,16.6666667 L20.8333333,18.3333333 L17.5,18.3333333 Z M20.8333333,34.1666667 L20.8333333,35.8333333 L17.5,35.8333333 L17.5,34.1666667 L20.8333333,34.1666667 Z M22.5,35.8333333 L22.5,16.6666667 L27.5,16.6666667 L27.5,35.8333333 L22.5,35.8333333 Z M32.5,20 L32.5,32.5 L29.1666667,32.5 L29.1666667,20 L32.5,20 Z M29.1666667,18.3333333 L29.1666667,16.6666667 L32.5,16.6666667 L32.5,18.3333333 L29.1666667,18.3333333 Z M32.5,34.1666667 L32.5,35.8333333 L29.1666667,35.8333333 L29.1666667,34.1666667 L32.5,34.1666667 Z M34.1666667,35.8333333 L34.1666667,16.6666667 L39.1666667,16.6666667 L39.1666667,35.8333333 L34.1666667,35.8333333 Z M44.1666667,20 L44.1666667,32.5 L40.8333333,32.5 L40.8333333,20 L44.1666667,20 Z M40.8333333,18.3333333 L40.8333333,16.6666667 L44.1666667,16.6666667 L44.1666667,18.3333333 L40.8333333,18.3333333 Z M44.1666667,34.1666667 L44.1666667,35.8333333 L40.8333333,35.8333333 L40.8333333,34.1666667 L44.1666667,34.1666667 Z M45.8333333,15 L4.16666667,15 L4.16666667,13.3333333 L45.8333333,13.3333333 L45.8333333,15 Z M48.3333333,11.6666667 L1.66666667,11.6666667 L1.66666667,9.80166667 L25,3.36416667 L48.3333333,9.80166667 L48.3333333,11.6666667 Z" id="Shape"></path>
                    <path d="M22.5,7.5 C22.5,8.88071187 23.6192881,10 25,10 C26.3807119,10 27.5,8.88071187 27.5,7.5 C27.5,6.11928813 26.3807119,5 25,5 C23.6192881,5 22.5,6.11928813 22.5,7.5 Z M25.8333333,7.5 C25.8333333,7.96023729 25.4602373,8.33333333 25,8.33333333 C24.5397627,8.33333333 24.1666667,7.96023729 24.1666667,7.5 C24.1666667,7.03976271 24.5397627,6.66666667 25,6.66666667 C25.4602373,6.66666667 25.8333333,7.03976271 25.8333333,7.5 Z" id="Shape"></path>
                </g>
            </g>
        </g>
    </g>
</svg>