<?xml version="1.0" encoding="UTF-8"?>
<svg width="50px" height="50px" viewBox="0 0 50 50" version="1.1" xmlns="http://www.w3.org/2000/svg" xmlns:xlink="http://www.w3.org/1999/xlink">
    <!-- Generator: Sketch 52.5 (67469) - http://www.bohemiancoding.com/sketch -->
    <title>Keylobby-icon</title>
    <desc>Created with Sketch.</desc>
    <g id="Blocks" stroke="none" stroke-width="1" fill="none" fill-rule="evenodd">
        <g id="Our-Fees" transform="translate(-436.000000, -961.000000)" fill="#6D5CAE">
            <g id="Group-9" transform="translate(208.000000, 906.000000)">
                <g id="Keylobby-icon" transform="translate(252.771470, 80.271470) rotate(-330.000000) translate(-252.771470, -80.271470) translate(228.271470, 55.771470)">
                    <path d="M33.5299765,33.482126 L30.9632376,30.3626927 C30.9597581,30.3668395 30.9562745,30.3709827 30.9527867,30.3751223 L28.7712911,27.7252081 C28.7744475,27.7202219 28.7775946,27.7152291 28.7807322,27.7102298 L28.7712744,27.6987353 L28.8010042,27.6776278 C29.2310739,26.9794776 29.4791667,26.1572663 29.4791667,25.2771098 C29.4791667,22.7458047 27.4271384,20.6937765 24.8958333,20.6937765 C22.3645282,20.6937765 20.3125,22.7458047 20.3125,25.2771098 C20.3125,27.8084149 22.3645282,29.8604431 24.8958333,29.8604431 C24.9548001,29.8604431 25.0135067,29.8593296 25.0719334,29.8571224 L26.2769792,33.073714 C26.2739122,33.0742536 26.2708446,33.0747915 26.2677764,33.0753275 L27.7125281,36.938226 C27.7162342,36.9372363 27.7199395,36.936245 27.7236442,36.9352521 L28.8976687,40.0690395 C27.4952899,40.4757631 26.0126882,40.6937765 24.4791667,40.6937765 C15.7346581,40.6937765 8.64583333,33.6049517 8.64583333,24.8604431 C8.64583333,16.1159346 15.7346581,9.0271098 24.4791667,9.0271098 C33.2236752,9.0271098 40.3125,16.1159346 40.3125,24.8604431 C40.3125,29.2453358 38.5300335,33.2139112 35.6501496,36.0811201 L33.5195609,33.4930436 C33.5230349,33.4894065 33.5265068,33.4857673 33.5299765,33.482126 Z M35.5145688,30.7368067 C36.4493159,28.9850749 36.9791667,26.9846357 36.9791667,24.8604431 C36.9791667,17.9568838 31.382726,12.3604431 24.4791667,12.3604431 C17.5756073,12.3604431 11.9791667,17.9568838 11.9791667,24.8604431 C11.9791667,31.7640025 17.5756073,37.3604431 24.4791667,37.3604431 C24.5055778,37.3604431 24.5319699,37.3603612 24.5583426,37.3601976 L22.9283733,32.9473703 C19.5079228,32.0726139 16.9791667,28.9701731 16.9791667,25.2771098 C16.9791667,20.9048555 20.5235791,17.3604431 24.8958333,17.3604431 C29.2680876,17.3604431 32.8125,20.9048555 32.8125,25.2771098 C32.8125,25.9952031 32.7168918,26.6909658 32.5377104,27.3523631 L35.5145688,30.7368067 Z M24.4791667,48.9583333 C10.9596962,48.9583333 -5.68434189e-14,37.9986371 -5.68434189e-14,24.4791667 C-5.68434189e-14,10.9596962 10.9596962,2.27373675e-13 24.4791667,2.27373675e-13 C37.9986371,2.27373675e-13 48.9583333,10.9596962 48.9583333,24.4791667 C48.9583333,37.9986371 37.9986371,48.9583333 24.4791667,48.9583333 Z M24.4791667,45.8333333 C36.2727473,45.8333333 45.8333333,36.2727473 45.8333333,24.4791667 C45.8333333,12.6855861 36.2727473,3.125 24.4791667,3.125 C12.6855861,3.125 3.125,12.6855861 3.125,24.4791667 C3.125,36.2727473 12.6855861,45.8333333 24.4791667,45.8333333 Z" id="Combined-Shape"></path>
                </g>
            </g>
        </g>
    </g>
</svg>