<?xml version="1.0" encoding="UTF-8"?>
<svg width="25px" height="25px" viewBox="0 0 25 25" version="1.1" xmlns="http://www.w3.org/2000/svg" xmlns:xlink="http://www.w3.org/1999/xlink">
    <!-- Generator: Sketch 55.2 (78181) - https://sketchapp.com -->
    <title>icn-selling</title>
    <desc>Created with Sketch.</desc>
    <g id="a" stroke="none" stroke-width="1" fill="none" fill-rule="evenodd">
        <g id="Artboard" transform="translate(-603.000000, -73.000000)" fill="#788195">
            <g id="icn-selling" transform="translate(603.000000, 73.000000)">
                <path d="M3.92156863,0 L21.0784314,0 L25,7.4754902 L25,9.43627451 C25,11.3970588 23.6519608,13.1127451 21.9362745,13.1127451 C20.2205882,13.1127451 18.75,11.3970588 18.75,9.43627451 C18.75,11.3970588 17.4019608,13.1127451 15.6862745,13.1127451 C13.9705882,13.1127451 12.5,11.3970588 12.5,9.43627451 C12.5,11.3970588 11.1519608,13.1127451 9.43627451,13.1127451 C7.72058824,13.1127451 6.25,11.3970588 6.25,9.43627451 C6.25,11.3970588 4.90196078,13.1127451 3.18627451,13.1127451 C1.34803922,13.1127451 0,11.3970588 0,9.43627451 L0,7.4754902 L3.92156863,0 Z" id="Path"></path>
                <path d="M22.0588235,14.2156863 L22.0588235,24.754902 L3.06372549,24.754902 L3.06372549,14.2156863 C4.28921569,14.2156863 5.39215686,13.7254902 6.25,12.745098 C6.98529412,13.6029412 8.08823529,14.2156863 9.43627451,14.2156863 C10.6617647,14.2156863 11.7647059,13.6029412 12.5,12.745098 C13.2352941,13.6029412 14.3382353,14.2156863 15.6862745,14.2156863 C16.9117647,14.2156863 18.0147059,13.6029412 18.75,12.745098 C19.6078431,13.7254902 20.7107843,14.2156863 22.0588235,14.2156863 Z M8.33333333,16.5441176 L5.14705882,16.5441176 L5.14705882,19.7303922 L8.33333333,19.7303922 L8.33333333,16.5441176 Z M16.6666667,16.5441176 L19.8529412,16.5441176 L19.8529412,19.7303922 L16.6666667,19.7303922 L16.6666667,16.5441176 Z M10.1715686,16.5441176 L14.9509804,16.5441176 L14.9509804,23.0392157 L10.1715686,23.0392157 L10.1715686,16.5441176 Z" id="Shape"></path>
            </g>
        </g>
    </g>
</svg>