<?xml version="1.0" encoding="UTF-8"?>
<svg width="25px" height="25px" viewBox="0 0 25 25" version="1.1" xmlns="http://www.w3.org/2000/svg" xmlns:xlink="http://www.w3.org/1999/xlink">
    <!-- Generator: Sketch 55.2 (78181) - https://sketchapp.com -->
    <title>icn-management</title>
    <desc>Created with Sketch.</desc>
    <g id="a" stroke="none" stroke-width="1" fill="none" fill-rule="evenodd">
        <g id="Artboard" transform="translate(-827.000000, -73.000000)" fill="#788195">
            <g id="icn-management" transform="translate(827.000000, 73.000000)">
                <path d="M11.9650901,11.0266517 L11.5740741,11.9650901 C12.1996997,12.5125125 12.7471221,13.2163413 13.1381381,13.9983734 L14.1547798,13.841967 C15.0932182,13.6855606 15.6406406,17.5175175 14.7022022,17.6739239 L13.6855606,17.7521271 C13.6073574,18.6123624 13.2163413,19.4725976 12.7471221,20.1764264 L13.450951,20.9584585 C13.9983734,21.6622873 10.9484484,24.0865866 10.401026,23.3827578 L9.7754004,22.5225225 C8.99336837,22.8353353 8.13313313,22.9917417 7.2728979,22.9135385 L6.88188188,23.851977 C6.56906907,24.7122122 2.97172172,23.3045546 3.28453453,22.4443193 L3.67555055,21.5058809 C2.97172172,20.9584585 2.4242993,20.2546296 2.11148649,19.5508008 L1.09484484,19.7072072 C0.156406406,19.7854104 -0.391016016,16.0316567 0.469219219,15.8752503 L1.48586086,15.7188438 C1.64226727,14.8586086 1.95508008,14.0765766 2.4242993,13.3727477 L1.79867367,12.5125125 C1.25125125,11.8086837 4.22297297,9.38438438 4.8485986,10.1664164 L5.47422422,10.9484484 C6.25625626,10.6356356 7.11649149,10.4792292 7.97672673,10.5574324 L8.36774274,9.61899399 C8.68055556,8.75875876 12.2779029,10.1664164 11.9650901,11.0266517 Z M11.1048549,1.09484484 L10.8702452,1.64226727 C11.2612613,2.03328328 11.5740741,2.4242993 11.8086837,2.89351852 L12.4343093,2.81531532 C13.0599349,2.73711211 13.3727477,5.08320821 12.8253253,5.16141141 L12.1996997,5.31781782 C12.1214965,5.78703704 11.8868869,6.33445946 11.6522773,6.72547548 L12.0432933,7.2728979 C12.3561061,7.74211712 10.4792292,9.22797798 10.1664164,8.75875876 L9.7754004,8.28953954 C9.22797798,8.44594595 8.75875876,8.52414915 8.21133634,8.52414915 L7.97672673,9.07157157 C7.74211712,9.61899399 5.47422422,8.75875876 5.70883383,8.21133634 L5.94344344,7.66391391 C5.55242743,7.2728979 5.16141141,6.88188188 4.9268018,6.41266266 L4.30117618,6.49086587 C3.75375375,6.56906907 3.36273774,4.22297297 3.98836336,4.14476977 L4.61398899,3.98836336 C4.69219219,3.51914414 4.8485986,2.97172172 5.16141141,2.58070571 L4.7703954,2.03328328 C4.37937938,1.56406406 6.25625626,0.0782032032 6.64727227,0.547422422 L7.03828829,1.01664164 C7.50750751,0.860235235 8.05492993,0.782032032 8.60235235,0.782032032 L8.83696196,0.23460961 C9.07157157,-0.312812813 11.2612613,0.547422422 11.1048549,1.09484484 Z M9.14977477,2.73711211 C10.1664164,3.20633133 10.7138388,4.37937938 10.2446196,5.39602102 C9.8536036,6.41266266 8.68055556,6.96008509 7.66391391,6.56906907 C6.64727227,6.09984985 6.09984985,4.9268018 6.49086587,3.91016016 C6.88188188,2.89351852 8.05492993,2.3460961 9.14977477,2.73711211 Z M20.9584585,3.91016016 L20.8802553,4.69219219 C21.5058809,5.00500501 22.1315065,5.39602102 22.5225225,5.94344344 L23.3045546,5.63063063 C24.0083834,5.31781782 25.2596346,8.21133634 24.5558058,8.52414915 L23.851977,8.83696196 C23.851977,9.54079079 23.7737738,10.2446196 23.6173674,10.9484484 L24.242993,11.4176677 C24.8686186,11.8868869 22.9917417,14.3893894 22.3661161,13.9983734 L21.6622873,13.450951 C21.1148649,13.841967 20.4892392,14.1547798 19.7854104,14.3111862 L19.7072072,15.0932182 C19.629004,15.8752503 16.4226727,15.5624374 16.5790791,14.7804054 L16.6572823,13.9201702 C16.0316567,13.6073574 15.406031,13.2163413 14.9368118,12.6689189 L14.232983,13.0599349 C13.5291542,13.3727477 12.1996997,10.401026 12.9035285,10.0882132 L13.6855606,9.7754004 C13.6073574,9.07157157 13.6855606,8.36774274 13.9201702,7.74211712 L13.2945445,7.19469469 C12.6689189,6.80367868 14.5457958,4.22297297 15.1714214,4.69219219 L15.797047,5.16141141 C16.4226727,4.7703954 17.0482983,4.45758258 17.7521271,4.37937938 L17.8303303,3.51914414 C17.9085335,2.73711211 21.0366617,3.12812813 20.9584585,3.91016016 Z M19.0815816,6.72547548 C20.4892392,6.88188188 21.5840841,8.13313313 21.4276777,9.61899399 C21.1930681,11.1048549 19.9418168,12.1214965 18.455956,11.9650901 C16.9700951,11.8086837 15.9534535,10.4792292 16.1098599,8.99336837 C16.2662663,7.58571071 17.5957207,6.49086587 19.0815816,6.72547548 Z M8.75875876,13.7637638 C10.4792292,14.3893894 11.2612613,16.2662663 10.6356356,17.9085335 C9.93180681,19.629004 8.05492993,20.411036 6.41266266,19.7854104 C4.7703954,19.0815816 3.91016016,17.2047047 4.61398899,15.5624374 C5.23961461,13.9201702 7.11649149,13.0599349 8.75875876,13.7637638 Z" id="Shape"></path>
            </g>
        </g>
    </g>
</svg>