<?xml version="1.0" encoding="UTF-8"?>
<svg width="25px" height="25px" viewBox="0 0 25 25" version="1.1" xmlns="http://www.w3.org/2000/svg" xmlns:xlink="http://www.w3.org/1999/xlink">
    <!-- Generator: Sketch 55.2 (78181) - https://sketchapp.com -->
    <title>icn-started-white</title>
    <desc>Created with Sketch.</desc>
    <g id="a" stroke="none" stroke-width="1" fill="none" fill-rule="evenodd">
        <g id="Artboard" transform="translate(-156.000000, -152.000000)" fill="#FFFFFF">
            <g id="icn-started-white" transform="translate(156.000000, 152.000000)">
                <path d="M1.43184422,0 C2.21935853,0 2.86368843,0.644329897 2.86368843,1.43184422 L2.86368843,23.3413517 C2.86368843,24.072615 2.30811827,24.6804182 1.59822305,24.7635163 L1.43184422,24.7731959 C0.644329897,24.7731959 0,24.128866 0,23.3413517 L0,1.43184422 C0,0.700580919 0.555570166,0.0927776609 1.26546538,0.00967955911 L1.43184422,0 Z M23.3343356,0 C24.6630871,0 25.2759164,1.65378007 24.2664662,2.51861397 L17.181701,8.59106529 L24.2664662,14.6635166 C25.2759164,15.5283505 24.6630871,17.1821306 23.3343356,17.1821306 L5.72737686,17.1821306 L5.72737686,0 L23.3343356,0 Z" id="Shape"></path>
            </g>
        </g>
    </g>
</svg>