<?xml version="1.0" encoding="UTF-8"?>
<svg width="25px" height="25px" viewBox="0 0 25 25" version="1.1" xmlns="http://www.w3.org/2000/svg" xmlns:xlink="http://www.w3.org/1999/xlink">
    <!-- Generator: Sketch 55.2 (78181) - https://sketchapp.com -->
    <title>icn-buying</title>
    <desc>Created with Sketch.</desc>
    <g id="a" stroke="none" stroke-width="1" fill="none" fill-rule="evenodd">
        <g id="Artboard" transform="translate(-380.000000, -74.000000)" fill="#788195">
            <g id="icn-buying" transform="translate(380.000000, 74.000000)">
                <path d="M12.5186074,0.081805758 C12.4028713,0.083689451 12.2924322,0.130663928 12.2108295,0.212756804 L7.10520577,5.32098268 L7.10520577,4.34130019 C7.10423126,4.09750829 6.90684092,3.9001172 6.66304902,3.89914176 L3.60869141,3.89914176 C3.36489754,3.90011445 3.16750416,4.09750633 3.16652962,4.34130019 L3.16652962,9.25965715 L0.315912173,12.110278 C0.188922017,12.2373563 0.151041236,12.428445 0.219949862,12.5943576 C0.288858488,12.7602702 0.450970624,12.8682957 0.63062395,12.8680155 L2.35417109,12.8680155 L2.35417109,24.5262504 C2.35371941,24.6445761 2.4005243,24.758186 2.48419386,24.8418555 C2.56786342,24.9255251 2.68147325,24.97233 2.79979901,24.9718815 L9.44170814,24.9718815 C9.68685303,24.9708963 9.88479919,24.7713954 9.88386322,24.5262504 L9.88386322,16.1902696 L14.9600131,16.1902696 L14.9600131,24.5262504 C14.9595614,24.6445763 15.0063664,24.7581862 15.0900362,24.8418558 C15.1737059,24.9255254 15.2873159,24.9723302 15.4056419,24.9718815 L22.0475493,24.9718815 C22.2926949,24.9708973 22.490642,24.7713961 22.4897061,24.5262504 L22.4897061,12.8680155 L24.423065,12.8680155 C24.602718,12.868295 24.7648295,12.7602693 24.8337377,12.5943568 C24.9026459,12.4284444 24.864765,12.237356 24.7377751,12.110278 L12.8393907,0.212756804 C12.7546074,0.127473106 12.6388526,0.0802337708 12.5186074,0.081805758 Z" id="Path"></path>
            </g>
        </g>
    </g>
</svg>