<?xml version="1.0" encoding="UTF-8"?>
<svg width="16px" height="16px" viewBox="0 0 16 16" version="1.1" xmlns="http://www.w3.org/2000/svg" xmlns:xlink="http://www.w3.org/1999/xlink">
    <!-- Generator: Sketch 55.2 (78181) - https://sketchapp.com -->
    <title>ico-chat-default</title>
    <desc>Created with Sketch.</desc>
    <g id="States" stroke="none" stroke-width="1" fill="none" fill-rule="evenodd">
        <g id="icons" transform="translate(-57.000000, -288.000000)">
            <g id="ico-chat-default" transform="translate(57.000000, 287.000000)">
                <rect id="Rectangle" x="0" y="0" width="16" height="16"></rect>
                <g id="ico-forum" transform="translate(0.000000, 1.000000)" fill="#788195">
                    <g id="noun_chat_3019788" transform="translate(0.000000, -0.000000)">
                        <path d="M2.47933884,0 L13.5064935,0 C14.8760331,0 15.9858323,1.10979929 15.9858323,2.47933884 L15.9858323,10.5548996 C15.9858323,11.9244392 14.8760331,13.0342385 13.5064935,13.0342385 L3.21133412,13.0342385 L0,15.7969303 L0,10.5548996 L0,8.00472255 L0,2.47933884 C0,1.10979929 1.10979929,0 2.47933884,0 Z M7.9811098,5.12396694 C8.68949233,5.12396694 9.25619835,5.69067296 9.25619835,6.39905549 C9.25619835,7.10743802 8.68949233,7.67414404 7.9811098,7.67414404 C7.29634002,7.67414404 6.729634,7.10743802 6.729634,6.39905549 C6.729634,5.69067296 7.29634002,5.12396694 7.9811098,5.12396694 Z M3.61275089,5.12396694 C4.29752066,5.12396694 4.86422668,5.69067296 4.86422668,6.39905549 C4.86422668,7.10743802 4.29752066,7.67414404 3.61275089,7.67414404 C2.90436836,7.67414404 2.33766234,7.10743802 2.33766234,6.39905549 C2.33766234,5.69067296 2.90436836,5.12396694 3.61275089,5.12396694 Z M12.3730815,5.12396694 C13.081464,5.12396694 13.64817,5.69067296 13.64817,6.39905549 C13.64817,7.10743802 13.081464,7.67414404 12.3730815,7.67414404 C11.6646989,7.67414404 11.0979929,7.10743802 11.0979929,6.39905549 C11.0979929,5.69067296 11.6646989,5.12396694 12.3730815,5.12396694 Z" id="Shape"></path>
                    </g>
                </g>
            </g>
        </g>
    </g>
</svg>