<?xml version="1.0" encoding="UTF-8"?>
<svg width="16px" height="14px" viewBox="0 0 16 14" version="1.1" xmlns="http://www.w3.org/2000/svg" xmlns:xlink="http://www.w3.org/1999/xlink">
    <!-- Generator: Sketch 55.2 (78181) - https://sketchapp.com -->
    <title>ico-openhome-default</title>
    <desc>Created with Sketch.</desc>
    <g id="States" stroke="none" stroke-width="1" fill="none" fill-rule="evenodd">
        <g id="icons" transform="translate(-57.000000, -468.000000)">
            <g id="ico-openhome-default" transform="translate(57.000000, 467.000000)">
                <rect id="Rectangle" x="0" y="0" width="16" height="16"></rect>
                <g id="noun_Home_3021357" transform="translate(0.000000, 1.000000)" fill="#788195" fill-rule="nonzero">
                    <path d="M2.15749227,7.11807229 L0.995725606,7.11807229 C0.776842032,7.11807229 0.574795655,7.05060241 0.423260872,6.93253012 C0.254888892,6.81445783 0.120191307,6.64578313 0.0528425151,6.44337349 C-0.0145062772,6.24096386 -0.0145062772,6.03855422 0.036005317,5.83614458 C0.0865169112,5.63373494 0.204377298,5.46506024 0.372749278,5.33012048 L6.65302416,0.455421687 C7.04027971,0.151807229 7.49488406,0 7.9663256,0 C8.43776715,0 8.8755343,0.151807229 9.27962705,0.438554217 L15.6104135,5.31325301 C15.7787855,5.44819277 15.8966459,5.61686747 15.9639947,5.81927711 C16.0145063,6.02168675 16.0145063,6.22409639 15.9471575,6.42650602 C15.8798087,6.62891566 15.7451111,6.79759036 15.5767391,6.91566265 C15.4083671,7.03373494 15.2063208,7.10120482 15.0042744,7.10120482 L13.7583217,7.10120482 L13.7583217,11.8409639 C13.7583217,12.4313253 13.522601,12.9710843 13.1353454,13.3590361 L13.1185082,13.3759036 C12.7312527,13.746988 12.2092995,13.9831325 11.6368348,13.9831325 L10.6602773,13.9831325 C10.3908821,13.9831325 10.1383242,13.8650602 9.95311498,13.6795181 L9.93627778,13.6626506 C9.7679058,13.4939759 9.66688261,13.2409639 9.66688261,12.9879518 L9.66688261,9.36144578 C9.66688261,9.2939759 9.65004541,9.22650602 9.59953382,9.19277108 L9.59953382,9.19277108 C9.54902222,9.14216867 9.49851063,9.1253012 9.43116184,9.1253012 L6.41730338,9.1253012 C6.34995459,9.1253012 6.299443,9.14216867 6.2489314,9.19277108 C6.19841981,9.24337349 6.18158261,9.2939759 6.18158261,9.36144578 L6.18158261,12.9879518 C6.18158261,13.2578313 6.06372222,13.5108434 5.89535024,13.6963855 L5.89535024,13.6963855 C5.71014106,13.8819277 5.45758309,14 5.18818792,14 L4.29581643,14 C3.70651449,14 3.16772416,13.7638554 2.7804686,13.3759036 C2.39321305,12.9879518 2.15749227,12.4481928 2.15749227,11.8578313 L2.15749227,7.11807229 Z" id="Path"></path>
                </g>
            </g>
        </g>
    </g>
</svg>