<?xml version="1.0" encoding="UTF-8"?>
<svg width="16px" height="16px" viewBox="0 0 16 16" version="1.1" xmlns="http://www.w3.org/2000/svg" xmlns:xlink="http://www.w3.org/1999/xlink">
    <!-- Generator: Sketch 55.2 (78181) - https://sketchapp.com -->
    <title>ico-time-default</title>
    <desc>Created with Sketch.</desc>
    <g id="States" stroke="none" stroke-width="1" fill="none" fill-rule="evenodd">
        <g id="icons" transform="translate(-57.000000, -527.000000)" fill="#788195" fill-rule="nonzero">
            <g id="ico-time-default" transform="translate(57.000000, 527.000000)">
                <path d="M8,0.189473684 C3.68421053,0.189473684 0.189473684,3.70526316 0.189473684,8 C0.189473684,12.3157895 3.68421053,15.8105263 8,15.8105263 C12.3157895,15.8105263 15.8105263,12.2947368 15.8105263,8 C15.8105263,3.70526316 12.3157895,0.189473684 8,0.189473684 Z M11.4947368,9.15789474 L7.64210526,9.15789474 C7.24210526,9.15789474 6.90526316,8.82105263 6.90526316,8.42105263 L6.90526316,4 C6.90526316,3.6 7.24210526,3.26315789 7.64210526,3.26315789 C8.04210526,3.26315789 8.37894737,3.6 8.37894737,4 L8.37894737,7.66315789 L11.5157895,7.66315789 C11.9157895,7.66315789 12.2526316,8 12.2526316,8.4 C12.2315789,8.82105263 11.9157895,9.15789474 11.4947368,9.15789474 Z" id="Shape"></path>
            </g>
        </g>
    </g>
</svg>