<?xml version="1.0" encoding="UTF-8"?>
<svg width="16px" height="16px" viewBox="0 0 16 16" version="1.1" xmlns="http://www.w3.org/2000/svg" xmlns:xlink="http://www.w3.org/1999/xlink">
    <!-- Generator: Sketch 55.2 (78181) - https://sketchapp.com -->
    <title>ico-calendar-default</title>
    <desc>Created with Sketch.</desc>
    <g id="States" stroke="none" stroke-width="1" fill="none" fill-rule="evenodd">
        <g id="icons" transform="translate(-57.000000, -346.000000)" fill="#788195" fill-rule="nonzero">
            <g id="ico-calendar-default" transform="translate(57.000000, 346.000000)">
                <g id="Group-4">
                    <g id="ico-calendar">
                        <path d="M11.4325106,3.43285106 C11.7851915,3.43285106 12.0708085,3.14706383 12.0708085,2.79455319 L12.0708085,0.695319149 C12.0708085,0.342808511 11.7851915,0.0570212766 11.4325106,0.0570212766 C11.0801702,0.0570212766 10.7942128,0.342808511 10.7942128,0.695319149 L10.7942128,2.79455319 C10.7942128,3.14706383 11.0801702,3.43285106 11.4325106,3.43285106 Z M4.56748936,3.43285106 C4.91982979,3.43285106 5.20578723,3.14706383 5.20578723,2.79455319 L5.20578723,0.695319149 C5.20578723,0.342808511 4.91982979,0.0570212766 4.56748936,0.0570212766 C4.21480851,0.0570212766 3.92919149,0.342808511 3.92919149,0.695319149 L3.92919149,2.79455319 C3.92919149,3.14706383 4.21480851,3.43285106 4.56748936,3.43285106 Z M15.1205106,1.61702128 L12.836766,1.61702128 L12.836766,2.79455319 C12.836766,3.56885106 12.2068085,4.19880851 11.4325106,4.19880851 C10.6582128,4.19880851 10.0282553,3.56885106 10.0282553,2.79455319 L10.0282553,1.61702128 L5.97174468,1.61702128 L5.97174468,2.79455319 C5.97174468,3.56885106 5.34178723,4.19880851 4.56748936,4.19880851 C3.79319149,4.19880851 3.16323404,3.56885106 3.16323404,2.79455319 L3.16323404,1.61702128 L0.879489362,1.61702128 C0.409361702,1.61702128 0.0284255319,1.99795745 0.0284255319,2.46808511 L0.0284255319,5.95744681 L15.9715745,5.95744681 L15.9715745,2.46808511 C15.9715745,1.99795745 15.5906383,1.61702128 15.1205106,1.61702128 Z M0.0284255319,15.0071489 C0.0284255319,15.4772766 0.409361702,15.8582128 0.879489362,15.8582128 L15.1205106,15.8582128 C15.5906383,15.8582128 15.9715745,15.4772766 15.9715745,15.0071489 L15.9715745,6.63829787 L0.0284255319,6.63829787 L0.0284255319,15.0071489 Z M11.8105532,8.65957447 L13.9879149,8.65957447 L13.9879149,10.8369362 L11.8105532,10.8369362 L11.8105532,8.65957447 Z M11.8105532,11.7659574 L13.9879149,11.7659574 L13.9879149,13.9433191 L11.8105532,13.9433191 L11.8105532,11.7659574 Z M8.54434043,8.65957447 L10.7217021,8.65957447 L10.7217021,10.8369362 L8.54434043,10.8369362 L8.54434043,8.65957447 Z M8.54434043,11.7659574 L10.7217021,11.7659574 L10.7217021,13.9433191 L8.54434043,13.9433191 L8.54434043,11.7659574 Z M5.27829787,8.65957447 L7.45565957,8.65957447 L7.45565957,10.8369362 L5.27829787,10.8369362 L5.27829787,8.65957447 Z M5.27829787,11.7659574 L7.45565957,11.7659574 L7.45565957,13.9433191 L5.27829787,13.9433191 L5.27829787,11.7659574 Z M2.01208511,8.65957447 L4.18944681,8.65957447 L4.18944681,10.8369362 L2.01208511,10.8369362 L2.01208511,8.65957447 Z M2.01208511,11.7659574 L4.18944681,11.7659574 L4.18944681,13.9433191 L2.01208511,13.9433191 L2.01208511,11.7659574 Z" id="Shape"></path>
                    </g>
                </g>
            </g>
        </g>
    </g>
</svg>