<?xml version="1.0" encoding="UTF-8"?>
<svg width="16px" height="16px" viewBox="0 0 16 16" version="1.1" xmlns="http://www.w3.org/2000/svg" xmlns:xlink="http://www.w3.org/1999/xlink">
    <!-- Generator: Sketch 55.2 (78181) - https://sketchapp.com -->
    <title>ico-doc-disabled</title>
    <desc>Created with Sketch.</desc>
    <g id="States" stroke="none" stroke-width="1" fill="none" fill-rule="evenodd">
        <g id="icons" transform="translate(-197.000000, -226.000000)" fill="#BCC0CA">
            <g id="ico-doc-disabled" transform="translate(197.000000, 226.000000)">
                <rect id="Rectangle" x="6.23505155" y="8.82474227" width="3.59587629" height="1"></rect>
                <rect id="Rectangle" x="6.23505155" y="7.55463918" width="3.59587629" height="1"></rect>
                <rect id="Rectangle" x="6.23505155" y="10.1608247" width="1.9628866" height="1"></rect>
                <path d="M15.5546392,3.99175258 C15.5546392,3.99175258 15.043299,1.55051546 12.8329897,0.692783505 C11.7938144,0.280412371 9.89690722,0.0824742268 8.03298969,0.0824742268 C6.16907216,0.0824742268 4.27216495,0.280412371 3.23298969,0.67628866 C1.00618557,1.53402062 0.494845361,3.99175258 0.494845361,3.99175258 C0.164948454,5.36082474 0.0659793814,6.7628866 0.0659793814,8.01649485 C0.0659793814,9.25360825 0.164948454,10.6721649 0.494845361,12.0412371 C0.494845361,12.0412371 1.00618557,14.4824742 3.21649485,15.3402062 C4.2556701,15.7360825 6.15257732,15.9340206 8.01649485,15.9505155 C9.89690722,15.9340206 11.7938144,15.7525773 12.8329897,15.3402062 C15.043299,14.4824742 15.5546392,12.0412371 15.5546392,12.0412371 C15.8845361,10.6556701 16,9.25360825 15.9835052,8.01649485 C16,6.7628866 15.8845361,5.36082474 15.5546392,3.99175258 Z M11.4969072,11.2989691 C11.4969072,11.843299 11.0515464,12.2886598 10.5072165,12.2886598 L5.54226804,12.2886598 C4.99793814,12.2886598 4.55257732,11.843299 4.55257732,11.2989691 L4.55257732,4.56907216 C4.55257732,4.02474227 4.99793814,3.57938144 5.54226804,3.57938144 L9.00618557,3.57938144 L9.12164948,3.61237113 C9.15463918,3.62886598 9.17113402,3.64536082 9.20412371,3.67835052 L11.3979381,5.90515464 C11.4309278,5.93814433 11.4474227,5.97113402 11.4639175,6.02061856 L11.4804124,6.13608247 L11.4804124,11.2989691 L11.4969072,11.2989691 Z" id="Shape"></path>
                <path d="M9.20412371,5.60824742 C9.20412371,5.78969072 9.35257732,5.93814433 9.53402062,5.93814433 L10.4907216,5.93814433 L9.20412371,4.6185567 L9.20412371,5.60824742 Z" id="Path"></path>
            </g>
        </g>
    </g>
</svg>