<?xml version="1.0" encoding="UTF-8"?>
<svg width="16px" height="15px" viewBox="0 0 16 15" version="1.1" xmlns="http://www.w3.org/2000/svg" xmlns:xlink="http://www.w3.org/1999/xlink">
    <!-- Generator: Sketch 55.2 (78181) - https://sketchapp.com -->
    <title>ico-financials-disabled</title>
    <desc>Created with Sketch.</desc>
    <g id="States" stroke="none" stroke-width="1" fill="none" fill-rule="evenodd">
        <g id="icons" transform="translate(-197.000000, -167.000000)">
            <g id="ico-financials-disabled" transform="translate(197.000000, 167.000000)">
                <rect id="Rectangle" x="0" y="0" width="16" height="16"></rect>
                <g id="noun_financial_2500407" transform="translate(0.000000, 0.000000)" fill="#BCC0CA">
                    <path d="M15.35,0.45 L12.0833333,0.45 C11.7833333,0.45 11.5333333,0.7 11.5333333,1 L11.5333333,13.2333333 L10.2666667,13.2333333 L10.2666667,3.16666667 C10.2666667,2.86666667 10.0166667,2.61666667 9.71666667,2.61666667 L6.48333333,2.61666667 C6.18333333,2.61666667 5.93333333,2.86666667 5.93333333,3.16666667 L5.93333333,13.2333333 L4.66666667,13.2333333 L4.66666667,5.33333333 C4.66666667,5.03333333 4.41666667,4.78333333 4.11666667,4.78333333 L0.883333333,4.78333333 C0.583333333,4.78333333 0.333333333,5.03333333 0.333333333,5.33333333 L0.333333333,14.1833333 C0.333333333,14.4833333 0.583333333,14.7333333 0.883333333,14.7333333 L15.3333333,14.7333333 C15.6333333,14.7333333 15.8833333,14.4833333 15.8833333,14.1833333 L15.8833333,0.983333333 C15.8833333,0.683333333 15.65,0.45 15.35,0.45 Z" id="Combined-Shape"></path>
                </g>
            </g>
        </g>
    </g>
</svg>