<?xml version="1.0" encoding="UTF-8"?>
<svg width="12px" height="15px" viewBox="0 0 12 15" version="1.1" xmlns="http://www.w3.org/2000/svg" xmlns:xlink="http://www.w3.org/1999/xlink">
    <!-- Generator: Sketch 55.2 (78181) - https://sketchapp.com -->
    <title>ico-location-disabled</title>
    <desc>Created with Sketch.</desc>
    <g id="States" stroke="none" stroke-width="1" fill="none" fill-rule="evenodd">
        <g id="icons" transform="translate(-199.000000, -106.000000)">
            <g id="ico-location-disabled" transform="translate(197.000000, 106.000000)">
                <rect id="Rectangle" x="0" y="0" width="16" height="16"></rect>
                <path d="M2,5.83333333 C2,10.2083333 8,15 8,15 C8,15 14,10.2083333 14,5.83333333 C14,2.60833333 11.3171429,0 8,0 C4.68285714,0 2,2.60833333 2,5.83333333 Z M6,6 C6,4.896 6.896,4 8,4 C9.104,4 10,4.896 10,6 C10,7.104 9.104,8 8,8 C6.896,8 6,7.104 6,6 Z" id="Shape" fill="#BCC0CA"></path>
            </g>
        </g>
    </g>
</svg>