<?xml version="1.0" encoding="UTF-8"?>
<svg width="14px" height="10px" viewBox="0 0 14 10" version="1.1" xmlns="http://www.w3.org/2000/svg" xmlns:xlink="http://www.w3.org/1999/xlink">
    <!-- Generator: Sketch 52.5 (67469) - http://www.bohemiancoding.com/sketch -->
    <title>Email-icon</title>
    <desc>Created with Sketch.</desc>
    <g id="Blocks" stroke="none" stroke-width="1" fill="none" fill-rule="evenodd">
        <g id="Offering2" transform="translate(-204.000000, -1182.000000)" fill="#FFFFFF" fill-rule="nonzero">
            <g id="footer_lg" transform="translate(0.000000, 1089.000000)">
                <g id="Group-6" transform="translate(204.000000, 90.000000)">
                    <g id="Email-icon" transform="translate(0.000000, 3.000000)">
                        <path d="M12.9626,0.0112 L1.0374,0.0112 C0.464459801,0.0112 3.24601499e-16,0.475659801 0,1.0486 L0,8.7486 C7.01649381e-17,9.3215402 0.464459801,9.786 1.0374,9.786 L12.9626,9.786 C13.5344485,9.78600208 13.9984565,9.32324643 14,8.7514 L14,1.0514 C14.0007439,0.775779599 13.8917752,0.511192953 13.6971443,0.316036706 C13.5025134,0.120880458 13.2382214,0.0111989961 12.9626,0.0112 Z M7,4.3792 L1.974,0.8666 L12.089,0.8666 L7,4.3792 Z M12.9626,8.9334 L1.0374,8.9334 C0.936884176,8.9334 0.8554,8.85191582 0.8554,8.7514 L0.8554,1.1312 L6.755,5.2514 C6.77191328,5.2634332 6.78969534,5.27419603 6.8082,5.2836 L6.8222,5.2836 L6.8628,5.299 L6.8838,5.299 L6.9202,5.3074 L6.9412,5.3074 L6.9958,5.3074 L7.0504,5.3074 L7.07,5.3074 C7.08242924,5.30608745 7.09465248,5.3032667 7.1064,5.299 L7.1274,5.299 L7.168,5.2836 L7.182,5.2836 C7.20049127,5.27470209 7.21827628,5.26440551 7.2352,5.2528 L13.1362,1.1788 L13.1362,8.7514 C13.1363037,8.84872475 13.0598211,8.92890814 12.9626,8.9334 Z" id="Shape"></path>
                    </g>
                </g>
            </g>
        </g>
    </g>
</svg>