<?xml version="1.0" encoding="UTF-8"?>
<svg width="125px" height="32px" viewBox="0 0 125 32" version="1.1" xmlns="http://www.w3.org/2000/svg" xmlns:xlink="http://www.w3.org/1999/xlink">
    <!-- Generator: Sketch 52.5 (67469) - http://www.bohemiancoding.com/sketch -->
    <title>Partbnb Logo - RGB</title>
    <desc>Created with Sketch.</desc>
    <g id="Blocks" stroke="none" stroke-width="1" fill="none" fill-rule="evenodd">
        <g id="Offering" transform="translate(-207.000000, -20.000000)">
            <g id="Header_lg">
                <g id="Partbnb-Logo---RGB">
                    <g transform="translate(207.000000, 20.000000)">
                        <path d="M119.035057,21.2781924 C117.151746,21.2781924 115.706748,19.9263293 115.706748,17.8059209 C115.706748,15.6840186 117.151746,14.3329024 119.035057,14.3329024 C120.919119,14.3329024 122.341563,15.6840186 122.341563,17.8059209 C122.341563,19.9263293 120.919119,21.2781924 119.035057,21.2781924 Z M119.327515,12.1288427 C117.905071,12.1288427 116.648779,12.6068496 115.74885,13.6054357 L115.74885,7.92910448 L113.131763,7.92910448 L113.131763,23.3567753 L115.623296,23.3567753 L115.623296,21.9220079 C116.502174,22.9825856 117.799816,23.5031649 119.327515,23.5031649 C122.593423,23.5031649 125,21.2572796 125,17.8059209 C125,14.3538152 122.593423,12.1288427 119.327515,12.1288427 Z M105.887221,12.1288427 C104.255019,12.1288427 102.894224,12.669588 102.036397,13.68834 L102.036397,12.2535726 L99.5456156,12.2535726 L99.5456156,23.3567753 L102.161951,23.3567753 L102.161951,17.7431825 C102.161951,15.51821 103.417491,14.3948939 105.281254,14.3948939 C106.954806,14.3948939 107.938939,15.3516545 107.938939,17.3271671 L107.938939,23.3567753 L110.554522,23.3567753 L110.554522,16.9940561 C110.554522,13.6465144 108.567461,12.1288427 105.887221,12.1288427 Z M91.8409597,21.2781924 C89.9568977,21.2781924 88.5126507,19.9263293 88.5126507,17.8059209 C88.5126507,15.6840186 89.9568977,14.3329024 91.8409597,14.3329024 C93.7250218,14.3329024 95.147466,15.6840186 95.147466,17.8059209 C95.147466,19.9263293 93.7250218,21.2781924 91.8409597,21.2781924 Z M92.1334179,12.1288427 C90.7102218,12.1288427 89.4539299,12.6068496 88.5547526,13.6054357 L88.5547526,7.92910448 L85.9376657,7.92910448 L85.9376657,23.3567753 L88.4291986,23.3567753 L88.4291986,21.9220079 C89.3080767,22.9825856 90.6057188,23.5031649 92.1334179,23.5031649 C95.398574,23.5031649 97.8059031,21.2572796 97.8059031,17.8059209 C97.8059031,14.3538152 95.398574,12.1288427 92.1334179,12.1288427 Z M83.8002402,20.9032558 C83.403279,21.215454 82.880012,21.3618436 82.3349422,21.3618436 C81.351561,21.3618436 80.7869439,20.7785259 80.7869439,19.6977823 L80.7869439,14.4158067 L83.7799411,14.4158067 L83.7799411,12.3364769 L80.7869439,12.3364769 L80.7869439,9.80005314 L78.169857,9.80005314 L78.169857,19.7597738 C78.169857,22.2132933 79.5727539,23.5031649 82.0214331,23.5031649 C82.9634641,23.5031649 83.9054951,23.2529582 84.5332651,22.7540386 L83.8002402,20.9032558 Z M72.8093773,13.8758084 L72.8093773,12.2535726 L70.3185962,12.2535726 L70.3185962,23.3567753 L72.9349313,23.3567753 L72.9349313,17.9717295 C72.9349313,15.7049314 74.1912232,14.5405366 76.1797883,14.5405366 C76.3677434,14.5405366 76.5564503,14.5621963 76.7857556,14.603275 L76.7857556,12.1288427 C74.9234963,12.1288427 73.5627013,12.7106667 72.8093773,13.8758084 Z M61.7350623,21.2781924 C59.8510003,21.2781924 58.4278042,19.9263293 58.4278042,17.8059209 C58.4278042,15.6840186 59.8510003,14.3329024 61.7350623,14.3329024 C63.6394234,14.3329024 65.0626195,15.6840186 65.0626195,17.8059209 C65.0626195,19.9263293 63.6394234,21.2781924 61.7350623,21.2781924 Z M65.0205176,12.2535726 L65.0205176,13.6054357 C64.1213403,12.6068496 62.8650484,12.1288427 61.4418523,12.1288427 C58.1766962,12.1288427 55.7904181,14.3538152 55.7904181,17.8059209 C55.7904181,21.2572796 58.1766962,23.5031649 61.4418523,23.5031649 C62.9703033,23.5031649 64.2671935,22.9825856 65.1460716,21.9220079 L65.1460716,23.3567753 L67.6376045,23.3567753 L67.6376045,12.2535726 L65.0205176,12.2535726 Z M49.0067423,21.2781924 C47.1226803,21.2781924 45.6784333,19.9263293 45.6784333,17.8059209 C45.6784333,15.6840186 47.1226803,14.3329024 49.0067423,14.3329024 C50.8900525,14.3329024 52.3132486,15.6840186 52.3132486,17.8059209 C52.3132486,19.9263293 50.8900525,21.2781924 49.0067423,21.2781924 Z M49.2992005,12.1288427 C47.7715014,12.1288427 46.4738593,12.6479283 45.5949812,13.708506 L45.5949812,12.2535726 L43.1034483,12.2535726 L43.1034483,27.3914518 L45.7205352,27.3914518 L45.7205352,22.0056591 C46.6197124,23.0244112 47.8760044,23.5031649 49.2992005,23.5031649 C52.5651084,23.5031649 54.9716857,21.2572796 54.9716857,17.8059209 C54.9716857,14.374728 52.5651084,12.1288427 49.2992005,12.1288427 Z" id="Fill-1" fill="#FFFFFF"></path>
                        <path d="M15.8064818,20.9882271 L11.1332676,20.9882271 L11.1332676,14.9470744 L15.8049745,12.2000306 L20.4796959,14.9500038 L20.4796959,20.9882271 L15.8064818,20.9882271 Z M14.0008019,0.571782032 L3.70330177,6.63124349 C0.485332996,8.52509982 0,9.79865596 0,12.9719272 L0,27.1341058 C0,29.6863445 0.994781917,31.7164179 4.79002565,31.7164179 L6.59269107,31.7164179 C11.0134416,31.7164179 11.1332676,28.6727725 11.1332676,27.3289108 L11.1332676,23.8817408 L23.4557518,23.8817408 L23.4557518,13.3366374 L15.8064818,8.8356161 L8.15645809,13.3366374 L8.15645809,27.3091374 C8.15645809,28.1191162 7.85953076,28.8236366 6.39147381,28.8236366 L4.67019965,28.8236366 C3.19309923,28.8236366 2.97680952,28.1659865 2.97680952,27.2710552 L2.97680952,12.8752571 C2.97680952,10.6174229 3.26243251,10.2556422 4.71918512,9.39879302 L14.8177288,3.45650752 C15.6278732,2.97901551 15.9813222,2.97901551 16.7914666,3.45650752 L26.8900103,9.39879302 C28.3467629,10.2556422 28.6323859,10.6174229 28.6323859,12.8752571 L28.6323859,27.2710552 C28.6323859,28.1659865 28.4153426,28.8236366 26.9389958,28.8236366 L15.2442793,28.8236366 C13.4355849,28.8236366 13.4348312,31.7164179 15.2442793,31.7164179 L26.8184161,31.7164179 C30.6144135,31.7164179 31.6091954,29.6863445 31.6091954,27.1341058 L31.6091954,12.9719272 C31.6091954,9.79865596 31.1238624,8.52509982 27.9058936,6.63124349 L17.6091472,0.571782032 C16.3136698,-0.190594011 15.2955256,-0.190594011 14.0008019,0.571782032 Z" id="Fill-3" fill="#10CFBD"></path>
                    </g>
                </g>
            </g>
        </g>
    </g>
</svg>