<?xml version="1.0" encoding="UTF-8" standalone="no"?>
<svg xmlns="http://www.w3.org/2000/svg" height="171px" width="515px" version="1.1" xmlns:xlink="http://www.w3.org/1999/xlink" viewBox="0 0 515 171"><!-- Generator: Sketch 53.2 (72643) - https://sketchapp.com -->
 <title>IMG_1869</title>
 <desc>Created with Sketch.</desc>
 <defs>
  <polygon id="path-1" points="0 1.6392e-15 515 1.6392e-15 515 171 0 171"/>
 </defs>
 <g id="Dashboard" fill-rule="evenodd" fill="none">
  <g id="If-Authenticated-Copy" transform="translate(-463 -74)">
   <g id="IMG_1869" transform="translate(463 74)">
    <mask id="mask-2" fill="white">
     <use xlink:href="#path-1"/>
    </mask>
    <use id="Mask" xlink:href="#path-1" fill="#6580B6"/>
    <path id="Combined-Shape" opacity=".083217" d="m468.5 85c-21.26 0-38.5 17.01-38.5 38s17.24 38 38.5 38 38.5-17.01 38.5-38-17.24-38-38.5-38zm5.84 53.28c-1.02 0.89-2.22 1.48-3.41 1.89v2.3c0 1.59-1.26 2.83-2.87 2.83-1.62 0-2.87-1.24-2.87-2.83v-2.3c-2.45-0.77-4.31-2.18-5.56-4.37-0.78-1.35-0.3-3.01 1.07-3.89 1.38-0.77 3.11-0.29 3.89 1.06 0.66 1.06 1.55 1.71 2.75 1.89 1.26 0.17 2.33-0.12 3.23-0.88 0.95-0.77 1.43-1.78 1.43-3.01-0.06-1.13-0.54-2.25-1.49-2.96l-7.47-6.07c-2.22-1.71-3.47-4.31-3.47-7.08-0.06-2.77 1.13-5.37 3.29-7.2 0.95-0.89 2.09-1.42 3.28-1.83v-2.3c0-1.59 1.26-2.83 2.87-2.83 1.62 0 2.87 1.24 2.87 2.83v2.36c2.22 0.65 4.13 2.12 5.27 4.19 0.89 1.35 0.35 3.01-1.02 3.89-1.38 0.77-3.05 0.3-3.95-1.06-0.54-1-1.43-1.59-2.57-1.77-1.13-0.18-2.15 0.06-3.05 0.82-0.89 0.77-1.31 1.72-1.25 2.84 0 1.12 0.42 2 1.31 2.77l7.54 6.08c2.21 1.83 3.52 4.43 3.58 7.26 0 2.89-1.25 5.54-3.4 7.37z" fill-rule="nonzero" mask="url(#mask-2)" transform="translate(468.5 123) rotate(30) translate(-468.5 -123)" fill="#B4CDFF"/>
    <path id="Combined-Shape-Copy-7" opacity=".083217" d="m15.342-18.841c-21.263 0-38.5 17.011-38.5 38.001 0 20.986 17.237 37.999 38.5 37.999s38.5-17.013 38.5-37.999c0-20.99-17.237-38.001-38.5-38.001zm5.835 53.282c-1.016 0.885-2.212 1.475-3.407 1.888v2.302c0 1.593-1.256 2.832-2.871 2.832-1.613 0-2.869-1.239-2.869-2.832v-2.302c-2.4516-0.767-4.3032-2.182-5.5593-4.367-0.7764-1.357-0.2978-3.01 1.0761-3.895 1.3739-0.765 3.1082-0.293 3.8852 1.063 0.659 1.063 1.555 1.71 2.75 1.889 1.256 0.175 2.332-0.117 3.228-0.885 0.956-0.767 1.435-1.77 1.435-3.009-0.06-1.123-0.539-2.243-1.495-2.953l-7.4729-6.075c-2.2116-1.711-3.4658-4.308-3.4658-7.081-0.0593-2.7703 1.1355-5.3697 3.2877-7.1973 0.955-0.8854 2.092-1.4165 3.288-1.8294v-2.3c0-1.5951 1.256-2.833 2.87-2.833 1.613 0 2.868 1.2379 2.868 2.833v2.3568c2.214 0.65 4.126 2.1269 5.263 4.1907 0.896 1.3561 0.358 3.0078-1.018 3.8952-1.374 0.767-3.048 0.294-3.945-1.0622-0.538-1.0026-1.436-1.5923-2.571-1.7708-1.136-0.1758-2.152 0.0586-3.047 0.8249-0.897 0.7682-1.316 1.7122-1.256 2.8331 0 1.121 0.416 2.006 1.314 2.772l7.532 6.079c2.213 1.829 3.528 4.426 3.587 7.258 0.001 2.892-1.255 5.546-3.407 7.375z" fill-rule="nonzero" mask="url(#mask-2)" transform="translate(15.342 19.159) rotate(30) translate(-15.342 -19.159)" fill="#B4CDFF"/>
    <path id="Combined-Shape-Copy-4" opacity=".083217" d="m128.5-21c-21.26 0-38.5 17.011-38.5 38.001 0 20.986 17.24 37.999 38.5 37.999s38.5-17.013 38.5-37.999c0-20.99-17.24-38.001-38.5-38.001zm5.84 53.282c-1.02 0.885-2.22 1.475-3.41 1.888v2.302c0 1.593-1.26 2.832-2.87 2.832-1.62 0-2.87-1.239-2.87-2.832v-2.302c-2.45-0.767-4.31-2.182-5.56-4.367-0.78-1.357-0.3-3.01 1.07-3.895 1.38-0.765 3.11-0.293 3.89 1.063 0.66 1.063 1.55 1.71 2.75 1.889 1.26 0.175 2.33-0.117 3.23-0.884 0.95-0.768 1.43-1.771 1.43-3.01-0.06-1.123-0.54-2.242-1.49-2.953l-7.47-6.075c-2.22-1.71-3.47-4.308-3.47-7.0806-0.06-2.7707 1.13-5.3701 3.29-7.1977 0.95-0.88538 2.09-1.4164 3.28-1.8294v-2.3c0-1.595 1.26-2.8329 2.87-2.8329 1.62 0 2.87 1.2379 2.87 2.8329v2.3568c2.22 0.65008 4.13 2.127 5.27 4.1908 0.89 1.356 0.35 3.0078-1.02 3.895-1.38 0.7673-3.05 0.2939-3.95-1.0621-0.54-1.0026-1.43-1.5923-2.57-1.7708-1.13-0.1758-2.15 0.0586-3.05 0.825-0.89 0.7682-1.31 1.7122-1.25 2.8329 0 1.1216 0.42 2.0061 1.31 2.7721l7.54 6.079c2.21 1.829 3.52 4.426 3.58 7.258 0 2.892-1.25 5.546-3.4 7.375z" fill-rule="nonzero" mask="url(#mask-2)" fill="#B4CDFF"/>
    <path id="Combined-Shape-Copy-3" opacity=".083217" d="m57 78c-12.703 0-23 10.072-23 22.5 0 12.43 10.297 22.5 23 22.5s23-10.07 23-22.5c0-12.428-10.297-22.5-23-22.5zm3.486 31.55c-0.607 0.52-1.321 0.87-2.036 1.12v1.36c0 0.94-0.75 1.68-1.714 1.68s-1.714-0.74-1.714-1.68v-1.36c-1.465-0.46-2.571-1.3-3.322-2.59-0.464-0.8-0.178-1.78 0.643-2.31 0.821-0.45 1.857-0.17 2.321 0.63 0.394 0.63 0.929 1.02 1.643 1.12 0.751 0.11 1.393-0.07 1.928-0.52 0.572-0.46 0.858-1.05 0.858-1.78-0.036-0.67-0.322-1.33-0.893-1.75l-4.465-3.599c-1.321-1.013-2.07-2.551-2.07-4.192-0.036-1.641 0.678-3.18 1.964-4.262 0.571-0.524 1.25-0.839 1.964-1.083v-1.362c0-0.945 0.75-1.678 1.715-1.678 0.963 0 1.713 0.733 1.713 1.678v1.395c1.322 0.385 2.465 1.26 3.144 2.482 0.535 0.803 0.214 1.781-0.608 2.306-0.821 0.454-1.821 0.174-2.357-0.629-0.321-0.594-0.858-0.943-1.536-1.048-0.678-0.104-1.285 0.034-1.82 0.488-0.536 0.455-0.786 1.014-0.75 1.677 0 0.665 0.248 1.188 0.785 1.642l4.499 3.595c1.322 1.09 2.108 2.63 2.143 4.3 0.001 1.71-0.749 3.29-2.035 4.37z" fill-rule="nonzero" mask="url(#mask-2)" fill="#B4CDFF"/>
    <path id="Combined-Shape-Copy" opacity=".083217" d="m283 9c-12.7 0-23 10.072-23 22.501 0 12.425 10.3 22.499 23 22.499s23-10.074 23-22.499c0-12.429-10.3-22.501-23-22.501zm3.49 31.548c-0.61 0.525-1.33 0.874-2.04 1.118v1.363c0 0.944-0.75 1.678-1.71 1.678-0.97 0-1.72-0.734-1.72-1.678v-1.363c-1.46-0.454-2.57-1.292-3.32-2.585-0.46-0.804-0.18-1.782 0.64-2.306 0.82-0.454 1.86-0.174 2.32 0.629 0.4 0.629 0.93 1.013 1.65 1.118 0.75 0.104 1.39-0.069 1.93-0.523 0.57-0.455 0.85-1.049 0.85-1.782-0.03-0.665-0.32-1.328-0.89-1.749l-4.46-3.597c-1.33-1.013-2.08-2.551-2.08-4.192-0.03-1.641 0.68-3.18 1.97-4.262 0.57-0.524 1.25-0.839 1.96-1.083v-1.362c0-0.945 0.75-1.678 1.72-1.678 0.96 0 1.71 0.733 1.71 1.678v1.395c1.32 0.385 2.47 1.26 3.15 2.482 0.53 0.803 0.21 1.781-0.61 2.306-0.82 0.454-1.82 0.174-2.36-0.629-0.32-0.594-0.86-0.943-1.54-1.048-0.67-0.104-1.28 0.034-1.82 0.488-0.53 0.455-0.78 1.014-0.75 1.677 0 0.665 0.25 1.188 0.79 1.642l4.5 3.599c1.32 1.083 2.11 2.621 2.14 4.298 0 1.712-0.75 3.284-2.03 4.366z" fill-rule="nonzero" mask="url(#mask-2)" fill="#B4CDFF"/>
    <path id="Combined-Shape-Copy-2" opacity=".083217" d="m325 123c-10.49 0-19 8.51-19 19s8.51 19 19 19 19-8.51 19-19-8.51-19-19-19zm2.88 26.64c-0.5 0.44-1.09 0.74-1.68 0.94v1.16c0 0.79-0.62 1.41-1.42 1.41-0.79 0-1.41-0.62-1.41-1.41v-1.16c-1.21-0.38-2.13-1.09-2.75-2.18-0.38-0.68-0.14-1.5 0.53-1.95 0.68-0.38 1.54-0.14 1.92 0.54 0.33 0.53 0.77 0.85 1.36 0.94 0.62 0.09 1.15-0.06 1.59-0.44 0.47-0.39 0.71-0.89 0.71-1.51-0.03-0.56-0.27-1.12-0.74-1.47l-3.69-3.04c-1.09-0.86-1.71-2.16-1.71-3.54-0.03-1.39 0.56-2.69 1.63-3.6 0.47-0.44 1.03-0.71 1.62-0.91v-1.15c0-0.8 0.62-1.42 1.41-1.42 0.8 0 1.42 0.62 1.42 1.42v1.17c1.09 0.33 2.04 1.07 2.6 2.1 0.44 0.68 0.17 1.5-0.51 1.95-0.67 0.38-1.5 0.14-1.94-0.53-0.27-0.51-0.71-0.8-1.27-0.89s-1.06 0.03-1.5 0.41c-0.45 0.39-0.65 0.86-0.62 1.42 0 0.56 0.2 1 0.64 1.39l3.72 3.03c1.09 0.92 1.74 2.22 1.77 3.63 0 1.45-0.62 2.78-1.68 3.69z" fill-rule="nonzero" mask="url(#mask-2)" fill="#B4CDFF"/>
    <path id="Combined-Shape-Copy-6" opacity=".083217" d="m388 31c-10.49 0-19 8.506-19 19 0 10.493 8.51 19 19 19s19-8.507 19-19c0-10.494-8.51-19-19-19zm2.88 26.641c-0.5 0.443-1.09 0.737-1.68 0.944v1.151c0 0.796-0.62 1.416-1.42 1.416-0.79 0-1.41-0.62-1.41-1.416v-1.151c-1.21-0.383-2.13-1.091-2.75-2.183-0.38-0.679-0.14-1.505 0.53-1.948 0.68-0.383 1.54-0.146 1.92 0.532 0.33 0.531 0.77 0.855 1.36 0.944 0.62 0.087 1.15-0.059 1.59-0.442 0.47-0.384 0.71-0.886 0.71-1.505-0.03-0.561-0.27-1.121-0.74-1.476l-3.69-3.038c-1.09-0.855-1.71-2.154-1.71-3.54-0.03-1.386 0.56-2.685 1.63-3.599 0.47-0.443 1.03-0.708 1.62-0.915v-1.15c0-0.797 0.62-1.416 1.41-1.416 0.8 0 1.42 0.619 1.42 1.416v1.179c1.09 0.325 2.04 1.063 2.6 2.095 0.44 0.678 0.17 1.504-0.51 1.947-0.67 0.384-1.5 0.147-1.94-0.531-0.27-0.501-0.71-0.796-1.27-0.885-0.56-0.088-1.06 0.029-1.5 0.412-0.45 0.385-0.65 0.857-0.62 1.417 0 0.561 0.2 1.003 0.64 1.386l3.72 3.04c1.09 0.914 1.74 2.213 1.77 3.629 0 1.445-0.62 2.773-1.68 3.687z" fill-rule="nonzero" mask="url(#mask-2)" fill="#B4CDFF"/>
    <path id="Combined-Shape-Copy-5" opacity=".083217" d="m169 119c-7.18 0-13 5.82-13 13s5.82 13 13 13 13-5.82 13-13-5.82-13-13-13zm1.97 18.23c-0.34 0.3-0.75 0.5-1.15 0.64v0.79c0 0.55-0.42 0.97-0.97 0.97-0.54 0-0.97-0.42-0.97-0.97v-0.79c-0.83-0.26-1.45-0.74-1.88-1.49-0.26-0.46-0.1-1.03 0.37-1.33 0.46-0.26 1.05-0.1 1.31 0.36 0.22 0.36 0.52 0.59 0.93 0.65 0.42 0.06 0.79-0.04 1.09-0.31 0.32-0.26 0.48-0.6 0.48-1.02-0.02-0.39-0.18-0.77-0.5-1.02l-2.53-2.07c-0.74-0.59-1.17-1.48-1.17-2.43-0.02-0.94 0.39-1.83 1.11-2.46 0.33-0.3 0.71-0.48 1.11-0.62v-0.79c0-0.55 0.43-0.97 0.97-0.97 0.55 0 0.97 0.42 0.97 0.97v0.81c0.75 0.22 1.4 0.72 1.78 1.43 0.3 0.46 0.12 1.03-0.34 1.33-0.47 0.26-1.03 0.1-1.34-0.36-0.18-0.34-0.48-0.55-0.86-0.61-0.39-0.06-0.73 0.02-1.03 0.28-0.31 0.27-0.45 0.59-0.43 0.97 0 0.39 0.14 0.69 0.45 0.95l2.54 2.08c0.75 0.63 1.19 1.52 1.21 2.49 0 0.98-0.42 1.89-1.15 2.52z" fill-rule="nonzero" mask="url(#mask-2)" fill="#B4CDFF"/>
    <g id="noun_Money_1737048_000000-Copy" mask="url(#mask-2)"></g>
   </g>
  </g>
 </g>
</svg>
