<?xml version="1.0" encoding="UTF-8"?>
<svg width="50px" height="52px" viewBox="0 0 50 52" version="1.1" xmlns="http://www.w3.org/2000/svg" xmlns:xlink="http://www.w3.org/1999/xlink">
    <!-- Generator: Sketch 52.5 (67469) - http://www.bohemiancoding.com/sketch -->
    <title>diversify-icon</title>
    <desc>Created with Sketch.</desc>
    <g id="Blocks" stroke="none" stroke-width="1" fill="none" fill-rule="evenodd">
        <g id="How-does-it-suit" transform="translate(-347.000000, -880.000000)" fill="#6D5CAE" fill-rule="nonzero">
            <g id="Group-9-Copy-3" transform="translate(210.000000, 833.000000)">
                <g id="Group-3" transform="translate(40.000000, 47.000000)">
                    <g id="Group-34">
                        <g id="diversify-icon" transform="translate(97.000000, 0.000000)">
                            <path d="M27.1929825,28.0701754 L28.0701754,28.0701754 C32.9125741,28.0648576 36.8367874,24.1406442 36.8421053,19.2982456 C36.8421053,18.8137853 36.4493726,18.4210526 35.9649123,18.4210526 L34.2105263,18.4210526 C31.4448171,18.423655 28.8429852,19.7330269 27.1929825,21.9526316 L27.1929825,17.1184211 L32.4245614,13.3815789 C34.4359719,17.6505929 39.4387293,19.5961105 43.8058328,17.8076309 C48.1729362,16.0191512 50.373971,11.123432 48.813186,6.66987134 C47.252401,2.21631071 42.4767603,-0.234378358 37.9486051,1.09455461 C33.42045,2.42348757 30.7266343,7.06632916 31.8201754,11.6570175 L26.3157895,15.5885965 L20.8114035,11.6570175 C21.8918822,7.10405412 19.2179879,2.50228723 14.7273906,1.18644302 C10.2367933,-0.129401188 5.5021701,2.30150641 3.95452303,6.71757918 C2.40687596,11.1336519 4.58821517,15.9883124 8.91780676,17.763572 C13.2473984,19.5388317 18.2089519,17.6129669 20.2070175,13.3815789 L25.4385965,17.1184211 L25.4385965,21.9526316 C23.7885937,19.7330269 21.1867618,18.423655 18.4210526,18.4210526 L16.6666667,18.4210526 C16.1822064,18.4210526 15.7894737,18.8137853 15.7894737,19.2982456 C15.7947916,24.1406442 19.7190049,28.0648576 24.5614035,28.0701754 L25.4385965,28.0701754 L25.4385965,29.8245614 L27.1929825,29.8245614 L27.1929825,28.0701754 Z M40.3508772,2.63157895 C44.2265596,2.63157895 47.3684211,5.77344035 47.3684211,9.64912281 C47.3684211,13.5248053 44.2265596,16.6666667 40.3508772,16.6666667 C36.4751947,16.6666667 33.3333333,13.5248053 33.3333333,9.64912281 C33.3376841,5.77524393 36.4769983,2.63592972 40.3508772,2.63157895 Z M12.2807018,16.6666667 C8.4050193,16.6666667 5.26315789,13.5248053 5.26315789,9.64912281 C5.26315789,5.77344035 8.4050193,2.63157895 12.2807018,2.63157895 C16.1563842,2.63157895 19.2982456,5.77344035 19.2982456,9.64912281 C19.2938948,13.5230017 16.1545806,16.6623159 12.2807018,16.6666667 Z M34.2105263,20.1754386 L35.0324561,20.1754386 C34.5863608,23.6819858 31.6049817,26.3113991 28.0701754,26.3157895 L27.2473684,26.3157895 C27.6942395,22.8092998 30.6756796,20.1801639 34.2105263,20.1754386 Z M24.5614035,26.3157895 C21.0265568,26.3110642 18.0451166,23.6819283 17.5982456,20.1754386 L18.4210526,20.1754386 C21.9558589,20.1798289 24.937238,22.8092422 25.3833333,26.3157895 L24.5614035,26.3157895 Z" id="Shape"></path>
                            <path d="M39.4736842,13.9078947 L39.4736842,14.9122807 L41.2280702,14.9122807 L41.2280702,13.9078947 C42.2012103,13.6052049 42.8923947,12.7410318 42.9738648,11.725165 C43.0553349,10.7092982 42.5107081,9.74601597 41.5982456,9.29210526 L39.8885965,8.43684211 C39.57782,8.28161602 39.4145318,7.93310026 39.4941552,7.5949623 C39.5737785,7.25682433 39.8754209,7.01778852 40.222807,7.01754386 L40.4789474,7.01754386 C40.8924761,7.01802724 41.2275868,7.35313795 41.2280702,7.76666667 L41.2280702,7.89473684 L42.9824561,7.89473684 L42.9824561,7.76666667 C42.9784144,6.67674296 42.2684839,5.71514211 41.2280702,5.39035088 L41.2280702,4.38596491 L39.4736842,4.38596491 L39.4736842,5.39035088 C38.5005441,5.69304069 37.8093597,6.55721377 37.7278896,7.5730806 C37.6464195,8.58894742 38.1910462,9.55222965 39.1035088,10.0061404 L40.8131579,10.8614035 C41.1239344,11.0166296 41.2872225,11.3651453 41.2075992,11.7032833 C41.1279759,12.0414213 40.8263335,12.2804571 40.4789474,12.2807018 L40.222807,12.2807018 C39.8092783,12.2802184 39.4741676,11.9451077 39.4736842,11.5315789 L39.4736842,11.4035088 L37.7192982,11.4035088 L37.7192982,11.5315789 C37.72334,12.6215027 38.4332705,13.5831035 39.4736842,13.9078947 Z" id="Path"></path>
                            <path d="M13.1578947,5.39035088 L13.1578947,4.38596491 L11.4035088,4.38596491 L11.4035088,5.39035088 C10.4303687,5.69304069 9.73918428,6.55721377 9.65771415,7.5730806 C9.57624403,8.58894742 10.1208708,9.55222965 11.0333333,10.0061404 L12.7429825,10.8614035 C13.0537589,11.0166296 13.2170471,11.3651453 13.1374238,11.7032833 C13.0578004,12.0414213 12.756158,12.2804571 12.4087719,12.2807018 L12.1526316,12.2807018 C11.7391029,12.2802184 11.4039921,11.9451077 11.4035088,11.5315789 L11.4035088,11.4035088 L9.64912281,11.4035088 L9.64912281,11.5315789 C9.65316458,12.6215027 10.3630951,13.5831035 11.4035088,13.9078947 L11.4035088,14.9122807 L13.1578947,14.9122807 L13.1578947,13.9078947 C14.1310348,13.6052049 14.8222192,12.7410318 14.9036894,11.725165 C14.9851595,10.7092982 14.4405327,9.74601597 13.5280702,9.29210526 L11.8184211,8.43684211 C11.5076446,8.28161602 11.3443564,7.93310026 11.4239797,7.5949623 C11.5036031,7.25682433 11.8052455,7.01778852 12.1526316,7.01754386 L12.4087719,7.01754386 C12.8223006,7.01802724 13.1574114,7.35313795 13.1578947,7.76666667 L13.1578947,7.89473684 L14.9122807,7.89473684 L14.9122807,7.76666667 C14.9082389,6.67674296 14.1983084,5.71514211 13.1578947,5.39035088 Z" id="Path"></path>
                            <path d="M4.38596491,49.122807 L11.4035088,49.122807 C11.8879691,49.122807 12.2807018,48.7300743 12.2807018,48.245614 L12.2807018,47.9114035 L18.8298246,50.6307018 C22.3999905,52.0888517 26.3913852,52.133075 29.9929825,50.754386 L43.5438596,45.5868421 C44.34665,45.2817935 44.9926612,44.6661382 45.3359649,43.8789474 C45.690438,43.080676 45.7087743,42.1733444 45.3868421,41.3614035 C45.0722359,40.551627 44.4417488,39.9046732 43.6403509,39.5692982 C42.8549764,39.2370278 41.9681538,39.2389281 41.1842105,39.5745614 L38.4885965,40.7149123 C38.5576827,40.3047189 38.5937633,39.8896458 38.5964912,39.4736842 C38.5964912,34.1535088 33.0877193,29.8245614 26.3157895,29.8245614 C21.1947368,29.8245614 16.6903509,32.2745614 14.8701754,35.9754386 C14.7482456,35.9754386 14.6263158,35.9649123 14.504386,35.9649123 L12.2807018,35.9649123 C12.2807018,35.480452 11.8879691,35.0877193 11.4035088,35.0877193 L4.38596491,35.0877193 C3.90150461,35.0877193 3.50877193,35.480452 3.50877193,35.9649123 L0,35.9649123 L0,37.7192982 L3.50877193,37.7192982 L3.50877193,46.4912281 L0,46.4912281 L0,48.245614 L3.50877193,48.245614 C3.50877193,48.7300743 3.90150461,49.122807 4.38596491,49.122807 Z M26.3157895,31.5789474 C32.1201754,31.5789474 36.8421053,35.1210526 36.8421053,39.4736842 C36.8387702,40.1946254 36.7062666,40.9091348 36.4508772,41.5833333 L35.4938596,41.9894737 C35.5104458,41.8825295 35.5212801,41.7747722 35.5263158,41.6666667 C35.5263158,39.9710556 34.1517514,38.5964912 32.4561404,38.5964912 L25.6517544,38.5964912 C24.9633583,38.5954566 24.2845395,38.4351341 23.6684211,38.1280702 C21.5180687,37.0565615 19.1968057,36.3695935 16.8096491,36.0982456 C18.5368421,33.3903509 22.2473684,31.5789474 26.3157895,31.5789474 Z M14.504386,37.7192982 C17.4129329,37.7227039 20.2811635,38.399754 22.8842105,39.6973684 C23.7437456,40.1263747 24.6911055,40.3500778 25.6517544,40.3508772 L32.4561404,40.3508772 C33.1231741,40.3551852 33.6814515,40.8579551 33.7553358,41.5208983 C33.82922,42.1838416 33.3953324,42.7971871 32.745614,42.9482456 C32.6307018,42.9587719 32.5184211,42.9824561 32.4017544,42.9824561 L21.9298246,42.9824561 L21.9298246,44.7368421 L32.4017544,44.7368421 C32.4201754,44.7368421 32.4377193,44.7368421 32.4561404,44.7368421 C32.4736842,44.7368421 32.4903509,44.7315789 32.5087719,44.7315789 C33.2049566,44.7203489 33.8924122,44.5746965 34.5333333,44.3026316 L41.8675439,41.1894737 C42.216911,41.0403234 42.6120364,41.0403234 42.9614035,41.1894737 C43.3247895,41.3428339 43.6099061,41.6377712 43.7508772,42.0061404 C43.8999259,42.3821372 43.8913899,42.8022969 43.727193,43.1719298 C43.572239,43.5300756 43.2793902,43.8105906 42.9149123,43.95 L29.3640351,49.1166667 C26.179944,50.3363622 22.6509851,50.2984131 19.4938596,49.0105263 L12.2807018,46.0114035 L12.2807018,37.7192982 L14.504386,37.7192982 Z M5.26315789,36.8421053 L10.5263158,36.8421053 L10.5263158,47.3684211 L5.26315789,47.3684211 L5.26315789,36.8421053 Z" id="Shape"></path>
                            <rect id="Rectangle" x="7.01754386" y="43.8596491" width="1.75438596" height="1.75438596"></rect>
                        </g>
                    </g>
                </g>
            </g>
        </g>
    </g>
</svg>