<?xml version="1.0" encoding="UTF-8"?>
<svg width="50px" height="47px" viewBox="0 0 50 47" version="1.1" xmlns="http://www.w3.org/2000/svg" xmlns:xlink="http://www.w3.org/1999/xlink">
    <!-- Generator: Sketch 52.5 (67469) - http://www.bohemiancoding.com/sketch -->
    <title>Investor-icon</title>
    <desc>Created with Sketch.</desc>
    <g id="Blocks" stroke="none" stroke-width="1" fill="none" fill-rule="evenodd">
        <g id="How-does-it-suit" transform="translate(-345.000000, -541.000000)" fill="#6D5CAE" fill-rule="nonzero">
            <g id="Group-9" transform="translate(210.000000, 484.000000)">
                <g id="Group-3" transform="translate(51.000000, 57.000000)">
                    <g id="Group-34">
                        <g id="Investor-icon" transform="translate(84.000000, 0.000000)">
                            <path d="M50,0 L0,0 L0,38.3333333 L31.6666667,38.3333333 L31.6666667,46.175 L37.5,40.3416667 L43.3333333,46.175 L43.3333333,38.3333333 L50,38.3333333 L50,0 Z M41.6666667,42.1583333 L37.5,37.9916667 L33.3333333,42.1583333 L33.3333333,38.3333333 L33.3333333,33.0416667 C33.3416667,33.05 33.3583333,33.05 33.3666667,33.0583333 C34.5833333,33.7583333 35.9916667,34.1666667 37.5,34.1666667 C39.0083333,34.1666667 40.4166667,33.7583333 41.6333333,33.0583333 C41.6416667,33.05 41.6583333,33.05 41.6666667,33.0416667 L41.6666667,38.3333333 L41.6666667,42.1583333 Z M41.9083333,30.8166667 C41.775,30.9333333 41.6416667,31.0416667 41.5083333,31.15 C41.4833333,31.1666667 41.4583333,31.1916667 41.425,31.2083333 C41.2916667,31.3083333 41.15,31.4 41,31.4916667 C40.9666667,31.5083333 40.9333333,31.5333333 40.9,31.55 C40.7583333,31.6333333 40.6166667,31.7166667 40.475,31.7833333 C40.4333333,31.8083333 40.3916667,31.825 40.35,31.8416667 C40.2083333,31.9083333 40.0666667,31.975 39.925,32.025 C39.8666667,32.05 39.8166667,32.0666667 39.7583333,32.0833333 C39.625,32.1333333 39.4916667,32.175 39.35,32.2166667 C39.275,32.2416667 39.2,32.2583333 39.125,32.275 C39,32.3083333 38.875,32.3416667 38.75,32.3583333 C38.6416667,32.375 38.5333333,32.3916667 38.425,32.4083333 C38.325,32.425 38.225,32.4416667 38.1333333,32.45 C37.9333333,32.4916667 37.7166667,32.5 37.5,32.5 C37.2833333,32.5 37.0666667,32.4916667 36.8583333,32.4666667 C36.7583333,32.4583333 36.6583333,32.4416667 36.5666667,32.425 C36.4583333,32.4083333 36.35,32.4 36.2416667,32.375 C36.1166667,32.35 35.9916667,32.3166667 35.8666667,32.2916667 C35.7916667,32.275 35.7166667,32.2583333 35.6416667,32.2333333 C35.5083333,32.1916667 35.3666667,32.15 35.2333333,32.1 C35.175,32.0833333 35.125,32.0583333 35.0666667,32.0416667 C34.925,31.9833333 34.7833333,31.925 34.6416667,31.8583333 C34.6,31.8416667 34.5583333,31.8166667 34.5166667,31.8 C34.375,31.725 34.225,31.65 34.0916667,31.5666667 C34.0583333,31.55 34.025,31.525 33.9916667,31.5083333 C33.85,31.4166667 33.7083333,31.325 33.5666667,31.225 C33.5416667,31.2083333 33.5166667,31.1833333 33.4833333,31.1666667 C33.3416667,31.0583333 33.2083333,30.95 33.0833333,30.8333333 C31.7083333,29.6 30.8333333,27.8166667 30.8333333,25.8333333 C30.8333333,22.1583333 33.825,19.1666667 37.5,19.1666667 C41.175,19.1666667 44.1666667,22.1583333 44.1666667,25.8333333 C44.1666667,27.8166667 43.2916667,29.6 41.9083333,30.8166667 Z M48.3333333,36.6666667 L43.3333333,36.6666667 L43.3333333,31.775 C44.875,30.2583333 45.8333333,28.1583333 45.8333333,25.8333333 C45.8333333,21.2416667 42.0916667,17.5 37.5,17.5 C32.9083333,17.5 29.1666667,21.2416667 29.1666667,25.8333333 C29.1666667,28.1583333 30.125,30.2583333 31.6666667,31.775 L31.6666667,36.6666667 L1.66666667,36.6666667 L1.66666667,1.66666667 L48.3333333,1.66666667 L48.3333333,36.6666667 Z" id="Shape"></path>
                            <path d="M10.15,10.6416667 C9.64166667,11.2416667 9.40833333,12.0166667 9.49166667,12.8083333 C9.575,13.625 10,14.3833333 10.6416667,14.8833333 L12.5,16.3333333 L12.5,20.8666667 C11.5333333,20.525 10.8333333,19.6083333 10.8333333,18.5166667 C10.8333333,18.0583333 10.4583333,17.6833333 10,17.6833333 C9.54166667,17.6833333 9.16666667,18.0583333 9.16666667,18.5166667 C9.16666667,20.525 10.6,22.2083333 12.5,22.6 L12.5,23.3333333 C12.5,23.7916667 12.875,24.1666667 13.3333333,24.1666667 C13.7916667,24.1666667 14.1666667,23.7916667 14.1666667,23.3333333 L14.1666667,22.6 C15.075,22.4166667 15.9083333,21.9333333 16.5166667,21.2083333 C17.025,20.6083333 17.2583333,19.8333333 17.175,19.0333333 C17.0916667,18.2166667 16.6666667,17.4666667 16.025,16.9583333 L14.1666667,15.5166667 L14.1666667,10.9833333 C15.1333333,11.325 15.8333333,12.2416667 15.8333333,13.3333333 C15.8333333,13.7916667 16.2083333,14.1666667 16.6666667,14.1666667 C17.125,14.1666667 17.5,13.7916667 17.5,13.3333333 C17.5,11.325 16.0666667,9.64166667 14.1666667,9.25 L14.1666667,8.33333333 C14.1666667,7.875 13.7916667,7.5 13.3333333,7.5 C12.875,7.5 12.5,7.875 12.5,8.33333333 L12.5,9.25 C11.5916667,9.44166667 10.7583333,9.925 10.15,10.6416667 Z M15,18.275 C15.2916667,18.5 15.4833333,18.8416667 15.5166667,19.2083333 C15.55,19.55 15.45,19.875 15.2416667,20.1333333 C14.95,20.475 14.575,20.7166667 14.1666667,20.8666667 L14.1666667,17.6333333 L15,18.275 Z M11.6666667,13.575 C11.375,13.35 11.1833333,13.0083333 11.15,12.6416667 C11.1166667,12.3 11.2166667,11.975 11.425,11.725 C11.7166667,11.3833333 12.0916667,11.1416667 12.5,10.9916667 L12.5,14.225 L11.6666667,13.575 Z" id="Shape"></path>
                            <path d="M20.8333333,12.5 L40,12.5 C40.4583333,12.5 40.8333333,12.125 40.8333333,11.6666667 C40.8333333,11.2083333 40.4583333,10.8333333 40,10.8333333 L20.8333333,10.8333333 C20.375,10.8333333 20,11.2083333 20,11.6666667 C20,12.125 20.375,12.5 20.8333333,12.5 Z" id="Path"></path>
                            <path d="M20.8333333,17.5 L30,17.5 C30.4583333,17.5 30.8333333,17.125 30.8333333,16.6666667 C30.8333333,16.2083333 30.4583333,15.8333333 30,15.8333333 L20.8333333,15.8333333 C20.375,15.8333333 20,16.2083333 20,16.6666667 C20,17.125 20.375,17.5 20.8333333,17.5 Z" id="Path"></path>
                            <path d="M20.8333333,22.5 L27.5,22.5 C27.9583333,22.5 28.3333333,22.125 28.3333333,21.6666667 C28.3333333,21.2083333 27.9583333,20.8333333 27.5,20.8333333 L20.8333333,20.8333333 C20.375,20.8333333 20,21.2083333 20,21.6666667 C20,22.125 20.375,22.5 20.8333333,22.5 Z" id="Path"></path>
                            <path d="M9.16666667,28.3333333 L26.6666667,28.3333333 C27.125,28.3333333 27.5,27.9583333 27.5,27.5 C27.5,27.0416667 27.125,26.6666667 26.6666667,26.6666667 L9.16666667,26.6666667 C8.70833333,26.6666667 8.33333333,27.0416667 8.33333333,27.5 C8.33333333,27.9583333 8.70833333,28.3333333 9.16666667,28.3333333 Z" id="Path"></path>
                        </g>
                    </g>
                </g>
            </g>
        </g>
    </g>
</svg>