<?xml version="1.0" encoding="UTF-8"?>
<svg width="50px" height="48px" viewBox="0 0 50 48" version="1.1" xmlns="http://www.w3.org/2000/svg" xmlns:xlink="http://www.w3.org/1999/xlink">
    <!-- Generator: Sketch 52.5 (67469) - http://www.bohemiancoding.com/sketch -->
    <title>ownership-icon</title>
    <desc>Created with Sketch.</desc>
    <g id="Blocks" stroke="none" stroke-width="1" fill="none" fill-rule="evenodd">
        <g id="How-does-it-suit" transform="translate(-1046.000000, -889.000000)" fill="#6D5CAE" fill-rule="nonzero">
            <g id="Group-9-Copy-5" transform="translate(911.000000, 833.000000)">
                <g id="Group-3" transform="translate(40.000000, 56.000000)">
                    <g id="Group-34">
                        <g id="ownership-icon" transform="translate(95.000000, 0.000000)">
                            <path d="M40.3787879,9.84848485 C38.2575758,9.84848485 36.5909091,11.5151515 36.5909091,13.6363636 C36.5909091,14.6212121 36.969697,15.6060606 37.6515152,16.2878788 C38.3333333,16.969697 39.3181818,17.4242424 40.3030303,17.4242424 L40.3030303,16.6666667 L40.3030303,15.9090909 C40.3030303,15.9090909 40.3030303,15.9090909 40.3030303,15.9090909 C39.6969697,15.9090909 39.1666667,15.6818182 38.7121212,15.2272727 C38.2575758,14.7727273 38.030303,14.2424242 38.030303,13.6363636 C38.030303,12.4242424 39.0151515,11.3636364 40.3030303,11.3636364 C41.5151515,11.3636364 42.5757576,12.3484848 42.5757576,13.6363636 C42.5757576,14.8484848 41.5909091,15.9090909 40.3030303,15.9090909 L40.3030303,16.6666667 L40.3030303,17.4242424 C42.3484848,17.4242424 44.0909091,15.7575758 44.0909091,13.6363636 C44.1666667,11.5909091 42.5,9.92424242 40.3787879,9.84848485 Z" id="Path"></path>
                            <path d="M46.969697,8.78787879 C45.3787879,7.1969697 43.3333333,6.28787879 41.1363636,6.13636364 C40.7575758,3.03030303 38.1818182,0.681818182 35,0.681818182 L5.90909091,0.681818182 C3.71212121,0.681818182 1.89393939,2.5 1.89393939,4.6969697 C1.89393939,6.89393939 3.71212121,8.71212121 5.90909091,8.71212121 L8.56060606,8.71212121 C12.2727273,8.71212121 15.2272727,11.5909091 15.3787879,15.3030303 L9.39393939,20.9848485 L9.39393939,18.4090909 C9.39393939,17.9545455 9.09090909,17.6515152 8.63636364,17.6515152 L3.93939394,17.6515152 C3.48484848,17.6515152 3.18181818,18.030303 3.18181818,18.4090909 L3.18181818,26.8181818 L0.454545455,30.3787879 C0.0757575758,30.9090909 0.454545455,31.5909091 1.06060606,31.5909091 L3.93939394,31.5909091 L3.93939394,46.7424242 C3.93939394,47.1969697 4.24242424,47.5 4.6969697,47.5 C12.9545455,47.5 19.3181818,47.5 27.5757576,47.5 C28.030303,47.5 28.3333333,47.1969697 28.3333333,46.7424242 L28.3333333,31.5909091 L31.2121212,31.5909091 C31.8939394,31.5909091 32.1969697,30.7575758 31.7424242,30.3030303 L16.8939394,15.2272727 C16.7424242,10.7575758 13.030303,7.1969697 8.56060606,7.1969697 L5.90909091,7.1969697 C4.54545455,7.1969697 3.40909091,6.06060606 3.40909091,4.6969697 C3.40909091,3.33333333 4.54545455,2.1969697 5.90909091,2.1969697 L35,2.1969697 C37.3484848,2.1969697 39.3181818,3.93939394 39.6212121,6.21212121 C34.9242424,6.59090909 31.2121212,10.530303 31.1363636,15.3030303 C31.1363636,18.8636364 33.1060606,22.0454545 36.2878788,23.5606061 L36.2878788,43.6363636 C36.2878788,43.8636364 36.3636364,44.0151515 36.5151515,44.1666667 L39.8484848,47.7272727 C40,47.8787879 40.2272727,47.9545455 40.3787879,47.9545455 C40.530303,47.9545455 40.7575758,47.8787879 40.9090909,47.7272727 L44.2424242,44.1666667 C44.469697,43.9393939 44.5454545,43.5606061 44.3181818,43.2575758 L42.5,40.0757576 L44.2424242,37.8787879 C44.469697,37.6515152 44.469697,37.2727273 44.3181818,37.0454545 L43.030303,34.9242424 L44.3181818,33.1060606 C44.469697,32.8787879 44.469697,32.5 44.3181818,32.2727273 L43.030303,30.1515152 L44.3181818,28.1818182 C44.3939394,28.030303 44.469697,27.9545455 44.469697,27.8030303 L44.469697,23.6363636 C47.5757576,22.1212121 49.6212121,18.9393939 49.6212121,15.4545455 C49.6212121,12.8030303 48.6363636,10.530303 46.969697,8.78787879 Z M18.7121212,45.9848485 L12.8030303,45.9848485 L12.8030303,37.1969697 L18.7121212,37.1969697 L18.7121212,45.9848485 Z M29.3939394,30.0757576 L27.5757576,30.0757576 C27.1212121,30.0757576 26.8181818,30.3787879 26.8181818,30.8333333 L26.8181818,45.9848485 L20.2272727,45.9848485 L20.2272727,36.4393939 C20.2272727,35.9848485 19.9242424,35.6818182 19.469697,35.6818182 L12.0454545,35.6818182 C11.5909091,35.6818182 11.2878788,35.9848485 11.2878788,36.4393939 L11.2878788,45.9848485 L5.53030303,45.9848485 L5.53030303,30.8333333 C5.53030303,30.3787879 5.22727273,30.0757576 4.77272727,30.0757576 L2.65151515,30.0757576 L4.62121212,27.5 C4.6969697,27.3484848 4.77272727,27.1969697 4.77272727,27.0454545 L4.77272727,19.1666667 L7.87878788,19.1666667 L7.87878788,22.7272727 C7.87878788,23.4090909 8.63636364,23.7121212 9.16666667,23.2575758 L16.2121212,16.6666667 L29.3939394,30.0757576 Z M43.4090909,22.3484848 C43.1060606,22.5 42.9545455,22.7272727 42.9545455,23.030303 L42.9545455,27.4242424 L41.5151515,29.6212121 C41.3636364,29.8484848 41.3636364,30.1515152 41.5151515,30.4545455 L42.8030303,32.5757576 L41.5151515,34.3939394 C41.3636364,34.6212121 41.3636364,35 41.5151515,35.2272727 L42.8030303,37.3484848 L41.0606061,39.5454545 C40.9090909,39.7727273 40.8333333,40.1515152 40.9848485,40.3787879 L42.7272727,43.4848485 L40.3030303,46.0606061 L37.7272727,43.3333333 L37.7272727,23.1060606 C37.7272727,22.8030303 37.5757576,22.5 37.2727273,22.4242424 C34.3939394,21.2121212 32.5757576,18.4090909 32.5757576,15.3787879 C32.5757576,11.1363636 36.0606061,7.72727273 40.3787879,7.72727273 C42.4242424,7.72727273 44.3939394,8.56060606 45.8333333,10 C47.2727273,11.4393939 48.1060606,13.4090909 48.1060606,15.4545455 C48.1060606,18.3333333 46.2878788,21.1363636 43.4090909,22.3484848 Z" id="Shape"></path>
                            <path d="M16.1363636,29.1666667 C17.9545455,29.1666667 19.469697,27.6515152 19.469697,25.8333333 C19.469697,24.0151515 17.9545455,22.5 16.1363636,22.5 C14.3181818,22.5 12.8030303,24.0151515 12.8030303,25.8333333 C12.8787879,27.6515152 14.3181818,29.1666667 16.1363636,29.1666667 Z M16.1363636,24.0151515 C17.1212121,24.0151515 17.9545455,24.8484848 17.9545455,25.8333333 C17.9545455,26.8181818 17.1212121,27.6515152 16.1363636,27.6515152 C15.1515152,27.6515152 14.3181818,26.8181818 14.3181818,25.8333333 C14.3939394,24.8484848 15.1515152,24.0151515 16.1363636,24.0151515 Z" id="Shape"></path>
                        </g>
                    </g>
                </g>
            </g>
        </g>
    </g>
</svg>