<?xml version="1.0" encoding="UTF-8"?>
<svg width="134px" height="34px" viewBox="0 0 134 34" version="1.1" xmlns="http://www.w3.org/2000/svg" xmlns:xlink="http://www.w3.org/1999/xlink">
    <!-- Generator: Sketch 52.5 (67469) - http://www.bohemiancoding.com/sketch -->
    <title>Partbnb Logo - RGB</title>
    <desc>Created with Sketch.</desc>
    <g id="Blocks" stroke="none" stroke-width="1" fill="none" fill-rule="evenodd">
        <g id="How-does-it-suit" transform="translate(-211.000000, -1823.000000)">
            <g id="footer_lg" transform="translate(0.000000, 1568.000000)">
                <g id="Partbnb-Logo---RGB" transform="translate(211.000000, 255.000000)">
                    <path d="M127.605581,22.8102223 C125.586672,22.8102223 124.037633,21.3610251 124.037633,19.0879472 C124.037633,16.813268 125.586672,15.3648714 127.605581,15.3648714 C129.625295,15.3648714 131.150155,16.813268 131.150155,19.0879472 C131.150155,21.3610251 129.625295,22.8102223 127.605581,22.8102223 Z M127.919096,13.0021194 C126.394236,13.0021194 125.047491,13.5145427 124.082767,14.5850271 L124.082767,8.5 L121.27725,8.5 L121.27725,25.0384631 L123.948173,25.0384631 L123.948173,23.5003925 C124.89033,24.6373318 126.281402,25.1953928 127.919096,25.1953928 C131.420149,25.1953928 134,22.7878038 134,19.0879472 C134,15.3872899 131.420149,13.0021194 127.919096,13.0021194 Z M113.511101,13.0021194 C111.76138,13.0021194 110.302608,13.5817983 109.383017,14.6739005 L109.383017,13.1358299 L106.7129,13.1358299 L106.7129,25.0384631 L109.517611,25.0384631 L109.517611,19.0206916 C109.517611,16.6355211 110.86355,15.4313263 112.861504,15.4313263 C114.655552,15.4313263 115.710542,16.4569736 115.710542,18.5747232 L115.710542,25.0384631 L118.514448,25.0384631 L118.514448,18.2176282 C118.514448,14.6290635 116.384318,13.0021194 113.511101,13.0021194 Z M98.4535088,22.8102223 C96.4337944,22.8102223 94.8855615,21.3610251 94.8855615,19.0879472 C94.8855615,16.813268 96.4337944,15.3648714 98.4535088,15.3648714 C100.473223,15.3648714 101.998084,16.813268 101.998084,19.0879472 C101.998084,21.3610251 100.473223,22.8102223 98.4535088,22.8102223 Z M98.767024,13.0021194 C97.2413578,13.0021194 95.8946128,13.5145427 94.9306948,14.5850271 L94.9306948,8.5 L92.1251776,8.5 L92.1251776,25.0384631 L94.7961009,25.0384631 L94.7961009,23.5003925 C95.7382582,24.6373318 97.1293305,25.1953928 98.767024,25.1953928 C102.267271,25.1953928 104.847928,22.7878038 104.847928,19.0879472 C104.847928,15.3872899 102.267271,13.0021194 98.767024,13.0021194 Z M89.8338575,22.4082902 C89.4083151,22.7429667 88.8473729,22.8998964 88.263058,22.8998964 C87.2088734,22.8998964 86.6036039,22.2745798 86.6036039,21.1160226 L86.6036039,15.4537448 L89.8120968,15.4537448 L89.8120968,13.2247033 L86.6036039,13.2247033 L86.6036039,10.505657 L83.7980867,10.505657 L83.7980867,21.1824776 C83.7980867,23.8126505 85.3019922,25.1953928 87.9269762,25.1953928 C88.9368335,25.1953928 89.9466907,24.9271712 90.6196602,24.3923293 L89.8338575,22.4082902 Z M78.0516524,14.8748666 L78.0516524,13.1358299 L75.3815351,13.1358299 L75.3815351,25.0384631 L78.1862463,25.0384631 L78.1862463,19.265694 C78.1862463,16.8356865 79.5329913,15.5874553 81.664733,15.5874553 C81.8662209,15.5874553 82.0685147,15.6106744 82.31433,15.6547108 L82.31433,13.0021194 C80.3179881,13.0021194 78.8592158,13.6258347 78.0516524,14.8748666 Z M66.1799868,22.8102223 C64.1602723,22.8102223 62.6346061,21.3610251 62.6346061,19.0879472 C62.6346061,16.813268 64.1602723,15.3648714 66.1799868,15.3648714 C68.2214619,15.3648714 69.7471281,16.813268 69.7471281,19.0879472 C69.7471281,21.3610251 68.2214619,22.8102223 66.1799868,22.8102223 Z M69.7019948,13.1358299 L69.7019948,14.5850271 C68.7380768,13.5145427 67.3913319,13.0021194 65.8656657,13.0021194 C62.3654183,13.0021194 59.8073282,15.3872899 59.8073282,19.0879472 C59.8073282,22.7878038 62.3654183,25.1953928 65.8656657,25.1953928 C67.5041651,25.1953928 68.8944314,24.6373318 69.8365887,23.5003925 L69.8365887,25.0384631 L72.507512,25.0384631 L72.507512,13.1358299 L69.7019948,13.1358299 Z M52.5352278,22.8102223 C50.5155133,22.8102223 48.9672805,21.3610251 48.9672805,19.0879472 C48.9672805,16.813268 50.5155133,15.3648714 52.5352278,15.3648714 C54.5541363,15.3648714 56.0798025,16.813268 56.0798025,19.0879472 C56.0798025,21.3610251 54.5541363,22.8102223 52.5352278,22.8102223 Z M52.8487429,13.0021194 C51.2110494,13.0021194 49.8199772,13.5585791 48.8778198,14.6955184 L48.8778198,13.1358299 L46.2068966,13.1358299 L46.2068966,29.3636364 L49.0124137,29.3636364 L49.0124137,23.5900666 C49.9763317,24.6821688 51.3230767,25.1953928 52.8487429,25.1953928 C56.3497962,25.1953928 58.929647,22.7878038 58.929647,19.0879472 C58.929647,15.4097084 56.3497962,13.0021194 52.8487429,13.0021194 Z" id="Fill-1" fill="#FFFFFF"></path>
                    <path d="M16.9445484,22.4993794 L11.9348629,22.4993794 L11.9348629,16.0232637 L16.9429327,13.0784328 L21.954234,16.0264041 L21.954234,22.4993794 L16.9445484,22.4993794 Z M15.0088596,0.612950338 L3.9699395,7.10869302 C0.520276971,9.13890701 0,10.5041592 0,13.905906 L0,29.0877614 C0,31.8237613 1.06640621,34 5.1349075,34 L7.06736482,34 C11.8064094,34 11.9348629,30.7372122 11.9348629,29.2965924 L11.9348629,25.6012261 L25.1445659,25.6012261 L25.1445659,14.2968753 L16.9445484,9.47178045 L8.74372308,14.2968753 L8.74372308,29.2753953 C8.74372308,30.1436925 8.42541698,30.8989384 6.85165993,30.8989384 L5.00645402,30.8989384 C3.42300237,30.8989384 3.19113981,30.1939376 3.19113981,29.2345712 L3.19113981,13.8022756 C3.19113981,11.3818774 3.49732765,10.9940484 5.05896645,10.0755061 L15.8846053,3.70537606 C16.7530801,3.19350463 17.1319774,3.19350463 18.0004522,3.70537606 L28.826091,10.0755061 C30.3877298,10.9940484 30.6939177,11.3818774 30.6939177,13.8022756 L30.6939177,29.2345712 C30.6939177,30.1939376 30.4612472,30.8989384 28.8786034,30.8989384 L16.3418674,30.8989384 C14.402947,30.8989384 14.4021391,34 16.3418674,34 L28.7493421,34 C32.8186513,34 33.8850575,31.8237613 33.8850575,29.0877614 L33.8850575,13.905906 C33.8850575,10.5041592 33.3647805,9.13890701 29.915118,7.10869302 L18.8770058,0.612950338 C17.488254,-0.204316779 16.3968034,-0.204316779 15.0088596,0.612950338 Z" id="Fill-3" fill="#10CFBD"></path>
                </g>
            </g>
        </g>
    </g>
</svg>