<?xml version="1.0" encoding="UTF-8"?>
<svg width="50px" height="58px" viewBox="0 0 50 58" version="1.1" xmlns="http://www.w3.org/2000/svg" xmlns:xlink="http://www.w3.org/1999/xlink">
    <!-- Generator: Sketch 52.5 (67469) - http://www.bohemiancoding.com/sketch -->
    <title>Staying-iocn</title>
    <desc>Created with Sketch.</desc>
    <g id="Blocks" stroke="none" stroke-width="1" fill="none" fill-rule="evenodd">
        <g id="How-does-it-suit" transform="translate(-696.000000, -890.000000)" fill="#6D5CAE">
            <g id="Group-9-Copy-4" transform="translate(561.000000, 833.000000)">
                <g id="Group-3" transform="translate(40.000000, 57.000000)">
                    <g id="Group-34">
                        <g id="Staying-iocn" transform="translate(95.000000, 0.000000)">
                            <g id="Group" transform="translate(0.427350, 0.213675)">
                                <path d="M34.7162393,27.799359 L32.7405983,27.799359 C30.6970085,27.799359 29.033547,29.4621795 29.033547,31.5064103 L29.033547,48.8692308 C29.033547,50.9128205 30.6963675,52.5762821 32.7405983,52.5762821 L45.2354701,52.5762821 C47.2790598,52.5762821 48.9425214,50.9134615 48.9425214,48.8692308 L48.9425214,31.5064103 C48.9425214,29.4628205 47.2797009,27.799359 45.2354701,27.799359 L43.2598291,27.799359 L43.2598291,22.4698718 C43.2598291,20.4762821 41.6380342,18.8538462 39.6444444,18.8538462 L38.3309829,18.8538462 C36.3373932,18.8538462 34.7155983,20.475641 34.7155983,22.4698718 L34.7155983,27.799359 L34.7162393,27.799359 Z M45.2354701,29.7224359 C46.2188034,29.7224359 47.0194444,30.5230769 47.0194444,31.5064103 L47.0194444,48.8692308 C47.0194444,49.8525641 46.2188034,50.6532051 45.2354701,50.6532051 L32.7405983,50.6532051 C31.757265,50.6532051 30.9566239,49.8525641 30.9566239,48.8692308 L30.9566239,31.5064103 C30.9566239,30.5230769 31.757265,29.7224359 32.7405983,29.7224359 L45.2354701,29.7224359 Z M36.6393162,22.4698718 C36.6393162,21.5365385 37.3989316,20.7769231 38.3316239,20.7769231 L39.6450855,20.7769231 C40.5784188,20.7769231 41.3373932,21.5365385 41.3373932,22.4698718 L41.3373932,27.799359 L36.6393162,27.799359 L36.6393162,22.4698718 Z" id="Shape"></path>
                                <path d="M11.3143162,14.8435897 C15.3514957,14.8435897 18.6367521,11.5794872 18.6790598,7.55192308 L24.507906,7.55192308 C25.0393162,7.55192308 25.4694444,7.12179487 25.4694444,6.59038462 C25.4694444,6.05897436 25.0393162,5.62884615 24.507906,5.62884615 L18.4399573,5.62884615 C17.6175214,2.45833333 14.7399573,0.106410256 11.3149573,0.106410256 C7.25213675,0.106410256 3.94636752,3.41153846 3.94636752,7.475 C3.94636752,11.5384615 7.25149573,14.8435897 11.3143162,14.8435897 Z M11.3143162,2.03012821 C13.6681624,2.03012821 15.6720085,3.53397436 16.4303419,5.62948718 L6.1982906,5.62948718 C6.95662393,3.53397436 8.96047009,2.03012821 11.3143162,2.03012821 Z M16.7553419,7.5525641 C16.7136752,10.5192308 14.2905983,12.9211538 11.3136752,12.9211538 C8.33675214,12.9211538 5.91431624,10.5198718 5.87200855,7.5525641 L16.7553419,7.5525641 Z" id="Shape"></path>
                                <path d="M4.01303419,41.6044872 L4.01303419,53.0192308 C4.01303419,55.4429487 5.98482906,57.4147436 8.40854701,57.4147436 L14.2188034,57.4147436 C16.6425214,57.4147436 18.6136752,55.4429487 18.6136752,53.0192308 L18.6136752,25.9512821 L27.4732906,25.9512821 C31.4976496,25.9512821 34.7713675,22.6775641 34.7713675,18.6532051 L34.7713675,16.7051282 L8.55982906,16.7051282 C3.95149573,16.7051282 0.201495726,20.4544872 0.201495726,25.0634615 L0.201495726,37.2487179 C0.202777778,39.4737179 1.86495726,41.3179487 4.01303419,41.6044872 Z M2.1258547,25.0628205 C2.1258547,21.5147436 5.01239316,18.6275641 8.56111111,18.6275641 L32.8495726,18.6275641 L32.8495726,18.6525641 C32.8495726,21.6166667 30.4380342,24.0275641 27.4745726,24.0275641 L16.6912393,24.0275641 L16.6912393,53.0192308 C16.6912393,54.3826923 15.582265,55.4916667 14.2194444,55.4916667 L8.40918803,55.4916667 C7.0457265,55.4916667 5.93675214,54.3826923 5.93675214,53.0192308 L5.93675214,39.7205128 L4.5982906,39.7205128 C3.23482906,39.7205128 2.1258547,38.6115385 2.1258547,37.2480769 L2.1258547,25.0628205 Z" id="Shape"></path>
                                <path d="M33.4547009,55.6621795 C32.658547,55.6621795 32.0104701,55.0141026 32.0104701,54.2179487 L31.0489316,54.2179487 L30.0873932,54.2179487 C30.0873932,56.074359 31.5976496,57.5852564 33.4547009,57.5852564 C35.3117521,57.5852564 36.8220085,56.075 36.8220085,54.2179487 L35.8604701,54.2179487 L34.8989316,54.2179487 C34.8989316,55.0141026 34.2514957,55.6621795 33.4547009,55.6621795 Z" id="Path"></path>
                                <path d="M44.5213675,55.6621795 C43.7252137,55.6621795 43.0771368,55.0141026 43.0771368,54.2179487 L42.1155983,54.2179487 L41.1540598,54.2179487 C41.1540598,56.074359 42.6643162,57.5852564 44.5213675,57.5852564 C46.3784188,57.5852564 47.8886752,56.075 47.8886752,54.2179487 L46.9271368,54.2179487 L45.9655983,54.2179487 C45.9655983,55.0141026 45.3175214,55.6621795 44.5213675,55.6621795 Z" id="Path"></path>
                                <path d="M36.283547,36.5564103 L42.0155983,36.5564103 C42.5470085,36.5564103 42.9771368,36.1262821 42.9771368,35.5948718 C42.9771368,35.0634615 42.5470085,34.6333333 42.0155983,34.6333333 L36.283547,34.6333333 C35.7521368,34.6333333 35.3220085,35.0634615 35.3220085,35.5948718 C35.3220085,36.1262821 35.7521368,36.5564103 36.283547,36.5564103 Z" id="Path"></path>
                            </g>
                        </g>
                    </g>
                </g>
            </g>
        </g>
    </g>
</svg>