<?xml version="1.0" encoding="UTF-8"?>
<svg width="50px" height="50px" viewBox="0 0 50 50" version="1.1" xmlns="http://www.w3.org/2000/svg" xmlns:xlink="http://www.w3.org/1999/xlink">
    <!-- Generator: Sketch 52.5 (67469) - http://www.bohemiancoding.com/sketch -->
    <title>time-icon</title>
    <desc>Created with Sketch.</desc>
    <g id="Blocks" stroke="none" stroke-width="1" fill="none" fill-rule="evenodd">
        <g id="How-does-it-suit" transform="translate(-1050.000000, -542.000000)" fill="#6D5CAE" fill-rule="nonzero">
            <g id="Group-9-Copy-2" transform="translate(914.000000, 484.000000)">
                <g id="Group-3" transform="translate(40.000000, 58.000000)">
                    <g id="Group-34">
                        <g id="time-icon" transform="translate(96.000000, 0.000000)">
                            <path d="M25,0 C11.215,0 0,11.215 0,25 C0,38.785 11.215,50 25,50 C38.785,50 50,38.785 50,25 C50,11.215 38.785,0 25,0 Z M25,47.7777778 C12.4405556,47.7777778 2.22222222,37.5594444 2.22222222,25 C2.22222222,12.4405556 12.4405556,2.22222222 25,2.22222222 C37.5594444,2.22222222 47.7777778,12.4405556 47.7777778,25 C47.7777778,37.5594444 37.5594444,47.7777778 25,47.7777778 Z" id="Shape"></path>
                            <path d="M37.1755556,11.2533333 L27.0511111,21.3777778 C26.4316667,21.0211111 25.7311111,20.8277778 25,20.8277778 C24.2705556,20.8277778 23.5705556,21.02 22.9494444,21.3783333 L16.2077778,14.6366667 C15.7744444,14.2027778 15.07,14.2027778 14.6366667,14.6366667 C14.2027778,15.0705556 14.2027778,15.7738889 14.6366667,16.2077778 L21.3916667,22.9627778 C21.0616667,23.5644444 20.8833333,24.2411111 20.8833333,24.9444444 C20.8833333,27.2138889 22.73,29.0605556 25,29.0605556 C27.27,29.0605556 29.1166667,27.2138889 29.1166667,24.9444444 C29.1166667,24.2422222 28.9388889,23.5661111 28.6077778,22.9633333 L38.7466667,12.8244444 C39.1805556,12.3905556 39.1805556,11.6872222 38.7466667,11.2533333 C38.3133333,10.8194444 37.6088889,10.8194444 37.1755556,11.2533333 Z M25,26.8388889 C23.9555556,26.8388889 23.1055556,25.9894444 23.1055556,24.945 C23.1055556,24.4466667 23.2961111,23.9755556 23.6344444,23.6266667 C24.0022222,23.255 24.4872222,23.0505556 25,23.0505556 C25.5127778,23.0505556 25.9983333,23.255 26.3577778,23.6177778 C26.7038889,23.9755556 26.8944444,24.4461111 26.8944444,24.945 C26.8944444,25.9888889 26.0444444,26.8388889 25,26.8388889 Z" id="Shape"></path>
                            <path d="M25,8.39111111 C25.6133333,8.39111111 26.1111111,7.89333333 26.1111111,7.28 L26.1111111,5.08277778 C26.1111111,4.46944444 25.6133333,3.97166667 25,3.97166667 C24.3866667,3.97166667 23.8888889,4.46944444 23.8888889,5.08277778 L23.8888889,7.28 C23.8888889,7.89388889 24.3866667,8.39111111 25,8.39111111 Z" id="Path"></path>
                            <path d="M25,41.4955556 C24.3866667,41.4955556 23.8888889,41.9933333 23.8888889,42.6066667 L23.8888889,44.8038889 C23.8888889,45.4172222 24.3866667,45.915 25,45.915 C25.6133333,45.915 26.1111111,45.4172222 26.1111111,44.8038889 L26.1111111,42.6066667 C26.1111111,41.9933333 25.6133333,41.4955556 25,41.4955556 Z" id="Path"></path>
                            <path d="M42.6627778,26.0544444 L44.8605556,26.0544444 C45.4738889,26.0544444 45.9716667,25.5566667 45.9716667,24.9433333 C45.9716667,24.33 45.4738889,23.8322222 44.8605556,23.8322222 L42.6627778,23.8322222 C42.0494444,23.8322222 41.5516667,24.33 41.5516667,24.9433333 C41.5516667,25.5566667 42.0494444,26.0544444 42.6627778,26.0544444 Z" id="Path"></path>
                            <path d="M7.33722222,23.8322222 L5.13944444,23.8322222 C4.52611111,23.8322222 4.02833333,24.33 4.02833333,24.9433333 C4.02833333,25.5566667 4.52611111,26.0544444 5.13944444,26.0544444 L7.33722222,26.0544444 C7.95055556,26.0544444 8.44833333,25.5566667 8.44833333,24.9433333 C8.44833333,24.33 7.95055556,23.8322222 7.33722222,23.8322222 Z" id="Path"></path>
                        </g>
                    </g>
                </g>
            </g>
        </g>
    </g>
</svg>