<?xml version="1.0" encoding="UTF-8"?>
<svg width="51px" height="51px" viewBox="0 0 51 51" version="1.1" xmlns="http://www.w3.org/2000/svg" xmlns:xlink="http://www.w3.org/1999/xlink">
    <!-- Generator: Sketch 52.5 (67469) - http://www.bohemiancoding.com/sketch -->
    <title>Yields-icon</title>
    <desc>Created with Sketch.</desc>
    <g id="Blocks" stroke="none" stroke-width="1" fill="none" fill-rule="evenodd">
        <g id="How-does-it-suit" transform="translate(-697.000000, -533.000000)" fill="#6D5CAE" fill-rule="nonzero" stroke="#6D5CAE" stroke-width="0.5">
            <g id="Group-9-Copy" transform="translate(562.000000, 484.000000)">
                <g id="Group-3" transform="translate(51.000000, 49.000000)">
                    <g id="Group-34">
                        <g id="Yields-icon" transform="translate(84.000000, 0.000000)">
                            <path d="M12.0684431,0.574712644 C5.72743793,0.574712644 0.574712586,5.72767241 0.574712586,12.0689655 C0.574712586,18.4102586 5.72743793,23.5632184 12.0684431,23.5632184 C18.4094477,23.5632184 23.5621736,18.4102586 23.5621736,12.0689655 C23.5621736,5.72767241 18.4094477,0.574712644 12.0684431,0.574712644 Z M12.0684431,1.72413793 C17.7882805,1.72413793 22.4128,6.34886782 22.4128,12.0689655 C22.4128,17.7890632 17.7882805,22.4137931 12.0684431,22.4137931 C6.34860517,22.4137931 1.72408563,17.7890632 1.72408563,12.0689655 C1.72408563,6.34886782 6.34860517,1.72413793 12.0684431,1.72413793 Z M11.9966069,5.15445402 C11.7005769,5.1915491 11.4821489,5.44899383 11.4937563,5.74712644 L11.4937563,6.89655172 C9.8011592,6.89655172 8.62032356,8.23067241 8.62032356,9.77011494 C8.62032356,11.3864023 10.1076764,12.6436782 12.0684431,12.6436782 C13.5762103,12.6436264 14.3671891,13.436977 14.3671891,14.3678161 C14.3671891,15.3755 13.7805414,16.091954 12.6431293,16.091954 L9.19501034,16.091954 C8.98775775,16.0890228 8.79498178,16.1979168 8.69050013,16.3769384 C8.58601847,16.55596 8.58601847,16.7773733 8.69050013,16.9563949 C8.79498178,17.1354165 8.98775775,17.2443105 9.19501034,17.2413793 L11.4937563,17.2413793 L11.4937563,18.3908046 C11.4908252,18.5980667 11.5997142,18.7908515 11.7787277,18.8953379 C11.9577412,18.9998244 12.1791445,18.9998244 12.3581579,18.8953379 C12.5371714,18.7908515 12.6460604,18.5980667 12.6431293,18.3908046 L12.6431293,17.2413793 C14.3357264,17.2413793 15.5165621,15.9072586 15.5165621,14.3678161 C15.5165621,12.7515287 14.0292305,11.4941897 12.0684431,11.4942529 C10.5606546,11.4942529 9.76969713,10.7009655 9.76969713,9.77011494 C9.76969713,8.76243103 10.3563443,8.04597701 11.4937563,8.04597701 L14.9418753,8.04597701 C15.1491279,8.04890821 15.3419038,7.9400142 15.4463855,7.76099262 C15.5508672,7.58197103 15.5508672,7.3605577 15.4463855,7.18153612 C15.3419038,7.00251454 15.1491279,6.89362052 14.9418753,6.89655172 L12.6431293,6.89655172 L12.6431293,5.74712644 C12.6497302,5.57830863 12.581727,5.41513609 12.4571928,5.30097458 C12.3326587,5.18681306 12.1642071,5.13322563 11.9966069,5.15445402 Z M38.396269,9.1954023 C38.260218,9.22363151 38.1389993,9.30019418 38.0550489,9.41091954 L30.0094379,19.7557471 C29.8713509,19.9282992 29.844426,20.1647468 29.9401826,20.3639297 C30.0359392,20.5631126 30.2374148,20.6897473 30.4584115,20.6896552 L33.9065305,20.6896552 L33.9065305,32.7586322 C33.9065622,33.0760242 34.1638397,33.3333133 34.4812172,33.3333448 L42.5268282,33.3333448 C42.8442057,33.3333133 43.1014832,33.0760242 43.1015149,32.7586322 L43.1015149,20.6896552 L46.5496339,20.6896552 C46.7706307,20.6897475 46.9721065,20.5631129 47.0678633,20.3639299 C47.16362,20.164747 47.1366952,19.9282993 46.998608,19.7557471 L38.9529966,9.41091954 C38.8222072,9.24077304 38.6075252,9.15766658 38.396269,9.1954023 Z M38.504023,10.6860632 L45.3823023,19.5402299 L42.5268282,19.5402299 C42.2094508,19.5402618 41.9521737,19.7975508 41.952142,20.1149425 L41.952142,32.1839195 L35.0559034,32.1839195 L35.0559034,20.1149425 C35.0558717,19.7975508 34.7985946,19.5402618 34.4812172,19.5402299 L31.6257437,19.5402299 L38.504023,10.6860632 Z M1.0416454,25.8620805 C0.766898128,25.9145066 0.569783848,26.1571198 0.574712586,26.4367931 L0.574712586,32.1300115 C0.573865881,32.1480092 0.573865881,32.1660368 0.574712586,32.1840345 C0.573214693,32.2079574 0.573214693,32.2319506 0.574712586,32.2558736 L0.574712586,37.8772529 C0.573865881,37.8952506 0.573865881,37.9132782 0.574712586,37.9312759 C0.573214693,37.9551988 0.573214693,37.979192 0.574712586,38.0031149 L0.574712586,43.6244943 C0.573865881,43.642492 0.573865881,43.6605195 0.574712586,43.6785172 C0.573214693,43.7024402 0.573214693,43.7264334 0.574712586,43.7503563 L0.574712586,49.4256437 C0.574744319,49.7430356 0.832021674,50.0003246 1.14939914,50.0003563 L22.9874868,50.0003563 C23.3048643,50.0003247 23.5621418,49.7430357 23.5621736,49.4256437 L23.5621736,43.7862759 C23.565548,43.7504356 23.565548,43.7143575 23.5621736,43.6785172 C23.5630203,43.6605195 23.5630203,43.642492 23.5621736,43.6244943 L23.5621736,38.0390345 C23.565548,38.0031942 23.565548,37.9671161 23.5621736,37.9312759 C23.5630203,37.9132782 23.5630203,37.8952506 23.5621736,37.8772529 L23.5621736,32.2917931 C23.565548,32.2559528 23.565548,32.2198748 23.5621736,32.1840345 C23.5630203,32.1660368 23.5630203,32.1480092 23.5621736,32.1300115 L23.5621736,26.4367931 C23.5621418,26.1194011 23.3048643,25.862112 22.9874868,25.8620805 L1.14939914,25.8620805 C1.11356048,25.8587059 1.07748406,25.8587059 1.0416454,25.8620805 Z M1.72408563,27.0115057 L22.4128,27.0115057 L22.4128,31.6092069 L1.72408563,31.6092069 L1.72408563,27.0115057 Z M1.72408563,32.7586322 L22.4128,32.7586322 L22.4128,37.3563333 L1.72408563,37.3563333 L1.72408563,32.7586322 Z M27.5490609,37.3563333 C27.2457906,37.3753539 27.0097271,37.6271666 27.0102925,37.931046 L27.0102925,43.6242644 C27.0094458,43.6422621 27.0094458,43.6602896 27.0102925,43.6782874 C27.0069181,43.7141276 27.0069181,43.7502057 27.0102925,43.786046 L27.0102925,49.4254138 C27.0103243,49.7428056 27.2676014,50.0000945 27.5849787,50.0001264 L49.4230667,50.0001264 C49.740444,50.0000945 49.9977211,49.7428056 49.9977529,49.4254138 L49.9977529,43.7501264 C49.9992508,43.7262035 49.9992508,43.7022103 49.9977529,43.6782874 C49.9985996,43.6602896 49.9985996,43.6422621 49.9977529,43.6242644 L49.9977529,37.931046 C50.0026816,37.6513727 49.8055674,37.4087595 49.5308201,37.3563333 C49.4949816,37.3529588 49.4589052,37.3529588 49.4230667,37.3563333 L27.5849787,37.3563333 C27.5730085,37.3559591 27.5610295,37.3559591 27.5490592,37.3563333 L27.5490609,37.3563333 Z M1.72408563,38.5057586 L22.4128,38.5057586 L22.4128,43.1034598 L1.72408563,43.1034598 L1.72408563,38.5057586 Z M28.1596655,38.5057586 L48.8483799,38.5057586 L48.8483799,43.1034598 L28.1596655,43.1034598 L28.1596655,38.5057586 Z M1.72408563,44.2528851 L22.4128,44.2528851 L22.4128,48.8505862 L1.72408563,48.8505862 L1.72408563,44.2528851 Z M28.1596655,44.2528851 L48.8483799,44.2528851 L48.8483799,48.8505862 L28.1596655,48.8505862 L28.1596655,44.2528851 Z" id="Shape"></path>
                        </g>
                    </g>
                </g>
            </g>
        </g>
    </g>
</svg>