<?xml version="1.0" encoding="UTF-8"?>
<svg width="50px" height="37px" viewBox="0 0 50 37" version="1.1" xmlns="http://www.w3.org/2000/svg" xmlns:xlink="http://www.w3.org/1999/xlink">
    <!-- Generator: Sketch 52.5 (67469) - http://www.bohemiancoding.com/sketch -->
    <title>Open-icon</title>
    <desc>Created with Sketch.</desc>
    <g id="Blocks" stroke="none" stroke-width="1" fill="none" fill-rule="evenodd">
        <g id="Staying-at-the-property" transform="translate(-958.000000, -519.000000)" fill="#6D5CAE" fill-rule="nonzero">
            <g id="Group-9-Copy" transform="translate(733.000000, 447.000000)">
                <g id="Group-3" transform="translate(93.000000, 72.000000)">
                    <g id="Group-34">
                        <g id="Open-icon" transform="translate(132.000000, 0.000000)">
                            <path d="M48.9519392,34.7877139 L45.5426897,34.7877139 L45.5426897,17.3784529 L46.089681,17.3784529 C46.0989815,17.3784529 46.1082821,17.3784529 46.118164,17.3781622 C46.135312,17.3776173 46.1512974,17.3715864 46.1683727,17.3705328 C46.2140764,17.3664638 46.2589809,17.3607599 46.3024321,17.3501151 C46.7577979,17.283158 47.173055,17.0381818 47.4341983,16.6518438 L48.6839658,14.7981189 C48.9298502,14.4330706 49.0187872,13.9941988 48.9350818,13.5620117 C48.8507952,13.1298246 48.6037482,12.7563476 48.2386998,12.5104631 L30.8756511,0.804501488 C30.4170155,0.494966071 29.8822312,0.33133369 29.3317523,0.33133369 C29.3288458,0.33133369 29.3259394,0.33133369 29.323033,0.33133369 L21.4718046,0.33133369 C21.4436849,0.330970357 21.4157104,0.33082506 21.3875543,0.33133369 L21.3640486,0.33133369 C21.3379996,0.33133369 21.3135129,0.336819583 21.2880089,0.338999405 C20.7946414,0.365702262 20.3063238,0.519234762 19.8765346,0.813220774 L13.5358538,5.1438831 L13.5358538,3.62606952 C13.5358538,2.65619185 12.747047,1.86738512 11.7768787,1.86738512 L9.37267482,1.86738512 C8.4030878,1.86738512 7.61428101,2.65619185 7.61428101,3.62606952 L7.61428101,9.18826143 L2.72798077,12.5255766 C2.36467625,12.7737863 2.11995435,13.1484258 2.03857417,13.5809035 C1.95661268,14.0136718 2.04845607,14.4525437 2.29724696,14.8158482 L3.55805893,16.6617257 C3.55805893,16.6620163 3.55805893,16.6620163 3.55805893,16.662307 C3.87660429,17.1284993 4.39453119,17.3796154 4.92117744,17.3796154 C5.09381976,17.3796154 5.26675268,17.3502604 5.43445405,17.2951107 L5.43445405,34.7877138 L1.04806083,34.7877138 C0.555129286,34.7877138 0.15520369,35.1876394 0.15520369,35.680571 C0.15520369,36.1735025 0.555129286,36.5734281 1.04806083,36.5734281 L48.9519392,36.5734281 C49.4448707,36.5734281 49.8447963,36.1735025 49.8447963,35.680571 C49.8447963,35.1876394 49.4448707,34.7877139 48.9519392,34.7877139 Z M43.7569755,34.7877139 L37.6499721,34.7877139 L37.6499721,17.2859918 C37.819926,17.3436846 37.9962739,17.3788888 38.1767273,17.3782349 C38.1774902,17.3782349 38.1781805,17.3784529 38.1789434,17.3784529 L43.7569754,17.3784529 L43.7569755,34.7877139 Z M18.4192476,34.690639 L18.4192476,24.9587286 L24.6634347,24.9587286 L24.6634347,34.690639 L18.4192476,34.690639 Z M25.5562918,23.1730143 L17.5263904,23.1730143 C17.0334589,23.1730143 16.6335333,23.5729399 16.6335333,24.0658715 L16.6335333,34.7801572 L7.22016833,34.7801572 L7.22016833,16.1564055 L21.4465913,6.44008089 L35.8642578,16.1601112 L35.8642578,34.7801572 L26.449149,34.7801571 L26.449149,24.0658714 C26.449149,23.5729399 26.0492234,23.1730143 25.5562918,23.1730143 Z M40.7912482,14.7981189 C40.8330645,14.7360665 40.8638001,14.6693275 40.8964611,14.6033877 L46.6614496,14.6033877 L45.9945679,15.5927386 L40.2555193,15.5927386 L40.7912482,14.7981189 Z M29.3259393,2.11704798 C29.3271019,2.11704798 29.3276832,2.11704798 29.3288458,2.11704798 C29.5247396,2.11704798 29.7136579,2.17488607 29.8764183,2.28474935 L45.4999651,12.8176735 L40.6783694,12.8176735 C40.5813671,12.7031236 40.473938,12.596639 40.3459821,12.5104632 L24.9292646,2.11704798 L29.3259393,2.11704798 Z M9.37267488,3.6530994 L11.7501395,3.62606952 L11.7501395,6.36349631 L9.39258393,7.97369821 L9.37267488,3.6530994 Z M3.84928387,13.9224098 L20.8839054,2.28765577 C21.2111701,2.06240696 21.6541109,2.06211637 21.9837007,2.28474935 L39.2333985,13.9139811 L38.1376721,15.5395508 L21.9424293,4.62065196 C21.6384161,4.41603887 21.241397,4.41720143 20.9397089,4.62355839 L4.95489214,15.5412946 L3.84928387,13.9224098 Z" id="Shape"></path>
                            <path d="M14.2380487,23.3113607 L9.46800595,23.3113607 C8.9750744,23.3113607 8.57514881,23.7112862 8.57514881,24.2042178 L8.57514881,28.9742606 C8.57514881,29.4671921 8.9750744,29.8671177 9.46800595,29.8671177 L14.2380487,29.8671177 C14.7309803,29.8671177 15.1309059,29.4671921 15.1309059,28.9742606 L15.1309059,24.2042178 C15.1309059,23.7112862 14.7309803,23.3113607 14.2380487,23.3113607 Z M13.3451916,28.0814035 L10.3608631,28.0814035 L10.3608631,25.0970749 L13.3451916,25.0970749 L13.3451916,28.0814035 Z" id="Shape"></path>
                            <path d="M28.8446336,29.8671177 L33.6146764,29.8671177 C34.1076079,29.8671177 34.5075335,29.4671921 34.5075335,28.9742606 L34.5075335,24.2042178 C34.5075335,23.7112863 34.1076079,23.3113607 33.6146764,23.3113607 L28.8446336,23.3113607 C28.351702,23.3113607 27.9517764,23.7112863 27.9517764,24.2042178 L27.9517764,28.9742606 C27.9517764,29.4671921 28.351702,29.8671177 28.8446336,29.8671177 Z M29.7374907,25.0970749 L32.7218192,25.0970749 L32.7218192,28.0814035 L29.7374907,28.0814035 L29.7374907,25.0970749 Z" id="Shape"></path>
                            <path d="M14.2380487,15.3311593 L9.46800595,15.3311593 C8.9750744,15.3311593 8.57514881,15.7307943 8.57514881,16.2240165 L8.57514881,20.9943499 C8.57514881,21.4872815 8.9750744,21.8872071 9.46800595,21.8872071 L14.2380487,21.8872071 C14.7309803,21.8872071 15.1309059,21.4872815 15.1309059,20.9943499 L15.1309059,16.2240165 C15.1309059,15.7307943 14.7309803,15.3311593 14.2380487,15.3311593 Z M13.3451916,20.1014927 L10.3608631,20.1014927 L10.3608631,17.1168736 L13.3451916,17.1168736 L13.3451916,20.1014927 Z" id="Shape"></path>
                            <path d="M23.9269438,15.3311593 L19.156901,15.3311593 C18.6639695,15.3311593 18.2640439,15.7307943 18.2640439,16.2240165 L18.2640439,20.9943499 C18.2640439,21.4872815 18.6639695,21.8872071 19.156901,21.8872071 L23.9269438,21.8872071 C24.4198754,21.8872071 24.819801,21.4872815 24.819801,20.9943499 L24.819801,16.2240165 C24.819801,15.7307943 24.4198754,15.3311593 23.9269438,15.3311593 Z M23.0340867,20.1014927 L20.0497582,20.1014927 L20.0497582,17.1168736 L23.0340867,17.1168736 L23.0340867,20.1014927 Z" id="Shape"></path>
                            <path d="M28.8446336,21.887207 L33.6146764,21.887207 C34.1076079,21.887207 34.5075335,21.4872814 34.5075335,20.9943499 L34.5075335,16.2240164 C34.5075335,15.7307942 34.1076079,15.3311593 33.6146764,15.3311593 L28.8446336,15.3311593 C28.351702,15.3311593 27.9517764,15.7307942 27.9517764,16.2240164 L27.9517764,20.9943499 C27.9517764,21.4872814 28.351702,21.887207 28.8446336,21.887207 Z M29.7374907,17.1168736 L32.7218192,17.1168736 L32.7218192,20.1014928 L29.7374907,20.1014928 L29.7374907,17.1168736 Z" id="Shape"></path>
                        </g>
                    </g>
                </g>
            </g>
        </g>
    </g>
</svg>