<?xml version="1.0" encoding="UTF-8"?>
<svg width="46px" height="60px" viewBox="0 0 46 60" version="1.1" xmlns="http://www.w3.org/2000/svg" xmlns:xlink="http://www.w3.org/1999/xlink">
    <!-- Generator: Sketch 52.5 (67469) - http://www.bohemiancoding.com/sketch -->
    <title>Save-icon</title>
    <desc>Created with Sketch.</desc>
    <g id="Blocks" stroke="none" stroke-width="1" fill="none" fill-rule="evenodd">
        <g id="Staying-at-the-property" transform="translate(-434.000000, -506.000000)" fill="#6D5CAE" fill-rule="nonzero">
            <g id="Group-9" transform="translate(207.000000, 447.000000)">
                <g id="Group-3" transform="translate(74.000000, 58.000000)">
                    <g id="Group-34">
                        <g id="Save-icon" transform="translate(153.000000, 0.000000)">
                            <path d="M24,15.816 C25.3765475,15.3311477 26.2026937,13.9241559 25.9553873,12.485822 C25.7080809,11.0474881 24.4594373,9.9972346 23,10 C22.4477153,10 22,9.55228475 22,9 C22,8.44771525 22.4477153,8 23,8 C23.5522847,8 24,8.44771525 24,9 L26,9 C25.9947486,7.73321457 25.1943509,6.60625455 24,6.184 L24,5 L22,5 L22,6.184 C20.6234525,6.66885233 19.7973063,8.07584415 20.0446127,9.51417801 C20.2919191,10.9525119 21.5405627,12.0027654 23,12 C23.5522847,12 24,12.4477153 24,13 C24,13.5522847 23.5522847,14 23,14 C22.4477153,14 22,13.5522847 22,13 L20,13 C20.0052514,14.2667854 20.8056491,15.3937454 22,15.816 L22,17 L24,17 L24,15.816 Z" id="Path"></path>
                            <path d="M7.16,52.764 L8.651,58.728 C8.98507964,60.063552 10.1852981,61.0003078 11.562,61 L14.562,61 C15.8531888,61.000024 16.9995539,60.1738838 17.408,58.949 L18.721,55 L27.279,55 L28.6,58.949 C29.0078626,60.1721399 30.1516519,60.9978744 31.441,61 L34.441,61 C35.8177019,61.0003078 37.0179204,60.063552 37.352,58.728 L38.843,52.764 C43.284292,50.0417924 45.9940286,45.2091701 46,40 C45.998764,36.5369404 45.2163447,33.1187692 43.711,30 L44,30 C44.5522847,30 45,29.5522847 45,29 C44.9928365,22.9278374 40.0721626,18.0071635 34,18 C33.4477153,18 33,18.4477153 33,19 L33,19.289 C32.0341901,18.8229837 31.0367154,18.4256646 30.015,18.1 C32.908308,15.2528371 33.7934263,10.9391279 32.2551014,7.18265026 C30.7167766,3.42617262 27.060257,0.972321275 23.001,0.972321275 C18.941743,0.972321275 15.2852234,3.42617262 13.7468986,7.18265026 C12.2085737,10.9391279 13.093692,15.2528371 15.987,18.1 C14.9646023,18.4271653 13.9664742,18.825815 13,19.293 L13,19 C13,18.4477153 12.5522847,18 12,18 C5.92783745,18.0071635 1.0071635,22.9278374 1,29 C1,29.5522847 1.44771525,30 2,30 L2.289,30 C0.783655345,33.1187692 0.00123595836,36.5369404 3.55271368e-15,40 C0.00661143507,45.2097679 2.71755837,50.042523 7.16,52.764 Z M15.507,58.316 C15.3710445,58.7241936 14.9892393,58.9996733 14.559,59 L11.559,59 C11.0996567,59.0003324 10.699161,58.68769 10.588,58.242 L9.515,53.948 C11.2606419,54.6413918 13.1216883,54.9983327 15,55 L16.612,55 L15.507,58.316 Z M35.407,58.242 C35.295839,58.68769 34.8953433,59.0003324 34.436,59 L31.436,59 C31.0057607,58.9996733 30.6239555,58.7241936 30.488,58.316 L29.388,55 L31,55 C32.8773026,54.9979545 34.737296,54.6410203 36.482,53.948 L35.407,58.242 Z M35,20.055 C39.1758331,20.5290493 42.4709507,23.8241669 42.945,28 L35,28 L35,20.055 Z M15,11 C14.992614,7.21534832 17.6383386,3.94333689 21.3406958,3.15835653 C25.0430529,2.37337617 28.7889298,4.2902289 30.3179964,7.75225114 C31.8470631,11.2142734 30.7409059,15.2741174 27.667,17.482 C24.5874368,16.8400033 21.4085632,16.8400033 18.329,17.482 C16.2411832,15.9826851 15.0022876,13.5703928 15,11 Z M11,20.055 L11,28 L3.055,28 C3.52904929,23.8241669 6.82416692,20.5290493 11,20.055 Z M12,30 C12.5522847,30 13,29.5522847 13,29 L13,21.542 C19.2359034,18.1527493 26.7640966,18.1527493 33,21.542 L33,29 C33,29.5522847 33.4477153,30 34,30 L41.458,30 C43.1240591,33.0699523 43.9977819,36.5070994 44,40 C43.991734,47.1762751 38.1762751,52.991734 31,53 L15,53 C7.82372494,52.991734 2.00826602,47.1762751 2,40 C2.00209156,36.5070835 2.87582214,33.0699058 4.542,30 L12,30 Z" id="Shape"></path>
                            <path d="M23,51 C27.411,51 31,48.309 31,45 C31,41.691 27.411,39 23,39 C18.589,39 15,41.691 15,45 C15,48.309 18.589,51 23,51 Z M23,41 C26.252,41 29,42.832 29,45 C29,47.168 26.252,49 23,49 C19.748,49 17,47.168 17,45 C17,42.832 19.748,41 23,41 Z" id="Shape"></path>
                            <path d="M13,38 C13.0670699,37.9982939 13.1339204,37.9916089 13.2,37.98 C13.2626625,37.9691127 13.3233376,37.9488877 13.38,37.92 C13.4437381,37.8981446 13.5042729,37.8678773 13.56,37.83 L13.71,37.71 C14.0967403,37.3156639 14.0967403,36.6843361 13.71,36.29 L13.56,36.17 C13.5042729,36.1321227 13.4437381,36.1018554 13.38,36.08 C13.3233376,36.0511123 13.2626625,36.0308873 13.2,36.02 C12.8706287,35.9527933 12.5294182,36.0540315 12.29,36.29 C12.0015401,36.5760905 11.9148381,37.0082668 12.070629,37.3834815 C12.22642,37.7586962 12.5937349,38.0023626 13,38 Z" id="Path"></path>
                            <path d="M33,38 C33.1306773,37.99842 33.2597777,37.971241 33.38,37.92 C33.5011393,37.8692709 33.6127393,37.7982527 33.71,37.71 C33.892565,37.518257 33.9961196,37.2647269 34,37 C33.99842,36.8693227 33.971241,36.7402223 33.92,36.62 C33.8290762,36.3687697 33.6312303,36.1709238 33.38,36.08 C33.0076029,35.9234033 32.5775607,36.0062554 32.29,36.29 C32.2017473,36.3872607 32.1307291,36.4988607 32.08,36.62 C32.028759,36.7402223 32.00158,36.8693227 32,37 C31.9972989,37.2660353 32.1017882,37.5219616 32.2899133,37.7100867 C32.4780384,37.8982118 32.7339647,38.0027011 33,38 Z" id="Path"></path>
                            <path d="M21,46 C21.4713403,45.9952962 21.8740009,45.6589249 21.9625108,45.1959457 C22.0510207,44.7329664 21.8008317,44.2717868 21.3644645,44.0935523 C20.9280974,43.9153179 20.4265789,44.069462 20.1656461,44.462015 C19.9047132,44.854568 19.956736,45.376655 20.29,45.71 C20.481743,45.892565 20.7352731,45.9961196 21,46 Z" id="Path"></path>
                            <path d="M25,46 C25.4713403,45.9952962 25.8740009,45.6589249 25.9625108,45.1959457 C26.0510207,44.7329664 25.8008317,44.2717868 25.3644645,44.0935523 C24.9280974,43.9153179 24.4265789,44.069462 24.1656461,44.462015 C23.9047132,44.854568 23.956736,45.376655 24.29,45.71 C24.481743,45.892565 24.7352731,45.9961196 25,46 Z" id="Path"></path>
                        </g>
                    </g>
                </g>
            </g>
        </g>
    </g>
</svg>