<?xml version="1.0" encoding="UTF-8"?>
<svg width="50px" height="50px" viewBox="0 0 50 50" version="1.1" xmlns="http://www.w3.org/2000/svg" xmlns:xlink="http://www.w3.org/1999/xlink">
    <!-- Generator: Sketch 52.5 (67469) - http://www.bohemiancoding.com/sketch -->
    <title>Booking-icon</title>
    <desc>Created with Sketch.</desc>
    <g id="Blocks" stroke="none" stroke-width="1" fill="none" fill-rule="evenodd">
        <g id="Manage" transform="translate(-432.000000, -596.000000)" fill="#6D5CAE" fill-rule="nonzero">
            <g id="Group-9" transform="translate(207.000000, 527.000000)">
                <g id="Group-3" transform="translate(112.000000, 69.000000)">
                    <g id="Group-34">
                        <g id="Booking-icon" transform="translate(113.000000, 0.000000)">
                            <path d="M49.1666667,3.33333333 C49.6275,3.33333333 50,3.70666667 50,4.16666667 L50,17.5 L50,49.1666667 C50,49.6275 49.6275,50 49.1666667,50 L0.833333333,50 C0.373333333,50 0,49.6275 0,49.1666667 L0,17.5 L0,4.16666667 C0,3.70666667 0.373333333,3.33333333 0.833333333,3.33333333 L6.66666667,3.33333333 L6.66666667,0.833333333 C6.66666667,0.373333333 7.04,0 7.5,0 L10.8333333,0 C11.2933333,0 11.6666667,0.373333333 11.6666667,0.833333333 L11.6666667,3.33333333 L22.5,3.33333333 L22.5,0.833333333 C22.5,0.373333333 22.8733333,0 23.3333333,0 L26.6666667,0 C27.1275,0 27.5,0.373333333 27.5,0.833333333 L27.5,3.33333333 L38.3333333,3.33333333 L38.3333333,0.833333333 C38.3333333,0.373333333 38.7058333,0 39.1666667,0 L42.5,0 C42.9608333,0 43.3333333,0.373333333 43.3333333,0.833333333 L43.3333333,3.33333333 L49.1666667,3.33333333 Z M40,1.66666667 L40,8.33333333 L41.6666667,8.33333333 L41.6666667,1.66666667 L40,1.66666667 Z M24.1666667,1.66666667 L24.1666667,8.33333333 L25.8333333,8.33333333 L25.8333333,1.66666667 L24.1666667,1.66666667 Z M8.33333333,1.66666667 L8.33333333,8.33333333 L10,8.33333333 L10,1.66666667 L8.33333333,1.66666667 Z M48.3333333,48.3333333 L48.3333333,18.3333333 L1.66666667,18.3333333 L1.66666667,48.3333333 L48.3333333,48.3333333 Z M48.3333333,16.6666667 L48.3333333,5 L43.3333333,5 L43.3333333,9.16666667 C43.3333333,9.62666667 42.9608333,10 42.5,10 L39.1666667,10 C38.7058333,10 38.3333333,9.62666667 38.3333333,9.16666667 L38.3333333,5 L27.5,5 L27.5,9.16666667 C27.5,9.62666667 27.1275,10 26.6666667,10 L23.3333333,10 C22.8733333,10 22.5,9.62666667 22.5,9.16666667 L22.5,5 L11.6666667,5 L11.6666667,9.16666667 C11.6666667,9.62666667 11.2933333,10 10.8333333,10 L7.5,10 C7.04,10 6.66666667,9.62666667 6.66666667,9.16666667 L6.66666667,5 L1.66666667,5 L1.66666667,16.6666667 L48.3333333,16.6666667 Z M6.66666667,29.1666667 C6.20666667,29.1666667 5.83333333,28.7941667 5.83333333,28.3333333 L5.83333333,21.6666667 C5.83333333,21.2066667 6.20666667,20.8333333 6.66666667,20.8333333 L13.3333333,20.8333333 C13.7933333,20.8333333 14.1666667,21.2066667 14.1666667,21.6666667 L14.1666667,28.3333333 C14.1666667,28.7941667 13.7933333,29.1666667 13.3333333,29.1666667 L6.66666667,29.1666667 Z M7.5,22.5 L7.5,27.5 L12.5,27.5 L12.5,22.5 L7.5,22.5 Z M16.6666667,29.1666667 C16.2066667,29.1666667 15.8333333,28.7941667 15.8333333,28.3333333 L15.8333333,21.6666667 C15.8333333,21.2066667 16.2066667,20.8333333 16.6666667,20.8333333 L23.3333333,20.8333333 C23.7933333,20.8333333 24.1666667,21.2066667 24.1666667,21.6666667 L24.1666667,28.3333333 C24.1666667,28.7941667 23.7933333,29.1666667 23.3333333,29.1666667 L16.6666667,29.1666667 Z M17.5,22.5 L17.5,27.5 L22.5,27.5 L22.5,22.5 L17.5,22.5 Z M26.6666667,29.1666667 C26.2058333,29.1666667 25.8333333,28.7941667 25.8333333,28.3333333 L25.8333333,21.6666667 C25.8333333,21.2066667 26.2058333,20.8333333 26.6666667,20.8333333 L30,20.8333333 L30,22.5 L27.5,22.5 L27.5,27.5 L33.3333333,27.5 L33.3333333,29.1666667 L26.6666667,29.1666667 Z M26.6666667,42.5 C26.2058333,42.5 25.8333333,42.1275 25.8333333,41.6666667 L25.8333333,35 C25.8333333,34.5391667 26.2058333,34.1666667 26.6666667,34.1666667 L33.3333333,34.1666667 C33.7941667,34.1666667 34.1666667,34.5391667 34.1666667,35 L34.1666667,41.6666667 C34.1666667,42.1275 33.7941667,42.5 33.3333333,42.5 L26.6666667,42.5 Z M27.5,35.8333333 L27.5,40.8333333 L32.5,40.8333333 L32.5,35.8333333 L27.5,35.8333333 Z M36.6666667,42.5 C36.2058333,42.5 35.8333333,42.1275 35.8333333,41.6666667 L35.8333333,35 C35.8333333,34.5391667 36.2058333,34.1666667 36.6666667,34.1666667 L43.3333333,34.1666667 C43.7941667,34.1666667 44.1666667,34.5391667 44.1666667,35 L44.1666667,41.6666667 C44.1666667,42.1275 43.7941667,42.5 43.3333333,42.5 L36.6666667,42.5 Z M37.5,35.8333333 L37.5,40.8333333 L42.5,40.8333333 L42.5,35.8333333 L37.5,35.8333333 Z M28.5775,24.7558333 L29.7558333,23.5775 L30.8333333,24.655 L33.5775,21.9108333 L34.7558333,23.0891667 L31.4225,26.4225 C31.26,26.585 31.0466667,26.6666667 30.8333333,26.6666667 C30.62,26.6666667 30.4066667,26.585 30.2441667,26.4225 L28.5775,24.7558333 Z M36.6666667,29.1666667 C36.2058333,29.1666667 35.8333333,28.7941667 35.8333333,28.3333333 L35.8333333,21.6666667 C35.8333333,21.2066667 36.2058333,20.8333333 36.6666667,20.8333333 L40,20.8333333 L40,22.5 L37.5,22.5 L37.5,27.5 L43.3333333,27.5 L43.3333333,29.1666667 L36.6666667,29.1666667 Z M38.5775,24.7558333 L39.7558333,23.5775 L40.8333333,24.655 L43.5775,21.9108333 L44.7558333,23.0891667 L41.4225,26.4225 C41.26,26.585 41.0466667,26.6666667 40.8333333,26.6666667 C40.62,26.6666667 40.4066667,26.585 40.2441667,26.4225 L38.5775,24.7558333 Z M6.66666667,42.5 C6.20666667,42.5 5.83333333,42.1275 5.83333333,41.6666667 L5.83333333,35 C5.83333333,34.5391667 6.20666667,34.1666667 6.66666667,34.1666667 L10,34.1666667 L10,35.8333333 L7.5,35.8333333 L7.5,40.8333333 L13.3333333,40.8333333 L13.3333333,42.5 L6.66666667,42.5 Z M10.8333333,37.9883333 L13.5775,35.2441667 L14.7558333,36.4225 L11.4225,39.7558333 C11.26,39.9183333 11.0466667,40 10.8333333,40 C10.62,40 10.4066667,39.9183333 10.2441667,39.7558333 L8.5775,38.0891667 L9.75583333,36.9108333 L10.8333333,37.9883333 Z M16.6666667,42.5 C16.2066667,42.5 15.8333333,42.1275 15.8333333,41.6666667 L15.8333333,35 C15.8333333,34.5391667 16.2066667,34.1666667 16.6666667,34.1666667 L20,34.1666667 L20,35.8333333 L17.5,35.8333333 L17.5,40.8333333 L23.3333333,40.8333333 L23.3333333,42.5 L16.6666667,42.5 Z M20.8333333,37.9883333 L23.5775,35.2441667 L24.7558333,36.4225 L21.4225,39.7558333 C21.26,39.9183333 21.0466667,40 20.8333333,40 C20.62,40 20.4066667,39.9183333 20.2441667,39.7558333 L18.5775,38.0891667 L19.7558333,36.9108333 L20.8333333,37.9883333 Z" id="Combined-Shape"></path>
                        </g>
                    </g>
                </g>
            </g>
        </g>
    </g>
</svg>