<?xml version="1.0" encoding="UTF-8"?>
<svg width="50px" height="50px" viewBox="0 0 50 50" version="1.1" xmlns="http://www.w3.org/2000/svg" xmlns:xlink="http://www.w3.org/1999/xlink">
    <!-- Generator: Sketch 52.5 (67469) - http://www.bohemiancoding.com/sketch -->
    <title>CHeck-in</title>
    <desc>Created with Sketch.</desc>
    <g id="Blocks" stroke="none" stroke-width="1" fill="none" fill-rule="evenodd">
        <g id="Manage" transform="translate(-958.000000, -588.000000)" fill="#6D5CAE" fill-rule="nonzero">
            <g id="Group-9-Copy" transform="translate(733.000000, 527.000000)">
                <g id="Group-3" transform="translate(106.000000, 61.000000)">
                    <g id="Group-34">
                        <g id="CHeck-in" transform="translate(119.000000, 0.000000)">
                            <path d="M1.66666667,48.18 C0.699166667,47.835 1.16706644e-12,46.9183333 1.16706644e-12,45.8333333 L1.16706644e-12,38.3333333 C1.16706644e-12,36.955 1.12166667,35.8333333 2.5,35.8333333 L2.5,33.3333333 C2.5,32.4141667 3.2475,31.6666667 4.16666667,31.6666667 L5.4675,31.6666667 C5.50083333,31.415 5.56916667,31.1641667 5.68833333,30.9266667 L9.53916667,23.225 C10.4516667,21.3983333 12.215,20.22 14.2183333,20.0375 C13.6725,19.3325 13.3333333,18.4591667 13.3333333,17.5 C13.3333333,15.2025 15.2025,13.3333333 17.5,13.3333333 C19.7975,13.3333333 21.6666667,15.2025 21.6666667,17.5 C21.6666667,18.4591667 21.3275,19.3325 20.7808333,20.0375 C22.7841667,20.22 24.5466667,21.3991667 25.46,23.225 L29.3108333,30.9266667 C29.8408333,31.9866667 29.4975,33.2816667 28.5116667,33.9383333 C28.1225,34.1983333 27.6658333,34.3333333 27.2041667,34.3333333 C27.0166667,34.3333333 26.8275,34.3108333 26.6425,34.265 C26.0025,34.1075 25.4541667,33.685 25.1391667,33.1066667 L22.5,28.2683333 L22.5,31.6666667 L22.5,47.0833333 C22.5,48.6916667 21.1916667,50 19.5833333,50 C18.7666667,50 18.03,49.6608333 17.5,49.1183333 C16.97,49.6608333 16.2333333,50 15.4166667,50 C13.8083333,50 12.5,48.6916667 12.5,47.0833333 L12.5,31.6666667 L12.5,28.2683333 L9.86083333,33.1066667 C9.545,33.685 8.9975,34.1075 8.3575,34.265 C8.35,34.2675 8.34166667,34.2666667 8.33333333,34.2683333 L8.33333333,35.8333333 C9.71166667,35.8333333 10.8333333,36.955 10.8333333,38.3333333 L10.8333333,45.8333333 C10.8333333,46.9183333 10.1341667,47.835 9.16666667,48.18 L9.16666667,50 L7.5,50 L7.5,48.3333333 L3.33333333,48.3333333 L3.33333333,50 L1.66666667,50 L1.66666667,48.18 Z M17.5,15 C16.1216667,15 15,16.1216667 15,17.5 C15,18.8783333 16.1216667,20 17.5,20 C18.8783333,20 20,18.8783333 20,17.5 C20,16.1216667 18.8783333,15 17.5,15 Z M7.17916667,31.6716667 C7.08083333,31.8683333 7.095,32.0875 7.185,32.2741667 C7.2225,32.3566667 7.28416667,32.4475 7.385,32.525 C7.395,32.5325 7.40083333,32.5433333 7.41166667,32.5508333 C7.48416667,32.5983333 7.56583333,32.6308333 7.66166667,32.65 C7.6675,32.6516667 7.6725,32.655 7.67833333,32.6566667 C7.77083333,32.6725 7.865,32.67 7.95833333,32.6466667 C8.14833333,32.6 8.30416667,32.48 8.3975,32.3083333 L12.6016667,24.6008333 C12.7841667,24.2666667 13.1683333,24.0983333 13.5391667,24.1925 C13.9083333,24.2866667 14.1666667,24.6191667 14.1666667,25 L14.1666667,31.6666667 L14.1666667,47.0833333 C14.1666667,47.7725 14.7275,48.3333333 15.4166667,48.3333333 C16.1058333,48.3333333 16.6666667,47.7725 16.6666667,47.0833333 L16.6666667,32.5 L18.3333333,32.5 L18.3333333,47.0833333 C18.3333333,47.7725 18.8941667,48.3333333 19.5833333,48.3333333 C20.2725,48.3333333 20.8333333,47.7725 20.8333333,47.0833333 L20.8333333,31.6666667 L20.8333333,25 C20.8333333,24.6191667 21.0916667,24.2866667 21.4608333,24.1925 C21.8283333,24.0991667 22.2158333,24.2666667 22.3983333,24.6008333 L26.6025,32.3083333 C26.6958333,32.48 26.8516667,32.6 27.0416667,32.6466667 C27.2291667,32.6933333 27.4241667,32.6583333 27.5875,32.5508333 C27.875,32.3591667 27.9758333,31.9816667 27.8208333,31.6716667 L23.97,23.97 C23.26,22.5491667 21.8316667,21.6666667 20.2433333,21.6666667 L17.5,21.6666667 L14.7566667,21.6666667 C13.1683333,21.6666667 11.74,22.5491667 11.03,23.97 L7.17916667,31.6716667 Z M4.16666667,33.3333333 L4.16666667,35.8333333 L6.66666667,35.8333333 L6.66666667,34.045 C6.60583333,34.0125 6.5475,33.9775 6.49,33.9391667 C6.48916667,33.9391667 6.48833333,33.9391667 6.4875,33.9383333 C6.23916667,33.7725 6.0325,33.5658333 5.86916667,33.3333333 L4.16666667,33.3333333 Z M1.66666667,38.3333333 L1.66666667,45.8333333 C1.66666667,46.2925 2.04083333,46.6666667 2.5,46.6666667 L8.33333333,46.6666667 C8.7925,46.6666667 9.16666667,46.2925 9.16666667,45.8333333 L9.16666667,38.3333333 C9.16666667,37.8741667 8.7925,37.5 8.33333333,37.5 L7.5,37.5 L3.33333333,37.5 L2.5,37.5 C2.04083333,37.5 1.66666667,37.8741667 1.66666667,38.3333333 Z M34.1666667,50 C33.7066667,50 33.3333333,49.6266667 33.3333333,49.1666667 L33.3333333,28.3333333 L30.8333333,28.3333333 C30.3733333,28.3333333 30,27.96 30,27.5 L30,24.1666667 C30,23.7066667 30.3733333,23.3333333 30.8333333,23.3333333 L32.6533333,23.3333333 C32.56,23.0716667 32.5,22.7933333 32.5,22.5 C32.5,21.1216667 33.6216667,20 35,20 L38.5158333,20 L39.5516667,15.8583333 C39.8416667,14.6991667 40.7166667,13.82 41.8141667,13.4858333 C41.2108333,12.7633333 40.8333333,11.8458333 40.8333333,10.8333333 C40.8333333,8.53583333 42.7025,6.66666667 45,6.66666667 C47.2975,6.66666667 49.1666667,8.53583333 49.1666667,10.8333333 C49.1666667,11.92 48.7383333,12.9025 48.0541667,13.6458333 C49.1991667,14.1733333 50,15.325 50,16.6666667 L50,24.1666667 L50,27.5 L50,49.1666667 C50,49.6266667 49.6266667,50 49.1666667,50 L34.1666667,50 Z M48.3333333,48.3333333 L48.3333333,28.3333333 L35,28.3333333 L35,48.3333333 L48.3333333,48.3333333 Z M45,8.33333333 C43.6216667,8.33333333 42.5,9.455 42.5,10.8333333 C42.5,12.2116667 43.6216667,13.3333333 45,13.3333333 C46.3783333,13.3333333 47.5,12.2116667 47.5,10.8333333 C47.5,9.455 46.3783333,8.33333333 45,8.33333333 Z M34.1666667,22.5 C34.1666667,22.9591667 34.5408333,23.3333333 35,23.3333333 L40.4091667,23.3333333 C40.78,23.3333333 41.1091667,23.085 41.2108333,22.7283333 L42.5316667,18.1041667 L44.1341667,18.5625 L42.8133333,23.1866667 C42.7991667,23.2375 42.7758333,23.2841667 42.7583333,23.3333333 L48.3333333,23.3333333 L48.3333333,16.6666667 C48.3333333,15.7475 47.5858333,15 46.6666667,15 L42.785,15 C42.0191667,15 41.3541667,15.5191667 41.1683333,16.2625 L39.975,21.0358333 C39.8825,21.4066667 39.5491667,21.6666667 39.1666667,21.6666667 L35,21.6666667 C34.5408333,21.6666667 34.1666667,22.0408333 34.1666667,22.5 Z M31.6666667,25 L31.6666667,26.6666667 L34.1666667,26.6666667 L48.3333333,26.6666667 L48.3333333,25 L40.4091667,25 L35,25 L31.6666667,25 Z M6.66666667,14.1666667 C2.99083333,14.1666667 -2.42561526e-12,11.1758333 -2.42561526e-12,7.5 C-2.42561526e-12,3.82416667 2.99083333,0.833333333 6.66666667,0.833333333 C10.3425,0.833333333 13.3333333,3.82416667 13.3333333,7.5 C13.3333333,11.1758333 10.3425,14.1666667 6.66666667,14.1666667 Z M6.66666667,2.5 C3.90916667,2.5 1.66666667,4.7425 1.66666667,7.5 C1.66666667,10.2575 3.90916667,12.5 6.66666667,12.5 C9.42416667,12.5 11.6666667,10.2575 11.6666667,7.5 C11.6666667,4.7425 9.42416667,2.5 6.66666667,2.5 Z M6.66666667,9.16666667 C6.50583333,9.16666667 6.345,9.12 6.205,9.02666667 L3.705,7.36 L4.62916667,5.97333333 L6.63833333,7.3125 L9.5,5.16666667 L10.5,6.5 L7.16666667,9 C7.01916667,9.11083333 6.8425,9.16666667 6.66666667,9.16666667 Z M15.8333333,11.6666667 C15.3733333,11.6666667 15,11.2933333 15,10.8333333 L15,5.83333333 L15,0.833333333 C15,0.373333333 15.3733333,-3.0375702e-13 15.8333333,-3.0375702e-13 L23.3333333,-3.0375702e-13 L30.8333333,-3.0375702e-13 L38.3333333,-3.0375702e-13 C38.7933333,-3.0375702e-13 39.1666667,0.373333333 39.1666667,0.833333333 L39.1666667,5.83333333 L39.1666667,10.8333333 C39.1666667,11.2933333 38.7933333,11.6666667 38.3333333,11.6666667 L30.8333333,11.6666667 L23.3333333,11.6666667 L15.8333333,11.6666667 Z M16.6666667,6.66666667 L16.6666667,10 L22.5,10 L22.5,6.66666667 L16.6666667,6.66666667 Z M24.1666667,6.66666667 L24.1666667,10 L30,10 L30,6.66666667 L24.1666667,6.66666667 Z M37.5,10 L37.5,6.66666667 L31.6666667,6.66666667 L31.6666667,10 L37.5,10 Z M37.5,5 L37.5,1.66666667 L31.6666667,1.66666667 L31.6666667,5 L37.5,5 Z M30,5 L30,1.66666667 L24.1666667,1.66666667 L24.1666667,5 L30,5 Z M16.6666667,1.66666667 L16.6666667,5 L22.5,5 L22.5,1.66666667 L16.6666667,1.66666667 Z" id="Combined-Shape"></path>
                        </g>
                    </g>
                </g>
            </g>
        </g>
    </g>
</svg>