<?xml version="1.0" encoding="UTF-8"?>
<svg width="20px" height="15px" viewBox="0 0 20 15" version="1.1" xmlns="http://www.w3.org/2000/svg" xmlns:xlink="http://www.w3.org/1999/xlink">
    <!-- Generator: Sketch 52.5 (67469) - http://www.bohemiancoding.com/sketch -->
    <title>Email-icon</title>
    <desc>Created with Sketch.</desc>
    <g id="Blocks" stroke="none" stroke-width="1" fill="none" fill-rule="evenodd">
        <g id="Manage" transform="translate(-683.000000, -1319.000000)" fill="#FFFFFF" fill-rule="nonzero">
            <g id="Group-15" transform="translate(470.000000, 1313.000000)">
                <g id="Group-14" transform="translate(0.000000, 4.000000)">
                    <g id="Group-4" transform="translate(213.000000, 0.000000)">
                        <g id="Email-icon" transform="translate(0.000000, 2.000000)">
                            <path d="M4.54545455,0.227272727 C4.16951273,0.227272727 3.8099375,0.350875 3.55823864,0.603693182 C3.30653977,0.856511364 3.18181818,1.218325 3.18181818,1.59090909 L3.18181818,3.86363636 L1.36363636,3.86363636 C0.987694545,3.86363636 0.628119068,3.98723864 0.376420455,4.24005682 C0.124721841,4.492875 0,4.85468864 0,5.22727273 L0,13.4090909 C0,13.7816818 0.124721841,14.1363864 0.376420455,14.3892045 C0.628119068,14.6420227 0.987694545,14.7727273 1.36363636,14.7727273 L15.4545455,14.7727273 C15.8304873,14.7727273 16.1900627,14.6420227 16.4417614,14.3892045 C16.69346,14.1363864 16.8181818,13.7816818 16.8181818,13.4090909 L16.8181818,11.1363636 L18.6363636,11.1363636 C19.0122993,11.1363636 19.3718773,11.0056591 19.6235795,10.7528409 C19.8752818,10.5000227 20,10.1453182 20,9.77272727 L20,1.59090909 C20,1.218325 19.8752784,0.856511364 19.6235795,0.603693182 C19.3718807,0.350875 19.0123055,0.227272727 18.6363636,0.227272727 L4.54545455,0.227272727 Z M4.54545455,1.13636364 L18.6363636,1.13636364 C18.820018,1.13636364 18.9143248,1.17967045 18.9772727,1.24289773 C19.0402207,1.306125 19.0909091,1.40949318 19.0909091,1.59090909 L19.0909091,9.77272727 C19.0909091,9.95415909 19.040217,10.0504091 18.9772727,10.1136364 C18.9143284,10.1768636 18.8200241,10.2272727 18.6363636,10.2272727 L16.8181818,10.2272727 L16.8181818,5.22727273 C16.8181818,4.85468864 16.69346,4.492875 16.4417614,4.24005682 C16.1900627,3.98723864 15.8304873,3.86363636 15.4545455,3.86363636 L4.09090909,3.86363636 L4.09090909,1.59090909 C4.09090909,1.40949318 4.1415975,1.306125 4.20454545,1.24289773 C4.26749341,1.17967045 4.36180023,1.13636364 4.54545455,1.13636364 Z M1.953125,4.77272727 L14.8650568,4.77272727 L8.81392045,9.41051136 C8.62915023,9.55217045 8.65736295,9.54545455 8.40909091,9.54545455 C8.16082295,9.54545455 8.18907386,9.55228409 8.00426136,9.41051136 L1.953125,4.77272727 Z M0.916193182,5.12073864 L7.45028409,10.1278409 C7.72081205,10.33525 8.05476205,10.4545455 8.40909091,10.4545455 C8.7634225,10.4545455 9.09732477,10.3352727 9.36789773,10.1278409 L15.9019886,5.12073864 C15.906513,5.15358023 15.9090909,5.18723614 15.9090909,5.22727273 L15.9090909,13.4090909 C15.9090909,13.5905 15.8584025,13.6867727 15.7954545,13.75 C15.7325066,13.8132273 15.6381995,13.8636364 15.4545455,13.8636364 L1.36363636,13.8636364 C1.17998205,13.8636364 1.08567523,13.8132273 1.02272727,13.75 C0.959779318,13.6867727 0.909090909,13.5905 0.909090909,13.4090909 L0.909090909,5.22727273 C0.909090909,5.18723614 0.911668864,5.15358023 0.916193182,5.12073864 Z" id="Shape"></path>
                        </g>
                    </g>
                </g>
            </g>
        </g>
    </g>
</svg>