<?xml version="1.0" encoding="UTF-8"?>
<svg width="50px" height="50px" viewBox="0 0 50 50" version="1.1" xmlns="http://www.w3.org/2000/svg" xmlns:xlink="http://www.w3.org/1999/xlink">
    <!-- Generator: Sketch 52.5 (67469) - http://www.bohemiancoding.com/sketch -->
    <title>Listing-icon</title>
    <desc>Created with Sketch.</desc>
    <g id="Blocks" stroke="none" stroke-width="1" fill="none" fill-rule="evenodd">
        <g id="Manage" transform="translate(-433.000000, -911.000000)" fill="#6D5CAE" fill-rule="nonzero">
            <g id="Group-9-Copy-2" transform="translate(207.000000, 846.000000)">
                <g id="Group-3" transform="translate(108.000000, 65.000000)">
                    <g id="Group-34">
                        <g id="Listing-icon" transform="translate(118.000000, 0.000000)">
                            <path d="M47.5,0 L2.5,0 C1.12166667,0 0,1.12166667 0,2.5 L0,47.5 C0,48.8783333 1.12166667,50 2.5,50 L47.5,50 C48.8783333,50 50,48.8783333 50,47.5 L50,2.5 C50,1.12166667 48.8783333,0 47.5,0 Z M47.5,48.3333333 L2.5,48.3333333 C2.04083333,48.3333333 1.66666667,47.9591667 1.66666667,47.5 L1.66666667,8.33333333 L10.8333333,8.33333333 L10.8333333,6.66666667 L1.66666667,6.66666667 L1.66666667,2.5 C1.66666667,2.04083333 2.04083333,1.66666667 2.5,1.66666667 L47.5,1.66666667 C47.9591667,1.66666667 48.3333333,2.04083333 48.3333333,2.5 L48.3333333,6.66666667 L15.8333333,6.66666667 L15.8333333,8.33333333 L48.3333333,8.33333333 L48.3333333,47.5 C48.3333333,47.9591667 47.9591667,48.3333333 47.5,48.3333333 Z" id="Shape"></path>
                            <rect id="Rectangle" x="12.5" y="6.66666667" width="1.66666667" height="1.66666667"></rect>
                            <rect id="Rectangle" x="38.3333333" y="3.33333333" width="1.66666667" height="1.66666667"></rect>
                            <rect id="Rectangle" x="41.6666667" y="3.33333333" width="1.66666667" height="1.66666667"></rect>
                            <rect id="Rectangle" x="45" y="3.33333333" width="1.66666667" height="1.66666667"></rect>
                            <path d="M25.8333333,35.8333333 L25.8333333,31.6666667 C25.8333333,30.2883333 24.7116667,29.1666667 23.3333333,29.1666667 L6.66666667,29.1666667 C5.28833333,29.1666667 4.16666667,30.2883333 4.16666667,31.6666667 L4.16666667,35.8333333 C3.70666667,35.8333333 3.33333333,36.2066667 3.33333333,36.6666667 L3.33333333,45 C3.33333333,45.46 3.70666667,45.8333333 4.16666667,45.8333333 C4.62666667,45.8333333 5,45.46 5,45 L5,44.1666667 L25,44.1666667 L25,45 C25,45.46 25.3733333,45.8333333 25.8333333,45.8333333 C26.2933333,45.8333333 26.6666667,45.46 26.6666667,45 L26.6666667,43.3333333 L26.6666667,36.6666667 C26.6666667,36.2066667 26.2933333,35.8333333 25.8333333,35.8333333 Z M5.83333333,31.6666667 C5.83333333,31.2075 6.2075,30.8333333 6.66666667,30.8333333 L23.3333333,30.8333333 C23.7925,30.8333333 24.1666667,31.2075 24.1666667,31.6666667 L24.1666667,35.8333333 L22.5,35.8333333 L22.5,33.3333333 C22.5,32.8733333 22.1266667,32.5 21.6666667,32.5 L16.6666667,32.5 C16.2066667,32.5 15.8333333,32.8733333 15.8333333,33.3333333 L15.8333333,35.8333333 L14.1666667,35.8333333 L14.1666667,33.3333333 C14.1666667,32.8733333 13.7933333,32.5 13.3333333,32.5 L8.33333333,32.5 C7.87333333,32.5 7.5,32.8733333 7.5,33.3333333 L7.5,35.8333333 L5.83333333,35.8333333 L5.83333333,31.6666667 Z M20.8333333,35.8333333 L17.5,35.8333333 L17.5,34.1666667 L20.8333333,34.1666667 L20.8333333,35.8333333 Z M12.5,35.8333333 L9.16666667,35.8333333 L9.16666667,34.1666667 L12.5,34.1666667 L12.5,35.8333333 Z M5,37.5 L25,37.5 L25,42.5 L5,42.5 L5,37.5 Z" id="Shape"></path>
                            <path d="M7.5,27.5 C7.96,27.5 8.33333333,27.1266667 8.33333333,26.6666667 L8.33333333,25.8333333 L21.6666667,25.8333333 L21.6666667,26.6666667 C21.6666667,27.1266667 22.04,27.5 22.5,27.5 C22.96,27.5 23.3333333,27.1266667 23.3333333,26.6666667 L23.3333333,25 L23.3333333,18.3333333 C23.3333333,17.8733333 22.96,17.5 22.5,17.5 L22.5,13.3333333 C22.5,11.955 21.3783333,10.8333333 20,10.8333333 L10,10.8333333 C8.62166667,10.8333333 7.5,11.955 7.5,13.3333333 L7.5,17.5 C7.04,17.5 6.66666667,17.8733333 6.66666667,18.3333333 L6.66666667,26.6666667 C6.66666667,27.1266667 7.04,27.5 7.5,27.5 Z M8.33333333,19.1666667 L21.6666667,19.1666667 L21.6666667,24.1666667 L8.33333333,24.1666667 L8.33333333,19.1666667 Z M17.5,17.5 L12.5,17.5 L12.5,15.8333333 L17.5,15.8333333 L17.5,17.5 Z M9.16666667,13.3333333 C9.16666667,12.8741667 9.54083333,12.5 10,12.5 L20,12.5 C20.4591667,12.5 20.8333333,12.8741667 20.8333333,13.3333333 L20.8333333,17.5 L19.1666667,17.5 L19.1666667,15 C19.1666667,14.54 18.7933333,14.1666667 18.3333333,14.1666667 L11.6666667,14.1666667 C11.2066667,14.1666667 10.8333333,14.54 10.8333333,15 L10.8333333,17.5 L9.16666667,17.5 L9.16666667,13.3333333 Z" id="Shape"></path>
                            <path d="M32.5,20.8333333 L29.1666667,20.8333333 C28.7066667,20.8333333 28.3333333,21.2066667 28.3333333,21.6666667 L28.3333333,25 C28.3333333,25.46 28.7066667,25.8333333 29.1666667,25.8333333 L32.5,25.8333333 C32.96,25.8333333 33.3333333,25.46 33.3333333,25 L33.3333333,21.6666667 C33.3333333,21.2066667 32.96,20.8333333 32.5,20.8333333 Z M31.6666667,24.1666667 L30,24.1666667 L30,22.5 L31.6666667,22.5 L31.6666667,24.1666667 Z" id="Shape"></path>
                            <rect id="Rectangle" x="35" y="15.8333333" width="11.6666667" height="1.66666667"></rect>
                            <rect id="Rectangle" x="35" y="22.5" width="11.6666667" height="1.66666667"></rect>
                            <path d="M32.5,30.8333333 L29.1666667,30.8333333 C28.7066667,30.8333333 28.3333333,31.2066667 28.3333333,31.6666667 L28.3333333,35 C28.3333333,35.46 28.7066667,35.8333333 29.1666667,35.8333333 L32.5,35.8333333 C32.96,35.8333333 33.3333333,35.46 33.3333333,35 L33.3333333,31.6666667 C33.3333333,31.2066667 32.96,30.8333333 32.5,30.8333333 Z M31.6666667,34.1666667 L30,34.1666667 L30,32.5 L31.6666667,32.5 L31.6666667,34.1666667 Z" id="Shape"></path>
                            <path d="M32.5,37.5 L29.1666667,37.5 C28.7066667,37.5 28.3333333,37.8733333 28.3333333,38.3333333 L28.3333333,41.6666667 C28.3333333,42.1266667 28.7066667,42.5 29.1666667,42.5 L32.5,42.5 C32.96,42.5 33.3333333,42.1266667 33.3333333,41.6666667 L33.3333333,38.3333333 C33.3333333,37.8733333 32.96,37.5 32.5,37.5 Z M31.6666667,40.8333333 L30,40.8333333 L30,39.1666667 L31.6666667,39.1666667 L31.6666667,40.8333333 Z" id="Shape"></path>
                            <rect id="Rectangle" x="35" y="32.5" width="11.6666667" height="1.66666667"></rect>
                            <rect id="Rectangle" x="35" y="39.1666667" width="11.6666667" height="1.66666667"></rect>
                            <path d="M34.7558333,12.7441667 C34.43,12.4183333 33.9033333,12.4183333 33.5775,12.7441667 L32.155,14.1666667 L29.1666667,14.1666667 C28.7066667,14.1666667 28.3333333,14.54 28.3333333,15 L28.3333333,18.3333333 C28.3333333,18.4416667 28.3558333,18.55 28.3975,18.6516667 C28.4816667,18.855 28.6441667,19.0175 28.8483333,19.1025 C28.95,19.1441667 29.0583333,19.1666667 29.1666667,19.1666667 L32.5,19.1666667 C32.96,19.1666667 33.3333333,18.7933333 33.3333333,18.3333333 L33.3333333,15.345 L34.7558333,13.9225 C35.0816667,13.5966667 35.0816667,13.07 34.7558333,12.7441667 Z M30.4883333,15.8333333 L30,16.3216667 L30,15.8333333 L30.4883333,15.8333333 Z M31.6666667,17.5 L31.1783333,17.5 L31.6666667,17.0116667 L31.6666667,17.5 Z" id="Shape"></path>
                        </g>
                    </g>
                </g>
            </g>
        </g>
    </g>
</svg>