<?xml version="1.0" encoding="UTF-8"?>
<svg width="50px" height="50px" viewBox="0 0 50 50" version="1.1" xmlns="http://www.w3.org/2000/svg" xmlns:xlink="http://www.w3.org/1999/xlink">
    <!-- Generator: Sketch 52.5 (67469) - http://www.bohemiancoding.com/sketch -->
    <title>Occupancy-icon</title>
    <desc>Created with Sketch.</desc>
    <g id="Blocks" stroke="none" stroke-width="1" fill="none" fill-rule="evenodd">
        <g id="Manage" transform="translate(-959.000000, -897.000000)" fill="#6D5CAE" fill-rule="nonzero">
            <g id="Group-9-Copy-3" transform="translate(733.000000, 846.000000)">
                <g id="Group-3" transform="translate(110.000000, 51.000000)">
                    <g id="Group-34">
                        <g id="Occupancy-icon" transform="translate(116.000000, 0.000000)">
                            <path d="M48.9552239,16.8656716 L25.0746269,0.820895522 C24.8507463,0.671641791 24.4776119,0.671641791 24.2537313,0.820895522 L0.373134328,16.8656716 C0.0746268657,17.0149254 -4.87804241e-15,17.3880597 0.0746268657,17.6865672 C0.149253731,17.9850746 0.447761194,18.2089552 0.820895522,18.2089552 L4.02985075,18.2089552 L4.02985075,49.2537313 C4.02985075,49.7014925 4.32835821,50 4.7761194,50 L44.6268657,50 C45.0746269,50 45.3731343,49.7014925 45.3731343,49.2537313 L45.3731343,18.2835821 L48.5074627,18.2835821 C48.8059701,18.2835821 49.1044776,18.0597015 49.2537313,17.761194 C49.3283582,17.3880597 49.1791045,17.0895522 48.9552239,16.8656716 Z M43.8059701,48.5074627 L5.44776119,48.5074627 L5.44776119,18.2835821 L43.8059701,18.2835821 L43.8059701,48.5074627 Z M3.20895522,16.7910448 L24.6268657,2.3880597 L46.0447761,16.7910448 C40.7462687,16.7910448 7.91044776,16.7910448 3.20895522,16.7910448 Z" id="Shape"></path>
                            <path d="M19.4776119,10.7462687 C19.4776119,13.5820896 21.7910448,15.8955224 24.6268657,15.8955224 C27.4626866,15.8955224 29.7761194,13.5820896 29.7761194,10.7462687 C29.7761194,7.91044776 27.4626866,5.59701493 24.6268657,5.59701493 C21.7910448,5.59701493 19.4776119,7.91044776 19.4776119,10.7462687 Z M28.2835821,10.7462687 C28.2835821,12.761194 26.641791,14.4029851 24.6268657,14.4029851 C22.6119403,14.4029851 20.9701493,12.761194 20.9701493,10.7462687 C20.9701493,8.73134328 22.6119403,7.08955224 24.6268657,7.08955224 C26.641791,7.08955224 28.2835821,8.73134328 28.2835821,10.7462687 Z" id="Shape"></path>
                            <path d="M32.8358209,29.0298507 L28.9552239,37.9104478 C27.6865672,38.358209 26.5671642,39.3283582 25.9701493,40.5970149 C25.2238806,42.3134328 25.5970149,44.2537313 26.8656716,45.5970149 C26.8656716,45.5970149 26.8656716,45.5970149 26.8656716,45.5970149 C26.8656716,45.5970149 26.8656716,45.5970149 26.8656716,45.5970149 C27.238806,45.9701493 27.8358209,45.8955224 28.0597015,45.3731343 C28.0597015,45.3731343 28.0597015,45.3731343 28.0597015,45.3731343 L29.5522388,42.0149254 C29.6268657,41.7910448 29.8507463,41.641791 30,41.7164179 L31.4925373,42.238806 C31.4925373,42.238806 31.4925373,42.238806 31.5671642,42.3134328 C31.5671642,42.3880597 31.5671642,42.5373134 31.5671642,42.6119403 L30.0746269,45.9701493 C30.0746269,45.9701493 30.0746269,45.9701493 30.0746269,45.9701493 C29.8507463,46.4925373 30.2985075,47.0149254 30.8208955,47.0149254 C32.6865672,46.8656716 34.4029851,45.6716418 35.1492537,44.0298507 C35.6716418,42.8358209 35.6716418,41.4179104 35,40.1492537 L38.9552239,31.3432836 C40.2238806,30.8955224 41.3432836,29.9253731 41.9402985,28.6567164 C42.6865672,26.9402985 42.3134328,25 41.0447761,23.6567164 C41.0447761,23.6567164 41.0447761,23.6567164 41.0447761,23.6567164 C41.0447761,23.6567164 41.0447761,23.6567164 41.0447761,23.6567164 C40.6716418,23.2835821 40.0746269,23.358209 39.8507463,23.880597 L38.358209,27.238806 C38.2835821,27.4626866 38.0597015,27.6119403 37.9104478,27.5373134 L36.4179104,27.0149254 C36.3432836,26.9402985 36.3432836,26.7164179 36.4179104,26.641791 L37.9104478,23.2835821 C37.9104478,23.2835821 37.9104478,23.2835821 37.9104478,23.2835821 C38.1343284,22.8358209 37.761194,22.238806 37.1641791,22.238806 C37.1641791,22.238806 37.1641791,22.238806 37.1641791,22.238806 C35.2985075,22.3880597 33.5820896,23.5074627 32.8358209,25.2238806 C32.238806,26.3432836 32.238806,27.761194 32.8358209,29.0298507 Z M32.5373134,37.9104478 C31.9402985,37.6865672 31.4179104,37.6119403 30.8208955,37.6119403 L33.9552239,30.3731343 C34.8507463,31.1940299 35.9701493,31.5671642 37.238806,31.641791 L34.1044776,38.880597 C33.5820896,38.5074627 33.0597015,38.1343284 32.5373134,37.9104478 Z M33.8059701,43.5074627 C33.5074627,44.2537313 32.8358209,44.9253731 32.0895522,45.2238806 L32.9850746,43.2089552 C33.2089552,42.6865672 33.2089552,42.1641791 32.9850746,41.7164179 C32.8358209,41.2686567 32.4626866,40.9701493 32.0895522,40.8208955 L30.5970149,40.2985075 C29.7014925,40 28.7313433,40.4477612 28.2835821,41.4179104 L27.3880597,43.5074627 C27.0895522,42.761194 27.0895522,41.9402985 27.4626866,41.119403 C28.2089552,39.4029851 30.2238806,38.5820896 32.0149254,39.2537313 C33.7313433,40 34.5522388,41.8656716 33.8059701,43.5074627 Z M34.1044776,25.7462687 C34.4029851,25 35.0746269,24.3283582 35.8208955,23.9552239 L34.9253731,25.9701493 C34.4776119,26.9402985 34.9253731,27.9850746 35.8208955,28.358209 L37.3134328,28.880597 C38.2089552,29.1791045 39.1791045,28.7313433 39.6268657,27.761194 L40.5223881,25.6716418 C40.8208955,26.4179104 40.8208955,27.238806 40.4477612,28.0597015 C39.7014925,29.7761194 37.6865672,30.5970149 35.8955224,29.9253731 C34.2537313,29.2537313 33.4328358,27.3880597 34.1044776,25.7462687 Z" id="Shape"></path>
                            <path d="M7.3880597,32.238806 L9.32835821,32.4626866 C9.55223881,33.2835821 9.85074627,34.0298507 10.2985075,34.7014925 L9.10447761,36.2686567 C8.88059701,36.5671642 8.88059701,37.0149254 9.17910448,37.238806 L10.8208955,38.880597 C11.119403,39.1791045 11.4925373,39.1791045 11.7910448,38.9552239 L13.358209,37.761194 C14.0298507,38.2089552 14.8507463,38.5074627 15.5970149,38.7313433 L15.8208955,40.6716418 C15.8955224,41.0447761 16.1940299,41.3432836 16.5671642,41.3432836 L18.880597,41.3432836 C19.2537313,41.3432836 19.5522388,41.0447761 19.6268657,40.6716418 L19.8507463,38.7313433 C20.6716418,38.5074627 21.4179104,38.2089552 22.0895522,37.761194 L23.5820896,38.9552239 C23.7313433,39.0298507 23.880597,39.1044776 24.0298507,39.1044776 C24.2537313,39.1044776 24.4776119,39.0298507 24.6268657,38.880597 L26.2686567,37.238806 C26.5671642,36.9402985 26.5671642,36.5671642 26.3432836,36.2686567 L25.1492537,34.7014925 C25.5970149,33.9552239 25.8955224,33.2089552 26.119403,32.4626866 L28.0597015,32.238806 C28.4328358,32.1641791 28.7313433,31.8656716 28.7313433,31.4925373 L28.7313433,29.1791045 C28.7313433,28.8059701 28.4328358,28.5074627 28.0597015,28.4328358 L26.119403,28.2089552 C25.8955224,27.3880597 25.5970149,26.641791 25.1492537,25.9701493 L26.3432836,24.4029851 C26.5671642,24.1044776 26.4925373,23.6567164 26.2686567,23.358209 L24.6268657,21.7164179 C24.3283582,21.4179104 23.9552239,21.4179104 23.6567164,21.641791 L22.0895522,22.8358209 C21.4179104,22.3880597 20.5970149,22.0895522 19.8507463,21.8656716 L19.6268657,19.9253731 C19.5522388,19.5522388 19.2537313,19.2537313 18.880597,19.2537313 L16.5671642,19.2537313 C16.1940299,19.2537313 15.8955224,19.5522388 15.8208955,19.9253731 L15.5970149,21.8656716 C14.7761194,22.0895522 14.0298507,22.3880597 13.358209,22.8358209 L11.7910448,21.641791 C11.4925373,21.4179104 11.0447761,21.4179104 10.8208955,21.7164179 L9.17910448,23.358209 C8.88059701,23.6567164 8.88059701,24.0298507 9.10447761,24.3283582 L10.2985075,25.8955224 C9.85074627,26.5671642 9.55223881,27.3880597 9.32835821,28.1343284 L7.3880597,28.358209 C7.01492537,28.4328358 6.71641791,28.7313433 6.71641791,29.1044776 L6.71641791,31.4179104 C6.79104478,31.8656716 7.01492537,32.238806 7.3880597,32.238806 Z M8.28358209,29.8507463 L10.0746269,29.6268657 C10.3731343,29.5522388 10.6716418,29.3283582 10.7462687,29.0298507 C10.8955224,28.0597015 11.3432836,27.1641791 11.8656716,26.3432836 C12.0149254,26.0447761 12.0149254,25.7462687 11.8656716,25.4477612 L10.7462687,24.0298507 L11.4925373,23.2835821 L12.9104478,24.4029851 C13.1343284,24.6268657 13.5820896,24.6268657 13.8059701,24.4029851 C14.6268657,23.880597 15.5223881,23.5074627 16.4925373,23.2835821 C16.7910448,23.2089552 17.0149254,22.9850746 17.0895522,22.6119403 L17.3134328,20.8208955 L18.358209,20.8208955 L18.5820896,22.6119403 C18.6567164,22.9104478 18.880597,23.2089552 19.1791045,23.2835821 C20.1492537,23.4328358 21.0447761,23.880597 21.8656716,24.4029851 C22.1641791,24.5522388 22.4626866,24.5522388 22.761194,24.4029851 L24.1791045,23.2835821 L24.9253731,24.0298507 L23.8059701,25.4477612 C23.5820896,25.6716418 23.5820896,26.0447761 23.8059701,26.3432836 C24.3283582,27.1641791 24.7014925,28.0597015 24.9253731,29.0298507 C25,29.3283582 25.2238806,29.5522388 25.5970149,29.6268657 L27.3880597,29.8507463 L27.3880597,30.8955224 L25.5970149,31.119403 C25.2985075,31.1940299 25,31.4179104 25,31.7164179 C24.8507463,32.6865672 24.4029851,33.5820896 23.880597,34.4029851 C23.7313433,34.7014925 23.7313433,35 23.880597,35.2985075 L25,36.7164179 L24.2537313,37.4626866 L22.8358209,36.3432836 C22.6119403,36.119403 22.238806,36.119403 21.9402985,36.3432836 C21.119403,36.8656716 20.2238806,37.238806 19.2537313,37.4626866 C18.9552239,37.5373134 18.7313433,37.761194 18.6567164,38.1343284 L18.4328358,39.9253731 L17.3880597,39.9253731 L17.0149254,38.0597015 C16.9402985,37.761194 16.7164179,37.4626866 16.4179104,37.3880597 C15.4477612,37.238806 14.5522388,36.7910448 13.7313433,36.2686567 C13.4328358,36.119403 13.1343284,36.119403 12.8358209,36.2686567 L11.4179104,37.3880597 L10.6716418,36.641791 L11.7910448,35.2238806 C12.0149254,35 12.0149254,34.5522388 11.7910448,34.3283582 C11.2686567,33.5074627 10.8955224,32.6119403 10.6716418,31.641791 C10.5970149,31.3432836 10.3731343,31.119403 10.0746269,31.0447761 L8.28358209,30.8208955 L8.28358209,29.8507463 Z" id="Shape"></path>
                            <path d="M17.761194,35.2238806 C20.4477612,35.2238806 22.6119403,33.0597015 22.6119403,30.3731343 C22.6119403,27.6865672 20.4477612,25.5223881 17.761194,25.5223881 C15.0746269,25.5223881 12.9104478,27.6865672 12.9104478,30.3731343 C12.9104478,33.0597015 15.0746269,35.2238806 17.761194,35.2238806 Z M17.761194,27.0149254 C19.6268657,27.0149254 21.119403,28.5074627 21.119403,30.3731343 C21.119403,32.238806 19.6268657,33.7313433 17.761194,33.7313433 C15.8955224,33.7313433 14.4029851,32.238806 14.4029851,30.3731343 C14.4029851,28.5074627 15.8955224,27.0149254 17.761194,27.0149254 Z" id="Shape"></path>
                        </g>
                    </g>
                </g>
            </g>
        </g>
    </g>
</svg>