<?xml version="1.0" encoding="UTF-8"?>
<svg width="20px" height="20px" viewBox="0 0 20 20" version="1.1" xmlns="http://www.w3.org/2000/svg" xmlns:xlink="http://www.w3.org/1999/xlink">
    <!-- Generator: Sketch 52.5 (67469) - http://www.bohemiancoding.com/sketch -->
    <title>Web-icon</title>
    <desc>Created with Sketch.</desc>
    <g id="Blocks" stroke="none" stroke-width="1" fill="none" fill-rule="evenodd">
        <g id="Manage" transform="translate(-470.000000, -1317.000000)" fill="#FFFFFF" fill-rule="nonzero">
            <g id="Group-15" transform="translate(470.000000, 1313.000000)">
                <g id="Group-14" transform="translate(0.000000, 4.000000)">
                    <g id="Group-13">
                        <g id="Web-icon">
                            <path d="M10,0.0952380952 C4.52380952,0.119047619 0.119047619,4.52380952 0.0952380952,10 C0.0714285714,15.4761905 4.52380952,19.8809524 10,19.9047619 C15.452381,19.9047619 19.8809524,15.4761905 19.9047619,10 C19.8809524,4.52380952 15.4761905,0.119047619 10,0.0952380952 Z M16.9761905,4.45238095 L14.4285714,4.45238095 C13.7619048,3.26190476 12.9047619,2.16666667 11.8571429,1.28571429 C13.8809524,1.73809524 15.6904762,2.85714286 16.9761905,4.45238095 Z M6.73809524,15.547619 L13.2619048,15.547619 C12.452381,16.8571429 11.3333333,18 10,18.8333333 C8.66666667,18 7.54761905,16.8571429 6.73809524,15.547619 Z M6.16666667,14.547619 C5.57142857,13.3095238 5.21428571,11.9047619 5.14285714,10.5238095 L14.8809524,10.5238095 C14.8095238,11.9047619 14.452381,13.3095238 13.8571429,14.547619 L6.16666667,14.547619 Z M1.11904762,9.47619048 C1.21428571,8.07142857 1.61904762,6.69047619 2.35714286,5.47619048 L5.0952381,5.45238095 C4.52380952,6.73809524 4.21428571,8.11904762 4.14285714,9.5 L1.11904762,9.47619048 Z M4.11904762,10.5 C4.19047619,11.8809524 4.5,13.2619048 5.07142857,14.547619 L2.33333333,14.5238095 C1.5952381,13.2857143 1.19047619,11.9285714 1.0952381,10.5238095 L4.11904762,10.5 Z M15.8809524,10.5 L18.8809524,10.5238095 C18.8095238,11.9285714 18.4047619,13.2857143 17.6666667,14.5238095 L14.9285714,14.547619 C15.5,13.2619048 15.8095238,11.8809524 15.8809524,10.5 Z M5.14285714,9.47619048 C5.21428571,8.0952381 5.57142857,6.69047619 6.16666667,5.45238095 L13.8333333,5.45238095 C14.4285714,6.69047619 14.7857143,8.0952381 14.8571429,9.47619048 L5.14285714,9.47619048 Z M6.73809524,4.45238095 C7.54761905,3.14285714 8.66666667,2 10,1.16666667 C11.3333333,2 12.452381,3.14285714 13.2619048,4.45238095 L6.73809524,4.45238095 Z M8.11904762,1.28571429 C7.0952381,2.16666667 6.21428571,3.26190476 5.54761905,4.45238095 L3.02380952,4.45238095 L3.69047619,3.71428571 C4.92857143,2.5 6.45238095,1.64285714 8.11904762,1.28571429 Z M3.02380952,15.547619 L5.54761905,15.547619 C6.21428571,16.7380952 7.07142857,17.8333333 8.11904762,18.7142857 C6.11904762,18.2619048 4.30952381,17.1428571 3.02380952,15.547619 Z M11.8809524,18.7142857 L12.5,18.0952381 C13.2619048,17.3333333 13.9285714,16.5 14.452381,15.547619 L16.9761905,15.547619 C15.6904762,17.1428571 13.8809524,18.2619048 11.8809524,18.7142857 Z M18.8809524,9.47619048 L15.8809524,9.5 C15.8095238,8.11904762 15.5,6.73809524 14.9285714,5.45238095 L17.6666667,5.47619048 C18.4047619,6.71428571 18.8095238,8.07142857 18.8809524,9.47619048 Z" id="Shape"></path>
                        </g>
                    </g>
                </g>
            </g>
        </g>
    </g>
</svg>