<?xml version="1.0" encoding="UTF-8"?>
<svg width="30px" height="40px" viewBox="0 0 30 40" version="1.1" xmlns="http://www.w3.org/2000/svg" xmlns:xlink="http://www.w3.org/1999/xlink">
    <!-- Generator: Sketch 55.2 (78181) - https://sketchapp.com -->
    <title>DOC</title>
    <desc>Created with Sketch.</desc>
    <g id="Property-Details" stroke="none" stroke-width="1" fill="none" fill-rule="evenodd">
        <g id="Artboard" transform="translate(-142.000000, -68.000000)" fill="#788195" fill-rule="nonzero">
            <g id="DOC" transform="translate(142.000000, 68.000000)">
                <path d="M0.8671875,30 L0.8671875,21.46875 L3.38671875,21.46875 C4.14062877,21.46875 4.80956739,21.6367171 5.39355469,21.9726562 C5.97754198,22.3085954 6.4296859,22.7851532 6.75,23.4023438 C7.0703141,24.0195343 7.23046875,24.7265585 7.23046875,25.5234375 L7.23046875,25.9511719 C7.23046875,26.7597697 7.06933755,27.4707001 6.74707031,28.0839844 C6.42480308,28.6972687 5.96582329,29.1699202 5.37011719,29.5019531 C4.77441108,29.833986 4.09180072,30 3.32226562,30 L0.8671875,30 Z M2.34960938,22.6640625 L2.34960938,28.8164062 L3.31640625,28.8164062 C4.09375389,28.8164062 4.69042761,28.5732446 5.10644531,28.0869141 C5.52246302,27.6005835 5.73437496,26.9023483 5.7421875,25.9921875 L5.7421875,25.5175781 C5.7421875,24.5917922 5.54101764,23.8847681 5.13867188,23.3964844 C4.73632611,22.9082007 4.15234758,22.6640625 3.38671875,22.6640625 L2.34960938,22.6640625 Z M15.515625,25.9570312 C15.515625,26.7929729 15.3710952,27.526364 15.0820312,28.1572266 C14.7929673,28.7880891 14.3798855,29.2724592 13.8427734,29.6103516 C13.3056614,29.9482439 12.6875035,30.1171875 11.9882812,30.1171875 C11.2968715,30.1171875 10.6806668,29.9482439 10.1396484,29.6103516 C9.59863011,29.2724592 9.18066554,28.7910187 8.88574219,28.1660156 C8.59081884,27.5410125 8.44140627,26.8203166 8.4375,26.0039062 L8.4375,25.5234375 C8.4375,24.6914021 8.58495946,23.9570344 8.87988281,23.3203125 C9.17480616,22.6835906 9.59081763,22.1962908 10.1279297,21.8583984 C10.6650417,21.5205061 11.2812465,21.3515625 11.9765625,21.3515625 C12.6718785,21.3515625 13.2880833,21.518553 13.8251953,21.8525391 C14.3623074,22.1865251 14.7773423,22.6669891 15.0703125,23.2939453 C15.3632827,23.9209016 15.5117187,24.6503865 15.515625,25.4824219 L15.515625,25.9570312 Z M14.0332031,25.5117188 C14.0332031,24.5664015 13.854494,23.8417994 13.4970703,23.3378906 C13.1396467,22.8339819 12.6328158,22.5820312 11.9765625,22.5820312 C11.3359343,22.5820312 10.8349627,22.8330053 10.4736328,23.3349609 C10.1123029,23.8369166 9.92773441,24.5468704 9.91992188,25.4648438 L9.91992188,25.9570312 C9.91992188,26.8945359 10.1025372,27.6191381 10.4677734,28.1308594 C10.8330096,28.6425807 11.3398405,28.8984375 11.9882812,28.8984375 C12.6445345,28.8984375 13.1494123,28.64844 13.5029297,28.1484375 C13.8564471,27.648435 14.0332031,26.9179736 14.0332031,25.9570312 L14.0332031,25.5117188 Z M23.5019531,27.2226562 C23.4160152,28.1328171 23.0800811,28.8427709 22.4941406,29.3525391 C21.9082002,29.8623072 21.1289111,30.1171875 20.15625,30.1171875 C19.4765591,30.1171875 18.8779323,29.9560563 18.3603516,29.6337891 C17.8427708,29.3115218 17.4433608,28.8535186 17.1621094,28.2597656 C16.880858,27.6660127 16.7343751,26.9765664 16.7226562,26.1914062 L16.7226562,25.3945312 C16.7226562,24.5898397 16.8652329,23.8808624 17.1503906,23.2675781 C17.4355483,22.6542938 17.8447239,22.1816423 18.3779297,21.8496094 C18.9111355,21.5175765 19.5273403,21.3515625 20.2265625,21.3515625 C21.1679735,21.3515625 21.9257784,21.6074193 22.5,22.1191406 C23.0742216,22.6308619 23.4082027,23.353511 23.5019531,24.2871094 L22.0253906,24.2871094 C21.9550778,23.6738251 21.7763686,23.2314467 21.4892578,22.9599609 C21.202147,22.6884752 20.7812528,22.5527344 20.2265625,22.5527344 C19.582028,22.5527344 19.0869158,22.7880836 18.7412109,23.2587891 C18.3955061,23.7294945 18.21875,24.4199173 18.2109375,25.3300781 L18.2109375,26.0859375 C18.2109375,27.0078171 18.3759749,27.7109351 18.7060547,28.1953125 C19.0361345,28.6796899 19.5195281,28.921875 20.15625,28.921875 C20.7382842,28.921875 21.1757798,28.7910169 21.46875,28.5292969 C21.7617202,28.2675768 21.9472652,27.8320343 22.0253906,27.2226562 L23.5019531,27.2226562 Z"></path>
                <path d="M22.8174839,9.10814291 L28.7886326,9.10814291 C26.9970011,6.59281036 23.4911898,2.60692212 21.5079783,0.86405648 L21.5079783,7.60541817 C21.5077734,8.43402723 22.0952171,9.10814291 22.8174839,9.10814291 Z" id="Path"></path>
                <path d="M29.9110659,16.3781424 L29.9110659,11.2444134 L22.8174839,11.2444134 C21.0692909,11.2444134 19.6460667,9.61198803 19.6460667,7.60541817 L19.6460667,0 L2.27744552,0 C1.03985929,0 0.0368817089,1.15091422 0.0368817089,2.5712698 L0.0368817089,10.4852649 L0.0415943717,10.4852649 L0.0415943717,18.0171246 L28.2151302,18.0171246 L28.2151302,33.4431042 L0.0417992701,33.4431042 L0.0417992701,37.31302 C0.0909748819,38.6829706 1.07141364,39.776923 2.27765042,39.776923 L27.6711168,39.776923 C28.9084981,39.776923 29.9114757,38.625599 29.9114757,37.2056532 L29.9114757,35.0822913 L29.9110659,16.3781424 Z" id="Path"></path>
            </g>
        </g>
    </g>
</svg>