<?xml version="1.0" encoding="UTF-8"?>
<svg width="11px" height="14px" viewBox="0 0 11 14" version="1.1" xmlns="http://www.w3.org/2000/svg" xmlns:xlink="http://www.w3.org/1999/xlink">
    <!-- Generator: Sketch 52.5 (67469) - http://www.bohemiancoding.com/sketch -->
    <title>fire</title>
    <desc>Created with Sketch.</desc>
    <g id="Page-1" stroke="none" stroke-width="1" fill="none" fill-rule="evenodd">
        <g id="View-Properties-Page@2x-Copy-3" transform="translate(-240.000000, -498.000000)" fill="#FFFFFF">
            <g id="Group-15" transform="translate(229.000000, 495.000000)">
                <path d="M16.9062359,3.65966644 C16.9062359,4.20654014 17.0976417,4.74429941 17.4804533,5.27294385 C17.6992028,5.5828388 18.1275873,6.0294526 18.7656065,6.6127844 C19.3489383,7.1596581 19.7773228,7.58804263 20.0507597,7.89793759 C20.5064879,8.42658202 20.852841,8.96434129 21.0898197,9.51121499 C21.3632565,10.2039215 21.499975,10.9513159 21.499975,11.7533971 C21.499975,12.7013117 21.2629962,13.5763096 20.7890392,14.3783909 C20.3150821,15.1804722 19.6770625,15.8184918 18.8749812,16.2924488 C18.0728999,16.7664059 17.197902,17.0033846 16.2499875,17.0033846 C15.3020729,17.0033846 14.427075,16.7664059 13.6249937,16.2924488 C12.8229125,15.8184918 12.1848929,15.1804722 11.7109358,14.3783909 C11.2369787,13.5763096 11,12.7013117 11,11.7533971 C11,10.8966285 11.2005202,10.0854324 11.6015611,9.3198092 C12.0026019,8.55418602 12.5494756,7.92528127 13.2421822,7.43309495 C13.4609316,7.2872621 13.6887955,7.27814726 13.9257743,7.40575126 C14.162753,7.53335526 14.2812422,7.72476106 14.2812422,7.97996864 L14.2812422,10.8783992 C14.2812422,11.1882942 14.3860595,11.4480592 14.5956946,11.6576942 C14.8053296,11.8673293 15.0650946,11.9721466 15.3749896,11.9721466 C15.6848845,11.9721466 15.9446495,11.8673293 16.1542846,11.6576942 C16.3639196,11.4480592 16.468737,11.1882942 16.468737,10.8783992 C16.468737,10.6961079 16.4049352,10.4864732 16.2773312,10.2494945 C16.2044145,10.0854324 16.0676961,9.83022479 15.8671759,9.48387131 C15.466135,8.82762287 15.1835838,8.30809286 15.0195217,7.92528127 C14.7643141,7.23257473 14.6640538,6.54898261 14.7187411,5.87450491 C14.8098866,5.0359651 15.1380108,4.17919645 15.7031138,3.30419854 C15.8124885,3.12190717 15.9628788,3.02164727 16.1542846,3.00341801 C16.3456904,2.98518874 16.5188669,3.03987611 16.6738146,3.16748012 C16.8287623,3.29508412 16.9062359,3.45914623 16.9062359,3.65966644 Z M16.2499875,15.6908878 C16.9609233,15.6908878 17.6171717,15.5131538 18.2187328,15.1576859 C18.8202939,14.802218 19.2988083,14.3237035 19.6542762,13.7221425 C20.0097441,13.1205814 20.1874781,12.4643329 20.1874781,11.7533971 C20.1874781,11.1336068 20.0781034,10.5593894 19.8593539,10.030745 C19.6588337,9.59324604 19.376282,9.15574709 19.0116996,8.71824813 C18.7929502,8.44481128 18.4329248,8.06655712 17.9316241,7.58348521 C17.4303233,7.10041331 17.070298,6.72215914 16.8515485,6.44872229 C16.4869662,6.0294526 16.2135294,5.61018249 16.031238,5.19091279 C15.8671759,5.81070312 15.8945196,6.44872229 16.1132691,7.10497073 C16.2408731,7.48778231 16.5143099,8.03465601 16.9335796,8.74559182 C17.2252457,9.21954888 17.4166515,9.57501678 17.507797,9.81199552 C17.6900884,10.1948071 17.7812338,10.550275 17.7812338,10.8783992 C17.7812338,11.5346477 17.5442551,12.0997506 17.070298,12.5737077 C16.596341,13.0476648 16.031238,13.2846435 15.3749896,13.2846435 C14.7187411,13.2846435 14.1536382,13.0476648 13.6796811,12.5737077 C13.205724,12.0997506 12.9687453,11.5346477 12.9687453,10.8783992 L12.9687453,9.34715288 C12.7682251,9.65704784 12.60872,10.0353024 12.4902308,10.4819158 C12.3717417,10.9285292 12.3124969,11.3523563 12.3124969,11.7533971 C12.3124969,12.4643329 12.4902308,13.1205814 12.8456987,13.7221425 C13.2011666,14.3237035 13.6796811,14.802218 14.2812422,15.1576859 C14.8828032,15.5131538 15.5390517,15.6908878 16.2499875,15.6908878 Z" id="fire"></path>
            </g>
        </g>
    </g>
</svg>