<?xml version="1.0" encoding="UTF-8"?>
<svg width="12px" height="14px" viewBox="0 0 12 14" version="1.1" xmlns="http://www.w3.org/2000/svg" xmlns:xlink="http://www.w3.org/1999/xlink">
    <!-- Generator: Sketch 52.5 (67469) - http://www.bohemiancoding.com/sketch -->
    <title>Hourglass</title>
    <desc>Created with Sketch.</desc>
    <g id="Page-1" stroke="none" stroke-width="1" fill="none" fill-rule="evenodd">
        <g id="View-Properties-Page@2x-Copy-3" transform="translate(-589.000000, -448.000000)" fill="#FFFFFF" fill-rule="nonzero">
            <g id="Group-5-Copy" transform="translate(558.000000, 269.000000)">
                <g id="pexels-photo-449461">
                    <g transform="translate(1.000000, 1.000000)" id="Group-14">
                        <g transform="translate(19.000000, 175.000000)">
                            <path d="M20.372187,4.51817657 L20.372187,6.90363531 C20.372187,6.9694172 20.3496826,7.03173687 20.3115984,7.08020773 L19.7230237,7.96133872 L18.9042123,9.18695903 L20.3237161,11.3127525 C20.356607,11.3612233 20.372187,11.4148875 20.372187,11.4702827 L20.372187,15.3496826 L22.7005193,15.3496826 C22.8667051,15.3496826 23,15.4847086 23,15.6491633 L23,16.5874207 C23,16.7518754 22.8667051,16.8869013 22.7005193,16.8869013 L11.2994807,16.8869013 C11.1332949,16.8869013 11,16.7518754 11,16.5874207 L11,15.6491633 C11,15.4847086 11.1332949,15.3496826 11.2994807,15.3496826 L13.627813,15.3496826 L13.627813,11.4702827 C13.627813,11.3040969 14.9001731,9.47951529 15.0957877,9.18695903 L14.2769763,7.96133872 L13.6762839,7.06116561 C13.643393,7.01269475 13.627813,6.95729948 13.627813,6.90363531 L13.627813,4.51817657 L12.4800923,4.51817657 C12.3139065,4.51817657 12.1806117,4.38315061 12.1806117,4.2169648 L12.1806117,3.29948067 C12.1806117,3.13502597 12.3139065,3 12.4800923,3 L21.5199077,3 C21.6860935,3 21.8193883,3.13502597 21.8193883,3.29948067 L21.8193883,4.2169648 C21.8193883,4.38315061 21.6860935,4.51817657 21.5199077,4.51817657 L20.372187,4.51817657 Z M19.8026544,4.51817657 L14.1973456,4.51817657 L14.1973456,6.81881131 L14.7495672,7.64454703 L15.6722447,9.02423543 C15.7362954,9.11771495 15.7414887,9.2440854 15.6739758,9.34448932 L14.1973456,11.5551068 L14.1973456,15.2925563 L14.7391806,15.2925563 L14.7391806,11.6243508 L15.1788806,10.8661281 L15.7639931,9.85862666 L18.2360069,9.85862666 L18.8211194,10.8661281 L19.2608194,11.6243508 L19.2608194,15.2925563 L19.8026544,15.2925563 L19.8026544,11.5551068 L18.3277553,9.34795153 C18.2637046,9.25447201 18.2585113,9.12810156 18.3260242,9.02769763 L19.2504328,7.64454703 L19.8026544,6.81881131 L19.8026544,4.51817657 Z" id="Hourglass"></path>
                        </g>
                    </g>
                </g>
            </g>
        </g>
    </g>
</svg>