<?xml version="1.0" encoding="UTF-8"?>
<svg width="16px" height="16px" viewBox="0 0 16 16" version="1.1" xmlns="http://www.w3.org/2000/svg" xmlns:xlink="http://www.w3.org/1999/xlink">
    <!-- Generator: Sketch 55.2 (78181) - https://sketchapp.com -->
    <title>icn-interior</title>
    <desc>Created with Sketch.</desc>
    <g id="Property-Details" stroke="none" stroke-width="1" fill="none" fill-rule="evenodd">
        <g id="Property-Details_lg" transform="translate(-579.000000, -952.000000)" fill="#4F9891" fill-rule="nonzero">
            <g id="Group-12" transform="translate(561.000000, 934.000000)">
                <g id="Rectangle-Copy-5">
                    <g id="icn-interior" transform="translate(18.000000, 18.000000)">
                        <g id="Group">
                            <path d="M15.5333333,4.63333333 L8.45,0.166666667 C8.16666667,-6.9388939e-18 7.83333333,-6.9388939e-18 7.55,0.166666667 L0.466666667,4.63333333 C0.15,4.83333333 -1.38777878e-17,5.21666667 0.116666667,5.56666667 C0.216666667,5.91666667 0.55,6.16666667 0.916666667,6.16666667 L1.93333333,6.16666667 L1.93333333,14.8333333 C1.93333333,15.0833333 2.13333333,15.2833333 2.38333333,15.2833333 L13.6333333,15.2833333 C13.8833333,15.2833333 14.0833333,15.0833333 14.0833333,14.8333333 L14.0833333,6.16666667 L15.1,6.16666667 C15.4666667,6.16666667 15.8,5.91666667 15.9,5.56666667 C15.9833333,5.2 15.8333333,4.81666667 15.5333333,4.63333333 Z M12.25,13.0166667 C12.25,13.2666667 12.05,13.4666667 11.8,13.4666667 L4.2,13.4666667 C3.95,13.4666667 3.75,13.2666667 3.75,13.0166667 L3.75,6.16666667 L12.25,6.16666667 L12.25,13.0166667 Z" id="Shape"></path>
                            <path d="M7.25,9.8 L7.25,9.85 L8.73333333,9.85 L8.73333333,9.8 C8.73333333,9.15 9.25,8.63333333 9.9,8.63333333 C9.93333333,8.63333333 9.95,8.63333333 9.98333333,8.63333333 L9.98333333,8.63333333 C9.98333333,8.15 9.58333333,7.75 9.1,7.75 L6.88333333,7.75 C6.4,7.75 6,8.13333333 6,8.63333333 L6,8.63333333 C6.01666667,8.63333333 6.05,8.63333333 6.08333333,8.63333333 C6.73333333,8.63333333 7.25,9.15 7.25,9.8 Z" id="Path"></path>
                            <path d="M5.7,12.05 L10.2833333,12.05 C10.4333333,12.05 10.5666667,11.9166667 10.5666667,11.7666667 L10.5666667,9.8 C10.5666667,9.41666667 10.2666667,9.13333333 9.9,9.13333333 C9.53333333,9.13333333 9.23333333,9.43333333 9.23333333,9.8 L9.23333333,10.2166667 C9.23333333,10.2833333 9.18333333,10.35 9.1,10.35 L6.9,10.35 C6.81666667,10.35 6.76666667,10.2833333 6.76666667,10.2166667 L6.76666667,9.8 C6.76666667,9.41666667 6.46666667,9.13333333 6.1,9.13333333 C5.73333333,9.13333333 5.43333333,9.43333333 5.43333333,9.8 L5.43333333,11.7666667 C5.41666667,11.9166667 5.55,12.05 5.7,12.05 Z" id="Path"></path>
                        </g>
                    </g>
                </g>
            </g>
        </g>
    </g>
</svg>