<?xml version="1.0" encoding="UTF-8"?>
<svg width="11px" height="9px" viewBox="0 0 11 9" version="1.1" xmlns="http://www.w3.org/2000/svg" xmlns:xlink="http://www.w3.org/1999/xlink">
    <!-- Generator: Sketch 55.2 (78181) - https://sketchapp.com -->
    <title>icn-check</title>
    <desc>Created with Sketch.</desc>
    <g id="Property-Details" stroke="none" stroke-width="1" fill="none" fill-rule="evenodd">
        <g id="Timeline_lg" transform="translate(-307.000000, -1425.000000)" fill="#4F6198">
            <g id="Group-18" transform="translate(297.000000, 1417.000000)">
                <path d="M19.9893719,8.00044328 C19.7339877,8.00895192 19.4919969,8.11675133 19.3148623,8.30091644 C17.4144701,10.2054175 15.6810364,12.0787881 13.8452029,13.9483815 L11.5947937,12.1517431 C11.3209538,11.9326712 10.9510419,11.8763322 10.6244002,12.0039485 C10.2977584,12.1315648 10.0640115,12.4237485 10.0112096,12.7704367 C9.95840772,13.1171249 10.0945728,13.4656475 10.3684126,13.6847194 L13.3117271,16.039371 C13.7023224,16.3509752 14.2646985,16.3192921 14.6178229,15.9657881 C16.7310207,13.8480537 18.627826,11.7640497 20.7006729,9.68672701 C20.9920726,9.40507996 21.0803363,8.97326089 20.9228288,8.59985729 C20.7653213,8.22645369 20.394454,7.98830334 19.9893719,8.00044328 L19.9893719,8.00044328 Z" id="icn-check"></path>
            </g>
        </g>
    </g>
</svg>