<?xml version="1.0" encoding="UTF-8"?>
<svg width="13px" height="16px" viewBox="0 0 13 16" version="1.1" xmlns="http://www.w3.org/2000/svg" xmlns:xlink="http://www.w3.org/1999/xlink">
    <!-- Generator: Sketch 55.2 (78181) - https://sketchapp.com -->
    <title>icn-appliance</title>
    <desc>Created with Sketch.</desc>
    <g id="Property-Details" stroke="none" stroke-width="1" fill="none" fill-rule="evenodd">
        <g id="Property-Details_lg" transform="translate(-580.000000, -1194.000000)" fill="#4F9891" fill-rule="nonzero">
            <g id="Group-17" transform="translate(560.000000, 1177.000000)">
                <g id="icn-appliance" transform="translate(20.000000, 17.000000)">
                    <path d="M11.1515152,14.8121212 L6.86060606,14.8121212 C6.64242424,14.8121212 6.47272727,14.6424242 6.47272727,14.4242424 L6.47272727,12.6787879 C6.47272727,12.4606061 6.64242424,12.2909091 6.86060606,12.2909091 L11.1515152,12.2909091 C11.369697,12.2909091 11.5393939,12.4606061 11.5393939,12.6787879 L11.5393939,14.4242424 C11.5393939,14.6424242 11.369697,14.8121212 11.1515152,14.8121212 Z" id="Path"></path>
                    <g id="Group" transform="translate(5.090909, 8.484848)">
                        <path d="M7.2969697,0.0727272727 L0.557575758,0.0727272727 C0.363636364,0.0727272727 0.218181818,0.218181818 0.218181818,0.412121212 L0.218181818,2.3030303 L7.63636364,2.3030303 L7.63636364,0.412121212 C7.63636364,0.218181818 7.49090909,0.0727272727 7.2969697,0.0727272727 Z M1.43030303,1.64848485 C1.21212121,1.64848485 1.01818182,1.45454545 1.01818182,1.23636364 C1.01818182,1.01818182 1.21212121,0.824242424 1.43030303,0.824242424 C1.64848485,0.824242424 1.84242424,1.01818182 1.84242424,1.23636364 C1.84242424,1.47878788 1.67272727,1.64848485 1.43030303,1.64848485 Z M3.07878788,1.64848485 C2.86060606,1.64848485 2.66666667,1.45454545 2.66666667,1.23636364 C2.66666667,1.01818182 2.86060606,0.824242424 3.07878788,0.824242424 C3.2969697,0.824242424 3.49090909,1.01818182 3.49090909,1.23636364 C3.49090909,1.47878788 3.32121212,1.64848485 3.07878788,1.64848485 Z M4.67878788,1.64848485 C4.46060606,1.64848485 4.26666667,1.45454545 4.26666667,1.23636364 C4.26666667,1.01818182 4.46060606,0.824242424 4.67878788,0.824242424 C4.8969697,0.824242424 5.09090909,1.01818182 5.09090909,1.23636364 C5.09090909,1.47878788 4.92121212,1.64848485 4.67878788,1.64848485 Z M6.4,1.64848485 C6.18181818,1.64848485 5.98787879,1.45454545 5.98787879,1.23636364 C5.98787879,1.01818182 6.18181818,0.824242424 6.4,0.824242424 C6.61818182,0.824242424 6.81212121,1.01818182 6.81212121,1.23636364 C6.81212121,1.47878788 6.64242424,1.64848485 6.4,1.64848485 Z" id="Shape"></path>
                        <path d="M0.218181818,7.05454545 C0.218181818,7.24848485 0.363636364,7.39393939 0.557575758,7.39393939 L7.2969697,7.39393939 C7.49090909,7.39393939 7.63636364,7.24848485 7.63636364,7.05454545 L7.63636364,2.69090909 L0.218181818,2.69090909 L0.218181818,7.05454545 Z M1.01818182,3.68484848 C1.01818182,3.56363636 1.11515152,3.44242424 1.26060606,3.44242424 L6.56969697,3.44242424 C6.69090909,3.44242424 6.81212121,3.53939394 6.81212121,3.68484848 L6.81212121,6.42424242 C6.81212121,6.54545455 6.71515152,6.66666667 6.56969697,6.66666667 L1.26060606,6.66666667 C1.13939394,6.66666667 1.01818182,6.56969697 1.01818182,6.42424242 L1.01818182,3.68484848 Z" id="Shape"></path>
                    </g>
                    <path d="M8.38787879,7.24848485 L8.84848485,7.24848485 C8.8969697,7.24848485 8.94545455,7.2969697 8.94545455,7.34545455" id="Path"></path>
                    <rect id="Rectangle" x="6.10909091" y="11.9515152" width="5.79393939" height="1"></rect>
                    <path d="M8.77575758,0.121212121 L0.387878788,0.121212121 C0.218181818,0.121212121 0.0727272727,0.266666667 0.0727272727,0.436363636 L0.0727272727,15.3454545 C0.0727272727,15.5151515 0.218181818,15.6606061 0.387878788,15.6606061 L4.94545455,15.6606061 L4.94545455,8.43636364 C4.94545455,8.43636364 4.94545455,8.43636364 4.94545455,8.41212121 C4.94545455,8.41212121 4.94545455,8.41212121 4.94545455,8.38787879 L4.94545455,8.24242424 C4.94545455,8.19393939 4.99393939,8.14545455 5.04242424,8.14545455 L9.09090909,8.14545455 L9.09090909,0.436363636 C9.09090909,0.266666667 8.94545455,0.121212121 8.77575758,0.121212121 Z M1.11515152,1.35757576 C1.11515152,1.26060606 1.18787879,1.21212121 1.26060606,1.21212121 L1.38181818,1.21212121 C1.47878788,1.21212121 1.52727273,1.28484848 1.52727273,1.35757576 L1.52727273,3.85454545 C1.52727273,3.95151515 1.45454545,4 1.38181818,4 L1.26060606,4 C1.16363636,4 1.11515152,3.92727273 1.11515152,3.85454545 L1.11515152,1.35757576 Z M1.52727273,8.75151515 C1.52727273,8.82424242 1.47878788,8.8969697 1.38181818,8.8969697 L1.23636364,8.8969697 C1.16363636,8.8969697 1.09090909,8.84848485 1.09090909,8.75151515 L1.09090909,6.20606061 C1.09090909,6.13333333 1.13939394,6.06060606 1.23636364,6.06060606 L1.38181818,6.06060606 C1.45454545,6.06060606 1.52727273,6.10909091 1.52727273,6.20606061 L1.52727273,8.75151515 Z M8.16969697,5.11515152 C8.16969697,5.18787879 8.12121212,5.23636364 8.04848485,5.23636364 L1.11515152,5.23636364 C1.04242424,5.23636364 0.993939394,5.18787879 0.993939394,5.11515152 L0.993939394,4.94545455 C0.993939394,4.87272727 1.04242424,4.82424242 1.11515152,4.82424242 L8.04848485,4.82424242 C8.12121212,4.82424242 8.16969697,4.87272727 8.16969697,4.94545455 L8.16969697,5.11515152 Z" id="Shape"></path>
                </g>
            </g>
        </g>
    </g>
</svg>