<?xml version="1.0" encoding="UTF-8"?>
<svg width="56px" height="56px" viewBox="0 0 56 56" version="1.1" xmlns="http://www.w3.org/2000/svg" xmlns:xlink="http://www.w3.org/1999/xlink">
    <!-- Generator: Sketch 55.2 (78181) - https://sketchapp.com -->
    <title>icn-quote</title>
    <desc>Created with Sketch.</desc>
    <g id="Property-Details" stroke="none" stroke-width="1" fill="none" fill-rule="evenodd">
        <g id="Details-page\-Copy-8" transform="translate(-1046.000000, -1201.000000)" fill="#4F9891">
            <g id="Group-6" transform="translate(208.000000, 978.000000)">
                <g id="Group-36" transform="translate(706.000000, 163.000000)">
                    <g id="Group-35">
                        <g id="icn-quote" transform="translate(132.000000, 60.000000)">
                            <circle id="Oval" opacity="0.100000001" cx="28" cy="28" r="28"></circle>
                            <g id="Group-34" transform="translate(12.000000, 17.000000)">
                                <path d="M7.48235294,0 C3.35294118,0 0,3.30899803 0,7.41912189 C0,11.2854248 3,14.4202651 6.81176471,14.7685807 C6.03529412,16.161843 4.62352941,17.6596 2.22352941,19.0876939 C1.55294118,19.470841 1.12941176,20.1674722 1.12941176,20.8989349 C1.12941176,22.3966919 2.68235294,23.4416387 4.09411765,22.8146706 C8.18823529,21.0034296 15,16.5798217 15,7.41912189 C15,3.30899803 11.6470588,0 7.48235294,0 Z" id="Path"></path>
                                <path d="M25.7840637,0 C21.7487608,0 18.5,3.30899803 18.5,7.41912189 C18.5,11.2854248 21.406786,14.4202651 25.1001141,14.7685807 C24.3477695,16.161843 22.9798702,17.6596 20.6544414,19.0876939 C20.0046892,19.470841 19.5943194,20.1674722 19.5943194,20.8989349 C19.5943194,22.3966919 21.0990087,23.4416387 22.4669079,22.8146706 C26.3996184,21.0034296 32.9997325,16.6146533 32.9997325,7.41912189 C33.03393,3.30899803 29.7851691,0 25.7840637,0 Z" id="Path"></path>
                            </g>
                        </g>
                    </g>
                </g>
            </g>
        </g>
    </g>
</svg>