<?xml version="1.0" encoding="UTF-8"?>
<svg width="10px" height="10px" viewBox="0 0 10 10" version="1.1" xmlns="http://www.w3.org/2000/svg" xmlns:xlink="http://www.w3.org/1999/xlink">
    <!-- Generator: Sketch 55.2 (78181) - https://sketchapp.com -->
    <title>icn-calendar</title>
    <desc>Created with Sketch.</desc>
    <g id="Property-Details" stroke="none" stroke-width="1" fill="none" fill-rule="evenodd">
        <g id="Timeline_lg" transform="translate(-436.000000, -1425.000000)" fill="#4F9891">
            <g id="Group-18" transform="translate(297.000000, 1417.000000)">
                <g id="Group-11" transform="translate(139.000000, 5.000000)">
                    <g id="icn-calendar" transform="translate(0.000000, 3.000000)">
                        <path d="M9.58333333,1.21875 C9.34375,0.979166667 9.03125,0.854166667 8.69791667,0.854166667 L7.83333333,0.854166667 L7.83333333,0.541666667 C7.83333333,0.28125 7.61458333,0.0625 7.35416667,0.0625 L7.01041667,0.0625 C6.75,0.0625 6.53125,0.28125 6.53125,0.541666667 L6.53125,0.854166667 L3.46875,0.854166667 L3.46875,0.541666667 C3.46875,0.28125 3.25,0.0625 2.98958333,0.0625 L2.64583333,0.0625 C2.38541667,0.0625 2.16666667,0.28125 2.16666667,0.541666667 L2.16666667,0.854166667 L1.3125,0.854166667 C0.614583333,0.854166667 0.0520833333,1.41666667 0.0520833333,2.11458333 L0.0520833333,8.48958333 C0.0520833333,9.1875 0.614583333,9.75 1.3125,9.75 L7.01041667,9.75 C7.35416667,9.75 7.69791667,9.60416667 7.9375,9.36458333 L9.55208333,7.75 C9.80208333,7.5 9.9375,7.16666667 9.9375,6.82291667 L9.9375,2.125 C9.94791667,1.77083333 9.8125,1.45833333 9.58333333,1.21875 Z M0.833333333,8.47916667 L0.833333333,3.38541667 L9.16666667,3.38541667 L9.16666667,6.57291667 L7.66666667,6.57291667 C7.17708333,6.57291667 6.78125,6.96875 6.78125,7.45833333 L6.78125,8.95833333 L1.3125,8.95833333 C1.05208333,8.95833333 0.833333333,8.73958333 0.833333333,8.47916667 Z" id="Shape"></path>
                    </g>
                </g>
            </g>
        </g>
    </g>
</svg>