<?xml version="1.0" encoding="UTF-8"?>
<svg width="16px" height="16px" viewBox="0 0 16 16" version="1.1" xmlns="http://www.w3.org/2000/svg" xmlns:xlink="http://www.w3.org/1999/xlink">
    <!-- Generator: Sketch 55.2 (78181) - https://sketchapp.com -->
    <title>icn-construct</title>
    <desc>Created with Sketch.</desc>
    <g id="Property-Details" stroke="none" stroke-width="1" fill="none" fill-rule="evenodd">
        <g id="Property-Details_lg" transform="translate(-932.000000, -952.000000)" fill="#4F9891" fill-rule="nonzero">
            <g id="Group-18" transform="translate(912.000000, 934.000000)">
                <g id="Rectangle-Copy-7">
                    <g id="icn-construct" transform="translate(20.000000, 18.000000)">
                        <path d="M15.5063291,9.17721519 L15.1898734,9.17721519 L15.1898734,6.32911392 C15.1898734,6.15434027 15.0481914,6.01265823 14.8734177,6.01265823 C14.6986441,6.01265823 14.556962,6.15434027 14.556962,6.32911392 L14.556962,7.91139241 L13.6075949,7.91139241 L13.6075949,7.27848101 C13.6075949,7.10370736 13.4659129,6.96202532 13.2911392,6.96202532 C13.1163656,6.96202532 12.9746835,7.10370736 12.9746835,7.27848101 L12.9746835,7.91139241 L12.0253165,7.91139241 L12.0253165,6.96202532 C12.0253165,6.78725166 11.8836344,6.64556962 11.7088608,6.64556962 C11.5340871,6.64556962 11.3924051,6.78725166 11.3924051,6.96202532 L11.3924051,9.81012658 L10.443038,9.81012658 L10.443038,9.17721519 C10.443038,9.00244153 10.3013559,8.86075949 10.1265823,8.86075949 C9.95180862,8.86075949 9.81012658,9.00244153 9.81012658,9.17721519 L9.81012658,9.81012658 L8.86075949,9.81012658 L8.86075949,8.5443038 C8.86075949,8.36953014 8.71907745,8.2278481 8.5443038,8.2278481 C8.36953014,8.2278481 8.2278481,8.36953014 8.2278481,8.5443038 L8.2278481,11.0759494 L7.91139241,11.0759494 C7.73661875,11.0759494 7.59493671,11.2176314 7.59493671,11.3924051 L7.59493671,15.5063291 C7.59493671,15.6811028 7.73661875,15.8227848 7.91139241,15.8227848 L15.5063291,15.8227848 C15.6811028,15.8227848 15.8227848,15.6811028 15.8227848,15.5063291 L15.8227848,9.49367089 C15.8227848,9.31889723 15.6811028,9.17721519 15.5063291,9.17721519 Z M9.81012658,11.0759494 L8.86075949,11.0759494 L8.86075949,10.443038 L9.81012658,10.443038 L9.81012658,11.0759494 Z M11.3924051,11.0759494 L10.443038,11.0759494 L10.443038,10.443038 L11.3924051,10.443038 L11.3924051,11.0759494 Z M12.9746835,9.17721519 L12.0253165,9.17721519 L12.0253165,8.5443038 L12.9746835,8.5443038 L12.9746835,9.17721519 Z M14.556962,9.17721519 L13.6075949,9.17721519 L13.6075949,8.5443038 L14.556962,8.5443038 L14.556962,9.17721519 Z" id="Shape"></path>
                        <path d="M10.7594937,7.59493671 L10.7594937,6.32911392 C10.7594937,6.15434027 10.6178116,6.01265823 10.443038,6.01265823 L8.5443038,6.01265823 L8.5443038,4.11392405 L14.556962,4.11392405 C14.7317357,4.11392405 14.8734184,3.97224201 14.8734184,3.79746835 L14.8734184,3.16455696 C14.8736641,3.04608964 14.8077214,2.93740622 14.7025316,2.88291139 L12.8575949,1.9335443 C12.8125533,1.91046778 12.7626339,1.89853054 12.7120253,1.89873418 L4.57594937,1.89873418 L3.43037975,0.142405063 C3.37153993,0.0530551969 3.27153946,-0.000516482383 3.16455696,-3.7008737e-06 L2.53164557,-3.7008737e-06 C2.35687191,-3.7008737e-06 2.21518987,0.141682041 2.21518987,0.316455696 L2.21518987,1.89873418 L1.24050633,1.89873418 C1.1548374,1.89823382 1.07262604,1.93248856 1.01265823,1.99367089 L0.0886075949,2.94303797 C0.0313021684,3.00248942 -0.000496037083,3.08198493 -5.71739668e-06,3.16455696 L-5.71739668e-06,3.79746835 C-5.71739668e-06,3.97224201 0.141682041,4.11392405 0.316455696,4.11392405 L2.21518987,4.11392405 L2.21518987,13.6075949 L1.58227848,13.6075949 C1.40750483,13.6075949 1.26582278,13.749277 1.26582278,13.9240506 L1.26582278,15.5063291 C1.26582278,15.6811028 1.40750483,15.8227848 1.58227848,15.8227848 L5.37974684,15.8227848 C5.55452049,15.8227848 5.69620253,15.6811028 5.69620253,15.5063291 L5.69620253,13.9240506 C5.69620253,13.749277 5.55452049,13.6075949 5.37974684,13.6075949 L4.74683544,13.6075949 L4.74683544,4.11392405 L7.91139241,4.11392405 L7.91139241,6.01265823 L6.01265823,6.01265823 C5.83788457,6.01265823 5.69620253,6.15434027 5.69620253,6.32911392 L5.69620253,7.59493671 C5.69620253,7.76971036 5.83788457,7.91139241 6.01265823,7.91139241 L10.443038,7.91139241 C10.6178116,7.91139241 10.7594937,7.76971036 10.7594937,7.59493671 Z M3.98417722,4.11392405 L2.84810127,5.25 L2.84810127,4.11392405 L3.98417722,4.11392405 Z M3.98417722,7.91139241 L2.84810127,9.04746835 L2.84810127,6.77531646 L3.98417722,7.91139241 Z M2.84810127,0.632911392 L2.99367089,0.632911392 L3.81962025,1.89873418 L2.84810127,1.89873418 L2.84810127,0.632911392 Z M2.84810127,10.5727848 L3.98417722,11.7088608 L2.84810127,12.8449367 L2.84810127,10.5727848 Z M4.11392405,13.6075949 L2.9778481,13.6075949 L4.11392405,12.471519 L4.11392405,13.6075949 Z M4.11392405,10.9462025 L2.9778481,9.81012658 L4.11392405,8.67405063 L4.11392405,10.9462025 Z M4.11392405,7.14873418 L2.9778481,6.01265823 L4.11392405,4.87658228 L4.11392405,7.14873418 Z" id="Shape"></path>
                    </g>
                </g>
            </g>
        </g>
    </g>
</svg>