<?xml version="1.0" encoding="UTF-8"?>
<svg width="25px" height="26px" viewBox="0 0 25 26" version="1.1" xmlns="http://www.w3.org/2000/svg" xmlns:xlink="http://www.w3.org/1999/xlink">
    <!-- Generator: Sketch 55.2 (78181) - https://sketchapp.com -->
    <title>icn-moneybag</title>
    <desc>Created with Sketch.</desc>
    <g id="Property-Details" stroke="none" stroke-width="1" fill="none" fill-rule="evenodd">
        <g id="Offer-details__lg" transform="translate(-713.000000, -1106.000000)" fill="#4F9891">
            <g id="Group-6" transform="translate(210.000000, 858.000000)">
                <g id="Pie-chart" transform="translate(380.000000, 152.000000)">
                    <g id="icn-moneybag" transform="translate(123.692800, 96.131200)">
                        <g id="Group">
                            <path d="M16.1785317,0.03621024 C16.1785317,1.04040288 13.9598693,3.04736256 11.0463717,3.04764768 C8.1331639,3.04764768 5.91450146,1.04040288 5.91450146,0.03621024 C5.91450146,0.02252448 5.91479122,0.01054944 5.91537073,-5.90860694e-13 L16.1776624,-5.90860694e-13 C16.178242,0.01054944 16.1785317,0.0228096 16.1785317,0.03621024 Z M7.41167122,4.17330144 L14.681362,4.17330144 C14.8789756,4.17330144 15.0455854,4.43874816 15.0455854,4.7529504 L15.0455854,5.45092416 C15.0455854,5.7651264 14.8786859,6.03057312 14.681362,6.03057312 L7.41167122,6.03057312 C7.21463707,6.03057312 7.04773756,5.7651264 7.04773756,5.45092416 L7.04773756,4.7529504 C7.04773756,4.43874816 7.21463707,4.17330144 7.41167122,4.17330144 Z M12.6843629,20.8194624 C12.9129805,20.8194624 13.1688351,21.1293878 13.1688351,21.5442374 C13.1688351,21.9588019 12.9129805,22.2687274 12.6843629,22.2687274 L5.51579707,22.2687274 C5.28717951,22.2687274 5.03132488,21.9588019 5.03132488,21.5442374 C5.03132488,21.1293878 5.28717951,20.8194624 5.51579707,20.8194624 L12.6843629,20.8194624 Z M12.6843629,17.4276749 C12.9129805,17.4276749 13.1688351,17.7373152 13.1688351,18.1521648 C13.1688351,18.5670144 12.9129805,18.8769398 12.6843629,18.8769398 L5.51579707,18.8769398 C5.28717951,18.8769398 5.03132488,18.5670144 5.03132488,18.1521648 C5.03132488,17.7376003 5.28717951,17.4276749 5.51579707,17.4276749 L12.6843629,17.4276749 Z M12.6843629,24.211535 C12.9129805,24.211535 13.1691249,24.5211754 13.1691249,24.936025 C13.1691249,25.3508746 12.9132702,25.6608 12.6846527,25.6608 L5.51608683,25.6608 C5.28746927,25.6608 5.03132488,25.3511597 5.03132488,24.9363101 C5.03132488,24.5214605 5.28717951,24.211535 5.51579707,24.211535 L12.6843629,24.211535 Z M14.3316263,22.2293808 C14.4718683,22.6544947 14.7375746,23.0100394 15.0786176,23.2401312 C14.7375746,23.470223 14.4718683,23.8260528 14.3316263,24.2508816 C14.1913844,23.8257677 13.925678,23.470223 13.5846351,23.2401312 C13.925678,23.0100394 14.1913844,22.6542096 14.3316263,22.2293808 Z M23.1471659,20.8194624 C23.3757834,20.8194624 23.631638,21.1293878 23.631638,21.5442374 C23.631638,21.9588019 23.3757834,22.2687274 23.1471659,22.2687274 L15.9786,22.2687274 C15.7499824,22.2687274 15.4941278,21.9588019 15.4941278,21.5442374 C15.4941278,21.1293878 15.7499824,20.8194624 15.9786,20.8194624 L23.1471659,20.8194624 Z M13.5718859,16.4474323 C14.0943161,16.1189741 14.4426029,15.5444573 14.4423132,14.890392 L14.4423132,14.6300774 C14.4423132,13.6110586 13.5999922,12.7822147 12.5646937,12.7822147 L5.63546634,12.7822147 C4.6001678,12.7822147 3.75784683,13.6113437 3.75784683,14.6300774 L3.75784683,14.890392 C3.75784683,15.5444573 4.1058439,16.1189741 4.6285639,16.4474323 C4.10874146,16.7915722 3.75784683,17.4259642 3.75784683,18.1521648 C3.75784683,18.872663 4.10294634,19.5024931 4.61581463,19.8483437 C4.10294634,20.1944794 3.75784683,20.8240243 3.75784683,21.5445226 C3.75784683,22.2647357 4.10294634,22.8945658 4.61581463,23.2404163 C4.37879415,23.4003686 4.17799317,23.6207664 4.03021756,23.883647 C1.86139317,22.7922077 0.128361951,20.8810483 0.128361951,17.5551235 C0.128361951,13.4639366 2.82801951,9.00751104 6.86692976,7.1037648 C7.0520839,7.17590016 7.25230537,7.21866816 7.46295805,7.21866816 L14.6306546,7.21866816 C14.8413073,7.21866816 15.0415288,7.17618528 15.2263932,7.1037648 C19.2653034,9.00751104 21.964961,13.4639366 21.964961,17.5551235 C21.964961,18.2944397 21.8751366,18.9601949 21.7180888,19.56636 L15.9791795,19.56636 C15.2237854,19.56636 14.5805268,20.105807 14.3319161,20.8590941 C14.1916741,20.4339802 13.9259678,20.0784355 13.5849249,19.8483437 C14.0977932,19.502208 14.4428927,18.872663 14.4428927,18.1521648 C14.4428927,17.425679 14.091998,16.791287 13.5718859,16.4474323 Z M23.1471659,24.211535 C23.3757834,24.211535 23.631638,24.5211754 23.631638,24.936025 C23.631638,25.3508746 23.3757834,25.6608 23.1471659,25.6608 L15.9786,25.6608 C15.7502722,25.6608 15.4941278,25.3511597 15.4941278,24.9363101 C15.4941278,24.5214605 15.7499824,24.211535 15.9786,24.211535 L23.1471659,24.211535 Z M12.5649834,14.0353171 C12.8979132,14.0353171 13.1688351,14.3021894 13.1685456,14.6297923 L13.1685456,14.8901069 C13.1685456,15.2179949 12.8976234,15.4845821 12.5646937,15.4845821 L5.63546634,15.4845821 C5.30253659,15.4845821 5.03161463,15.2179949 5.03161463,14.8901069 L5.03161463,14.6297923 C5.03161463,14.3019043 5.30253659,14.0353171 5.63546634,14.0353171 L12.5649834,14.0353171 Z" id="Combined-Shape"></path>
                        </g>
                    </g>
                </g>
            </g>
        </g>
    </g>
</svg>