<svg width="19px" height="12px" viewBox="0 0 19 12" version="1.1" xmlns="http://www.w3.org/2000/svg"
  xmlns:xlink="http://www.w3.org/1999/xlink">
  <!-- Generator: Sketch 55.2 (78181) - https://sketchapp.com -->
  <title>Show-icon</title>
  <desc>Created with Sketch.</desc>
  <g id="Property-Listing" stroke="none" stroke-width="1" fill="none" fill-rule="evenodd">
    <g id="Filters-2-Copy" transform="translate(-122.000000, -443.000000)" fill="#F59E51" fill-rule="nonzero">
      <g id="Group-6" transform="translate(122.000000, 441.000000)">
        <g id="Group-9">
          <path
            d="M9.58823529,2 C5.15635294,2 2.34705882,4.49741176 0.247058824,8 C2.34529412,11.4994118 5.15282353,14 9.58823529,14 C14.0204706,14 16.8294118,11.5025882 18.9294118,8 C16.8308235,4.50058824 14.0236471,2 9.58823529,2 Z M5,8 C5,5.45882353 7.04705882,3.41176471 9.58823529,3.41176471 C12.1294118,3.41176471 14.1764706,5.45882353 14.1764706,8 C14.1764706,10.5411765 12.1294118,12.5882353 9.58823529,12.5882353 C7.04705882,12.5882353 5,10.5411765 5,8 Z M11.7058824,8 C11.7058824,9.16470588 10.7529412,10.1176471 9.58823529,10.1176471 C8.42352941,10.1176471 7.47058824,9.16470588 7.47058824,8 C7.47058824,6.83529412 8.42352941,5.88235294 9.58823529,5.88235294 C10.7529412,5.88235294 11.7058824,6.83529412 11.7058824,8 Z"
            id="Show-icon"></path>
        </g>
      </g>
    </g>
  </g>
</svg>
