<?xml version="1.0" encoding="UTF-8"?>
<svg width="14px" height="14px" viewBox="0 0 14 14" version="1.1" xmlns="http://www.w3.org/2000/svg" xmlns:xlink="http://www.w3.org/1999/xlink">
    <!-- Generator: Sketch 55.2 (78181) - https://sketchapp.com -->
    <title>icn-general</title>
    <desc>Created with Sketch.</desc>
    <g id="Property-Details" stroke="none" stroke-width="1" fill="none" fill-rule="evenodd">
        <g id="Property-Details_lg" transform="translate(-231.000000, -952.000000)" fill="#4F9891" fill-rule="nonzero">
            <g id="Group-11" transform="translate(210.000000, 934.000000)">
                <g id="icn-general" transform="translate(20.000000, 17.000000)">
                    <path d="M14.5375262,5.75188766 L10.0085366,5.6595122 L8.52105617,1.38071508 C8.43038104,1.11988442 8.14542929,0.981946114 7.88459864,1.07262125 C7.74020141,1.12281948 7.62670304,1.23631785 7.57650481,1.38071508 L6.08902439,5.6595122 L1.56003478,5.75188766 C1.28394982,5.75751883 1.06470371,5.98589486 1.07033487,6.26197981 C1.07345249,6.41483042 1.14632828,6.55785492 1.26815573,6.65021887 L4.87804878,9.38707317 L3.56610771,13.7229394 C3.48613369,13.9872475 3.63556598,14.2663433 3.89987407,14.3463173 C4.04621041,14.3905956 4.20476249,14.3654885 4.33025938,14.2781649 L8.04878049,11.6907317 L11.7672878,14.2783404 C11.9939511,14.4360692 12.3055624,14.3801868 12.4632913,14.1535236 C12.5506213,14.0280265 12.5757326,13.8694707 12.531455,13.7231302 L11.2195122,9.38707317 L14.8294052,6.65021887 C15.0494549,6.48338737 15.0925968,6.1697582 14.9257653,5.94970853 C14.8334013,5.82788107 14.6903768,5.75500528 14.5375262,5.75188766 Z" id="Path"></path>
                </g>
            </g>
        </g>
    </g>
</svg>