<?xml version="1.0" encoding="UTF-8"?>
<svg width="14px" height="14px" viewBox="0 0 14 14" version="1.1" xmlns="http://www.w3.org/2000/svg" xmlns:xlink="http://www.w3.org/1999/xlink">
    <!-- Generator: Sketch 55.2 (78181) - https://sketchapp.com -->
    <title>ico-download</title>
    <desc>Created with Sketch.</desc>
    <g id="Property-Details" stroke="none" stroke-width="1" fill="none" fill-rule="evenodd">
        <g id="Artboard" transform="translate(-36.000000, -148.000000)" fill="#F59E51" fill-rule="nonzero">
            <g id="ico-download" transform="translate(36.000000, 148.000000)">
                <path d="M0.4025,11.1125 L1.155,11.1125 C1.3825,11.1125 1.5575,11.2875 1.5575,11.515 L1.5575,11.9175 C1.5575,12.145 1.7325,12.32 1.96,12.32 L12.04,12.32 C12.2675,12.32 12.4425,12.145 12.4425,11.9175 L12.4425,11.515 C12.4425,11.2875 12.6175,11.1125 12.845,11.1125 L13.5975,11.1125 C13.825,11.1125 14,11.2875 14,11.515 L14,12.355 C14,13.02 13.4575,13.5625 12.7925,13.5625 L1.2075,13.5625 C0.5425,13.5625 0,13.02 0,12.355 L0,11.515 C0,11.2875 0.175,11.1125 0.4025,11.1125 Z M9.1875,6.475 L9.275,6.5625 L9.4675,6.58 L11.7425,6.475 C11.795,6.475 11.8125,6.545 11.8125,6.5975 C11.8125,6.65 11.795,6.7025 11.76,6.7375 L7.175,11.2525 C7.1225,11.2875 7.07,11.305 6.9825,11.305 C6.9125,11.305 6.8425,11.2875 6.79,11.2525 L2.24,6.755 C2.205,6.72 2.1875,6.6675 2.1875,6.615 C2.1875,6.5625 2.205,6.4925 2.2575,6.4925 L4.5325,6.5975 L4.725,6.58 L4.8125,6.4925 L4.8825,0.5425 C4.8825,0.2975 5.285,0.0875 5.7925,0.0875 L8.2075,0.0875 C8.715,0.0875 9.1175,0.2975 9.1175,0.5425 L9.1875,6.475 Z" id="Combined-Shape"></path>
            </g>
        </g>
    </g>
</svg>