<svg width="25px" height="25px" viewBox="0 0 25 25" version="1.1" xmlns="http://www.w3.org/2000/svg"
  xmlns:xlink="http://www.w3.org/1999/xlink">
  <!-- Generator: Sketch 55.2 (78181) - https://sketchapp.com -->
  <title>icn-video</title>
  <desc>Created with Sketch.</desc>
  <g id="Property-Listing" stroke="none" stroke-width="1" fill="none" fill-rule="evenodd">
    <g id="If-not-signed" transform="translate(-25.000000, -675.000000)">
      <g id="Group-3" transform="translate(15.000000, 219.000000)">
        <g id="Group-7" transform="translate(10.000000, 456.000000)">
          <g id="icn-video-">
            <path
              d="M12.5,0.75 C5.9975469,0.75 0.75,5.9975469 0.75,12.5 C0.75,19.0024531 5.9975469,24.25 12.5,24.25 C19.0024531,24.25 24.25,19.0024531 24.25,12.5 C24.25,5.9975469 19.0024531,0.75 12.5,0.75 Z"
              id="Shape" stroke="#10CFBD" stroke-width="1.5"></path>
            <path
              d="M16.6557091,12.7292753 L11.089652,16.5491184 C10.6342859,16.8616245 10.0118024,16.7458137 9.69929617,16.2904475 C9.58499054,16.1238879 9.52380952,15.9266146 9.52380952,15.724605 L9.52380952,8.0849188 C9.52380952,7.53263405 9.97152477,7.0849188 10.5238095,7.0849188 C10.7258192,7.0849188 10.9230924,7.14609982 11.089652,7.26040545 L16.6557091,11.0802486 C17.1110753,11.3927547 17.2268862,12.0152383 16.91438,12.4706044 C16.844795,12.5719997 16.7571044,12.6596903 16.6557091,12.7292753 Z"
              id="Path" fill="#10CFBD"></path>
          </g>
        </g>
      </g>
    </g>
  </g>
</svg>
