<?xml version="1.0" encoding="UTF-8"?>
<svg width="134px" height="113px" viewBox="0 0 134 113" version="1.1" xmlns="http://www.w3.org/2000/svg" xmlns:xlink="http://www.w3.org/1999/xlink">
    <!-- Generator: Sketch 52.4 (67378) - http://www.bohemiancoding.com/sketch -->
    <title>Images</title>
    <desc>Created with Sketch.</desc>
    <defs>
        <path d="M92.7149436,39.7838922 C69.0148103,25.6283427 57.8282154,-17.8611569 21.2407179,8.1271335 C-15.3460923,34.1147447 -0.175230769,87.5087822 34.886041,100.421425 C69.9473128,113.334068 115.055836,106.039634 127.750103,82.0515401 C149.440923,41.061437 108.612841,49.2795615 92.7149436,39.7838922" id="path-1"></path>
        <path d="M35.7494574,19.7635294 L3.63345736,14.1752941 C1.3188062,12.8623529 -0.115302326,11.18 0.275348837,9.01764706 L0.304604651,8.87411765 C0.823751938,6.57882353 4.61151938,4.84411765 6.19190698,4.09764706 C12.0918295,1.31117647 18.3887132,0.385882353 24.6936279,0.385882353 C28.1624496,0.385882353 31.6347132,0.665882353 35.042155,1.07117647 C35.232031,1.09411765 35.421907,1.11705882 35.6117829,1.14 C36.8393798,1.29117647 38.0790233,1.34823529 39.3266977,1.34823529 C41.2157054,1.34823529 43.1224961,1.21764706 45.0310078,1.08764706 C46.9395194,0.957058824 48.8497519,0.827058824 50.7462171,0.827058824 C51.3003566,0.827058824 51.8527752,0.838235294 52.4040465,0.863529412 C57.5370078,1.10058824 62.7829767,0.999411765 67.8103876,2.50235294 C71.2247132,3.52352941 76.6932558,6.90823529 71.7547597,11.3841176 C70.4015349,12.61 68.6783101,12.9729412 67.0744031,13.5311765 C57.0195814,17.03 47.1649612,19.67 35.7494574,19.7635294" id="path-3"></path>
    </defs>
    <g id="Page-1" stroke="none" stroke-width="1" fill="none" fill-rule="evenodd">
        <g id="Default-(600px)@2x" transform="translate(-228.000000, -204.000000)">
            <g id="Images" transform="translate(228.000000, 204.000000)">
                <path d="M92.6979969,45.8782274 C68.9665604,31.6854533 57.7651903,-11.9184097 21.1293681,14.1382216 C-15.505766,40.1941719 -0.314866798,93.7286185 34.7927139,106.675218 C69.9002946,119.621817 115.068397,112.308201 127.77943,88.2570256 C149.4989,47.1591317 108.616892,55.3988672 92.6979969,45.8782274" id="Fill-24" fill="#DBDCE7"></path>
                <g id="Group-6">
                    <g id="Group-27" transform="translate(0.000000, 6.000000)">
                        <mask id="mask-2" fill="white">
                            <use xlink:href="#path-1"></use>
                        </mask>
                        <g id="Clip-26"></g>
                        <path d="M-3.42490256,90.0991894 C-3.42490256,90.0991894 16.7857333,70.0686996 50.5420513,79.572519 C84.2983692,89.0776969 104.172974,80.9295284 99.9818667,30.5639716 C99.9818667,30.5639716 147.427487,37.1065495 141.344574,70.4273087 C133.962205,110.864556 38.6737744,126.294934 -3.42490256,90.0991894" id="Fill-25" fill="#CDCEDE" mask="url(#mask-2)"></path>
                    </g>
                    <path d="M61,11 C61,11 62.5712292,9.08282828 63.5347583,8.20452537 C65.2692503,6.62254423 67.2584042,3.82632966 73.6207662,5.88704878 C74.1147406,6.04687476 74.5933655,6.25997605 75.0698972,6.47381728 C75.6308512,6.7253952 77.368134,6.73205461 79.147279,5.23368613 C81.9750729,2.85331507 83.0809337,1.05675276 86.9538881,1.00051769 C91.4610554,0.936143344 92.1699226,6.89410039 95.6723963,8.41984647 C97.902258,9.38990132 103.783204,10.3547766 105,10.7846789 L61,11" id="Fill-38" fill="#D7D9E5"></path>
                    <g id="Group-5" transform="translate(30.000000, 8.000000)">
                        <path d="M35.3706998,93 C31.3868467,92.999474 27.2086593,92.7196213 22.7664059,92.0962651 C20.2337727,91.7406628 9.56481978,90.8327196 4,88 L36,92.9973698 C35.7908048,92.9989479 35.5804665,93 35.3706998,93" id="Fill-164" fill="#CDCFD0"></path>
                        <g id="Group-167" transform="translate(0.000000, 73.000000)">
                            <mask id="mask-4" fill="white">
                                <use xlink:href="#path-3"></use>
                            </mask>
                            <g id="Clip-166"></g>
                        </g>
                        <path d="M84.0140531,19.2118997 C83.3604576,18.8512204 82.5242134,18.9828683 81.8843463,19.3669918 C81.2444793,19.7517165 80.7657727,20.3534498 80.3294455,20.9623968 C80.0393565,21.3669588 79.5743785,21.9963443 79.0831372,22.7219109 C79.0288202,22.2812809 78.9649528,21.8424544 78.8909384,21.4048301 C78.8043892,20.8938677 78.5125095,20.2434426 78.0069429,20.3414272 C77.4882447,20.4418163 77.4751131,21.1812089 77.5938944,21.7005872 C77.7825119,22.5259418 77.9711294,23.3518974 78.159747,24.177252 C77.4464623,25.3957471 76.8883693,26.6509112 77.0190884,27.4840804 C77.4136333,30.0028245 79.872227,28.9448318 81.1609145,27.4612374 C82.1475752,26.3244964 83.0620121,25.1246364 83.8970625,23.8712757 C84.3835286,23.1415012 84.8538787,22.3642372 84.9750475,21.4931966 C85.0956195,20.6233582 84.7798642,19.6338946 84.0140531,19.2118997" id="Fill-168" fill="#E4D2BC"></path>
                        <path d="M81.7469521,26.6059176 C80.75404,25.6764722 77.4458662,23.1026682 76.0010556,24.3214418 C75.4680912,24.7707993 75.6578196,25.3488761 76.1850346,25.9368097 C75.873995,26.1843912 75.575029,26.4505268 75.2766379,26.7091248 C69.4910709,31.7239551 61.8754871,34.4398141 54.2691021,34.4983755 C51.0603921,34.5233076 46.8811924,32.7044242 43.8466875,33.4981926 C39.8048972,34.5551975 38.8821271,39.1467619 39.0114874,42.7166902 C39.0546075,43.9198087 39.2989547,45.3502153 40.3907555,45.8372609 C41.0444562,46.1289084 41.7999203,45.9711984 42.4961661,45.8082701 C46.3499528,44.9072357 50.2043144,44.0067812 54.0581011,43.1057468 C57.3220049,42.3432885 60.6048816,41.5738725 63.687681,40.2501521 C69.4692234,37.7662195 74.2618784,33.4616642 78.9418461,29.2313253 C79.2298883,28.970408 79.5225301,28.6735421 79.7818256,28.3563826 C80.0468704,28.4868413 80.2647706,28.58541 80.4027549,28.6416522 C80.507968,28.6845586 80.6235298,28.7263054 80.7316175,28.6932558 C80.8310812,28.6625256 80.9017982,28.5749733 80.9656159,28.4920596 C81.2611323,28.1111204 81.5560738,27.7296013 81.8515902,27.3480823 C81.9171327,27.2640089 81.984975,27.1735576 81.9976236,27.0674512 C82.020046,26.8859688 81.879762,26.7299982 81.7469521,26.6059176" id="Fill-169" fill="#5E5A97"></path>
                        <path d="M36.2213182,61.1029798 C37.5732379,61.1582493 39.0945889,61.4508523 39.8534995,62.6888881 C39.9299788,62.8137321 39.9988103,62.9535313 39.9999869,63.1043844 C40.0029284,63.5367866 39.5111073,63.7221019 39.1234157,63.7825732 C36.7525556,64.1506027 34.3816954,64.5186323 32.0108352,64.8873121 C31.4025302,64.9815953 30.7753994,65.0752283 30.180037,64.9074692 C28.2639349,64.3690797 28.9951952,62.4977208 30.1635645,61.6394187 C31.4172377,60.7186945 34.8111564,61.0457597 36.2213182,61.1029798" id="Fill-170" fill="#C0AB7C"></path>
                        <path d="M26.3827046,17.8636969 C25.5839367,13.0744214 25.7846097,7.38059564 29.4499732,4.36659467 C30.1702656,3.77464208 31.0043474,3.31740973 31.9017701,3.11503776 C34.568814,2.51492031 37.3345127,4.33860085 38.659066,6.8207193 C39.9836193,9.30283775 40.1293594,12.28068 39.9242022,15.1115548 C39.7784621,17.1166119 39.4724079,19.1094218 39.0099633,21.0619905 C38.4852989,23.2770013 37.6629884,25.5806592 35.8911251,26.9237792 C30.3104003,31.1531784 27.0430194,21.8207396 26.3827046,17.8636969" id="Fill-171" fill="#E0AB8B"></path>
                        <path d="M29.511274,31.1367903 C27.0655252,30.5483835 24.822195,29.0574839 22.3072432,29.0015823 C18.9278308,28.9260864 15.9647896,31.5626793 14.5957239,34.6510948 C13.2272348,37.7395104 13.1211236,41.2175078 13.0369266,44.5940755 C12.8858334,50.6539168 13.0052086,57.4364439 17.2686892,61.7483538 C19.7634568,64.2714147 23.2772384,65.4787725 26.1618495,67.5448239 C27.0332304,68.1689617 27.9178753,68.9014446 28.9864847,68.9907718 C29.7500243,69.0547416 30.4962632,68.7752339 31.2073238,68.4893869 C33.9494921,67.3857639 36.621304,66.106368 39.2002686,64.6615728 C40.0606924,64.179206 40.9378403,63.6547689 41.5064581,62.848519 C42.043358,62.0866445 42.2515436,61.1484209 42.4487721,60.2378598 C43.806304,53.9509546 45.1644126,47.663473 46.5225212,41.3754152 C49.5253541,27.4697651 37.7049075,33.1083278 29.511274,31.1367903" id="Fill-172" fill="#444287"></path>
                        <path d="M57.0737901,85.9998452 C57.9046461,86.0081793 58.9756441,85.6807676 58.9995999,84.8342596 C59.0147913,84.3127821 58.594689,83.8984575 58.2032168,83.5621164 C56.0658951,81.7244439 44.0658097,71.4633617 43.0322061,78.3497224 C42.3147018,83.1263612 53.7900974,85.9676993 57.0737901,85.9998452" id="Fill-173" fill="#222731"></path>
                        <path d="M12.140999,81.584155 C11.8891897,81.6873347 11.6322415,81.7943359 11.4272539,81.9679399 C10.6461312,82.6279625 11.0172787,83.9665692 11.8857637,84.517407 C12.7548198,85.0687907 13.8796821,85.0442241 14.9171821,84.9421362 C17.3347796,84.7046591 32.3508351,80.9115761 26.7630672,77.4646092 C24.8148285,76.2635754 23.1538009,77.6873464 21.2940665,78.4074207 C18.2872011,79.5724234 15.1375866,80.3634679 12.140999,81.584155" id="Fill-174" fill="#222731"></path>
                        <path d="M36.7137781,65.2801494 C37.7984267,64.1219001 38.9144235,62.9394606 40.3353531,62.2206664 C41.8132794,61.4724984 43.5060836,61.2841605 45.1567101,61.1079177 C48.0270676,60.8015086 50.8974251,60.4956755 53.7672126,60.1892664 C57.0998139,59.8333251 61.0479803,59.7152539 63.1340622,62.3139714 C63.7359482,63.0627154 64.1161166,64.0332027 63.967925,64.9794999 C63.7251188,66.5242163 62.2357931,67.5211977 60.8832597,68.3263854 C57.662372,70.2431699 54.4323649,72.1645621 51.004009,73.6862402 C48.0339072,75.0051815 44.9355626,76.0148339 41.8440577,77.0227585 C38.7075252,78.044506 29.5732224,82.9464751 26.7079946,80.1473246 C23.1206178,76.642051 34.2064901,67.957197 36.7137781,65.2801494" id="Fill-175" fill="#38394E"></path>
                        <path d="M7.66827416,67.8154543 C6.53687101,66.4851685 5.47051772,64.6610987 6.28886836,63.1301426 C6.62515298,62.5010753 7.23615715,62.0484399 7.88665588,61.727142 C10.0797659,60.6443119 12.7398411,60.8979681 15.0711821,61.6600641 C17.4031039,62.4215963 19.5439417,63.6492923 21.8386921,64.5100323 C27.6949232,66.7106407 32.1003097,67.2275356 36.9058691,71.1794991 C39.1059487,72.9889133 49.9750856,77.2283538 46.216713,80.4396412 C45.3205348,81.2051192 44.0967841,81.48245 42.9177551,81.6656461 C30.5304007,83.5923058 15.6967063,76.9572235 7.66827416,67.8154543" id="Fill-176" fill="#2A293B"></path>
                        <path d="M44.7972975,2.80985844 C44.7563015,2.66335362 44.72043,2.51512522 44.6805728,2.36804588 C44.6418544,2.27727034 44.610538,2.2083269 44.600289,2.18936746 C44.5325317,2.06584379 44.494952,1.94289465 44.4716071,1.82052004 C44.2996516,1.54244816 44.1111839,1.27529232 43.8834283,1.03513933 L43.8236424,1.00871101 C43.5810828,0.752471212 43.3015128,0.535299369 42.9877795,0.373282279 C41.9959039,-0.139771838 40.8024647,-0.0530180059 39.7189175,0.210690661 C37.781287,0.680655126 36.2035102,1.84465024 34.3023205,2.46111952 C32.2314529,3.13331809 30.1611547,3.80666571 28.0908565,4.48001333 C25.9300255,5.18151285 23.3973834,6.31850512 23.0403766,8.72405673 C22.8934742,9.71569324 23.174183,10.7165222 23.4520448,11.6754106 C24.8419232,16.4761723 26.2318016,21.2763595 27.6222494,26.0771212 C27.9058051,27.0566926 28.5850861,28.2746934 29.48529,27.9449139 C30.4179491,27.6036439 30.2118303,26.1253816 29.8206601,25.1486828 C28.9642992,23.0085635 27.3990489,20.4059485 27.0130032,18.1089828 C26.7277394,16.4112506 27.6689393,14.4745144 28.9398154,16.8547867 C29.2786019,15.5810566 29.4659308,14.2406812 29.7090599,12.9359265 C29.7842192,12.5349055 29.8713357,12.1080307 30.1435037,11.8230645 C30.3946042,11.5605049 30.7567356,11.4691548 31.1017853,11.4099783 C34.2288693,10.8745176 37.6395091,12.074708 40.4875926,10.5820825 C40.7899381,10.4235126 41.0695081,10.2367908 41.3365515,10.0334076 C42.000459,9.82772634 42.6216624,9.45370816 43.1187389,8.96191161 C44.0673409,8.02313173 44.6031359,6.72239879 44.8274751,5.40098281 C44.9066202,4.93446552 44.9493244,4.45703218 44.9379366,3.98419507 C44.9595734,3.91697522 44.9789326,3.84975536 45,3.7825355 C44.9316733,3.45850132 44.8616385,3.13504167 44.7972975,2.80985844" id="Fill-177" fill="#22222F"></path>
                        <path d="M30.6267747,62.5485639 C31.2582087,63.015205 32.1054494,63.0140528 32.8887473,62.9933132 C43.6864982,62.710448 54.484249,62.4270067 65.2819999,62.1435654 C66.7264196,62.1061189 68.2382075,62.0502372 69.4947955,61.3295358 C70.5138821,60.7453702 71.2572159,59.7821307 71.9594437,58.835022 C75.5276741,54.0234331 78.7676274,48.9641211 81.6490449,43.7043263 C81.8996774,43.2463266 82.149168,42.6811723 81.8911136,42.2277815 C81.6416229,41.7893692 81.0598586,41.7092913 80.5597355,41.678758 C73.3616155,41.2374652 66.1503645,41.0110578 58.9385425,41.0001119 C58.0210791,40.9983836 57.0596551,41.0110578 56.2529495,41.4523506 C55.3999997,41.9189918 54.8542032,42.7912075 54.3569346,43.6311616 C51.1615128,49.0309487 48.4039843,54.6945898 46.1203168,60.5466157 C42.7638965,60.180792 39.3777885,60.0914965 36.0065244,60.2775769 C35.1981061,60.3219366 27.8407003,60.4872773 30.6267747,62.5485639" id="Fill-178" fill="#6A9AC5"></path>
                        <path d="M65.7460932,53.9226065 C64.7205431,54.286297 63.5566039,53.5009259 63.1447793,52.1693031 C62.7329547,50.8376803 63.2296847,49.4631019 64.2545663,49.1001272 C65.2787793,48.7371526 66.4433871,49.5218078 66.8552116,50.8541466 C67.2670362,52.1850535 66.7703062,53.5596319 65.7460932,53.9226065 Z" id="Fill-70" fill="#DCE8E7" transform="translate(65.000000, 51.511492) scale(-1, 1) translate(-65.000000, -51.511492) "></path>
                        <path d="M38.9559523,63.3540373 C39.4160451,63.2935448 39.8912993,63.2189984 40.2843317,62.9525869 C41.2016015,62.3317748 41.2465029,60.6569263 40.3648042,59.9792879 C40.1665386,59.82714 39.9309525,59.7214309 39.6883687,59.7202088 C39.0684972,59.7171536 38.44571,60.3630182 37.9033954,60.0373363 C38.4060569,59.1238381 38.7722651,58.1235729 38.9845259,57.0860345 C38.210707,56.9674936 37.3220107,56.8837817 36.7458743,57.4551 C36.3429287,57.8541062 36.2041427,58.4761404 35.8723395,58.9454157 C35.2285595,59.8552477 34.0447974,60.0000631 33.0074019,60.2285904 C31.2673299,60.6110987 30.06724,62.5444152 31.9630088,63.6479454 C33.4272584,64.50034 37.3599144,63.5636225 38.9559523,63.3540373" id="Fill-179" fill="#E4D2BC"></path>
                        <path d="M32.535076,59.0834842 C31.7647775,59.3134894 30.9035528,58.6055136 30.1732847,58.9438588 C29.6952078,59.1651737 29.5007746,59.7381591 29.3778242,60.2561054 L29.3629558,60.3308426 C25.6818783,59.9391964 22.0259626,59.2798866 18.4312363,58.3558101 C17.7352799,58.1767884 16.9975775,57.9606877 16.5229318,57.3929166 C15.7263276,56.4398722 16.0065402,54.9711988 16.3479419,53.7516495 C18.1756138,47.2199638 20.4236045,40.8209512 23.0713269,34.6113887 C23.3629767,33.9277459 23.6660637,33.2041273 23.590006,32.4584932 C23.4962206,31.5442657 22.8271417,30.7818302 22.0419748,30.3867078 C20.637481,29.6793113 18.9150318,30.003752 17.5888831,30.8635197 C13.8048703,33.3153641 11.040488,39.6118304 9.82413693,44.0230646 C8.56546803,48.5895669 6.88362103,55.7486977 9.0269609,60.1460273 C10.7196733,63.6204392 14.8130636,64.8185522 18.478129,65.3225939 C22.0156691,65.8086756 25.5920959,65.9813243 29.1565135,65.8411196 L29.187966,65.8753018 C29.3532342,65.9975464 29.5734012,66.0010225 29.777556,65.9998638 C30.3419841,65.996967 30.9064122,65.9940702 31.4714121,65.9911734 C31.7098787,65.9900147 31.9729353,65.9790069 32.1467815,65.8138898 C32.2977531,65.6702089 32.3394991,65.4477353 32.3726671,65.240325 C32.6723229,63.3637834 32.8816245,61.4727579 33,59.5759387 L32.535076,59.0834842" id="Fill-180" fill="#5E5A97"></path>
                    </g>
                    <g id="download-(2)" transform="translate(110.000000, 0.000000)">
                        <polygon id="Path" fill="#B1B6D1" points="9.82546543 15.674867 0 10.9341755 0 20.4155585"></polygon>
                        <polygon id="Path" fill="#B1B6D1" points="22.9388298 20.4155585 22.9388298 10.9341755 13.1133644 15.674867"></polygon>
                        <path d="M12.2340426,16.0954122 L11.4694149,16.4777261 L10.7047872,16.0954122 L0,21.2566489 L0,21.7918883 C0,22.4418218 0.497007979,22.9388298 1.14694149,22.9388298 L21.7918883,22.9388298 C22.4418218,22.9388298 22.9388298,22.4418218 22.9388298,21.7918883 L22.9388298,21.2566489 L12.2340426,16.0954122 Z" id="Path" fill="#B1B6D1"></path>
                        <path d="M1.52925532,7.30219415 L0.611702128,7.95212766 C0.229388298,8.25797872 0,8.71675532 0,9.17553191 L0,10.0548537 L1.52925532,10.78125 L1.52925532,7.30219415 Z" id="Path" fill="#B1B6D1"></path>
                        <path d="M22.3271277,7.95212766 L21.4095745,7.30219415 L21.4095745,10.8194814 L22.9388298,10.0930851 L22.9388298,9.17553191 C22.9388298,8.71675532 22.7094415,8.25797872 22.3271277,7.95212766 Z" id="Path" fill="#B1B6D1"></path>
                        <path d="M2.29388298,0 L2.29388298,11.2017952 L11.4694149,15.6366356 L20.6449468,11.2017952 L20.6449468,0 L2.29388298,0 Z M15.7130984,7.37865691 C15.5601729,7.79920213 15.3307846,8.10505319 15.0249335,8.37267287 C14.7190824,8.60206117 14.5279255,8.79321809 14.1456117,8.79321809 C13.380984,8.79321809 12.9986702,8.41090426 12.8839761,8.02859043 L12.8075133,8.02859043 C12.4251995,8.41090426 11.9664229,8.71675532 11.3547207,8.71675532 C10.7430186,8.71675532 10.2460106,8.5255984 9.90192819,8.18151596 C9.55784574,7.83743351 9.36668883,7.30219415 9.36668883,6.65226064 C9.36668883,5.92586436 9.59607713,5.31416223 10.0548537,4.89361702 C10.5136303,4.43484043 11.1253324,4.20545213 11.8899601,4.20545213 C12.1958112,4.20545213 12.5016622,4.24368351 12.8839761,4.28191489 C13.2662899,4.32014628 13.5339096,4.39660904 13.7632979,4.47307181 L13.6486037,7.03457447 C13.6486037,7.53158245 13.7632979,7.76097074 14.0309176,7.76097074 C14.2603059,7.76097074 14.4132314,7.60804521 14.5661569,7.26396277 C14.6808511,6.91988032 14.7573138,6.49933511 14.7573138,6.00232713 C14.7573138,5.42885638 14.6426197,4.9318484 14.4132314,4.51130319 C14.1838431,4.09075798 13.8397606,3.74667553 13.4192154,3.51728723 C12.9986702,3.28789894 12.5016622,3.17320479 11.9664229,3.17320479 C11.278258,3.17320479 10.6665559,3.32613032 10.1313165,3.59375 C9.59607713,3.89960106 9.2137633,4.28191489 8.94614362,4.85538564 C8.67852394,5.390625 8.5255984,6.04055851 8.5255984,6.7287234 C8.5255984,7.68450798 8.79321809,8.41090426 9.29022606,8.94614362 C9.78723404,9.4431516 10.5518617,9.71077128 11.5076463,9.71077128 C11.8899601,9.71077128 12.2722739,9.67253989 12.7310505,9.59607713 C13.1898271,9.51961436 13.6486037,9.29022606 14.0691489,9.13730053 L14.0691489,10.284242 C13.3045213,10.5900931 12.4634309,10.7047872 11.5458777,10.7047872 C10.2077793,10.7047872 9.17553191,10.3607048 8.44913564,9.67253989 C7.72273936,8.984375 7.34042553,7.99035904 7.34042553,6.76695479 C7.34042553,5.88763298 7.53158245,5.12300532 7.91389628,4.43484043 C8.29621011,3.74667553 8.83144947,3.17320479 9.51961436,2.79089096 C10.2077793,2.40857713 11.0106383,2.17918883 11.9281915,2.17918883 C12.6928191,2.17918883 13.380984,2.33211436 13.9926862,2.63796543 C14.6043883,2.94381649 15.0631649,3.40259309 15.4072473,3.97606383 C15.7513298,4.54953457 15.9042553,5.23769947 15.9042553,5.96409574 C15.9424867,6.49933511 15.8660239,6.9581117 15.7130984,7.37865691 Z" id="Shape" fill="#DBDCE7" fill-rule="nonzero"></path>
                        <path d="M10.9724069,5.54355053 C10.7430186,5.81117021 10.5900931,6.19348404 10.5900931,6.65226064 C10.5900931,7.37865691 10.8959441,7.76097074 11.5076463,7.76097074 C11.8134973,7.76097074 12.0428856,7.6462766 12.2340426,7.4168883 C12.3869681,7.1875 12.5016622,6.84341755 12.5398936,6.34640957 L12.6163564,5.19946809 C12.4251995,5.1612367 12.2340426,5.12300532 12.0046543,5.12300532 C11.5458777,5.12300532 11.2017952,5.27593085 10.9724069,5.54355053 Z" id="Path" fill="#DBDCE7"></path>
                    </g>
                </g>
                <path d="M57.3047962,28.0079335 L56.9996726,27 L56.6952038,28.0079335 C56.4378785,28.8579524 55.8263218,29.5757461 55,29.9996222 C55.8263218,30.4234983 56.4378785,31.141292 56.6952038,31.9913109 L56.9996726,33 L57.3047962,31.9913109 C57.5621215,31.141292 58.1730234,30.4234983 59,29.9996222 C58.1730234,29.5757461 57.5621215,28.8579524 57.3047962,28.0079335" id="Fill-39" fill="#FFFFFE"></path>
                <path d="M28.3050736,79.0085621 L28,78 L27.6949264,79.0085621 C27.4376432,79.8584739 26.8268412,80.5754218 26,81 C26.8268412,81.4230672 27.4376432,82.1415261 27.6949264,82.9914379 L28,84 L28.3050736,82.9914379 C28.5617021,82.1415261 29.1725041,81.4230672 30,81 C29.1725041,80.5754218 28.5617021,79.8584739 28.3050736,79.0085621" id="Fill-40" fill="#FFFFFE"></path>
                <path d="M115.728851,74.5038168 L115.500372,74 L115.271149,74.5038168 C115.078392,74.928626 114.62069,75.2875954 114,75.4994275 C114.62069,75.7118321 115.078392,76.070229 115.271149,76.4956107 L115.500372,77 L115.728851,76.4956107 C115.921608,76.070229 116.37931,75.7118321 117,75.4994275 C116.37931,75.2875954 115.921608,74.928626 115.728851,74.5038168" id="Fill-41" fill="#FFFFFE"></path>
                <path d="M14.7288514,44.5044856 L14.4996279,44 L14.2711486,44.5044856 C14.0783925,44.9293758 13.6199454,45.2884138 13,45.5002863 C13.6199454,45.7121588 14.0783925,46.0706242 14.2711486,46.496087 L14.4996279,47 L14.7288514,46.496087 C14.9216075,46.0706242 15.3800546,45.7121588 16,45.5002863 C15.3800546,45.2884138 14.9216075,44.9293758 14.7288514,44.5044856" id="Fill-42" fill="#FFFFFE"></path>
                <path d="M85.016,32.5590075 C85.048,32.8260075 85.291,33.0170075 85.559,32.9850075 C85.826,32.9520075 86.017,32.7090075 85.984,32.4410075 C85.952,32.1730075 85.709,31.9830075 85.441,32.0150075 C85.174,32.0480075 84.983,32.2910075 85.016,32.5590075" id="Fill-63" fill="#FFFFFE"></path>
            </g>
        </g>
    </g>
</svg>