<?xml version="1.0" encoding="UTF-8"?>
<svg width="318px" height="252px" viewBox="0 0 318 252" version="1.1" xmlns="http://www.w3.org/2000/svg" xmlns:xlink="http://www.w3.org/1999/xlink">
    <!-- Generator: Sketch 55.2 (78181) - https://sketchapp.com -->
    <title>img-listing search</title>
    <desc>Created with Sketch.</desc>
    <defs>
        <polygon id="path-1" points="-1.8189894e-12 4.80865348e-13 318 0 318 252 -1.86211783e-12 252"></polygon>
        <polygon id="path-3" points="0.04504 0.0706390533 562.75228 0.0706390533 562.75228 75.147929 0.04504 75.147929"></polygon>
        <polygon id="path-5" points="0.475172 0.257005917 460.661613 0.257005917 460.661613 42.090355 0.475172 42.090355"></polygon>
        <polygon id="path-7" points="0.617048 0.554974625 151.033383 0.554974625 151.033383 214.923077 0.617048 214.923077"></polygon>
        <path d="M0.742409333,7.6162426 C0.671096,5.11381657 0.599032,2.65347337 0.534474667,0.503491124 C0.599032,2.65347337 0.671096,5.11381657 0.742409333,7.6162426" id="path-9"></path>
        <path d="M8.49379333,41.4410769 C9.381832,39.1167515 9.83298267,36.6917278 9.36081333,34.4538225 C9.83373333,36.6924793 9.38258267,39.1167515 8.49379333,41.4410769 M9.36006267,34.451568 C9.35405733,34.4207574 9.34730133,34.3899467 9.34054533,34.3591361 C9.34730133,34.3899467 9.35405733,34.4207574 9.36006267,34.451568 M7.83771067,29.3850947 C6.54130933,25.1159408 4.69166667,18.8283136 2.90583067,11.776432 L2.90658133,11.776432 C4.69166667,18.8283136 6.54130933,25.1159408 7.83771067,29.3850947 M0.499944,1.47815976 L0.499944,1.47815976 C0.421124,1.10617751 0.343054667,0.733443787 0.265736,0.360710059 C0.343054667,0.733443787 0.421124,1.10617751 0.499944,1.47815976" id="path-11"></path>
        <linearGradient x1="91.2079818%" y1="257.908749%" x2="89.2320137%" y2="-49.3489916%" id="linearGradient-13">
            <stop stop-color="#347CB3" offset="0%"></stop>
            <stop stop-color="#C3D7D9" offset="100%"></stop>
        </linearGradient>
        <path d="M0.378336,69.5539172 C0.290508,65.7732249 0.547986667,62.3893136 1.27613333,59.6576864 C5.68930267,43.0965858 28.1109653,32.6690592 55.6822013,25.9222781 C82.1499573,19.4452781 96.1956813,15.2294793 96.19418,2.96533728 C96.1956813,15.2294793 82.1499573,19.4452781 55.6822013,25.9222781 C28.1109653,32.6690592 5.68930267,43.0965858 1.27613333,59.6576864 C0.547986667,62.3893136 0.290508,65.7724734 0.378336,69.5539172 M96.0920893,1.10843195 C96.088336,1.07010651 96.083832,1.03178107 96.079328,0.993455621 C96.083832,1.03178107 96.088336,1.07010651 96.0920893,1.10843195 M96.0785773,0.988195266 C96.0733227,0.937094675 96.0673173,0.886745562 96.0605613,0.83564497 C96.0673173,0.886745562 96.0733227,0.937094675 96.0785773,0.988195266" id="path-14"></path>
        <path d="M1.01640267,5.62106509 C0.848253333,4.80721302 0.683106667,3.98810059 0.524716,3.17349704 C0.864017333,2.19657396 1.15602667,1.27976923 1.39624,0.439615385 C1.36996667,2.07107692 1.25286267,3.80098225 1.01640267,5.62106509" id="path-16"></path>
        <linearGradient x1="309.90053%" y1="2151.22553%" x2="298.169422%" y2="-292.48731%" id="linearGradient-18">
            <stop stop-color="#347CB3" offset="0%"></stop>
            <stop stop-color="#C3D7D9" offset="100%"></stop>
        </linearGradient>
        <path d="M0.379086667,0.43360355 C0.379086667,0.428343195 0.379086667,0.42308284 0.378336,0.417822485 C0.38284,0.405047337 0.385092,0.398284024 0.385092,0.398284024 C0.38284,0.410307692 0.381338667,0.421579882 0.379086667,0.43360355" id="path-19"></path>
        <path d="M1.01640267,2.61514793 C0.848253333,1.80129586 0.683106667,0.982934911 0.524716,0.167579882 C0.525466667,0.166828402 0.524716,0.168331361 0.524716,0.167579882 C0.683106667,0.982183432 0.848253333,1.80129586 1.01640267,2.61514793" id="path-21"></path>
        <linearGradient x1="1055.44882%" y1="4442.01614%" x2="1010.17336%" y2="-730.813683%" id="linearGradient-23">
            <stop stop-color="#226EA9" offset="0%"></stop>
            <stop stop-color="#A4B9BB" offset="100%"></stop>
        </linearGradient>
        <path d="M0.379086667,0.43435503 C0.378336,0.429094675 0.378336,0.42383432 0.378336,0.417822485 C0.379086667,0.42308284 0.379086667,0.428343195 0.379086667,0.43360355 L0.379086667,0.43435503" id="path-24"></path>
    </defs>
    <g id="Property-Listing" stroke="none" stroke-width="1" fill="none" fill-rule="evenodd">
        <g id="Listing_logged-Copy-2" transform="translate(-914.000000, -221.000000)">
            <g id="Group-6-Copy-2" transform="translate(913.000000, 221.000000)">
                <g id="img-listing-search" transform="translate(1.000000, 0.000000)">
                    <mask id="mask-2" fill="white">
                        <use xlink:href="#path-1"></use>
                    </mask>
                    <use id="Mask" fill="#ECF9F8" xlink:href="#path-1"></use>
                    <g id="Group-3" mask="url(#mask-2)">
                        <g transform="translate(-83.000000, 31.000000)">
                            <g id="Group-7" stroke="none" stroke-width="1" fill="none" fill-rule="evenodd" transform="translate(0.000000, 178.852071)">
                                <mask id="mask-4" fill="white">
                                    <use xlink:href="#path-3"></use>
                                </mask>
                                <g id="Clip-6"></g>
                                <polygon id="Fill-5" fill="#ECF9F8" mask="url(#mask-4)" points="0.04504 75.147929 562.75228 75.147929 562.75228 0.0706390533 0.04504 0.0706390533"></polygon>
                            </g>
                            <g id="Group-12" stroke="none" stroke-width="1" fill="none" fill-rule="evenodd" transform="translate(102.090667, 141.278107)">
                                <mask id="mask-6" fill="white">
                                    <use xlink:href="#path-5"></use>
                                </mask>
                                <g id="Clip-9"></g>
                                <path d="M0.475172,37.3410059 C0.475172,37.3410059 57.2135613,31.5042663 551.449492,19.6759822 L554.751675,42.090355 L0.475172,37.3410059" id="Fill-8" fill="#80C9C2" fill-rule="nonzero" mask="url(#mask-6)"></path>
                                <path d="M460.661613,37.8542663 C437.357167,36.866071 410.788821,35.7163077 386.738963,35.5006331 C386.282557,35.4968757 385.826903,35.4931183 385.370497,35.4893609 L384.968891,30.5619112 L460.661613,29.3835917 L460.661613,37.8542663 M284.546956,36.4392308 C279.721671,36.4392308 275.069789,36.4061657 270.625843,36.3302663 C251.299929,35.9973609 228.878267,35.0181834 205.518271,35.0181834 C202.100485,35.0181834 198.658679,35.0392249 195.207864,35.086568 C180.432492,35.287213 167.816037,35.7644024 159.600741,35.7644024 C152.783187,35.7644024 148.996073,35.4360059 149.528296,34.3493669 C149.868348,33.6542485 144.577649,33.4242959 136.423157,33.4242959 C128.484107,33.4242959 117.830645,33.6422249 107.015791,33.8594024 C104.926685,33.9014852 102.830824,33.943568 100.747724,33.9841479 C100.632872,33.4979408 100.504508,33.0260118 100.366385,32.5721183 C126.876179,31.5726509 160.186261,30.4153728 201.95936,29.0995325 C193.214093,31.1728639 185.208233,33.0793669 183.407384,33.7008402 L331.016976,31.4020651 L330.6499,35.8981657 C329.707813,35.9139467 328.766477,35.9289763 327.828895,35.9440059 C312.548324,36.1912426 297.8833,36.4392308 284.546956,36.4392308" id="Fill-10" fill="#F0EFEB" mask="url(#mask-6)"></path>
                                <path d="M268.926333,22.2227456 C269.389495,21.4720178 271.491361,20.4883314 271.839671,19.9036805 C272.453716,20.9317041 274.115692,21.2788876 274.852847,21.8642899 C275.079548,21.2488284 276.66946,20.3786154 276.925437,19.6759822 C277.656587,19.9840888 280.392767,20.2967041 281.284559,20.7641243 C283.414951,19.4114615 284.541701,17.6214379 285.763036,15.9711893 C287.217828,17.8070533 289.418783,19.8037337 292.729223,20.9414734 C295.588512,19.0928343 296.904431,16.7437101 299.924363,14.9566923 C301.374651,16.5934142 303.117699,18.3924556 306.037041,19.4700769 C310.516269,18.0753314 313.079045,14.622284 316.173293,12.4159408 C316.249111,14.0744556 317.862293,15.5706509 319.694671,16.9436036 C321.393429,14.5794497 322.121576,13.642355 326.264505,12.8367692 C326.345577,12.8209882 326.845521,13.1681716 327.509111,13.515355 C328.247016,13.9008639 329.186851,14.2871243 329.981807,14.1759053 C332.248069,13.8580296 334.580391,12.0672544 336.194324,11.3172781 C335.673361,19.4317515 348.634372,10.0104556 352.028136,9.03804142 C354.350699,11.3383195 358.015453,15.1543314 362.535217,11.992858 C363.695748,15.7743018 368.067631,14.5185799 370.461507,11.8327929 C371.248956,15.5270651 381.172019,16.4573964 385.443312,13.896355 C385.748083,14.2495503 386.236767,14.877787 386.442449,15.2505207 L387.803408,14.5576568 C388.894877,15.4226095 391.303767,16.1410237 392.729283,16.8414024 C393.477697,16.0283018 395.534524,14.9980237 396.106532,14.0323728 C396.669532,14.4351657 399.147483,14.9829941 399.836595,15.3955562 C400.249461,14.6320533 401.767309,13.8294734 401.998515,12.9442308 C406.811039,16.5701183 411.526727,14.1728994 414.193845,10.5845858 C414.582691,11.4818521 415.418933,11.5051479 416.162093,12.2446036 C416.198876,12.1649467 416.318983,11.2924793 416.357267,11.2954852 C419.853872,11.9462663 421.975256,14.2044615 425.588215,11.9229704 C429.623799,13.1974793 432.573168,10.2479231 436.871485,10.2163609 C439.125737,10.1990769 442.984164,11.2751953 444.731716,12.3678462 C445.190373,11.4450296 447.073796,10.4883964 447.496421,9.73391124 C447.954328,10.7514142 449.629816,11.646426 450.014908,12.7150296 C450.409759,12.7804083 450.815869,12.8142249 451.232489,12.8149763 C451.956883,11.9830888 454.044487,10.9310178 454.715583,10.0683195 C454.867217,11.0985976 456.477397,11.8914083 456.90828,12.753355 C457.983235,12.1424024 460.094109,11.9079408 461.139788,10.9655858 C463.391788,14.4599645 467.809461,12.6301124 470.049451,10.1479763 C475.145727,12.845787 479.210587,12.8067101 483.597483,9.06208876 C487.122613,13.9639882 493.486765,9.01775148 498.300791,8.35494675 C499.310437,8.21592308 500.277296,8.35720118 501.237399,8.49923077 C502.202756,8.64201183 503.161357,8.78404142 504.146232,8.64126036 C509.195216,7.90706509 514.148865,5.45799408 517.095983,3.2223432 C516.966868,7.04211243 521.611243,5.78488757 525.648328,4.75611243 C529.070617,3.88364497 530.704819,1.63371598 534.921313,1.71562722 C536.733423,1.75169822 537.976527,3.45379882 539.775124,3.58530769 C545.102605,3.9768284 548.784625,1.61868639 553.668463,1.13698817 C554.964113,1.00848521 555.850651,1.21814793 556.651612,1.42705917 C558.186725,1.82834911 559.407309,2.22963905 562.587133,0.257005917 C563.081072,2.34236095 566.483844,2.95105917 569.976696,2.19807692 C573.748796,9.72038462 571.947196,19.7631538 571.171757,27.6566923 C570.295729,27.7386036 569.312356,27.7055385 568.409304,27.7055385 L183.407384,33.7008402 C187.485756,32.294071 223.374379,24.2960769 227.650176,22.6939231 C227.740256,23.9721893 227.747012,25.2602249 227.658433,26.541497 C227.86862,26.0628047 228.257465,25.6344615 228.554729,25.1738047 C229.572633,25.5029527 231.704527,25.6074083 232.853047,26.1725207 C233.669021,25.5502959 235.259684,25.0024675 236.370671,24.5275325 C237.708359,25.4954379 239.482935,26.4753669 241.218476,27.195284 C244.311223,24.2863077 244.004951,24.0413254 249.490072,23.0598935 C250.603311,22.86 251.752581,22.8645089 252.817027,22.8690178 C255.102807,22.8780355 256.99824,22.8870533 257.304512,20.882858 C259.707396,21.6651479 261.948887,22.6240355 264.597989,23.1605917 C264.702332,22.7014379 265.457503,22.1618757 265.622649,21.7275207 C265.934176,21.753071 268.970623,22.1498521 268.926333,22.2227456" id="Fill-11" fill="#23A79A" mask="url(#mask-6)"></path>
                            </g>
                            <path d="M388.141959,146.96455 C387.660031,140.76184 381.45502,135.943355 375.454191,136.483669 C375.870811,136.431065 376.289683,136.400254 376.709305,136.391237 C376.392524,135.900521 375.962392,135.603686 375.418159,135.500734 C376.989304,135.068633 378.961305,135.677331 380.456633,136.160533 C380.119584,135.335408 379.615136,134.64029 378.943289,134.078183 C380.580493,133.827189 382.662843,135.109213 384.043319,135.921562 C383.383483,134.938627 382.205687,134.468953 381.167515,134.038355 C383.022412,133.915864 384.989159,134.710929 386.6121,135.532296 C382.295016,129.866142 374.967008,131.101574 370.944936,136.485923 C371.291744,131.018911 366.042332,126.682124 360.920533,129.56555 C361.885891,129.58058 362.827977,129.750414 363.749045,130.076556 C363.056931,130.229107 362.392591,130.46432 361.756025,130.782947 C363.378216,130.460562 365.17306,130.531953 366.725439,131.130882 C365.579171,131.001627 363.938964,131.184988 363.070443,132.000343 C364.803732,131.931959 366.4004,132.529385 367.742592,133.654349 C366.94088,133.607006 366.178953,133.787361 365.458313,134.195414 C366.223243,134.252527 369.866979,135.654787 369.267947,136.879698 C362.620793,131.616337 354.041424,135.931331 352.357679,143.776024 C353.534724,142.508278 355.077344,140.57397 356.70554,139.86758 C356.327955,140.547669 356.041951,141.267586 355.847528,142.027331 C356.321199,141.220243 357.066611,139.714278 357.931379,139.284432 C357.667144,140.108805 357.462963,140.94971 357.318084,141.804142 C358.320224,140.67016 359.324616,139.539183 360.347775,138.423237 C358.024461,141.789864 356.095999,147.275663 359.54306,150.785822 C359.383919,148.795154 359.132445,146.416722 359.625633,144.456112 C359.766759,145.288 360.121824,146.082314 360.270456,146.911947 C360.475388,145.461592 360.675065,143.913544 361.147985,142.523308 C361.091685,143.313864 361.181015,144.114941 361.138227,144.907 C361.503051,143.389763 362.264227,140.879822 363.74304,140.059959 C363.421755,140.720509 362.731141,141.497538 363.147011,142.315899 C364.109365,141.268337 365.156545,140.080249 366.345601,139.288941 C366.112144,143.36797 362.431625,145.90271 365.768339,150.197414 C365.468072,148.885331 365.284909,147.160686 365.681261,145.876408 C365.732307,146.763154 366.008552,147.583018 366.510748,148.336751 C366.13016,147.211787 365.649733,145.366905 366.111393,144.216391 C366.38914,144.80555 366.795251,145.296266 367.330476,145.687787 C367.23364,144.541781 367.220879,142.823899 367.765863,141.805645 C367.739589,142.222716 367.87546,142.593195 368.171223,142.917834 C368.099159,142.294858 368.223019,142.073172 368.542803,142.252024 C368.153207,142.916331 368.411436,144.036036 368.220016,143.857935 C369.467624,148.580982 365.840403,167.806077 372.410988,168.662012 C371.024507,159.946355 368.424197,149.807396 371.128099,141.756799 C371.510188,143.49497 371.507936,145.427024 370.995231,147.139645 C371.655817,146.621124 372.167021,145.971095 372.528843,145.188053 C372.385465,146.204053 372.087451,147.175716 371.637051,148.103793 C372.242088,147.818982 372.679727,147.339538 372.948465,146.666964 C373.451412,148.306692 373.371091,150.226722 372.457529,151.720663 C373.593288,151.099941 374.19232,150.570899 374.727545,149.192686 C374.780843,151.238213 374.13602,153.834574 372.39072,155.098562 C376.41054,152.703598 374.963255,147.145657 377.757987,145.318811 C377.620615,146.315272 377.272305,147.223059 376.713059,148.04142 C377.163459,147.742331 377.62662,147.465036 378.104044,147.211787 C378.351764,148.453231 378.441093,149.702189 378.372032,150.958663 C379.193261,150.658822 379.284092,149.176905 379.421464,148.485544 C380.437867,149.811154 379.952936,152.001716 379.447737,153.42126 C383.267129,147.946734 378.675301,140.226787 372.99876,138.514917 C374.669744,138.646426 376.285929,139.349059 377.583081,140.392112 C377.595843,139.761621 377.477988,139.162692 377.227265,138.593071 C378.134071,138.956036 378.733853,140.291414 379.142216,141.109775 C379.531812,140.597266 379.748755,140.025391 379.792293,139.395651 C380.067788,140.310953 380.44162,141.179663 380.916041,142.004036 C380.768911,141.362272 380.705855,140.714497 380.725372,140.059959 C381.617915,141.400598 382.49094,142.754763 383.35796,144.111183 C383.32418,143.181604 383.228095,142.26029 383.068953,141.344988 C383.905947,141.943166 384.457687,143.645266 384.824012,144.574095 C384.727927,143.739201 384.532753,142.932112 384.239243,142.152077 C385.308943,142.836675 385.983792,144.609414 386.297571,145.782473 C386.405667,145.208343 386.390653,144.643231 386.253281,144.085633 C387.085771,144.810059 387.691559,145.962828 388.141959,146.96455" id="Fill-13" stroke="none" fill="#23A79A" fill-rule="evenodd"></path>
                            <g id="Group-83" stroke="none" stroke-width="1" fill="none" fill-rule="evenodd" transform="translate(0.000000, 189.372781)">
                                <polygon id="Fill-74" fill="#595C62" points="149.064384 64.6272189 155.014919 64.6272189 155.014919 1.9523432 149.064384 1.9523432"></polygon>
                                <polygon id="Fill-75" fill="#23A79A" points="279.017545 64.6272189 284.968831 64.6272189 284.968831 1.95309467 279.017545 1.95309467"></polygon>
                                <polygon id="Fill-76" fill="#80C9C2" fill-rule="nonzero" points="279.017545 12.3971538 284.968831 12.3971538 284.968831 1.95309467 279.017545 1.95309467"></polygon>
                                <polygon id="Fill-81" fill="#23A79A" points="0.04504 11.0249527 562.75228 11.0249527 562.75228 0.726680473 0.04504 0.726680473"></polygon>
                                <polygon id="Fill-82" fill="#80C9C2" fill-rule="nonzero" points="0.04504 3.26818343 562.75228 3.26818343 562.75228 1.47815976 0.04504 1.47815976"></polygon>
                            </g>
                            <path d="M236.318875,20.1982604 C241.8648,19.1927811 247.225311,23.4686982 247.825093,29.8329763 C248.424125,36.1972544 243.956157,41.4012485 238.320152,41.4508462 L221.01128,40.8023195 L219.435631,24.0736391 L236.318875,20.1982604" id="Fill-84" stroke="none" fill="#23A79A" fill-rule="nonzero"></path>
                            <path d="M214.569059,32.9719053 C214.978923,37.3244734 217.77966,40.8308757 221.01128,40.8023195 C224.469601,40.7715089 227.081171,36.7556036 226.617259,31.8349172 C226.153347,26.9134793 222.839153,23.4566746 219.436381,24.0736391 C216.255807,24.6500237 214.159195,28.6193373 214.569059,32.9719053" id="Fill-85" stroke="none" fill="#1E213A" fill-rule="evenodd"></path>
                            <path d="M224.089013,31.9746923 C224.530405,36.6639231 221.895565,39.0416036 220.500076,38.9559349 L207.811557,38.2172308 L206.928023,28.8432781 L219.259224,25.7779941 C220.614177,25.437574 223.710677,27.9595385 224.089013,31.9746923" id="Fill-86" stroke="none" fill="#5D6A78" fill-rule="evenodd"></path>
                            <path d="M209.731012,26.6662426 C212.317059,26.4220118 214.696672,29.2340473 215.046483,32.9471065 C215.396293,36.6601657 213.583433,39.8674793 210.996636,40.1117101 L205.034841,40.674568 L203.768467,27.2291006 L209.731012,26.6662426" id="Fill-87" stroke="none" fill="#23A79A" fill-rule="nonzero"></path>
                            <path d="M199.719371,34.3937041 C200.068431,38.1060118 202.448795,40.9187988 205.034841,40.674568 C207.620888,40.4303373 209.434499,37.2230237 209.084688,33.5099645 C208.734877,29.7969053 206.355264,26.9848698 203.768467,27.2291006 C201.183171,27.4733314 199.36956,30.680645 199.719371,34.3937041" id="Fill-88" stroke="none" fill="#FFFFFF" fill-rule="evenodd"></path>
                            <path d="M200.650948,34.3057811 C200.952716,37.5078343 202.750563,39.9576568 204.666264,39.7773018 C206.582716,39.5961953 207.891879,36.8532959 207.590111,33.6504911 C207.288343,30.4484379 205.490496,27.9986154 203.574795,28.1789704 C201.658343,28.3600769 200.34918,31.1029763 200.650948,34.3057811" id="Fill-89" stroke="none" fill="#BADAE3" fill-rule="evenodd"></path>
                            <path d="M202.672493,36.5158817 C202.30842,36.5158817 202.126008,36.2476036 202.03818,36.0184024 C201.311535,34.128432 201.200436,31.913071 202.241611,29.9667396 C202.404505,29.6616391 202.63496,29.3347456 203.075601,29.1784379 C203.259515,29.1130592 203.419407,29.0837515 203.557529,29.0837515 C203.661872,29.0837515 203.753453,29.100284 203.833775,29.1310947 C204.722564,29.4707633 204.288679,31.5260592 204.202352,31.9025503 C203.900584,33.2108757 203.650612,34.5214556 203.392383,35.8320355 C203.335332,36.1243609 203.137156,36.5061124 202.689759,36.5158817 C202.683753,36.5158817 202.678499,36.5158817 202.672493,36.5158817" id="Fill-90" stroke="none" fill="#E0F0F2" fill-rule="evenodd"></path>
                            <path d="M246.651051,20.0787751 C252.196225,19.0732959 257.557487,23.349213 258.156519,29.7142426 C258.756301,36.0785207 254.287583,41.2817633 248.652328,41.3313609 L231.343456,40.6828343 L229.767807,23.9541538 L246.651051,20.0787751" id="Fill-91" stroke="none" fill="#80C9C2" fill-rule="nonzero"></path>
                            <path d="M224.900484,32.8524201 C225.310348,37.2049882 228.111836,40.7113905 231.343456,40.6828343 C234.801777,40.6527751 237.412596,36.6361183 236.949435,31.715432 C236.485523,26.7939941 233.171329,23.3379408 229.767807,23.9541538 C226.587983,24.5312899 224.49062,28.4998521 224.900484,32.8524201" id="Fill-92" stroke="none" fill="#1E213A" fill-rule="evenodd"></path>
                            <path d="M234.420439,31.8552071 C234.862581,36.5444379 232.226991,38.9221183 230.832252,38.8372012 L218.142983,38.0977456 L217.260199,28.7237929 L229.590649,25.6592604 C230.945603,25.3180888 234.042103,27.8408047 234.420439,31.8552071" id="Fill-93" stroke="none" fill="#5D6A78" fill-rule="evenodd"></path>
                            <path d="M220.062437,26.5467574 C222.648484,26.3032781 225.028848,29.1153136 225.377908,32.8283728 C225.727719,36.5406805 223.914859,39.7479941 221.328812,39.9922249 L215.367017,40.5550828 L214.100643,27.1096154 L220.062437,26.5467574" id="Fill-94" stroke="none" fill="#80C9C2" fill-rule="nonzero"></path>
                            <path d="M210.050796,34.2742189 C210.400607,37.9872781 212.780971,40.7993136 215.367017,40.5550828 C217.953064,40.3116036 219.765924,37.1035385 219.416113,33.3904793 C219.067053,29.6774201 216.686689,26.8653846 214.100643,27.1096154 C211.514596,27.3538462 209.701736,30.5611598 210.050796,34.2742189" id="Fill-95" stroke="none" fill="#FFFFFF" fill-rule="evenodd"></path>
                            <path d="M210.983124,34.1862959 C211.284141,37.3891006 213.081988,39.8389231 214.99844,39.6578166 C216.914141,39.4767101 218.223304,36.7345621 217.921536,33.5310059 C217.619768,30.3289527 215.821921,27.8798817 213.90622,28.0602367 C211.989768,28.2405917 210.681356,30.9834911 210.983124,34.1862959" id="Fill-96" stroke="none" fill="#BADAE3" fill-rule="evenodd"></path>
                            <path d="M213.004669,36.3971479 C212.639845,36.3971479 212.457433,36.1281183 212.369605,35.8989172 C211.643711,34.0096982 211.531861,31.7935858 212.573036,29.8480059 C212.736681,29.5421538 212.966385,29.2152604 213.407027,29.0597041 C213.591691,28.9943254 213.751583,28.9642663 213.889705,28.9642663 C213.993297,28.9642663 214.084879,28.9807988 214.1652,29.0116095 C215.05474,29.3505266 214.620104,31.406574 214.533777,31.7830651 C214.232009,33.092142 213.982037,34.4027219 213.724559,35.7125503 C213.666757,36.0048757 213.469332,36.3866272 213.021184,36.3971479 C213.015929,36.3971479 213.009924,36.3971479 213.004669,36.3971479" id="Fill-97" stroke="none" fill="#E0F0F2" fill-rule="evenodd"></path>
                            <path d="M231.58442,49.5750888 C231.58442,49.5750888 225.755493,46.5466272 224.485365,45.7169941 C223.215988,44.8873609 220.599915,44.8873609 218.892148,43.7751716 C217.183631,42.6629822 217.585988,40.3829941 217.585988,40.3829941 C217.585988,40.3829941 219.808712,39.7780533 221.036052,39.6315148 C222.263392,39.4849763 224.168584,39.6315148 224.168584,39.6315148 C224.168584,39.6315148 223.334593,33.0147396 222.501353,30.5017929 C221.668113,27.9888462 214.100643,27.1096154 214.100643,27.1096154 C214.100643,27.1096154 216.616877,22.3602663 218.057407,22.063432 C219.496435,21.7673491 221.286775,21.227787 221.286775,21.227787 C221.286775,21.227787 221.866289,20.8933787 223.056847,20.575503 C224.247404,20.2576272 225.904125,20.575503 225.904125,20.575503 C225.904125,20.575503 227.732749,19.5542426 229.168024,19.774426 C230.604049,19.9946095 233.612721,23.5348284 234.406176,24.6770769 C235.199631,25.8193254 237.429861,33.5287515 237.624284,35.4743314 C237.818707,37.4191598 237.660316,39.4849763 242.183833,42.9012012 L231.58442,49.5750888" id="Fill-98" stroke="#23A79A" stroke-width="1" fill="#FFFFFF" fill-rule="evenodd"></path>
                            <g id="Group-103" stroke="none" stroke-width="1" fill="none" fill-rule="evenodd" transform="translate(96.836000, 39.076923)">
                                <mask id="mask-8" fill="white">
                                    <use xlink:href="#path-7"></use>
                                </mask>
                                <g id="Clip-100"></g>
                                <path d="M136.963637,19.1589645 C136.963637,19.1589645 130.926776,12.1664497 130.558199,10.8956982 C130.189621,9.62419527 136.889321,1.51873964 140.855093,0.633497041 C144.820865,-0.251745562 151.033383,6.64007101 151.033383,6.64007101 L136.963637,19.1589645" id="Fill-99" fill="#23A79A" mask="url(#mask-8)"></path>
                                <path d="M62.330856,248.129444 C70.0424547,213.656083 77.117488,181.309408 77.117488,181.309408 L11.9611227,188.662633 C11.9611227,188.662633 4.83354267,214.040089 0.617048,248.129444 L62.330856,248.129444" id="Fill-101" fill="#19313F" mask="url(#mask-8)"></path>
                                <path d="M103.239187,248.129444 C102.959939,232.20184 102.875864,220.403615 104.504811,217.808757 C107.981148,212.269604 95.1214773,180.921645 95.1214773,180.921645 L64.7847853,188.662633 L50.5408853,244.003071 C50.5408853,244.003071 50.6189547,245.50603 50.7548253,248.129444 L103.239187,248.129444" id="Fill-102" fill="#19313F" mask="url(#mask-8)"></path>
                            </g>
                            <path d="M189.55084,11.5013905 C193.783849,14.1082722 195.464592,21.2796391 195.464592,21.2796391 C195.464592,21.2796391 197.040241,29.427929 198.016859,35.6208698 C198.993476,41.8138107 204.202352,46.7029349 203.551524,48.332142 C202.899945,49.9621006 199.319265,49.9621006 199.319265,52.2443432 C199.319265,54.5250828 198.341897,61.1005266 198.341897,65.6357041 C198.341897,70.1708817 193.783849,70.8224142 189.55084,71.1485562 C185.318581,71.4739467 179.783916,72.4523728 178.806548,74.4084734 C177.829931,76.3638225 178.806548,86.7936036 178.806548,86.7936036 L145.596304,83.8605799 C145.596304,83.8605799 148.996073,73.8816864 148.761865,65.1818107 C148.526907,56.4811834 148.201117,46.0506509 148.201117,46.0506509 C148.201117,46.0506509 150.154352,27.1464379 161.876012,19.6496805 C173.596921,12.1529231 189.55084,11.5013905 189.55084,11.5013905" id="Fill-104" stroke="none" fill="#FFFFFF" fill-rule="evenodd"></path>
                            <path d="M189.55084,11.5013905 C193.783849,14.1082722 195.464592,21.2796391 195.464592,21.2796391 C195.464592,21.2796391 197.040241,29.427929 198.016859,35.6208698 C198.993476,41.8138107 204.202352,46.7029349 203.551524,48.332142 C202.899945,49.9621006 199.319265,49.9621006 199.319265,52.2443432 C199.319265,54.5250828 198.341897,61.1005266 198.341897,65.6357041 C198.341897,70.1708817 193.783849,70.8224142 189.55084,71.1485562 C185.318581,71.4739467 179.783916,72.4523728 178.806548,74.4084734 C177.829931,76.3638225 178.806548,86.7936036 178.806548,86.7936036 L145.596304,83.8605799 C145.596304,83.8605799 148.996073,73.8816864 148.761865,65.1818107 C148.526907,56.4811834 148.201117,46.0506509 148.201117,46.0506509 C148.201117,46.0506509 150.154352,27.1464379 161.876012,19.6496805 C173.596921,12.1529231 189.55084,11.5013905 189.55084,11.5013905" id="Fill-104-Copy" stroke="#23A79A" stroke-width="1" fill="#FFFFFF" fill-rule="evenodd"></path>
                            <g id="Group-107" stroke="none" stroke-width="1" fill="none" fill-rule="evenodd" transform="translate(147.881333, 52.603550)">
                                <mask id="mask-10" fill="white">
                                    <use xlink:href="#path-9"></use>
                                </mask>
                                <g id="Clip-106"></g>
                                <path d="M0.742409333,7.6162426 C0.671096,5.11381657 0.599032,2.65347337 0.534474667,0.503491124 C0.599032,2.65347337 0.671096,5.11381657 0.742409333,7.6162426" id="Fill-105" mask="url(#mask-10)"></path>
                            </g>
                            <path d="M145.958125,82.7205858 C146.791365,79.9799408 148.773876,72.752213 148.773876,66.0520237 C148.773876,65.7604497 148.770123,65.4703787 148.761865,65.1818107 C148.718327,63.5616213 148.671035,61.8813136 148.623743,60.2197929 C148.552429,57.7173669 148.480365,55.2570237 148.415808,53.1070414 C151.489037,51.0757929 154.713901,49.6329527 157.679035,49.6329527 C160.087173,49.6329527 162.32416,50.5843254 164.167797,52.9447219 C173.433276,64.8023136 183.017037,68.3853669 197.373537,68.5950296 C195.826413,70.485 192.657099,70.9065799 189.62966,71.1425444 C189.622904,71.1425444 189.616899,71.1432959 189.610143,71.1440473 C189.604888,71.1440473 189.598883,71.1447988 189.593628,71.1455503 C189.589124,71.1455503 189.58462,71.1455503 189.580116,71.1463018 C189.570357,71.1470533 189.560599,71.1478047 189.55084,71.1485562 C185.318581,71.4739467 179.783916,72.4523728 178.806548,74.4084734 C178.480759,75.0615089 178.371912,76.6599053 178.372663,78.4995266 C178.372663,79.4065621 178.399687,80.372213 178.439472,81.3123136 C176.195729,81.642213 174.95788,81.9052308 174.95788,81.9052308 C172.091084,81.4107574 168.812172,81.2033491 165.325325,81.2033491 C159.130824,81.2033491 152.286245,81.8578876 145.958125,82.7205858" id="Fill-108" stroke="none" fill="#FFFFFF" fill-rule="evenodd"></path>
                            <g id="Group-112" stroke="none" stroke-width="1" fill="none" fill-rule="evenodd" transform="translate(90.080000, 0.000000)">
                                <path d="M91.0063227,21.2788876 C93.9361747,20.953497 100.879841,21.2788876 105.384592,21.2788876 C109.890093,21.2788876 112.820696,15.4120888 110.540921,12.1529231 C108.261897,8.89300592 105.384592,3.0262071 105.384592,3.0262071 C105.384592,3.0262071 100.448208,7.26379882 91.0063227,3.0262071 C81.5636867,-1.21063314 63.6565333,-1.21063314 57.4702893,12.1529231 C57.4702893,12.1529231 45.42284,17.0420473 44.772012,26.4941538 C44.121184,35.9462604 46.1224613,39.641284 50.6324667,46.0506509 C55.1950187,52.5344142 58.6818653,65.1818107 58.6818653,65.1818107 C58.6818653,65.1818107 64.3073613,65.6078994 69.8427773,65.2817574 C75.3774427,64.9556154 80.5870693,56.8073254 82.8660933,52.8958757 C82.8660933,52.8958757 74.8279547,46.7029349 76.8937893,40.5099941 C78.9588733,34.3170533 87.098352,37.2500769 88.07572,40.1838521 C89.0523373,43.1176272 91.98294,47.3544675 91.98294,47.3544675 L95.5643707,47.6806095 C95.5643707,47.6806095 96.540988,38.6869053 96.2159493,33.0801183 C95.8894093,27.4725799 91.0063227,21.2788876 91.0063227,21.2788876" id="Fill-109" fill="#23A79A"></path>
                                <path d="M84.87788,81.9052308 C84.87788,81.9052308 105.096336,77.6120296 130.217396,81.9052308 C155.338456,86.1991834 165.141412,88.6527633 165.141412,88.6527633 C165.141412,88.6527633 148.598971,73.9320355 144.922205,69.6380828 C141.246191,65.3448817 138.795264,59.8245148 143.697117,54.3041479 C148.598971,48.7845325 157.789383,45.7169941 157.789383,45.7169941 C157.789383,45.7169941 165.141412,45.7169941 174.945119,55.5313136 C184.748075,65.3448817 203.742193,85.5859763 204.966531,99.0802899 C206.19312,112.573852 192.100855,116.867805 164.528868,123.614586 C136.957632,130.361367 114.535969,140.788893 110.1228,157.349994 C105.709631,173.910343 118.576057,214.392533 121.026984,222.365728 C123.477911,230.339675 113.06166,241.173751 113.06166,241.173751 C113.06166,241.173751 44.4394667,266.479817 11.9663773,251.477284 C11.9663773,251.477284 -3.35172667,243.220781 1.55012667,224.820059 C6.45198,206.419337 5.22614133,159.189615 4.61359733,142.629266 C4.00105333,126.068166 11.9663773,94.7863373 33.410672,86.8123905 C33.410672,86.8123905 67.1096,78.8384438 84.87788,81.9052308" id="Fill-111" fill="#E1F1F0"></path>
                            </g>
                            <g id="Group-115" stroke="none" stroke-width="1" fill="none" fill-rule="evenodd" transform="translate(201.929333, 188.621302)">
                                <mask id="mask-12" fill="white">
                                    <use xlink:href="#path-11"></use>
                                </mask>
                                <g id="Clip-114"></g>
                                <path d="M8.49379333,41.4410769 C9.381832,39.1167515 9.83298267,36.6917278 9.36081333,34.4538225 C9.83373333,36.6924793 9.38258267,39.1167515 8.49379333,41.4410769 M9.36006267,34.451568 C9.35405733,34.4207574 9.34730133,34.3899467 9.34054533,34.3591361 C9.34730133,34.3899467 9.35405733,34.4207574 9.36006267,34.451568 M7.83771067,29.3850947 C6.54130933,25.1159408 4.69166667,18.8283136 2.90583067,11.776432 L2.90658133,11.776432 C4.69166667,18.8283136 6.54130933,25.1159408 7.83771067,29.3850947 M0.499944,1.47815976 L0.499944,1.47815976 C0.421124,1.10617751 0.343054667,0.733443787 0.265736,0.360710059 C0.343054667,0.733443787 0.421124,1.10617751 0.499944,1.47815976" id="Fill-113" fill="url(#linearGradient-13)" mask="url(#mask-12)"></path>
                            </g>
                            <path d="M204.835915,200.397734 L204.835164,200.397734 C204.200851,197.890799 203.573293,195.283917 202.982519,192.640964 C203.573293,195.283917 204.200851,197.890799 204.835915,200.397734 M202.58992,190.850941 L202.58992,190.850941 C202.535872,190.599195 202.482575,190.351207 202.429277,190.099462 C202.482575,190.351207 202.535872,190.599195 202.58992,190.850941" id="Fill-116" stroke="none" fill="#4B5055" fill-rule="evenodd"></path>
                            <path d="M202.982519,192.640964 L202.982519,192.640964 C202.849651,192.045793 202.719035,191.449118 202.58992,190.850941 C202.719035,191.449118 202.849651,192.045793 202.982519,192.640964" id="Fill-117" stroke="none" fill="#737981" fill-rule="evenodd"></path>
                            <path d="M206.119555,237.579426 C212.178936,227.478041 205.633123,211.74958 199.961085,198.570136 C201.105852,195.162929 201.809227,191.953361 202.195069,188.982012 C202.272388,189.354746 202.350457,189.727479 202.429277,190.099462 C202.482575,190.351207 202.535872,190.599195 202.58992,190.850941 C202.719035,191.449118 202.849651,192.045793 202.982519,192.640964 C203.573293,195.283917 204.200851,197.890799 204.835164,200.397734 C206.621,207.449615 208.470643,213.737243 209.767044,218.006396 C210.339052,219.888101 210.802964,221.376781 211.106984,222.365728 C211.111488,222.380006 211.115241,222.393533 211.119745,222.407811 C211.120496,222.410817 211.121997,222.413822 211.122748,222.416828 C211.126501,222.430355 211.131005,222.443882 211.134759,222.45816 C211.135509,222.459663 211.13626,222.461917 211.13626,222.46342 C211.140013,222.476195 211.143767,222.48897 211.14752,222.500994 C211.148271,222.504 211.149021,222.507006 211.149772,222.50926 C211.153525,222.522787 211.157279,222.537065 211.161783,222.550592 C211.162533,222.552846 211.162533,222.555852 211.164035,222.558107 C211.167037,222.570882 211.170791,222.584408 211.174544,222.596432 C211.174544,222.598686 211.175295,222.600189 211.176045,222.601692 C211.179799,222.615219 211.183552,222.629497 211.187305,222.643775 C211.188056,222.646781 211.188807,222.649036 211.189557,222.652793 C211.19256,222.665568 211.196313,222.679095 211.200067,222.692621 C211.200067,222.693373 211.200067,222.694124 211.200817,222.694876 C211.204571,222.709154 211.207573,222.72268 211.211327,222.736959 C211.212077,222.739964 211.212828,222.74297 211.213579,222.745976 C211.217332,222.760254 211.221085,222.774533 211.224839,222.788811 C211.224839,222.789562 211.224839,222.789562 211.224839,222.789562 C211.228592,222.80384 211.231595,222.81887 211.235348,222.833148 C211.236099,222.834651 211.236099,222.836154 211.236849,222.838408 C211.240603,222.853438 211.243605,222.867716 211.247359,222.882746 C211.247359,222.883497 211.247359,222.884249 211.248109,222.885 C211.251112,222.90003 211.254865,222.914308 211.257868,222.928586 C211.258619,222.930089 211.258619,222.93084 211.258619,222.932343 C211.262372,222.946621 211.265375,222.962402 211.269128,222.977432 C211.269128,222.978183 211.269128,222.979686 211.269879,222.980438 C211.276635,223.011249 211.283391,223.042059 211.289396,223.07287 C211.290147,223.07287 211.290147,223.074373 211.290147,223.075124 C211.762316,225.31303 211.311165,227.738053 210.423127,230.062379 C210.422376,230.064633 210.421625,230.066136 210.420875,230.067639 C210.41562,230.080414 210.411116,230.092438 210.406612,230.105213 C210.405111,230.109722 210.402859,230.113479 210.401357,230.117988 C210.396853,230.130012 210.392349,230.142036 210.387095,230.154811 C210.384092,230.162325 210.38184,230.16984 210.378087,230.178107 C210.376585,230.182615 210.375084,230.187124 210.372832,230.191633 C209.291121,232.966846 207.596867,235.591763 206.119555,237.579426" id="Fill-118" stroke="none" fill="#80C9C2" fill-rule="nonzero"></path>
                            <g id="Group-121" stroke="none" stroke-width="1" fill="none" fill-rule="evenodd" transform="translate(198.926667, 97.692308)">
                                <mask id="mask-15" fill="white">
                                    <use xlink:href="#path-14"></use>
                                </mask>
                                <g id="Clip-120"></g>
                                <path d="M0.378336,69.5539172 C0.290508,65.7732249 0.547986667,62.3893136 1.27613333,59.6576864 C5.68930267,43.0965858 28.1109653,32.6690592 55.6822013,25.9222781 C82.1499573,19.4452781 96.1956813,15.2294793 96.19418,2.96533728 C96.1956813,15.2294793 82.1499573,19.4452781 55.6822013,25.9222781 C28.1109653,32.6690592 5.68930267,43.0965858 1.27613333,59.6576864 C0.547986667,62.3893136 0.290508,65.7724734 0.378336,69.5539172 M96.0920893,1.10843195 C96.088336,1.07010651 96.083832,1.03178107 96.079328,0.993455621 C96.083832,1.03178107 96.088336,1.07010651 96.0920893,1.10843195 M96.0785773,0.988195266 C96.0733227,0.937094675 96.0673173,0.886745562 96.0605613,0.83564497 C96.0673173,0.886745562 96.0733227,0.937094675 96.0785773,0.988195266" id="Fill-119" mask="url(#mask-15)"></path>
                            </g>
                            <path d="M193.21034,180.081491 C188.383553,161.255432 182.634948,121.245923 213.69228,120.534272 C247.977479,119.748976 295.046531,99.0802899 288.918839,84.0153846 C292.040111,89.0052071 294.319135,93.8965858 294.939936,98.1747574 C294.939936,98.1770118 294.939936,98.1777633 294.940687,98.1800178 C294.942188,98.1942959 294.94444,98.208574 294.946692,98.2221006 C294.947443,98.2266095 294.947443,98.2311183 294.948193,98.2348757 C294.950445,98.2506568 294.952697,98.2664379 294.954949,98.2822189 C294.9557,98.2867278 294.956451,98.2912367 294.956451,98.2949941 C294.957952,98.3062663 294.959453,98.316787 294.960955,98.3280592 C294.962456,98.3363254 294.963207,98.3438402 294.964708,98.3521065 C294.965459,98.3588698 294.966209,98.3663846 294.967711,98.3738994 C294.968461,98.3821657 294.969963,98.3926864 294.970713,98.4009527 C294.971464,98.4047101 294.972215,98.4099704 294.972965,98.4137278 C294.975217,98.4347692 294.97822,98.4565621 294.981223,98.4776036 C294.981223,98.479858 294.981223,98.4821124 294.981973,98.4843669 C294.983475,98.4956391 294.984976,98.5069112 294.985727,98.5181834 C294.986477,98.5211893 294.987228,98.5249467 294.987228,98.5279527 C294.993984,98.5790533 294.999989,98.6294024 295.005244,98.680503 C295.005995,98.6820059 295.005995,98.6842604 295.005995,98.6857633 C295.010499,98.7240888 295.015003,98.7624142 295.018756,98.8007396 C295.018756,98.8014911 295.019507,98.8022426 295.019507,98.8029941 C295.020257,98.8142663 295.021759,98.8255385 295.022509,98.8368107 C295.02326,98.840568 295.02326,98.8443254 295.024011,98.8473314 C295.025512,98.859355 295.026263,98.8698757 295.027764,98.8811479 C295.027764,98.8826509 295.027764,98.8856568 295.027764,98.8871598 C295.030016,98.9059467 295.032268,98.9262367 295.033769,98.9450237 C295.03452,98.951787 295.035271,98.9585503 295.036021,98.9653136 C295.036772,98.9728284 295.037523,98.9810947 295.038273,98.9886095 C295.039024,98.9976272 295.039775,99.006645 295.040525,99.0149112 C295.041276,99.0209231 295.042027,99.0284379 295.042777,99.0344497 C295.044279,99.0494793 295.045029,99.0645089 295.046531,99.0802899 C295.096075,99.6206036 295.120847,100.145888 295.120847,100.657645 C295.122348,112.921787 281.076624,117.137586 254.608868,123.614586 C227.037632,130.361367 204.615969,140.788893 200.2028,157.349994 C199.474653,160.081621 199.217175,163.465533 199.305003,167.246225 C199.210419,167.525775 198.118949,170.732337 196.519279,174.832408 C195.568935,176.608154 194.442935,178.370373 193.21034,180.081491" id="Fill-122" stroke="none" fill="#80C9C2" fill-rule="nonzero"></path>
                            <path d="M131.123451,245.342959 C128.260408,245.342959 125.308036,245.168615 122.262581,244.787615 C99.405532,241.927485 92.036988,239.603911 92.036988,239.603911 C92.036988,239.603911 91.5738267,236.325207 91.2630507,230.822124 C95.3324147,232.422775 100.939895,232.672266 104.039397,232.672266 C105.441643,232.672266 106.330432,232.621166 106.330432,232.621166 C110.148323,220.195456 112.551207,205.393568 110.04398,192.51697 C115.807599,194.227337 121.403068,195.017893 126.835643,195.017142 C129.194988,195.017142 131.523556,194.868349 133.820596,194.580533 C132.597009,208.454343 133.900917,224.389462 136.931359,233.805497 C148.029215,232.630183 159.951303,229.700166 170.329269,225.597089 C181.848249,223.346408 192.377851,207.514243 198.326884,194.764645 C198.854603,196.003083 199.404091,197.274586 199.961085,198.570136 C199.759156,199.172822 199.542213,199.783024 199.311759,200.397734 C191.957477,219.998568 182.991515,226.713787 174.405389,231.916278 C164.450048,237.948402 149.747491,245.342959 131.123451,245.342959 M179.339521,194.50313 C179.127083,184.664012 177.110792,175.415556 174.666621,170.52568 C174.394129,169.980858 174.058581,169.474361 173.666733,169.003935 C175.623721,149.105515 178.148213,128.109183 175.797876,108.633846 C174.397883,97.0347633 170.392325,89.6905562 162.264107,87.1791124 L190.974104,80.2008757 C190.974104,80.2008757 182.977252,96.175071 181.548733,105.41 C180.120215,114.64568 178.747996,178.90242 182.870657,191.325124 C182.887172,191.376976 182.904437,191.426574 182.921703,191.476923 C181.632808,192.645473 180.417479,193.666734 179.339521,194.50313" id="Fill-123" stroke="none" fill="#80C9C2" fill-rule="nonzero"></path>
                            <g id="Group-126" stroke="none" stroke-width="1" fill="none" fill-rule="evenodd" transform="translate(201.178667, 183.360947)">
                                <mask id="mask-17" fill="white">
                                    <use xlink:href="#path-16"></use>
                                </mask>
                                <g id="Clip-125"></g>
                                <path d="M1.01640267,5.62106509 C0.848253333,4.80721302 0.683106667,3.98810059 0.524716,3.17349704 C0.864017333,2.19657396 1.15602667,1.27976923 1.39624,0.439615385 C1.36996667,2.07107692 1.25286267,3.80098225 1.01640267,5.62106509" id="Fill-124" fill="url(#linearGradient-18)" mask="url(#mask-17)"></path>
                            </g>
                            <g id="Group-129" stroke="none" stroke-width="1" fill="none" fill-rule="evenodd" transform="translate(198.926667, 166.828402)">
                                <mask id="mask-20" fill="white">
                                    <use xlink:href="#path-19"></use>
                                </mask>
                                <g id="Clip-128"></g>
                                <path d="M0.379086667,0.43360355 C0.379086667,0.428343195 0.379086667,0.42308284 0.378336,0.417822485 C0.38284,0.405047337 0.385092,0.398284024 0.385092,0.398284024 C0.38284,0.410307692 0.381338667,0.421579882 0.379086667,0.43360355" id="Fill-127" mask="url(#mask-20)"></path>
                            </g>
                            <g id="Group-132" stroke="none" stroke-width="1" fill="none" fill-rule="evenodd" transform="translate(201.178667, 186.366864)">
                                <mask id="mask-22" fill="white">
                                    <use xlink:href="#path-21"></use>
                                </mask>
                                <g id="Clip-131"></g>
                                <path d="M1.01640267,2.61514793 C0.848253333,1.80129586 0.683106667,0.982934911 0.524716,0.167579882 C0.525466667,0.166828402 0.524716,0.168331361 0.524716,0.167579882 C0.683106667,0.982183432 0.848253333,1.80129586 1.01640267,2.61514793" id="Fill-130" fill="url(#linearGradient-23)" mask="url(#mask-22)"></path>
                            </g>
                            <path d="M199.961085,198.570136 C199.404091,197.274586 198.854603,196.003083 198.326884,194.764645 C199.717869,191.782024 200.859633,188.966231 201.703383,186.534444 C201.861773,187.349799 202.02692,188.16816 202.195069,188.982012 C201.809227,191.953361 201.105852,195.162929 199.961085,198.570136" id="Fill-133" stroke="none" fill="#80C9C2" fill-rule="nonzero"></path>
                            <g id="Group-136" stroke="none" stroke-width="1" fill="none" fill-rule="evenodd" transform="translate(198.926667, 166.828402)">
                                <mask id="mask-25" fill="white">
                                    <use xlink:href="#path-24"></use>
                                </mask>
                                <g id="Clip-135"></g>
                                <path d="M0.379086667,0.43435503 C0.378336,0.429094675 0.378336,0.42383432 0.378336,0.417822485 C0.379086667,0.42308284 0.379086667,0.428343195 0.379086667,0.43360355 L0.379086667,0.43435503" id="Fill-134" mask="url(#mask-25)"></path>
                            </g>
                            <path d="M196.519279,174.832408 C198.118949,170.732337 199.210419,167.525775 199.305003,167.246225 C199.305003,167.252237 199.305003,167.257497 199.305753,167.262757 C198.87412,169.735124 197.875733,172.296917 196.519279,174.832408" id="Fill-137" stroke="none" fill="#A8A49C" fill-rule="evenodd"></path>
                            <path d="M190.974104,80.2008757 C192.368092,80.7817692 170.328519,90.7291006 156.396896,112.38974 L144.964993,98.4903787 C144.964993,98.4903787 152.753911,87.8592012 175.143295,79.1660888 C175.143295,79.1660888 184.079981,77.3272189 190.974104,80.2008757" id="Fill-138" stroke="none" fill="#23A79A" fill-rule="evenodd"></path>
                            <path d="M174.96914,196.954456 C176.279053,198.131272 196.896864,181.230503 199.311759,167.226686 C199.311759,167.226686 203.184448,172.529876 203.387879,179.342787 C203.591309,186.15645 188.142589,222.116237 170.329269,225.597089 L174.96914,196.954456" id="Fill-139" stroke="none" fill="#23A79A" fill-rule="evenodd"></path>
                            <path d="M155.243872,87.0754083 C155.243872,87.0754083 161.313763,73.5743314 145.597805,73.5968475 C129.881848,73.6201716 134.028531,89.5748284 134.028531,89.5748284 C134.683112,89.4741302 135.009652,89.4237811 135.664233,89.3230828 C135.664233,89.3230828 135.687504,79.1029645 145.714159,79.1029645 C155.741564,79.1029645 152.569247,85.8925799 152.569247,85.8925799 C153.639697,86.3690178 154.174172,86.6049822 155.243872,87.0754083" id="Fill-140" stroke="none" fill="#23A79A" fill-rule="evenodd"></path>
                            <path d="M73.0766493,174.021562 C77.0033867,122.954787 98.2104707,96.7800118 146.567667,87.1520592 C165.66838,83.3488225 173.690004,91.1664615 175.797876,108.633846 C178.415451,130.323041 174.986405,153.896947 173.029417,175.741698 C154.83626,190.948633 133.852875,199.581627 110.04398,192.51697 C112.551207,205.393568 110.148323,220.195456 106.330432,232.621166 C106.330432,232.621166 94.8932747,233.277959 89.332336,229.878266 C81.267924,224.947811 86.9106853,196.051178 88.859416,184.04329 C79.1345293,178.863343 73.0766493,174.021562 73.0766493,174.021562" id="Fill-141" stroke="none" fill="#ECF9F8" fill-rule="evenodd"></path>
                            <path d="M150.766896,85.2756154 C162.411988,85.5747041 174.824261,88.0327929 174.691393,102.020828 C172.256981,96.7101243 166.012185,90.1542189 161.02926,93.1691538 C144.419259,103.223947 159.162352,170.015426 130.417073,174.029828 C112.516676,176.53 91.7787587,173.470728 73.4144493,168.516976 C76.2895027,141.35626 82.357892,105.094379 106.375472,90.461574 C118.892839,82.8355621 136.565784,84.909645 150.766896,85.2756154" id="Fill-143" stroke="none" fill="#E1F1F0" fill-rule="evenodd"></path>
                            <path d="M150.766896,85.2756154 C162.411988,85.5747041 174.824261,88.0327929 174.691393,102.020828 C172.256981,96.7101243 166.012185,90.1542189 161.02926,93.1691538 C144.419259,103.223947 159.162352,170.015426 130.417073,174.029828 C112.516676,176.53 91.7787587,173.470728 73.4144493,168.516976 C76.2895027,141.35626 82.357892,105.094379 106.375472,90.461574 C118.892839,82.8355621 136.565784,84.909645 150.766896,85.2756154" id="Fill-143-Copy" stroke="#23A79A" stroke-width="1" fill="#E1F1F0" fill-rule="evenodd"></path>
                            <path d="M96.336056,168.305811 C96.336056,168.305811 85.828224,160.570083 70.6865267,169.948544 C61.6740227,175.530533 58.1991867,211.321988 67.4263813,223.329124 C77.8869213,227.553941 83.3044827,229.12303 94.2386933,231.178325 C91.769,210.486343 91.3080907,188.642343 96.336056,168.305811" id="Fill-144" stroke="none" fill="#23A79A" fill-rule="evenodd"></path>
                            <path d="M100.702684,169.01145 C90.9282533,177.892432 94.453384,214.451148 101.095283,232.292769 C114.045784,233.473343 125.172165,233.53271 138.134677,232.489657 C141.307745,218.120621 151.104696,174.879 133.610409,170.055254 C124.703749,167.598669 105.862767,164.323722 100.702684,169.01145" id="Fill-145" stroke="none" fill="#23A79A" fill-rule="evenodd"></path>
                            <path d="M174.666621,170.52568 C170.04852,161.287746 147.141927,162.856083 140.549572,171.198254 C131.615137,182.50426 131.745753,217.695284 136.931359,233.805497 C148.029215,232.630183 159.951303,229.700166 170.329269,225.597089 C183.282773,212.505568 179.9911,181.177148 174.666621,170.52568" id="Fill-146" stroke="none" fill="#ECF9F8" fill-rule="evenodd"></path>
                            <path d="M153.245597,214.854693 C150.869737,214.854693 149.007333,214.503751 148.236399,213.697414 C142.714495,207.918538 145.437913,179.58326 150.967324,172.579473 C154.161411,168.535012 157.843431,167.227438 161.270975,167.227438 C167.546548,167.227438 172.967112,171.613071 172.967112,171.613071 C175.265653,181.482249 182.398488,202.713041 171.170016,210.334544 C167.417433,212.881308 158.883104,214.855444 153.245597,214.854693 L153.245597,214.854693 Z M149.064384,201.769935 L155.01642,201.769935 L155.01642,191.327379 L149.064384,191.327379 L149.064384,201.769935 Z" id="Fill-147" stroke="#23A79A" stroke-width="1" fill="#E1F1F0" fill-rule="evenodd"></path>
                            <path d="M112.657799,174.321402 C112.655549,176.157266 114.170395,177.703811 116.042557,177.740633 C117.91472,177.778959 119.432568,176.291781 119.433319,174.452911 C119.433319,172.61329 117.916972,171.119349 116.046311,171.083278 C114.1764,171.047959 112.660053,172.483284 112.657799,174.321402" id="Fill-148" stroke="none" fill="#FFFFFF" fill-rule="evenodd"></path>
                        </g>
                    </g>
                </g>
            </g>
        </g>
    </g>
</svg>