<?xml version="1.0" encoding="UTF-8"?>
<svg width="30px" height="40px" viewBox="0 0 30 40" version="1.1" xmlns="http://www.w3.org/2000/svg" xmlns:xlink="http://www.w3.org/1999/xlink">
    <!-- Generator: Sketch 55.2 (78181) - https://sketchapp.com -->
    <title>JPG</title>
    <desc>Created with Sketch.</desc>
    <g id="Property-Details" stroke="none" stroke-width="1" fill="none" fill-rule="evenodd">
        <g id="Artboard" transform="translate(-248.000000, -68.000000)" fill="#788195" fill-rule="nonzero">
            <g id="JPG" transform="translate(248.000000, 68.000000)">
                <path d="M4.359375,21.46875 L5.8359375,21.46875 L5.8359375,27.4511719 C5.8359375,28.2675822 5.58105724,28.9160132 5.07128906,29.3964844 C4.56152089,29.8769555 3.88867605,30.1171875 3.05273438,30.1171875 C2.16210492,30.1171875 1.4746118,29.8925804 0.990234375,29.4433594 C0.505856953,28.9941384 0.263671875,28.3691446 0.263671875,27.5683594 L1.74023438,27.5683594 C1.74023438,28.0214866 1.85253794,28.3623035 2.07714844,28.5908203 C2.30175894,28.8193371 2.626951,28.9335938 3.05273438,28.9335938 C3.45117387,28.9335938 3.76855351,28.8017591 4.00488281,28.5380859 C4.24121212,28.2744127 4.359375,27.9101586 4.359375,27.4453125 L4.359375,21.46875 Z M9.01171875,26.8300781 L9.01171875,30 L7.52929688,30 L7.52929688,21.46875 L10.7929688,21.46875 C11.7460985,21.46875 12.5029269,21.7167944 13.0634766,22.2128906 C13.6240262,22.7089869 13.9042969,23.3652303 13.9042969,24.1816406 C13.9042969,25.0175823 13.6298856,25.6679664 13.0810547,26.1328125 C12.5322238,26.5976586 11.7636768,26.8300781 10.7753906,26.8300781 L9.01171875,26.8300781 Z M9.01171875,25.640625 L10.7929688,25.640625 C11.3203151,25.640625 11.7226549,25.5166028 12,25.2685547 C12.2773451,25.0205066 12.4160156,24.6621117 12.4160156,24.1933594 C12.4160156,23.7324196 12.275392,23.3642592 11.9941406,23.0888672 C11.7128892,22.8134752 11.3261743,22.671875 10.8339844,22.6640625 L9.01171875,22.6640625 L9.01171875,25.640625 Z M21.7382812,28.8925781 C21.429686,29.2949239 21.0019559,29.5996083 20.4550781,29.8066406 C19.9082004,30.0136729 19.2871129,30.1171875 18.5917969,30.1171875 C17.8769496,30.1171875 17.2441434,29.9550797 16.6933594,29.6308594 C16.1425754,29.306639 15.7177749,28.8427765 15.4189453,28.2392578 C15.1201157,27.6357392 14.9648438,26.9316446 14.953125,26.1269531 L14.953125,25.4589844 C14.953125,24.1699154 15.2617157,23.1630896 15.8789062,22.4384766 C16.4960968,21.7138636 17.3574163,21.3515625 18.4628906,21.3515625 C19.4121141,21.3515625 20.1660128,21.5859352 20.7246094,22.0546875 C21.2832059,22.5234398 21.6191401,23.1992143 21.7324219,24.0820312 L20.2792969,24.0820312 C20.1152336,23.0546824 19.5195364,22.5410156 18.4921875,22.5410156 C17.8281217,22.5410156 17.3232439,22.780271 16.9775391,23.2587891 C16.6318342,23.7373071 16.453125,24.4394485 16.4414062,25.3652344 L16.4414062,26.0214844 C16.4414062,26.943364 16.6357402,27.6591771 17.0244141,28.1689453 C17.4130879,28.6787135 17.953125,28.9335938 18.6445312,28.9335938 C19.4023475,28.9335938 19.9414046,28.7617205 20.2617188,28.4179688 L20.2617188,26.7480469 L18.5039062,26.7480469 L18.5039062,25.6230469 L21.7382812,25.6230469 L21.7382812,28.8925781 Z"></path>
                <path d="M22.8174839,9.10814291 L28.7886326,9.10814291 C26.9970011,6.59281036 23.4911898,2.60692212 21.5079783,0.86405648 L21.5079783,7.60541817 C21.5077734,8.43402723 22.0952171,9.10814291 22.8174839,9.10814291 Z" id="Path"></path>
                <path d="M29.9110659,16.3781424 L29.9110659,11.2444134 L22.8174839,11.2444134 C21.0692909,11.2444134 19.6460667,9.61198803 19.6460667,7.60541817 L19.6460667,0 L2.27744552,0 C1.03985929,0 0.0368817089,1.15091422 0.0368817089,2.5712698 L0.0368817089,10.4852649 L0.0415943717,10.4852649 L0.0415943717,18.0171246 L28.2151302,18.0171246 L28.2151302,33.4431042 L0.0417992701,33.4431042 L0.0417992701,37.31302 C0.0909748819,38.6829706 1.07141364,39.776923 2.27765042,39.776923 L27.6711168,39.776923 C28.9084981,39.776923 29.9114757,38.625599 29.9114757,37.2056532 L29.9114757,35.0822913 L29.9110659,16.3781424 Z" id="Path"></path>
            </g>
        </g>
    </g>
</svg>