<?xml version="1.0" encoding="UTF-8"?>
<svg width="127px" height="36px" viewBox="0 0 127 36" version="1.1" xmlns="http://www.w3.org/2000/svg" xmlns:xlink="http://www.w3.org/1999/xlink">
    <!-- Generator: Sketch 51.2 (57519) - http://www.bohemiancoding.com/sketch -->
    <title>Temp logo</title>
    <desc>Created with Sketch.</desc>
    <defs></defs>
    <g id="Page-1" stroke="none" stroke-width="1" fill="none" fill-rule="evenodd">
        <g id="Properties-Page" transform="translate(-208.000000, -22.000000)" fill="#FFFFFF">
            <g id="Temp-logo" transform="translate(208.000000, 22.000000)">
                <path d="M45.8656497,18.610322 C45.8656497,19.0964355 45.9308302,19.5576841 46.0611934,19.9940814 C46.1915565,20.4304788 46.3789507,20.8116303 46.6233816,21.1375473 C46.8678125,21.4634644 47.1665568,21.7230893 47.5196237,21.9164299 C47.8726905,22.1097705 48.2719216,22.2064394 48.717329,22.2064394 C49.2170543,22.2064394 49.6543074,22.1042466 50.0291015,21.899858 C50.4038955,21.6954693 50.7107874,21.4165106 50.9497865,21.0629735 C51.1887856,20.7094364 51.3626005,20.2979032 51.4712364,19.8283617 C51.5798724,19.3588203 51.6233261,18.8533802 51.6015989,18.3120265 C51.6015989,17.7706728 51.5282707,17.2928525 51.3816122,16.8785511 C51.2349537,16.4642498 51.0312643,16.11348 50.7705381,15.8262311 C50.5098118,15.5389821 50.2056357,15.3207867 49.8580007,15.1716383 C49.5103657,15.0224898 49.1301456,14.9479167 48.717329,14.9479167 C48.261058,14.9479167 47.8536793,15.0418236 47.4951807,15.2296402 C47.1366821,15.4174567 46.8379377,15.6743197 46.5989386,16.0002367 C46.3599395,16.3261538 46.1779771,16.7128292 46.0530457,17.1602746 C45.9281144,17.60772 45.8656497,18.0910643 45.8656497,18.610322 Z M45.8656497,26.25 L44.887931,26.25 L44.887931,14.2850379 L45.8656497,14.2850379 L45.8656497,15.7930871 L45.8982403,15.7930871 C46.039467,15.5168862 46.2214295,15.2683092 46.4441332,15.0473485 C46.6668369,14.8263878 46.9112641,14.6440979 47.1774221,14.5004735 C47.4435802,14.356849 47.7178819,14.2463703 48.0003353,14.1690341 C48.2827888,14.0916978 48.5598063,14.0530303 48.8313961,14.0530303 C49.5158026,14.0530303 50.0969962,14.1690329 50.5749944,14.4010417 C51.0529925,14.6330504 51.4467919,14.9506766 51.7564044,15.3539299 C52.0660168,15.7571832 52.291433,16.2350036 52.4326597,16.7874053 C52.5738865,17.3398071 52.6444988,17.9308681 52.6444988,18.5606061 C52.6444988,19.1572 52.5684548,19.7316892 52.4163644,20.2840909 C52.2642741,20.8364927 52.0334262,21.3198369 51.7238137,21.7341383 C51.4142013,22.1484396 51.0231178,22.4798757 50.5505514,22.7284564 C50.077985,22.9770372 49.5212342,23.1013258 48.8802821,23.1013258 C48.2827844,23.1013258 47.7097384,22.9659894 47.1611268,22.6953125 C46.6125153,22.4246356 46.1806939,22.0241504 45.8656497,21.4938447 L45.8656497,26.25 Z M64.5998248,18.3617424 C64.1870082,18.538511 63.7687661,18.6545136 63.3450859,18.7097538 C62.9214057,18.764994 62.4977319,18.8091854 62.0740517,18.8423295 C61.3244637,18.8975697 60.7405542,19.0688117 60.3223058,19.3560606 C59.9040575,19.6433095 59.6949364,20.0797004 59.6949364,20.6652462 C59.6949364,20.9303991 59.7465377,21.1596423 59.8497418,21.352983 C59.952946,21.5463236 60.0887389,21.7065177 60.2571246,21.8335701 C60.4255103,21.9606225 60.6210521,22.0545294 60.8437558,22.1152936 C61.0664595,22.1760578 61.2918757,22.2064394 61.5200112,22.2064394 C61.9111006,22.2064394 62.2913207,22.156724 62.6606829,22.0572917 C63.0300451,21.9578594 63.3586639,21.8059511 63.6465492,21.6015625 C63.9344344,21.3971739 64.1652823,21.1375489 64.3390998,20.8226799 C64.5129174,20.5078109 64.5998248,20.1349453 64.5998248,19.704072 L64.5998248,18.3617424 Z M62.9539985,17.8645833 C63.1386796,17.8424873 63.3586641,17.8093437 63.6139585,17.7651515 C63.869253,17.7209594 64.0783741,17.6601961 64.241328,17.5828598 C64.4042819,17.5055236 64.5047686,17.3757111 64.5427912,17.1934186 C64.5808138,17.011126 64.5998248,16.842646 64.5998248,16.6879735 C64.5998248,16.1797639 64.4395892,15.7627068 64.1191132,15.4367898 C63.7986371,15.1108727 63.2581814,14.9479167 62.4977298,14.9479167 C62.1609583,14.9479167 61.8513505,14.9782983 61.5688971,15.0390625 C61.2864436,15.0998267 61.0393006,15.2047815 60.8274605,15.3539299 C60.6156204,15.5030784 60.4418055,15.70194 60.3060105,15.9505208 C60.1702156,16.1991016 60.0805923,16.5112039 60.0371379,16.8868371 L59.043124,16.8868371 C59.0757148,16.3786275 59.1897808,15.9449986 59.3853255,15.5859375 C59.5808702,15.2268764 59.833445,14.9341078 60.1430574,14.7076231 C60.4526699,14.4811384 60.8111631,14.3154203 61.2185479,14.210464 C61.6259327,14.1055077 62.0577541,14.0530303 62.5140251,14.0530303 C62.9377053,14.0530303 63.3369364,14.0999837 63.7117304,14.193892 C64.0865244,14.2878003 64.4124274,14.4369466 64.689449,14.6413352 C64.9664707,14.8457239 65.1837393,15.1191586 65.3412614,15.4616477 C65.4987836,15.8041368 65.5775434,16.2239558 65.5775434,16.7211174 L65.5775434,21.3944129 C65.5775434,21.7810941 65.6454399,22.0269092 65.7812348,22.1318655 C65.9170297,22.2368219 66.1913314,22.2119642 66.604148,22.0572917 L66.604148,22.8361742 C66.5281028,22.8582703 66.4167527,22.8914139 66.2700941,22.9356061 C66.1234356,22.9797982 65.9794951,23.0018939 65.8382684,23.0018939 C65.6861781,23.0018939 65.5395218,22.9853221 65.398295,22.952178 C65.2353411,22.930082 65.1049799,22.8776046 65.0072076,22.7947443 C64.9094352,22.7118841 64.8306753,22.6124532 64.7709256,22.4964489 C64.7111758,22.3804445 64.6704379,22.253394 64.6487107,22.1152936 C64.6269836,21.9771931 64.6161201,21.8308089 64.6161201,21.6761364 C64.2033035,22.1401538 63.7307443,22.4936857 63.1984281,22.7367424 C62.666112,22.9797992 62.0903501,23.1013258 61.4711252,23.1013258 C61.101763,23.1013258 60.7459856,23.0516103 60.4037824,22.952178 C60.0615792,22.8527457 59.7601189,22.6980755 59.4993927,22.4881629 C59.2386664,22.2782502 59.0322612,22.0213873 58.8801709,21.7175663 C58.7280806,21.4137453 58.6520365,21.0519276 58.6520365,20.6321023 C58.6520365,19.1737616 59.6351771,18.3120278 61.6014877,18.046875 L62.9539985,17.8645833 Z M73.5079278,22.8693182 L72.5302092,22.8693182 L72.5302092,14.2850379 L73.5079278,14.2850379 L73.5079278,15.8925189 L73.5405184,15.8925189 C73.8121083,15.2075408 74.162454,14.7297204 74.591566,14.4590436 C75.0206779,14.1883667 75.5882922,14.0530303 76.2944259,14.0530303 L76.2944259,15.1302083 C75.7403826,15.1191603 75.2841184,15.2075433 74.9256198,15.3953598 C74.5671212,15.5831764 74.2819561,15.8372774 74.070116,16.1576705 C73.8582759,16.4780635 73.7116196,16.856453 73.6301426,17.2928504 C73.5486657,17.7292478 73.5079278,18.1849724 73.5079278,18.6600379 L73.5079278,22.8693182 Z M85.5121398,22.9024621 C85.3926403,22.9245582 85.2351205,22.9632257 85.0395758,23.0184659 C84.8440311,23.0737061 84.6267625,23.1013258 84.3877634,23.1013258 C83.8989016,23.1013258 83.5268291,22.9770372 83.2715346,22.7284564 C83.0162401,22.4798757 82.8885948,22.0351989 82.8885948,21.3944129 L82.8885948,15.1136364 L81.6990372,15.1136364 L81.6990372,14.2850379 L82.8885948,14.2850379 L82.8885948,11.8986742 L83.8663134,11.8986742 L83.8663134,14.2850379 L85.4469586,14.2850379 L85.4469586,15.1136364 L83.8663134,15.1136364 L83.8663134,20.9966856 C83.8663134,21.2065983 83.8717452,21.3888881 83.8826088,21.5435606 C83.8934723,21.6982331 83.9260626,21.8252836 83.9803806,21.9247159 C84.0346986,22.0241482 84.1188902,22.0959594 84.2329579,22.1401515 C84.3470257,22.1843437 84.5072613,22.2064394 84.7136696,22.2064394 C84.8440327,22.2064394 84.9771098,22.1953915 85.1129047,22.1732955 C85.2486996,22.1511994 85.3817767,22.1235797 85.5121398,22.0904356 L85.5121398,22.9024621 Z M92.5136915,18.5440341 C92.5136915,19.0632917 92.5761562,19.546636 92.7010876,19.9940814 C92.8260189,20.4415269 93.0079814,20.8282023 93.2469804,21.1541193 C93.4859795,21.4800364 93.7847239,21.7368993 94.1432225,21.9247159 C94.5017211,22.1125325 94.9090998,22.2064394 95.3653708,22.2064394 C95.7781874,22.2064394 96.1584075,22.1318663 96.5060425,21.9827178 C96.8536775,21.8335693 97.1578536,21.6153739 97.4185799,21.328125 C97.6793062,21.0408761 97.8829955,20.6901062 98.029654,20.2758049 C98.1763126,19.8615036 98.2496407,19.3836833 98.2496407,18.8423295 C98.2713679,18.3009758 98.2279142,17.7955358 98.1192783,17.3259943 C98.0106423,16.8564528 97.8368274,16.4449197 97.5978283,16.0913826 C97.3588292,15.7378455 97.0519373,15.4588868 96.6771433,15.2544981 C96.3023493,15.0501095 95.8650961,14.9479167 95.3653708,14.9479167 C94.9199634,14.9479167 94.5207323,15.0445855 94.1676655,15.2379261 C93.8145987,15.4312667 93.5158543,15.6908917 93.2714234,16.0168087 C93.0269925,16.3427257 92.8395983,16.7238772 92.7092352,17.1602746 C92.5788721,17.596672 92.5136915,18.0579205 92.5136915,18.5440341 Z M92.5136915,22.8693182 L91.5359729,22.8693182 L91.5359729,10.9375 L92.5136915,10.9375 L92.5136915,15.6605114 C92.8287357,15.1302057 93.2605571,14.7297204 93.8091687,14.4590436 C94.3577802,14.1883667 94.9308262,14.0530303 95.5283239,14.0530303 C96.169276,14.0530303 96.7260269,14.1773188 97.1985932,14.4258996 C97.6711596,14.6744804 98.0622431,15.0059165 98.3718556,15.4202178 C98.681468,15.8345191 98.9123159,16.3178634 99.0644063,16.8702652 C99.2164966,17.4226669 99.2925406,17.9971561 99.2925406,18.59375 C99.2925406,19.223488 99.2219283,19.814549 99.0807016,20.3669508 C98.9394748,20.9193525 98.7140586,21.3971729 98.4044462,21.8004261 C98.0948337,22.2036794 97.7010343,22.5213057 97.2230362,22.7533144 C96.745038,22.9853231 96.1638444,23.1013258 95.479438,23.1013258 C95.2078481,23.1013258 94.9308306,23.0626582 94.6483771,22.985322 C94.3659237,22.9079857 94.091622,22.797507 93.825464,22.6538826 C93.5593059,22.5102581 93.3148787,22.3307302 93.092175,22.1152936 C92.8694713,21.8998569 92.6875088,21.6485179 92.5462821,21.3612689 L92.5136915,21.3612689 L92.5136915,22.8693182 Z M106.701475,22.8693182 L105.723756,22.8693182 L105.723756,14.2850379 L106.701475,14.2850379 L106.701475,15.4782197 C107.092564,15.0583944 107.497227,14.7159104 107.915476,14.4507576 C108.333724,14.1856047 108.836158,14.0530303 109.422792,14.0530303 C109.944244,14.0530303 110.427667,14.1441752 110.873075,14.3264678 C111.318482,14.5087604 111.69327,14.8263866 111.997451,15.2793561 C112.203859,15.588701 112.326073,15.9063273 112.364095,16.2322443 C112.402118,16.5581614 112.421129,16.8978833 112.421129,17.2514205 L112.421129,22.8693182 L111.44341,22.8693182 L111.44341,17.2679924 C111.44341,16.49463 111.275027,15.9146168 110.938256,15.5279356 C110.601484,15.1412544 110.042018,14.9479167 109.259839,14.9479167 C108.955658,14.9479167 108.678641,14.9948701 108.428778,15.0887784 C108.178915,15.1826867 107.953499,15.3069752 107.752523,15.4616477 C107.551546,15.6163202 107.380447,15.7930861 107.23922,15.9919508 C107.097994,16.1908154 106.989359,16.4007249 106.913314,16.6216856 C106.815542,16.8978865 106.755793,17.1630353 106.734066,17.4171402 C106.712338,17.671245 106.701475,17.9474417 106.701475,18.2457386 L106.701475,22.8693182 Z M120.221151,18.5440341 C120.221151,19.0632917 120.283616,19.546636 120.408547,19.9940814 C120.533478,20.4415269 120.715441,20.8282023 120.95444,21.1541193 C121.193439,21.4800364 121.492183,21.7368993 121.850682,21.9247159 C122.209181,22.1125325 122.616559,22.2064394 123.07283,22.2064394 C123.485647,22.2064394 123.865867,22.1318663 124.213502,21.9827178 C124.561137,21.8335693 124.865313,21.6153739 125.126039,21.328125 C125.386766,21.0408761 125.590455,20.6901062 125.737113,20.2758049 C125.883772,19.8615036 125.9571,19.3836833 125.9571,18.8423295 C125.978827,18.3009758 125.935374,17.7955358 125.826738,17.3259943 C125.718102,16.8564528 125.544287,16.4449197 125.305288,16.0913826 C125.066289,15.7378455 124.759397,15.4588868 124.384603,15.2544981 C124.009809,15.0501095 123.572556,14.9479167 123.07283,14.9479167 C122.627423,14.9479167 122.228192,15.0445855 121.875125,15.2379261 C121.522058,15.4312667 121.223314,15.6908917 120.978883,16.0168087 C120.734452,16.3427257 120.547058,16.7238772 120.416695,17.1602746 C120.286331,17.596672 120.221151,18.0579205 120.221151,18.5440341 Z M120.221151,22.8693182 L119.243432,22.8693182 L119.243432,10.9375 L120.221151,10.9375 L120.221151,15.6605114 C120.536195,15.1302057 120.968017,14.7297204 121.516628,14.4590436 C122.06524,14.1883667 122.638286,14.0530303 123.235783,14.0530303 C123.876735,14.0530303 124.433486,14.1773188 124.906053,14.4258996 C125.378619,14.6744804 125.769703,15.0059165 126.079315,15.4202178 C126.388927,15.8345191 126.619775,16.3178634 126.771866,16.8702652 C126.923956,17.4226669 127,17.9971561 127,18.59375 C127,19.223488 126.929388,19.814549 126.788161,20.3669508 C126.646934,20.9193525 126.421518,21.3971729 126.111906,21.8004261 C125.802293,22.2036794 125.408494,22.5213057 124.930496,22.7533144 C124.452497,22.9853231 123.871304,23.1013258 123.186897,23.1013258 C122.915308,23.1013258 122.63829,23.0626582 122.355837,22.985322 C122.073383,22.9079857 121.799081,22.797507 121.532923,22.6538826 C121.266765,22.5102581 121.022338,22.3307302 120.799634,22.1152936 C120.576931,21.8998569 120.394968,21.6485179 120.253742,21.3612689 L120.221151,21.3612689 L120.221151,22.8693182 Z" id="partbnb-copy"></path>
                <path d="M5.51806505,5.43426901 L22.874464,15.2040768 C23.5039255,15.5583967 23.8934203,16.2246019 23.8934203,16.9469345 L23.8934203,31.4163632 C23.8934203,32.1290365 23.5141857,32.7878669 22.8979215,33.1458075 L18.5914118,35.6471278 L18.5914118,19.3142379 L13.9435589,16.6591898 L13.9435589,35.6471278 L10.2912047,33.5257561 C9.67494045,33.1678156 9.29570592,32.5089851 9.29570592,31.7963119 L9.29570592,14.0022077 L4.64785296,11.3558437 L4.64785296,30.247967 L0.308232931,27.7274154 C0.117408521,27.6165801 0,27.4127105 0,27.1921957 L0,9.00684325 C0,8.78668886 0.117028272,8.58309574 0.307360028,8.47213154 L5.51806505,5.43426901 Z M10.4844452,2.53884885 L14.7832151,0.0843920699 C14.977497,-0.0288750872 15.2179615,-0.0280744198 15.4114833,0.0864839954 L32.5410284,10.1004714 C32.7293472,10.2119498 32.8448276,10.4144096 32.8448276,10.6330912 L32.8448276,27.1921957 C32.8448276,27.4127105 32.7274191,27.6165801 32.5365947,27.7274154 L28.5725438,29.8498557 L28.5725438,14.2322312 C28.5725438,13.5206867 28.1944996,12.8627222 27.5797768,12.5043766 L10.4844452,2.53884885 Z" id="Combined-Shape-Copy"></path>
            </g>
        </g>
    </g>
</svg>