<?xml version="1.0" encoding="UTF-8"?>
<svg width="16px" height="17px" viewBox="0 0 16 17" version="1.1" xmlns="http://www.w3.org/2000/svg" xmlns:xlink="http://www.w3.org/1999/xlink">
    <!-- Generator: Sketch 55.2 (78181) - https://sketchapp.com -->
    <title>noun_setting_2434720</title>
    <desc>Created with Sketch.</desc>
    <g id="Homepage" stroke="none" stroke-width="1" fill="none" fill-rule="evenodd">
        <g id="Home_v7-Copy-10" transform="translate(-261.000000, -70.000000)" fill="#788195" fill-rule="nonzero">
            <g id="Group-6" transform="translate(54.000000, 58.000000)">
                <g id="noun_setting_2434720" transform="translate(207.000000, 12.000000)">
                    <path d="M15.5882762,10.5777778 L15.0371651,10.2044444 C14.4504985,9.79555556 14.0949429,9.13777778 14.0949429,8.42666667 C14.0949429,7.71555556 14.4504985,7.04 15.0371651,6.64888889 L15.5882762,6.27555556 C15.9616096,6.02666667 16.0682762,5.52888889 15.8371651,5.15555556 L14.7527207,3.27111111 C14.5393874,2.88 14.0593874,2.73777778 13.6504985,2.93333333 L13.0282762,3.23555556 C12.3882762,3.53777778 11.6593874,3.50222222 11.0371651,3.16444444 C11.0371651,3.16444444 11.0193874,3.16444444 11.0193874,3.14666667 C10.4149429,2.79111111 10.006054,2.16888889 9.95272069,1.45777778 L9.89938736,0.782222222 C9.8638318,0.337777778 9.49049847,6.57252031e-14 9.0638318,6.57252031e-14 L6.89494292,6.57252031e-14 C6.45049847,6.57252031e-14 6.07716514,0.337777778 6.05938736,0.782222222 L6.00605403,1.45777778 C5.95272069,2.16888889 5.56160958,2.79111111 4.93938736,3.14666667 C4.93938736,3.14666667 4.92160958,3.14666667 4.92160958,3.16444444 C4.31716514,3.52 3.57049847,3.53777778 2.93049847,3.23555556 L2.30827625,2.91555556 C1.91716514,2.72 1.43716514,2.88 1.20605403,3.25333333 L0.121609582,5.13777778 C-0.0917237514,5.52888889 0.0149429152,6.00888889 0.370498471,6.25777778 L0.921609582,6.63111111 C1.50827625,7.04 1.8638318,7.69777778 1.8638318,8.40888889 C1.8638318,9.12 1.50827625,9.79555556 0.921609582,10.1866667 L0.370498471,10.56 C-0.00283486254,10.8088889 -0.109501529,11.3066667 0.121609582,11.68 L1.20605403,13.5822222 C1.41938736,13.9733333 1.89938736,14.1155556 2.30827625,13.92 L2.93049847,13.6177778 C3.57049847,13.3155556 4.29938736,13.3511111 4.92160958,13.6888889 C4.92160958,13.6888889 4.93938736,13.6888889 4.93938736,13.7066667 C5.5438318,14.0622222 5.95272069,14.6844444 6.00605403,15.3955556 L6.05938736,16.0711111 C6.09494292,16.5155556 6.46827625,16.8533333 6.89494292,16.8533333 L9.0638318,16.8533333 C9.50827625,16.8533333 9.88160958,16.5155556 9.89938736,16.0711111 L9.95272069,15.3955556 C10.006054,14.6844444 10.3971651,14.0622222 11.0193874,13.7066667 C11.0193874,13.7066667 11.0371651,13.7066667 11.0371651,13.6888889 C11.6416096,13.3333333 12.3882762,13.3155556 13.0282762,13.6177778 L13.6504985,13.92 C14.0416096,14.1155556 14.5216096,13.9555556 14.7527207,13.5822222 L15.8371651,11.6977778 C16.0504985,11.3244444 15.9438318,10.8444444 15.5882762,10.5777778 Z M7.97938736,12.0177778 C5.98827625,12.0177778 4.38827625,10.4 4.38827625,8.42666667 C4.38827625,6.45333333 5.98827625,4.83555556 7.97938736,4.83555556 C9.97049847,4.83555556 11.5704985,6.45333333 11.5704985,8.42666667 C11.5704985,10.4 9.97049847,12.0177778 7.97938736,12.0177778 Z" id="Shape"></path>
                </g>
            </g>
        </g>
    </g>
</svg>