<?xml version="1.0" encoding="UTF-8"?>
<svg width="142px" height="36px" viewBox="0 0 142 36" version="1.1" xmlns="http://www.w3.org/2000/svg" xmlns:xlink="http://www.w3.org/1999/xlink">
    <!-- Generator: Sketch 52.3 (67297) - http://www.bohemiancoding.com/sketch -->
    <title>Partbnb Logo - RGB</title>
    <desc>Created with Sketch.</desc>
    <g id="Blocks" stroke="none" stroke-width="1" fill="none" fill-rule="evenodd">
        <g id="How-Does-it-work?-Copy-6" transform="translate(-208.000000, -23.000000)">
            <g id="Partbnb-Logo---RGB" transform="translate(208.000000, 23.000000)">
                <path d="M135.226336,24.0896462 C133.087689,24.0896462 131.446778,22.5615166 131.446778,20.1646327 C131.446778,17.7660603 133.087689,16.238775 135.226336,16.238775 C137.365837,16.238775 138.981135,17.7660603 138.981135,20.1646327 C138.981135,22.5615166 137.365837,24.0896462 135.226336,24.0896462 Z M135.558445,13.7473329 C133.943147,13.7473329 132.516529,14.287666 131.494588,15.4164556 L131.494588,9 L128.522679,9 L128.522679,26.4392509 L131.352012,26.4392509 L131.352012,24.8174073 C132.350047,26.0162714 133.823622,26.6047279 135.558445,26.6047279 C139.267142,26.6047279 142,24.0660066 142,20.1646327 C142,16.2624146 139.267142,13.7473329 135.558445,13.7473329 Z M120.29593,13.7473329 C118.442436,13.7473329 116.897146,14.3585847 115.923015,15.5101696 L115.923015,13.888326 L113.094537,13.888326 L113.094537,26.4392509 L116.065592,26.4392509 L116.065592,20.093714 C116.065592,17.5786323 117.491357,16.3088495 119.607807,16.3088495 C121.508258,16.3088495 122.625818,17.39036 122.625818,19.6234554 L122.625818,26.4392509 L125.596019,26.4392509 L125.596019,19.2469107 C125.596019,15.4628905 123.339554,13.7473329 120.29593,13.7473329 Z M104.345292,24.0896462 C102.205791,24.0896462 100.565734,22.5615166 100.565734,20.1646327 C100.565734,17.7660603 102.205791,16.238775 104.345292,16.238775 C106.484793,16.238775 108.100091,17.7660603 108.100091,20.1646327 C108.100091,22.5615166 106.484793,24.0896462 104.345292,24.0896462 Z M104.677401,13.7473329 C103.06125,13.7473329 101.634631,14.287666 100.613544,15.4164556 L100.613544,9 L97.6416355,9 L97.6416355,26.4392509 L100.470968,26.4392509 L100.470968,24.8174073 C101.469003,26.0162714 102.942578,26.6047279 104.677401,26.6047279 C108.385244,26.6047279 111.118956,24.0660066 111.118956,20.1646327 C111.118956,16.2624146 108.385244,13.7473329 104.677401,13.7473329 Z M95.2144201,23.6658224 C94.7636394,24.0187275 94.1694284,24.1842045 93.5504585,24.1842045 C92.4337516,24.1842045 91.7925843,23.5248292 91.7925843,22.3031699 L91.7925843,16.3324891 L95.1913688,16.3324891 L95.1913688,13.9820401 L91.7925843,13.9820401 L91.7925843,11.1148975 L88.8206755,11.1148975 L88.8206755,22.3732443 C88.8206755,25.1466728 90.4137757,26.6047279 93.1944442,26.6047279 C94.2641948,26.6047279 95.3339453,26.3218973 96.0468278,25.7579246 L95.2144201,23.6658224 Z M82.7334276,15.7220815 L82.7334276,13.888326 L79.904949,13.888326 L79.904949,26.4392509 L82.8760041,26.4392509 L82.8760041,20.3520608 C82.8760041,17.7896999 84.3026228,16.4734822 86.5607954,16.4734822 C86.7742332,16.4734822 86.9885248,16.4979661 87.248919,16.544401 L87.248919,13.7473329 C85.1341767,13.7473329 83.5888865,14.4050196 82.7334276,15.7220815 Z M70.1576686,24.0896462 C68.0181675,24.0896462 66.402016,22.5615166 66.402016,20.1646327 C66.402016,17.7660603 68.0181675,16.238775 70.1576686,16.238775 C72.3202211,16.238775 73.9363726,17.7660603 73.9363726,20.1646327 C73.9363726,22.5615166 72.3202211,24.0896462 70.1576686,24.0896462 Z M73.8885625,13.888326 L73.8885625,15.4164556 C72.8674757,14.287666 71.4408571,13.7473329 69.8247055,13.7473329 C66.116863,13.7473329 63.4070558,16.2624146 63.4070558,20.1646327 C63.4070558,24.0660066 66.116863,26.6047279 69.8247055,26.6047279 C71.5603823,26.6047279 73.0331035,26.0162714 74.031139,24.8174073 L74.031139,26.4392509 L76.8604713,26.4392509 L76.8604713,13.888326 L73.8885625,13.888326 Z M55.7036564,24.0896462 C53.5641553,24.0896462 51.9240987,22.5615166 51.9240987,20.1646327 C51.9240987,17.7660603 53.5641553,16.238775 55.7036564,16.238775 C57.8423038,16.238775 59.4584554,17.7660603 59.4584554,20.1646327 C59.4584554,22.5615166 57.8423038,24.0896462 55.7036564,24.0896462 Z M56.0357658,13.7473329 C54.3009428,13.7473329 52.8273678,14.3341009 51.8293323,15.5329649 L51.8293323,13.888326 L49,13.888326 L49,31 L51.9719088,31 L51.9719088,24.9119656 C52.9929956,26.0635505 54.4196143,26.6047279 56.0357658,26.6047279 C59.7444621,26.6047279 62.4773205,24.0660066 62.4773205,20.1646327 C62.4773205,16.2860542 59.7444621,13.7473329 56.0357658,13.7473329 Z" id="Fill-1" fill="#FFFFFF"></path>
                <path d="M18.0021458,23.8228723 L12.6797797,23.8228723 L12.6797797,16.9658087 L18.0004292,13.8477524 L23.3245118,16.9691337 L23.3245118,23.8228723 L18.0021458,23.8228723 Z M15.9456405,0.64900624 L4.21772405,7.52685143 C0.552750161,9.67648977 0,11.1220509 0,14.7239005 L0,30.7988062 C0,33.6957473 1.13296617,36 5.45540376,36 L7.50847579,36 C12.5433088,36 12.6797797,32.5452835 12.6797797,31.0199214 L12.6797797,27.1071806 L26.713969,27.1071806 L26.713969,15.1378679 L18.0021458,10.028944 L9.28946427,15.1378679 L9.28946427,30.9974774 C9.28946427,31.9168509 8.95129104,32.716523 7.27930763,32.716523 L5.31893284,32.716523 C3.63664974,32.716523 3.39031543,31.9700515 3.39031543,30.9542518 L3.39031543,14.6141741 C3.39031543,12.0513996 3.71561405,11.6407571 5.37472284,10.6681829 L16.8760461,3.92333936 C17.7987268,3.38135784 18.2012732,3.38135784 19.1239539,3.92333936 L30.6252772,10.6681829 C32.284386,11.6407571 32.6096846,12.0513996 32.6096846,14.6141741 L32.6096846,30.9542518 C32.6096846,31.9700515 32.362492,32.716523 30.6810672,32.716523 L17.3618482,32.716523 C15.3019097,32.716523 15.3010514,36 17.3618482,36 L30.5437379,36 C34.8670338,36 36,33.6957473 36,30.7988062 L36,14.7239005 C36,11.1220509 35.4472498,9.67648977 31.7822759,7.52685143 L20.0552178,0.64900624 C18.5797869,-0.216335413 17.4202131,-0.216335413 15.9456405,0.64900624 Z" id="Fill-3" fill="#10CFBD"></path>
            </g>
        </g>
    </g>
</svg>