<?xml version="1.0" encoding="UTF-8"?>
<svg width="30px" height="40px" viewBox="0 0 30 40" version="1.1" xmlns="http://www.w3.org/2000/svg" xmlns:xlink="http://www.w3.org/1999/xlink">
    <!-- Generator: Sketch 55.2 (78181) - https://sketchapp.com -->
    <title>PDF</title>
    <desc>Created with Sketch.</desc>
    <g id="Property-Details" stroke="none" stroke-width="1" fill="none" fill-rule="evenodd">
        <g id="Artboard" transform="translate(-36.000000, -68.000000)" fill="#788195" fill-rule="nonzero">
            <g id="PDF" transform="translate(36.000000, 68.000000)">
                <path d="M2.34960938,26.8300781 L2.34960938,30 L0.8671875,30 L0.8671875,21.46875 L4.13085938,21.46875 C5.08398914,21.46875 5.84081751,21.7167944 6.40136719,22.2128906 C6.96191687,22.7089869 7.2421875,23.3652303 7.2421875,24.1816406 C7.2421875,25.0175823 6.96777618,25.6679664 6.41894531,26.1328125 C5.87011444,26.5976586 5.10156744,26.8300781 4.11328125,26.8300781 L2.34960938,26.8300781 Z M2.34960938,25.640625 L4.13085938,25.640625 C4.65820576,25.640625 5.06054549,25.5166028 5.33789062,25.2685547 C5.61523576,25.0205066 5.75390625,24.6621117 5.75390625,24.1933594 C5.75390625,23.7324196 5.61328266,23.3642592 5.33203125,23.0888672 C5.05077984,22.8134752 4.66406496,22.671875 4.171875,22.6640625 L2.34960938,22.6640625 L2.34960938,25.640625 Z M8.53710938,30 L8.53710938,21.46875 L11.0566406,21.46875 C11.8105506,21.46875 12.4794893,21.6367171 13.0634766,21.9726562 C13.6474639,22.3085954 14.0996078,22.7851532 14.4199219,23.4023438 C14.740236,24.0195343 14.9003906,24.7265585 14.9003906,25.5234375 L14.9003906,25.9511719 C14.9003906,26.7597697 14.7392594,27.4707001 14.4169922,28.0839844 C14.094725,28.6972687 13.6357452,29.1699202 13.0400391,29.5019531 C12.444333,29.833986 11.7617226,30 10.9921875,30 L8.53710938,30 Z M10.0195312,22.6640625 L10.0195312,28.8164062 L10.9863281,28.8164062 C11.7636758,28.8164062 12.3603495,28.5732446 12.7763672,28.0869141 C13.1923849,27.6005835 13.4042968,26.9023483 13.4121094,25.9921875 L13.4121094,25.5175781 C13.4121094,24.5917922 13.2109395,23.8847681 12.8085938,23.3964844 C12.406248,22.9082007 11.8222695,22.6640625 11.0566406,22.6640625 L10.0195312,22.6640625 Z M21.2929688,26.3847656 L17.859375,26.3847656 L17.859375,30 L16.3769531,30 L16.3769531,21.46875 L21.796875,21.46875 L21.796875,22.6640625 L17.859375,22.6640625 L17.859375,25.2011719 L21.2929688,25.2011719 L21.2929688,26.3847656 Z"></path>
                <path d="M22.8174839,9.10814291 L28.7886326,9.10814291 C26.9970011,6.59281036 23.4911898,2.60692212 21.5079783,0.86405648 L21.5079783,7.60541817 C21.5077734,8.43402723 22.0952171,9.10814291 22.8174839,9.10814291 Z" id="Path"></path>
                <path d="M29.9110659,16.3781424 L29.9110659,11.2444134 L22.8174839,11.2444134 C21.0692909,11.2444134 19.6460667,9.61198803 19.6460667,7.60541817 L19.6460667,0 L2.27744552,0 C1.03985929,0 0.0368817089,1.15091422 0.0368817089,2.5712698 L0.0368817089,10.4852649 L0.0415943717,10.4852649 L0.0415943717,18.0171246 L28.2151302,18.0171246 L28.2151302,33.4431042 L0.0417992701,33.4431042 L0.0417992701,37.31302 C0.0909748819,38.6829706 1.07141364,39.776923 2.27765042,39.776923 L27.6711168,39.776923 C28.9084981,39.776923 29.9114757,38.625599 29.9114757,37.2056532 L29.9114757,35.0822913 L29.9110659,16.3781424 Z" id="Path"></path>
            </g>
        </g>
    </g>
</svg>