<?xml version="1.0" encoding="UTF-8"?>
<svg width="30px" height="40px" viewBox="0 0 30 40" version="1.1" xmlns="http://www.w3.org/2000/svg" xmlns:xlink="http://www.w3.org/1999/xlink">
    <!-- Generator: Sketch 55.2 (78181) - https://sketchapp.com -->
    <title>PNG</title>
    <desc>Created with Sketch.</desc>
    <g id="Property-Details" stroke="none" stroke-width="1" fill="none" fill-rule="evenodd">
        <g id="Artboard" transform="translate(-195.000000, -68.000000)" fill="#788195" fill-rule="nonzero">
            <g id="PNG" transform="translate(195.000000, 68.000000)">
                <path d="M2.34960938,26.8300781 L2.34960938,30 L0.8671875,30 L0.8671875,21.46875 L4.13085938,21.46875 C5.08398914,21.46875 5.84081751,21.7167944 6.40136719,22.2128906 C6.96191687,22.7089869 7.2421875,23.3652303 7.2421875,24.1816406 C7.2421875,25.0175823 6.96777618,25.6679664 6.41894531,26.1328125 C5.87011444,26.5976586 5.10156744,26.8300781 4.11328125,26.8300781 L2.34960938,26.8300781 Z M2.34960938,25.640625 L4.13085938,25.640625 C4.65820576,25.640625 5.06054549,25.5166028 5.33789062,25.2685547 C5.61523576,25.0205066 5.75390625,24.6621117 5.75390625,24.1933594 C5.75390625,23.7324196 5.61328266,23.3642592 5.33203125,23.0888672 C5.05077984,22.8134752 4.66406496,22.671875 4.171875,22.6640625 L2.34960938,22.6640625 L2.34960938,25.640625 Z M15.3046875,30 L13.8222656,30 L10.0195312,23.9472656 L10.0195312,30 L8.53710938,30 L8.53710938,21.46875 L10.0195312,21.46875 L13.8339844,27.5449219 L13.8339844,21.46875 L15.3046875,21.46875 L15.3046875,30 Z M23.5957031,28.8925781 C23.2871078,29.2949239 22.8593777,29.5996083 22.3125,29.8066406 C21.7656223,30.0136729 21.1445347,30.1171875 20.4492188,30.1171875 C19.7343714,30.1171875 19.1015653,29.9550797 18.5507812,29.6308594 C17.9999972,29.306639 17.5751968,28.8427765 17.2763672,28.2392578 C16.9775376,27.6357392 16.8222657,26.9316446 16.8105469,26.1269531 L16.8105469,25.4589844 C16.8105469,24.1699154 17.1191375,23.1630896 17.7363281,22.4384766 C18.3535187,21.7138636 19.2148382,21.3515625 20.3203125,21.3515625 C21.269536,21.3515625 22.0234347,21.5859352 22.5820312,22.0546875 C23.1406278,22.5234398 23.4765619,23.1992143 23.5898438,24.0820312 L22.1367188,24.0820312 C21.9726554,23.0546824 21.3769583,22.5410156 20.3496094,22.5410156 C19.6855436,22.5410156 19.1806658,22.780271 18.8349609,23.2587891 C18.4892561,23.7373071 18.3105469,24.4394485 18.2988281,25.3652344 L18.2988281,26.0214844 C18.2988281,26.943364 18.4931621,27.6591771 18.8818359,28.1689453 C19.2705098,28.6787135 19.8105469,28.9335938 20.5019531,28.9335938 C21.2597694,28.9335938 21.7988265,28.7617205 22.1191406,28.4179688 L22.1191406,26.7480469 L20.3613281,26.7480469 L20.3613281,25.6230469 L23.5957031,25.6230469 L23.5957031,28.8925781 Z"></path>
                <path d="M22.8174839,9.10814291 L28.7886326,9.10814291 C26.9970011,6.59281036 23.4911898,2.60692212 21.5079783,0.86405648 L21.5079783,7.60541817 C21.5077734,8.43402723 22.0952171,9.10814291 22.8174839,9.10814291 Z" id="Path"></path>
                <path d="M29.9110659,16.3781424 L29.9110659,11.2444134 L22.8174839,11.2444134 C21.0692909,11.2444134 19.6460667,9.61198803 19.6460667,7.60541817 L19.6460667,0 L2.27744552,0 C1.03985929,0 0.0368817089,1.15091422 0.0368817089,2.5712698 L0.0368817089,10.4852649 L0.0415943717,10.4852649 L0.0415943717,18.0171246 L28.2151302,18.0171246 L28.2151302,33.4431042 L0.0417992701,33.4431042 L0.0417992701,37.31302 C0.0909748819,38.6829706 1.07141364,39.776923 2.27765042,39.776923 L27.6711168,39.776923 C28.9084981,39.776923 29.9114757,38.625599 29.9114757,37.2056532 L29.9114757,35.0822913 L29.9110659,16.3781424 Z" id="Path"></path>
            </g>
        </g>
    </g>
</svg>