<?xml version="1.0" encoding="UTF-8"?>
<svg width="206px" height="128px" viewBox="0 0 206 128" version="1.1" xmlns="http://www.w3.org/2000/svg" xmlns:xlink="http://www.w3.org/1999/xlink">
    <!-- Generator: Sketch 55.2 (78181) - https://sketchapp.com -->
    <title>Register Interest</title>
    <desc>Created with Sketch.</desc>
    <g id="Register-Interest" stroke="none" stroke-width="1" fill="none" fill-rule="evenodd">
        <g id="Modal" transform="translate(-84.000000, -215.000000)">
            <g id="Register-Interest" transform="translate(85.000000, 215.000000)">
                <path d="M24.236449,6.94788785 C24.236449,6.94788785 30.247578,7.48680374 28.9021528,0.0532336449 C20.9534431,1.41158879 24.236449,6.94788785 24.236449,6.94788785" id="Fill-452" fill="#80C9C2" fill-rule="nonzero"></path>
                <path d="M24.236449,6.94788785 L24.2322408,6.99394393 C24.2334431,6.99394393 24.3314343,7.00231776 24.4985604,7.00231776 C25.0089563,7.00231776 26.1668156,6.92216822 27.2026367,6.26302804 C28.239059,5.60448598 29.1456279,4.36097196 29.1444267,2.06414953 C29.1444267,1.46542056 29.0831059,0.795514019 28.9472408,0.0448598131 L28.9394255,2.84217094e-14 L28.8937364,0.00777570093 C24.5298214,0.748859813 23.5144402,2.77233645 23.5180377,4.44770093 C23.5186484,5.82938318 24.1949681,6.96762617 24.1967716,6.97121495 L24.208795,6.9915514 L24.2322408,6.99394393 L24.236449,6.94788785 L24.2767276,6.92456075 C24.2761264,6.92396262 24.2358478,6.8557757 24.1733258,6.72897196 C23.9857598,6.34975701 23.6106279,5.46153271 23.6112291,4.44770093 C23.6148361,2.81480374 24.5688977,0.844560748 28.9099681,0.0980934579 L28.9021528,0.0532336449 L28.8564637,0.0610093458 C28.9911264,0.806878505 29.0518449,1.472 29.0518449,2.06414953 C29.0506425,4.33764486 28.1633112,5.54048598 27.1527393,6.18527103 C26.1415663,6.83005607 24.9993376,6.91080374 24.4985604,6.91020561 C24.3344402,6.91020561 24.2412584,6.90183178 24.2406572,6.90183178 L24.236449,6.94788785 L24.2767276,6.92456075 L24.236449,6.94788785" id="Fill-453" fill="#D4E6FC"></path>
                <path d="M21.8918742,9.48216822 C21.8918742,9.48216822 24.4270208,6.30609346 19.7102173,4.30474766 C17.5333698,9.27342056 21.8918742,9.48216822 21.8918742,9.48216822" id="Fill-454" fill="#80C9C2" fill-rule="nonzero"></path>
                <path d="M21.8918742,9.48216822 L21.9285458,9.5108785 C21.9309505,9.50728972 22.6174901,8.64897196 22.6186942,7.52986916 C22.6198947,6.4873271 22.0115076,5.22885981 19.7282525,4.26228037 L19.6855692,4.24433645 L19.667534,4.28620561 C19.2310824,5.28328972 19.0549353,6.09196262 19.0549353,6.74871028 C19.0531352,8.06639252 19.7673288,8.76919626 20.4755106,9.13106542 C21.1830912,9.49472897 21.8864637,9.52762617 21.8900707,9.5282243 L21.9135164,9.52942056 L21.9285458,9.5108785 L21.8918742,9.48216822 L21.8942789,9.43611215 C21.8936777,9.43611215 21.7241469,9.42833645 21.4650414,9.37570093 C20.6859211,9.21480374 19.1475194,8.66751402 19.1475194,6.74871028 C19.1475194,6.10811215 19.3194549,5.31140187 19.7522994,4.32328972 L19.7102173,4.30474766 L19.691581,4.34721495 C21.9549974,5.30960748 22.5243082,6.52620561 22.5261118,7.52986916 C22.5261118,8.07057944 22.3583845,8.55207477 22.1906572,8.89839252 C22.106493,9.07185047 22.0223288,9.21121495 21.9598068,9.30691589 C21.8966836,9.40261682 21.8558038,9.45345794 21.8558038,9.45345794 L21.8918742,9.48216822 L21.8942789,9.43611215 L21.8918742,9.48216822" id="Fill-455" fill="#D4E6FC"></path>
                <path d="M19.0266836,13.284486 C19.0266836,13.284486 21.2143522,9.86198131 16.3129886,8.36186916 C14.6699827,13.5291215 19.0266836,13.284486 19.0266836,13.284486" id="Fill-456" fill="#80C9C2" fill-rule="nonzero"></path>
                <path d="M19.0266836,13.284486 L19.0657598,13.3090093 C19.0675634,13.3048224 19.5587217,12.5386168 19.5593335,11.5606729 C19.5623288,10.4637009 18.9280912,9.11072897 16.3268156,8.31760748 L16.2829299,8.3044486 L16.269103,8.34811215 C16.0069915,9.17114019 15.8963718,9.85958879 15.8963718,10.4355888 C15.8945722,11.8053084 16.5288097,12.539215 17.2249681,12.9178318 C17.9211264,13.2976449 18.6755986,13.3317383 18.9353053,13.3323364 C18.9948214,13.3323364 19.0284871,13.3305421 19.0290883,13.3305421 L19.052534,13.3287477 L19.0657598,13.3090093 L19.0266836,13.284486 L19.0242789,13.2384299 C19.0242789,13.2384299 18.9930179,13.2396262 18.9353053,13.2396262 C18.684015,13.2402243 17.9427686,13.2049346 17.270056,12.8370841 C16.5973434,12.4680374 15.9907598,11.7765981 15.9889563,10.4355888 C15.9889563,9.87095327 16.0977686,9.19207477 16.3574754,8.37562617 L16.3129886,8.36186916 L16.2991616,8.40613084 C18.8769915,9.19805607 19.4643376,10.5025794 19.4667423,11.5606729 C19.4667423,12.0343925 19.3471088,12.4596636 19.2268742,12.7665047 C19.1066396,13.0733458 18.9870062,13.2587664 18.9876074,13.2593645 L19.0266836,13.284486 L19.0242789,13.2384299 L19.0266836,13.284486" id="Fill-457" fill="#D4E6FC"></path>
                <path d="M17.516537,17.1454206 C17.516537,17.1454206 18.4579739,13.1989533 13.3329739,13.3777944 C13.4802613,18.7956636 17.516537,17.1454206 17.516537,17.1454206" id="Fill-458" fill="#80C9C2" fill-rule="nonzero"></path>
                <path d="M17.516537,17.1454206 L17.561625,17.1555888 C17.5622261,17.1531963 17.6307598,16.8654953 17.6307598,16.4474019 C17.6307598,15.8953271 17.5111264,15.1147664 16.9520355,14.4699813 C16.3923434,13.8251963 15.3961997,13.3251589 13.6648214,13.3257565 C13.5566103,13.3257565 13.4453933,13.3275514 13.3311704,13.3317383 L13.2854813,13.3335327 L13.2866836,13.3789907 C13.3720502,16.7602243 14.9988244,17.4337196 16.2113903,17.4277776 C16.9484285,17.4277776 17.5309651,17.1890841 17.533971,17.1878879 L17.5562144,17.1789159 L17.561625,17.1555888 L17.516537,17.1454206 L17.499103,17.1023551 C17.4985018,17.1029533 17.3578273,17.1603738 17.1251733,17.2189907 C16.8925194,17.2770093 16.5696895,17.3356262 16.2113903,17.3356262 C15.0366983,17.3296449 13.4772554,16.7285234 13.3792642,13.3765981 L13.3329739,13.3777944 L13.3347774,13.4238505 C13.447798,13.4196636 13.5578126,13.4178692 13.6648214,13.4178692 C15.3793669,13.4178692 16.3430472,13.9101308 16.8816983,14.5303925 C17.4209505,15.1506542 17.5381792,15.9078879 17.5381792,16.4474019 C17.5381792,16.8553271 17.4708478,17.1340561 17.471449,17.1346542 L17.516537,17.1454206 L17.499103,17.1023551 L17.516537,17.1454206" id="Fill-459" fill="#D4E6FC"></path>
                <path d="M22.9781939,9.81592523 C22.9781939,9.81592523 25.028795,13.3203738 28.6183991,9.67775701 C24.7600707,5.85271028 22.9781939,9.81592523 22.9781939,9.81592523" id="Fill-460" fill="#80C9C2" fill-rule="nonzero"></path>
                <path d="M22.9781939,9.81592523 L22.9379153,9.83925234 C22.9409211,9.84224299 23.8342642,11.3764486 25.4959065,11.3794393 C26.3591909,11.3794393 27.419059,10.9613458 28.6514637,9.71005607 L28.683927,9.67775701 L28.6514637,9.64545794 C27.3902027,8.39536449 26.3429593,7.96650467 25.5007159,7.96650467 C23.7513024,7.97128972 22.9385164,9.79439252 22.9355106,9.79678505 L22.9258918,9.81831776 L22.9379153,9.83925234 L22.9781939,9.81592523 L23.020276,9.83446729 C23.020276,9.83446729 23.0695722,9.72500935 23.1711704,9.55813084 C23.4765663,9.0551028 24.2436631,8.05742056 25.5007159,8.05861682 C26.3098947,8.05861682 27.3348947,8.47013084 28.5859358,9.71065421 L28.6183991,9.67775701 L28.5853346,9.64545794 C27.3631499,10.8853832 26.3273288,11.2873271 25.4959065,11.2873271 C24.6963464,11.2873271 24.0771381,10.9152897 23.656317,10.5402617 C23.4465076,10.3530467 23.2865956,10.1652336 23.1789857,10.025271 C23.0713757,9.88471028 23.0184725,9.79259813 23.0178713,9.79259813 L22.9781939,9.81592523 L23.020276,9.83446729 L22.9781939,9.81592523" id="Fill-461" fill="#D4E6FC"></path>
                <path d="M20.6197921,14.2313271 C20.6197921,14.2313271 22.6703933,17.7357757 26.2605986,14.0931589 C22.4016689,10.2681121 20.6197921,14.2313271 20.6197921,14.2313271" id="Fill-462" fill="#80C9C2" fill-rule="nonzero"></path>
                <path d="M20.6197921,14.2313271 L20.5795135,14.2540561 C20.5825194,14.2576449 21.4758625,15.7918505 23.1381059,15.7948411 C24.0007892,15.7948411 25.0606572,15.3767477 26.2936631,14.1254579 L26.3255252,14.0925607 L26.2930619,14.0608598 C25.0324021,12.8101682 23.9851587,12.3819065 23.1423141,12.3819065 C21.3935018,12.3860935 20.5801147,14.2097944 20.5771088,14.2121869 L20.5674901,14.2337196 L20.5795135,14.2540561 L20.6197921,14.2313271 L20.6618742,14.2498692 C20.6618742,14.2498692 20.7111704,14.1404112 20.8127686,13.9729346 C21.1181645,13.4705047 21.8858625,12.4728224 23.1423141,12.4740187 C23.951493,12.4740187 24.976493,12.8855327 26.227534,14.1260561 L26.2605986,14.0931589 L26.2269329,14.0608598 C25.0047481,15.300785 23.968927,15.702729 23.1381059,15.702729 C22.3379446,15.702729 21.7187364,15.3300935 21.2985164,14.9556636 C21.0881059,14.7684486 20.9281939,14.5806355 20.8205839,14.4400748 C20.7135751,14.3001121 20.6600707,14.208 20.6594695,14.208 L20.6197921,14.2313271 L20.6618742,14.2498692 L20.6197921,14.2313271" id="Fill-463" fill="#D4E6FC"></path>
                <path d="M14.337534,26.4840374 C14.337534,26.4840374 16.0568889,22.806729 11.0004226,21.956785 C10.0499681,27.2933084 14.337534,26.4840374 14.337534,26.4840374" id="Fill-464" fill="#80C9C2" fill-rule="nonzero"></path>
                <path d="M14.337534,26.4840374 L14.3796162,26.5037757 C14.3808185,26.5001869 14.6651733,25.892486 14.6657951,25.1077383 C14.6699827,23.9521495 14.0321381,22.4143551 11.0082379,21.9113271 L10.9631499,21.9035514 L10.9547335,21.9484112 C10.8597481,22.4831402 10.8164631,22.9574579 10.8164631,23.3773458 C10.8158625,24.7823551 11.3004079,25.5886355 11.9142056,26.0360374 C12.5280033,26.4834393 13.2620355,26.573757 13.7610091,26.573757 C14.1090883,26.573757 14.3441469,26.5294953 14.3459505,26.5294953 L14.3693962,26.5247103 L14.3796162,26.5037757 L14.337534,26.4840374 L14.3291176,26.4385794 C14.3285164,26.4385794 14.101273,26.4816449 13.7610091,26.4816449 C13.2728566,26.4816449 12.5580619,26.3919252 11.9689123,25.961271 C11.3809651,25.531215 10.9102467,24.7620187 10.9090443,23.3773458 C10.9090443,22.9634393 10.9517276,22.4951028 11.0461118,21.9645607 L11.0004226,21.956785 L10.9926074,22.002243 C13.9882525,22.5100561 14.5683845,23.9880374 14.5725927,25.1077383 C14.5731939,25.4887477 14.5034578,25.8290841 14.4337217,26.0737196 C14.3639857,26.317757 14.2954519,26.4642991 14.2954519,26.4642991 L14.337534,26.4840374 L14.3291176,26.4385794 L14.337534,26.4840374" id="Fill-465" fill="#D4E6FC"></path>
                <path d="M16.3328273,26.5707664 C16.3328273,26.5707664 18.3834285,30.075215 21.9742349,26.4325981 C18.1153053,22.6075514 16.3328273,26.5707664 16.3328273,26.5707664" id="Fill-466" fill="#80C9C2" fill-rule="nonzero"></path>
                <path d="M16.3328273,26.5707664 L16.2931499,26.5934953 C16.2961557,26.596486 17.1888977,28.1312897 18.8511411,28.1342804 C19.7144255,28.1342804 20.7742936,27.7155888 22.0072994,26.4648972 L22.0391616,26.432 L22.0066983,26.4002991 C20.7460384,25.1496075 19.698795,24.7213458 18.8559505,24.7213458 C17.106537,24.7255327 16.2937511,26.5492336 16.2907452,26.5516262 L16.2811264,26.5731589 L16.2931499,26.5934953 L16.3328273,26.5707664 L16.3755106,26.5893084 C16.3755106,26.5887103 16.4248068,26.4798505 16.5258038,26.3123738 C16.8311997,25.8099439 17.5988977,24.8122617 18.8559505,24.8134579 C19.6651294,24.8134579 20.6901294,25.224972 21.9411704,26.4654953 L21.9742349,26.4325981 L21.9411704,26.4002991 C20.7183845,27.6402243 19.6825634,28.0415701 18.8511411,28.0421682 C18.0509798,28.0421682 17.4323728,27.6695327 17.0115516,27.2951028 C16.8017423,27.1078879 16.6412291,26.9200748 16.5342203,26.779514 C16.4266103,26.6395514 16.3731059,26.5474393 16.3731059,26.5474393 L16.3328273,26.5707664 L16.3755106,26.5893084 L16.3328273,26.5707664" id="Fill-467" fill="#D4E6FC"></path>
                <path d="M13.1904959,30.8240748 C13.1904959,30.8240748 14.9104519,27.1461682 9.85398566,26.2968224 C8.90353111,31.6327477 13.1904959,30.8240748 13.1904959,30.8240748" id="Fill-468" fill="#80C9C2" fill-rule="nonzero"></path>
                <path d="M13.1904959,30.8240748 L13.232578,30.843215 C13.2337804,30.8402243 13.518757,30.2325234 13.518757,29.4471776 C13.5229446,28.2915888 12.8851,26.7543925 9.8618009,26.2513645 L9.81671293,26.2435888 L9.80829651,26.2884486 C9.71331117,26.8231776 9.67002615,27.2974953 9.67002615,27.7173832 C9.66942554,29.1223925 10.153971,29.9280748 10.7677686,30.3760748 C11.3809651,30.8234766 12.1149974,30.9131963 12.6145722,30.9137944 C12.9626513,30.9137944 13.1971088,30.8695327 13.1995135,30.8695327 L13.2223581,30.8647477 L13.232578,30.843215 L13.1904959,30.8240748 L13.1820795,30.7786168 C13.1814783,30.7786168 12.9548361,30.8216822 12.6145722,30.8216822 C12.1258185,30.8216822 11.4110238,30.7313645 10.8224754,30.3013084 C10.2345282,29.8712523 9.7638097,29.1020561 9.76260736,27.7173832 C9.76260736,27.3034766 9.80529064,26.8345421 9.8996748,26.3045981 L9.85398566,26.2968224 L9.84617041,26.3416822 C12.8412144,26.8494953 13.4219475,28.3274766 13.4261557,29.4471776 C13.4261557,29.828785 13.3564197,30.1691215 13.2872848,30.4131589 C13.2175487,30.6577944 13.1484138,30.8043364 13.1484138,30.8043364 L13.1904959,30.8240748 L13.1820795,30.7786168 L13.1904959,30.8240748" id="Fill-469" fill="#D4E6FC"></path>
                <path d="M15.1863903,30.9102056 C15.1863903,30.9102056 17.2369915,34.4152523 20.8271968,30.7726355 C16.9682672,26.9469907 15.1863903,30.9102056 15.1863903,30.9102056" id="Fill-470" fill="#80C9C2" fill-rule="nonzero"></path>
                <path d="M15.1863903,30.9102056 L15.1467129,30.9335327 C15.1497188,30.9365234 16.0424607,32.4713271 17.7047041,32.4743178 C18.5679886,32.4743178 19.6278566,32.0556262 20.8602613,30.8049346 L20.8927247,30.7720374 L20.8602613,30.7397383 C19.5990003,29.4896449 18.5517569,29.0613832 17.7089123,29.0613832 C15.9601,29.0655701 15.1467129,30.889271 15.1443082,30.8916636 L15.1346895,30.9131963 L15.1467129,30.9335327 L15.1863903,30.9102056 L15.2284725,30.9293458 C15.2290736,30.9287477 15.2777686,30.8192897 15.3793669,30.6524112 C15.6847628,30.1499813 16.4524607,29.1517009 17.7089123,29.1534953 C18.5186924,29.1534953 19.5436924,29.5650093 20.7947335,30.8055327 L20.8271968,30.7726355 L20.7941323,30.7403364 C19.5719475,31.9802617 18.5361264,32.3816075 17.7047041,32.3816075 C16.9045428,32.3822056 16.2859358,32.0095701 15.8651147,31.6345421 C15.6547041,31.4479252 15.4947921,31.2601121 15.3877833,31.1195514 C15.2801733,30.9789907 15.2266689,30.8874766 15.2266689,30.8874766 L15.1863903,30.9102056 L15.2284725,30.9293458 L15.1863903,30.9102056" id="Fill-471" fill="#D4E6FC"></path>
                <path d="M18.9888097,17.6029907 C18.9888097,17.6029907 19.9873581,21.5357009 24.4486631,19.0199626 C21.8010971,14.2839626 18.9888097,17.6029907 18.9888097,17.6029907" id="Fill-472" fill="#80C9C2" fill-rule="nonzero"></path>
                <path d="M18.9888097,17.6029907 L18.9443229,17.6143551 C18.9449241,17.6179439 19.0892056,18.1867664 19.5154373,18.7591776 C19.9410678,19.3309907 20.654059,19.9069907 21.780056,19.906393 C22.5002613,19.906393 23.3857892,19.6719252 24.4715076,19.0600374 L24.5117862,19.0373084 L24.4895428,18.9972336 C23.3839857,17.0180187 22.2363464,16.4258692 21.2708625,16.4264668 C19.9194255,16.4288598 18.9575487,17.5706916 18.9533405,17.5736822 L18.9383112,17.5916262 L18.9443229,17.6143551 L18.9888097,17.6029907 L19.0242789,17.6328972 C19.0242789,17.6328972 19.0825927,17.5641121 19.191405,17.4594393 C19.5190443,17.1448224 20.2987657,16.5173832 21.2708625,16.5185794 C22.1942642,16.5191776 23.308839,17.0778318 24.4083845,19.0420935 L24.4486631,19.0199626 L24.4258185,18.9792897 C23.3497188,19.5863925 22.4792203,19.8142804 21.780056,19.8142804 C20.6883258,19.8136822 20.0059945,19.2610093 19.5899827,18.7041495 C19.382578,18.4260187 19.2431059,18.1472897 19.1559358,17.9379439 C19.0687657,17.7291963 19.0344989,17.5922243 19.0338977,17.5916262 L18.9888097,17.6029907 L19.0242789,17.6328972 L18.9888097,17.6029907" id="Fill-473" fill="#D4E6FC"></path>
                <path d="M16.095364,21.3664299 C16.095364,21.3664299 17.0368009,17.4205607 11.9124021,17.5994019 C12.0590883,23.0166729 16.095364,21.3664299 16.095364,21.3664299" id="Fill-474" fill="#80C9C2" fill-rule="nonzero"></path>
                <path d="M16.095364,21.3664299 L16.1404519,21.3771963 C16.1410531,21.3748037 16.2095868,21.0865047 16.2095868,20.6684112 C16.2095868,20.1169346 16.0905546,19.3363738 15.5308625,18.6915888 C14.9717716,18.0468037 13.9750267,17.5467664 12.2436484,17.5467664 C12.1354373,17.5467664 12.0248214,17.5491589 11.9105986,17.5533458 L11.8649094,17.5545421 L11.8661118,17.6005981 C11.9508772,20.9812336 13.5782525,21.6553271 14.7902173,21.6493851 C15.5272554,21.6487477 16.1097921,21.4106916 16.1133991,21.4094953 L16.1350414,21.3999252 L16.1404519,21.3771963 L16.095364,21.3664299 L16.0779299,21.3239626 C16.0773288,21.3239626 15.9366543,21.3819813 15.7040003,21.44 C15.4713464,21.4986168 15.1485164,21.5566355 14.7902173,21.5566355 C13.6161264,21.5506542 12.0560824,20.9501308 11.9586924,17.5976075 L11.9124021,17.5994019 L11.9142056,17.6448598 C12.026625,17.641271 12.1366396,17.6388785 12.2436484,17.6388785 C13.958795,17.6394766 14.9218742,18.1317383 15.4611264,18.752 C15.9997774,19.3722617 16.1170062,20.1294953 16.1170062,20.6684112 C16.1170062,21.0769346 16.0496748,21.3550654 16.050276,21.3562617 L16.095364,21.3664299 L16.0779299,21.3239626 L16.095364,21.3664299" id="Fill-475" fill="#D4E6FC"></path>
                <path d="M17.5682379,21.8245981 C17.5682379,21.8245981 18.5667862,25.7567103 23.0280912,23.240972 C20.3805252,18.504972 17.5682379,21.8245981 17.5682379,21.8245981" id="Fill-476" fill="#80C9C2" fill-rule="nonzero"></path>
                <path d="M17.5682379,21.8245981 L17.5231499,21.8359626 C17.5237511,21.8395514 17.6686337,22.4083738 18.0948654,22.980785 C18.5198947,23.5525981 19.2334871,24.128 20.3594842,24.128 C21.0790883,24.1274019 21.9646162,23.8935327 23.0509358,23.2810467 L23.0912144,23.2583178 L23.0683698,23.2188411 C21.9634138,21.239028 20.8157745,20.6468785 19.8502906,20.6474762 C18.4982525,20.6498692 17.5363757,21.7922991 17.5327686,21.7946916 L17.5171381,21.8126355 L17.5231499,21.8359626 L17.5682379,21.8245981 L17.6031059,21.8545047 C17.6037071,21.8539065 17.6614197,21.7857196 17.770232,21.6810467 C18.0978713,21.3664299 18.8775927,20.7389907 19.8502906,20.7395888 C20.7736924,20.7401869 21.8882672,21.2994393 22.9878126,23.2637009 L23.0280912,23.240972 L23.0052467,23.2008972 C21.9291469,23.808 21.0586484,24.0358879 20.3594842,24.0352897 C19.2671528,24.0352897 18.5848214,23.4820187 18.1688097,22.925757 C17.961405,22.6476262 17.822534,22.3682991 17.7347628,22.1595514 C17.6475927,21.9508037 17.6133258,21.8132336 17.6127247,21.8132336 L17.5682379,21.8245981 L17.6031059,21.8545047 L17.5682379,21.8245981" id="Fill-477" fill="#D4E6FC"></path>
                <path d="M12.1991616,39.8606355 C12.1991616,39.8606355 13.2518156,35.9428785 8.12440285,35.9775701 C8.11779797,41.3972336 12.1991616,39.8606355 12.1991616,39.8606355" id="Fill-478" fill="#80C9C2" fill-rule="nonzero"></path>
                <path d="M12.1991616,39.8606355 L12.2436484,39.8725981 C12.2442496,39.8702056 12.3344255,39.5346542 12.3344255,39.0591402 C12.3344255,38.4837383 12.2027686,37.700785 11.6142203,37.060785 C11.026273,36.4201869 9.98684489,35.9309159 8.19234343,35.9309159 L8.1238097,35.931514 L8.07812055,35.9321121 L8.07751938,35.9775701 L8.07751938,35.9901308 C8.07751938,37.7205234 8.49413228,38.7522991 9.07005604,39.3504299 C9.64537862,39.9491589 10.3752027,40.1082617 10.9829886,40.1076652 C11.6737364,40.1076652 12.2123874,39.9048972 12.2153933,39.9037009 L12.2376367,39.8953271 L12.2436484,39.8725981 L12.1991616,39.8606355 L12.1829299,39.8175701 C12.1823288,39.8175701 12.0524754,39.8666168 11.8360531,39.9162617 C11.620232,39.9659065 11.3196455,40.0155514 10.9829886,40.0155514 C10.390232,40.0155514 9.68986542,39.8624299 9.13678624,39.287028 C8.58310589,38.7116262 8.1707012,37.7073645 8.1707012,35.9901308 L8.1707012,35.9775701 L8.12441088,35.9775701 L8.12501205,36.0236262 L8.19234343,36.023028 C9.97121439,36.0236262 10.9793815,36.5063178 11.5462877,37.1229907 C12.1125927,37.7390654 12.2418449,38.4968972 12.2418449,39.0591402 C12.2418449,39.5226916 12.1534725,39.8480748 12.1540736,39.8486729 L12.1991616,39.8606355 L12.1829299,39.8175701 L12.1991616,39.8606355" id="Fill-479" fill="#D4E6FC"></path>
                <path d="M14.1794255,39.6016449 C14.1794255,39.6016449 16.8101587,42.6999626 19.7108185,38.4933084 C15.244103,35.3914019 14.1794255,39.6016449 14.1794255,39.6016449" id="Fill-480" fill="#80C9C2" fill-rule="nonzero"></path>
                <path d="M14.1794255,39.6016449 L14.1439563,39.6309533 C14.1481645,39.6339439 15.0865956,40.7446729 16.4807159,40.7470659 C17.4275634,40.7476636 18.5721968,40.2278879 19.7492936,38.5196262 L19.775144,38.4819439 L19.7378713,38.4556262 C18.5301147,37.6170467 17.565232,37.307215 16.797534,37.3066168 C15.7544989,37.3066168 15.0847921,37.8814206 14.6820062,38.4508411 C14.2786191,39.0202617 14.1355399,39.5872897 14.1349387,39.5902804 L14.128927,39.6130093 L14.1439563,39.6309533 L14.1794255,39.6016449 L14.2245135,39.6124112 C14.2245135,39.6124112 14.2587804,39.4754393 14.3435458,39.2672897 C14.597842,38.6398505 15.2903933,37.3975327 16.797534,37.398729 C17.5393815,37.398729 18.4868302,37.6995888 19.6843669,38.5309907 L19.7108185,38.4933084 L19.6729446,38.4669907 C18.5042642,40.1608972 17.3908918,40.6543551 16.4807159,40.6549533 C15.8098068,40.6549533 15.2429006,40.3845981 14.8431206,40.1130467 C14.6435311,39.977271 14.4860238,39.8414953 14.379015,39.7398131 C14.271405,39.6381308 14.2154959,39.5717383 14.2148947,39.5717383 L14.1794255,39.6016449 L14.2245135,39.6124112 L14.1794255,39.6016449" id="Fill-481" fill="#D4E6FC"></path>
                <path d="M11.8258332,44.3328598 C11.8258332,44.3328598 12.8784871,40.4145047 7.7510744,40.4497944 C7.74446953,45.8688598 11.8258332,44.3328598 11.8258332,44.3328598" id="Fill-482" fill="#80C9C2" fill-rule="nonzero"></path>
                <path d="M11.8258332,44.3328598 L11.8709211,44.3448224 C11.8715223,44.3418318 11.9616983,44.0062804 11.9616983,43.5307664 C11.9616983,42.9559626 11.8294402,42.1730093 11.241493,41.5324112 C10.6535458,40.8924112 9.61351645,40.4025421 7.81901498,40.4031396 L7.75048126,40.4037383 L7.70479211,40.4043364 L7.70479211,40.4623551 C7.70479211,42.1927477 8.12080384,43.2239252 8.69672759,43.8226542 C9.27265134,44.4213832 10.0018742,44.5798879 10.6102613,44.5798879 C11.3010091,44.5798879 11.839059,44.3771215 11.8420648,44.3759252 L11.8643082,44.3675514 L11.8709211,44.3448224 L11.8258332,44.3328598 L11.8096015,44.2897944 C11.8090003,44.2897944 11.6791469,44.3388411 11.4633258,44.388486 C11.2469035,44.4381308 10.946317,44.4877757 10.6102613,44.4877757 C10.0169035,44.4871776 9.31713815,44.3340561 8.7634578,43.7586542 C8.21037862,43.1838505 7.79737275,42.1789907 7.79737275,40.4623551 L7.79737275,40.4497944 L7.75108243,40.4497944 L7.7516836,40.4958505 L7.81901498,40.4952523 C9.59788595,40.4952523 10.6066543,40.9785421 11.1729593,41.5946168 C11.7398654,42.2112897 11.8685164,42.9685234 11.8691176,43.5307664 C11.8691176,43.9949159 11.7807452,44.3202991 11.7813464,44.3208972 L11.8258332,44.3328598 L11.8096015,44.2897944 L11.8258332,44.3328598" id="Fill-483" fill="#D4E6FC"></path>
                <path d="M13.8066983,44.0738692 C13.8066983,44.0738692 16.4368302,47.1721869 19.3380912,42.9655327 C14.8713757,39.863028 13.8066983,44.0738692 13.8066983,44.0738692" id="Fill-484" fill="#80C9C2" fill-rule="nonzero"></path>
                <path d="M13.8066983,44.0738692 L13.7712291,44.1037757 C13.7748361,44.1067664 14.7132672,45.2168972 16.1073874,45.2192897 C17.0542349,45.2192897 18.1988684,44.7001121 19.3759651,42.9912523 L19.4024167,42.9535701 L19.3645428,42.9278505 C18.1573874,42.089271 17.1925047,41.7788407 16.4248068,41.7788407 C15.3811704,41.778243 14.7114637,42.3536449 14.3092789,42.9230654 C13.9058918,43.4930841 13.7628126,44.059514 13.7616103,44.0625047 L13.7555986,44.0858318 L13.7712291,44.1037757 L13.8066983,44.0738692 L13.8511851,44.0852336 C13.8517862,44.0846355 13.8860531,43.9482617 13.9702173,43.739514 C14.2251147,43.1120748 14.917666,41.869757 16.4248068,41.8709533 C17.1666543,41.8709533 18.114103,42.171215 19.3116396,43.003215 L19.3380912,42.9655327 L19.2996162,42.939215 C18.1309358,44.6325234 17.0175634,45.1265794 16.1073874,45.1271776 C15.4364783,45.1271776 14.8695722,44.8568224 14.4703933,44.585271 C14.2708038,44.4494953 14.1126953,44.3137196 14.0056865,44.2120374 C13.8980766,44.1109533 13.8421675,44.0445607 13.8421675,44.0439626 L13.8066983,44.0738692 L13.8511851,44.0852336 L13.8066983,44.0738692" id="Fill-485" fill="#D4E6FC"></path>
                <path d="M13.0390003,34.5175327 C13.0390003,34.5175327 13.2788684,30.468785 8.26268067,31.5286729 C9.35140501,36.8394766 13.0390003,34.5175327 13.0390003,34.5175327" id="Fill-486" fill="#80C9C2" fill-rule="nonzero"></path>
                <path d="M13.0390003,34.5175327 L13.0852906,34.5199252 C13.0852906,34.5193271 13.0870942,34.4876262 13.0870942,34.4308037 C13.0870942,34.1730093 13.0492203,33.3960374 12.6187804,32.6776822 C12.1889417,31.9581308 11.3581206,31.3037757 9.80108243,31.3055664 C9.34960149,31.3055664 8.83619973,31.36 8.2530619,31.483215 L8.20797392,31.492785 L8.21759269,31.5376449 C8.79652231,34.3823551 10.1425487,35.072 11.2697481,35.0684251 C12.252666,35.0678131 13.0600414,34.5582056 13.0636484,34.5564112 L13.0840883,34.5438505 L13.0852906,34.5199252 L13.0390003,34.5175327 L13.0143522,34.4786542 C13.0137511,34.4786542 12.8177686,34.6024673 12.5003493,34.7268785 C12.1823288,34.8518879 11.745276,34.9762991 11.2697481,34.9762991 C10.1858332,34.9733084 8.89090648,34.3410841 8.30776865,31.5191028 L8.26268067,31.5286729 L8.27229944,31.5735327 C8.85002671,31.4509159 9.35681557,31.3976822 9.80108243,31.3976822 C11.3322701,31.3988785 12.1210091,32.0305047 12.5394255,32.7249346 C12.9566396,33.4193645 12.9951147,34.1819813 12.9945135,34.4308037 C12.9945135,34.4852336 12.99271,34.5145421 12.99271,34.5145421 L13.0390003,34.5175327 L13.0143522,34.4786542 L13.0390003,34.5175327" id="Fill-487" fill="#D4E6FC"></path>
                <path d="M14.5689857,34.7149159 C14.5689857,34.7149159 16.237842,38.4149533 20.1929593,35.1688972 C16.7602613,30.9604486 14.5689857,34.7149159 14.5689857,34.7149159" id="Fill-488" fill="#80C9C2" fill-rule="nonzero"></path>
                <path d="M14.5689857,34.7149159 L14.5269035,34.7334579 C14.5293082,34.7364486 15.3402906,36.5451963 17.1955106,36.548785 C18.0076953,36.5481869 19.0110531,36.1982804 20.2224167,35.2041869 L20.2578859,35.1748785 L20.2290296,35.1395888 C18.9918156,33.6221308 17.9060971,33.1268785 17.0187657,33.1268785 C15.435276,33.1304673 14.5323141,34.6891963 14.5293082,34.6915888 L14.5172848,34.7119252 L14.5269035,34.7334579 L14.5689857,34.7149159 L14.6092642,34.7376449 C14.6092642,34.7376449 14.663971,34.6443364 14.7709798,34.5013832 C15.0932085,34.0719252 15.8813464,33.2177944 17.0187657,33.2189907 C17.8688244,33.2189907 18.9286924,33.6921121 20.1568889,35.1976075 L20.1929593,35.1688972 L20.1635018,35.1330093 C18.9629593,36.1181308 17.9800414,36.4566729 17.1955106,36.4560748 C16.3015663,36.4560748 15.6571088,36.018243 15.2332818,35.5768224 C15.0216689,35.3561121 14.865364,35.1354019 14.7631645,34.9697196 C14.660364,34.8046355 14.6116689,34.6957757 14.6110678,34.6957757 L14.5689857,34.7149159 L14.6092642,34.7376449 L14.5689857,34.7149159" id="Fill-489" fill="#D4E6FC"></path>
                <path d="M23.9641176,7.09442991 C23.9484871,7.11416822 13.103927,20.402243 13.1033258,43.9877383 C13.1033258,56.5299439 16.1717129,71.9808598 25.5596308,89.883514 C25.6065223,89.9738318 25.7183405,90.0085234 25.8091176,89.9618692 C25.8998947,89.9146168 25.935364,89.8033645 25.8878713,89.7130467 C16.5258038,71.8576449 13.4742496,56.4701308 13.4736484,43.9877383 C13.4736484,32.2524112 16.1717129,23.0836636 18.8685751,16.8493458 C20.2170062,13.732486 21.5648361,11.3489346 22.5742056,9.74654206 C23.0791909,8.94504673 23.500012,8.33914019 23.7933845,7.93360748 C23.9400707,7.73143925 24.0554959,7.57891589 24.1336484,7.47723364 C24.2118009,7.37614953 24.2514783,7.3271028 24.2520795,7.3271028 C24.316405,7.24814953 24.3043815,7.13151402 24.2250267,7.06751402 C24.1456719,7.00351402 24.0290443,7.01547664 23.9641176,7.09442991" id="Fill-490" fill="#23A79A"></path>
                <path d="M200.377138,53.5967103 C195.254543,54.4011963 188.34947,52.7623178 186.1101,59.8017196 C184.565085,64.6585421 186.948135,69.9370467 180.850437,72.1028785 C178.433722,72.9605981 175.973121,72.8379813 174.187036,74.9380187 C172.634206,76.7629159 172.36488,79.3659813 172.140643,81.6490467 C171.947666,83.611514 172.351654,86.1733084 171.68856,88.0556262 C170.605247,91.1276262 167.880129,91.1168598 165.219338,92.2497196 C162.687798,93.3281495 160.348634,95.0818692 159.368722,97.7704673 C158.073194,101.326953 160.222387,104.453981 159.960276,107.88785 C159.960276,107.88785 161.445173,121.466617 175.151317,116.337047 C178.390437,115.124636 181.757607,114.500187 184.123824,111.539439 C185.912314,109.300636 186.188854,106.399701 185.785467,103.688972 C185.362241,100.840673 183.925437,98.5366729 185.988663,96.008972 C187.25293,94.4610093 189.658223,93.4621308 191.237505,92.2700561 C193.074088,90.884785 195.161962,89.2931589 195.911024,87.0214579 C196.773707,84.4076262 195.379587,82.3865421 194.848751,79.8881495 C193.508736,73.586243 199.27639,72.840972 202.625525,68.9884112 C207.479997,63.4030654 202.459601,58.4080748 200.464909,53.645757 L200.377138,53.5967103" id="Fill-494" fill="#F6FFFE"></path>
                <path d="M200.377138,53.5967103 L200.348282,53.4148785 C197.817343,53.8144299 194.806068,53.604486 192.123033,54.1810841 C190.781816,54.4699813 189.51815,54.9598505 188.446258,55.8331215 C187.374367,56.7051963 186.501464,57.9588785 185.933355,59.7460935 C185.148824,62.2193645 185.36164,64.7674019 185.004543,66.9320374 C184.827197,68.0146542 184.513384,68.996785 183.879147,69.8395514 C183.244909,70.6823178 182.287241,71.3958879 180.788516,71.9288224 C179.601801,72.3511028 178.387431,72.534729 177.228971,72.8780561 C176.072915,73.220785 174.967358,73.7339813 174.045159,74.8189907 C172.444836,76.7066916 172.183326,79.3486355 171.956082,81.6311028 C171.907989,82.1239626 171.896566,82.6491215 171.896566,83.1880374 C171.896566,83.6814953 171.906185,84.1869159 171.906185,84.6899439 C171.906786,85.8706542 171.851478,87.0376075 171.513619,87.9946168 C170.985188,89.4821682 170.091244,90.1975327 168.968854,90.7119252 C167.846464,91.2239252 166.498033,91.5056449 165.145994,92.0804486 C162.588604,93.1696449 160.200144,94.9514766 159.194382,97.7076636 C158.881772,98.5653832 158.764543,99.4003738 158.764543,100.215626 C158.769953,102.667963 159.802769,104.939065 159.797358,107.288523 C159.797358,107.482916 159.790745,107.677907 159.775716,107.874093 L159.776317,107.907589 C159.778722,107.920748 160.041434,110.341383 161.384455,112.779963 C162.721464,115.21615 165.179059,117.682243 169.500892,117.678658 C171.131273,117.678658 173.022563,117.330542 175.216244,116.509308 C178.429514,115.302879 181.850188,114.676037 184.268707,111.65428 C185.631566,109.948411 186.133546,107.871701 186.132945,105.797383 C186.132945,105.081421 186.073428,104.36486 185.968824,103.662056 C185.706713,101.91372 185.085701,100.393271 185.089308,98.9517757 C185.091112,98.0079252 185.341801,97.096972 186.132343,96.1256075 C187.347314,94.6290841 189.739382,93.6260187 191.349323,92.4171963 C193.184103,91.0301308 195.309851,89.4247477 196.087167,87.0788785 C196.28856,86.4675888 196.371522,85.8850093 196.371522,85.3233645 C196.366713,83.4033645 195.428883,81.7477383 195.029704,79.8498692 C194.896845,79.2236262 194.835525,78.656 194.835525,78.1380187 C194.839132,75.8423925 196.020437,74.4882243 197.623165,73.2315514 C199.222886,71.9802617 201.231405,70.870729 202.765599,69.1086355 C204.28356,67.3650841 204.864294,65.6508411 204.863093,63.991028 C204.861889,62.1230654 204.138678,60.3352523 203.254352,58.6066542 C202.368223,56.8780561 201.317373,55.2038879 200.636244,53.5751776 L200.555687,53.4848598 L200.467314,53.4358131 L200.348282,53.4148785 L200.377138,53.5967103 L200.286361,53.7576075 L200.374733,53.8066542 L200.464909,53.645757 L200.294176,53.7169346 C200.99334,55.3851215 202.049,57.0640748 202.924308,58.7741308 C203.800818,60.4835888 204.49337,62.2205607 204.492167,63.991028 C204.490965,65.5647103 203.954118,67.1754766 202.485452,68.8675888 C201.008971,70.5686729 199.029909,71.6668411 197.394719,72.9414579 C195.762534,74.2100935 194.460994,75.6994393 194.465203,78.1380187 C194.465203,78.6853084 194.529528,79.2780561 194.667197,79.9264299 C195.089821,81.8930841 196.005408,83.5301682 196.000599,85.3233645 C196.000599,85.8491215 195.92425,86.3904299 195.73488,86.9640374 C195.014675,89.1615701 192.964675,90.7394393 191.125687,92.123514 C189.577065,93.2976449 187.158546,94.2935327 185.844983,95.8929346 C185.002739,96.9211215 184.716581,97.9409346 184.718384,98.9517757 C184.721992,100.496748 185.353223,102.021383 185.60271,103.715888 C185.704909,104.40314 185.762622,105.101757 185.762622,105.797383 C185.762021,107.815477 185.276273,109.800673 183.978942,111.424598 C181.665628,114.324935 178.35076,114.946393 175.085789,116.164187 C172.925173,116.97286 171.077769,117.310206 169.500892,117.310206 C165.332959,117.306617 163.020247,114.969121 161.709088,112.602318 C161.057417,111.419813 160.664851,110.233121 160.437006,109.343103 C160.322783,108.898093 160.24944,108.52785 160.204953,108.269458 C160.18271,108.140262 160.167079,108.038579 160.158062,107.970393 C160.148443,107.901607 160.144836,107.868112 160.144836,107.867514 L159.960276,107.88785 L160.145437,107.901607 C160.161068,107.69585 160.168282,107.49129 160.168282,107.288523 C160.162871,104.833196 159.130056,102.562093 159.135467,100.215626 C159.135467,99.4356636 159.246684,98.646729 159.543062,97.833271 C160.497123,95.2116636 162.78639,93.4866542 165.292079,92.4189907 C166.600833,91.8603364 167.945657,91.5816075 169.122754,91.0474766 C170.298648,90.5163364 171.308619,89.7010841 171.863502,88.1160374 C172.226009,87.0836636 172.275906,85.8814206 172.276508,84.6899439 C172.276508,84.182729 172.266889,83.6767103 172.266889,83.1880374 C172.266889,82.6539065 172.278311,82.1401121 172.325203,81.6669907 C172.547036,79.3833271 172.824176,76.8185421 174.328311,75.0570467 C175.192798,74.0420187 176.210584,73.5665047 177.335379,73.2309533 C178.45837,72.8965981 179.682959,72.7123738 180.912959,72.2763364 C182.462783,71.7266542 183.493795,70.9682243 184.176126,70.0602617 C185.199924,68.6965234 185.428971,67.0295327 185.559426,65.2704299 C185.688077,63.5095327 185.716933,61.6451589 186.286244,59.8573458 C186.838121,58.1251589 187.66834,56.9432523 188.680716,56.1178318 C190.198678,54.8808972 192.150687,54.4400748 194.220525,54.2408972 C196.287959,54.0405234 198.461801,54.0835888 200.405994,53.7785421 L200.377138,53.5967103 L200.286361,53.7576075 L200.377138,53.5967103" id="Fill-495" fill="#23A79A"></path>
                <path d="M194.373824,64.384 L163.400789,119.50714" id="Fill-496" fill="#DDD4FC"></path>
                <path d="M194.212109,64.2942804 L163.239074,119.417421 C163.189176,119.506542 163.221038,119.618393 163.310613,119.668037 C163.399587,119.717682 163.512607,119.685981 163.562505,119.597458 L194.53554,64.4743178 C194.585437,64.3851963 194.552974,64.2727477 194.464,64.2231028 C194.374426,64.1734579 194.262006,64.2051589 194.212109,64.2942804" id="Fill-497" fill="#23A79A"></path>
                <path d="M179.964909,77.3550654 L181.507519,87.282243" id="Fill-498" fill="#DDD4FC"></path>
                <path d="M179.781552,77.3831776 L181.324763,87.3103551 C181.340393,87.4108411 181.434777,87.4796262 181.535775,87.4640748 C181.636772,87.4485234 181.706508,87.3546168 181.690877,87.2535327 L180.147666,77.3269533 C180.132036,77.2264673 180.037651,77.1570841 179.936654,77.1726355 C179.835657,77.1881869 179.765921,77.2826916 179.781552,77.3831776" id="Fill-499" fill="#23A79A"></path>
                <path d="M170.44834,106.964935 L179.429865,105.680748" id="Fill-500" fill="#DDD4FC"></path>
                <path d="M170.474792,107.147364 L179.456317,105.863178 C179.557314,105.848822 179.627651,105.755514 179.613223,105.65443 C179.598795,105.553944 179.505012,105.483963 179.403414,105.498318 L170.421889,106.782505 C170.320291,106.79686 170.250555,106.890168 170.264983,106.990654 C170.279411,107.091738 170.373194,107.16172 170.474792,107.147364" id="Fill-501" fill="#23A79A"></path>
                <path d="M185.389895,80.3726355 L192.303384,77.7001869" id="Fill-502" fill="#DDD4FC"></path>
                <path d="M185.457226,80.5442991 L192.370716,77.8718505 C192.465701,77.8347664 192.513194,77.7282991 192.475921,77.6331963 C192.43925,77.5386916 192.33164,77.4914393 192.236654,77.5285234 L185.323165,80.200972 C185.227578,80.2374579 185.180085,80.3445234 185.217358,80.439028 C185.254631,80.5341308 185.36164,80.5813832 185.457226,80.5442991" id="Fill-503" fill="#23A79A"></path>
                <path d="M126.590364,125.982505 L136.45381,125.982505" id="Fill-504" fill="#23A79A"></path>
                <path d="M126.590364,126.166729 L136.45381,126.166729 C136.556009,126.166729 136.638971,126.084187 136.638971,125.982505 C136.638971,125.880224 136.556009,125.797682 136.45381,125.797682 L126.590364,125.797682 C126.487563,125.797682 126.404601,125.880224 126.404601,125.982505 C126.404601,126.084187 126.487563,126.166729 126.590364,126.166729" id="Fill-505" fill="#23A79A"></path>
                <path d="M5.30010002,125.982505 L27.457534,125.982505" id="Fill-506" fill="#DDD4FC"></path>
                <path d="M5.30010002,126.166729 L27.457534,126.166729 C27.5597335,126.166729 27.6426953,126.084187 27.6426953,125.982505 C27.6426953,125.880224 27.5597335,125.797682 27.457534,125.797682 L5.30010002,125.797682 C5.19790061,125.797682 5.11493873,125.880224 5.11493873,125.982505 C5.11493873,126.084187 5.19790061,126.166729 5.30010002,126.166729" id="Fill-507" fill="#23A79A"></path>
                <polyline id="Fill-508" fill="#23A79A" points="198.565804 127.125533 191.459939 122.123963 191.459939 116.318505 198.565804 116.318505 198.565804 127.125533"></polyline>
                <path d="M175.542079,110.74871 L175.542079,125.982505 L144.027989,125.982505 C137.684411,125.982505 132.540775,120.864897 132.540775,114.552822 L132.540775,88.503028 L151.276933,88.503028 L151.276933,110.74871 L175.542079,110.74871" id="Fill-509" fill="#80C9C2" fill-rule="nonzero"></path>
                <path d="M148.459235,88.503028 L167.194792,88.503028 L167.194792,110.74871 L191.459939,110.74871 L191.459939,125.982505 L159.946449,125.982505 C153.601669,125.982505 148.459235,120.864897 148.459235,114.552822 L148.459235,98.8494953" id="Fill-510" fill="#80C9C2" fill-rule="nonzero"></path>
                <path d="M179.393795,54.5297944 C178.342945,51.7628411 171.348297,35.7281495 149.176434,35.7281495 C148.868634,35.7281495 148.563839,35.7317383 148.26205,35.7389159 C133.524895,36.0888224 121.859733,48.3002617 121.859733,62.9676262 L121.859733,77.3341308 L127.285921,77.3341308 L127.285921,92.3531963 L171.53466,92.3531963 L171.53466,75.9560374 C184.379924,72.7321121 181.478062,60.0206355 179.393795,54.5297944" id="Fill-511" fill="#E1F1F0"></path>
                <path d="M159.453487,32.470729 L142.090408,34.816 L142.090408,22.7899813 C142.090408,18.5133458 147.371112,15.0465794 151.669499,15.0465794 C155.969088,15.0465794 159.453487,18.5133458 159.453487,22.7899813 L159.453487,32.470729" id="Fill-512" fill="#23A79A"></path>
                <path d="M148.526566,39.8420935 L148.526566,39.8420935 C146.294411,39.8420935 144.48488,38.0417196 144.48488,35.8208598 L144.48488,22.7534953 L152.568253,22.7534953 L152.568253,35.8208598 C152.568253,38.0417196 150.758722,39.8420935 148.526566,39.8420935" id="Fill-513" fill="#FFFFFF"></path>
                <path d="M148.526566,39.8420935 L148.526566,39.6578692 C147.461288,39.6578692 146.498209,39.2284112 145.799645,38.5339813 C145.101684,37.8389533 144.670041,36.8813458 144.670041,35.8208598 L144.670041,22.9377196 L152.38249,22.9377196 L152.38249,35.8208598 C152.38249,36.8813458 151.951449,37.8389533 151.253487,38.5339813 C150.554924,39.2284112 149.591845,39.6578692 148.526566,39.6578692 L148.526566,40.0263178 C150.860921,40.0263178 152.752813,38.1434019 152.753414,35.8208598 L152.753414,22.7534953 L152.698707,22.6231028 L152.568253,22.569271 L144.48488,22.569271 L144.353824,22.6231028 L144.299719,22.7534953 L144.299719,35.8208598 C144.299719,38.1434019 146.192211,40.0263178 148.526566,40.0263178 L148.526566,39.8420935" id="Fill-514" fill="#23A79A"></path>
                <path d="M155.407593,23.4072523 C155.506786,24.6364112 154.584587,25.714243 153.349176,25.8129346 C153.158003,25.8278879 152.968634,25.819514 152.788282,25.7860187 C152.699909,26.6054579 152.442607,27.3800374 152.048839,28.0708785 C151.103194,29.7318879 149.373018,30.9108037 147.316405,31.0752897 C144.018971,31.3384673 141.133942,28.8945047 140.870027,25.613757 C140.604909,22.3336075 143.061302,19.4631776 146.358736,19.1994019 C148.593898,19.0211589 150.640892,20.0858318 151.804763,21.8156262 C152.135408,21.5596262 152.542402,21.3951402 152.990276,21.3598505 C154.225085,21.2611589 155.308399,22.1786916 155.407593,23.4072523" id="Fill-515" fill="#FFFFFF"></path>
                <path d="M155.407593,23.4072523 L155.223033,23.4222056 C155.227842,23.4778318 155.229645,23.5334579 155.229645,23.588486 C155.229645,24.644785 154.411449,25.5431776 153.334748,25.6293084 C153.27944,25.6334953 153.223531,25.6358879 153.168824,25.6358879 C153.049792,25.6358879 152.933165,25.6251215 152.821948,25.604785 L152.677666,25.6382804 L152.603722,25.7662804 C152.518355,26.56 152.268868,27.3106542 151.887725,27.9805607 C150.970936,29.5901308 149.294865,30.7325607 147.301977,30.8916636 C147.143267,30.9042243 146.986361,30.9102056 146.830056,30.9102056 C143.835613,30.9102056 141.297461,28.6211589 141.054587,25.5988037 C141.041361,25.4414953 141.035349,25.284785 141.035349,25.1298692 C141.035349,22.1511776 143.336038,19.625271 146.373766,19.383028 C146.532475,19.3704673 146.689983,19.364486 146.845687,19.364486 C148.825349,19.3638879 150.605423,20.3645607 151.650862,21.9185047 L151.775305,21.9980561 L151.918384,21.960972 C152.221376,21.7265047 152.592901,21.5763738 153.004704,21.5434766 C153.061214,21.5386916 153.117123,21.5362991 153.17183,21.5362991 C154.233502,21.5362991 155.137065,22.3503551 155.223033,23.4222056 L155.407593,23.4072523 L155.592153,23.3928972 C155.489953,22.1278505 154.426478,21.1678505 153.17183,21.1678505 C153.106302,21.1678505 153.040775,21.1708411 152.975247,21.1762243 C152.491302,21.2145047 152.04944,21.3921495 151.691141,21.6702804 L151.804763,21.8156262 L151.958663,21.7133458 C150.846493,20.059514 148.952197,18.9960374 146.845687,18.9954393 C146.679763,18.9954393 146.512637,19.0026168 146.344308,19.0157757 C143.113003,19.2741682 140.665027,21.9597757 140.665027,25.1298692 C140.665027,25.2949533 140.67164,25.4612336 140.684865,25.6287103 C140.943971,28.8430654 143.643238,31.2786542 146.830056,31.2786542 C146.99598,31.2786542 147.163106,31.2720748 147.331434,31.2589159 C149.45117,31.0896449 151.235452,29.8736449 152.209953,28.1617944 C152.615745,27.4494206 152.881464,26.6509159 152.972241,25.805757 L152.788282,25.7860187 L152.754616,25.9672523 C152.889279,25.9917757 153.02815,26.0043364 153.168824,26.0043364 C153.23315,26.0043364 153.298678,26.0019439 153.364206,25.9965607 C154.635687,25.8942804 155.599968,24.8361869 155.599968,23.588486 C155.599968,23.5238879 155.597563,23.4586916 155.592153,23.3928972 L155.407593,23.4072523" id="Fill-516" fill="#23A79A"></path>
                <path d="M139.572094,23.2672897 L151.804763,21.8156262 L149.810672,15.6650467 C149.752959,15.4036636 149.417505,15.2541308 149.062211,15.332486 L144.793883,16.2643738 C141.228326,17.0431402 138.847681,19.9847477 139.476508,22.834243 L139.572094,23.2672897" id="Fill-517" fill="#23A79A"></path>
                <path d="M152.260452,24.5329346 L152.209352,24.534729 L152.260452,24.534729 L152.260452,24.5329346 L152.209352,24.534729 L152.260452,24.534729 C152.259851,24.5155888 152.265862,24.2715514 152.374675,24.0580187 C152.42878,23.9509533 152.504528,23.8516636 152.613942,23.7786916 C152.724558,23.7057196 152.871845,23.6536822 153.091273,23.6530841 L153.168824,23.6548785 C153.271024,23.6614579 153.358795,23.5842991 153.365408,23.4826168 C153.37142,23.3809346 153.293868,23.2936075 153.191669,23.287028 L153.091273,23.2840337 C152.811126,23.2834393 152.582079,23.3558131 152.40834,23.4724486 C152.146229,23.6477009 152.01878,23.9048972 151.955657,24.114243 C151.893135,24.3259813 151.890129,24.4976449 151.890129,24.534729 L151.890129,24.5437009 C151.893135,24.6453832 151.978502,24.7255327 152.080701,24.7225421 C152.182901,24.7195514 152.263458,24.635215 152.260452,24.5335327" id="Fill-518" fill="#23A79A"></path>
                <path d="M159.946449,125.798879 C156.824558,125.798879 153.999645,124.540411 151.953854,122.504972 C149.908062,120.468935 148.643194,117.658916 148.643194,114.552822 L148.643194,98.8494953 C148.643194,98.7484112 148.560833,98.6664673 148.459235,98.6664673 C148.357036,98.6664673 148.274675,98.7484112 148.274675,98.8494953 L148.274675,114.552822 C148.274675,120.965981 153.500071,126.165533 159.946449,126.165533 C160.048047,126.165533 160.131009,126.083589 160.131009,125.982505 C160.131009,125.880822 160.048047,125.798879 159.946449,125.798879" id="Fill-519" fill="#23A79A"></path>
                <path d="M48.7895575,122.609645 C48.7895575,122.609645 11.9322408,113.863178 0.185319966,72.2362617 C39.7076367,76.1217196 56.9336484,119.733234 56.9336484,119.733234 L48.7895575,122.609645" id="Fill-520" fill="#F6FFFE"></path>
                <path d="M48.7895575,122.609645 C48.7895575,122.609645 11.9322408,113.863178 0.185319966,72.2362617 C39.7076367,76.1217196 56.9336484,119.733234 56.9336484,119.733234 L48.7895575,122.609645" id="Fill-520-Copy" stroke="#23A79A" stroke-width="0.6"></path>
                <path d="M8.86685956,92.0714766 L26.2076953,96.0819439" id="Fill-521" fill="#23A79A"></path>
                <path d="M8.82477744,92.2509159 L26.1656132,96.2613832 C26.2654079,96.2847103 26.3646015,96.2231028 26.3880472,96.1238131 C26.4108918,96.0245234 26.348971,95.9258318 26.2491763,95.9025047 L8.90894167,91.8920374 C8.80914695,91.8693084 8.70935222,91.9309159 8.68650765,92.0302056 C8.6630619,92.1288972 8.72498272,92.2281869 8.82477744,92.2509159" id="Fill-522" fill="#23A79A"></path>
                <path d="M33.2059505,102.495701 L30.3197188,84.557757" id="Fill-523" fill="#FFFFFF"></path>
                <path d="M33.3887071,102.466393 L30.5030766,84.5284486 C30.4868449,84.4279626 30.3918596,84.3597757 30.2908625,84.3759252 C30.1898654,84.3914766 30.1207305,84.4859813 30.1369622,84.5864673 L33.0231939,102.525009 C33.0394255,102.625495 33.1344109,102.693682 33.2354079,102.677533 C33.336405,102.661383 33.4049387,102.566879 33.3887071,102.466393" id="Fill-524" fill="#23A79A"></path>
                <path d="M35.7248654,89.1771215 L38.4836484,107.332187" id="Fill-525" fill="#23A79A"></path>
                <path d="M35.5421088,89.2046355 L38.3002906,107.359701 C38.3159211,107.460187 38.4103053,107.52957 38.5113024,107.514617 C38.6122994,107.499065 38.6820355,107.405159 38.6670062,107.304673 L35.9082232,89.1496075 C35.8925927,89.0491215 35.7982085,88.9797383 35.6972115,88.9952897 C35.5962144,89.010243 35.5264783,89.1041495 35.5421088,89.2046355" id="Fill-526" fill="#23A79A"></path>
                <path d="M0.185319966,72.2362617 L53.6338097,121.215402" id="Fill-527" fill="#FFFFFF"></path>
                <path d="M0.0596748047,72.3720374 L53.5081645,121.351178 C53.5839123,121.419963 53.7011411,121.415178 53.770276,121.340411 C53.8394109,121.265047 53.8346015,121.149009 53.7594549,121.079626 L0.310965127,72.1010841 C0.2358185,72.0317009 0.118589761,72.036486 0.0488536903,72.1112523 C-0.020281207,72.1866168 -0.0154718229,72.3032523 0.0596748047,72.3720374" id="Fill-528" fill="#23A79A"></path>
                <polygon id="Fill-529" fill="#80C9C2" fill-rule="nonzero" points="44.8987657 113.789607 83.6906572 113.789607 83.6906572 103.208673 44.8987657 103.208673"></polygon>
                <path d="M74.3123581,125.982505 L37.2356132,125.982505 C32.8608772,125.982505 29.3151587,122.454131 29.3151587,118.102131 C29.3151587,113.750131 32.8608772,110.221757 37.2356132,110.221757 L74.3123581,113.945121 L74.3123581,125.982505" id="Fill-530" fill="#80C9C2" fill-rule="nonzero"></path>
                <polyline id="Fill-531" fill="#23A79A" points="44.9594842 127.870206 52.0659505 122.869234 52.0659505 117.063776 44.9594842 117.063776 44.9594842 127.870206"></polyline>
                <path d="M51.8134578,125.982505 L88.8908038,125.982505 C93.2649387,125.982505 96.8106572,122.454131 96.8106572,118.102131 C96.8106572,113.750131 93.2649387,110.221757 88.8908038,110.221757 L51.8134578,113.945121 L51.8134578,125.982505" id="Fill-532" fill="#80C9C2" fill-rule="nonzero"></path>
                <path d="M57.3081792,39.5442243 C57.3081792,39.5442243 54.0317862,34.052785 57.3081792,32.0053832 C60.583971,29.9573832 70.1630619,27.8166729 70.1630619,27.8166729 L69.0382672,37.6248224 L57.3081792,39.5442243" id="Fill-533" fill="#23A79A"></path>
                <path d="M90.6137657,78.9197757 C90.6137657,64.2524112 78.9492056,52.040972 64.2108478,51.6910654 C63.9096601,51.6838879 63.6048654,51.6797009 63.2964637,51.6797009 C41.1258038,51.6797009 34.1305546,67.7143925 33.0797041,70.4819439 C30.9948361,75.972785 28.0935751,90.4589159 40.9382379,94.0680374 L40.9382379,106.967925 L85.1881792,106.967925 L85.1881792,93.8162243 L90.6137657,93.2856822 L90.6137657,78.9197757" id="Fill-534" fill="#E1F1F0"></path>
                <path d="M62.2185604,55.6512897 L62.2185604,55.6512897 C64.4495135,55.6512897 66.2590443,53.8509159 66.2590443,51.6300561 L66.2590443,38.5620935 L58.1768742,38.5620935 L58.1768742,51.6300561 C58.1768742,53.8509159 59.986405,55.6512897 62.2185604,55.6512897" id="Fill-535" fill="#FFFFFF"></path>
                <path d="M62.2185604,55.6512897 L62.2185604,55.835514 C64.5523141,55.835514 66.4442056,53.9525981 66.4442056,51.6300561 L66.4442056,38.5620935 L66.3901,38.4322991 L66.2590443,38.3778692 L58.1768742,38.3778692 L58.0458185,38.4322991 L57.9917129,38.5620935 L57.9917129,51.6300561 C57.9917129,53.9525981 59.8836044,55.835514 62.2185604,55.835514 L62.2185604,55.4664673 C61.1526807,55.4664673 60.1896015,55.0376075 59.4916396,54.3431776 C58.7930766,53.6481495 58.3620355,52.6899439 58.3620355,51.6300561 L58.3620355,38.7469159 L66.073883,38.7469159 L66.073883,51.6300561 C66.073883,52.6899439 65.642842,53.6481495 64.9442789,54.3431776 C64.246317,55.0376075 63.2832379,55.4664673 62.2185604,55.4664673 L62.2185604,55.6512897" id="Fill-536" fill="#23A79A"></path>
                <path d="M55.132534,41.0503178 C55.3405399,42.2657196 56.501405,43.0845607 57.7229886,42.8776075 C57.9117569,42.8459065 58.0933112,42.7908785 58.2598361,42.7143178 C58.547798,43.4871028 58.989059,44.1749533 59.5409358,44.7485607 C60.8683258,46.1266542 62.8371675,46.8462056 64.871537,46.5022804 C68.1316983,45.9508037 70.3241763,42.8758131 69.7698947,39.6315514 C69.215012,36.3866916 66.1249827,34.2053084 62.8636191,34.756785 C60.6531059,35.131215 58.9325487,36.6642243 58.2321821,38.6254953 C57.8480326,38.4580187 57.4127833,38.3982056 56.97032,38.4735701 C55.7481352,38.6805234 54.9257305,39.8343178 55.132534,41.0503178" id="Fill-537" fill="#FFFFFF"></path>
                <path d="M55.132534,41.0503178 L54.9503786,41.0808224 C55.1523728,42.2597383 56.1803786,43.0935327 57.3442496,43.0935327 C57.4795135,43.0935327 57.616581,43.0827664 57.7536484,43.0594393 C57.9580472,43.0247477 58.155232,42.9655327 58.3373874,42.8811963 L58.2598361,42.7143178 L58.0860971,42.7783178 C58.3830766,43.575028 58.8381645,44.2850093 59.4074754,44.8759626 C60.5472994,46.0590654 62.1452173,46.7714393 63.8597628,46.7714393 C64.2036337,46.7714393 64.5523141,46.742729 64.9021968,46.6841121 C67.9134725,46.1745047 70.0410238,43.5786168 70.0410238,40.6376075 C70.0410238,40.2954766 70.0121675,39.9485607 69.9526513,39.6004486 C69.4398508,36.6038131 66.8307598,34.487028 63.8747921,34.487028 C63.5309211,34.487028 63.1822408,34.5157383 62.8323581,34.5749533 C60.5539123,34.9613458 58.7792496,36.5416075 58.0572408,38.5638879 L58.2321821,38.6254953 L58.3067276,38.4568224 C58.0097481,38.327028 57.6845135,38.2570467 57.349059,38.2570467 C57.213795,38.2570467 57.0767276,38.2684112 56.9384578,38.2917383 C55.7535458,38.4927103 54.9155106,39.515514 54.9155106,40.6740935 C54.9155106,40.8080748 54.9269329,40.9444486 54.9503786,41.0808224 L55.132534,41.0503178 L55.3152906,41.019215 C55.2954519,40.9031776 55.2858332,40.7877383 55.2858332,40.6740935 C55.2858332,39.693757 55.9964197,38.8246729 57.001581,38.6554019 C57.1182085,38.6350654 57.2342349,38.6254953 57.349059,38.6254953 C57.6328126,38.6254953 57.9069475,38.6847103 58.1576367,38.7941682 L58.3055252,38.7947664 L58.4065223,38.6871028 C59.0852467,36.786243 60.7522994,35.3010841 62.8942789,34.9386168 C63.2243229,34.8823925 63.551361,34.8560748 63.8747921,34.8560748 C66.6516103,34.8560748 69.1061997,36.8454579 69.5871381,39.6620561 C69.6430472,39.9898318 69.6701,40.3158131 69.6701,40.6376075 C69.6701,43.4003738 67.6705986,45.8419439 64.840276,46.3204486 C64.5108332,46.3760748 64.1831939,46.4029907 63.8597628,46.4029907 C62.2492203,46.4029907 60.7462877,45.7336822 59.6749974,44.6211589 C59.1399534,44.0654953 58.7125194,43.3985794 58.4329739,42.6503178 L58.3301733,42.5438505 L58.1816836,42.5468411 C58.0313903,42.6162243 57.8654666,42.6664673 57.6917276,42.6957757 C57.5751,42.715514 57.4590736,42.7250841 57.3442496,42.7250841 C56.3595282,42.7250841 55.4854226,42.0180935 55.3152906,41.019215 L55.132534,41.0503178" id="Fill-538" fill="#23A79A"></path>
                <path d="M58.822534,41.288972 C58.818927,41.2758131 58.766625,41.0509159 58.6025047,40.8122617 C58.4425927,40.5754019 58.1432085,40.3164112 57.6929299,40.3181963 C57.5570648,40.3181963 57.4103786,40.3409346 57.2522701,40.3905794 C57.1542789,40.4210841 57.1001733,40.5245607 57.1314343,40.6220561 C57.1620942,40.7189533 57.2660971,40.772785 57.3634871,40.7422804 C57.4897335,40.7028037 57.5985458,40.6866542 57.6929299,40.6866542 C57.9959211,40.6884486 58.1708625,40.8433645 58.29771,41.0210093 C58.3584285,41.1089346 58.4011118,41.2004486 58.4269622,41.2680374 L58.4552173,41.3481869 L58.4612291,41.3691215 L58.4618302,41.3733084 C58.485276,41.472 58.5850707,41.5336075 58.6848654,41.5102804 C58.784059,41.4869533 58.8459798,41.3876636 58.822534,41.288972" id="Fill-539" fill="#23A79A"></path>
                <path d="M88.8721675,110.039327 L51.7948214,113.762692 C51.7010384,113.771664 51.6288977,113.850617 51.6288977,113.945121 L51.6288977,125.982505 C51.6288977,126.083589 51.7118596,126.165533 51.8134578,126.165533 C51.915056,126.165533 51.9974167,126.083589 51.9974167,125.982505 L51.9974167,114.110804 L88.908839,110.404187 C89.0104373,110.394019 89.0843815,110.304299 89.0741616,110.203215 C89.0639417,110.102729 88.9731645,110.029159 88.8721675,110.039327" id="Fill-540" fill="#23A79A"></path>
                <path d="M29.4997188,118.102131 C29.4997188,115.975776 30.3648068,114.052785 31.7655399,112.659738 C33.1656719,111.266093 35.0984431,110.405383 37.2356132,110.405383 L37.2356132,110.221757 L37.2169769,110.404187 L49.5271968,111.639925 C49.6281939,111.650093 49.7183698,111.577121 49.7285898,111.476037 C49.7388097,111.375551 49.6654666,111.285832 49.5638684,111.275664 L37.2542496,110.039327 L37.2356132,110.038131 C32.7592789,110.038729 29.1311997,113.648449 29.1305986,118.102131 C29.1305986,118.203215 29.2135604,118.285159 29.3151587,118.285159 C29.4167569,118.285159 29.4997188,118.203215 29.4997188,118.102131" id="Fill-541" fill="#23A79A"></path>
                <path d="M142.920628,93.910729 C142.920628,111.885159 128.274851,126.457421 110.208399,126.457421 C92.1419475,126.457421 77.4961704,111.885159 77.4961704,93.910729 C77.4961704,75.9351028 92.1419475,61.3640374 110.208399,61.3640374 C128.274851,61.3640374 142.920628,75.9351028 142.920628,93.910729" id="Fill-542" fill="#23A79A"></path>
                <path d="M136.498898,93.910729 C136.498898,108.356785 124.728531,120.068187 110.208399,120.068187 C95.6882672,120.068187 83.9172994,108.356785 83.9172994,93.910729 C83.9172994,79.4634766 95.6882672,67.7526729 110.208399,67.7526729 C124.728531,67.7526729 136.498898,79.4634766 136.498898,93.910729" id="Fill-543" fill="#F6FFFE"></path>
                <g id="noun_House_1954712" transform="translate(98.551654, 80.840374)" fill="#71B6AF">
                    <path d="M22.7261757,8.61261546 C22.5312886,8.61261546 22.334697,8.56208812 22.1540146,8.45586586 L11.9318197,2.42473834 L1.70962489,8.45586586 C1.16814572,8.77625515 0.471552379,8.59137101 0.155073999,8.04303449 C-0.16140438,7.49527215 0.022118989,6.79190855 0.563598155,6.47266761 L11.2687492,0.156749601 C11.4426135,0.0539723902 11.6397733,0 11.8414785,0 L12.022161,0 C12.223298,0 12.421026,0.0539723902 12.5954584,0.156749601 L23.3006095,6.47266761 C23.8420887,6.79248273 24.0250438,7.49584632 23.7091336,8.04303449 C23.4972011,8.40878356 23.1170861,8.61261546 22.7261757,8.61261546 Z" id="Path"></path>
                    <path d="M21.1070302,9.06371589 L12.4930357,4.44686355 C12.3213301,4.35441645 12.1283766,4.30654206 11.9319776,4.30654206 L11.7424697,4.30654206 C11.5460706,4.30654206 11.3531171,4.35441645 11.1819858,4.44631327 L2.75749916,8.95861234 C2.39456285,9.15341159 2.16945047,9.52099888 2.16945047,9.91940187 L2.16945047,19.7143925 C2.16945047,20.3219021 2.68399307,20.8149533 3.31798306,20.8149533 L9.63491236,20.8149533 C10.2689024,20.8149533 10.783445,20.3219021 10.783445,19.7143925 L10.783445,16.1210617 C10.783445,15.5746333 11.2985618,15.130557 11.9319776,15.130557 C12.5653933,15.130557 13.0805102,15.5751836 13.0805102,16.1210617 L13.0805102,19.7143925 C13.0805102,20.3219021 13.5950528,20.8149533 14.2290428,20.8149533 L20.5459721,20.8149533 C21.179962,20.8149533 21.6945047,20.3219021 21.6945047,19.7143925 L21.6945047,10.0239551 C21.6945047,9.62555215 21.4693923,9.25796486 21.1070302,9.06371589 Z M10.8580996,9.80274243 L6.76358086,12.0968613 L6.76358086,16.9629907 C6.76358086,17.2667454 6.50688383,17.513271 6.18931456,17.513271 C5.8717453,17.513271 5.61504826,17.2667454 5.61504826,16.9629907 L5.61504826,11.7810004 C5.61504826,11.5856508 5.72301033,11.4046086 5.89931008,11.3061084 L10.2780906,8.8529585 C10.5537384,8.69998056 10.9046151,8.7885757 11.0636869,9.04995888 C11.2239072,9.31244262 11.1314503,9.64921421 10.8580996,9.80274243 Z" id="Shape"></path>
                </g>
                <polyline id="Fill-546" fill="#FFFFFF" points="71.0690296 85.1116262 79.4181206 83.6629533 79.4782379 85.6654953 82.9211557 85.8234019 82.7834871 94.171514 70.1630619 94.2899439 71.0690296 85.1116262"></polyline>
                <path d="M71.0690296,85.1116262 L71.1008918,85.2928598 L79.2395722,83.8806729 L79.2930766,85.6714766 C79.2960824,85.7671776 79.3736337,85.8455327 79.4698214,85.8497196 L82.7329886,85.9992523 L82.6013317,93.9890841 L70.3674607,94.1039252 L71.2535898,85.1295701 L71.0690296,85.1116262 L71.1008918,85.2928598 L71.0690296,85.1116262 L70.8844695,85.0930841 L69.979103,94.272 L70.0265956,94.4143551 L70.1648654,94.4741682 L82.7852906,94.3557383 C82.8862877,94.3545421 82.9674461,94.2743925 82.9692496,94.1745047 L83.1063474,85.8263925 C83.1081206,85.7271028 83.0293669,85.6439626 82.9295722,85.6391776 L79.6585898,85.4896449 L79.6032818,83.656972 L79.5353493,83.52 L79.3862584,83.4811215 L71.0371675,84.9297944 C70.9554079,84.9441495 70.8928859,85.0105421 70.8844695,85.0930841 L71.0690296,85.1116262" id="Fill-547" fill="#23A79A"></path>
                <path d="M82.8862877,87.9682991 L78.9413903,87.8103925 C78.8391909,87.8062056 78.752622,87.8851589 78.7484138,87.9868411 C78.7442056,88.0891215 78.8241616,88.1746542 78.926361,88.1788411 L82.8712584,88.3361495 C82.9734578,88.3403364 83.0600267,88.2613832 83.0642349,88.1597009 C83.067842,88.0580187 82.9884871,87.9718879 82.8862877,87.9682991" id="Fill-548" fill="#23A79A"></path>
                <path d="M82.7077393,90.0719252 L78.762842,89.9140187 C78.6606425,89.9098318 78.5740736,89.988785 78.5698654,90.0904673 C78.5662584,90.1921495 78.6456132,90.2776822 78.7478126,90.2818692 L82.69271,90.4403738 C82.7949094,90.4445607 82.8814783,90.3656075 82.8856865,90.2639252 C82.8898947,90.1616449 82.8099387,90.0761121 82.7077393,90.0719252" id="Fill-549" fill="#23A79A"></path>
                <path d="M82.6872994,92.168972 L78.7424021,92.0104673 C78.6402027,92.0068785 78.5536337,92.0858318 78.5494255,92.187514 C78.5452173,92.2891963 78.6251733,92.374729 78.7273728,92.3789159 L82.6722701,92.5374206 C82.7744695,92.5416075 82.8610384,92.4620561 82.8646455,92.3603738 C82.8688537,92.2586916 82.7894989,92.1731589 82.6872994,92.168972" id="Fill-550" fill="#23A79A"></path>
                <path d="M69.0749387,94.2654206 C65.7444402,94.4885234 59.2499681,94.8438131 51.7701733,94.8438131 C50.035188,94.8438131 48.2460971,94.8246729 46.4317569,94.7804112 C46.3295575,94.7780187 46.2447921,94.8587664 46.242335,94.9604486 C46.2399827,95.0621308 46.3205399,95.1464673 46.4227393,95.1488598 C48.2406865,95.1931215 50.0321821,95.2128598 51.7701733,95.2128598 C59.2613903,95.2122617 65.7636777,94.8563738 69.0995868,94.633271 C69.2017862,94.6266916 69.2787364,94.5387664 69.2721235,94.4370841 C69.2649094,94.336 69.176537,94.2588411 69.0749387,94.2660187" id="Fill-551" fill="#23A79A"></path>
                <path d="M45.3370208,76.1091589 C45.3364197,76.1139439 45.2672848,76.7437757 45.2672848,77.6218318 C45.2678859,78.6165234 45.3538537,79.9276262 45.7392056,81.024 C45.9327833,81.5718879 46.2015076,82.0689346 46.585056,82.4415701 C46.9668009,82.8142056 47.4693815,83.0540561 48.0855839,83.0749907 C51.390232,83.1922243 71.7874314,83.6785047 71.7880326,83.6785047 C71.890232,83.6814953 71.9749974,83.6007477 71.9774545,83.4990654 C71.9798068,83.3973832 71.8992496,83.3130467 71.7970502,83.3106542 C71.7934431,83.3100561 70.5219622,83.2801495 68.5579299,83.2322991 C62.6664343,83.0899439 50.5714343,82.7944673 48.0988097,82.7065421 C47.5709798,82.6862056 47.1711997,82.4930093 46.8435604,82.1771963 C46.3530033,81.7046729 46.042798,80.9336822 45.8654519,80.0933084 C45.6869035,79.2541308 45.6376074,78.3509533 45.6376074,77.6218318 C45.6376074,77.1923738 45.6544402,76.8233271 45.6718742,76.5619439 C45.6887071,76.3005607 45.7049387,76.1498318 45.7049387,76.1492336 C45.716361,76.0481495 45.6430179,75.9572336 45.5414197,75.9464673 C45.4392203,75.9351028 45.347842,76.0080748 45.3370208,76.109757" id="Fill-552" fill="#23A79A"></path>
                <path d="M146.599206,79.8684112 C149.616493,79.6303551 159.069338,78.7457196 169.942754,76.7904299 C170.04315,76.772486 170.110481,76.6761869 170.091845,76.5762991 C170.07381,76.4764112 169.977622,76.4094206 169.876625,76.4279626 C159.021244,78.3796636 149.576816,79.2637009 146.569748,79.5011589 C146.467549,79.5095327 146.391801,79.5980561 146.399616,79.6997383 C146.408033,79.8008224 146.497006,79.876785 146.599206,79.8690093" id="Fill-553" fill="#23A79A"></path>
                <path d="M167.458106,58.2699065 C167.458707,58.2699065 167.486361,58.3739813 167.530247,58.5617944 C167.660701,59.1240374 167.92161,60.4195888 167.921009,61.7139439 C167.922211,62.514243 167.820012,63.3133458 167.539865,63.9288224 C167.256713,64.5454953 166.822666,64.9743551 166.104865,65.1149159 C164.494924,65.4229533 158.780775,66.2555514 153.478428,67.0091963 C150.826654,67.3860187 148.275877,67.7437009 146.388194,68.0068785 C144.500511,68.2700561 143.278927,68.438729 143.275921,68.4393271 C143.174924,68.4530841 143.103986,68.5463925 143.117813,68.6474766 C143.132241,68.7479626 143.225423,68.8185421 143.327021,68.804785 C143.330027,68.8035888 162.916845,66.1000374 166.175203,65.476785 C167.01925,65.3182804 167.568121,64.7721869 167.877725,64.0801495 C168.190936,63.387514 168.291332,62.5447477 168.291933,61.7139439 C168.290731,59.9249346 167.817607,58.1819813 167.815804,58.1736075 C167.789352,58.075514 167.687754,58.0174953 167.589162,58.0438131 C167.489968,58.0701308 167.431654,58.171215 167.458106,58.2699065" id="Fill-554" fill="#23A79A"></path>
                <polyline id="Fill-555" fill="#FFFFFF" points="143.664279 70.2666168 135.555657 71.0824673 135.555657 72.8355888 132.178267 73.5174579 133.487622 81.010243 145.977593 79.1985047 143.664279 70.2666168"></polyline>
                <path d="M143.664279,70.2666168 L143.645643,70.0835888 L135.537021,70.8988411 C135.442036,70.9084112 135.370496,70.9873645 135.370496,71.0824673 L135.370496,72.6848598 L132.140994,73.3368224 C132.043003,73.3565607 131.978077,73.4510654 131.995511,73.5491589 L133.305467,81.0419439 C133.322299,81.1406355 133.41488,81.207028 133.514675,81.1926729 L146.004044,79.3809346 L146.131493,79.3001869 L146.156742,79.1524486 L143.843428,70.2205607 C143.820584,70.1326355 143.737021,70.0740187 143.645643,70.0835888 L143.664279,70.2666168 L143.485129,70.3126729 L145.746742,79.0453832 L133.639118,80.8020935 L132.391082,73.6622056 L135.592329,73.0162243 C135.678898,72.9988785 135.740818,72.923514 135.740818,72.8355888 L135.740818,71.2487477 L143.682915,70.450243 L143.664279,70.2666168 L143.485129,70.3126729 L143.664279,70.2666168" id="Fill-556" fill="#23A79A"></path>
                <path d="M132.61532,75.9937196 L136.489279,75.2340935 C136.589675,75.2149533 136.655203,75.1174579 136.635364,75.0181682 C136.615525,74.9182804 136.518135,74.8530841 136.417739,74.8728224 L132.54378,75.6318505 C132.443384,75.6515888 132.377857,75.748486 132.397695,75.8483738 C132.417534,75.9482617 132.514924,76.0134579 132.61532,75.9937196" id="Fill-557" fill="#23A79A"></path>
                <path d="M133.093253,77.8981682 L136.967211,77.1385421 C137.067607,77.1188037 137.133135,77.0219065 137.113297,76.9220187 C137.093458,76.8221308 136.996068,76.7575327 136.895672,76.7766729 L133.021713,77.5362991 C132.921317,77.5560374 132.855789,77.6529346 132.875628,77.7528224 C132.895467,77.8527103 132.992857,77.9173084 133.093253,77.8981682" id="Fill-558" fill="#23A79A"></path>
                <path d="M133.374,79.5621682 L137.247959,78.8025421 C137.348355,78.7828037 137.413883,78.6859065 137.394044,78.5860187 C137.374206,78.4861308 137.276816,78.4215327 137.17642,78.441271 L133.302461,79.2002991 C133.202065,79.2200374 133.136537,79.3169346 133.156376,79.4168224 C133.176214,79.5167103 133.273604,79.5819065 133.374,79.5621682" id="Fill-559" fill="#23A79A"></path>
            </g>
        </g>
    </g>
</svg>