<?xml version="1.0" encoding="UTF-8"?>
<svg width="143px" height="120px" viewBox="0 0 143 120" version="1.1" xmlns="http://www.w3.org/2000/svg" xmlns:xlink="http://www.w3.org/1999/xlink">
    <!-- Generator: Sketch 52.4 (67378) - http://www.bohemiancoding.com/sketch -->
    <title>Password02</title>
    <desc>Created with Sketch.</desc>
    <defs>
        <path d="M8,0 L81,0 C85.418278,-8.11624501e-16 89,3.581722 89,8 L89,60 C89,64.418278 85.418278,68 81,68 L8,68 C3.581722,68 -3.49860538e-14,64.418278 -3.55271368e-14,60 L-3.55271368e-14,8 C-3.60682198e-14,3.581722 3.581722,8.11624501e-16 8,0 Z" id="path-1"></path>
        <path d="M15,30 C6.71572875,30 0,23.2842712 0,15 C0,6.71572875 6.71572875,0 15,0 C23.2842712,0 30,6.71572875 30,15 C30,23.2842712 23.2842712,30 15,30 Z M15,27 C21.627417,27 27,21.627417 27,15 C27,8.372583 21.627417,3 15,3 C8.372583,3 3,8.372583 3,15 C3,21.627417 8.372583,27 15,27 Z" id="path-3"></path>
    </defs>
    <g id="Page-1" stroke="none" stroke-width="1" fill="none" fill-rule="evenodd">
        <g id="Reset-(Confirmed)" transform="translate(-228.000000, -197.000000)">
            <g id="Password02" transform="translate(228.000000, 197.000000)">
                <path d="M92.6979969,52.8782274 C68.9665604,38.6854533 57.7651903,-4.91840972 21.1293681,21.1382216 C-15.505766,47.1941719 -0.314866798,100.728619 34.7927139,113.675218 C69.9002946,126.621817 115.068397,119.308201 127.77943,95.2570256 C149.4989,54.1591317 108.616892,62.3988672 92.6979969,52.8782274" id="Fill-24" fill="#DBDCE7"></path>
                <path d="M127.077743,29.379177 L128.757743,34.2091294 C128.828743,34.4133853 128.707077,34.6229637 128.500077,34.6944866 L126.183077,35.4972054 C126.006077,35.5587483 125.77841,35.4702596 125.707077,35.2660037 L124.027077,30.4360514 C122.229743,30.3715145 120.555743,29.241454 119.924077,27.4244419 C119.111077,25.0881408 120.354743,22.52463 122.70341,21.7109332 C125.05041,20.8979018 127.61741,22.1410681 128.430077,24.4773692 C129.06241,26.2943814 128.450077,28.2161828 127.077743,29.379177 Z M113.083743,12.1401825 C112.062077,9.20242446 113.62241,5.98223445 116.56641,4.9626185 C119.508077,3.94333521 122.73341,5.50486124 123.755743,8.44295196 L124.76641,11.3494396 L114.094743,15.0466701 L113.083743,12.1401825 Z M131.501743,9.01613248 L129.17041,9.8238413 L128.15941,6.91702101 C126.294743,1.55646916 120.405077,-1.2901389 115.038077,0.569121641 C109.66841,2.42938017 106.81941,8.30356564 108.684077,13.6644502 L109.695077,16.5709378 L107.35641,17.3813079 C105.537743,18.011374 104.56041,20.0200008 105.19241,21.8373456 L111.771743,40.7506394 C112.41341,42.5952627 114.42841,43.5716323 116.247077,42.9415662 L140.392743,34.5760581 C142.241077,33.9356794 143.218743,31.9223953 142.577077,30.0781046 L135.997743,11.1644783 C135.365743,9.34746608 133.349743,8.37575378 131.501743,9.01613248 Z" id="Fill-7" fill="#B1B6D1"></path>
                <g id="Group-5" transform="translate(26.000000, 24.000000)">
                    <g id="Rectangle">
                        <mask id="mask-2" fill="white">
                            <use xlink:href="#path-1"></use>
                        </mask>
                        <use id="Mask" fill="#F7F7F7" xlink:href="#path-1"></use>
                        <g id="check" mask="url(#mask-2)">
                            <g transform="translate(30.000000, 29.000000)">
                                <g id="Path-7" stroke-width="1" fill="none">
                                    <mask id="mask-4" fill="white">
                                        <use xlink:href="#path-3"></use>
                                    </mask>
                                    <use id="Mask" fill="#B1B6D1" xlink:href="#path-3"></use>
                                </g>
                                <path d="M20.7832213,12.8042625 L14.1250813,19.4099298 C13.9805622,19.5533099 13.805116,19.625 13.5987427,19.625 C13.3923694,19.625 13.2169232,19.5533099 13.0724041,19.4099298 L9.21677867,15.5846905 C9.07225956,15.4413104 9,15.2672469 9,15.0625 C9,14.8577531 9.07225956,14.6836896 9.21677867,14.5403095 L10.2698894,13.4954983 C10.4144086,13.3521181 10.5898548,13.280428 10.7962281,13.280428 C11.0026013,13.280428 11.1780475,13.3521181 11.3225667,13.4954983 L13.5987427,15.7614783 L18.6774333,10.7150702 C18.8219525,10.5716901 18.9973987,10.5 19.2037719,10.5 C19.4101452,10.5 19.5855914,10.5716901 19.7301106,10.7150702 L20.7832213,11.7598814 C20.9277404,11.9032616 21,12.0773251 21,12.282072 C21,12.4868188 20.9277404,12.6608824 20.7832213,12.8042625 Z" id="Shape" fill="#B1B6D1"></path>
                            </g>
                        </g>
                        <rect fill="#5E5A97" mask="url(#mask-2)" x="0" y="0" width="90" height="24"></rect>
                    </g>
                    <path d="M17.3050736,45.0085621 L17,44 L16.6949264,45.0085621 C16.4376432,45.8584739 15.8268412,46.5754218 15,47 C15.8268412,47.4230672 16.4376432,48.1415261 16.6949264,48.9914379 L17,50 L17.3050736,48.9914379 C17.5617021,48.1415261 18.1725041,47.4230672 19,47 C18.1725041,46.5754218 17.5617021,45.8584739 17.3050736,45.0085621" id="Fill-40" fill="#FFFFFE"></path>
                    <path d="M3.7288514,10.5044856 L3.49962788,10 L3.2711486,10.5044856 C3.07839246,10.9293758 2.61994542,11.2884138 2,11.5002863 C2.61994542,11.7121588 3.07839246,12.0706242 3.2711486,12.496087 L3.49962788,13 L3.7288514,12.496087 C3.92160754,12.0706242 4.38005458,11.7121588 5,11.5002863 C4.38005458,11.2884138 3.92160754,10.9293758 3.7288514,10.5044856" id="Fill-42" fill="#FFFFFE"></path>
                    <path d="M45,14.5034377 C43.3431458,14.5034377 42,13.0475936 42,11.2517189 C42,9.45584412 43.3431458,8 45,8 C46.6568542,8 48,9.45584412 48,11.2517189 C48,13.0475936 46.6568542,14.5034377 45,14.5034377 Z M48.3075175,13.6907348 C49.345406,14.6837831 50,16.1366114 50,17.7551566 C50,20.7482811 40,20.7482811 40,17.7551566 C40,16.1366114 40.654594,14.6837831 41.6924825,13.6907348 C42.4124884,14.83563 43.6252537,15.587344 45,15.587344 C46.3747463,15.587344 47.5875116,14.83563 48.3075175,13.6907348 Z" id="icon" fill="#FFFFFF"></path>
                </g>
                <path d="M28.3050736,86.0085621 L28,85 L27.6949264,86.0085621 C27.4376432,86.8584739 26.8268412,87.5754218 26,88 C26.8268412,88.4230672 27.4376432,89.1415261 27.6949264,89.9914379 L28,91 L28.3050736,89.9914379 C28.5617021,89.1415261 29.1725041,88.4230672 30,88 C29.1725041,87.5754218 28.5617021,86.8584739 28.3050736,86.0085621" id="Fill-40" fill="#FFFFFE"></path>
                <path d="M115.728851,81.5038168 L115.500372,81 L115.271149,81.5038168 C115.078392,81.928626 114.62069,82.2875954 114,82.4994275 C114.62069,82.7118321 115.078392,83.070229 115.271149,83.4956107 L115.500372,84 L115.728851,83.4956107 C115.921608,83.070229 116.37931,82.7118321 117,82.4994275 C116.37931,82.2875954 115.921608,81.928626 115.728851,81.5038168" id="Fill-41" fill="#FFFFFE"></path>
                <path d="M14.7288514,51.5044856 L14.4996279,51 L14.2711486,51.5044856 C14.0783925,51.9293758 13.6199454,52.2884138 13,52.5002863 C13.6199454,52.7121588 14.0783925,53.0706242 14.2711486,53.496087 L14.4996279,54 L14.7288514,53.496087 C14.9216075,53.0706242 15.3800546,52.7121588 16,52.5002863 C15.3800546,52.2884138 14.9216075,51.9293758 14.7288514,51.5044856" id="Fill-42" fill="#FFFFFE"></path>
                <path d="M57.3047962,35.0079335 L56.9996726,34 L56.6952038,35.0079335 C56.4378785,35.8579524 55.8263218,36.5757461 55,36.9996222 C55.8263218,37.4234983 56.4378785,38.141292 56.6952038,38.9913109 L56.9996726,40 L57.3047962,38.9913109 C57.5621215,38.141292 58.1730234,37.4234983 59,36.9996222 C58.1730234,36.5757461 57.5621215,35.8579524 57.3047962,35.0079335" id="Fill-39" fill="#FFFFFE"></path>
                <path d="M85.016,39.5590075 C85.048,39.8260075 85.291,40.0170075 85.559,39.9850075 C85.826,39.9520075 86.017,39.7090075 85.984,39.4410075 C85.952,39.1730075 85.709,38.9830075 85.441,39.0150075 C85.174,39.0480075 84.983,39.2910075 85.016,39.5590075" id="Fill-63" fill="#FFFFFE"></path>
            </g>
        </g>
    </g>
</svg>