<?xml version="1.0" encoding="UTF-8"?>
<svg width="133px" height="93px" viewBox="0 0 133 93" version="1.1" xmlns="http://www.w3.org/2000/svg" xmlns:xlink="http://www.w3.org/1999/xlink">
    <!-- Generator: Sketch 55.2 (78181) - https://sketchapp.com -->
    <title>Friends-image</title>
    <desc>Created with Sketch.</desc>
    <g id="Property-Listing" stroke="none" stroke-width="1" fill="none" fill-rule="evenodd">
        <g id="Share-Popup" transform="translate(-121.000000, -200.000000)">
            <g id="Friends-image" transform="translate(121.000000, 200.000000)">
                <path d="M59,74 L59.0928009,79.232764 C59.0548822,80.6845978 59.1958655,82.1319355 59.2910897,83.5790088 C59.3794715,84.9230691 59.0873839,86.3083875 59.7749087,87.5540633 C59.9904463,87.9446924 60.4491763,88.2168369 60.7982844,87.7655108 C61.0671361,87.4179911 60.9434016,86.8161789 61.0098304,86.4125906 C61.5091876,83.3791981 62.4384793,80.4207843 62.9021986,77.3817056 C63.3880134,74.1982238 62.0602908,74.2821945 59,74" id="Fill-4" fill="#F4E4C1"></path>
                <polyline id="Fill-5" fill="#1C1D33" points="59.3674044 86.6759749 59 87.5239942 60.8079936 88.9392437 62.4643463 89 63 88.222756 60.7723219 86.5 59.3674044 86.6759749"></polyline>
                <path d="M55,73.8138734 L54.0983798,79.0283739 C53.7858482,81.3609828 53.0754694,83.6327538 52.7630627,85.9654967 C52.6912378,86.501915 52.7273376,87.0885848 52.5183586,87.5947182 C52.3140014,88.0895953 51.9139059,88.1091599 51.5607775,87.7733456 C51.0876081,87.32336 51.3059556,86.5196035 51.3145745,85.9050609 C51.3724091,81.8112364 51.0723687,77.7755698 51.0001692,73.6750452 C50.9991699,73.6213095 51.0014183,73.5596677 51.0401412,73.5256306 C51.0716193,73.4977578 51.1164629,73.4984278 51.1571845,73.5013759 C51.5283002,73.5279087 54.9805136,73.9263028 55,73.8138734" id="Fill-6" fill="#F4E4C1"></path>
                <polyline id="Fill-7" fill="#1C1D33" points="51.039277 87 50.5 87.7821152 51.8195162 89.5928514 53.3233216 90 54 89.3245794 52.369258 87.1149737 51.039277 87"></polyline>
                <polyline id="Fill-8" fill="#1C1D33" points="64 77.5 63.2889884 69.9244198 62.9461275 65.0025825 61.7930717 60.9823321 55.5673077 60 47.8699947 61.3413332 47.5 62.8615645 48.9814278 76.9342485 56.4056902 77.5 56.305058 68.7412292 57.4502107 74.1701673 57.401607 77.5 64 77.5"></polyline>
                <path d="M50.0400445,46.0367033 C50.0293765,46.2924422 50.0223089,46.5480473 50.0179084,46.8031168 C49.926697,51.9990365 50.2119326,57.2611001 50.2447367,62.5 C52.9169373,62.0799722 55.6184749,61.848602 58.3229462,61.8074964 C58.5455074,61.804149 59.0491703,61.8578408 59.6235087,61.9113987 C60.6636387,62.0086063 61.9357977,62.1058139 62.1911629,61.8639999 C62.7289635,61.3547982 62.1374229,61.4506668 62.1768945,60.7872184 C62.2277008,59.9286852 61.8169828,59.2257378 61.9722022,58.2084055 C62.1544917,57.0128593 62.517337,55.8303008 62.7264298,54.6350224 C63.1452822,52.2380386 63.3975803,49.8117318 63.4794572,47.3795337 C63.5519996,45.2223554 63.4741232,42.985108 62.5502745,41.0362699 C60.2718564,36.2301179 52.9262718,36.3166139 50.91082,41.3348552 C50.3139454,42.821087 50.1065861,44.4302341 50.0400445,46.0367033" id="Fill-9" fill="#FFFFFE"></path>
                <path d="M57.8978982,30.9530372 C58.1621603,31.5088452 58.2894682,32.1492297 58.3129108,32.7886714 C58.3191921,32.9586326 58.3288383,33.1549902 58.4433594,33.2554585 C58.5658441,33.3627953 58.458053,33.598613 58.5513748,33.454779 C58.6445844,33.3110797 58.9611156,32.8118357 58.9753606,32.6304271 C59.0086738,32.2055242 59.0082251,31.7767158 58.9739024,31.3518129 C58.9439542,30.9823966 58.8810294,30.5962804 58.6796922,30.3146729 C58.560348,30.1475399 58.4009608,30.0302371 58.2440412,29.9164358 C58.0165694,29.751323 57.7820312,29.5848635 57.5206855,29.5264141 C57.0702286,29.4256764 56.7939648,29.6196099 57.1913674,29.9968374 C57.4761557,30.2669975 57.7169752,30.5721734 57.8978982,30.9530372" id="Fill-10" fill="#1C1D33"></path>
                <path d="M54.4054735,38.0748794 C54.4089067,38.3361505 54.3563511,38.6072377 54.5826836,38.8098807 C54.6916242,38.9072355 54.8387271,38.9462311 54.9817365,38.9693596 C55.3517386,39.0289289 55.7349456,39.001363 56.0927991,38.8890823 C56.2401661,38.8429598 56.3868728,38.7801633 56.4980583,38.6715133 C56.6293153,38.543231 56.6360498,38.4214031 56.6422561,38.2533183 C56.6496509,38.0564573 56.6887375,37.8562347 56.7140909,37.6564155 C56.7694196,37.2195294 56.7943769,36.7792816 56.8067895,36.3391684 C57.4422107,36.2280979 58.1894775,36.0190004 58.4066986,35.3411479 C58.4751001,35.127613 58.477477,34.895387 58.4791936,34.6682708 C58.4859281,33.7291473 58.4926626,32.7901583 58.4993972,31.8511692 C58.501774,31.5262949 58.5024343,31.1916044 58.3932295,30.8902619 C58.201626,30.3613999 57.7146283,30.0462072 57.2371381,29.8478671 C56.0184554,29.3415957 54.5981334,29.3617658 53.4733376,30.0817067 C53.1739819,30.2734579 52.8915285,30.519803 52.7190722,30.854359 C52.453257,31.3701777 52.4866654,32.0071519 52.5279969,32.6023067 C52.5660271,33.1517423 52.6041893,33.701178 52.6423515,34.2506136 C52.6861919,34.8826126 52.7792866,35.6099492 53.2612665,35.9436984 C53.5170459,36.120927 53.8476973,36.1533338 54.0682196,36.3827359 C54.4531432,36.7829123 54.2697268,37.3808908 54.3834212,37.8660509 C54.3993992,37.9338227 54.4044171,38.0040149 54.4054735,38.0748794" id="Fill-11" fill="#F4E4C1"></path>
                <path d="M56.5854417,35.3979925 C56.2387879,35.6384416 55.8568881,35.651277 55.4707036,35.5314803 C55.3064991,35.480424 55.3761616,35.1960495 55.5405043,35.2471057 C55.8606201,35.3466511 56.1627673,35.344084 56.4512308,35.1438524 C56.5964993,35.0431661 56.7296044,35.2978767 56.5854417,35.3979925 Z M58.9928061,33.995658 C58.982025,33.8109714 58.9037929,33.269747 58.6346801,33.6098841 C58.5641883,33.6988759 58.5469109,33.8245198 58.5426261,33.9428904 C58.5382031,34.0614036 58.5434554,34.1833395 58.507242,34.2947219 C58.4243104,34.5507161 58.149807,34.66709 57.9052972,34.6626689 C57.8079908,34.6608149 57.7088877,34.6442716 57.6229153,34.5937858 C57.5394309,34.5448688 57.4732239,34.4668584 57.4085373,34.390274 C57.2516584,34.2044465 57.0946414,34.0187616 56.9377625,33.8327915 C56.6679586,33.5134763 56.1329119,33.6515277 55.7693954,33.7005873 C55.3504529,33.7570629 54.9313721,33.8874131 54.5890031,34.1717877 C54.5544483,34.2005959 54.520861,34.2306877 54.4869973,34.2607795 C54.4044804,34.3342263 54.3215489,34.40696 54.2256247,34.4551639 C53.9020535,34.6176025 53.5014942,34.4480332 53.2745382,34.1439777 C53.1705973,34.0046427 53.0737056,33.8253755 52.9122656,33.8019867 C52.7860714,33.7837319 52.6631945,33.8771448 52.5983697,33.9990808 C52.5335449,34.1210167 52.5161293,34.2664841 52.5074214,34.4076731 C52.4754928,34.9220858 52.5441878,35.4526141 52.7602244,35.9089825 C53.2289258,36.8984462 54.1349529,37.0198117 55.045403,36.9977063 C55.4053259,36.9888642 55.765387,36.9801647 56.1253099,36.9713225 C56.7833717,36.9553497 57.4788908,36.9271119 58.03315,36.5324958 C58.5221696,36.1843723 58.8128447,35.5923769 58.9319897,34.972429 C58.9934972,34.6524006 59.0118804,34.3219614 58.9928061,33.995658 L58.9928061,33.995658 Z" id="Fill-12" fill="#1C1D33"></path>
                <path d="M59.1592879,29.3226116 C59.21737,29.0926273 59.2603938,28.858296 59.287853,28.621927 C59.0838697,28.698679 58.8619177,28.7191915 58.6488235,28.6807476 C58.6483173,28.5442241 58.6478111,28.4078365 58.647305,28.2714489 C58.6462927,28.158019 57.216638,28.0785501 57.1004738,28.0683618 C56.0128581,27.9725916 55.0182497,27.8814402 54.0349034,28.5080896 C53.194801,29.0433158 52.656118,29.8426233 52.5272998,30.8830542 C52.4041759,31.8768906 52.7071139,33.175018 53.2426333,34 C53.2394698,33.7353754 53.0976179,33.1111712 53.1558265,32.8597236 C53.1913844,32.6077325 53.2724969,32.3647072 53.3843587,32.1402925 C53.6078292,31.6924141 53.9539175,31.3154464 54.3537855,31.0464748 C54.9912966,30.6174787 55.7324444,30.3907547 56.4725798,30.2801775 C57.1507104,30.1787019 57.977273,30.0851052 58.647305,30.278004 C58.9693506,30.3706498 59.0227507,30.4574542 59.2178761,30.1084704 C59.2521686,30.046933 59.5248634,29.3284529 59.4981634,29.3280453 C59.3851627,29.3262794 59.272162,29.3243775 59.1592879,29.3226116" id="Fill-13" fill="#1C1D33"></path>
                <path d="M40.6429693,16.5181946 C39.528324,8.58897603 45.0525914,1.25761332 52.9818178,0.142969152 C60.9110442,-0.971675016 68.2424141,4.55258693 69.3570594,12.4818054 C70.471572,20.411024 64.9474373,27.7423867 57.0182109,28.8570308 C49.0889845,29.971675 41.7574819,24.4474131 40.6429693,16.5181946" id="Fill-14" fill="#F8F2E3"></path>
                <path d="M59.1728763,16.5178571 C59.1728763,16.6517858 59.1241929,16.7656249 59.0268257,16.859375 C58.9294584,16.9531251 58.8112272,17 58.6721312,17 L56.2518629,17 C56.1823151,17 56.1231991,16.9765624 56.0745157,16.9296875 C56.0258322,16.8828126 56.0014903,16.8258928 56.0014903,16.7589286 L56.0014903,14.5089286 C56.0014903,14.4419644 55.9771484,14.3850445 55.928465,14.3381696 C55.8797815,14.2912947 55.8206656,14.2678571 55.7511177,14.2678571 L54.2488823,14.2678571 C54.1793344,14.2678571 54.1202185,14.2912947 54.071535,14.3381696 C54.0228516,14.3850445 53.9985097,14.4419644 53.9985097,14.5089286 L53.9985097,16.7589286 C53.9985097,16.8258928 53.9741678,16.8828126 53.9254843,16.9296875 C53.8768009,16.9765624 53.8176849,17 53.7481371,17 L51.3278688,17 C51.1887728,17 51.0705416,16.9531251 50.9731743,16.859375 C50.8758071,16.7656249 50.8271237,16.6517858 50.8271237,16.5178571 L50.8271237,13.6450893 C50.8271237,13.5647321 50.8549427,13.497768 50.9105812,13.4441964 L54.8330849,10.3504464 C54.8887234,10.3102679 54.9443615,10.2901786 55,10.2901786 C55.0556385,10.2901786 55.1112766,10.3102679 55.1669151,10.3504464 L59.0894188,13.4441964 C59.1450573,13.497768 59.1728763,13.5647321 59.1728763,13.6450893 L59.1728763,16.5178571 Z M60.9254844,12.4196429 C60.9672131,12.4598214 60.991555,12.513393 60.9985097,12.5803571 C61.0054644,12.6473213 60.9880775,12.7075892 60.9463488,12.7611607 L60.4247392,13.3839286 C60.3830105,13.4375001 60.327372,13.4642857 60.2578242,13.4642857 C60.1882763,13.4642857 60.1256832,13.4441964 60.0700447,13.4040179 L55.1669151,9.52678571 C55.1112766,9.48660714 55.0556385,9.46651786 55,9.46651786 C54.9443615,9.46651786 54.8887234,9.48660714 54.8330849,9.52678571 L49.9299553,13.4040179 C49.8743168,13.4441964 49.8117237,13.4642857 49.7421758,13.4642857 C49.672628,13.4642857 49.6169895,13.4375001 49.5752608,13.3839286 L49.0536512,12.7611607 C49.0119225,12.7075892 48.9945356,12.6473213 49.0014903,12.5803571 C49.008445,12.513393 49.0327869,12.4598214 49.0745156,12.4196429 L54.3740686,8.22098214 C54.5548933,8.07366082 54.7635371,8 55,8 C55.2364629,8 55.4520617,8.07366082 55.6467958,8.22098214 L57.5037258,9.70758929 L57.5037258,8.24107143 C57.5037258,8.17410725 57.5280677,8.1171874 57.5767511,8.0703125 C57.6254346,8.0234376 57.6845505,8 57.7540984,8 L58.9225037,8 C58.9920516,8 59.0511675,8.0234376 59.099851,8.0703125 C59.1485344,8.1171874 59.1728763,8.17410725 59.1728763,8.24107143 L59.1728763,11.0334821 L60.9254844,12.4196429 Z" id="home" fill="#E0A457"></path>
                <path d="M69.5,12.5 C68.7524619,7.23688418 65.4195835,3.01699432 61.0204317,1.02465064 C61.0135772,1.01647916 61.0067227,1.00817148 61,1 C65.4127289,2.99139034 68.7566801,7.22176694 69.5,12.5" id="Fill-15" fill="#7295C1"></path>
                <path d="M45.3368097,23.1165107 C45.3584515,23.1517716 45.3804941,23.1884906 45.3906471,23.2270655 C45.4860315,23.5873627 45.3182404,23.8318027 45.3106257,24.2029698 C45.3071523,24.3684043 45.6625059,24.6070117 45.3663334,24.7888836 C45.2569219,24.8560913 44.9652915,24.9832161 44.7308382,25.1239944 C44.3888438,25.3295945 44.0805144,25.7951441 43.9044407,26.2096582 C43.5891646,26.9570296 43.367269,27.7376735 43.2060239,28.5311758 C43.0629473,29.2359955 42.7234911,30.3194058 42.8513383,31.0316489 C42.9670286,31.6764192 43.8320341,32.4852983 44.2202512,33.0342279 C44.7090628,33.725394 45.1877215,34.423851 45.65596,35.1290684 C45.9855304,35.6255044 46.3156352,36.1385104 46.4506963,36.7177961 C46.5325879,37.068549 46.5296489,37.4675536 46.3084212,37.7529546 C46.1654782,37.9372126 45.950663,38.0500209 45.7426609,38.1572616 C45.3751504,38.346822 44.978517,38.5419498 44.5673221,38.4921074 C44.0611436,38.4305997 43.6801404,38.0190019 43.3589863,37.6259625 C42.6347863,36.7395359 41.9638894,35.8026041 41.4356683,34.7867994 C41.0624134,34.0689887 40.3595881,32.7997298 40.5247073,31.981439 C40.9010348,30.1149987 41.4414127,28.2923032 42.0217345,26.4709333 C42.1811093,25.970388 42.585491,25.6167188 42.7288348,25.1524948 C42.8202114,24.8563565 42.6772684,24.55876 42.7011813,24.2602356 C42.724827,23.9650252 42.8318339,23.5833859 42.9634216,23.3178689 C43.2231236,22.7942582 43.8210796,22.6884756 44.334472,22.545046 C44.4623192,22.5092549 44.5484857,22.4848639 44.6701877,22.5108456 C44.8680368,22.5529996 44.9954832,22.7012013 45.1274717,22.8437029 C45.2054891,22.9281434 45.2770942,23.0192119 45.3368097,23.1165107" id="Fill-25" fill="#F4E4C1"></path>
                <path d="M65.6631186,22.1164866 C65.6414769,22.15188 65.619568,22.1884664 65.6092815,22.2271738 C65.5140312,22.5873382 65.6816878,22.8317781 65.6893025,23.2029449 C65.6929094,23.3685119 65.337424,23.6069866 65.633595,23.7888583 C65.7431396,23.856066 66.0346349,23.9831907 66.2690869,24.123969 C66.6112132,24.3295689 66.9194074,24.7951182 67.0956138,25.209632 C67.4107547,25.957003 67.6326492,26.7377789 67.7938934,27.5311481 C67.9371028,28.2359674 68.2765573,29.3193769 68.1487108,30.0317522 C68.0328875,30.676522 67.1678865,31.4852681 66.7798049,32.0341973 C66.2907287,32.7254956 65.8122061,33.4238195 65.34397,34.1290365 C65.0145348,34.6254722 64.6842982,35.1384778 64.5492378,35.7177632 C64.4674801,36.0685158 64.4702855,36.4675202 64.6916457,36.752921 C64.8344543,36.9371788 65.0492685,37.049987 65.2572695,37.1572277 C65.624778,37.346788 66.021543,37.5420482 66.4326022,37.4920733 C66.9389117,37.4305656 67.3199129,37.0189681 67.6410654,36.6259289 C68.3652616,35.7395029 69.0360215,34.8025718 69.5642399,33.7869002 C69.9374929,33.0689575 70.6403146,31.799832 70.4753298,30.9814091 C70.0988707,29.1151026 69.5584955,27.2922757 68.9783103,25.470907 C68.8188027,24.9703619 68.4144231,24.616693 68.2712137,24.1526018 C68.1797039,23.8563312 68.3226461,23.5587349 68.298867,23.2603433 C68.2752214,22.9650005 68.1682151,22.5833614 68.036628,22.3178446 C67.7769273,21.7942342 67.1789745,21.6884516 66.6655847,21.5450222 C66.5377382,21.5093636 66.4515721,21.4848401 66.3297372,21.5108218 C66.1320227,21.5529757 66.0044434,21.7013099 65.8725892,21.8438115 C65.7945721,21.9282519 65.7228338,22.0191878 65.6631186,22.1164866" id="Fill-26" fill="#F4E4C1"></path>
                <path d="M54.8048761,38.5303561 L54.7521969,37.8827539 C53.9947672,38.0575603 53.0565706,38.1413987 52.2416484,38.3473639 C51.1968901,37.9862646 50.0267181,37.9638197 49.0676637,37.4169556 C48.3923279,37.0316951 47.8851909,36.4204009 47.3935635,35.8225736 C46.7682328,35.0619546 46.4834446,34.2641034 45.5677101,34.5651295 C44.8840846,34.7898429 43.9785116,35.9924949 43.4335366,36.4794178 C43.1690713,36.7158817 42.904606,36.9523456 42.6401407,37.1886775 C42.5783697,37.2439977 42.5125876,37.3063154 42.501624,37.3879093 C42.4936018,37.4473223 42.5167324,37.5062072 42.5395957,37.5617914 C43.2610592,39.2574397 44.3341626,40.9633863 45.7710729,42.155476 C46.667153,42.8989312 47.3542547,43.736127 48.0072621,44.6399975 C47.6786192,46.9689888 48.004588,49.4554907 48.0067273,51.7711471 C48.0076632,52.7259808 47.354121,62.9596796 47.8506954,62.984369 C49.5722603,63.0703199 51.3797964,62.7807803 53.0966816,62.6280228 C53.8815205,62.5581794 54.8026031,62.7282328 54.9766849,61.864103 C55.1014302,61.2454152 55.0157263,60.5079013 55.0337763,59.878255 C55.0988898,57.6132978 55.1640034,55.3483405 55.2291169,53.0831192 C55.246231,52.4875364 55.4580171,43.6635111 55.5,43.6635111 L53.4995299,40.0638728 L54.8048761,38.5303561" id="Fill-27" fill="#4F9891"></path>
                <path d="M68.9984338,36.3992825 C68.9876322,36.3173661 68.9229547,36.254802 68.8619655,36.1993957 C68.6014114,35.961997 68.3409889,35.7245983 68.0801713,35.4873322 C67.5433875,34.9983518 66.6512068,33.7909455 65.9776913,33.5653438 C65.0754994,33.2632602 64.7951863,34.0641329 64.1789717,34.8278913 C63.6946149,35.4280819 63.1948462,36.0416601 62.5296295,36.4284437 C61.5169194,37.0169698 60.2647313,37.0002684 59.1823381,37.4460372 C59.1192413,37.4720172 59.0568032,37.5023713 58.9966044,37.5357742 C58.7966442,37.4944183 58.5825893,37.4478929 58.3493024,37.3904983 C57.8970868,37.2788905 56.9233676,36.9243167 57.1678512,37.8247352 C57.307876,38.3399606 58.1249729,38.983893 58.4706221,39.397717 L56.5,43.0117179 C56.6028781,46.6624355 56.7058879,50.3132856 56.8088977,53.9640031 C56.856319,55.646472 56.9037404,57.3290734 56.9512935,59.0115423 C56.9677593,59.5956942 56.9821174,60.1799787 57.0006908,60.7641306 C57.0089896,61.0263164 56.9370671,61.4677109 57.0856541,61.6817807 C57.3330357,62.037945 58.0840061,62.0358242 58.652931,62.0338359 C58.8260191,62.0331732 58.9822462,62.032643 59.1022487,62.0420541 C59.9045922,62.1056785 60.7186594,62.1716889 61.4742402,62.450311 C61.9774338,62.6360148 62.4542822,62.9154321 62.9850066,62.9903234 C63.1042187,63.0071574 63.2376572,63.0096758 63.331051,62.9334591 C63.4357732,62.8482288 63.4536879,62.6973859 63.4635674,62.5621839 C63.6481156,60.0559111 63.6519357,57.4720959 63.7899846,54.9387826 C63.9030056,52.8656862 64.191354,50.6751496 64.0126017,48.5992696 C64.0097037,48.5648063 64.0062788,48.530078 64.0000877,48.4957473 C63.6581268,46.6279722 63.8819294,44.9989214 63.7690402,43.4091056 C64.3556164,42.6051843 64.982896,41.8573319 65.7774677,41.1856964 C67.1931279,39.9888941 68.2502296,38.2762036 68.9611553,36.5738521 C68.9836804,36.5180482 69.0062056,36.459063 68.9984338,36.3992825" id="Fill-28" fill="#4F9891"></path>
                <path d="M93.8802304,33.0016997 C93.9246192,33.0036388 93.9703572,33.006095 94.0109683,33.0196688 C94.3887452,33.1463573 94.5065307,33.4290796 94.8326332,33.6493624 C94.9779424,33.7474814 95.4022669,33.5836913 95.3878304,33.9394533 C95.3824336,34.0706664 95.3218543,34.3908781 95.3076877,34.670627 C95.2867751,35.0786157 95.5178936,35.6078635 95.7822026,35.9955562 C96.8208194,37.518921 98.2633877,38.7293134 99.7295671,39.8836009 C99.8132178,39.9494013 99.9014557,40.0168824 100.007233,40.0383419 C100.196796,40.0768655 100.378534,39.9601311 100.536256,39.8524458 C101.267794,39.3529311 102.048038,38.9186998 102.863092,38.5571204 C103.590583,38.2347111 104.367319,37.9663382 105.168746,37.975646 C105.970308,37.9852123 106.80452,38.3173171 107.225337,38.9709265 C107.540511,39.4603578 107.588138,40.0987128 107.349059,40.6260214 C106.755679,41.934145 104.581303,41.9094537 103.325464,42.1253412 C102.137491,42.3295941 100.934271,42.454085 99.728083,42.4971332 C99.5792659,42.5024335 99.4255916,42.5059239 99.2864887,42.4547314 C99.1380763,42.4000485 99.0215052,42.2892607 98.9097911,42.1810583 C97.4712704,40.7878725 96.169289,39.2809255 94.8925378,37.7407551 C94.5417449,37.3176413 94.4676736,36.7714587 94.1394124,36.3828611 C93.930151,36.1350428 93.5797628,36.0847552 93.3281364,35.8926541 C93.0790734,35.7026213 92.8028915,35.3923637 92.6447648,35.1279984 C92.3330988,34.6066364 92.5952491,34.0392528 92.7734788,33.521769 C92.8178676,33.3930121 92.8474152,33.3057522 92.9430737,33.2177166 C93.0986369,33.0743517 93.306819,33.0517288 93.5124376,33.022125 C93.6341357,33.0045438 93.7578577,32.9961409 93.8802304,33.0016997" id="Fill-29" fill="#F4E4C1"></path>
                <path d="M103.939397,43.2899923 C102.652472,43.4819505 101.33199,43.5531098 100.137483,43.4581868 C99.8349284,43.434027 99.5242502,43.3956089 99.2593813,43.2489338 C99.0397892,43.1274746 98.866406,42.939873 98.6970178,42.755572 C97.7118495,41.6826387 96.7265481,40.6095735 95.7411135,39.5366402 C95.6004893,39.3834961 95.4494781,39.1861249 95.5163279,38.989942 C95.5565442,38.8716513 95.6666732,38.7928349 95.7705433,38.7220717 C96.2460821,38.3978286 96.7214877,38.0735854 97.1970265,37.7493423 C97.2831855,37.690593 97.3777339,37.6292033 97.482403,37.633428 C97.5792153,37.6373886 97.6639094,37.6971941 97.737018,37.7603 C98.2012376,38.1612473 98.4450661,38.780689 98.9464393,39.1349008 C99.4053322,39.459012 100.017101,39.5065395 100.567879,39.389173 C102.876193,38.8964712 104.951864,37.037486 106.956291,35.8768909 C108.017498,35.262466 109.121717,34.6337829 110.344855,34.5149641 C112.956523,34.2614841 114.576364,37.2862132 112.663556,39.1957624 C111.040119,40.8164501 108.949266,41.988795 106.754677,42.6602529 C105.882967,42.926935 104.920969,43.1435812 103.939397,43.2899923" id="Fill-30" fill="#417F79"></path>
                <polyline id="Fill-31" fill="#B1B6D1" points="109.627626 82.5844008 110 85.7415315 108.412823 86 108 82.5 109.627626 82.5844008"></polyline>
                <path d="M108.48976,85.5 L109.960048,85.8426621 L110.437484,86.3147485 L110.5,87.5902532 L106.719965,88.5 C106.338953,87.9940687 106.469286,87.2128746 106.984454,86.9161139 L107.154368,86.8183557 L108.48976,85.5" id="Fill-32" fill="#1C1D33"></path>
                <path d="M122.496209,71.0131074 C123.28673,70.7385996 124.053081,70.1948168 124.847867,70 C124.8891,70.6508348 124.947393,71.2994269 125,71.9490655 C124.038863,72.4239223 123.047867,72.8005482 122,73 C122.166351,72.3413905 122.379621,71.6832295 122.496209,71.0131074" id="Fill-33" fill="#B1B6D1"></path>
                <path d="M124.80077,72.2403697 C124.748945,72.1665392 124.74363,72.1644069 124.699778,71.9926246 C124.590812,71.5668335 124.306437,70.3870123 124.707751,70.0253231 C124.772864,69.9666852 124.803428,70.0245235 124.861898,70.0522432 C125.838605,70.5177482 126.544225,71.0540184 127.322933,71.8429647 C127.655146,72.1805324 127.976729,72.6040579 127.999319,73.0951503 C128.008621,73.310378 127.920917,73.4776293 127.838528,73.6487453 C127.718931,73.9010216 127.579402,74.1214467 127.421268,74.3390733 C127.362799,74.4186343 127.31496,74.5072574 127.202008,74.4995279 C126.974774,74.4843354 126.865808,74.2237965 126.821956,74.0097682 C126.778103,73.7956066 126.760828,73.535201 126.618641,73.355156 C126.554856,73.2743957 126.461837,73.2246867 126.384763,73.1803085 C125.813356,72.8510034 125.208728,72.8187526 124.80077,72.2403697" id="Fill-34" fill="#1C1D33"></path>
                <path d="M109.791433,69.6051045 C111.235968,72.1504901 113.361084,73.259822 115.91882,74.0469734 C118.845468,74.9477963 121.366838,74.4555762 123.974409,73.0100386 C124.018856,72.1470172 123.935349,71.2892051 124,70.4792125 C121.100155,70.9352341 119.700067,70.8343857 117.743042,68.2652239 C114.914448,64.5521346 117.723108,59.0858869 116.94811,54.6004728 C116.858947,54.0848773 116.717119,53.5715525 116.45286,53.1188703 C113.381288,47.8585936 107.852322,51.3738599 107.169585,56.1904038 C106.558503,60.5007024 107.636955,65.8089321 109.791433,69.6051045" id="Fill-35" fill="#1C1D33"></path>
                <path d="M114.869052,54.2550349 C114.678124,52.6552773 114.298232,51.1381094 113.861154,50 C111.425815,50.1751861 108.725088,50.7954758 106.39313,51.5944206 C104.113778,52.3753531 102.71866,53.0795666 103.01781,55.6671978 C103.568084,60.4284445 102.239705,64.7125659 102.01109,69.3854857 C101.878265,72.1009374 102.959446,74.3775565 104.136286,76.7272921 C105.483116,79.4163258 106.687831,82.1791431 107.743231,85 C108.553135,84.8921932 109.362778,84.7842529 110.172551,84.6763126 C110.523784,80.9060083 109.728144,77.1371716 109.336867,73.3707366 C109.065067,70.7536187 109.000683,68.047907 109.642299,65.4784215 C110.347906,62.6539621 111.968761,63.5364306 113.487805,61.7574842 C114.964581,60.0279047 115.198693,57.0182524 114.869052,54.2550349" id="Fill-36" fill="#1C1D33"></path>
                <path d="M111.675084,35.5514797 C111.95773,35.750923 112.209324,35.9956943 112.457999,36.2381992 C112.680798,36.4553738 112.903597,36.6726816 113.126396,36.8899895 C113.898297,37.642568 114.315896,38.7912334 114.677895,39.7823173 C116.583828,44.9978396 117.520805,52.2328586 116.703787,57.8155378 C112.637672,58.3630736 107.863615,57.5525019 103.763795,57.1862782 C103.365172,57.150549 102.912275,57.0826903 102.690538,56.7479295 C102.555983,56.5448867 102.540457,56.2881168 102.529045,56.0445453 C102.364898,52.5329567 102.926607,48.7236697 103.456998,45.2291458 C103.680992,43.7545186 103.973324,42.288957 104.368763,40.8505921 C104.78729,39.3279705 105.262745,37.68283 106.353784,36.4944359 C107.521256,35.2225849 109.83749,34.5122681 111.414732,35.3872323 C111.504568,35.4372264 111.591219,35.4922866 111.675084,35.5514797" id="Fill-37" fill="#4F9891"></path>
                <path d="M111.343676,36.671708 C111.395153,36.1823033 111.446364,35.6930342 111.49784,35.2036295 C111.594558,35.1503361 111.686499,35.0922964 111.771011,35.0311378 C113.422373,33.8380697 116.003099,27.7350886 111.403511,26.6180959 C107.227277,25.6040288 107.70861,31.3875204 108.62391,33.7645709 C108.780595,34.1713911 108.982521,34.5529884 109.270551,34.8785802 C109.467568,35.101382 109.50737,35.0554114 109.493041,35.3251332 C109.478978,35.5861761 109.239506,35.8925117 109.19453,36.1692851 C109.146371,36.4645009 109.18458,36.787245 109.361962,37.0253704 C109.47062,37.1711476 109.624253,37.2763785 109.786643,37.3544879 C110.044557,37.4785681 110.340547,37.5397267 110.61783,37.4719234 C110.947652,37.3915086 111.306926,37.0221158 111.343676,36.671708" id="Fill-38" fill="#F4E4C1"></path>
                <path d="M107.761107,31.4762149 C108.002652,32.1961634 108.327606,32.8787822 108.724501,33.5 C108.649443,32.1476347 108.736083,30.7832982 108.981079,29.4579649 C108.999788,29.3569172 109.017495,29.242611 108.966936,29.1572676 C108.919941,29.0774593 108.829738,29.0517146 108.74733,29.035753 C107.275903,28.7511461 107.340047,30.2211643 107.761107,31.4762149" id="Fill-39" fill="#15253B"></path>
                <path d="M112.5,33.265881 C112.827704,33.6397367 113.495265,33.5073868 113.957975,33.2741365 C115.858306,32.3163689 116.893106,30.1601142 116.360697,28.2672488 C115.915119,26.6835056 113.599668,25.5793669 113.248682,27.5796847 C113.124072,28.2888703 113.653406,29.2420516 113.585025,30.0259298 C113.487212,31.1463174 112.963295,32.2356486 112.5,33.265881" id="Fill-40" fill="#15253B"></path>
                <path d="M107.359837,25.7290173 C107.159039,25.8170229 106.954808,25.9094355 106.739589,26.0029163 C106.293906,26.1962882 105.96785,26.2697375 105.487281,26.0324296 C105.3498,25.9645892 104.412972,25.1810858 104.620363,25 C103.244582,26.2005616 104.50156,27.8034917 105.095025,28.9515705 C105.49511,29.7254587 105.623527,30.8380147 106.461604,31.3174381 C107.383323,31.8446703 107.961956,31.0980251 108.758279,30.738925 C109.460797,30.4220248 110.227454,30.2329263 110.943981,29.9467413 C112.132835,29.4718584 113.896476,28.6526988 113.420303,27.1089287 C112.864057,25.3059496 110.941096,24.9383026 109.240084,25.1559795 C108.513257,25.2489262 107.95138,25.4696747 107.359837,25.7290173" id="Fill-41" fill="#15253B"></path>
                <path d="M106.970079,38.0143154 C107.013257,38.0056551 107.057501,37.9971261 107.09988,38.0009314 C107.493547,38.0354413 107.677854,38.2855401 108.045668,38.4246297 C108.102306,38.446018 108.182798,38.4286975 108.267156,38.4115081 C108.427208,38.3788351 108.600987,38.3461622 108.650695,38.5777595 C108.678681,38.7081888 108.701602,39.0376737 108.75864,39.3163777 C108.841798,39.7228867 109.196818,40.1885744 109.547841,40.5071683 C110.212305,41.1099774 112.679989,41.9952957 112.489552,43.1252018 C112.042179,45.7798448 108.471319,41.573828 108.072721,41.2797716 C107.80952,41.0857023 107.461297,41.1198186 107.171843,40.9908327 C106.885321,40.8632902 106.542428,40.6236887 106.324272,40.4012765 C105.89409,39.9624882 106.001768,39.3415713 106.041748,38.7899367 C106.05161,38.652553 106.058007,38.5596516 106.127305,38.450217 C106.240048,38.2721561 106.433683,38.2002494 106.623054,38.1219131 C106.735264,38.0757248 106.851738,38.0379344 106.970079,38.0143154" id="Fill-42" fill="#F4E4C1"></path>
                <path d="M117.453273,46.912772 C117.107309,48.0102902 114.937749,47.2939058 114.177851,46.9648344 C112.58144,46.2736925 111.072684,45.4358291 109.694413,44.376306 C109.60862,44.3103076 109.516975,44.2330028 109.502077,44.1266429 C109.487446,44.0215978 109.552755,43.9235206 109.614871,43.8371442 C110.002868,43.2975881 110.390731,42.758032 110.778727,42.2184758 C110.862126,42.1023871 110.95151,41.9813025 111.082261,41.9213518 C111.575469,41.6950906 112.252102,42.3345645 112.753956,42.3855752 C112.893353,41.1682871 112.155269,40.1354526 111.791481,39.0288629 C111.293351,37.5130046 113.046317,37.1083375 113.993629,37.8866446 C115.153095,38.839282 115.933876,40.2591666 116.432006,41.6418449 C116.972035,43.140612 117.22529,44.722863 117.475885,46.2944649 C117.515789,46.5457055 117.504749,46.7493538 117.453273,46.912772" id="Fill-43" fill="#417F79"></path>
                <path d="M74.1239001,33.2068623 C73.9413276,32.9675818 73.7648299,32.7196182 73.5915351,32.5129345 C73.5622661,32.1912368 73.5329971,31.869539 73.5037281,31.5476989 C73.4991996,31.4978784 73.4952235,31.44393 73.5145521,31.4003727 C73.5314508,31.3622244 73.5629288,31.339307 73.5930814,31.3183824 C73.7259518,31.225574 73.8589325,31.1326233 73.9918029,31.0399573 C74.0182002,31.0214525 74.0458125,31.0025208 74.0759651,31.0002433 C74.141351,30.9952612 74.1929308,31.0677144 74.233797,31.1340468 C74.3750614,31.3632208 74.8782678,32.1323063 74.8916321,31.5089812 C74.8938411,31.4136107 74.9602211,31.3366025 75.0319026,31.3121193 C75.1034736,31.2874938 75.1793522,31.303294 75.2523591,31.3190942 C75.3050433,31.3304817 75.3668949,31.3515486 75.3844563,31.4165999 C75.3924086,31.4459228 75.3889847,31.4779502 75.3854503,31.5086966 C75.3475662,31.8383656 75.2966492,32.1153673 75.3485603,32.4493067 C75.3990356,32.816697 75.4495108,33.1842295 75.5,33.5516198 C75.5026369,33.5704092 75.1257843,33.8175187 75.0916556,33.8448487 C74.8928471,34.0031354 74.9749108,34.0730264 74.7513617,33.8952386 C74.5318992,33.7205823 74.3241444,33.4690602 74.1239001,33.2068623" id="Fill-44" fill="#F4E4C1"></path>
                <polyline id="Fill-45" fill="#417F79" points="85 38.9427879 79.0650729 39.694489 76.0653767 33 74.5 33.9411411 76.1060497 43.7947138 78.181832 46 82.2641463 45.6592234 85 38.9427879"></polyline>
                <polyline id="Fill-46" fill="#F4E4C1" points="89 59.3203343 86.9512195 73.3609738 87.6786742 83.5041865 86.1863665 84 84.8506567 74.6273281 82 57.5 89 59.3203343"></polyline>
                <polyline id="Fill-47" fill="#1C1D33" points="86.6345172 84.4895583 86.5 85.5274377 86.8053684 87.5 87.8107777 87.3903621 88 84.4683932 87.8520106 84 86.6345172 84.4895583"></polyline>
                <polyline id="Fill-48" fill="#F4E4C1" points="76.5 59.1214085 77.2386138 70.95572 80.3630653 87.5 82.056435 87.4808204 81.3036548 72.1412808 83.5 58 76.5 59.1214085"></polyline>
                <polyline id="Fill-49" fill="#1C1D33" points="80.045334 87.5 78 88.6445851 78.2550371 89.5 82 88.8185621 81.6953871 87.5829754 80.045334 87.5"></polyline>
                <polyline id="Fill-50" fill="#1C1D33" points="76 60.9122626 76.0667992 75.0008193 77.9483101 84.5 82.2351226 83.8642975 82.1102717 72.8858807 83 60.8262542 82.5593108 59 76.3590457 59.6447917 76 60.9122626"></polyline>
                <polyline id="Fill-51" fill="#1C1D33" points="83.4763894 73.0082912 84.7892745 83 88.4772323 82.4683515 87.6315208 72.9564693 89 60.7935346 88.1965085 57.5 82 58.4660293 83.4763894 73.0082912"></polyline>
                <path d="M90.9259283,43.7417133 C90.5156795,42.3453094 89.7926276,39.9656452 88.5802348,39.2935161 C88.5548831,39.2794408 88.5292673,39.2654995 88.5035195,39.2518264 C88.2629423,39.123406 88.0049358,39.0087928 87.7351778,38.9099976 C87.2515146,38.6010113 86.5559271,38.4678991 85.8689221,38.5141466 C85.2384303,38.4717866 84.6116357,38.5227258 84.0463717,38.6917634 C83.780839,38.7712554 83.5299626,38.9036973 83.2810669,39.0354689 C82.5541858,39.4199257 81.9961841,39.5856121 81.5444747,40.3409865 C81.1523154,40.9968956 80.9172839,41.7624579 80.6199295,42.4702444 C78.1333492,48.387769 76.1131347,56.2870958 74.5,62.540953 C75.2618717,62.466555 76.0259882,62.3402795 76.7871997,62.2173552 C80.2871883,62.617898 84.2837799,63.690704 87.3706149,64.7556011 C88.2958203,65.3141894 89.2068974,65.9024029 90.1103162,66.5 C89.8789818,66.3470484 90.980857,61.3975024 91.0677394,60.8398524 C91.3823911,58.8209181 91.6571667,56.794745 91.8445317,54.7601268 C92.1927216,50.9816458 91.9850224,47.3463307 90.9259283,43.7417133" id="Fill-52" fill="#4F9891"></path>
                <path d="M89.4129931,33.894444 C88.7679861,31.4272168 85.366342,30.3780221 84.4041271,33.1430388 C84.1148536,33.9738901 83.9186507,34.8620599 84.0331686,35.7363666 C84.1476865,36.61054 84.6162168,37.4708504 85.3834204,37.8723463 L85.3967918,37.878478 C85.5286528,37.9468603 84.7883246,39.3646262 84.7360303,39.4780634 C84.6540805,39.6557507 84.5714688,39.8353042 84.5310897,40.0269878 C84.4415936,40.4530107 84.5690858,40.89303 84.7193491,41.3013242 C84.8567705,41.6748274 85.0144478,42.0407325 85.191454,42.3969069 C85.2068113,42.4278322 85.2233601,42.4600905 85.2515593,42.4798187 C85.3194757,42.5275397 85.4113548,42.4816849 85.4798007,42.4347637 C86.0280302,42.0585946 86.5121826,41.5883165 86.9052503,41.0503226 C86.9950112,40.9272878 87.0811974,40.7989211 87.1309763,40.6546918 C87.1875071,40.4902011 87.1943914,40.313047 87.1946562,40.1389588 C87.1950533,39.6538845 86.7860988,38.4565949 87.0290355,38.0768266 C87.1213118,37.9323307 87.5739553,37.8266248 87.7304409,37.7297166 C87.9895293,37.5692249 88.2230664,37.3664774 88.4306548,37.1433352 C89.2075229,36.3083517 89.7114015,35.036548 89.4129931,33.894444" id="Fill-53" fill="#F4E4C1"></path>
                <path d="M84.3974756,33.7118814 C84.0091583,34.3513622 84.0318279,35.1337664 84.1302407,35.854101 C84.2266533,36.5585099 84.1502433,37.246993 84.3105309,37.9445959 C84.237188,38.0536262 84.0733,37.9814838 83.9711533,37.9014466 C83.3714751,37.4319768 82.777931,36.9539317 82.1910544,36.4674472 C82.1319801,36.4184448 82.0713055,36.3674007 82.0367676,36.2975723 C81.9930286,36.209232 81.9974292,36.1044214 82.0044968,36.0051916 C82.1438483,34.0474115 82.8934127,32.6176316 83.9676862,31.0731047 C84.4893542,30.3229603 85.883136,29.4940038 86.6739059,30.3891135 C86.8540627,30.5928816 86.9198046,30.8765508 86.9666107,31.1487861 C86.994481,31.3113106 87.0175507,31.479552 86.981546,31.6403069 C86.8373939,32.2815572 86.2494505,32.2460305 85.7888571,32.4512959 C85.221183,32.7042025 84.7252517,33.172175 84.3974756,33.7118814" id="Fill-54" fill="#1C1D33"></path>
                <path d="M88.7394259,35.4881926 C88.7394259,36.052996 88.6147792,36.6941058 88.4547215,37.2281141 C88.3992228,37.4130208 88.0644279,37.8430617 88.0539978,37.9682859 C88.0237375,38.3310137 88.7284807,39.1829198 88.9121028,39.5 C90.0144793,38.8526222 91.1168557,38.2052444 92.2192322,37.5578666 C92.3038323,37.5082675 92.3921667,37.4545805 92.441227,37.3656018 C92.4857804,37.2847988 92.4911887,37.1866906 92.4942791,37.0926703 C92.5563449,35.2466012 92.1073335,33.5872101 91.4425081,31.9170544 C90.7781979,30.2477163 89.2878456,28.8909618 87.5319753,29.0069202 C86.1133465,29.1005318 85.121066,30.2077917 85.639483,31.7544946 C86.0309354,32.9222546 87.4035944,33.1698415 88.1508308,33.9676519 C88.6198011,34.468685 88.7539766,34.9659027 88.7394259,35.4881926" id="Fill-55" fill="#1C1D33"></path>
                <g id="Group" transform="translate(8.000000, 7.000000)">
                    <path d="M21.9970953,20.0576 C21.9750907,20.09 21.9526884,20.1236 21.9410233,20.1596 C21.8335186,20.4953333 21.9772116,20.7353333 21.9651488,21.0868 C21.959714,21.2434667 21.615593,21.4506667 21.8826977,21.6381333 C21.9811884,21.7073333 22.2467023,21.8426667 22.4581326,21.9881333 C22.7667279,22.2002667 23.0301209,22.6566667 23.172886,23.058 C23.733607,24.6344 23.8522465,26.3205333 23.9175977,27.9922667 C23.9213093,28.0876 23.9236953,28.1870667 23.8832651,28.2733333 C23.8110209,28.4278667 23.629814,28.4908 23.4676953,28.5417333 C22.7162233,28.778 21.9867558,29.0848 21.2916209,29.4566667 C20.6713814,29.7885333 20.0643977,30.1850667 19.6469721,30.7534667 C19.2295465,31.3218667 19.0300465,32.0925333 19.2837628,32.7516 C19.4737186,33.2449333 19.9138116,33.6332 20.4250884,33.7582667 C21.6927419,34.0684 22.8258488,32.5269333 23.6479744,31.7645333 C24.4259581,31.0433333 25.1535698,30.2673333 25.8236512,29.4437333 C25.9063674,29.342 25.9901442,29.236 26.0265977,29.1097333 C26.0653047,28.9753333 26.0462163,28.8316 26.0264651,28.6930667 C25.7723512,26.9081333 25.3628791,25.1557333 24.9161581,23.4028 C24.7934093,22.9212 24.4344419,22.5654667 24.3248163,22.1190667 C24.2549581,21.8341333 24.4039535,21.56 24.3970605,21.2765333 C24.3904326,20.996 24.3105,20.6294667 24.2014047,20.3714667 C23.9863953,19.8626667 23.433893,19.7314667 22.9622512,19.5692 C22.8448047,19.5288 22.7656674,19.5010667 22.6507395,19.5194667 C22.4639651,19.5490667 22.3372395,19.6826667 22.2066698,19.8106667 C22.1295209,19.8864 22.057807,19.9688 21.9970953,20.0576" id="Fill-56" fill="#F8F2E3"></path>
                    <path d="M23.144386,31.8084 C22.7000512,30.8458667 22.2558488,29.8834667 21.811514,28.9210667 C21.8401465,28.9828 17.3464256,30.6814667 17.0823698,30.7917333 C16.0745302,31.2129333 15.0334186,31.6568 14.2926837,32.4628 C12.7108674,34.1838667 14.0011884,36.9832 16.3902837,36.6606667 C18.9840488,36.3106667 21.6627837,34.9349333 23.5140907,33.0836 C23.5542558,33.0434667 23.5957465,33.0002667 23.6108581,32.9453333 C23.6314047,32.8697333 23.598,32.7912 23.5651256,32.7201333 C23.4248791,32.4162667 23.2846326,32.1122667 23.144386,31.8084" id="Fill-57" fill="#417F79"></path>
                    <path d="M0.435586047,59.4342667 C0.3762,59.7973333 0.336697674,60.1621333 0.306739535,60.4972 C0.255306977,61.0721333 0.34624186,61.728 0.201753488,62.2884 C0.144488372,62.5097333 0.0669418605,62.7248 0.033272093,62.9529333 C-0.000397674419,63.1810667 0.0153767442,63.4324 0.130172093,63.6192 C0.270948837,63.8481333 0.523074419,63.9288 0.756774419,63.9814667 C0.973109302,64.0304 1.19673488,64.0684 1.41227442,64.0145333 C1.84719767,63.906 2.16772326,63.4352 2.3002814,62.9284 C2.45895349,62.322 2.37902093,61.7246667 2.35714884,61.1106667 C2.35714884,60.1425333 2.09972093,59.3170667 2.13962093,58.3417333 C2.1463814,58.1772 2.14982791,58 2.05809767,57.8636 C1.96146279,57.7194667 1.77694186,57.6561333 1.60435116,57.6610667 C1.26023023,57.6708 0.928039535,57.7674667 0.789781395,58.0974667 C0.623023256,58.4957333 0.512602326,58.9637333 0.435586047,59.4342667" id="Fill-58" fill="#1C1D33"></path>
                    <path d="M1.33472791,58.6673333 C1.14755581,58.814 1.01473256,59.018 0.885355814,59.218 C0.798,59.3529333 0.709583721,59.53 0.797734884,59.6644 C0.831272093,59.7156 0.885223256,59.7490667 0.937451163,59.7809333 C1.15577442,59.9142667 1.37409767,60.0476 1.59255349,60.1810667 C1.63696047,60.2082667 1.68600698,60.2364 1.73757209,60.2294667 C1.78012326,60.2237333 1.81564884,60.1949333 1.8483907,60.1670667 C2.05915814,59.9876 2.25958605,59.796 2.44861395,59.5933333 C3.30162558,58.6788 2.1001186,58.0669333 1.33472791,58.6673333" id="Fill-59" fill="#B1B6D1"></path>
                    <path d="M16.3954535,50.5272 C16.3399116,50.3145333 16.1588372,50.1636 15.9698093,50.0345333 C14.0238558,48.7064 11.9018651,47.8013333 9.6060907,47.2881333 C9.41268837,47.2449333 8.18069302,51.0965333 8.06205349,51.4702667 C7.60207674,52.9208 7.21036744,54.3925333 6.87473023,55.8772 C6.50701395,57.5037333 6.12564419,59.1273333 5.73605581,60.7488 C4.98670465,60.01 4.18300465,59.3270667 3.33264419,58.7086667 C3.18616744,58.6022667 3.02815814,58.4938667 2.84787907,58.4825333 C2.62876047,58.4688 2.42899535,58.6006667 2.25494651,58.7352 C1.95165349,58.9693333 1.66784651,59.2290667 1.40750233,59.5106667 C1.32041163,59.6048 1.23239302,59.7088 1.21184651,59.8357333 C1.19143256,59.9621333 1.24153953,60.0881333 1.2907186,60.2062667 C2.13564419,62.2330667 3.4738186,65.4924 4.5470093,67.4098667 C5.06610698,68.3372 6.06122093,68.6548 7.07104884,68.5752 C7.32966977,68.5548 7.50835814,68.4822667 7.73357442,68.4022667 C7.99948605,68.3078667 8.28886047,68.3088 8.55755581,68.2156 C8.73359302,68.1544 8.87158605,68.0169333 8.9961907,67.8776 C10.0776,66.6674667 10.8143581,64.9696 11.4668093,63.4956 C12.1750674,61.8952 12.7519605,60.2393333 13.2725163,58.5686667 C13.3110907,58.4453333 13.3500628,58.3230667 13.3899628,58.2016 C14.2086419,55.7032 15.3143093,53.5530667 16.3035907,51.1008 C16.3783535,50.9156 16.4509953,50.7397333 16.3954535,50.5272" id="Fill-60" fill="#1C1D33"></path>
                    <path d="M13.3345535,79.0430667 C13.6871581,79.18 14.0560674,79.156 14.4171558,79.2257333 C14.7844744,77.9808 15.0191023,76.7501333 15.1327047,75.4426667 C14.4023093,75.8786667 14.0544767,75.3832 13.7202977,76.5274667 C13.6121302,76.8978667 13.5788581,78.5044 13.3345535,79.0430667" id="Fill-61" fill="#B1B6D1"></path>
                    <path d="M14.7863302,78.8509333 C14.7871256,79.5550667 15.3381698,80.3133333 15.6430535,80.9465333 C15.6788442,81.0209333 15.7154302,81.0984 15.7168884,81.1810667 C15.7191419,81.304 15.6445116,81.4133333 15.5727977,81.5130667 C15.4735116,81.6514667 15.3654767,81.7968 15.2074674,81.8589333 C15.0521093,81.9201333 14.8776628,81.8894667 14.7148814,81.8534667 C14.4423419,81.7933333 14.1724535,81.7205333 13.9065419,81.6357333 C13.8402628,81.6144 13.7726581,81.5917333 13.718707,81.5476 C13.6546814,81.4956 13.616107,81.4190667 13.5795209,81.3448 C13.3915535,80.964 13.2315558,80.6938667 13.2417628,80.2697333 C13.2522349,79.8316 13.3072465,79.3778667 13.2275791,78.9436 C13.1882093,78.7330667 13.1359814,78.4638667 13.3153326,78.3481333 C13.4541209,78.2588 13.7079698,78.382 13.8588209,78.4068 C14.1252628,78.4505333 14.3714233,78.4338667 14.6166558,78.5746667 C14.6666302,78.6032 14.7152791,78.6376 14.7460326,78.6865333 C14.7773163,78.7361333 14.7861977,78.7922667 14.7863302,78.8509333" id="Fill-62" fill="#1C1D33"></path>
                    <path d="M12.9713442,56.5178667 C13.1271,59.6442667 13.4594233,62.7588 13.2241326,65.9069333 C12.9334326,69.7957333 13.1806535,73.7542667 12.7437419,77.6061333 C13.1844977,77.7601333 13.636786,77.8809333 14.0954372,77.9670667 C14.6214279,78.0657333 15.4691372,78.1804 15.8247907,77.6805333 C16.0065279,77.4250667 16.0508023,76.9309333 16.1280837,76.6306667 C16.3758349,75.6689333 16.601714,74.7013333 16.8253395,73.7337333 C17.4583047,70.9958667 18.1628512,68.2445333 18.4905349,65.4528 C18.8353186,62.5157333 19.2047581,59.576 19.611314,56.6589333 C19.8214186,55.1512 19.9745233,53.6354667 20.0563116,52.1150667 C20.0772558,51.7233333 20.2845767,47.6825333 20.0885233,47.654 C17.7612,47.3141333 15.4580023,47.4028 13.1701814,47.9496 C12.9477488,48.0028 12.7253163,48.0794667 12.5983256,48.2584 C12.4713349,48.4372 12.4771674,48.6274667 12.4816744,48.8273333 C12.5246233,50.7332 12.7930535,52.592 12.8763,54.5032 C12.9051977,55.1682667 12.9374093,55.834 12.9713442,56.5178667" id="Fill-63" fill="#1C1D33"></path>
                    <path d="M11.6643209,31.4288 C11.6264093,31.4417333 11.5888953,31.4553333 11.551514,31.4694667 C10.9266349,31.7081333 10.3952093,32.1372 9.87531628,32.5596 C9.09441628,33.1941333 8.70986512,33.4722667 8.40829535,34.4118667 C8.12700698,35.2881333 7.95083721,36.2136 7.77864419,37.1165333 C6.89434884,41.7526667 6.7234814,46.3693333 6.08879302,51.0401333 C5.91606977,52.3116 5.78271628,53.8062667 6.71751628,54.6796 C8.37608372,53.3809333 10.4610907,53.3061333 12.4729256,53.3042667 C13.8855977,53.3029333 15.2668535,52.8426667 16.6829721,53.0014667 C18.0363907,53.1529333 19.2184116,52.8128 20.5919791,52.9026667 C20.9231093,52.9244 21.3450419,52.9206667 21.4754791,52.6138667 C21.0002581,51.1806667 21.0084767,49.6394667 20.9008395,48.1326667 C20.6226,44.2350667 19.338907,40.4948 18.8207372,36.6234667 C18.6447,35.3076 18.5507163,33.1233333 17.5375744,32.1273333 C16.4366791,31.0449333 13.9252326,31.0228 12.510307,31.2346667 C12.2238488,31.2774667 11.9384512,31.3356 11.6643209,31.4288" id="Fill-64" fill="#4F9891"></path>
                    <path d="M12.7149767,31.3634667 C12.738307,31.4089333 12.7694581,31.4525333 12.8110814,31.4938667 C12.975586,31.6570667 13.2033209,31.7496 13.4294651,31.7821333 C13.7274558,31.8250667 14.0303512,31.7752 14.3260884,31.7185333 C14.7256186,31.6417333 14.7115674,31.4065333 14.7694953,31.0417333 C14.8010442,30.8424 14.8209279,30.6414667 14.8357744,30.4402667 C14.843993,30.33 14.8015744,29.9350667 14.8714326,29.8577333 C14.9188884,29.8053333 15.111893,29.8229333 15.1965977,29.7785333 C15.3307465,29.7081333 15.4427581,29.5784 15.5233535,29.4524 C15.6532605,29.2490667 15.7247093,29.0146667 15.7948326,28.7834667 C15.9166535,28.3813333 16.0383419,27.9792 16.1601628,27.5770667 C16.2846349,27.1661333 16.4097698,26.7518667 16.4498023,26.3242667 C16.5099837,25.6797333 16.4064558,24.7697333 15.9227512,24.2984 C15.4815977,23.8685333 14.8377628,23.718 14.2473488,23.6421333 C13.465786,23.5416 12.6554581,23.6856 11.980207,24.1029333 C11.7075349,24.2714667 11.4491791,24.49 11.2881209,24.7905333 C11.0399721,25.2537333 11.0587953,25.8321333 11.0854395,26.3728 C11.1100953,26.872 11.1347512,27.3710667 11.159407,27.8702667 C11.1876419,28.4442667 11.2588256,29.1058667 11.6864581,29.4172 C11.9135302,29.5824 12.2103279,29.6177333 12.4046581,29.8297333 C12.6481674,30.0952 12.6322605,30.4936 12.6426,30.8302667 C12.6483,31.0225333 12.6339837,31.2046667 12.7149767,31.3634667" id="Fill-65" fill="#F4E4C1"></path>
                    <path d="M15.1895721,24.9112 C15.2164814,24.958 15.2390163,25.0065333 15.2563814,25.0570667 C15.3474488,25.3217333 15.2859419,25.6204 15.3748884,25.8857333 C15.5160628,26.3064 16.0041419,26.5593333 16.0777116,26.9970667 C16.1377605,27.3550667 15.8945163,27.6954667 15.8739698,28.058 C15.8517,28.454 16.103693,28.8289333 16.0645884,29.2197333 C16.0306535,29.5593333 15.8164395,30.0366667 15.6149512,30.3086667 C15.677386,30.2244 16.2424814,30.2544 16.3890907,30.1644 C16.6137767,30.0264 16.6393605,29.9394667 16.7061698,29.704 C16.7725814,29.4702667 16.7211488,29.2398667 16.8245442,29.0002667 C16.9514023,28.7065333 17.2121442,28.4909333 17.3034767,28.1776 C17.4280814,27.75 17.2019372,27.2990667 17.2194349,26.8538667 C17.2462116,26.18 17.8252256,25.5452 17.6151209,24.9048 C17.4918419,24.5292 17.1291628,24.2890667 16.9251558,23.9508 C16.7703279,23.694 16.7131953,23.3912 16.6058233,23.1108 C16.4983186,22.8306667 16.3136651,22.5501333 16.027207,22.4650667 C15.8680047,22.4178667 15.6968721,22.4372 15.5338256,22.4066667 C15.2517419,22.354 15.0175116,22.1582667 14.7457674,22.0657333 C14.3572395,21.9334667 13.6715163,22.3288 13.4447093,22.6601333 C13.219493,22.9890667 13.3330953,23.2685333 13.5633488,23.5593333 C13.946707,24.0436 14.8731558,24.3605333 15.1895721,24.9112" id="Fill-66" fill="#1C1D33"></path>
                    <path d="M9.95551395,22.9209333 C9.7226093,23.0928 9.4350907,23.2169333 9.22233488,23.4177333 C8.80769302,23.8093333 8.72882093,24.4356 8.71384186,25.0076 C8.70058605,25.5168 8.4790814,25.9693333 8.53382791,26.5 C8.57081163,26.8564 8.72126512,27.2168 9.00971163,27.4273333 C9.36881163,27.6893333 9.93271395,27.7324 10.0928442,28.1485333 C10.266893,28.6005333 9.80134884,29.1698667 10.0839628,29.5625333 C10.2398512,29.7792 10.5453977,29.8109333 10.768493,29.9565333 C11.0173047,30.1190667 11.1452233,30.4090667 11.2972674,30.6653333 C11.4491791,30.9216 11.6774442,31.1782667 11.9739767,31.1846667 C11.9860395,30.7309333 11.9994279,30.3713333 11.8066884,29.9564 C11.6944116,29.7146667 11.3639442,29.2686667 11.617793,29.0069333 C11.7779233,28.7893333 12.1558465,28.7185333 12.1655233,28.448 C12.1701628,28.3210667 12.0820116,28.2129333 12.0125512,28.1068 C11.7433256,27.696 11.7160186,27.1485333 11.8984186,26.6921333 C12.0809512,26.2356 12.456886,25.8710667 12.8971116,25.6565333 C13.4130279,25.4052 13.329914,25.2784 13.4798372,24.7816 C13.6178302,24.3244 13.8757884,24.2172 14.2849953,24.0505333 C14.6524465,23.9009333 14.7705558,23.8076 14.9061628,23.4618667 C15.0053163,23.2086667 15.1275349,22.9056 14.9835767,22.6230667 C14.8691791,22.3985333 14.6633163,22.238 14.4639488,22.0850667 C14.0473186,21.7656 13.5791233,21.4297333 13.0567116,21.4676 C12.7665419,21.4886667 12.4936047,21.6257333 12.2030372,21.6422667 C12.0093698,21.6533333 11.8166302,21.6102667 11.6226977,21.6037333 C11.2920977,21.5926667 10.9433372,21.6937333 10.6755698,21.8917333 C10.4055488,22.0914667 10.4131047,22.3005333 10.2630488,22.584 C10.1896116,22.7228 10.0803837,22.8286667 9.95551395,22.9209333" id="Fill-67" fill="#1C1D33"></path>
                    <path d="M11.1254721,21.0553333 C11.1762419,20.7392 11.1436326,20.3272 10.8435209,20.2205333 C10.7524535,20.1881333 10.6554209,20.1932 10.5579907,20.1984 C10.4792512,20.2025333 10.400114,20.2066667 10.3237605,20.1910667 C9.9594907,20.1165333 9.83554884,19.6728 9.64453256,19.3521333 C9.6159,19.3041333 9.58183256,19.2554667 9.53106279,19.2326667 C9.45842093,19.2001333 9.37504186,19.2289333 9.29590465,19.2386667 C8.9334907,19.2832 8.65790233,18.9233333 8.31656512,18.7928 C7.89396977,18.6313333 7.36241163,18.8972 7.23502326,19.3333333 C7.18279535,19.5126667 7.1918093,19.7052 7.14276279,19.8854667 C6.94379302,20.6154667 5.88107442,20.926 5.85416512,21.6824 C5.83600465,22.1936 6.33336279,22.6832 6.13996047,23.1564 C6.01641628,23.4588 5.62947907,23.6650667 5.67362093,23.9890667 C5.70225349,24.1977333 5.92296279,24.3396 6.13200698,24.3365821 C6.34118372,24.3337333 6.53339302,24.2182667 6.69100465,24.0798667 C6.94114186,23.8601333 7.12950698,23.5782667 7.36784651,23.3456 C7.60605349,23.1129333 7.92379535,22.9242667 8.25333488,22.9657333 C8.57253488,23.0057333 8.86124651,23.2557333 9.17845814,23.2021333 C9.43204186,23.1593333 9.62040698,22.9317333 9.86961628,22.8676 C10.102786,22.8076 10.3451023,22.8997333 10.5854302,22.9142667 C10.8256256,22.9288 11.1208326,22.8030667 11.1271953,22.5610667 C11.1286535,22.5025333 11.1123488,22.4418667 11.1306419,22.3861333 C11.1819419,22.2301333 11.4469256,22.2392 11.4971651,22.0826667 C11.3718977,21.8882667 11.1949326,21.9578667 11.1050581,21.704 C11.0354651,21.5074667 11.0935256,21.2538667 11.1254721,21.0553333" id="Fill-68" fill="#1C1D33"></path>
                    <path d="M11.2407977,49.6777333 C11.2490163,49.6394667 11.2571023,49.5998667 11.2540535,49.5621333 C11.2268791,49.2102667 11.0032535,49.0433333 10.8816977,48.7136 C10.8274814,48.5665333 11.0675442,48.2433333 10.7498023,48.172 C10.6324884,48.1457333 10.3358233,48.1218667 10.0851558,48.0682667 C9.71969302,47.9898667 9.30359302,47.6682667 9.02005116,47.3517333 C7.90603256,46.1077333 7.15933256,44.5932 6.46764419,43.0718667 C6.42814186,42.9852 6.38837442,42.894 6.39314651,42.7986667 C6.40163023,42.6281333 6.54558837,42.5008 6.67615814,42.3917333 C7.2820814,41.886 7.84107907,41.3234667 8.34360698,40.7138667 C8.79205116,40.1697333 9.20364419,39.5710667 9.37517442,38.8858667 C9.54657209,38.2005333 9.43999535,37.4113333 8.95655581,36.8986667 C8.59440698,36.5148 8.04071163,36.3238667 7.52068605,36.4034667 C6.23076279,36.6010667 5.76482093,38.4598667 5.29225116,39.4793333 C4.845,40.4437333 4.46495581,41.4397333 4.15622791,42.4576 C4.11805116,42.5832 4.08066977,42.7133333 4.09472093,42.8438667 C4.10956744,42.9830667 4.18154651,43.1086667 4.25206744,43.2294667 C5.16141628,44.7834667 6.20186512,46.2478667 7.27717674,47.6988 C7.57264884,48.0973333 8.03912093,48.2892 8.3090093,48.6604 C8.48120233,48.8972 8.44713488,49.2077333 8.56047209,49.4673333 C8.67261628,49.7242667 8.88497442,50.0328 9.0832814,50.2297333 C9.47432791,50.6182667 10.0350488,50.5284 10.5325395,50.4984 C10.6563488,50.4909333 10.7401256,50.4861333 10.8394116,50.4253333 C11.0011326,50.3265333 11.0678093,50.1546667 11.140186,49.9864 C11.1830023,49.8866667 11.2181302,49.7832 11.2407977,49.6777333" id="Fill-69" fill="#F4E4C1"></path>
                    <path d="M5.74162326,39.2464 C6.51602791,39.9669333 7.29056512,40.6873333 8.06496977,41.408 C8.01526047,41.3617333 11.5304372,38.0733333 11.7331186,37.8704 C12.5063302,37.0957333 13.3016791,36.2873333 13.6825186,35.2586667 C14.4957628,33.0621333 12.2450581,30.9657333 10.1567372,32.1770667 C7.88972791,33.4918667 5.9311814,35.788 4.91803953,38.208 C4.89603488,38.2605333 4.87389767,38.3162667 4.88065814,38.3729333 C4.89006977,38.4506667 4.95091395,38.5105333 5.00804651,38.5638667 C5.25261628,38.7913333 5.49705349,39.0188 5.74162326,39.2464" id="Fill-70" fill="#417F79"></path>
                    <path d="M4.68076047,8.95146667 C6.49561395,2.4824 13.1805209,-1.28213333 19.6121093,0.543333333 C26.0436977,2.3688 29.7862116,9.0928 27.9713581,15.562 C26.1566372,22.0310667 19.4715977,25.7956 13.0400093,23.9701333 C6.60855349,22.1448 2.86590698,15.4206667 4.68076047,8.95146667" id="Fill-71" fill="#F8F2E3"></path>
                    <path d="M19.4773969,14.625 C19.4773969,14.7291667 19.4368274,14.8177083 19.355688,14.890625 C19.2745487,14.9635417 19.1760226,15 19.0601093,15 L17.0432191,15 C16.9852626,15 16.9359993,14.9817708 16.8954297,14.9453125 C16.8548602,14.9088542 16.8345753,14.8645833 16.8345753,14.8125 L16.8345753,13.0625 C16.8345753,13.0104167 16.8142904,12.9661458 16.7737208,12.9296875 C16.7331513,12.8932292 16.683888,12.875 16.6259314,12.875 L15.3740686,12.875 C15.316112,12.875 15.2668487,12.8932292 15.2262792,12.9296875 C15.1857096,12.9661458 15.1654247,13.0104167 15.1654247,13.0625 L15.1654247,14.8125 C15.1654247,14.8645833 15.1451398,14.9088542 15.1045703,14.9453125 C15.0640007,14.9817708 15.0147374,15 14.9567809,15 L12.9398907,15 C12.8239774,15 12.7254513,14.9635417 12.644312,14.890625 C12.5631726,14.8177083 12.5226031,14.7291667 12.5226031,14.625 L12.5226031,12.390625 C12.5226031,12.328125 12.5457856,12.2760417 12.592151,12.234375 L15.8609041,9.828125 C15.9072695,9.796875 15.9536346,9.78125 16,9.78125 C16.0463654,9.78125 16.0927305,9.796875 16.1390959,9.828125 L19.407849,12.234375 C19.4542144,12.2760417 19.4773969,12.328125 19.4773969,12.390625 L19.4773969,14.625 Z M20.9379037,11.4375 C20.9726776,11.46875 20.9929625,11.5104167 20.9987581,11.5625 C21.0045537,11.6145833 20.9900646,11.6614583 20.9552906,11.703125 L20.520616,12.1875 C20.4858421,12.2291667 20.4394767,12.25 20.3815201,12.25 C20.3235636,12.25 20.2714027,12.234375 20.2250373,12.203125 L16.1390959,9.1875 C16.0927305,9.15625 16.0463654,9.140625 16,9.140625 C15.9536346,9.140625 15.9072695,9.15625 15.8609041,9.1875 L11.7749627,12.203125 C11.7285973,12.234375 11.6764364,12.25 11.6184799,12.25 C11.5605233,12.25 11.5141579,12.2291667 11.479384,12.1875 L11.0447094,11.703125 C11.0099354,11.6614583 10.9954463,11.6145833 11.0012419,11.5625 C11.0070375,11.5104167 11.0273224,11.46875 11.0620963,11.4375 L15.4783905,8.171875 C15.6290777,8.05729175 15.8029476,8 16,8 C16.1970524,8 16.3767181,8.05729175 16.5389965,8.171875 L18.0864382,9.328125 L18.0864382,8.1875 C18.0864382,8.13541675 18.1067231,8.09114575 18.1472926,8.0546875 C18.1878622,8.01822925 18.2371255,8 18.295082,8 L19.2687531,8 C19.3267097,8 19.375973,8.01822925 19.4165425,8.0546875 C19.457112,8.09114575 19.4773969,8.13541675 19.4773969,8.1875 L19.4773969,10.359375 L20.9379037,11.4375 Z" id="home" fill="#E0A457"></path>
                </g>
                <path d="M58.5,58.4999462 C58.5,48.8350069 66.3350069,41 75.9999462,41 C85.6649931,41 93.5,48.8350069 93.5,58.4999462 C93.5,68.1649931 85.6649931,76 75.9999462,76 C66.3350069,76 58.5,68.1649931 58.5,58.4999462" id="Fill-80" fill="#F8F2E3"></path>
                <path d="M80.8683557,62.4107143 C80.8683557,62.5744049 80.8115584,62.7135415 80.6979633,62.828125 C80.5843682,62.9427085 80.4464317,63 80.284153,63 L77.4605067,63 C77.3793676,63 77.310399,62.971354 77.2536016,62.9140625 C77.1968042,62.856771 77.1684054,62.7872023 77.1684054,62.7053571 L77.1684054,59.9553571 C77.1684054,59.873512 77.1400065,59.8039433 77.0832091,59.7466518 C77.0264118,59.6893602 76.9574432,59.6607143 76.876304,59.6607143 L75.123696,59.6607143 C75.0425568,59.6607143 74.9735882,59.6893602 74.9167909,59.7466518 C74.8599935,59.8039433 74.8315946,59.873512 74.8315946,59.9553571 L74.8315946,62.7053571 C74.8315946,62.7872023 74.8031958,62.856771 74.7463984,62.9140625 C74.689601,62.971354 74.6206324,63 74.5394933,63 L71.715847,63 C71.5535683,63 71.4156318,62.9427085 71.3020367,62.828125 C71.1884416,62.7135415 71.1316443,62.5744049 71.1316443,62.4107143 L71.1316443,58.8995536 C71.1316443,58.8013393 71.1640999,58.7194942 71.2290114,58.6540179 L75.8052658,54.8727679 C75.8701773,54.8236607 75.9350885,54.7991071 76,54.7991071 C76.0649115,54.7991071 76.1298227,54.8236607 76.1947342,54.8727679 L80.7709886,58.6540179 C80.8359001,58.7194942 80.8683557,58.8013393 80.8683557,58.8995536 L80.8683557,62.4107143 Z M82.9130651,57.4017857 C82.9617487,57.4508929 82.9901475,57.5163692 82.9982613,57.5982143 C83.0063751,57.6800594 82.9860905,57.7537201 82.9374069,57.8191964 L82.3288624,58.5803571 C82.2801789,58.6458335 82.2152673,58.6785714 82.1341282,58.6785714 C82.0529891,58.6785714 81.9799637,58.6540179 81.9150522,58.6049107 L76.1947342,53.8660714 C76.1298227,53.8169643 76.0649115,53.7924107 76,53.7924107 C75.9350885,53.7924107 75.8701773,53.8169643 75.8052658,53.8660714 L70.0849478,58.6049107 C70.0200363,58.6540179 69.9470109,58.6785714 69.8658718,58.6785714 C69.7847327,58.6785714 69.7198211,58.6458335 69.6711376,58.5803571 L69.0625931,57.8191964 C69.0139095,57.7537201 68.9936249,57.6800594 69.0017387,57.5982143 C69.0098525,57.5163692 69.0382513,57.4508929 69.0869349,57.4017857 L75.2697466,52.2700893 C75.4807088,52.0900299 75.7241266,52 76,52 C76.2758734,52 76.5274053,52.0900299 76.7545951,52.2700893 L78.9210134,54.0870536 L78.9210134,52.2946429 C78.9210134,52.2127977 78.9494123,52.143229 79.0062097,52.0859375 C79.063007,52.028646 79.1319756,52 79.2131148,52 L80.5762544,52 C80.6573935,52 80.7263621,52.028646 80.7831595,52.0859375 C80.8399568,52.143229 80.8683557,52.2127977 80.8683557,52.2946429 L80.8683557,55.7075893 L82.9130651,57.4017857 Z" id="home" fill="#E0A457"></path>
                <path d="M93,62.5 C92.9982724,60.0495744 92.4694796,57.6991325 91.5,55.5182943 C91.5007853,55.5121962 91.5015705,55.5060981 91.5023558,55.5 C92.4719925,57.6826167 93,60.0350914 93,62.4879308 C93,62.4921233 93,62.4959346 93,62.5" id="Fill-81" fill="#7295C1"></path>
                <path d="M91.4980156,55.5 C89.8370816,50.9170605 86.6406271,47.059263 82.5254002,44.5395126 C82.5169335,44.5263855 82.5084667,44.5131271 82.5,44.5 C86.6293822,47.020538 89.8361556,50.8860805 91.5,55.4810969 C91.4993385,55.487398 91.4986771,55.493699 91.4980156,55.5" id="Fill-82" fill="#D26173"></path>
                <path d="M120,25.5 C119.738494,20.9511973 116.9704,17.081642 113.01683,15.0224819 C113.011173,15.0150323 113.005657,15.0075827 113,15 C116.965875,17.0594261 119.743302,20.9389586 120,25.5" id="Fill-90" fill="#7295C1"></path>
                <path d="M87.3268185,59.7173265 C87.2674181,59.9332868 87.1885363,60.1409694 87.0914878,60.3350528 C87.0417683,60.4346813 86.9858339,60.5323882 86.90994,60.6023055 C86.856396,60.6516763 86.7948443,60.6855264 86.7338901,60.718933 C86.589632,60.7978671 86.4453739,60.8768013 86.3011158,60.9557354 C86.252472,60.9823424 86.2000036,61.0093929 86.1477743,60.9968285 C86.1095285,60.9876638 86.0769001,60.9579527 86.045706,60.9286849 C85.8829226,60.7762859 85.7243223,60.6169394 85.5703832,60.451089 C85.5451649,60.4237429 85.5193491,60.3950664 85.5072778,60.3563384 C85.4828961,60.2779955 85.5241298,60.1931487 85.5665586,60.1276659 C85.7800176,59.7993648 85.7031676,59.6771203 85.7715319,59.3217688 C85.8177853,59.08201 85.9558285,58.9640522 86.1022379,58.8033754 C86.3462935,58.535088 86.5916638,58.2685743 86.8364365,58.0013216 C86.8640452,57.971167 87.4313967,58.466501 87.5,58.5195672 C87.4101225,58.7856374 87.4505196,59.1186686 87.3981707,59.4045462 C87.3789283,59.510383 87.3550248,59.6147417 87.3268185,59.7173265" id="Fill-98" fill="#F4E4C1"></path>
                <path d="M87.4636085,40.8562825 C87.3492786,40.9624171 87.2441539,41.0930647 87.1518363,41.2494178 C86.7684245,41.8977532 86.7118599,42.7004541 86.8424654,43.4428663 C87.0493797,44.6184297 87.6298336,45.7371494 87.9689543,46.8815746 C88.3569019,48.1904355 88.7447161,49.4995615 89.1326638,50.808555 L86,58.1535732 L87.5157706,59 L93,50.8525458 C92.4000686,49.1398169 91.8073412,47.4684287 91.3196051,45.7307892 C90.8821635,44.1730883 90.7336815,42.4060333 89.6268034,41.1439457 C89.0020583,40.4313466 88.0924892,40.2732709 87.4636085,40.8562825" id="Fill-99" fill="#417F79"></path>
                <ellipse id="Oval" fill="#ECEDF6" cx="66.5" cy="91.5" rx="66.5" ry="1.5"></ellipse>
            </g>
        </g>
    </g>
</svg>