<?xml version="1.0" encoding="UTF-8"?>
<svg width="30px" height="40px" viewBox="0 0 30 40" version="1.1" xmlns="http://www.w3.org/2000/svg" xmlns:xlink="http://www.w3.org/1999/xlink">
    <!-- Generator: Sketch 55.2 (78181) - https://sketchapp.com -->
    <title>XLS</title>
    <desc>Created with Sketch.</desc>
    <g id="Property-Details" stroke="none" stroke-width="1" fill="none" fill-rule="evenodd">
        <g id="Artboard" transform="translate(-89.000000, -68.000000)" fill="#788195" fill-rule="nonzero">
            <g id="XLS" transform="translate(89.000000, 68.000000)">
                <path d="M3.80273438,24.5507812 L5.59570312,21.46875 L7.30664062,21.46875 L4.72851562,25.6992188 L7.36523438,30 L5.63671875,30 L3.80273438,26.8710938 L1.96289062,30 L0.240234375,30 L2.8828125,25.6992188 L0.298828125,21.46875 L2.00976562,21.46875 L3.80273438,24.5507812 Z M9.94335938,28.8164062 L13.8164062,28.8164062 L13.8164062,30 L8.4609375,30 L8.4609375,21.46875 L9.94335938,21.46875 L9.94335938,28.8164062 Z M19.4121094,27.8027344 C19.4121094,27.4277325 19.2802748,27.1386729 19.0166016,26.9355469 C18.7529284,26.7324209 18.2773472,26.5273448 17.5898438,26.3203125 C16.9023403,26.1132802 16.3554708,25.8828138 15.9492188,25.6289062 C15.1718711,25.1406226 14.7832031,24.5039102 14.7832031,23.71875 C14.7832031,23.0312466 15.0634738,22.464846 15.6240234,22.0195312 C16.1845731,21.5742165 16.9121049,21.3515625 17.8066406,21.3515625 C18.4003936,21.3515625 18.9296852,21.4609364 19.3945312,21.6796875 C19.8593773,21.8984386 20.224608,22.2099589 20.4902344,22.6142578 C20.7558607,23.0185567 20.8886719,23.4667944 20.8886719,23.9589844 L19.4121094,23.9589844 C19.4121094,23.5136696 19.2724623,23.1650403 18.9931641,22.9130859 C18.7138658,22.6611316 18.3144557,22.5351562 17.7949219,22.5351562 C17.3105445,22.5351562 16.9345717,22.6386708 16.6669922,22.8457031 C16.3994127,23.0527354 16.265625,23.341795 16.265625,23.7128906 C16.265625,24.0253922 16.4101548,24.2861318 16.6992188,24.4951172 C16.9882827,24.7041026 17.4648404,24.9072256 18.1289062,25.1044922 C18.7929721,25.3017588 19.3261699,25.5263659 19.7285156,25.7783203 C20.1308614,26.0302747 20.4257803,26.3193343 20.6132812,26.6455078 C20.8007822,26.9716813 20.8945312,27.3535134 20.8945312,27.7910156 C20.8945312,28.5019567 20.622073,29.0673807 20.0771484,29.4873047 C19.5322238,29.9072287 18.7929734,30.1171875 17.859375,30.1171875 C17.2421844,30.1171875 16.6748073,30.0029308 16.1572266,29.7744141 C15.6396458,29.5458973 15.2373061,29.2304708 14.9501953,28.828125 C14.6630845,28.4257792 14.5195312,27.9570339 14.5195312,27.421875 L16.0019531,27.421875 C16.0019531,27.9062524 16.1621078,28.2812487 16.4824219,28.546875 C16.802736,28.8125013 17.2617158,28.9453125 17.859375,28.9453125 C18.3750026,28.9453125 18.762694,28.8408214 19.0224609,28.6318359 C19.2822279,28.4228505 19.4121094,28.1464861 19.4121094,27.8027344 Z"></path>
                <path d="M22.8174839,9.10814291 L28.7886326,9.10814291 C26.9970011,6.59281036 23.4911898,2.60692212 21.5079783,0.86405648 L21.5079783,7.60541817 C21.5077734,8.43402723 22.0952171,9.10814291 22.8174839,9.10814291 Z" id="Path"></path>
                <path d="M29.9110659,16.3781424 L29.9110659,11.2444134 L22.8174839,11.2444134 C21.0692909,11.2444134 19.6460667,9.61198803 19.6460667,7.60541817 L19.6460667,0 L2.27744552,0 C1.03985929,0 0.0368817089,1.15091422 0.0368817089,2.5712698 L0.0368817089,10.4852649 L0.0415943717,10.4852649 L0.0415943717,18.0171246 L28.2151302,18.0171246 L28.2151302,33.4431042 L0.0417992701,33.4431042 L0.0417992701,37.31302 C0.0909748819,38.6829706 1.07141364,39.776923 2.27765042,39.776923 L27.6711168,39.776923 C28.9084981,39.776923 29.9114757,38.625599 29.9114757,37.2056532 L29.9114757,35.0822913 L29.9110659,16.3781424 Z" id="Path"></path>
            </g>
        </g>
    </g>
</svg>