<?xml version="1.0" encoding="UTF-8"?>
<svg width="32px" height="38px" viewBox="0 0 32 38" version="1.1" xmlns="http://www.w3.org/2000/svg" xmlns:xlink="http://www.w3.org/1999/xlink">
    <!-- Generator: Sketch 55.2 (78181) - https://sketchapp.com -->
    <title>icn-while</title>
    <desc>Created with Sketch.</desc>
    <g id="Info-Pages" stroke="none" stroke-width="1" fill="none" fill-rule="evenodd">
        <g id="Features-&amp;-Benefits" transform="translate(-704.000000, -438.000000)" fill="#23A79A">
            <g id="Group-25" transform="translate(240.000000, 438.000000)">
                <g id="Group-19" transform="translate(331.000000, 0.000000)">
                    <g id="icn-while" transform="translate(133.000000, 0.000000)">
                        <path d="M9.83888372,9.82584859 L16.3657674,9.82584859 L19.2018605,12.6921128 L19.2018605,9.82584859 L26.5592558,9.82584859 C26.8997209,9.82584859 27.175814,9.54719446 27.175814,9.20310737 L27.175814,0.623117269 C27.175814,0.279030183 26.8997209,0 26.5592558,0 L9.83888372,0 C9.4984186,0 9.22232558,0.279030183 9.22232558,0.623117269 L9.22232558,9.20273132 C9.22269767,9.54719446 9.4987907,9.82584859 9.83888372,9.82584859 Z M23.0403721,3.61084612 C23.752186,3.61084612 24.3293023,4.19410193 24.3293023,4.91348837 C24.3293023,5.63249876 23.752186,6.21575458 23.0403721,6.21575458 C22.3285581,6.21575458 21.7514419,5.63249876 21.7514419,4.91348837 C21.7514419,4.19372588 22.3285581,3.61084612 23.0403721,3.61084612 Z M18.1990698,3.61084612 C18.9105116,3.61084612 19.4876279,4.19410193 19.4876279,4.91348837 C19.4876279,5.63249876 18.9105116,6.21575458 18.1990698,6.21575458 C17.4876279,6.21575458 16.9105116,5.63249876 16.9105116,4.91348837 C16.9105116,4.19372588 17.4876279,3.61084612 18.1990698,3.61084612 Z M13.3581395,3.61084612 C14.0699535,3.61084612 14.6466977,4.19410193 14.6466977,4.91348837 C14.6466977,5.63249876 14.0699535,6.21575458 13.3581395,6.21575458 C12.6463256,6.21575458 12.0692093,5.63249876 12.0692093,4.91348837 C12.0692093,4.19372588 12.6463256,3.61084612 13.3581395,3.61084612 Z M3.84483721,16.3717763 C3.84483721,13.3031964 6.30623256,10.8163681 9.34213953,10.8163681 C12.3780465,10.8163681 14.8394419,13.3031964 14.8394419,16.3717763 C14.8394419,19.4399802 12.3780465,21.9271846 9.34213953,21.9271846 C6.30623256,21.9275606 3.84483721,19.4399802 3.84483721,16.3717763 Z M31.9672558,28.6852053 L31.9672558,37.605146 L28.6455814,37.605146 C28.6455814,36.0607026 28.6455814,30.2999703 28.6455814,29.4252746 C28.6455814,28.3204354 27.6271628,28.266284 27.6271628,28.266284 L27.6271628,37.605146 L19.536,37.605146 C19.5356279,35.6865314 19.5356279,29.9649085 19.5356279,29.0131222 C19.5356279,28.061336 19.3413953,26.0825532 17.3726512,24.3613657 C18.5447442,23.3584364 20.0048372,22.7676596 21.5631628,22.7676596 L25.6,22.7676596 C28.8334884,22.7672835 31.9672558,25.4173182 31.9672558,28.6852053 Z M18.6504186,29.2883919 L18.6504186,37.605146 L14.9629767,37.605146 C14.9629767,35.8907274 14.9629767,31.0802771 14.9629767,30.1096883 C14.9629767,28.8826324 13.832186,28.8228402 13.832186,28.8228402 L13.832186,37.605146 L4.85134884,37.605146 C4.85097674,35.4759426 4.85097674,28.8228402 4.85097674,28.8228402 C4.85097674,28.8228402 3.71981395,28.9085799 3.71981395,30.1096883 C3.71981395,31.0607224 3.71981395,35.8865908 3.71981395,37.605146 L0.032372093,37.605146 L0.032372093,29.2883919 C0.032372093,25.6606235 3.51181395,22.719525 7.10139535,22.719525 L11.5821395,22.719525 C15.1717209,22.719525 18.6504186,25.6602474 18.6504186,29.2883919 Z M28.5343256,17.049045 C28.5343256,19.8133993 26.3170233,22.05429 23.5817674,22.05429 C20.8465116,22.05429 18.6292093,19.8133993 18.6292093,17.049045 C18.6292093,14.2846907 20.8465116,12.0441762 23.5817674,12.0441762 C26.3170233,12.0441762 28.5343256,14.2846907 28.5343256,17.049045 Z" id="Shape"></path>
                    </g>
                </g>
            </g>
        </g>
    </g>
</svg>