<?xml version="1.0" encoding="UTF-8"?>
<svg width="32px" height="37px" viewBox="0 0 32 37" version="1.1" xmlns="http://www.w3.org/2000/svg" xmlns:xlink="http://www.w3.org/1999/xlink">
    <!-- Generator: Sketch 55.2 (78181) - https://sketchapp.com -->
    <title>icn-own</title>
    <desc>Created with Sketch.</desc>
    <g id="Info-Pages" stroke="none" stroke-width="1" fill="none" fill-rule="evenodd">
        <g id="Features-&amp;-Benefits" transform="translate(-1035.000000, -439.000000)" fill="#23A79A">
            <g id="Group-25" transform="translate(240.000000, 438.000000)">
                <g id="Group-20" transform="translate(662.000000, 1.000000)">
                    <g id="icn-own" transform="translate(133.000000, 0.000000)">
                        <path d="M0,0 L0,37 L32,37 L32,0 L0,0 Z M4.80100801,6.1665125 L20.800048,6.1665125 L20.800048,9.25 L4.80100801,9.25 L4.80100801,6.1665125 Z M4.80100801,12.3334875 L11.200912,12.3334875 L11.200912,15.416975 L4.80100801,15.416975 L4.80100801,12.3334875 Z M27.199952,27.75 L24.00312,27.75 C22.4066241,27.7513875 20.8096481,28.174575 19.5937959,29.0204875 L18.8123481,29.5625375 C17.6814568,30.3469375 16.1219212,30.8334875 14.401104,30.8334875 C12.4359644,30.8334875 10.700747,29.961675 9.52665527,28.620425 L8.37752378,30.8334875 L4.800048,30.8334875 L8.00072001,24.6665125 L11.200912,24.6665125 C11.200912,26.3666625 12.6366064,27.75 14.401104,27.75 C15.3846338,27.75 16.3124831,27.4984 16.9408094,27.06365 L17.7188972,26.5202125 C19.4373144,25.3278875 21.6659767,24.6683625 24.00312,24.6665125 L27.199952,24.6665125 L27.199952,27.75 L27.199952,27.75 Z M27.199952,21.5834875 L4.80100801,21.5834875 L4.80100801,18.5 L27.199952,18.5 L27.199952,21.5834875 Z M27.199952,15.4165125 L14.401104,15.4165125 L14.401104,12.333025 L27.199952,12.333025 L27.199952,15.4165125 Z" id="Shape"></path>
                    </g>
                </g>
            </g>
        </g>
    </g>
</svg>