<?xml version="1.0" encoding="UTF-8"?>
<svg width="32px" height="38px" viewBox="0 0 32 38" version="1.1" xmlns="http://www.w3.org/2000/svg" xmlns:xlink="http://www.w3.org/1999/xlink">
    <!-- Generator: Sketch 55.2 (78181) - https://sketchapp.com -->
    <title>icn-before</title>
    <desc>Created with Sketch.</desc>
    <g id="Info-Pages" stroke="none" stroke-width="1" fill="none" fill-rule="evenodd">
        <g id="Features-&amp;-Benefits" transform="translate(-373.000000, -438.000000)" fill="#23A79A">
            <g id="Group-25" transform="translate(240.000000, 438.000000)">
                <g id="Group-21">
                    <g id="icn-before" transform="translate(133.000000, 0.000000)">
                        <path d="M24.0990943,30.9584622 L31.968032,30.9584622 L31.968032,0 L0,0 L0,37.962038 L24.0990943,37.962038 L24.0990943,30.9584622 Z M25.4656965,25.6629154 L6.50653059,25.6629154 L6.50653059,24.0811638 L25.4656965,24.0811638 L25.4656965,25.6629154 L25.4656965,25.6629154 Z M4.35565411,10.8429245 L16.6313667,2.69686517 L27.6523282,10.8666256 L26.6932774,12.1320558 L25.078925,10.9378256 L25.078925,20.2780668 L16.879117,20.2780668 L16.879117,15.6277133 L15.1368651,15.6277133 L15.1368651,20.2780668 L7.44855728,20.2780668 L7.44855728,10.6926561 L5.24275524,12.155757 L4.35565411,10.8429245 Z M19.1224303,33.9385346 L6.50653059,33.9385346 L6.50653059,32.3567831 L19.1224303,32.3567831 L19.1224303,33.9385346 L19.1224303,33.9385346 Z M6.50653059,29.800725 L6.50653059,28.2189734 L21.3491099,28.2189734 L21.3491099,29.800725 L6.50653059,29.800725 Z" id="Shape"></path>
                        <polygon id="Path" points="31.4797995 32.5402137 25.6974959 32.5402137 25.6974959 37.8276026"></polygon>
                    </g>
                </g>
            </g>
        </g>
    </g>
</svg>